<svg width="128" height="108" viewBox="0 0 128 108" fill="none" xmlns="http://www.w3.org/2000/svg">
<path d="M65.9736 9.17758C65.1235 7.70057 63.7366 7.70057 62.8865 9.17758L57.5923 18.2538C56.7497 19.7308 57.4432 20.8976 59.1433 20.8976H69.7168C71.4169 20.8976 72.1104 19.7086 71.2603 18.2538L65.9736 9.17758C65.1235 7.70057 63.7366 7.70057 62.8865 9.17758L57.5923 18.2538C56.7497 19.7308 57.4432 20.8976 59.1433 20.8976H69.7168C71.4169 20.8976 72.1104 19.7086 71.2603 18.2538L65.9736 9.17758Z" fill="white"/>
<path d="M78.71 28.6298C78.6006 28.7478 78.4683 28.8427 78.3209 28.9088C78.1736 28.975 78.0143 29.0109 77.8525 29.0145C77.6908 29.0181 77.53 28.9893 77.3798 28.9298C77.2296 28.8704 77.0931 28.7814 76.9785 28.6684C76.8639 28.5554 76.7735 28.4206 76.7128 28.2721C76.6521 28.1236 76.6223 27.9645 76.6252 27.8043C76.6281 27.6441 76.6637 27.4862 76.7298 27.3399C76.7959 27.1937 76.8912 27.0622 77.0099 26.9534C80.3384 23.6451 82.2074 19.1652 82.2074 14.4948C82.2074 9.8245 80.3384 5.34454 77.0099 2.03629C76.8971 1.92635 76.8076 1.79529 76.7465 1.65076C76.6854 1.50622 76.6539 1.35109 76.6539 1.1944C76.6539 1.03771 76.6854 0.882579 76.7465 0.738044C76.8076 0.593509 76.8971 0.462454 77.0099 0.352506V0.352506C77.1209 0.240862 77.2532 0.152199 77.3991 0.0916818C77.5451 0.0311642 77.7017 0 77.8599 0C78.0181 0 78.1748 0.0311642 78.3207 0.0916818C78.4666 0.152199 78.599 0.240862 78.71 0.352506C82.488 4.1066 84.6094 9.19081 84.6094 14.4911C84.6094 19.7915 82.488 24.8757 78.71 28.6298V28.6298Z" fill="white"/>
<path d="M51.8508 28.6299C51.7392 28.7407 51.6068 28.8285 51.4609 28.8885C51.315 28.9485 51.1586 28.9793 51.0007 28.9793C50.8428 28.9793 50.6864 28.9485 50.5405 28.8885C50.3947 28.8285 50.2622 28.7407 50.1507 28.6299C46.369 24.8777 44.2451 19.7928 44.2451 14.4913C44.2451 9.18975 46.369 4.10482 50.1507 0.352632C50.2623 0.242073 50.3948 0.154371 50.5407 0.0945373C50.6865 0.0347032 50.8428 0.00390625 51.0007 0.00390625C51.1586 0.00390625 51.3149 0.0347032 51.4608 0.0945373C51.6066 0.154371 51.7391 0.242073 51.8508 0.352632C51.9624 0.463191 52.0509 0.594444 52.1114 0.738896C52.1718 0.883349 52.2029 1.03817 52.2029 1.19453C52.2029 1.35088 52.1718 1.5057 52.1114 1.65015C52.0509 1.79461 51.9624 1.92586 51.8508 2.03642C48.5227 5.34341 46.6539 9.82215 46.6539 14.4913C46.6539 19.1604 48.5227 23.6391 51.8508 26.9461C51.9635 27.0561 52.053 27.1871 52.1141 27.3317C52.1752 27.4762 52.2067 27.6313 52.2067 27.788C52.2067 27.9447 52.1752 28.0998 52.1141 28.2444C52.053 28.3889 51.9635 28.52 51.8508 28.6299V28.6299Z" fill="white"/>
<path d="M78.9187 50.9693C81.7811 53.8074 83.7297 57.4221 84.5182 61.3568C85.3067 65.2914 84.8998 69.3692 83.3488 73.0748C81.7978 76.7804 79.1724 79.9474 75.8044 82.1755C72.4364 84.4037 68.477 85.5929 64.4268 85.5929C60.3765 85.5929 56.4171 84.4037 53.0492 82.1755C49.6812 79.9474 47.0558 76.7804 45.5047 73.0748C43.9537 69.3692 43.5468 65.2914 44.3353 61.3568C45.1238 57.4221 47.0724 53.8074 49.9348 50.9693C51.8371 49.0831 54.0962 47.5868 56.5829 46.5659C59.0695 45.545 61.7349 45.0195 64.4268 45.0195C67.1186 45.0195 69.784 45.545 72.2707 46.5659C74.7573 47.5868 77.0164 49.0831 78.9187 50.9693V50.9693Z" fill="white"/>
<path d="M33.4701 80.3839C32.7768 80.3817 32.0907 80.2442 31.451 79.9794C30.8113 79.7146 30.2305 79.3275 29.7418 78.8404C20.5512 69.712 15.3901 57.3468 15.3901 44.4557C15.3901 31.5646 20.5512 19.1994 29.7418 10.071C30.2306 9.56133 30.8174 9.15375 31.4677 8.87228C32.118 8.5908 32.8187 8.44113 33.5283 8.43208C34.238 8.42303 34.9423 8.55479 35.5997 8.81959C36.2571 9.08438 36.8543 9.47686 37.3562 9.97388C37.858 10.4709 38.2543 11.0624 38.5216 11.7135C38.789 12.3646 38.922 13.0621 38.9129 13.765C38.9038 14.4678 38.7527 15.1617 38.4685 15.8058C38.1842 16.4498 37.7727 17.031 37.2581 17.5151C30.0455 24.6671 25.9942 34.3621 25.9942 44.4705C25.9942 54.5788 30.0455 64.2738 37.2581 71.4258C37.9969 72.1608 38.5 73.0955 38.7045 74.1126C38.9089 75.1297 38.8055 76.1839 38.4073 77.1431C38.0091 78.1022 37.3338 78.9236 36.4661 79.504C35.5984 80.0845 34.5769 80.3983 33.5298 80.406L33.4701 80.3839Z" fill="white"/>
<path d="M95.3904 80.3843C94.3418 80.38 93.3178 80.0683 92.4478 79.4884C91.5778 78.9085 90.9007 78.0864 90.5019 77.1258C90.1031 76.1652 90.0005 75.1092 90.207 74.0909C90.4134 73.0726 90.9198 72.1377 91.6621 71.4041C98.8766 64.253 102.929 54.5577 102.929 44.4487C102.929 34.3397 98.8766 24.6444 91.6621 17.4933C90.6654 16.5052 90.1058 15.1654 90.1065 13.7687C90.1072 12.3719 90.6681 11.0327 91.6658 10.0455C92.6636 9.05838 94.0163 8.50419 95.4266 8.50488C96.8369 8.50558 98.1891 9.06109 99.1859 10.0492C108.363 19.183 113.515 31.5445 113.515 44.4302C113.515 57.316 108.363 69.6774 99.1859 78.8113C98.6918 79.3015 98.1048 79.6902 97.4586 79.9551C96.8123 80.22 96.1196 80.3558 95.4203 80.3547L95.3904 80.3843Z" fill="white"/>
<path d="M6.68656 100.785C6.71211 100.51 6.67456 100.233 6.5766 99.9742C6.47863 99.715 6.32269 99.48 6.11997 99.2862C5.72859 98.9487 5.1108 98.7799 4.2666 98.7799C3.81229 98.7548 3.35839 98.8354 2.94276 99.0151C2.52713 99.1947 2.16184 99.468 1.87735 99.8124L0.436979 98.4887C0.890618 97.964 1.46614 97.5512 2.11628 97.2841C2.83844 97.0443 3.59914 96.9322 4.36217 96.9532C7.38627 96.9532 8.89832 98.1666 8.89832 100.593V107.722H6.73776V106.749C6.35373 107.115 5.89646 107.402 5.39401 107.591C4.89157 107.78 4.35458 107.867 3.81605 107.847C2.50766 107.847 1.52693 107.523 0.873869 106.874C0.578394 106.57 0.349088 106.211 0.199571 105.818C0.0500544 105.426 -0.016619 105.009 0.00350574 104.591C-0.0163494 104.18 0.0581511 103.769 0.221644 103.389C0.385136 103.009 0.633543 102.669 0.94896 102.394C1.61454 101.818 2.55999 101.527 3.78192 101.527H4.85025V103.029H4.10959C2.78527 103.029 2.12652 103.535 2.12652 104.551C2.12652 105.567 2.80916 106.07 4.13007 106.07C5.07667 106.07 5.76728 105.867 6.20189 105.461C6.52273 105.13 6.68314 104.621 6.68314 103.873L6.68656 100.785Z" fill="white"/>
<path d="M25.8079 107.741V101.209C25.8079 99.616 25.0661 98.8206 23.5825 98.8228C22.9958 98.8031 22.4246 99.0075 21.9919 99.392C21.7575 99.6126 21.5751 99.8797 21.4573 100.175C21.3395 100.47 21.289 100.787 21.3093 101.103V107.741H19.0873V101.209C19.0873 99.616 18.3466 98.8206 16.8653 98.8228C16.5707 98.8089 16.2761 98.852 15.9989 98.9498C15.7217 99.0475 15.4674 99.1979 15.2508 99.392C15.0138 99.6327 14.8307 99.9184 14.7133 100.231C14.5958 100.544 14.5464 100.877 14.5682 101.209V107.741H12.3428V97.0226H14.5238V98.0915C14.8946 97.6957 15.3499 97.3829 15.858 97.1748C16.3661 96.9668 16.9148 96.8686 17.466 96.8869C18.0856 96.854 18.7031 96.9817 19.2549 97.2568C19.8068 97.5319 20.2732 97.9445 20.6061 98.4522C21.0192 97.949 21.5471 97.5458 22.1483 97.2741C22.7495 97.0025 23.4075 96.8699 24.0705 96.8869C24.5796 96.863 25.0885 96.9366 25.5681 97.1036C26.0478 97.2705 26.4888 97.5275 26.866 97.8598C27.266 98.2579 27.577 98.7316 27.7797 99.2515C27.9823 99.7713 28.0721 100.326 28.0435 100.881V107.731L25.8079 107.741Z" fill="white"/>
<path d="M44.928 107.742V101.209C44.928 99.6162 44.1873 98.8209 42.706 98.8231C42.3964 98.8103 42.0875 98.861 41.7995 98.9718C41.5116 99.0827 41.251 99.2512 41.0348 99.4665C40.8186 99.6817 40.6517 99.9387 40.545 100.221C40.4384 100.503 40.3943 100.804 40.4157 101.103V107.742H38.1903V101.209C38.1903 99.6162 37.4496 98.8209 35.9683 98.8231C35.6737 98.8095 35.3793 98.8529 35.1021 98.9506C34.825 99.0483 34.5706 99.1985 34.3538 99.3923C34.1168 99.633 33.9338 99.9187 33.8163 100.231C33.6988 100.544 33.6494 100.877 33.6712 101.209V107.742H31.4458V97.0229H33.6268V98.0918C33.9982 97.6957 34.454 97.3828 34.9627 97.1747C35.4714 96.9667 36.0207 96.8686 36.5724 96.8872C37.1919 96.855 37.8091 96.983 38.3609 97.258C38.9126 97.5331 39.3791 97.9453 39.7126 98.4525C40.1253 97.9489 40.6531 97.5454 41.2544 97.2737C41.8557 97.0021 42.5139 96.8697 43.177 96.8872C43.6855 96.863 44.194 96.9365 44.6731 97.1035C45.1523 97.2704 45.5927 97.5276 45.969 97.8601C46.369 98.2581 46.6801 98.7319 46.8827 99.2518C47.0853 99.7716 47.1751 100.326 47.1466 100.881V107.732L44.928 107.742Z" fill="white"/>
<path d="M56.485 100.785C56.5105 100.51 56.473 100.233 56.375 99.9742C56.2771 99.715 56.1211 99.48 55.9184 99.2862C55.5259 98.9553 54.8944 98.7799 54.065 98.7799C53.6107 98.7551 53.1569 98.8358 52.7414 99.0154C52.3258 99.195 51.9604 99.4683 51.6758 99.8124L50.2354 98.4887C50.6898 97.9648 51.2651 97.5521 51.9147 97.2841C52.6369 97.0443 53.3976 96.9322 54.1606 96.9532C57.1847 96.9532 58.6967 98.1666 58.6967 100.593V107.722H56.5396V106.749C56.1547 107.115 55.6968 107.401 55.1938 107.59C54.6909 107.779 54.1535 107.867 53.6145 107.847C52.3061 107.847 51.3254 107.523 50.6723 106.874C50.3768 106.57 50.1473 106.211 49.9973 105.818C49.8472 105.426 49.7796 105.009 49.7985 104.591C49.7808 104.178 49.858 103.767 50.0244 103.387C50.1909 103.007 50.4425 102.668 50.761 102.394C51.4266 101.818 52.3755 101.527 53.594 101.527H54.6623V103.029H53.9217C52.5996 103.029 51.9386 103.536 51.9386 104.551C51.9386 105.566 52.6064 106.072 53.9421 106.07C54.8865 106.07 55.5771 105.867 56.014 105.461C56.3314 105.13 56.4952 104.621 56.4952 103.873L56.485 100.785Z" fill="white"/>
<path d="M70.135 106.345C69.6732 106.837 69.1086 107.227 68.4788 107.49C67.849 107.753 67.1685 107.883 66.4829 107.871C65.8565 107.897 65.2311 107.8 64.6445 107.586C64.0578 107.371 63.5221 107.044 63.0697 106.623C62.048 105.663 61.5383 104.247 61.5405 102.374C61.5428 100.501 62.0525 99.0844 63.0697 98.1247C63.5252 97.7095 64.062 97.387 64.6482 97.1761C65.2344 96.9652 65.8582 96.8703 66.4829 96.897C67.1649 96.8817 67.8425 97.0075 68.4704 97.266C69.0984 97.5245 69.6624 97.9097 70.1248 98.3961L68.5991 99.8356C68.3418 99.5296 68.0197 99.2808 67.6546 99.1061C67.2895 98.9314 66.8899 98.8348 66.4829 98.823C66.0874 98.8066 65.6938 98.8846 65.3367 99.0502C64.9796 99.2158 64.67 99.4639 64.4349 99.7727C63.998 100.309 63.7796 101.173 63.7796 102.374C63.7796 103.575 63.998 104.459 64.4349 104.991C64.6692 105.301 64.9786 105.55 65.3358 105.717C65.693 105.883 66.087 105.961 66.4829 105.945C66.8902 105.933 67.2901 105.836 67.6553 105.661C68.0205 105.485 68.3424 105.236 68.5991 104.929L70.135 106.345Z" fill="#A6A8AC"/>
<path d="M79.3979 107.742V101.166C79.3979 99.604 78.6572 98.823 77.1759 98.823C76.885 98.8104 76.5945 98.8542 76.3214 98.9519C76.0482 99.0497 75.798 99.1994 75.5853 99.3922C75.3581 99.6296 75.1829 99.9092 75.0703 100.214C74.9577 100.519 74.9099 100.843 74.93 101.166V107.742H72.7046V92.6909H74.93V98.0917C75.2895 97.7043 75.7306 97.3964 76.2235 97.1885C76.7164 96.9807 77.2495 96.8779 77.7869 96.8871C78.313 96.8598 78.839 96.9439 79.3283 97.1337C79.8175 97.3234 80.2582 97.6142 80.6198 97.9858C81.3178 98.7697 81.6772 99.7843 81.6233 100.819V107.732L79.3979 107.742Z" fill="#A6A8AC"/>
<path d="M84.979 94.908V92.6279H87.3375V94.908H84.979ZM85.0473 107.741V97.0227H87.2693V107.741H85.0473Z" fill="#A6A8AC"/>
<path d="M97.7133 96.8247C97.8376 96.8029 97.9629 96.7874 98.0888 96.7783C98.2287 96.7783 98.355 96.7783 98.4642 96.7783C98.5735 96.7783 98.6997 96.7783 98.8363 96.7783C98.9633 96.7874 99.0898 96.8029 99.2151 96.8247V105.392C99.2068 105.615 99.2321 105.838 99.2902 106.054C99.3281 106.189 99.3996 106.313 99.4984 106.415C99.5807 106.498 99.6864 106.555 99.8022 106.58C99.9259 106.604 100.052 106.615 100.178 106.614C100.27 106.614 100.372 106.614 100.488 106.614C100.59 106.608 100.69 106.594 100.789 106.571C100.883 106.939 100.929 107.317 100.925 107.696C100.758 107.751 100.583 107.783 100.406 107.792C100.202 107.792 100.014 107.815 99.8397 107.815C99.5609 107.817 99.2829 107.783 99.0138 107.712C98.7649 107.649 98.5323 107.537 98.3311 107.381C98.1258 107.209 97.9685 106.989 97.8737 106.743C97.7519 106.425 97.694 106.088 97.7031 105.75L97.7133 96.8247Z" fill="white"/>
<path d="M106.447 102.682C106.447 102.096 106.294 101.689 105.986 101.464C105.591 101.217 105.124 101.1 104.655 101.133C104.32 101.131 103.986 101.158 103.655 101.212C103.347 101.265 103.043 101.337 102.744 101.427C102.543 101.068 102.443 100.664 102.454 100.256C102.828 100.14 103.211 100.056 103.601 100.004C104.001 99.9462 104.404 99.9163 104.809 99.915C105.833 99.915 106.601 100.137 107.133 100.577C107.666 101.017 107.929 101.745 107.929 102.735V107.493C107.587 107.573 107.14 107.652 106.628 107.735C106.114 107.821 105.593 107.865 105.072 107.864C104.613 107.869 104.155 107.823 103.706 107.728C103.338 107.654 102.99 107.508 102.682 107.298C102.403 107.104 102.179 106.844 102.031 106.544C101.87 106.194 101.792 105.814 101.802 105.432C101.79 105.057 101.875 104.685 102.048 104.35C102.222 104.015 102.478 103.727 102.795 103.512C103.114 103.294 103.472 103.134 103.85 103.039C104.259 102.933 104.682 102.88 105.106 102.883C105.43 102.883 105.7 102.883 105.908 102.903C106.116 102.923 106.294 102.936 106.437 102.956L106.447 102.682ZM106.447 104.118C106.292 104.098 106.098 104.078 105.864 104.058C105.628 104.038 105.43 104.028 105.266 104.028C104.761 103.994 104.258 104.109 103.822 104.359C103.656 104.478 103.524 104.636 103.437 104.817C103.351 104.999 103.313 105.199 103.328 105.399C103.313 105.641 103.371 105.882 103.495 106.093C103.599 106.255 103.743 106.388 103.915 106.481C104.088 106.571 104.278 106.626 104.474 106.643C104.667 106.662 104.861 106.672 105.055 106.673C105.297 106.673 105.54 106.661 105.782 106.636C106.012 106.618 106.24 106.582 106.464 106.527L106.447 104.118Z" fill="white"/>
<path d="M110.192 96.8247C110.317 96.8029 110.442 96.7874 110.568 96.7783C110.704 96.7783 110.831 96.7783 110.943 96.7783C111.056 96.7783 111.182 96.7783 111.326 96.7783C111.453 96.7868 111.579 96.8023 111.704 96.8247V101.004C111.92 100.682 112.214 100.418 112.561 100.233C112.992 100.005 113.477 99.8905 113.967 99.9023C114.411 99.8976 114.852 99.9728 115.268 100.124C115.661 100.271 116.012 100.507 116.292 100.812C116.597 101.159 116.824 101.563 116.957 102C117.125 102.551 117.204 103.124 117.193 103.698C117.193 105.002 116.813 106.022 116.053 106.759C115.293 107.496 114.199 107.864 112.773 107.864C112.315 107.862 111.858 107.819 111.407 107.735C111 107.669 110.598 107.573 110.206 107.447L110.192 96.8247ZM111.704 106.461C111.896 106.523 112.094 106.565 112.295 106.587C112.511 106.613 112.729 106.625 112.947 106.623C113.304 106.627 113.659 106.569 113.995 106.451C114.308 106.343 114.592 106.167 114.824 105.935C115.074 105.68 115.264 105.377 115.384 105.045C115.532 104.633 115.603 104.198 115.592 103.761C115.629 103.097 115.476 102.436 115.148 101.851C114.989 101.62 114.769 101.435 114.511 101.314C114.253 101.194 113.966 101.143 113.681 101.166C113.448 101.169 113.218 101.208 112.998 101.282C112.75 101.359 112.523 101.488 112.333 101.66C112.142 101.831 111.993 102.041 111.896 102.275C111.769 102.591 111.709 102.929 111.718 103.268L111.704 106.461Z" fill="white"/>
<path d="M119.094 106.312C119.387 106.426 119.691 106.514 120.002 106.574C120.327 106.635 120.657 106.666 120.988 106.666C121.218 106.669 121.447 106.644 121.671 106.593C121.869 106.551 122.058 106.476 122.23 106.372C122.383 106.278 122.514 106.154 122.613 106.008C122.708 105.865 122.758 105.698 122.756 105.528C122.762 105.358 122.724 105.189 122.643 105.038C122.567 104.908 122.462 104.795 122.336 104.707C122.199 104.613 122.05 104.537 121.893 104.479C121.725 104.416 121.551 104.35 121.35 104.293L120.814 104.101C120.287 103.936 119.803 103.663 119.394 103.301C119.242 103.139 119.124 102.949 119.048 102.743C118.972 102.537 118.939 102.318 118.95 102.099C118.937 101.795 118.998 101.492 119.126 101.214C119.255 100.936 119.448 100.691 119.691 100.498C120.186 100.101 120.913 99.9053 121.869 99.9053C122.262 99.9047 122.654 99.9413 123.039 100.014C123.38 100.079 123.715 100.166 124.043 100.276C124.021 100.476 123.982 100.674 123.927 100.868C123.875 101.057 123.807 101.241 123.722 101.418C123.458 101.327 123.189 101.25 122.917 101.186C122.589 101.111 122.253 101.074 121.916 101.077C121.572 101.07 121.229 101.135 120.913 101.269C120.777 101.325 120.662 101.42 120.584 101.543C120.506 101.665 120.47 101.807 120.48 101.95C120.474 102.1 120.511 102.249 120.585 102.381C120.659 102.501 120.758 102.605 120.875 102.685C121.007 102.773 121.149 102.845 121.299 102.9C121.456 102.96 121.626 103.019 121.811 103.079L122.493 103.301C122.728 103.377 122.956 103.471 123.176 103.582C123.388 103.685 123.581 103.823 123.746 103.989C123.909 104.162 124.038 104.363 124.125 104.581C124.228 104.85 124.278 105.135 124.272 105.422C124.277 105.763 124.201 106.1 124.048 106.407C123.896 106.715 123.672 106.983 123.394 107.192C123.087 107.416 122.74 107.585 122.37 107.689C121.944 107.812 121.501 107.872 121.056 107.867C120.626 107.872 120.197 107.839 119.773 107.768C119.425 107.71 119.082 107.624 118.749 107.51C118.77 107.306 118.813 107.106 118.879 106.911C118.937 106.696 119.012 106.511 119.094 106.312Z" fill="white"/>
<path d="M124.9 96.8705H124.377V96.8109V96.6852V96.6289H125.709C125.711 96.6476 125.711 96.6665 125.709 96.6852C125.709 96.705 125.709 96.7249 125.709 96.7447C125.709 96.7646 125.709 96.7878 125.709 96.8076C125.711 96.8285 125.711 96.8496 125.709 96.8705H125.19V98.5814H125.05H124.903L124.9 96.8705Z" fill="white"/>
<path d="M126.084 96.6289H126.159H126.327H126.405L126.927 97.85L127.45 96.6289H127.518H127.682H127.757L127.852 98.5814H127.784H127.641H127.576L127.511 97.0624L127.02 98.1777H126.904H126.798L126.32 97.0558L126.258 98.5814H126.194H126.057H125.992L126.084 96.6289Z" fill="white"/>
</svg>
