<svg width="64" height="54" viewBox="0 0 64 54" fill="none" xmlns="http://www.w3.org/2000/svg">
<path d="M32.9868 4.58879C32.5618 3.85029 31.8683 3.85029 31.4433 4.58879L28.7962 9.12689C28.3749 9.8654 28.7216 10.4488 29.5716 10.4488H34.8584C35.7085 10.4488 36.0552 9.85432 35.6302 9.12689L32.9868 4.58879C32.5618 3.85029 31.8683 3.85029 31.4433 4.58879L28.7962 9.12689C28.3749 9.8654 28.7216 10.4488 29.5716 10.4488H34.8584C35.7085 10.4488 36.0552 9.85432 35.6302 9.12689L32.9868 4.58879Z" fill="white"/>
<path d="M39.355 14.3149C39.3003 14.3739 39.2341 14.4214 39.1605 14.4544C39.0868 14.4875 39.0071 14.5054 38.9263 14.5072C38.8454 14.5091 38.765 14.4947 38.6899 14.4649C38.6148 14.4352 38.5466 14.3907 38.4892 14.3342C38.4319 14.2777 38.3867 14.2103 38.3564 14.136C38.326 14.0618 38.3111 13.9822 38.3126 13.9021C38.3141 13.822 38.3319 13.7431 38.3649 13.67C38.398 13.5969 38.4456 13.5311 38.5049 13.4767C40.1692 11.8226 41.1037 9.58259 41.1037 7.24742C41.1037 4.91225 40.1692 2.67227 38.5049 1.01815C38.4486 0.963173 38.4038 0.897645 38.3733 0.825378C38.3427 0.75311 38.327 0.675546 38.327 0.5972C38.327 0.518853 38.3427 0.441289 38.3733 0.369022C38.4038 0.296754 38.4486 0.231227 38.5049 0.176253V0.176253C38.5604 0.120431 38.6266 0.0760997 38.6996 0.0458409C38.7725 0.0155821 38.8509 0 38.93 0C39.0091 0 39.0874 0.0155821 39.1604 0.0458409C39.2333 0.0760997 39.2995 0.120431 39.355 0.176253C41.244 2.0533 42.3047 4.59541 42.3047 7.24557C42.3047 9.89574 41.244 12.4378 39.355 14.3149V14.3149Z" fill="white"/>
<path d="M25.9254 14.315C25.8696 14.3703 25.8034 14.4143 25.7304 14.4442C25.6575 14.4742 25.5793 14.4897 25.5004 14.4897C25.4214 14.4897 25.3432 14.4742 25.2703 14.4442C25.1973 14.4143 25.1311 14.3703 25.0753 14.315C23.1845 12.4389 22.1226 9.8964 22.1226 7.24564C22.1226 4.59487 23.1845 2.05241 25.0753 0.176316C25.1311 0.121036 25.1974 0.0771857 25.2703 0.0472686C25.3433 0.0173516 25.4214 0.00195313 25.5004 0.00195313C25.5793 0.00195312 25.6575 0.0173516 25.7304 0.0472686C25.8033 0.0771857 25.8696 0.121036 25.9254 0.176316C25.9812 0.231595 26.0255 0.297222 26.0557 0.369448C26.0859 0.441674 26.1014 0.519086 26.1014 0.597263C26.1014 0.67544 26.0859 0.752851 26.0557 0.825077C26.0255 0.897303 25.9812 0.96293 25.9254 1.01821C24.2613 2.67171 23.3269 4.91107 23.3269 7.24564C23.3269 9.5802 24.2613 11.8196 25.9254 13.4731C25.9817 13.528 26.0265 13.5936 26.0571 13.6658C26.0876 13.7381 26.1033 13.8157 26.1033 13.894C26.1033 13.9724 26.0876 14.0499 26.0571 14.1222C26.0265 14.1945 25.9817 14.26 25.9254 14.315V14.315Z" fill="white"/>
<path d="M39.4594 25.4847C40.8906 26.9037 41.8649 28.7111 42.2591 30.6784C42.6534 32.6457 42.4499 34.6846 41.6744 36.5374C40.8989 38.3902 39.5862 39.9737 37.9022 41.0878C36.2182 42.2018 34.2385 42.7964 32.2134 42.7964C30.1882 42.7964 28.2086 42.2018 26.5246 41.0878C24.8406 39.9737 23.5279 38.3902 22.7524 36.5374C21.9769 34.6846 21.7734 32.6457 22.1676 30.6784C22.5619 28.7111 23.5362 26.9037 24.9674 25.4847C25.9186 24.5416 27.0481 23.7934 28.2914 23.283C29.5348 22.7725 30.8675 22.5098 32.2134 22.5098C33.5593 22.5098 34.892 22.7725 36.1353 23.283C37.3787 23.7934 38.5082 24.5416 39.4594 25.4847V25.4847Z" fill="white"/>
<path d="M16.7351 40.1919C16.3884 40.1908 16.0453 40.1221 15.7255 39.9897C15.4056 39.8573 15.1152 39.6638 14.8709 39.4202C10.2756 34.856 7.69507 28.6734 7.69507 22.2278C7.69507 15.7823 10.2756 9.59969 14.8709 5.03549C15.1153 4.78066 15.4087 4.57688 15.7339 4.43614C16.059 4.2954 16.4093 4.22056 16.7642 4.21604C17.119 4.21151 17.4711 4.27739 17.7998 4.40979C18.1285 4.54219 18.4272 4.73843 18.6781 4.98694C18.929 5.23545 19.1271 5.5312 19.2608 5.85675C19.3945 6.1823 19.461 6.53107 19.4565 6.88248C19.4519 7.2339 19.3763 7.58085 19.2342 7.90289C19.0921 8.22492 18.8864 8.51552 18.6291 8.75755C15.0227 12.3335 12.9971 17.1811 12.9971 22.2352C12.9971 27.2894 15.0227 32.1369 18.6291 35.7129C18.9984 36.0804 19.25 36.5477 19.3522 37.0563C19.4544 37.5648 19.4028 38.092 19.2037 38.5715C19.0046 39.0511 18.6669 39.4618 18.233 39.752C17.7992 40.0423 17.2884 40.1991 16.7649 40.203L16.7351 40.1919Z" fill="white"/>
<path d="M47.6952 40.1921C47.1709 40.19 46.6589 40.0341 46.2239 39.7442C45.7889 39.4542 45.4504 39.0432 45.251 38.5629C45.0516 38.0826 45.0002 37.5546 45.1035 37.0454C45.2067 36.5363 45.4599 36.0688 45.8311 35.702C49.4383 32.1265 51.4646 27.2788 51.4646 22.2243C51.4646 17.1699 49.4383 12.3222 45.8311 8.74667C45.3327 8.2526 45.0529 7.5827 45.0533 6.88433C45.0536 6.18597 45.3341 5.51634 45.8329 5.02276C46.3318 4.52919 47.0082 4.2521 47.7133 4.25244C48.4185 4.25279 49.0946 4.53055 49.5929 5.02461C54.1817 9.59152 56.7577 15.7722 56.7577 22.2151C56.7577 28.658 54.1817 34.8387 49.5929 39.4056C49.3459 39.6507 49.0524 39.8451 48.7293 39.9775C48.4062 40.11 48.0598 40.1779 47.7101 40.1774L47.6952 40.1921Z" fill="white"/>
<path d="M3.34328 50.3927C3.35606 50.2552 3.33728 50.1167 3.2883 49.9871C3.23932 49.8575 3.16135 49.74 3.05998 49.6431C2.86429 49.4743 2.5554 49.3899 2.1333 49.3899C1.90615 49.3774 1.67919 49.4177 1.47138 49.5075C1.26357 49.5973 1.08092 49.734 0.938677 49.9062L0.21849 49.2443C0.445309 48.982 0.733071 48.7756 1.05814 48.642C1.41922 48.5222 1.79957 48.4661 2.18108 48.4766C3.69313 48.4766 4.44916 49.0833 4.44916 50.2967V53.8608H3.36888V53.3743C3.17687 53.5576 2.94823 53.7009 2.69701 53.7954C2.44579 53.8898 2.17729 53.9335 1.90803 53.9237C1.25383 53.9237 0.763465 53.7615 0.436935 53.4372C0.289197 53.2849 0.174544 53.1053 0.0997857 52.9092C0.0250272 52.7131 -0.00830952 52.5044 0.00175287 52.2955C-0.0081747 52.0899 0.0290756 51.8847 0.110822 51.6947C0.192568 51.5047 0.316772 51.3346 0.47448 51.1968C0.807268 50.9089 1.27999 50.7633 1.89096 50.7633H2.42513V51.5145H2.0548C1.39263 51.5145 1.06326 51.7677 1.06326 52.2756C1.06326 52.7836 1.40458 53.0351 2.06504 53.0351C2.53833 53.0351 2.88364 52.9336 3.10095 52.7307C3.26137 52.5652 3.34157 52.3104 3.34157 51.9364L3.34328 50.3927Z" fill="white"/>
<path d="M12.9039 53.8707V50.6044C12.9039 49.808 12.533 49.4103 11.7912 49.4114C11.4979 49.4015 11.2123 49.5037 10.996 49.696C10.8788 49.8063 10.7876 49.9398 10.7287 50.0875C10.6697 50.2352 10.6445 50.3934 10.6546 50.5515V53.8707H9.54364V50.6044C9.54364 49.808 9.1733 49.4103 8.43264 49.4114C8.28533 49.4044 8.13806 49.426 7.99946 49.4749C7.86086 49.5238 7.73369 49.5989 7.62541 49.696C7.50689 49.8164 7.41537 49.9592 7.35663 50.1156C7.29788 50.2719 7.27319 50.4384 7.28409 50.6044V53.8707H6.17139V48.5113H7.2619V49.0457C7.44732 48.8478 7.67496 48.6914 7.929 48.5874C8.18304 48.4834 8.4574 48.4343 8.733 48.4434C9.0428 48.427 9.35153 48.4909 9.62746 48.6284C9.9034 48.766 10.1366 48.9722 10.3031 49.2261C10.5096 48.9745 10.7736 48.7729 11.0742 48.6371C11.3747 48.5013 11.7038 48.435 12.0353 48.4434C12.2898 48.4315 12.5442 48.4683 12.7841 48.5518C13.0239 48.6353 13.2444 48.7637 13.433 48.9299C13.633 49.1289 13.7885 49.3658 13.8898 49.6257C13.9911 49.8857 14.0361 50.1631 14.0218 50.4406V53.8657L12.9039 53.8707Z" fill="white"/>
<path d="M22.464 53.8708V50.6046C22.464 49.8081 22.0936 49.4105 21.353 49.4116C21.1982 49.4051 21.0438 49.4305 20.8998 49.4859C20.7558 49.5413 20.6255 49.6256 20.5174 49.7332C20.4093 49.8408 20.3259 49.9694 20.2725 50.1104C20.2192 50.2514 20.1971 50.4018 20.2079 50.5516V53.8708H19.0951V50.6046C19.0951 49.8081 18.7248 49.4105 17.9841 49.4116C17.8369 49.4048 17.6896 49.4264 17.5511 49.4753C17.4125 49.5242 17.2853 49.5992 17.1769 49.6962C17.0584 49.8165 16.9669 49.9594 16.9081 50.1157C16.8494 50.272 16.8247 50.4385 16.8356 50.6046V53.8708H15.7229V48.5114H16.8134V49.0459C16.9991 48.8478 17.227 48.6914 17.4814 48.5874C17.7357 48.4834 18.0103 48.4343 18.2862 48.4436C18.596 48.4275 18.9046 48.4915 19.1804 48.629C19.4563 48.7665 19.6895 48.9726 19.8563 49.2262C20.0626 48.9745 20.3266 48.7727 20.6272 48.6369C20.9278 48.501 21.2569 48.4349 21.5885 48.4436C21.8428 48.4315 22.097 48.4682 22.3366 48.5517C22.5761 48.6352 22.7963 48.7638 22.9845 48.9301C23.1845 49.1291 23.34 49.3659 23.4413 49.6259C23.5427 49.8858 23.5876 50.1632 23.5733 50.4407V53.8659L22.464 53.8708Z" fill="white"/>
<path d="M28.2425 50.3927C28.2553 50.2552 28.2365 50.1167 28.1875 49.9871C28.1385 49.8575 28.0606 49.74 27.9592 49.6431C27.7629 49.4776 27.4472 49.3899 27.0325 49.3899C26.8054 49.3775 26.5785 49.4179 26.3707 49.5077C26.1629 49.5975 25.9802 49.7341 25.8379 49.9062L25.1177 49.2443C25.3449 48.9824 25.6325 48.776 25.9574 48.642C26.3184 48.5222 26.6988 48.4661 27.0803 48.4766C28.5923 48.4766 29.3484 49.0833 29.3484 50.2967V53.8608H28.2698V53.3743C28.0773 53.5575 27.8484 53.7007 27.5969 53.7952C27.3454 53.8896 27.0767 53.9333 26.8072 53.9237C26.153 53.9237 25.6627 53.7615 25.3361 53.4372C25.1884 53.2848 25.0737 53.1053 24.9986 52.9092C24.9236 52.7131 24.8898 52.5044 24.8993 52.2955C24.8904 52.0892 24.929 51.8836 25.0122 51.6936C25.0955 51.5036 25.2213 51.3339 25.3805 51.1968C25.7133 50.9089 26.1877 50.7633 26.797 50.7633H27.3312V51.5145H26.9608C26.2998 51.5145 25.9693 51.7682 25.9693 52.2756C25.9693 52.7831 26.3032 53.0362 26.9711 53.0351C27.4432 53.0351 27.7885 52.9336 28.007 52.7307C28.1657 52.5652 28.2476 52.3104 28.2476 51.9364L28.2425 50.3927Z" fill="white"/>
<path d="M35.0675 53.1725C34.8366 53.4183 34.5543 53.6135 34.2394 53.745C33.9245 53.8766 33.5843 53.9414 33.2414 53.9353C32.9283 53.9485 32.6156 53.9001 32.3222 53.7929C32.0289 53.6856 31.761 53.5219 31.5348 53.3115C31.024 52.8316 30.7691 52.1235 30.7703 51.1869C30.7714 50.2504 31.0263 49.5422 31.5348 49.0624C31.7626 48.8548 32.031 48.6935 32.3241 48.588C32.6172 48.4826 32.9291 48.4352 33.2414 48.4485C33.5825 48.4409 33.9212 48.5038 34.2352 48.633C34.5492 48.7622 34.8312 48.9549 35.0624 49.198L34.2995 49.9178C34.1709 49.7648 34.0099 49.6404 33.8273 49.553C33.6447 49.4657 33.4449 49.4174 33.2414 49.4115C33.0437 49.4033 32.8469 49.4423 32.6684 49.5251C32.4898 49.6079 32.335 49.732 32.2175 49.8864C31.999 50.1544 31.8898 50.5863 31.8898 51.1869C31.8898 51.7876 31.999 52.2293 32.2175 52.4957C32.3346 52.6507 32.4893 52.7752 32.6679 52.8583C32.8465 52.9415 33.0435 52.9806 33.2414 52.9723C33.4451 52.9664 33.6451 52.9179 33.8277 52.8303C34.0103 52.7426 34.1712 52.6178 34.2995 52.4643L35.0675 53.1725Z" fill="#A6A8AC"/>
<path d="M39.699 53.8708V50.583C39.699 49.802 39.3286 49.4115 38.588 49.4115C38.4425 49.4052 38.2972 49.4271 38.1607 49.476C38.0241 49.5248 37.899 49.5997 37.7927 49.6961C37.6791 49.8148 37.5915 49.9546 37.5351 50.107C37.4788 50.2595 37.455 50.4214 37.465 50.583V53.8708H36.3523V46.3455H37.465V49.0458C37.6448 48.8522 37.8653 48.6982 38.1118 48.5943C38.3582 48.4904 38.6247 48.439 38.8934 48.4436C39.1565 48.4299 39.4195 48.472 39.6641 48.5668C39.9087 48.6617 40.1291 48.8071 40.3099 48.9929C40.6589 49.3848 40.8386 49.8921 40.8116 50.4093V53.8658L39.699 53.8708Z" fill="#A6A8AC"/>
<path d="M42.4895 47.454V46.314H43.6688V47.454H42.4895ZM42.5236 53.8707V48.5113H43.6346V53.8707H42.5236Z" fill="#A6A8AC"/>
<path d="M48.8567 48.4123C48.9188 48.4014 48.9814 48.3937 49.0444 48.3892C49.1144 48.3892 49.1775 48.3892 49.2321 48.3892C49.2867 48.3892 49.3499 48.3892 49.4181 48.3892C49.4816 48.3937 49.5449 48.4014 49.6076 48.4123V52.6962C49.6034 52.8077 49.6161 52.9192 49.6451 53.0271C49.6641 53.0946 49.6998 53.1565 49.7492 53.2075C49.7904 53.2489 49.8432 53.2777 49.9011 53.2902C49.9629 53.3018 50.0258 53.3074 50.0888 53.3068C50.1349 53.3068 50.1861 53.3068 50.2441 53.3068C50.2948 53.3042 50.3451 53.297 50.3943 53.2853C50.4414 53.4693 50.4643 53.6583 50.4626 53.8478C50.3788 53.8755 50.2915 53.8917 50.2032 53.8958C50.1008 53.8958 50.0069 53.9074 49.9199 53.9074C49.7804 53.9087 49.6415 53.8915 49.5069 53.8561C49.3824 53.8247 49.2662 53.7683 49.1656 53.6906C49.0629 53.6045 48.9842 53.4947 48.9369 53.3713C48.8759 53.2126 48.847 53.0441 48.8515 52.8749L48.8567 48.4123Z" fill="white"/>
<path d="M53.2236 51.3408C53.2236 51.0479 53.1468 50.8444 52.9932 50.7319C52.7957 50.6083 52.5621 50.5502 52.3276 50.5664C52.1601 50.5656 51.9928 50.5789 51.8276 50.6061C51.6735 50.6326 51.5213 50.6685 51.3719 50.7137C51.2715 50.5341 51.2215 50.3321 51.2269 50.1279C51.4139 50.0699 51.6057 50.0279 51.8003 50.0022C52.0003 49.9731 52.2022 49.9581 52.4044 49.9575C52.9164 49.9575 53.3004 50.0684 53.5666 50.2884C53.8329 50.5085 53.9643 50.8725 53.9643 51.3673V53.7467C53.7936 53.7864 53.57 53.8261 53.3141 53.8674C53.0571 53.9107 52.7967 53.9323 52.5358 53.932C52.3064 53.9344 52.0774 53.9117 51.8532 53.8641C51.6692 53.8271 51.4949 53.7539 51.3412 53.649C51.2016 53.5518 51.0895 53.4221 51.0153 53.2718C50.9351 53.097 50.8961 52.9071 50.9009 52.7158C50.8951 52.5285 50.9375 52.3427 51.0242 52.1751C51.1109 52.0076 51.2392 51.8636 51.3975 51.7561C51.5572 51.6472 51.7359 51.567 51.9249 51.5195C52.1297 51.4664 52.3409 51.4402 52.5529 51.4417C52.715 51.4417 52.8499 51.4417 52.954 51.4517C53.0581 51.4616 53.1468 51.4682 53.2185 51.4781L53.2236 51.3408ZM53.2236 52.0589C53.1462 52.049 53.049 52.0391 52.9318 52.0291C52.814 52.0192 52.715 52.0142 52.6331 52.0142C52.3807 51.9968 52.1289 52.0546 51.9112 52.1797C51.8282 52.2391 51.762 52.3179 51.7187 52.4087C51.6754 52.4995 51.6566 52.5995 51.6638 52.6993C51.6566 52.8205 51.6857 52.9411 51.7474 53.0467C51.7995 53.1273 51.8717 53.1939 51.9573 53.2403C52.0439 53.2855 52.1392 53.3131 52.2372 53.3214C52.3336 53.3311 52.4304 53.3361 52.5273 53.3363C52.6487 53.3366 52.7701 53.3305 52.8908 53.3181C53.0059 53.309 53.1201 53.2908 53.2321 53.2635L53.2236 52.0589Z" fill="white"/>
<path d="M55.0962 48.4123C55.1583 48.4014 55.221 48.3937 55.2839 48.3892C55.3522 48.3892 55.4153 48.3892 55.4716 48.3892C55.528 48.3892 55.5911 48.3892 55.6628 48.3892C55.7263 48.3934 55.7896 48.4011 55.8522 48.4123V50.5021C55.9599 50.3412 56.1071 50.2088 56.2806 50.1166C56.4958 50.0024 56.7384 49.9453 56.9837 49.9511C57.2056 49.9488 57.4261 49.9864 57.6339 50.062C57.8306 50.1353 58.0062 50.2533 58.1459 50.4062C58.2986 50.5793 58.412 50.7817 58.4787 51.0002C58.5624 51.2756 58.6021 51.5619 58.5964 51.849C58.5964 52.501 58.4064 53.0111 58.0264 53.3796C57.6464 53.748 57.0997 53.9322 56.3864 53.9322C56.1573 53.931 55.9288 53.9094 55.7037 53.8677C55.5001 53.8344 55.2992 53.7863 55.103 53.7237L55.0962 48.4123ZM55.8522 53.2307C55.9482 53.2613 56.0471 53.2824 56.1475 53.2935C56.2556 53.3064 56.3645 53.3125 56.4734 53.3117C56.652 53.3135 56.8294 53.2843 56.9974 53.2257C57.1542 53.1717 57.2961 53.0833 57.4121 52.9676C57.5368 52.8401 57.6322 52.6884 57.6919 52.5225C57.7661 52.3163 57.8013 52.0988 57.796 51.8805C57.8146 51.5484 57.7378 51.2179 57.5742 50.9257C57.4947 50.8102 57.3846 50.7175 57.2555 50.6572C57.1265 50.597 56.9831 50.5714 56.8403 50.5832C56.7241 50.5844 56.6088 50.6039 56.499 50.6411C56.3752 50.6796 56.2616 50.744 56.1663 50.8298C56.0711 50.9156 55.9965 51.0206 55.9478 51.1375C55.8847 51.2957 55.8546 51.4644 55.859 51.6339L55.8522 53.2307Z" fill="white"/>
<path d="M59.5469 53.156C59.6937 53.2132 59.8456 53.257 60.0008 53.2868C60.1633 53.3176 60.3285 53.3331 60.494 53.3331C60.6089 53.3343 60.7235 53.3221 60.8354 53.2967C60.9345 53.2756 61.0292 53.2381 61.1152 53.1858C61.1917 53.1392 61.2569 53.0771 61.3064 53.0038C61.354 52.9324 61.379 52.8489 61.3781 52.7639C61.3812 52.6789 61.3618 52.5946 61.3217 52.519C61.2834 52.4538 61.231 52.3973 61.1682 52.3535C61.0994 52.3066 61.0249 52.2683 60.9463 52.2394C60.8627 52.2079 60.7756 52.1748 60.6749 52.1467L60.407 52.0507C60.1436 51.9679 59.9016 51.8313 59.6971 51.6503C59.6209 51.5694 59.5621 51.4747 59.524 51.3716C59.4859 51.2685 59.4693 51.159 59.4752 51.0497C59.4687 50.8975 59.4988 50.7459 59.563 50.6069C59.6273 50.468 59.724 50.3454 59.8455 50.2488C60.093 50.0503 60.4565 49.9526 60.9343 49.9526C61.1308 49.9524 61.3269 49.9707 61.5197 50.0072C61.6899 50.0395 61.8575 50.0832 62.0215 50.138C62.0104 50.238 61.991 50.3371 61.9634 50.4341C61.9376 50.5284 61.9033 50.6203 61.861 50.7088C61.7289 50.6636 61.5945 50.6249 61.4583 50.593C61.2944 50.5556 61.1266 50.5372 60.9582 50.5384C60.7858 50.5349 60.6146 50.5676 60.4565 50.6344C60.3884 50.6624 60.3309 50.7102 60.2921 50.7713C60.2532 50.8323 60.235 50.9036 60.2398 50.9752C60.2372 51.0502 60.2555 51.1245 60.2927 51.1903C60.3294 51.2504 60.3789 51.3023 60.4377 51.3425C60.5035 51.3866 60.5746 51.4227 60.6493 51.4501C60.7278 51.4799 60.8132 51.5097 60.9053 51.5394L61.2467 51.6503C61.364 51.6887 61.4781 51.7357 61.588 51.791C61.6942 51.8426 61.7906 51.9114 61.873 51.9945C61.9547 52.0808 62.019 52.1813 62.0624 52.2907C62.1141 52.425 62.139 52.5676 62.1358 52.7109C62.1385 52.8814 62.1003 53.0501 62.0242 53.2037C61.9481 53.3574 61.8361 53.4917 61.6972 53.5962C61.5434 53.7082 61.37 53.7923 61.1852 53.8444C60.9721 53.9061 60.7506 53.9362 60.5282 53.9337C60.3132 53.9361 60.0984 53.9195 59.8865 53.8841C59.7124 53.8552 59.5411 53.812 59.3745 53.755C59.385 53.6532 59.4067 53.5528 59.4394 53.4555C59.4684 53.348 59.5059 53.2553 59.5469 53.156Z" fill="white"/>
<path d="M62.4498 48.4352H62.1887V48.4055V48.3426V48.3145H62.8543C62.8553 48.3238 62.8553 48.3332 62.8543 48.3426C62.8543 48.3525 62.8543 48.3624 62.8543 48.3724C62.8543 48.3823 62.8543 48.3939 62.8543 48.4038C62.8553 48.4143 62.8553 48.4248 62.8543 48.4352H62.5949V49.2907H62.5249H62.4515L62.4498 48.4352Z" fill="white"/>
<path d="M63.0422 48.3145H63.0797H63.1633H63.2026L63.4637 48.925L63.7248 48.3145H63.759H63.8409H63.8784L63.9262 49.2907H63.8921H63.8204H63.788L63.7555 48.5312L63.5098 49.0888H63.4518H63.3989L63.1599 48.5279L63.1292 49.2907H63.0968H63.0285H62.9961L63.0422 48.3145Z" fill="white"/>
</svg>
