<svg width="40" height="49" viewBox="0 0 40 49" fill="none" xmlns="http://www.w3.org/2000/svg">
<path d="M24.1892 23.2768L23.6299 23.4865C23.8396 23.6263 24.0493 23.6962 24.3989 23.6962H24.4688C24.5387 23.6962 24.6086 23.6962 24.6086 23.6962H32.928C32.9979 23.4865 33.1378 23.2069 33.2077 22.9972H24.9582C24.6785 23.137 24.4688 23.2069 24.1892 23.2768Z" fill="#B8114F"/>
<path d="M14.9609 23.6962C15.3803 23.6962 15.66 23.6263 15.7998 23.4865L15.2405 23.2768C14.9609 23.2069 14.7511 23.0671 14.5414 22.9972H6.1521C6.22201 23.2069 6.29192 23.4865 6.43174 23.6962H14.821C14.821 23.6962 14.891 23.6962 14.9609 23.6962Z" fill="#B8114F"/>
<path d="M24.6786 24.3254C24.329 24.5351 23.6998 24.7448 23.0007 24.7448C22.9308 24.7448 22.8609 24.7448 22.8609 24.7448C22.6512 24.8846 22.1618 25.0244 21.7423 25.0244H32.3688C32.5086 24.8147 32.5785 24.5351 32.7183 24.3254H24.6786Z" fill="#B8114F"/>
<path d="M16.5689 24.6748C16.499 24.6748 16.4291 24.6748 16.4291 24.6748C15.7999 24.6748 15.1008 24.4651 14.8212 24.2554H6.6416C6.78142 24.4651 6.85133 24.7447 6.99116 24.9544H17.6875C17.268 24.9544 16.7787 24.8146 16.5689 24.6748Z" fill="#B8114F"/>
<path d="M3.84494 18.5237C3.49538 18.5936 3.21574 18.8033 3.00601 19.1528C2.3069 20.2712 2.79627 22.4381 3.21574 24.2555C3.35556 24.8846 3.49538 25.5137 3.56529 25.9331C3.56529 26.003 3.56529 26.0729 3.56529 26.1428C3.6352 26.702 3.70511 27.3311 3.6352 27.6806L3.56529 27.8204H3.70511C4.12458 27.8903 4.61396 28.3097 5.03342 28.6592C5.10333 28.7291 5.17324 28.7291 5.24315 28.799C5.59271 29.0786 6.08208 29.4981 6.50155 29.9175C7.82986 31.1757 9.4378 32.6436 10.6962 32.6436H10.7661C11.1157 32.6436 11.4652 32.5038 11.7449 32.2242C11.675 32.5737 11.675 32.9232 11.8148 33.2727C12.3741 34.461 14.6112 35.0901 16.359 35.5794C16.9882 35.7891 17.5475 35.9289 17.9669 36.1386C18.0368 36.1386 18.1068 36.2085 18.1767 36.2085C18.666 36.4182 19.2952 36.6279 19.5749 36.9774L19.6448 37.0473L19.7147 36.9774C19.9943 36.6978 20.5536 36.4182 21.1129 36.2085C21.1828 36.2085 21.2527 36.1386 21.3227 36.1386C21.7421 35.9988 22.3014 35.7891 22.9306 35.5794C24.6784 35.0901 26.8456 34.3911 27.4748 33.2727C27.6146 32.9232 27.6845 32.5737 27.5447 32.2242C27.8244 32.5038 28.104 32.6436 28.5235 32.6436H28.5934C29.8518 32.6436 31.4597 31.1058 32.788 29.9175C33.2774 29.4981 33.6969 29.0786 34.0464 28.799C34.1163 28.7291 34.1862 28.7291 34.2562 28.6592C34.6756 28.3097 35.165 27.9602 35.5845 27.8204H35.7243L35.6544 27.6806C35.5146 27.2612 35.6544 26.702 35.7243 26.1428C35.7243 26.0729 35.7243 26.003 35.7243 25.9331C35.7942 25.5137 35.934 24.8846 36.0738 24.2555C36.4933 22.508 36.9827 20.2712 36.2836 19.1528C36.0738 18.8732 35.7942 18.6635 35.4446 18.5237C35.7942 18.4538 36.0738 18.2441 36.2836 17.8946C36.9827 16.7761 36.4933 14.6092 36.0738 12.7918C35.934 12.1627 35.7942 11.5336 35.7243 11.1142C35.7243 11.0443 35.7243 10.9744 35.7243 10.9045C35.6544 10.3453 35.5845 9.71618 35.6544 9.36668L35.7243 9.22688H35.5845C35.165 9.15698 34.6756 8.73757 34.2562 8.38807C34.1862 8.31817 34.1163 8.31817 34.0464 8.24827C33.6969 7.96867 33.2075 7.54926 32.788 7.12986C31.4597 5.87165 29.8518 4.40374 28.5934 4.40374H28.5235C28.1739 4.40374 27.8244 4.54354 27.5447 4.82314C27.6146 4.47364 27.6146 4.12414 27.4748 3.77463C26.9155 2.58632 24.6784 1.95722 22.9306 1.46791C22.3014 1.25821 21.7421 1.11841 21.3227 0.908708C21.2527 0.908708 21.1828 0.838807 21.1129 0.838807C20.6235 0.629105 19.9943 0.419403 19.7147 0.0699002L19.6448 0L19.5749 0.0699002C19.2952 0.349503 18.7359 0.629105 18.1767 0.838807C18.1068 0.838807 18.0368 0.908708 17.9669 0.908708C17.5475 1.04851 16.9882 1.25821 16.359 1.46791C14.6112 1.95722 12.444 2.65622 11.8148 3.77463C11.675 4.12414 11.605 4.47364 11.7449 4.82314C11.4652 4.54354 11.1856 4.40374 10.7661 4.40374C9.4378 4.33384 7.82986 5.87165 6.50155 7.12986C6.01217 7.54926 5.59271 7.96867 5.24315 8.24827C5.17324 8.31817 5.10333 8.31817 5.03342 8.38807C4.61396 8.73757 4.12458 9.08708 3.70511 9.22688H3.56529L3.6352 9.36668C3.77503 9.78608 3.6352 10.3453 3.56529 10.9045C3.56529 10.9744 3.56529 11.0443 3.56529 11.1142C3.49538 11.5336 3.35556 12.1627 3.21574 12.7918C2.79627 14.5393 2.3069 16.7761 3.00601 17.8946C3.14583 18.2441 3.49538 18.3839 3.84494 18.5237ZM19.7147 2.93582C28.3137 2.93582 35.2349 9.92588 35.2349 18.5237C35.2349 27.1214 28.2438 34.1115 19.7147 34.1115C11.1157 34.1115 4.19449 27.1214 4.19449 18.5237C4.12458 9.92588 11.1157 2.93582 19.7147 2.93582Z" fill="#B8114F"/>
<path d="M14.052 31.5949H25.3776C25.867 31.3852 26.3563 31.1755 26.7758 30.8959H12.6538C13.0733 31.1056 13.5626 31.3852 14.052 31.5949Z" fill="#B8114F"/>
<path d="M19.7149 32.7135C21.1131 32.7135 22.4414 32.5038 23.6998 32.1543H15.73C16.9884 32.5737 18.3167 32.7135 19.7149 32.7135Z" fill="#B8114F"/>
<path d="M23.1403 18.5236C23.0704 18.4537 22.7209 18.3838 22.3713 18.3838C22.2315 18.3838 22.0917 18.3838 21.882 18.4537C21.3227 18.5935 20.9032 19.1527 20.9032 19.4323C21.043 19.642 21.2528 19.8517 21.4625 20.0614C21.882 20.4808 22.3014 20.9002 22.3014 21.4594C22.3014 21.739 22.3014 21.9487 22.1616 22.2283C21.9519 22.7176 21.5324 22.9972 21.1129 23.2069C22.3014 23.137 23.2103 22.8574 23.6297 22.438C23.9094 22.1584 24.0492 21.739 24.0492 21.2497C24.0492 20.9002 23.7695 20.5507 23.5598 20.2711C23.2802 19.5721 22.9306 19.0828 23.1403 18.5236Z" fill="#B8114F"/>
<path d="M24.7485 18.8032C24.5387 18.8032 24.2591 18.8032 23.9795 18.943C23.6299 19.0828 23.4901 19.1527 23.4202 19.2925C23.4901 19.5022 23.6299 19.7119 23.7697 19.8517C24.0494 20.2012 24.329 20.5507 24.329 20.9701C24.3989 21.5293 24.1892 22.0186 23.8396 22.3682C23.4202 22.7876 22.7211 23.0672 21.7423 23.207C21.8122 23.207 21.8821 23.207 21.952 23.207C23.3503 23.207 24.5387 22.8575 25.1679 22.2983C25.5874 21.9487 25.7971 21.4594 25.7272 20.9701C25.7272 20.6206 25.5175 20.341 25.3078 20.1313C25.0281 19.7818 24.7485 19.3624 25.098 18.8731C25.1679 18.8731 25.0281 18.8032 24.7485 18.8032Z" fill="#B8114F"/>
<path d="M22.022 22.0187C22.0919 21.809 22.1619 21.5993 22.0919 21.3896C22.0919 20.9003 21.7424 20.5508 21.3229 20.2013C21.1831 20.0615 20.484 19.3625 20.2743 18.8033V18.6635C20.1344 18.2441 19.9946 17.9645 19.715 17.9645C19.4353 17.9645 19.2955 18.2441 19.1557 18.6635C19.1557 18.6635 18.6663 19.5023 18.0371 20.2013C17.6876 20.5508 17.338 20.9003 17.338 21.3896C17.338 21.5993 17.338 21.809 17.4079 22.0187C17.6876 22.7177 18.7362 23.0672 19.715 23.0672H19.7849H19.8548C20.6937 23.0672 21.7424 22.7177 22.022 22.0187Z" fill="#B8114F"/>
<path d="M15.2405 21.0401C15.2405 21.5294 15.3104 21.9488 15.6599 22.2284C16.1493 22.7177 16.9883 22.9973 18.1767 22.9973C17.7573 22.8575 17.3378 22.508 17.1281 22.0187C17.0582 21.809 16.9882 21.5294 16.9882 21.2498C16.9882 20.6906 17.4077 20.2712 17.8272 19.8518C18.0369 19.6421 18.2466 19.4324 18.3865 19.2227C18.3865 18.9431 17.967 18.3839 17.4077 18.2441C17.2679 18.1742 17.1281 18.1742 16.9183 18.1742C16.5688 18.1742 16.2891 18.2441 16.1493 18.314C16.3591 18.8732 16.0095 19.3625 15.6599 19.7819C15.5201 20.3411 15.3104 20.6906 15.2405 21.0401Z" fill="#B8114F"/>
<path d="M13.5627 21.0401C13.5627 21.5294 13.7026 21.9488 14.122 22.3682C14.8211 22.9274 15.9397 23.2769 17.3379 23.2769C17.4078 23.2769 17.4778 23.2769 17.5477 23.2769C16.5689 23.1371 15.8698 22.8575 15.4503 22.4381C15.1008 22.0886 14.961 21.5993 14.961 21.0401C14.961 20.6207 15.2406 20.2712 15.5203 19.9217C15.6601 19.712 15.7999 19.5722 15.8698 19.3625C15.7999 19.2227 15.5902 19.0829 15.3105 19.013C15.0309 18.9431 14.7512 18.8732 14.5415 18.8732C14.3318 18.8732 14.122 18.8732 14.0521 18.9431C14.4017 19.5023 14.0521 19.8518 13.8424 20.2013C13.7725 20.411 13.5627 20.6906 13.5627 21.0401Z" fill="#B8114F"/>
<path d="M16.8484 23.836C16.9183 23.836 16.9183 23.7661 16.9882 23.7661C17.0581 23.6962 17.1281 23.6263 17.198 23.5564L17.2679 23.4865C16.9882 23.4865 16.7086 23.4865 16.4289 23.4166H16.359L16.2891 23.4865C16.0794 23.6962 15.7298 23.9758 14.9608 23.9758C15.2405 24.1156 15.7997 24.3253 16.359 24.3253C16.4289 24.3253 16.4289 24.3253 16.4289 24.2554C16.4289 24.1855 16.4289 24.1855 16.4289 24.1855C16.4989 24.0457 16.7086 23.9758 16.8484 23.836Z" fill="#B8114F"/>
<path d="M17.7573 24.675C17.8971 24.675 18.037 24.675 18.1768 24.6051C18.2467 24.6051 18.3166 24.5352 18.3166 24.5352L18.2467 24.4653C18.1069 24.1857 17.967 23.7663 18.3166 23.4867C18.2467 23.4867 18.1069 23.4867 18.037 23.4867C17.6175 23.5566 17.4777 23.6265 17.4078 23.7663C17.3378 23.8362 17.2679 23.9061 17.198 23.976C17.1281 23.976 17.1281 24.0459 17.0582 24.0459C16.9184 24.1158 16.7786 24.2556 16.7786 24.3255V24.3954C16.8485 24.5352 17.3378 24.675 17.7573 24.675Z" fill="#B8114F"/>
<path d="M19.7149 23.3468C19.0158 23.3468 18.6662 23.4167 18.4565 23.6264C18.2467 23.8361 18.3166 24.1157 18.4565 24.3254C18.4565 24.3953 18.5264 24.3953 18.5264 24.4652C18.5963 24.5351 18.7361 24.605 18.8759 24.605C19.1556 24.6749 19.4352 24.8147 19.645 25.304C19.8547 24.8147 20.1343 24.7448 20.414 24.605C20.5538 24.5351 20.6237 24.5351 20.7635 24.4652C20.8334 24.4652 20.8334 24.3953 20.8334 24.3254C20.9733 24.1157 21.0432 23.8361 20.8334 23.6264C20.7635 23.4167 20.3441 23.3468 19.7149 23.3468Z" fill="#B8114F"/>
<path d="M21.1132 24.535C21.1132 24.6049 21.1831 24.6049 21.253 24.6049C21.3928 24.6049 21.4627 24.6748 21.6724 24.6748C22.0919 24.6748 22.5813 24.535 22.7211 24.3253V24.2554C22.7211 24.1855 22.5813 24.1156 22.4415 23.9758C22.3716 23.9758 22.3716 23.9059 22.3016 23.9059C22.1618 23.836 22.0919 23.7661 22.0919 23.6962C21.9521 23.5564 21.8822 23.4865 21.4627 23.4166C21.3928 23.4166 21.253 23.4166 21.1831 23.4166C21.4627 23.7661 21.3928 24.1855 21.253 24.3952C21.1132 24.4651 21.1132 24.535 21.1132 24.535Z" fill="#B8114F"/>
<path d="M23.0006 24.3954C23.6298 24.3954 24.1891 24.1857 24.3989 24.0459C23.6997 24.0459 23.2803 23.7663 23.0705 23.5566L23.0006 23.4867C23.0006 23.4867 23.0006 23.4867 22.9307 23.4867C22.6511 23.4867 22.3714 23.5566 22.0918 23.5566L22.1617 23.6265C22.2316 23.6964 22.3015 23.7663 22.3714 23.8362C22.4414 23.8362 22.4414 23.9061 22.5113 23.9061C22.721 24.0459 22.8608 24.1158 22.9307 24.3255C22.9307 24.2556 22.9307 24.3255 23.0006 24.3954C22.9307 24.3954 22.9307 24.3255 23.0006 24.3954Z" fill="#B8114F"/>
<path d="M16.7087 28.9389C16.7786 28.9389 17.7573 29.2884 17.967 29.2884C18.3166 29.3583 18.5962 29.2884 18.8759 29.0787C18.8759 29.0787 18.9458 29.0787 18.9458 29.0088C19.0157 28.9389 19.0157 28.869 19.0856 28.869C19.2254 28.5195 18.8759 28.1001 17.8971 27.8904C16.6387 27.6108 14.8211 27.5409 13.4928 27.9603C12.7237 28.17 12.4441 28.5195 12.4441 28.7991C12.4441 28.869 12.4441 28.9389 12.514 29.0787C12.5839 29.2185 12.7237 29.3583 12.9335 29.4981C13.0034 29.568 13.1432 29.6379 13.283 29.6379C13.4928 29.7078 13.7724 29.7777 13.9821 29.8476C14.7511 29.9874 15.5901 30.0573 16.3591 29.9874C17.4777 29.9175 17.4078 29.568 17.1281 29.4282C17.0582 29.4282 16.7786 29.2185 16.5688 29.0787C16.429 29.0088 16.5688 28.869 16.7087 28.9389Z" fill="#B8114F"/>
<path d="M17.5476 29.4979C17.5476 29.4979 17.5476 29.5678 17.5476 29.4979C17.5476 29.6377 17.5476 29.7076 17.5476 29.7775C17.4777 30.127 16.9883 30.2668 16.5688 30.2668H27.7546C28.1041 30.0571 28.3838 29.7775 28.6634 29.5678H17.8272C17.7573 29.5678 17.6175 29.4979 17.5476 29.4979Z" fill="#B8114F"/>
<path d="M13.9123 30.1271C13.6327 30.0572 13.353 29.9873 13.1433 29.9174C13.0035 29.8475 12.8636 29.7776 12.7937 29.7077C12.7238 29.6378 12.6539 29.6378 12.584 29.5679H10.6964C10.9761 29.8475 11.3256 30.0572 11.6053 30.2669H14.961C14.6114 30.197 14.2619 30.197 13.9123 30.1271Z" fill="#B8114F"/>
<path d="M21.9519 26.2826C21.882 26.1428 21.9519 26.003 22.0219 25.8632C22.0918 25.7933 22.1617 25.7234 22.2316 25.7234C22.3015 25.6535 22.3714 25.6535 22.5112 25.5836H7.34058C7.4804 25.7933 7.62022 26.0729 7.76004 26.2826H21.9519C22.0219 26.2826 22.0219 26.2826 21.9519 26.2826Z" fill="#B8114F"/>
<path d="M27.3352 25.8631C27.8945 26.0029 28.314 26.1427 28.6636 26.3524H31.6697C31.8095 26.1427 31.9494 25.8631 32.0892 25.6534H26.2167C26.5662 25.6534 26.9857 25.7233 27.3352 25.8631Z" fill="#B8114F"/>
<path d="M29.1527 27.0516C29.1527 27.1914 29.0828 27.3312 28.943 27.471L28.8731 27.5409C28.8032 27.6108 28.8032 27.6108 28.7333 27.6807H30.6908C30.9005 27.471 31.0403 27.1914 31.2501 26.9817H29.2227C29.1527 26.9817 29.1527 26.9817 29.1527 27.0516Z" fill="#B8114F"/>
<path d="M13.4928 27.6106C14.122 27.4708 14.8211 27.4009 15.6601 27.4009C16.4291 27.4009 17.268 27.4708 17.8972 27.6106H20.6237C20.5538 27.4708 20.5538 27.331 20.6237 27.2611C20.6237 27.1213 20.6936 27.0514 20.8335 26.9116H8.24951C8.45924 27.1213 8.59907 27.4009 8.8088 27.6106H13.4928Z" fill="#B8114F"/>
<path d="M12.0945 28.7988C12.0945 28.659 12.1644 28.4493 12.3043 28.2396H9.2981C9.50783 28.4493 9.78747 28.7289 9.9972 28.9386H12.0945C12.0945 28.8687 12.0945 28.8687 12.0945 28.7988Z" fill="#B8114F"/>
<path d="M26.4261 28.4493H26.3562C25.5173 28.5891 24.6084 28.7289 23.7695 28.7289C22.9306 28.7289 21.8819 28.659 21.2527 28.2396H19.1554C19.2253 28.3095 19.2253 28.3794 19.2952 28.4493C19.3651 28.5891 19.3651 28.7988 19.3651 28.9386H29.4323C29.642 28.7289 29.9217 28.4493 30.1314 28.2396H27.335C26.9854 28.3095 26.7058 28.3794 26.4261 28.4493Z" fill="#B8114F"/>
<path d="M23.4202 26.9816C23.2804 26.9816 23.0706 26.9816 22.9308 26.9117C22.7211 26.9117 22.5113 26.8418 22.2317 26.8418C22.1618 26.8418 22.0919 26.8418 22.022 26.8418C21.7423 26.8418 21.4627 26.8418 21.2529 26.9117C20.9733 26.9816 20.4839 27.3311 21.0432 27.8204C21.4627 28.2398 22.4414 28.4495 23.6998 28.4495C24.4688 28.4495 25.3777 28.3796 26.2166 28.1699H26.2865C27.3352 27.9602 28.244 27.6107 28.5936 27.2612L28.6635 27.1913C28.7334 27.1214 28.8033 26.9816 28.8033 26.9117C28.8033 26.7719 28.7334 26.4223 27.1954 26.0029C26.2865 25.7932 25.098 25.6534 24.0494 25.6534H23.9795C23.0706 25.6534 22.5113 25.7932 22.3016 25.8631C22.2317 25.8631 22.2317 25.933 22.2317 25.933C22.2317 25.933 22.2317 26.0029 22.2317 26.0728C22.3715 26.4223 23.0007 26.4923 23.4901 26.4923C23.7697 26.4923 23.7697 26.6321 23.6998 26.702C23.6998 26.9816 23.56 26.9816 23.4202 26.9816Z" fill="#B8114F"/>
<path d="M31.5996 22.508L28.0342 22.2284C28.0342 22.2983 28.0342 22.4381 28.0342 22.508L31.5996 22.7876C31.5996 22.7177 31.5996 22.5779 31.5996 22.508Z" fill="#B8114F"/>
<path d="M31.4599 19.3624L27.9644 19.9915C27.9644 20.0614 27.9644 20.2012 28.0343 20.2711L31.5298 19.642C31.5298 19.5721 31.5298 19.5022 31.4599 19.3624Z" fill="#B8114F"/>
<path d="M27.3352 17.8946C27.4051 17.9645 27.4051 18.0344 27.475 18.1742L30.6909 16.6364C30.621 16.5665 30.621 16.4966 30.5511 16.3568L27.3352 17.8946Z" fill="#B8114F"/>
<path d="M29.083 13.9802C29.0131 13.9103 28.9432 13.8404 28.8733 13.7705L26.1467 16.0772C26.2166 16.1471 26.2866 16.217 26.2866 16.2869L29.083 13.9802Z" fill="#B8114F"/>
<path d="M26.9855 11.8832C26.9156 11.8133 26.8457 11.7434 26.7758 11.7434L24.6785 14.6792C24.7484 14.7491 24.8183 14.819 24.8882 14.819L26.9855 11.8832Z" fill="#B8114F"/>
<path d="M23.0706 13.7005L24.3989 10.3453C24.329 10.2754 24.2591 10.2754 24.1192 10.2754L22.8608 13.6306C22.9308 13.6306 23.0007 13.7005 23.0706 13.7005Z" fill="#B8114F"/>
<path d="M7.8999 22.7876L11.3954 22.508C11.3954 22.4381 11.3954 22.2983 11.3954 22.2284L7.8999 22.508C7.8999 22.5779 7.8999 22.7177 7.8999 22.7876Z" fill="#B8114F"/>
<path d="M11.4654 19.9915L8.03976 19.3624C8.03976 19.4323 8.03976 19.5721 7.96985 19.642L11.3955 20.2711C11.3955 20.2012 11.3955 20.1313 11.4654 19.9915Z" fill="#B8114F"/>
<path d="M8.80896 16.7061L12.0249 18.174C12.0948 18.1041 12.0948 18.0342 12.1647 17.8944L8.94878 16.4265C8.87887 16.4964 8.80896 16.5663 8.80896 16.7061Z" fill="#B8114F"/>
<path d="M13.283 16.0772L10.5564 13.7705C10.4865 13.8404 10.4166 13.9103 10.4166 13.9802L13.1431 16.2869C13.1431 16.217 13.2131 16.1471 13.283 16.0772Z" fill="#B8114F"/>
<path d="M14.4715 14.8888C14.5414 14.8189 14.6113 14.749 14.6812 14.749L12.5839 11.8831C12.514 11.953 12.4441 12.0229 12.3741 12.0229L14.4715 14.8888Z" fill="#B8114F"/>
<path d="M16.2894 13.7704L14.8213 10.5549C14.7514 10.6248 14.6814 10.6248 14.5416 10.6947L16.0098 13.9102C16.0797 13.8403 16.1496 13.8403 16.2894 13.7704Z" fill="#B8114F"/>
<path d="M28.1041 21.3897L34.2563 21.11C34.2563 21.0401 34.2563 20.9003 34.2563 20.8304L28.1041 21.11C28.1041 21.1799 28.1041 21.3197 28.1041 21.3897Z" fill="#B8114F"/>
<path d="M27.8245 19.2226L33.6971 17.3353C33.6971 17.2654 33.6271 17.1256 33.6271 17.0557L27.7546 18.943C27.7546 19.0129 27.8245 19.1527 27.8245 19.2226Z" fill="#B8114F"/>
<path d="M26.9856 17.1954L32.229 13.8402C32.159 13.7703 32.159 13.7004 32.0891 13.6305L26.8458 16.9857C26.8458 17.0556 26.9157 17.1255 26.9856 17.1954Z" fill="#B8114F"/>
<path d="M29.7819 10.9045C29.712 10.8346 29.6421 10.7647 29.5722 10.6948L25.3776 15.2384C25.4475 15.3083 25.5174 15.3782 25.5873 15.4481L29.7819 10.9045Z" fill="#B8114F"/>
<path d="M26.8457 8.73758C26.7758 8.66768 26.7059 8.66768 26.636 8.59778L23.6997 14.05C23.7696 14.1199 23.8395 14.1199 23.9094 14.1898L26.8457 8.73758Z" fill="#B8114F"/>
<path d="M11.3256 21.11L5.17346 20.8304C5.17346 20.9003 5.17346 21.0401 5.17346 21.11L11.3256 21.3897C11.3256 21.3197 11.3256 21.1799 11.3256 21.11Z" fill="#B8114F"/>
<path d="M11.6751 18.943L5.80258 17.1256C5.80258 17.1955 5.73267 17.3353 5.73267 17.4052L11.6052 19.2226C11.6052 19.1527 11.6751 19.0129 11.6751 18.943Z" fill="#B8114F"/>
<path d="M12.5839 16.9158L7.41045 13.6305C7.34054 13.7004 7.34054 13.7703 7.27063 13.8402L12.444 17.1255C12.5139 17.1255 12.5839 17.0556 12.5839 16.9158Z" fill="#B8114F"/>
<path d="M13.9124 15.3782L9.64784 10.9045C9.57793 10.9744 9.50802 11.0443 9.43811 11.1142L13.7027 15.5879C13.7726 15.518 13.8425 15.4481 13.9124 15.3782Z" fill="#B8114F"/>
<path d="M12.0945 9.01724L15.2405 14.3297C15.3104 14.2598 15.3803 14.2598 15.4502 14.1899L12.3741 8.87744C12.2343 8.87744 12.1644 8.94734 12.0945 9.01724Z" fill="#B8114F"/>
<path d="M9.78764 9.15684L9.57791 8.94714L9.22836 9.29665C9.15845 9.36655 9.15845 9.43645 9.15845 9.57625C9.15845 9.64615 9.22836 9.78595 9.29827 9.85585C9.36818 9.92575 9.508 9.99565 9.71773 10.0656C9.85756 10.1355 10.0673 10.1355 10.277 10.1355V9.99565C10.1372 9.99565 9.99738 9.99565 9.92747 9.92575C9.78764 9.92575 9.71773 9.85585 9.64782 9.78595C9.57791 9.71605 9.57791 9.64615 9.57791 9.57625C9.57791 9.50635 9.57791 9.43645 9.64782 9.36655L9.78764 9.15684Z" fill="#B8114F"/>
<path d="M11.3955 6.01141C11.4654 6.01141 11.4654 5.94151 11.5353 5.94151C11.6052 5.94151 11.6052 5.94151 11.6751 5.94151L12.1645 6.15121C12.2344 6.08131 12.1645 6.01141 11.9547 5.94151C11.8149 5.87161 11.745 5.87161 11.745 5.80171C11.6052 5.73181 11.5353 5.73181 11.3955 5.73181C11.2556 5.73181 11.1857 5.73181 11.1158 5.80171C11.0459 5.80171 11.0459 5.87161 11.0459 5.87161L11.3255 6.08131C11.3255 6.08131 11.3255 6.08131 11.3955 6.01141Z" fill="#B8114F"/>
<path d="M12.7937 5.52225C12.8636 5.52225 12.8636 5.45235 12.9335 5.45235C13.0035 5.45235 13.0734 5.38245 13.2132 5.38245C13.353 5.38245 13.4229 5.38245 13.5627 5.45235L13.7725 5.38245L13.2831 4.96304C13.2132 4.89314 13.1433 4.82324 13.0734 4.82324C13.0035 4.82324 12.9335 4.82324 12.8636 4.82324C12.7937 4.89314 12.7238 4.89314 12.6539 4.96304L12.9335 5.17275C12.9335 5.17275 12.9335 5.10284 13.0034 5.10284L13.0734 5.03294C13.1433 5.03294 13.1433 5.03294 13.2132 5.03294C13.2831 5.03294 13.353 5.10284 13.4229 5.17275L13.7026 5.38245C13.4229 5.31255 13.2132 5.24264 13.0734 5.24264C12.9335 5.24264 12.7937 5.24264 12.7238 5.24264C12.7238 5.24264 12.6539 5.24265 12.6539 5.31255L12.584 5.38245L12.7937 5.52225C12.7238 5.52225 12.7238 5.52225 12.7937 5.52225Z" fill="#B8114F"/>
<path d="M9.71747 8.59774C9.78738 8.59774 9.78738 8.59774 9.78738 8.66764C9.85729 8.73754 9.85729 8.80744 9.78738 8.87734C9.78738 8.94724 9.71747 9.01714 9.64755 9.15694C9.85729 9.29674 9.99711 9.36665 10.2068 9.36665C10.4166 9.36665 10.5564 9.36665 10.6263 9.22684C10.6962 9.15694 10.6962 9.15694 10.7661 9.08704C10.7661 9.01714 10.836 8.94724 10.836 8.87734L11.0458 9.08704L11.3953 9.01714L10.4166 7.96863C10.5564 7.82883 10.6962 7.68903 10.836 7.61913L11.6051 8.59774H11.9546L11.0458 7.47933C11.1856 7.33953 11.3953 7.19973 11.5351 7.12983L11.7449 7.47933L11.6051 7.54923C11.6051 7.54923 11.6051 7.54923 11.6051 7.61913V7.68903C11.675 7.75893 11.7449 7.82883 11.8847 7.82883C12.0245 7.82883 12.1643 7.82883 12.2343 7.82883L12.3042 7.75893V7.68903L11.8148 6.99002C11.9546 6.92012 12.0245 6.85022 12.1643 6.78032L12.8635 7.82883H13.213L12.444 6.64052C12.7935 6.43082 13.1431 6.22112 13.5626 6.01142L13.7723 6.43082L13.1431 6.71042C13.0732 6.71042 13.0732 6.78032 13.0732 6.78032C13.0732 6.85022 13.0732 6.85022 13.0732 6.92012C13.1431 6.99002 13.213 7.05993 13.2829 7.12983C13.4227 7.19973 13.4927 7.19973 13.5626 7.19973C13.5626 7.19973 13.5626 7.19973 13.5626 7.12983V7.05992L13.4927 6.92012V6.85022V6.78032L13.8422 6.64052L14.1219 7.12983H14.4714L13.8422 5.87162C14.2617 5.66191 14.6112 5.52211 15.0307 5.38231L15.1705 5.87162C15.0307 5.80171 14.9608 5.73181 14.8909 5.73181C14.821 5.73181 14.751 5.73181 14.6811 5.73181C14.5413 5.80171 14.4714 5.87161 14.4015 5.94151C14.3316 6.01142 14.3316 6.15122 14.4015 6.22112C14.4714 6.36092 14.5413 6.43082 14.6811 6.50072C14.821 6.57062 14.9608 6.57062 15.1006 6.57062C15.1705 6.57062 15.1705 6.50072 15.2404 6.50072C15.3103 6.43082 15.3103 6.36092 15.3802 6.29102L15.4502 6.57062L15.7997 6.64052L15.59 6.01142C15.59 5.94151 15.6599 5.87161 15.7298 5.80171C15.7997 5.73181 15.8696 5.73181 15.8696 5.66191H15.9395L16.0094 5.73181C16.0094 5.80171 16.0094 5.87161 16.0094 5.94151C16.0094 6.01142 16.0094 6.15122 15.9395 6.22112L16.2891 6.29102C16.359 6.08132 16.359 5.94152 16.2891 5.73181C16.2192 5.59201 16.1493 5.52211 16.0094 5.45221C15.8696 5.38231 15.7298 5.31241 15.6599 5.38231C15.59 5.38231 15.59 5.45221 15.5201 5.45221C15.59 5.38231 15.59 5.38231 15.5201 5.45221L15.3802 5.10271C15.6599 5.03281 16.0094 4.89301 16.2891 4.82311L16.2192 4.75321L16.0094 4.6134C12.9334 5.45221 10.2768 7.19973 8.38916 9.64625L8.73871 9.71615C9.08827 9.29675 9.36791 8.94724 9.71747 8.59774ZM15.1705 6.01142C15.1006 6.08132 15.0307 6.15122 14.9608 6.15122C14.8909 6.15122 14.8909 6.15122 14.821 6.15122C14.751 6.15122 14.751 6.08132 14.751 6.08132C14.751 6.01142 14.751 5.94152 14.751 5.87162C14.751 5.80171 14.821 5.73181 14.8909 5.73181C14.9608 5.73181 15.0307 5.73181 15.1006 5.73181C15.1705 5.73181 15.2404 5.73181 15.3103 5.80171C15.2404 5.87161 15.2404 5.94151 15.1705 6.01142ZM10.2068 8.10843L10.6263 8.52784C10.6263 8.66764 10.5564 8.73754 10.5564 8.80744C10.5564 8.87734 10.4865 8.94724 10.4166 9.01714C10.3467 9.08704 10.3467 9.08704 10.2768 9.08704C10.2068 9.08704 10.1369 9.08704 10.067 9.08704C10.1369 9.01714 10.2068 8.87734 10.2068 8.80744C10.2068 8.73754 10.2068 8.66764 10.2068 8.59774C10.2068 8.59774 10.1369 8.52784 10.067 8.52784C9.99711 8.52784 9.9272 8.52784 9.85729 8.45794C9.9272 8.38804 10.067 8.24824 10.2068 8.10843Z" fill="#B8114F"/>
<path d="M14.4016 4.47366C14.4715 4.47366 14.4715 4.47366 14.5414 4.47366C14.6113 4.47366 14.6113 4.47366 14.6812 4.54356L15.1007 4.89307C15.1706 4.89307 15.1007 4.75327 14.9608 4.61346C14.8909 4.54356 14.821 4.47366 14.7511 4.47366C14.6812 4.40376 14.5414 4.33386 14.4715 4.33386C14.3316 4.33386 14.2617 4.33386 14.1918 4.33386C14.1219 4.33386 14.1219 4.40376 14.052 4.40376L14.2617 4.61346C14.2617 4.54356 14.3316 4.47366 14.4016 4.47366Z" fill="#B8114F"/>
<path d="M20.4838 6.08124C20.5537 6.08124 20.6237 6.01134 20.6936 6.01134H20.8334L20.6936 5.80164H20.5537C20.4838 5.80164 20.344 5.80164 20.2741 5.87154C20.2042 5.94144 20.1343 6.01134 20.1343 6.08124C20.1343 6.22104 20.1343 6.36084 20.2741 6.43074C20.344 6.57054 20.4838 6.64044 20.6237 6.64044C20.6936 6.64044 20.7635 6.64044 20.8334 6.64044C20.9033 6.64044 20.9732 6.57054 21.0431 6.57054L20.9033 6.29094C20.8334 6.36084 20.7635 6.36084 20.6936 6.43074C20.6237 6.43074 20.5537 6.43074 20.4838 6.43074C20.4139 6.43074 20.4139 6.43074 20.344 6.36084C20.344 6.29094 20.2741 6.29094 20.2741 6.22104C20.344 6.15114 20.4139 6.08124 20.4838 6.08124Z" fill="#B8114F"/>
<path d="M23.2103 5.45216C23.2802 5.38226 23.3501 5.38226 23.42 5.45216L23.7696 5.52206L23.8395 5.24246L23.3501 5.10266C23.2802 5.10266 23.1404 5.10266 23.0705 5.10266C23.0006 5.17256 22.9307 5.24246 22.9307 5.31236C22.9307 5.45216 22.9307 5.59196 22.9307 5.73177C23.0006 5.87157 23.0705 6.08127 23.1404 6.29097L23.2802 6.22107C23.2103 6.08127 23.2103 6.01137 23.1404 5.87157C23.1404 5.73177 23.1404 5.66186 23.1404 5.59196C23.1404 5.52206 23.1404 5.45216 23.2103 5.45216Z" fill="#B8114F"/>
<path d="M29.2927 8.03857C29.1529 8.03857 29.1529 8.10848 29.083 8.31818C29.083 8.45798 29.083 8.66768 29.1529 8.87738C29.0131 8.94728 28.8732 8.87738 28.8033 8.87738C28.8033 8.80748 28.8033 8.80748 28.8732 8.73758C28.8732 8.66768 28.8732 8.66768 28.8732 8.66768C28.8732 8.66768 28.8033 8.59778 28.7334 8.59778C28.6635 8.59778 28.6635 8.59778 28.5936 8.66768C28.5237 8.73758 28.5237 8.73758 28.5237 8.80748C28.5237 8.87738 28.5936 8.94728 28.6635 9.01718L28.5936 9.50649L28.7334 9.57639V9.08708C28.9431 9.15698 29.1529 9.15698 29.2927 9.15698C29.4325 9.15698 29.5723 9.08708 29.7122 9.01718C29.9219 8.80748 29.9918 8.45798 29.7122 8.17838C29.5723 8.03857 29.4325 8.03857 29.2927 8.03857ZM29.5723 8.45798C29.5723 8.52788 29.5024 8.59778 29.5024 8.66768C29.4325 8.73758 29.4325 8.73758 29.3626 8.80748C29.2927 8.80748 29.2927 8.87738 29.2927 8.87738C29.2927 8.73758 29.2927 8.66768 29.2927 8.59778C29.2927 8.52788 29.2927 8.45798 29.3626 8.38808C29.4325 8.31818 29.4325 8.31818 29.5024 8.31818C29.5723 8.31818 29.5723 8.31818 29.6423 8.31818C29.5723 8.38808 29.5723 8.38808 29.5723 8.45798Z" fill="#B8114F"/>
<path d="M28.8731 10.3454C28.8032 10.3454 28.6634 10.2755 28.5935 10.2056C28.4537 10.0658 28.3838 9.92595 28.3139 9.78615C28.2439 9.64635 28.2439 9.50655 28.2439 9.43665H28.1041C28.1041 9.57645 28.1041 9.78615 28.174 9.92595C28.2439 10.0658 28.3139 10.2755 28.4537 10.4153C28.5236 10.5551 28.6634 10.5551 28.8032 10.625C28.9431 10.625 29.013 10.625 29.0829 10.5551C29.1528 10.4852 29.2227 10.4153 29.2227 10.2755C29.2227 10.1357 29.2227 10.0658 29.1528 9.99585C29.1528 9.92595 29.0829 9.92595 29.013 9.92595C28.9431 9.92595 28.8731 9.85605 28.8032 9.85605V10.1357C28.8731 10.1357 28.9431 10.1357 28.9431 10.1357C29.013 10.1357 29.013 10.2056 29.0829 10.2056C29.0829 10.2056 29.0829 10.2755 29.1528 10.2755V10.3454C29.013 10.3454 28.9431 10.3454 28.8731 10.3454Z" fill="#B8114F"/>
<path d="M17.7575 5.66196C17.8973 5.80176 18.0371 5.80176 18.2469 5.80176C18.3867 5.80176 18.4566 5.73186 18.5265 5.66196C18.5964 5.59206 18.5964 5.45226 18.5964 5.38236C18.5964 5.31246 18.5964 5.31245 18.5964 5.24255C18.5964 5.17265 18.5265 5.17265 18.5265 5.10275C18.5964 5.17265 18.6663 5.17265 18.7362 5.17265C18.8061 5.17265 18.8761 5.17265 18.8761 5.17265C18.946 5.17265 19.0159 5.17265 19.0159 5.10275L19.0858 5.59206L19.4353 5.73186L19.2955 4.33385C19.5052 4.33385 19.6451 4.33385 19.8548 4.33385H19.9247V4.89305H19.8548H19.7849C19.7849 4.89305 19.7849 4.89305 19.7849 4.96295C19.7849 5.03285 19.8548 5.10275 19.9247 5.24255C20.0645 5.38236 20.1344 5.45226 20.2044 5.45226C20.2044 5.45226 20.2044 5.45226 20.2743 5.45226V5.38236V5.24255H20.7636V5.59206L21.0433 5.80176L21.1132 4.33385C21.5327 4.40375 21.9521 4.40375 22.4415 4.47365L22.3716 4.68335L21.9521 4.61345C21.8123 4.61345 21.7424 4.61345 21.6725 4.68335C21.6026 4.75325 21.5327 4.82315 21.5327 4.89305C21.5327 5.03285 21.5327 5.17265 21.6026 5.31245C21.6725 5.45226 21.7424 5.66196 21.8123 5.80176L21.9521 5.73186C21.8822 5.66196 21.8123 5.52216 21.8123 5.45226C21.8123 5.31246 21.8123 5.24255 21.8123 5.10275C21.8123 5.03285 21.8822 4.96295 21.9521 4.89305C22.022 4.82315 22.092 4.82315 22.1619 4.82315L22.4415 4.89305L22.3017 5.59206L22.5813 5.87166L22.7911 4.47365C23.63 4.61345 24.399 4.89305 25.168 5.17265L25.0282 5.59206C24.9583 5.45226 24.9583 5.38236 24.8884 5.31245C24.8185 5.24255 24.7486 5.17265 24.6787 5.10275C24.5388 5.03285 24.399 5.03285 24.3291 5.10275C24.1893 5.17265 24.1194 5.24255 24.1194 5.31245C24.0495 5.45226 24.1194 5.59206 24.1893 5.73186C24.2592 5.94156 24.399 6.01146 24.5388 6.08136C24.6087 6.08136 24.6787 6.15126 24.7486 6.08136C24.8185 6.08136 24.8884 6.08136 24.9583 6.01146L24.8884 6.29106L25.0981 6.57067L25.5875 5.24255C25.7972 5.31245 26.007 5.38236 26.1468 5.52216L25.8671 6.01146L25.7972 5.94156H25.7273C25.7273 5.94156 25.6574 5.94156 25.6574 6.01146C25.6574 6.08136 25.6574 6.15126 25.7273 6.29106C25.7972 6.43086 25.7972 6.57067 25.8671 6.57067C25.8671 6.57067 25.8671 6.57067 25.937 6.57067C25.937 6.57067 26.007 6.57067 26.007 6.50077L26.0769 6.36096L26.5662 6.57067L26.3565 6.92017L26.5662 7.26967L27.2654 6.01146C27.4052 6.08136 27.6149 6.22116 27.7547 6.29106L27.0556 7.33957L27.1954 7.68907L27.9645 6.50077C28.314 6.71047 28.6636 6.99007 28.9432 7.19977L28.6636 7.54927L28.1043 7.12987H28.0344C27.9645 7.12987 27.9645 7.12987 27.9645 7.19977C27.4751 7.47937 27.4751 7.61917 27.4751 7.68907C27.4751 7.82888 27.4751 7.89878 27.545 7.89878C27.545 7.89878 27.545 7.89878 27.6149 7.89878H27.6848L27.7547 7.82888C27.7547 7.82888 27.7547 7.82888 27.8246 7.82888H27.8945L28.1742 8.03858L27.8246 8.45798L27.9645 8.80748L28.8733 7.68907C29.0131 7.82888 29.1529 7.89878 29.2229 8.03858L29.4326 7.82888C26.8459 5.52216 23.4902 4.12415 19.7849 4.12415C19.3654 4.12415 18.946 4.12414 18.5265 4.19405L18.7362 4.47365C18.8061 4.47365 18.8761 4.47365 18.946 4.47365L19.0159 4.89305C19.0159 4.96295 18.946 4.96295 18.946 4.96295C18.8761 4.96295 18.8761 5.03285 18.8061 5.03285C18.7362 5.03285 18.6663 5.03285 18.5964 5.03285C18.5265 5.03285 18.5265 5.03285 18.4566 5.03285C18.5265 4.96295 18.5265 4.96295 18.5265 4.89305C18.5265 4.82315 18.5265 4.75325 18.5265 4.75325C18.5265 4.61345 18.4566 4.54355 18.3168 4.47365C18.1769 4.40375 18.0371 4.33385 17.8973 4.33385C17.8274 4.33385 17.7575 4.33385 17.6876 4.40375C17.6177 4.40375 17.5477 4.47365 17.4778 4.54355L17.6876 4.75325C17.7575 4.68335 17.8274 4.61345 17.8973 4.61345C17.9672 4.54355 18.0371 4.54355 18.107 4.54355C18.1769 4.54355 18.2469 4.54355 18.2469 4.54355C18.3168 4.54355 18.3168 4.61345 18.3168 4.68335C18.3168 4.75325 18.3168 4.82315 18.2469 4.89305C18.2469 4.96295 18.1769 4.96295 18.107 4.96295C18.0371 4.96295 18.0371 4.96295 17.9672 4.96295C17.8973 4.96295 17.8274 5.03285 17.7575 5.03285L17.8973 5.31245C18.0371 5.31245 18.107 5.24255 18.2469 5.17265L18.3168 5.24255V5.31245C18.3168 5.38236 18.3168 5.45226 18.2469 5.52216C18.1769 5.59206 18.107 5.66196 18.0371 5.66196C17.8973 5.66196 17.8274 5.66196 17.6876 5.59206C17.5477 5.52216 17.4778 5.38236 17.4079 5.31245L17.338 5.38236C17.4778 5.38236 17.6177 5.59206 17.7575 5.66196ZM24.399 6.08136C24.2592 6.08136 24.1893 6.08136 24.1194 6.08136C24.0495 6.08136 23.9795 6.01146 23.9795 5.94156C23.9795 5.87166 23.9096 5.87166 23.9795 5.80176C23.9795 5.73186 24.0495 5.66196 24.1893 5.66196C24.3291 5.66196 24.399 5.66196 24.5388 5.66196C24.6087 5.66196 24.6087 5.73186 24.6787 5.80176C24.7486 5.87166 24.7486 5.94156 24.8185 6.01146C24.6087 6.01146 24.5388 6.01146 24.399 6.08136ZM26.0769 5.87166C26.2167 5.94156 26.3565 6.01146 26.5662 6.08136L26.2866 6.57067L25.7972 6.36096L26.0769 5.87166ZM20.1344 4.40375C20.2743 4.40375 20.484 4.40375 20.6238 4.40375V4.96295H20.1344V4.40375Z" fill="#B8114F"/>
<path d="M29.2227 9.78612L29.2926 10.1356L30.3412 9.15701C30.4111 9.22691 30.4811 9.29681 30.551 9.43661L30.6209 9.08711C30.4111 8.87741 30.2713 8.66771 30.0616 8.45801L29.8519 8.66771C29.9218 8.73761 29.9917 8.80751 30.1315 8.94731L29.2227 9.78612Z" fill="#B8114F"/>
<path d="M30.2016 9.99573H29.7821V10.4151H30.2016V9.99573Z" fill="#B8114F"/>
<path d="M30.6908 9.57629H30.2714V9.9957H30.6908V9.57629Z" fill="#B8114F"/>
<path d="M14.5415 46.4139L15.1007 46.6935V44.1771H15.5901L15.3105 43.6878H12.7238H12.584H11.2556H11.1158H8.24948H8.10966H6.78135H6.64153H3.07608H3.00617H1.88759L2.16724 44.1771H2.30706V45.2955L1.67786 45.0159C1.74777 44.946 1.74777 44.8761 1.81768 44.8062C1.81768 44.7363 1.88759 44.5965 1.88759 44.5266C1.88759 44.3169 1.81768 44.1072 1.60795 43.8975C1.39822 43.6878 1.18848 43.548 0.978752 43.548C0.76902 43.548 0.629197 43.6179 0.489376 43.6878C0.349554 43.8276 0.279644 43.9674 0.279644 44.1072C0.279644 44.247 0.349554 44.3868 0.489376 44.5266C0.629197 44.6664 0.76902 44.8062 0.978752 44.8761C0.76902 45.0159 0.419465 45.1557 0 45.3654L0.419465 45.7149C0.908841 45.4353 1.32831 45.2256 1.53804 45.0858L2.02741 45.2955L0.629198 46.1343L1.04866 46.4838L2.37697 45.5751V46.2741L2.93625 46.5537V44.0373H3.35572H3.49554H6.15215V44.4567H5.52296C5.31322 44.4567 5.10349 44.5266 4.96367 44.6664C4.82385 44.8062 4.75394 45.0159 4.75394 45.2256C4.75394 45.5052 4.89376 45.7848 5.1734 46.0644C5.45305 46.344 5.73269 46.4838 5.94242 46.4838H6.01233H6.08224C6.01233 46.6935 5.94242 46.9032 5.8026 47.043C5.66278 47.1828 5.52296 47.2527 5.38313 47.2527C5.31322 47.2527 5.24331 47.2527 5.24331 47.1828C5.1734 47.1129 5.1734 47.1129 5.1734 47.043C5.1734 46.9731 5.1734 46.9032 5.24331 46.8333C5.31322 46.7634 5.38313 46.6935 5.52296 46.6935L5.03358 46.4139C4.96367 46.4139 4.89376 46.4838 4.82385 46.4838C4.75394 46.5537 4.75394 46.5537 4.75394 46.6236C4.5442 46.6236 4.40438 46.6236 4.33447 46.5537C4.40438 46.4838 4.54421 46.4838 4.54421 46.344C4.61412 46.2741 4.61411 46.1343 4.61411 46.0644C4.61411 45.9246 4.5442 45.7848 4.47429 45.7149C4.40438 45.645 4.26456 45.5751 4.12474 45.5751C3.98492 45.5751 3.8451 45.645 3.70527 45.7149C3.56545 45.8547 3.56545 45.9246 3.56545 46.1343C3.56545 46.344 3.70527 46.5537 3.91501 46.6935C4.12474 46.8333 4.40438 46.9032 4.75394 46.9032C4.68403 47.043 4.75394 47.1828 4.96367 47.3226C5.1734 47.4624 5.38313 47.5323 5.66278 47.5323C5.8026 47.5323 5.94242 47.4624 6.08224 47.3925C6.22206 47.2527 6.36189 47.1129 6.4318 46.9032L6.64153 47.3925L6.99108 47.2527L6.50171 46.6236C6.57162 46.6236 6.64153 46.5537 6.71144 46.4838C6.78135 46.4139 6.78135 46.344 6.78135 46.2741C6.78135 46.1343 6.71144 46.0644 6.64153 45.9246C6.57162 45.7848 6.4318 45.7149 6.36189 45.7149C6.22206 45.7149 6.15215 45.7149 6.08224 45.7848C6.01233 45.8547 5.94242 45.9246 5.94242 45.9945C5.94242 46.0644 5.94242 46.1343 6.01233 46.2741C5.87251 46.344 5.8026 46.344 5.73269 46.344C5.52296 46.344 5.38313 46.2741 5.31322 46.1343C5.1734 45.9945 5.10349 45.8547 5.10349 45.645C5.10349 45.5052 5.1734 45.3654 5.24331 45.2256C5.31322 45.0858 5.45305 45.0858 5.59287 45.0858H6.64153V44.1771H6.99108H7.13091H7.48046V46.344L8.03975 46.6935V44.1771H8.45921H8.59903H10.5565V45.0159C10.4167 44.8761 10.2769 44.7363 10.0672 44.5965C9.85743 44.5266 9.71761 44.4567 9.57778 44.4567C9.36805 44.4567 9.15832 44.5266 9.0185 44.6664C8.87868 44.8062 8.73886 44.946 8.73886 45.1557C8.73886 45.3654 8.87868 45.645 9.08841 45.8547C9.29814 46.0644 9.57779 46.2042 9.78752 46.2042C9.92734 46.2042 10.0672 46.2042 10.1371 46.1343C10.2769 46.0644 10.3468 45.9945 10.4866 45.8547V46.344L11.0459 46.6935V44.1771H11.4654H11.6052H11.9548V46.344L12.514 46.6935V44.1771H12.9335H13.0733H14.6114V44.946H13.4229C13.353 44.946 13.2831 44.946 13.2831 45.0159C13.2131 45.0858 13.2131 45.0858 13.2131 45.1557C13.2131 45.2955 13.2831 45.4353 13.4229 45.645C13.5627 45.7848 13.7025 45.9246 13.7724 45.9246C13.8423 45.9246 13.8423 45.9246 13.8423 45.8547L13.9123 45.7848V45.5751C13.9123 45.5052 13.9123 45.5052 13.9822 45.5052L14.0521 45.4353H14.6813V46.4139H14.5415ZM1.39822 44.6664C1.32831 44.7363 1.25839 44.8062 1.18848 44.8761C1.04866 44.8062 0.978752 44.8062 0.908841 44.6664C0.83893 44.5965 0.83893 44.4567 0.83893 44.3868C0.83893 44.3169 0.83893 44.247 0.908841 44.1771C0.978752 44.1072 1.04866 44.1072 1.18848 44.1072C1.25839 44.1072 1.32831 44.1072 1.39822 44.1771C1.46813 44.247 1.46813 44.3169 1.46813 44.3868C1.46813 44.4567 1.46813 44.5965 1.39822 44.6664ZM3.91501 46.4139C3.8451 46.344 3.8451 46.2741 3.8451 46.2042C3.8451 46.1343 3.8451 46.0644 3.91501 45.9945C3.98492 45.9246 4.05483 45.9246 4.12474 45.9246C4.19465 45.9246 4.26456 45.9246 4.33447 45.9945C4.40438 46.0644 4.40438 46.1343 4.40438 46.2042C4.40438 46.2741 4.40438 46.344 4.33447 46.4139C4.26456 46.4838 4.19465 46.4838 4.12474 46.4838C3.98492 46.4838 3.91501 46.4838 3.91501 46.4139ZM9.99725 45.645C9.78752 45.7149 9.6477 45.7848 9.50787 45.7848C9.36805 45.7848 9.29814 45.7149 9.22823 45.7149C9.15832 45.645 9.08841 45.5751 9.08841 45.5052C9.08841 45.3654 9.15832 45.2256 9.36805 45.1557C9.50787 45.0159 9.71761 45.0159 9.92734 45.0159C9.99725 45.0159 10.1371 45.0159 10.2769 45.0858C10.4167 45.1557 10.4866 45.2256 10.5565 45.3654C10.3468 45.4353 10.207 45.5751 9.99725 45.645Z" fill="#B8114F"/>
<path d="M15.1006 47.0431C14.9608 46.9033 14.821 46.8334 14.6812 46.8334C14.6113 46.8334 14.5414 46.8334 14.4715 46.9033C14.4015 46.9033 14.3316 46.9732 14.2617 47.0431L14.4715 47.3926C14.5414 47.3227 14.5414 47.3227 14.6113 47.3227C14.6812 47.3227 14.7511 47.2528 14.7511 47.2528C14.8909 47.2528 15.1706 47.4625 15.59 47.8819L15.9396 48.2314L16.1493 48.0916C15.8697 47.812 15.5201 47.4625 15.1006 47.0431Z" fill="#B8114F"/>
<path d="M26.0769 43.7577H23.9796H23.8397H22.2318L22.5114 44.247H23.1406V45.2256H22.3017V44.3868C22.3017 44.1771 22.2318 44.0373 22.0221 43.8276C21.8123 43.6179 21.6725 43.548 21.4628 43.548C21.3229 43.548 21.1831 43.6179 21.0433 43.6878C20.9035 43.8276 20.9035 43.8975 20.9035 44.1072C20.9035 44.1771 20.9035 44.1771 20.9035 44.247L20.6238 43.7577H17.1283L17.4079 44.247H19.5752V44.6664C19.5053 44.6664 19.4354 44.6664 19.3654 44.7363C19.2955 44.8062 19.1557 44.8761 19.0858 45.0159C18.946 44.8761 18.8761 44.8062 18.7362 44.7363C18.5964 44.6664 18.5265 44.5965 18.3867 44.5965C18.177 44.5965 18.0371 44.6664 17.8973 44.8062C17.7575 44.946 17.6876 45.0858 17.6876 45.2955C17.6876 45.5052 17.7575 45.7149 17.9672 45.9246C18.107 46.1343 18.3867 46.4139 18.7362 46.6236L18.8761 46.4139C18.6663 46.2042 18.5265 46.0644 18.3867 45.9246C18.2469 45.7149 18.2469 45.5751 18.2469 45.4353C18.2469 45.2955 18.3168 45.1557 18.3867 45.0858C18.4566 45.0159 18.5964 44.946 18.6663 44.946C18.7362 44.946 18.8062 44.946 18.8761 45.0159C18.946 45.0159 19.0159 45.0858 19.0159 45.1557C18.8761 45.4353 18.8062 45.5751 18.8062 45.645L19.2955 45.8547C19.3654 45.5751 19.4354 45.3654 19.5752 45.1557C19.715 45.0159 19.8548 44.8761 19.9946 44.8761C20.0646 44.8761 20.1345 44.8761 20.2044 44.946C20.2743 45.0159 20.2743 45.0159 20.2743 45.0858C20.2743 45.2256 20.2044 45.3654 20.0646 45.5052C19.9247 45.645 19.7849 45.8547 19.5053 45.9945L19.9247 46.4139C20.1345 46.2042 20.2743 45.9945 20.3442 45.7848C20.4141 45.5751 20.484 45.4353 20.484 45.2256C20.484 45.0159 20.4141 44.8761 20.3442 44.7363C20.2743 44.5965 20.1345 44.5266 19.9946 44.4567V44.0373H20.7637C20.7637 44.1771 20.9035 44.3169 20.9734 44.3868C21.1831 44.5266 21.3229 44.6664 21.6026 44.6664V45.2256H21.3929C21.3229 45.2256 21.3229 45.2256 21.253 45.2955C21.1831 45.3654 21.1831 45.3654 21.1831 45.4353C21.1831 45.5751 21.253 45.7149 21.4628 45.8547C21.6725 46.0644 21.8123 46.1343 21.9521 46.1343C22.0221 46.1343 22.0221 46.1343 22.092 46.0644C22.092 45.9945 22.1619 45.9945 22.1619 45.9246V45.7149H23.0008V46.4139L23.5601 46.6935V44.1771H23.9796H24.1194H25.7273V44.5965H24.9583C24.7486 44.5965 24.6088 44.6664 24.4689 44.7363C24.3291 44.8761 24.2592 45.0159 24.2592 45.1557C24.2592 45.3654 24.3291 45.645 24.4689 45.8547C24.6088 46.1343 24.7486 46.344 25.0282 46.6236L25.238 46.4838C25.0981 46.344 24.9583 46.2042 24.8884 45.9945C24.8185 45.7848 24.7486 45.645 24.7486 45.4353C24.7486 45.2955 24.8185 45.1557 24.8884 45.0858C24.9583 45.0159 25.0981 44.946 25.238 44.946H25.7972V46.2042L26.3565 46.5537V44.0373H26.9158L26.6362 43.548H26.0769V43.7577ZM21.8123 44.6664C21.7424 44.6664 21.6026 44.5965 21.6026 44.4567C21.5327 44.3868 21.5327 44.247 21.5327 44.1072C21.5327 44.0373 21.5327 43.9674 21.6026 43.8975C21.6725 43.8276 21.6725 43.8276 21.7424 43.8276C21.8123 43.8276 21.8123 43.8276 21.8123 43.8975C21.8123 43.9674 21.8822 43.9674 21.8822 44.0373V44.6664H21.8123Z" fill="#B8114F"/>
<path d="M25.9368 43.1985C25.797 42.9888 25.7271 42.9189 25.6571 42.849C25.5173 42.7092 25.3775 42.5694 25.2377 42.4296C25.0979 42.3597 24.8881 42.2898 24.7483 42.2898C24.6784 42.2898 24.6085 42.2898 24.5386 42.3597L24.7483 42.849C24.8182 42.849 24.8881 42.7791 25.028 42.7791C25.0979 42.7791 25.1678 42.7791 25.3076 42.849C25.3775 42.849 25.4474 42.9189 25.5173 42.9888L26.0766 43.7577C26.2164 43.7577 26.1465 43.548 25.9368 43.1985Z" fill="#B8114F"/>
<path d="M37.8218 46.344L38.3811 46.6935V44.1771H38.9404L38.6608 43.7577H35.7245H35.5847H33.1378H32.998H31.6697H31.5298H28.5237L28.8033 44.247H30.9007V44.6664H29.2228L29.1529 44.8761C29.4325 44.946 29.5723 45.0858 29.7821 45.2256C29.9219 45.3654 29.9918 45.5751 29.9918 45.7149C29.9918 45.7848 29.9219 45.8547 29.852 45.9246C29.7821 45.9945 29.6423 46.0644 29.5723 46.0644C29.5723 45.9945 29.5024 45.9246 29.4325 45.9246C29.3626 45.8547 29.2927 45.8547 29.2927 45.8547C29.2228 45.8547 29.1529 45.8547 29.083 45.9246C29.0131 45.9945 29.0131 46.0644 29.0131 46.1343C29.0131 46.2741 29.083 46.344 29.2228 46.4139C29.3626 46.4838 29.5024 46.5537 29.6423 46.5537L29.9918 47.3925L30.2715 47.2527L29.7821 46.5537C29.9219 46.5537 30.0617 46.4838 30.2015 46.344C30.3414 46.2741 30.3414 46.1343 30.3414 45.9945C30.3414 45.8547 30.2715 45.7149 30.2015 45.5751C30.1316 45.4353 29.9918 45.2955 29.852 45.2256H30.8307V46.5537L31.39 46.8333V44.3169H31.8095H31.9493H32.2989V46.4838L32.8582 46.8333V44.3169H33.2776H33.4174H34.9555V45.0858H33.767C33.6971 45.0858 33.6272 45.0858 33.6272 45.1557C33.5573 45.2256 33.5573 45.2256 33.5573 45.2955C33.5573 45.4353 33.6272 45.5751 33.767 45.7848C33.9068 45.9246 34.0466 46.0644 34.1165 46.0644C34.1865 46.0644 34.1865 46.0644 34.1865 45.9945L34.2564 45.9246V45.7149C34.2564 45.645 34.2564 45.645 34.3263 45.645L34.3962 45.5751H35.0254V46.5537L35.5847 46.8333V44.3169H35.8643H36.0041H36.4236V45.2256H36.2139C36.144 45.2256 36.144 45.2256 36.144 45.2955L36.0741 45.3654C36.0741 45.4353 36.144 45.5751 36.3537 45.7848C36.5634 45.9945 36.7033 46.0644 36.7732 46.0644C36.7732 46.0644 36.8431 46.0644 36.8431 45.9945C36.8431 45.9246 36.913 45.9246 36.913 45.8547V45.645H37.8218V46.344ZM36.9829 45.2256V44.1771H37.8917V45.2256H36.9829Z" fill="#B8114F"/>
<path d="M38.3812 47.0431C38.2413 46.9033 38.1015 46.8334 37.9617 46.8334C37.8918 46.8334 37.8219 46.8334 37.752 46.9033C37.6821 46.9033 37.6121 46.9732 37.5422 47.0431L37.752 47.3926C37.8219 47.3227 37.8219 47.3227 37.8918 47.3227C37.9617 47.3227 38.0316 47.2528 38.0316 47.2528C38.1714 47.2528 38.4511 47.4625 38.8705 47.8819L39.2201 48.2314L39.4298 48.0916C39.1502 47.812 38.8705 47.4625 38.3812 47.0431Z" fill="#B8114F"/>
<path d="M17.6176 15.3082C17.4778 15.5179 17.5477 15.7276 17.6176 15.8674C17.6875 16.0072 17.8972 16.147 18.1069 16.2868C18.1069 16.5664 18.3866 16.8461 18.876 16.9859C18.876 17.1956 19.1556 17.5451 19.645 17.5451C19.7149 17.5451 19.7848 17.5451 19.8547 17.5451C20.1344 17.4752 20.3441 17.2655 20.3441 16.9859C20.8335 16.8461 21.1131 16.6363 21.1131 16.2868V16.2169C21.4627 16.0072 21.6724 15.7975 21.6025 15.5179C21.6025 15.448 21.6025 15.3781 21.5326 15.3082C22.022 14.8189 22.3016 14.3296 22.4414 13.8403V13.7704C22.5113 13.5607 22.5113 13.351 22.5113 13.351C22.5113 12.9316 22.5113 12.5821 22.3715 12.1627L22.2317 11.8831C22.0919 11.6734 21.952 11.4637 21.8122 11.3239C21.7423 11.254 21.7423 11.254 21.6724 11.1841V10.9744C21.6025 10.9045 21.6025 10.9045 21.5326 10.8346C20.9034 10.2754 20.4839 9.85599 20.6237 8.94728C20.7636 8.03858 20.4839 7.12987 20.1344 6.92017C20.1344 6.92017 20.0645 6.92017 20.0645 6.85027C20.0645 6.71047 20.0644 6.64056 19.9945 6.64056C19.9246 6.43086 19.7149 6.43086 19.645 6.36096H19.5751C19.3653 6.36096 19.0857 6.43086 18.9459 6.92017C18.876 7.26967 18.876 7.68907 18.876 8.10848C18.876 8.17838 18.876 8.24828 18.876 8.31818C18.876 9.08709 18.1769 9.99579 17.6176 10.555C17.6176 10.555 17.1981 10.9744 16.9185 11.6035C16.7087 12.1627 15.73 14.05 17.6176 15.3082ZM19.7149 17.1257C19.5052 17.1257 19.3653 16.9859 19.3653 16.916V16.8461C19.4353 16.8461 19.5052 16.8461 19.5751 16.8461C19.645 16.8461 19.7149 16.8461 19.7848 16.8461C19.9246 16.8461 19.9945 16.8461 20.1344 16.8461V16.916C20.1344 17.0558 19.9246 17.1257 19.7149 17.1257ZM20.1344 16.6363C20.0644 16.6363 19.9945 16.6363 19.9246 16.6363C19.8547 16.6363 19.7848 16.6363 19.7848 16.6363C19.645 16.6363 19.5052 16.6363 19.3653 16.6363C18.876 16.5664 18.5963 16.4266 18.5963 16.2868C18.9459 16.3567 19.3653 16.3567 19.645 16.3567C20.1344 16.3567 20.6237 16.2868 20.9034 16.2169L20.9733 16.2868C20.9034 16.4266 20.6237 16.5664 20.1344 16.6363ZM17.8273 11.1142C18.5264 10.3453 19.2255 9.29679 19.2954 8.45798C19.2954 8.38808 19.2954 8.31818 19.2954 8.17838C19.2954 7.75897 19.2954 7.33957 19.3653 7.05997C19.4353 6.78037 19.5052 6.78037 19.5751 6.78037C19.645 6.78037 19.645 6.85027 19.645 6.99007C19.645 7.05997 19.645 7.26967 19.645 7.54927C19.645 8.03858 19.5751 8.80748 19.645 9.08709C19.7149 9.43659 19.9246 9.78609 20.0645 10.1356C20.2742 10.555 20.4839 10.9744 20.4839 11.3938C20.4839 12.0928 20.1344 12.1627 19.9246 12.1627C19.7848 12.1627 19.645 12.2326 19.645 12.3724C19.645 12.4423 19.7149 12.5122 19.7848 12.5122C19.7848 12.5122 19.8547 12.5122 19.9246 12.5122C19.9945 12.5122 20.1344 12.4423 20.2742 12.4423C20.3441 12.4423 20.414 12.4423 20.4839 12.4423C20.6936 12.5122 20.9034 12.652 20.9034 12.8617C20.9733 13.0714 20.9733 13.351 20.6237 13.7704C20.5538 13.8403 20.414 13.9801 20.0645 14.05C19.9945 14.05 19.9246 14.1199 19.9945 14.1898C19.9945 14.2597 20.0644 14.2597 20.1344 14.2597H20.2043C20.6936 14.2597 21.0432 14.3995 21.2529 14.5393C21.3228 14.6092 21.3928 14.749 21.3928 14.8189C21.3928 15.0286 21.1131 15.0985 20.9034 15.1684C20.7636 15.2383 20.6936 15.2383 20.6936 15.3082V15.3781L20.7636 15.448H20.8335C20.8335 15.448 20.9034 15.448 20.9733 15.448C21.1131 15.3781 21.2529 15.3781 21.3228 15.3781C21.3928 15.3781 21.3928 15.3781 21.3928 15.3781C21.4627 15.3781 21.4627 15.448 21.4627 15.448C21.4627 15.5878 21.3228 15.7276 20.9034 15.9373C20.6936 16.0072 20.2742 16.0771 19.7848 16.0771C19.0857 16.0771 18.1769 15.9373 18.037 15.6577C17.9671 15.5878 18.037 15.5179 18.1069 15.3781L18.1769 15.448C18.6662 15.7276 19.2954 15.7276 19.645 15.7276C19.8547 15.7276 20.0644 15.7276 20.1344 15.7276C20.2043 15.7276 20.3441 15.6577 20.3441 15.5878C20.3441 15.5179 20.2742 15.5179 20.2043 15.5179C20.2043 15.5179 20.2043 15.5179 20.1344 15.5179C20.0644 15.5179 19.9246 15.5179 19.8547 15.5179C19.3653 15.5179 18.9459 15.448 18.4565 15.2383C18.1769 15.1684 17.6875 14.8888 17.6176 14.749C17.268 14.4694 17.0583 13.9102 17.0583 13.351C16.8486 12.3025 17.5477 11.4637 17.8273 11.1142Z" fill="#B8114F"/>
<path d="M27.5448 23.4167L27.1953 23.3468C27.3351 22.7177 27.405 22.0886 27.405 21.3896C27.405 18.0344 25.2378 15.0986 22.0918 14.0501L22.2316 13.7006C25.5873 14.819 27.8245 17.8946 27.8245 21.3896C27.8245 22.0886 27.7546 22.7876 27.5448 23.4167Z" fill="#B8114F"/>
<path d="M11.8847 23.4167C11.7449 22.7876 11.6051 22.0886 11.6051 21.3896C11.6051 18.1043 13.5626 15.0985 16.6387 13.8403L16.7785 14.1898C13.8423 15.3781 11.9547 18.1742 11.9547 21.3896C11.9547 22.0187 12.0246 22.7177 12.2343 23.3468L11.8847 23.4167Z" fill="#B8114F"/>
<path d="M17.7573 39.7733C17.6874 39.7733 17.6874 39.7733 17.6175 39.8432C17.5476 39.9131 17.5476 39.9131 17.5476 39.983C17.5476 40.0529 17.5476 40.1228 17.6175 40.1927C17.6874 40.2626 17.7573 40.2626 17.8273 40.3325L17.8972 40.2626C17.8972 40.1927 17.8972 40.1927 17.8972 40.1228C17.8972 40.0529 17.8972 39.983 17.8273 39.9131C17.8273 39.8432 17.7573 39.7733 17.7573 39.7733Z" fill="#B8114F"/>
<path d="M19.0855 40.3325C18.9457 40.3325 18.8757 40.3325 18.8058 40.4024C18.7359 40.4723 18.666 40.5422 18.666 40.6121C18.666 40.682 18.666 40.682 18.7359 40.7519C18.8058 40.8218 18.8058 40.8218 18.8757 40.8218C18.9457 40.8218 19.0855 40.8218 19.1554 40.7519C19.2253 40.682 19.3651 40.682 19.435 40.5422C19.3651 40.4723 19.2952 40.4024 19.2253 40.3325C19.2253 40.3325 19.1554 40.3325 19.0855 40.3325Z" fill="#B8114F"/>
<path d="M10.8015 38.3336L10.624 38.8639L11.1544 39.0414L11.3319 38.5111L10.8015 38.3336Z" fill="#B8114F"/>
<path d="M16.0795 40.1228C15.9397 40.1228 15.8698 40.1228 15.7999 40.1927C15.7299 40.2626 15.66 40.3325 15.66 40.4024C15.66 40.4723 15.66 40.5422 15.7299 40.5422C15.7999 40.6121 15.7999 40.6121 15.8698 40.6121C15.9397 40.6121 16.0795 40.6121 16.1494 40.6121C16.2193 40.6121 16.3591 40.5422 16.499 40.4723C16.4291 40.4024 16.3591 40.3325 16.2892 40.2626C16.2193 40.1228 16.1494 40.1228 16.0795 40.1228Z" fill="#B8114F"/>
<path d="M31.3263 37.2238L30.816 37.4529L31.0451 37.963L31.5554 37.734L31.3263 37.2238Z" fill="#B8114F"/>
<path d="M29.4326 38.9345C29.4326 39.0044 29.3627 39.0743 29.4326 39.0743C29.4326 39.1442 29.5025 39.2141 29.6423 39.2141C29.7122 39.2141 29.852 39.2141 29.9219 39.2141C30.0618 39.1442 30.1317 39.0743 30.2016 39.0044C30.2715 38.8646 30.2715 38.7947 30.2715 38.6549C30.2715 38.585 30.2016 38.585 30.1317 38.5151C30.0618 38.5151 29.9918 38.5151 29.852 38.5151C29.852 38.585 29.7821 38.585 29.6423 38.7248C29.5025 38.8646 29.4326 38.9345 29.4326 38.9345Z" fill="#B8114F"/>
<path d="M26.8458 38.8647L27.0556 39.7035C27.0556 39.7035 27.0556 39.7734 27.1255 39.7734H27.1954C27.2653 39.7734 27.3352 39.7035 27.4051 39.6336C27.475 39.5637 27.5449 39.4239 27.5449 39.354L27.4051 38.7249L26.8458 38.8647Z" fill="#B8114F"/>
<path d="M22.791 40.1927C22.6512 40.1927 22.5813 40.2626 22.5113 40.3325C22.4414 40.4024 22.3715 40.4723 22.4414 40.5422C22.4414 40.6121 22.5113 40.6121 22.5113 40.682C22.5813 40.682 22.6512 40.7519 22.6512 40.7519C22.7211 40.7519 22.8609 40.682 22.9308 40.682C23.0007 40.6121 23.1405 40.5422 23.2105 40.4723C23.1405 40.4024 23.0706 40.3325 23.0007 40.3325C22.9308 40.1927 22.8609 40.1927 22.791 40.1927Z" fill="#B8114F"/>
<path d="M24.6785 39.354L24.7485 39.7734L24.1892 39.9132C24.1193 39.9132 24.1193 39.9132 24.1193 39.9831V40.053C24.1193 40.053 24.1193 40.1229 24.1892 40.1229C24.1892 40.1229 24.2591 40.1928 24.329 40.1928C24.329 40.1928 24.3989 40.1229 24.4688 40.1229C24.5387 40.1229 24.6086 40.053 24.6785 40.053L24.8883 40.2627H24.6785C24.6086 40.2627 24.5387 40.3326 24.5387 40.3326C24.4688 40.4025 24.4688 40.4025 24.4688 40.4724C24.4688 40.5423 24.4688 40.5423 24.5387 40.5423C24.6086 40.5423 24.6086 40.5423 24.6785 40.5423C24.8184 40.5423 24.9582 40.4724 25.0281 40.3326C25.1679 40.1928 25.2378 40.1229 25.3077 39.9132L25.1679 39.1443L24.6785 39.354Z" fill="#B8114F"/>
<path d="M37.1927 36.2085C37.0529 35.9289 36.913 35.7192 36.8431 35.4396C37.1228 35.2299 37.3325 35.0202 37.6122 34.8105C38.3812 34.1115 37.9617 33.1328 37.5422 32.3639L37.4723 32.2241C37.2626 31.8047 37.3325 31.4552 37.3325 31.1057C37.3325 30.7562 37.4024 30.4766 37.1927 30.2669C36.983 30.0572 36.7033 29.9873 36.144 30.0572C34.9555 30.1271 34.2564 31.1057 34.1166 32.7833C34.0467 32.8532 33.9069 32.8532 33.837 32.9231C33.1379 33.2726 32.229 33.5522 31.46 33.7619C31.3202 33.8318 31.1804 33.8318 31.0405 33.9017C30.9007 33.9716 30.8308 33.9717 30.7609 34.0416C30.2715 34.3212 30.6211 35.5794 30.7609 35.9988C28.6636 37.4667 24.7486 38.4453 20.3442 38.4453C20.2044 38.4453 20.0645 38.4453 19.8548 38.4453C19.715 38.4453 19.5752 38.4453 19.3654 38.4453C14.961 38.4453 11.046 37.5366 8.94871 35.9988C9.08854 35.5095 9.43809 34.3212 8.94871 34.0416C8.8788 33.9717 8.80889 33.9716 8.66907 33.9017C8.52925 33.9017 8.38943 33.8318 8.24961 33.7619C7.41068 33.5522 6.57175 33.2726 5.87264 32.9231C5.80273 32.8532 5.66291 32.8532 5.59299 32.7833C5.45317 31.1057 4.68415 30.1271 3.56558 30.0572C3.00629 30.0572 2.65674 30.1271 2.51692 30.2669C2.30718 30.4766 2.3771 30.7562 2.3771 31.1057C2.3771 31.4552 2.44701 31.8746 2.23727 32.2241L2.16736 32.3639C1.81781 33.1328 1.32843 34.1115 2.09745 34.8105C2.30719 35.0202 2.58683 35.2299 2.86647 35.4396C2.72665 35.7192 2.58683 35.9988 2.51692 36.2085C2.30718 36.6279 2.02754 37.1172 1.95763 37.6065C1.88772 37.8162 1.81781 39.354 2.09745 39.4938C2.16736 39.4938 2.23727 39.4938 2.3771 39.354C2.72665 38.655 3.28594 37.956 3.63549 37.956C3.7054 37.956 3.77531 37.956 3.91513 38.0958C3.98504 38.2356 4.05496 38.4453 4.12487 38.5851C4.19478 38.8647 4.26469 38.9346 4.40451 38.9346C4.54433 38.9346 4.54433 38.7948 4.54433 38.655C4.54433 37.8861 4.75406 37.1871 4.9638 36.4881C5.52308 36.6978 6.01246 36.8376 6.57175 36.9774C6.57175 36.9774 6.57175 36.9774 6.64166 36.9774L6.57175 37.0473C6.43192 37.1871 6.15228 37.4667 6.15228 37.4667C6.01246 37.6764 5.94255 37.8861 5.94255 38.0958C5.94255 38.3055 6.08237 38.5152 6.2921 38.5851C9.29827 40.752 14.2619 42.0102 19.5752 42.0102C19.715 42.0102 19.8548 42.0102 20.0645 42.0102C20.2044 42.0102 20.4141 42.0102 20.5539 42.0102C25.8671 42.0102 30.7609 40.752 33.837 38.5851C34.0467 38.4453 34.1166 38.2356 34.1865 38.0958C34.1865 37.8861 34.1166 37.6764 33.9768 37.4667C33.9768 37.4667 33.7671 37.257 33.5573 37.0473L33.4874 36.9774C33.4874 36.9774 33.4874 36.9774 33.5573 36.9774C34.1166 36.8376 34.606 36.6978 35.1653 36.4881C35.375 37.1871 35.5847 37.8861 35.5847 38.655C35.5847 38.7948 35.5847 38.9346 35.7246 38.9346C35.8644 38.9346 35.9343 38.8647 36.0042 38.5851C36.0741 38.4453 36.144 38.2356 36.2139 38.0958C36.2839 37.956 36.4237 37.956 36.4936 37.956C36.8431 37.956 37.4024 38.655 37.752 39.354C37.8219 39.5637 37.9617 39.5637 38.0316 39.4938C38.3812 39.354 38.2414 37.8162 38.1714 37.6065C37.6821 37.1172 37.4723 36.6978 37.1927 36.2085ZM3.98504 38.3055C3.91513 38.1657 3.84522 38.0958 3.84522 37.956C3.7054 37.6764 3.49567 37.6764 3.35585 37.6764C2.79656 37.6764 2.23727 38.5152 1.95763 39.0744C1.88772 38.7249 1.88772 37.8861 1.95763 37.6065C2.09745 37.1172 2.30718 36.6978 2.51692 36.2784C2.65674 35.9988 2.79656 35.7891 2.86647 35.5095C3.35585 35.859 3.84522 36.1386 4.47442 36.3483C4.19478 37.0473 3.98504 37.6764 3.98504 38.3055ZM3.00629 30.4067C3.00629 30.3368 3.00629 30.2669 3.28594 30.2669C4.54433 30.3368 4.9638 31.5251 5.10362 32.5736C3.7054 31.8047 2.93638 30.8261 3.00629 30.4067ZM8.66907 35.3697C8.66907 35.4396 8.59916 35.5794 8.59916 35.6493L8.52925 35.5794C8.24961 35.3697 8.10978 35.2299 8.17969 35.0202C8.24961 34.8804 8.31952 34.8105 8.45934 34.8105C8.52925 34.8105 8.59916 34.8105 8.66907 34.8105C8.73898 34.8105 8.80889 34.8105 8.80889 34.8105L8.66907 35.3697ZM10.1372 39.0744C10.0673 38.9346 10.0673 38.7948 10.0673 38.7249C10.0673 38.7249 10.0673 38.7249 10.1372 38.7249H10.2071L10.3469 38.7948L10.5567 38.2356L10.277 38.1657L9.99738 38.0259L9.36818 39.4938L9.15845 39.2142L9.36818 38.7249H9.29827H9.22836C9.22836 38.7249 9.15845 38.7249 9.15845 38.655L9.08854 38.5851C9.08854 38.655 9.08854 38.7249 9.01863 38.7249C8.94871 38.7948 8.8788 38.8647 8.80889 38.9346C8.73898 39.0045 8.59916 39.0045 8.52925 38.9346C8.38943 38.8647 8.24961 38.7249 8.17969 38.5152C8.10978 38.3055 8.03987 38.0958 8.10978 37.8162H8.24961C8.24961 38.0259 8.24961 38.1657 8.31952 38.3055C8.38943 38.4453 8.45934 38.5851 8.59916 38.5851C8.66907 38.5851 8.73898 38.5851 8.80889 38.5851C8.8788 38.5851 8.94871 38.5152 8.94871 38.4453C8.94871 38.4453 8.94871 38.3754 8.94871 38.3055C8.94871 38.2356 8.94871 38.2356 8.8788 38.1657C8.80889 38.1657 8.66907 38.1657 8.52925 38.1657V37.8861C8.66907 37.956 8.73898 37.956 8.8788 37.956C9.01862 37.956 9.08854 37.8861 9.08854 37.8162C9.08854 37.7463 9.08854 37.7463 9.08854 37.6764C9.08854 37.6065 9.01863 37.6065 9.01863 37.6065C8.94871 37.5366 8.80889 37.5366 8.73898 37.5366C8.66907 37.5366 8.59916 37.5366 8.45934 37.6065L8.38943 37.3269C8.45934 37.3269 8.52925 37.257 8.66907 37.257C8.73898 37.257 8.8788 37.257 8.94871 37.3269C9.01862 37.3968 9.08854 37.4667 9.15845 37.6764C9.22836 37.8861 9.22836 37.956 9.22836 38.0958C9.22836 38.1657 9.15845 38.1657 9.15845 38.2356C9.08854 38.2356 9.08854 38.3055 9.01863 38.3055C9.01863 38.3754 9.08854 38.3754 9.08854 38.5152C9.08854 38.5152 9.15845 38.5851 9.22836 38.5851C9.29827 38.5851 9.36818 38.5851 9.36818 38.5851C9.43809 38.5851 9.508 38.5851 9.508 38.5152L9.71773 37.956L9.508 37.8861L9.36818 37.5366L10.2071 37.8861L11.885 38.4453L13.4929 38.8647L13.5628 39.1443L13.2832 39.0744L12.8637 40.6122L12.654 40.3326L12.8637 39.4938L12.3044 39.354C12.2345 39.354 12.2345 39.354 12.1646 39.354C12.0947 39.4239 12.0947 39.4938 12.0947 39.5637C12.0947 39.7035 12.0947 39.7734 12.0947 39.9132C12.0947 40.053 12.1646 40.1928 12.2345 40.2627L12.0947 40.3326C11.9549 40.1229 11.885 39.9132 11.8151 39.7734C11.7451 39.6336 11.7451 39.4938 11.7451 39.354C11.7451 39.2841 11.8151 39.1443 11.885 39.1443C11.9549 39.0744 12.0248 39.0744 12.1646 39.0744L12.8637 39.2841L12.9336 38.9346L11.885 38.655H11.8151L11.6053 38.5851L11.116 39.9132H11.1859L11.2558 40.1229L10.9761 40.053C10.9062 40.053 10.8363 40.053 10.7664 40.053C10.6965 40.1229 10.6266 40.1229 10.6266 40.2627C10.6266 40.3326 10.6266 40.3326 10.6266 40.4025C10.6266 40.4724 10.6965 40.4724 10.7664 40.4724C10.8363 40.4724 10.9062 40.4724 10.9761 40.4724C11.046 40.4724 11.116 40.4724 11.1859 40.4025L11.2558 40.6821C11.1859 40.6821 11.1159 40.752 11.046 40.752C10.9761 40.752 10.8363 40.752 10.7664 40.6821C10.6965 40.6821 10.5567 40.5423 10.5567 40.4025C10.4868 40.2627 10.4868 40.1229 10.4868 39.9831C10.4868 39.9132 10.5567 39.8433 10.6266 39.7734C10.6965 39.7734 10.7664 39.7734 10.7664 39.7734L10.6965 39.7035L10.9062 39.1443L10.4168 39.0045L10.3469 39.1443C10.3469 39.2142 10.3469 39.2142 10.277 39.2142H10.2071L10.1372 39.0744ZM19.7849 39.8433V41.451L19.5052 41.2413V40.8918C19.4353 40.9617 19.3654 40.9617 19.2955 41.0316C19.1557 41.0316 19.0858 41.0316 19.0159 41.0316C18.8761 41.0316 18.7362 40.9617 18.5964 40.8219C18.4566 40.6821 18.3867 40.5423 18.3867 40.4724C18.3867 40.3326 18.4566 40.2627 18.5265 40.1928C18.5964 40.1229 18.7362 40.053 18.8761 40.053C19.0159 40.053 19.0858 40.1229 19.2256 40.1229C19.3654 40.1928 19.4353 40.2627 19.5052 40.4025V39.7734H18.3168H17.8973C17.9672 39.8433 18.0371 39.9132 18.107 39.9831C18.1769 40.053 18.1769 40.1928 18.1769 40.2627C18.1769 40.4025 18.107 40.4724 18.0371 40.6122C17.9672 40.752 17.8274 40.8219 17.6876 40.8918L18.0371 41.3811L17.8973 41.5209L17.6177 40.9617C17.6177 40.9617 17.6177 40.9617 17.5477 40.9617H17.4778C17.4079 40.9617 17.338 40.8918 17.2681 40.8219C17.1982 40.752 17.1982 40.6821 17.1982 40.6122C17.1982 40.5423 17.1982 40.5423 17.2681 40.4724C17.2681 40.4724 17.338 40.4025 17.4079 40.4025C17.4778 40.4025 17.4778 40.4025 17.5477 40.4724C17.6177 40.4724 17.6177 40.5423 17.6177 40.6122C17.6876 40.6122 17.6876 40.5423 17.7575 40.5423C17.8274 40.4724 17.8274 40.4724 17.8973 40.4025C17.6876 40.4025 17.5477 40.3326 17.4778 40.1928C17.338 40.1229 17.338 39.9831 17.338 39.8433V39.7734L17.4079 39.7035H17.1982L16.8486 39.6336L16.6389 41.2413L16.3593 41.0316L16.4292 40.6821C16.3593 40.752 16.2894 40.752 16.2194 40.752C16.1495 40.752 16.0796 40.752 16.0097 40.752C15.8699 40.752 15.7301 40.6821 15.5902 40.5423C15.4504 40.4025 15.3805 40.2627 15.4504 40.1229C15.4504 40.053 15.5203 39.9132 15.5902 39.8433C15.6602 39.7734 15.8 39.7734 15.9398 39.7734C16.0796 39.7734 16.1495 39.8433 16.2194 39.9132C16.2894 39.9831 16.4292 40.053 16.4292 40.1928L16.4991 39.5637L15.3106 39.4239L15.1009 39.354L14.8911 41.0316L14.6115 40.8219L14.8911 39.4239L14.6115 39.354L14.4717 39.0744L15.031 39.1443C15.031 39.0744 14.961 39.0045 14.961 38.9346C14.961 38.8647 14.961 38.7948 14.961 38.7948C14.961 38.655 15.1009 38.5152 15.1708 38.4453C15.2407 38.3754 15.4504 38.3055 15.5902 38.3754C15.7301 38.3754 15.8699 38.5152 16.0097 38.655C16.1495 38.7948 16.2894 39.0744 16.4292 39.2841L16.3593 39.354C16.2894 39.1443 16.1495 39.0045 16.0097 38.8647C15.8699 38.7249 15.7301 38.655 15.6602 38.655C15.5203 38.655 15.4504 38.655 15.3106 38.7249C15.2407 38.7948 15.1708 38.8647 15.1009 39.0045C15.1009 39.0744 15.1009 39.1443 15.1009 39.2142L15.3106 39.2841L16.9885 39.4938L18.1769 39.5637H19.8548L19.9946 39.7734L19.7849 39.8433ZM30.8308 34.8804C30.9007 34.8804 30.9706 34.8804 31.0405 34.8804C31.1804 34.8804 31.2503 34.9503 31.3202 35.0901C31.3901 35.2998 31.2503 35.4396 30.9706 35.6493L30.9007 35.7192C30.9007 35.6493 30.8308 35.5095 30.8308 35.4396C30.7609 35.2998 30.7609 35.0901 30.691 34.9503C30.7609 34.8804 30.7609 34.8804 30.8308 34.8804ZM31.1804 38.3754C31.1804 38.4453 31.1804 38.4453 31.1804 38.5152C31.1804 38.5851 31.1804 38.5851 31.1104 38.5851C31.0405 38.655 30.9007 38.5851 30.7609 38.5152C30.6211 38.4453 30.4813 38.3754 30.4813 38.3055V38.2356L30.5512 38.1657L30.691 38.0958L30.4813 37.5366L30.2016 37.6764H30.1317L29.6423 37.8861C29.7122 37.956 29.7821 37.956 29.8521 38.0259C29.922 38.0958 29.922 38.0958 29.922 38.1657C29.922 38.2356 29.922 38.2356 29.922 38.3055C29.922 38.3754 29.8521 38.4453 29.8521 38.4453C29.9919 38.4453 30.1317 38.4453 30.2715 38.4453C30.4113 38.5152 30.4813 38.5851 30.4813 38.655C30.5512 38.7948 30.5512 38.9346 30.4113 39.0744C30.3414 39.2142 30.2016 39.354 30.0618 39.354C29.922 39.4239 29.7122 39.354 29.5025 39.2841C29.2928 39.1443 29.1529 39.0744 29.083 38.8647C29.083 38.7948 29.083 38.7249 29.083 38.655C29.1529 38.5851 29.2229 38.5152 29.2928 38.4453C29.3627 38.3754 29.4326 38.3055 29.5025 38.2356C29.5724 38.1657 29.5724 38.0958 29.5025 38.0259C29.5025 37.956 29.4326 37.956 29.4326 37.8861L29.3627 37.8162L28.7335 38.2356L28.5237 38.3055L29.0131 39.8433L28.6636 39.7734L28.1742 38.4453L27.9645 38.5152L27.6848 38.5851L28.1043 40.1229L27.7547 40.053V39.6336C27.7547 39.7035 27.6848 39.7035 27.6848 39.7734C27.6149 39.7734 27.6149 39.8433 27.545 39.8433C27.4052 39.9132 27.2654 39.8433 27.1255 39.7734C26.9158 39.7734 26.776 39.6336 26.776 39.5637L26.5662 38.9346L26.3565 39.0045L26.1468 39.0744L26.4963 40.6122L26.1468 40.4724L25.7972 39.0744L25.5875 39.1443L25.3778 39.2142L25.6574 40.8219L25.3778 40.6821L25.3079 40.4025C25.2379 40.4724 25.168 40.5423 25.0981 40.6122C25.0282 40.6821 24.8884 40.6821 24.7486 40.752C24.6087 40.752 24.4689 40.752 24.3291 40.6821C24.1893 40.6122 24.1194 40.5423 24.0495 40.4025V40.3326C24.0495 40.3326 24.0495 40.2627 24.1194 40.2627C24.0495 40.2627 23.9096 40.1928 23.9096 40.1229C23.8397 40.053 23.8397 39.9831 23.7698 39.9132C23.7698 39.8433 23.7698 39.7734 23.8397 39.7035C23.9795 39.7035 23.9795 39.6336 24.1194 39.6336L24.4689 39.5637V39.354L23.6999 39.4938H23.4902L23.6999 41.1015L23.2804 41.0316L23.2105 40.6821C23.1406 40.752 23.0707 40.8219 23.0008 40.8219C22.9309 40.8918 22.861 40.8918 22.7911 40.8918C22.6512 40.8918 22.5114 40.8918 22.3716 40.752C22.2318 40.6122 22.1619 40.5423 22.092 40.4025C22.092 40.3326 22.092 40.1928 22.1619 40.1229C22.2318 40.053 22.3716 39.9831 22.4415 39.9831C22.5813 39.9831 22.6512 39.9831 22.7911 40.053C22.9309 40.1229 23.0008 40.1928 23.0707 40.2627L23.0008 39.6336L21.8123 39.7734H21.6026L21.7424 41.3811L21.4628 41.2413L21.3928 39.8433H21.1132L20.9035 39.6336L21.4628 39.5637C21.3928 39.4938 21.3928 39.4239 21.3229 39.354C21.3229 39.2841 21.253 39.2841 21.253 39.2142C21.253 39.0744 21.3229 38.9346 21.3928 38.7948C21.5327 38.655 21.6026 38.5851 21.8123 38.5851C21.9521 38.5851 22.092 38.655 22.3017 38.7948C22.5114 38.9346 22.6512 39.0744 22.861 39.354L22.7911 39.4239C22.6512 39.2841 22.5114 39.1443 22.3716 39.0045C22.2318 38.9346 22.092 38.8647 21.9521 38.8647C21.8123 38.8647 21.7424 38.9346 21.6026 39.0045C21.5327 39.0744 21.4628 39.2142 21.4628 39.354C21.4628 39.4239 21.4628 39.4938 21.4628 39.5637H21.6725L23.3503 39.354L25.2379 39.0045L26.0769 38.7948L27.4751 38.3754L28.0344 38.1657C27.9645 38.0259 27.8246 37.8861 27.6848 37.8162C27.545 37.7463 27.4751 37.7463 27.3353 37.7463C27.2654 37.7463 27.1954 37.8162 27.1954 37.8861C27.1954 37.956 27.1954 38.0259 27.1954 38.1657C27.1954 38.1657 27.1954 38.2356 27.2654 38.3055C27.2654 38.3754 27.3353 38.3754 27.3353 38.3754L27.2654 38.4453C27.1954 38.3754 27.1255 38.3754 27.1255 38.3055C27.0556 38.2356 27.0556 38.1657 26.9857 38.0958C26.9158 37.956 26.9857 37.8861 26.9857 37.7463C27.0556 37.6065 27.1255 37.5366 27.1954 37.5366C27.3353 37.4667 27.4751 37.5366 27.6848 37.6065C27.8945 37.7463 28.0344 37.8861 28.1043 38.0958L28.314 38.0259L29.7821 37.4667L31.3901 36.7677L31.5998 36.9075L31.3202 37.0473L31.9494 38.5152L31.5998 38.4453L31.3202 37.8861L30.8308 38.0958L31.1804 38.3754ZM32.7883 38.9346L32.2989 38.7948C32.2989 38.7948 32.229 38.7948 32.1591 38.7948H32.0892C32.0892 38.7948 32.0193 38.7948 32.0193 38.8647L31.9494 38.9346L31.7396 38.7948C31.7396 38.7948 31.8096 38.7249 31.8096 38.655L31.8795 38.5851H31.9494H32.0193L32.7883 38.7948V38.9346ZM34.3263 32.5736C34.4662 31.5251 34.8856 30.3368 36.144 30.2669C36.4237 30.2669 36.4237 30.4067 36.4237 30.4067C36.4936 30.8261 35.7246 31.8047 34.3263 32.5736ZM37.5422 39.1443C37.2626 38.5851 36.6334 37.7463 36.144 37.7463C36.0042 37.7463 35.7945 37.7463 35.6547 38.0259C35.5847 38.0958 35.5148 38.2356 35.5148 38.3754C35.4449 37.6764 35.2352 37.0473 35.0255 36.4881C35.5847 36.2784 36.144 35.9988 36.6334 35.6493C36.7732 35.9289 36.8431 36.1386 36.983 36.4182C37.1927 36.8376 37.4024 37.3269 37.5422 37.7463C37.6122 37.956 37.6122 38.7948 37.5422 39.1443Z" fill="#B8114F"/>
</svg>
