<svg width="75" height="93" viewBox="0 0 75 93" fill="none" xmlns="http://www.w3.org/2000/svg">
<path d="M45.7063 44.8718L44.6495 45.2681C45.0458 45.5322 45.4421 45.6643 46.1026 45.6643H46.2347C46.3668 45.6643 46.4989 45.6643 46.4989 45.6643H62.2187C62.3508 45.2681 62.615 44.7397 62.7471 44.3435H47.1594C46.631 44.6077 46.2347 44.7397 45.7063 44.8718Z" fill="#B8114F"/>
<path d="M28.269 45.6643C29.0616 45.6643 29.59 45.5322 29.8542 45.2681L28.7974 44.8718C28.269 44.7397 27.8727 44.4756 27.4764 44.3435H11.6245C11.7566 44.7397 11.8887 45.2681 12.1529 45.6643H28.0048C28.0048 45.6643 28.1369 45.6643 28.269 45.6643Z" fill="#B8114F"/>
<path d="M46.6309 46.8533C45.9704 47.2495 44.7815 47.6458 43.4605 47.6458C43.3284 47.6458 43.1964 47.6458 43.1964 47.6458C42.8001 47.9099 41.8754 48.1741 41.0828 48.1741H61.1618C61.426 47.7778 61.5581 47.2495 61.8223 46.8533H46.6309Z" fill="#B8114F"/>
<path d="M31.3076 47.5133C31.1755 47.5133 31.0434 47.5133 31.0434 47.5133C29.8545 47.5133 28.5335 47.1171 28.0051 46.7208H12.5496C12.8138 47.1171 12.9459 47.6454 13.2101 48.0416H33.4212C32.6286 48.0416 31.7039 47.7775 31.3076 47.5133Z" fill="#B8114F"/>
<path d="M7.26514 35.8906C6.60464 36.0227 6.07624 36.4189 5.67995 37.0793C4.35896 39.1926 5.28365 43.2871 6.07624 46.7212C6.34044 47.9099 6.60464 49.0986 6.73674 49.8911C6.73674 50.0231 6.73674 50.1552 6.73674 50.2873C6.86884 51.3439 7.00094 52.5327 6.86884 53.1931L6.73674 53.4572H7.00094C7.79353 53.5893 8.71822 54.3818 9.51082 55.0422C9.64292 55.1743 9.77502 55.1743 9.90712 55.3063C10.5676 55.8347 11.4923 56.6271 12.2849 57.4196C14.7948 59.797 17.8331 62.5707 20.2108 62.5707H20.3429C21.0034 62.5707 21.6639 62.3066 22.1923 61.7782C22.0602 62.4386 22.0602 63.099 22.3244 63.7594C23.3812 66.0048 27.6084 67.1935 30.9109 68.1181C32.0997 68.5143 33.1565 68.7785 33.9491 69.1747C34.0812 69.1747 34.2133 69.3068 34.3454 69.3068C35.2701 69.703 36.459 70.0992 36.9874 70.7596L37.1195 70.8917L37.2516 70.7596C37.78 70.2313 38.8368 69.703 39.8936 69.3068C40.0257 69.3068 40.1578 69.1747 40.2899 69.1747C41.0825 68.9105 42.1393 68.5143 43.3282 68.1181C46.6306 67.1935 50.7257 65.8727 51.9146 63.7594C52.1788 63.099 52.3109 62.4386 52.0467 61.7782C52.5751 62.3066 53.1035 62.5707 53.8961 62.5707H54.0282C56.406 62.5707 59.4442 59.665 61.9541 57.4196C62.8788 56.6271 63.6714 55.8347 64.3319 55.3063C64.464 55.1743 64.5961 55.1743 64.7282 55.0422C65.5208 54.3818 66.4455 53.7214 67.2381 53.4572H67.5023L67.3702 53.1931C67.106 52.4006 67.3702 51.3439 67.5023 50.2873C67.5023 50.1552 67.5023 50.0231 67.5023 49.8911C67.6344 49.0986 67.8986 47.9099 68.1628 46.7212C68.9554 43.4192 69.8801 39.1926 68.5591 37.0793C68.1628 36.551 67.6344 36.1548 66.9739 35.8906C67.6344 35.7585 68.1628 35.3623 68.5591 34.7019C69.8801 32.5886 68.9554 28.4942 68.1628 25.0601C67.8986 23.8714 67.6344 22.6827 67.5023 21.8902C67.5023 21.7581 67.5023 21.626 67.5023 21.4939C67.3702 20.4373 67.2381 19.2486 67.3702 18.5882L67.5023 18.324H67.2381C66.4455 18.192 65.5208 17.3995 64.7282 16.7391C64.5961 16.607 64.464 16.607 64.3319 16.4749C63.6714 15.9466 62.7467 15.1541 61.9541 14.3616C59.4442 11.9842 56.406 9.21054 54.0282 9.21054H53.8961C53.2356 9.21054 52.5751 9.4747 52.0467 10.003C52.1788 9.34262 52.1788 8.68223 51.9146 8.02183C50.8578 5.77647 46.6306 4.58776 43.3282 3.6632C42.1393 3.26696 41.0825 3.0028 40.2899 2.60656C40.1578 2.60656 40.0257 2.47448 39.8936 2.47448C38.9689 2.07824 37.78 1.682 37.2516 1.02161L37.1195 0.889526L36.9874 1.02161C36.459 1.54992 35.4022 2.07824 34.3454 2.47448C34.2133 2.47448 34.0812 2.60656 33.9491 2.60656C33.1565 2.87072 32.0997 3.26696 30.9109 3.6632C27.6084 4.58776 23.5133 5.90855 22.3244 8.02183C22.0602 8.68223 21.9281 9.34262 22.1923 10.003C21.6639 9.4747 21.1355 9.21054 20.3429 9.21054C17.8331 9.07846 14.7948 11.9842 12.2849 14.3616C11.3602 15.1541 10.5676 15.9466 9.90712 16.4749C9.77502 16.607 9.64292 16.607 9.51082 16.7391C8.71822 17.3995 7.79353 18.0599 7.00094 18.324H6.73674L6.86884 18.5882C7.13304 19.3807 6.86884 20.4373 6.73674 21.4939C6.73674 21.626 6.73674 21.7581 6.73674 21.8902C6.60464 22.6827 6.34044 23.8714 6.07624 25.0601C5.28365 28.3621 4.35896 32.5886 5.67995 34.7019C5.94415 35.3623 6.60464 35.6265 7.26514 35.8906ZM37.2516 6.43687C53.4998 6.43687 66.5776 19.6448 66.5776 35.8906C66.5776 52.1364 53.3677 65.3444 37.2516 65.3444C21.0034 65.3444 7.92563 52.1364 7.92563 35.8906C7.79353 19.6448 21.0034 6.43687 37.2516 6.43687Z" fill="#B8114F"/>
<path d="M26.5518 60.5891H47.9518C48.8765 60.1929 49.8012 59.7966 50.5938 59.2683H23.9098C24.7024 59.6646 25.6271 60.1929 26.5518 60.5891Z" fill="#B8114F"/>
<path d="M37.2519 62.7029C39.8939 62.7029 42.4038 62.3066 44.7816 61.6462H29.7223C32.1001 62.4387 34.61 62.7029 37.2519 62.7029Z" fill="#B8114F"/>
<path d="M43.7246 35.8905C43.5925 35.7584 42.932 35.6263 42.2715 35.6263C42.0073 35.6263 41.7431 35.6263 41.3468 35.7584C40.29 36.0226 39.4974 37.0792 39.4974 37.6075C39.7616 38.0038 40.1579 38.4 40.5542 38.7963C41.3468 39.5887 42.1394 40.3812 42.1394 41.4378C42.1394 41.9662 42.1394 42.3624 41.8752 42.8907C41.4789 43.8153 40.6863 44.3436 39.8937 44.7398C42.1394 44.6078 43.8567 44.0794 44.6493 43.287C45.1777 42.7586 45.4419 41.9662 45.4419 41.0416C45.4419 40.3812 44.9135 39.7208 44.5172 39.1925C43.9888 37.8717 43.3283 36.9471 43.7246 35.8905Z" fill="#B8114F"/>
<path d="M46.763 36.4188C46.3667 36.4188 45.8383 36.4188 45.3099 36.683C44.6494 36.9471 44.3852 37.0792 44.2531 37.3434C44.3852 37.7396 44.6494 38.1359 44.9136 38.4C45.442 39.0604 45.9704 39.7208 45.9704 40.5133C46.1025 41.5699 45.7062 42.4945 45.0457 43.1549C44.2531 43.9474 42.9321 44.4757 41.0828 44.7398C41.2149 44.7398 41.347 44.7398 41.4791 44.7398C44.121 44.7398 46.3667 44.0794 47.5556 43.0228C48.3482 42.3624 48.7445 41.4378 48.6124 40.5133C48.6124 39.8529 48.2161 39.3246 47.8198 38.9283C47.2914 38.2679 46.763 37.4755 47.4235 36.5509C47.5556 36.5509 47.2914 36.4188 46.763 36.4188Z" fill="#B8114F"/>
<path d="M41.6114 42.4947C41.7435 42.0985 41.8756 41.7022 41.7435 41.306C41.7435 40.3815 41.083 39.7211 40.2904 39.0607C40.0262 38.7965 38.7052 37.4757 38.3089 36.4191V36.1549C38.0447 35.3624 37.7805 34.8341 37.2521 34.8341C36.7237 34.8341 36.4595 35.3624 36.1953 36.1549C36.1953 36.1549 35.2706 37.7399 34.0817 39.0607C33.4212 39.7211 32.7607 40.3815 32.7607 41.306C32.7607 41.7022 32.7607 42.0985 32.8928 42.4947C33.4212 43.8155 35.4027 44.4759 37.2521 44.4759H37.3842H37.5163C39.1015 44.4759 41.083 43.8155 41.6114 42.4947Z" fill="#B8114F"/>
<path d="M28.7974 40.6456C28.7974 41.5702 28.9295 42.3626 29.59 42.891C30.5146 43.8155 32.0998 44.3438 34.3455 44.3438C33.5529 44.0797 32.7603 43.4193 32.364 42.4947C32.2319 42.0985 32.0998 41.5702 32.0998 41.0419C32.0998 39.9852 32.8924 39.1927 33.685 38.4003C34.0813 38.004 34.4776 37.6078 34.7418 37.2115C34.7418 36.6832 33.9492 35.6266 32.8924 35.3624C32.6282 35.2303 32.364 35.2303 31.9677 35.2303C31.3072 35.2303 30.7788 35.3624 30.5146 35.4945C30.9109 36.5511 30.2505 37.4757 29.59 38.2682C29.3258 39.3248 28.9295 39.9852 28.7974 40.6456Z" fill="#B8114F"/>
<path d="M25.6272 40.6455C25.6272 41.5701 25.8914 42.3625 26.684 43.155C28.005 44.2116 30.1186 44.872 32.7605 44.872C32.8926 44.872 33.0247 44.872 33.1568 44.872C31.3075 44.6079 29.9865 44.0796 29.1939 43.2871C28.5334 42.6267 28.2692 41.7021 28.2692 40.6455C28.2692 39.853 28.7976 39.1926 29.326 38.5322C29.5902 38.136 29.8544 37.8718 29.9865 37.4756C29.8544 37.2114 29.4581 36.9473 28.9297 36.8152C28.4013 36.6831 27.8729 36.551 27.4766 36.551C27.0803 36.551 26.684 36.551 26.5519 36.6831C27.2124 37.7397 26.5519 38.4001 26.1556 39.0605C26.0235 39.4568 25.6272 39.9851 25.6272 40.6455Z" fill="#B8114F"/>
<path d="M31.8357 45.9285C31.9678 45.9285 31.9678 45.7964 32.0999 45.7964C32.232 45.6643 32.3641 45.5322 32.4962 45.4001L32.6283 45.2681C32.0999 45.2681 31.5715 45.2681 31.0431 45.136H30.911L30.7789 45.2681C30.3826 45.6643 29.7221 46.1926 28.269 46.1926C28.7974 46.4568 29.8542 46.853 30.911 46.853C31.0431 46.853 31.0431 46.853 31.0431 46.7209C31.0431 46.5889 31.0431 46.5889 31.0431 46.5889C31.1752 46.3247 31.5715 46.1926 31.8357 45.9285Z" fill="#B8114F"/>
<path d="M33.5531 47.5139C33.8173 47.5139 34.0815 47.5139 34.3457 47.3818C34.4778 47.3818 34.6099 47.2497 34.6099 47.2497L34.4778 47.1177C34.2136 46.5893 33.9494 45.7969 34.6099 45.2686C34.4778 45.2686 34.2136 45.2686 34.0815 45.2686C33.2889 45.4006 33.0247 45.5327 32.8926 45.7969C32.7605 45.929 32.6284 46.061 32.4963 46.1931C32.3642 46.1931 32.3642 46.3252 32.2321 46.3252C31.9679 46.4573 31.7037 46.7214 31.7037 46.8535V46.9856C31.8358 47.2497 32.7605 47.5139 33.5531 47.5139Z" fill="#B8114F"/>
<path d="M37.2519 45.0042C35.9309 45.0042 35.2704 45.1362 34.8741 45.5325C34.4778 45.9287 34.6099 46.457 34.8741 46.8533C34.8741 46.9853 35.0062 46.9853 35.0062 47.1174C35.1383 47.2495 35.4025 47.3816 35.6667 47.3816C36.1951 47.5137 36.7235 47.7778 37.1198 48.7024C37.5161 47.7778 38.0445 47.6457 38.5729 47.3816C38.8371 47.2495 38.9692 47.2495 39.2334 47.1174C39.3655 47.1174 39.3655 46.9853 39.3655 46.8533C39.6297 46.457 39.7618 45.9287 39.3655 45.5325C39.2334 45.1362 38.4408 45.0042 37.2519 45.0042Z" fill="#B8114F"/>
<path d="M39.894 47.2493C39.894 47.3813 40.0261 47.3813 40.1582 47.3813C40.4224 47.3813 40.5545 47.5134 40.9508 47.5134C41.7434 47.5134 42.6681 47.2493 42.9323 46.853V46.7209C42.9323 46.5889 42.6681 46.4568 42.4039 46.1926C42.2718 46.1926 42.2718 46.0605 42.1397 46.0605C41.8755 45.9285 41.7434 45.7964 41.7434 45.6643C41.4792 45.4001 41.3471 45.2681 40.5545 45.136C40.4224 45.136 40.1582 45.136 40.0261 45.136C40.5545 45.7964 40.4224 46.5889 40.1582 46.9851C39.894 47.1172 39.894 47.2493 39.894 47.2493Z" fill="#B8114F"/>
<path d="M43.4606 46.9856C44.6495 46.9856 45.7063 46.5893 46.1025 46.3252C44.7816 46.3252 43.989 45.7969 43.5927 45.4006L43.4606 45.2686C43.4606 45.2686 43.4606 45.2686 43.3285 45.2686C42.8001 45.2686 42.2717 45.4006 41.7433 45.4006L41.8754 45.5327C42.0075 45.6648 42.1396 45.7969 42.2717 45.929C42.4038 45.929 42.4038 46.061 42.5359 46.061C42.9322 46.3252 43.1964 46.4573 43.3285 46.8535C43.3285 46.7214 43.3285 46.8535 43.4606 46.9856C43.3285 46.9856 43.3285 46.8535 43.4606 46.9856Z" fill="#B8114F"/>
<path d="M31.5716 55.5706C31.7037 55.5706 33.5531 56.231 33.9494 56.231C34.6099 56.3631 35.1383 56.231 35.6667 55.8348C35.6667 55.8348 35.7988 55.8348 35.7988 55.7027C35.9309 55.5706 35.9309 55.4385 36.063 55.4385C36.3271 54.7781 35.6667 53.9857 33.8173 53.5894C31.4395 53.0611 28.0049 52.929 25.495 53.7215C24.0419 54.1177 23.5135 54.7781 23.5135 55.3065C23.5135 55.4385 23.5136 55.5706 23.6456 55.8348C23.7777 56.0989 24.0419 56.3631 24.4382 56.6272C24.5703 56.7593 24.8345 56.8914 25.0987 56.8914C25.495 57.0235 26.0234 57.1556 26.4197 57.2876C27.8728 57.5518 29.458 57.6839 30.9111 57.5518C33.0247 57.4197 32.8926 56.7593 32.3642 56.4952C32.2321 56.4952 31.7037 56.0989 31.3074 55.8348C31.0432 55.7027 31.3074 55.4385 31.5716 55.5706Z" fill="#B8114F"/>
<path d="M33.1569 56.6268C33.1569 56.6268 33.1569 56.7589 33.1569 56.6268C33.1569 56.891 33.1569 57.0231 33.1569 57.1551C33.0248 57.8155 32.1001 58.0797 31.3075 58.0797H52.4433C53.1038 57.6835 53.6322 57.1551 54.1606 56.7589H33.6853C33.5532 56.7589 33.289 56.6268 33.1569 56.6268Z" fill="#B8114F"/>
<path d="M26.2877 57.8157C25.7593 57.6836 25.2309 57.5515 24.8346 57.4194C24.5704 57.2874 24.3062 57.1553 24.1742 57.0232C24.0421 56.8911 23.91 56.8911 23.7779 56.759H20.2112C20.7396 57.2874 21.4001 57.6836 21.9285 58.0798H28.2692C27.6087 57.9477 26.9482 57.9478 26.2877 57.8157Z" fill="#B8114F"/>
<path d="M41.4789 50.5515C41.3468 50.2874 41.4789 50.0232 41.611 49.759C41.7431 49.627 41.8752 49.4949 42.0073 49.4949C42.1394 49.3628 42.2715 49.3628 42.5357 49.2307H13.8702C14.1344 49.627 14.3986 50.1553 14.6628 50.5515H41.4789C41.611 50.5515 41.611 50.5515 41.4789 50.5515Z" fill="#B8114F"/>
<path d="M51.6509 49.7589C52.7077 50.0231 53.5003 50.2872 54.1608 50.6835H59.8411C60.1053 50.2872 60.3695 49.7589 60.6337 49.3627H49.5374C50.1978 49.3627 50.9904 49.4947 51.6509 49.7589Z" fill="#B8114F"/>
<path d="M55.0851 52.0044C55.0851 52.2686 54.953 52.5327 54.6888 52.7969L54.5567 52.929C54.4246 53.061 54.4246 53.061 54.2925 53.1931H57.9912C58.3875 52.7969 58.6517 52.2686 59.048 51.8723H55.2172C55.0851 51.8723 55.0851 51.8723 55.0851 52.0044Z" fill="#B8114F"/>
<path d="M25.4951 53.0608C26.684 52.7966 28.005 52.6645 29.5901 52.6645C31.0432 52.6645 32.6284 52.7966 33.8173 53.0608H38.9692C38.8371 52.7966 38.8371 52.5325 38.9692 52.4004C38.9692 52.1362 39.1013 52.0041 39.3655 51.74H15.5876C15.9839 52.1362 16.2481 52.6645 16.6444 53.0608H25.4951Z" fill="#B8114F"/>
<path d="M22.8529 55.3059C22.8529 55.0417 22.985 54.6455 23.2492 54.2493H17.569C17.9653 54.6455 18.4937 55.1738 18.89 55.5701H22.8529C22.8529 55.438 22.8529 55.438 22.8529 55.3059Z" fill="#B8114F"/>
<path d="M49.933 54.6455H49.8009C48.2157 54.9097 46.4984 55.1738 44.9132 55.1738C43.3281 55.1738 41.3466 55.0417 40.1577 54.2493H36.1947C36.3268 54.3813 36.3268 54.5134 36.4589 54.6455C36.591 54.9097 36.591 55.3059 36.591 55.5701H55.6133C56.0096 55.1738 56.5379 54.6455 56.9342 54.2493H51.6503C50.9898 54.3813 50.4614 54.5134 49.933 54.6455Z" fill="#B8114F"/>
<path d="M44.2532 51.8722C43.989 51.8722 43.5927 51.8722 43.3285 51.7401C42.9322 51.7401 42.5359 51.608 42.0075 51.608C41.8754 51.608 41.7433 51.608 41.6112 51.608C41.0828 51.608 40.5544 51.608 40.1581 51.7401C39.6297 51.8722 38.705 52.5326 39.7618 53.4571C40.5544 54.2496 42.4038 54.6459 44.7816 54.6459C46.2347 54.6459 47.952 54.5138 49.5372 54.1175H49.6693C51.6507 53.7213 53.368 53.0609 54.0285 52.4005L54.1606 52.2684C54.2927 52.1363 54.4248 51.8722 54.4248 51.7401C54.4248 51.4759 54.2927 50.8155 51.3865 50.0231C49.6693 49.6268 47.4236 49.3627 45.4421 49.3627H45.31C43.5927 49.3627 42.5359 49.6268 42.1396 49.7589C42.0075 49.7589 42.0075 49.891 42.0075 49.891C42.0075 49.891 42.0075 50.0231 42.0075 50.1551C42.2717 50.8155 43.4606 50.9476 44.3853 50.9476C44.9137 50.9476 44.9137 51.2118 44.7816 51.3439C44.7816 51.8722 44.5174 51.8722 44.2532 51.8722Z" fill="#B8114F"/>
<path d="M59.7086 43.4192L52.9716 42.8909C52.9716 43.0229 52.9716 43.2871 52.9716 43.4192L59.7086 43.9475C59.7086 43.8154 59.7086 43.5513 59.7086 43.4192Z" fill="#B8114F"/>
<path d="M59.4445 37.4755L52.8396 38.6642C52.8396 38.7963 52.8396 39.0604 52.9717 39.1925L59.5766 38.0038C59.5766 37.8717 59.5766 37.7396 59.4445 37.4755Z" fill="#B8114F"/>
<path d="M51.6509 34.7021C51.783 34.8342 51.783 34.9663 51.9151 35.2305L57.9916 32.3247C57.8595 32.1926 57.8595 32.0605 57.7274 31.7964L51.6509 34.7021Z" fill="#B8114F"/>
<path d="M54.9533 27.3055C54.8212 27.1735 54.6891 27.0414 54.557 26.9093L49.4052 31.2679C49.5373 31.4 49.6694 31.5321 49.6694 31.6642L54.9533 27.3055Z" fill="#B8114F"/>
<path d="M50.99 23.3434C50.8579 23.2113 50.7258 23.0792 50.5937 23.0792L46.6307 28.6266C46.7628 28.7586 46.8949 28.8907 47.027 28.8907L50.99 23.3434Z" fill="#B8114F"/>
<path d="M43.5927 26.7772L46.1026 20.4374C45.9705 20.3053 45.8384 20.3053 45.5742 20.3053L43.1964 26.6451C43.3285 26.6451 43.4606 26.7772 43.5927 26.7772Z" fill="#B8114F"/>
<path d="M14.9271 43.9475L21.5321 43.4192C21.5321 43.2871 21.5321 43.0229 21.5321 42.8909L14.9271 43.4192C14.9271 43.5513 14.9271 43.8154 14.9271 43.9475Z" fill="#B8114F"/>
<path d="M21.6643 38.6642L15.1914 37.4755C15.1914 37.6075 15.1914 37.8717 15.0593 38.0038L21.5322 39.1925C21.5322 39.0604 21.5322 38.9283 21.6643 38.6642Z" fill="#B8114F"/>
<path d="M16.6449 32.4564L22.7215 35.2301C22.8535 35.098 22.8536 34.9659 22.9856 34.7018L16.9091 31.9281C16.777 32.0602 16.6449 32.1923 16.6449 32.4564Z" fill="#B8114F"/>
<path d="M25.0987 31.2679L19.9468 26.9093C19.8147 27.0414 19.6826 27.1735 19.6826 27.3055L24.8345 31.6642C24.8345 31.5321 24.9666 31.4 25.0987 31.2679Z" fill="#B8114F"/>
<path d="M27.3443 29.0224C27.4764 28.8904 27.6085 28.7583 27.7406 28.7583L23.7776 23.343C23.6455 23.4751 23.5134 23.6072 23.3813 23.6072L27.3443 29.0224Z" fill="#B8114F"/>
<path d="M30.7794 26.9092L28.0053 20.8335C27.8732 20.9656 27.7411 20.9656 27.4769 21.0977L30.251 27.1733C30.3831 27.0412 30.5152 27.0412 30.7794 26.9092Z" fill="#B8114F"/>
<path d="M53.1038 41.306L64.7285 40.7777C64.7285 40.6456 64.7285 40.3815 64.7285 40.2494L53.1038 40.7777C53.1038 40.9098 53.1038 41.1739 53.1038 41.306Z" fill="#B8114F"/>
<path d="M52.5755 37.2113L63.6718 33.6451C63.6718 33.5131 63.5397 33.2489 63.5397 33.1168L52.4434 36.683C52.4434 36.8151 52.5755 37.0792 52.5755 37.2113Z" fill="#B8114F"/>
<path d="M50.9903 33.381L60.8977 27.0411C60.7656 26.9091 60.7656 26.777 60.6335 26.6449L50.7261 32.9847C50.7261 33.1168 50.8582 33.2489 50.9903 33.381Z" fill="#B8114F"/>
<path d="M56.274 21.494C56.1419 21.3619 56.0098 21.2299 55.8777 21.0978L47.9518 29.683C48.0839 29.815 48.216 29.9471 48.3481 30.0792L56.274 21.494Z" fill="#B8114F"/>
<path d="M50.7258 17.3995C50.5937 17.2675 50.4616 17.2675 50.3295 17.1354L44.7814 27.4376C44.9135 27.5697 45.0456 27.5697 45.1777 27.7017L50.7258 17.3995Z" fill="#B8114F"/>
<path d="M21.4002 40.7777L9.77551 40.2494C9.77551 40.3815 9.77551 40.6456 9.77551 40.7777L21.4002 41.306C21.4002 41.1739 21.4002 40.9098 21.4002 40.7777Z" fill="#B8114F"/>
<path d="M22.0606 36.683L10.9643 33.2489C10.9643 33.381 10.8322 33.6451 10.8322 33.7772L21.9285 37.2113C21.9285 37.0792 22.0606 36.8151 22.0606 36.683Z" fill="#B8114F"/>
<path d="M23.7777 32.8526L14.0024 26.6449C13.8703 26.777 13.8703 26.9091 13.7382 27.0411L23.5135 33.2489C23.6456 33.2489 23.7777 33.1168 23.7777 32.8526Z" fill="#B8114F"/>
<path d="M26.288 29.9471L18.2299 21.494C18.0978 21.6261 17.9657 21.7582 17.8336 21.8903L25.8917 30.3434C26.0238 30.2113 26.1559 30.0792 26.288 29.9471Z" fill="#B8114F"/>
<path d="M22.8529 17.9279L28.7974 27.9659C28.9295 27.8338 29.0616 27.8338 29.1937 27.7017L23.3813 17.6637C23.1171 17.6637 22.985 17.7958 22.8529 17.9279Z" fill="#B8114F"/>
<path d="M18.4941 18.1916L18.0978 17.7954L17.4373 18.4558C17.3052 18.5879 17.3052 18.72 17.3052 18.9841C17.3052 19.1162 17.4373 19.3804 17.5694 19.5124C17.7015 19.6445 17.9657 19.7766 18.362 19.9087C18.6262 20.0408 19.0225 20.0408 19.4188 20.0408V19.7766C19.1546 19.7766 18.8904 19.7766 18.7583 19.6445C18.4941 19.6445 18.362 19.5124 18.2299 19.3804C18.0978 19.2483 18.0978 19.1162 18.0978 18.9841C18.0978 18.852 18.0978 18.72 18.2299 18.5879L18.4941 18.1916Z" fill="#B8114F"/>
<path d="M21.5321 12.2484C21.6642 12.2484 21.6642 12.1163 21.7963 12.1163C21.9284 12.1163 21.9284 12.1163 22.0605 12.1163L22.9852 12.5126C23.1173 12.3805 22.9852 12.2484 22.5889 12.1163C22.3247 11.9843 22.1926 11.9843 22.1926 11.8522C21.9284 11.7201 21.7963 11.7201 21.5321 11.7201C21.2679 11.7201 21.1358 11.7201 21.0037 11.8522C20.8716 11.8522 20.8716 11.9843 20.8716 11.9843L21.4 12.3805C21.4 12.3805 21.4 12.3805 21.5321 12.2484Z" fill="#B8114F"/>
<path d="M24.1741 11.324C24.3062 11.324 24.3062 11.1919 24.4383 11.1919C24.5704 11.1919 24.7025 11.0598 24.9667 11.0598C25.2309 11.0598 25.363 11.0598 25.6272 11.1919L26.0235 11.0598L25.0988 10.2673C24.9667 10.1353 24.8346 10.0032 24.7025 10.0032C24.5704 10.0032 24.4383 10.0032 24.3062 10.0032C24.1741 10.1353 24.042 10.1353 23.9099 10.2673L24.4383 10.6636C24.4383 10.6636 24.4383 10.5315 24.5704 10.5315L24.7025 10.3994C24.8346 10.3994 24.8346 10.3994 24.9667 10.3994C25.0988 10.3994 25.2309 10.5315 25.363 10.6636L25.8914 11.0598C25.363 10.9277 24.9667 10.7956 24.7025 10.7956C24.4383 10.7956 24.1741 10.7956 24.042 10.7956C24.042 10.7956 23.9099 10.7957 23.9099 10.9277L23.7778 11.0598L24.1741 11.324C24.042 11.324 24.042 11.324 24.1741 11.324Z" fill="#B8114F"/>
<path d="M18.3616 17.1352C18.4937 17.1352 18.4937 17.1352 18.4937 17.2673C18.6258 17.3994 18.6258 17.5315 18.4937 17.6635C18.4937 17.7956 18.3616 17.9277 18.2295 18.1919C18.6258 18.456 18.89 18.5881 19.2863 18.5881C19.6826 18.5881 19.9468 18.5881 20.0789 18.3239C20.2109 18.1919 20.211 18.1919 20.343 18.0598C20.343 17.9277 20.4751 17.7956 20.4751 17.6635L20.8714 18.0598L21.5319 17.9277L19.6826 15.9465C19.9468 15.6824 20.211 15.4182 20.4751 15.2861L21.9282 17.1352H22.5887L20.8714 15.022C21.1356 14.7578 21.5319 14.4936 21.7961 14.3616L22.1924 15.022L21.9282 15.154C21.9282 15.154 21.9282 15.154 21.9282 15.2861V15.4182C22.0603 15.5503 22.1924 15.6824 22.4566 15.6824C22.7208 15.6824 22.985 15.6824 23.1171 15.6824L23.2492 15.5503V15.4182L22.3245 14.0974C22.5887 13.9653 22.7208 13.8332 22.985 13.7012L24.306 15.6824H24.9665L23.5134 13.437C24.1739 13.0408 24.8344 12.6445 25.627 12.2483L26.0233 13.0408L24.8344 13.5691C24.7023 13.5691 24.7023 13.7012 24.7023 13.7012C24.7023 13.8332 24.7023 13.8332 24.7023 13.9653C24.8344 14.0974 24.9665 14.2295 25.0986 14.3616C25.3628 14.4936 25.4949 14.4936 25.627 14.4936C25.627 14.4936 25.627 14.4936 25.627 14.3616V14.2295L25.4949 13.9653V13.8332V13.7012L26.1554 13.437L26.6838 14.3616H27.3443L26.1554 11.9841C26.948 11.5879 27.6085 11.3237 28.4011 11.0596L28.6653 11.9841C28.4011 11.852 28.269 11.72 28.1369 11.72C28.0048 11.72 27.8727 11.72 27.7406 11.72C27.4764 11.852 27.3443 11.9841 27.2122 12.1162C27.0801 12.2483 27.0801 12.5124 27.2122 12.6445C27.3443 12.9087 27.4764 13.0408 27.7406 13.1728C28.0048 13.3049 28.269 13.3049 28.5332 13.3049C28.6653 13.3049 28.6653 13.1728 28.7974 13.1728C28.9295 13.0408 28.9295 12.9087 29.0616 12.7766L29.1937 13.3049L29.8542 13.437L29.4579 12.2483C29.4579 12.1162 29.59 11.9841 29.7221 11.852C29.8542 11.72 29.9863 11.72 29.9863 11.5879H30.1184L30.2505 11.72C30.2505 11.852 30.2505 11.9841 30.2505 12.1162C30.2505 12.2483 30.2505 12.5124 30.1184 12.6445L30.7789 12.7766C30.911 12.3804 30.911 12.1162 30.7789 11.72C30.6468 11.4558 30.5147 11.3237 30.2505 11.1916C29.9863 11.0596 29.7221 10.9275 29.59 11.0596C29.4579 11.0596 29.4579 11.1916 29.3258 11.1916C29.4579 11.0596 29.4579 11.0596 29.3258 11.1916L29.0616 10.5312C29.59 10.3992 30.2505 10.135 30.7789 10.0029L30.6468 9.87085L30.2505 9.60669C24.4381 11.1916 19.4184 14.4936 15.8517 19.1164L16.5122 19.2485C17.1727 18.456 17.7011 17.7956 18.3616 17.1352ZM28.6653 12.2483C28.5332 12.3804 28.4011 12.5124 28.269 12.5124C28.1369 12.5124 28.1369 12.5124 28.0048 12.5124C27.8727 12.5124 27.8727 12.3804 27.8727 12.3804C27.8727 12.2483 27.8727 12.1162 27.8727 11.9841C27.8727 11.852 28.0048 11.72 28.1369 11.72C28.269 11.72 28.4011 11.72 28.5332 11.72C28.6653 11.72 28.7974 11.72 28.9295 11.852C28.7974 11.9841 28.7974 12.1162 28.6653 12.2483ZM19.2863 16.2107L20.0789 17.0032C20.0789 17.2673 19.9468 17.3994 19.9468 17.5315C19.9468 17.6635 19.8147 17.7956 19.6826 17.9277C19.5505 18.0598 19.5505 18.0598 19.4184 18.0598C19.2863 18.0598 19.1542 18.0598 19.0221 18.0598C19.1542 17.9277 19.2863 17.6635 19.2863 17.5315C19.2863 17.3994 19.2863 17.2673 19.2863 17.1352C19.2863 17.1352 19.1542 17.0032 19.0221 17.0032C18.89 17.0032 18.7579 17.0031 18.6258 16.8711C18.7579 16.739 19.0221 16.4748 19.2863 16.2107Z" fill="#B8114F"/>
<path d="M27.2123 9.34265C27.3444 9.34265 27.3444 9.34265 27.4765 9.34265C27.6086 9.34265 27.6086 9.34265 27.7407 9.47473L28.5332 10.1351C28.6653 10.1351 28.5332 9.87097 28.269 9.60681C28.1369 9.47473 28.0048 9.34265 27.8727 9.34265C27.7406 9.21057 27.4765 9.07849 27.3444 9.07849C27.0802 9.07849 26.9481 9.07849 26.816 9.07849C26.6839 9.07849 26.6839 9.21057 26.5518 9.21057L26.9481 9.60681C26.9481 9.47473 27.0802 9.34265 27.2123 9.34265Z" fill="#B8114F"/>
<path d="M38.7048 12.3802C38.8369 12.3802 38.969 12.2482 39.1011 12.2482H39.3653L39.1011 11.8519H38.8369C38.7048 11.8519 38.4406 11.8519 38.3085 11.984C38.1764 12.1161 38.0443 12.2482 38.0443 12.3802C38.0443 12.6444 38.0443 12.9086 38.3085 13.0406C38.4406 13.3048 38.7048 13.4369 38.969 13.4369C39.1011 13.4369 39.2332 13.4369 39.3653 13.4369C39.4974 13.4369 39.6295 13.3048 39.7616 13.3048L39.4974 12.7765C39.3653 12.9086 39.2332 12.9086 39.1011 13.0406C38.969 13.0406 38.8369 13.0406 38.7048 13.0406C38.5727 13.0406 38.5727 13.0406 38.4406 12.9086C38.4406 12.7765 38.3085 12.7765 38.3085 12.6444C38.4406 12.5123 38.5727 12.3802 38.7048 12.3802Z" fill="#B8114F"/>
<path d="M43.8566 11.1915C43.9887 11.0594 44.1208 11.0594 44.2529 11.1915L44.9134 11.3236L45.0455 10.7953L44.1208 10.5311C43.9887 10.5311 43.7245 10.5311 43.5924 10.5311C43.4603 10.6632 43.3282 10.7953 43.3282 10.9274C43.3282 11.1915 43.3282 11.4557 43.3282 11.7198C43.4603 11.984 43.5924 12.3802 43.7245 12.7765L43.9887 12.6444C43.8566 12.3802 43.8566 12.2482 43.7245 11.984C43.7245 11.7198 43.7245 11.5878 43.7245 11.4557C43.7245 11.3236 43.7245 11.1915 43.8566 11.1915Z" fill="#B8114F"/>
<path d="M55.3496 16.0787C55.0854 16.0787 55.0854 16.2108 54.9533 16.6071C54.9533 16.8712 54.9533 17.2675 55.0854 17.6637C54.8212 17.7958 54.557 17.6637 54.4249 17.6637C54.4249 17.5316 54.4249 17.5316 54.557 17.3995C54.557 17.2675 54.557 17.2675 54.557 17.2675C54.557 17.2675 54.4249 17.1354 54.2928 17.1354C54.1607 17.1354 54.1607 17.1354 54.0286 17.2675C53.8965 17.3995 53.8965 17.3995 53.8965 17.5316C53.8965 17.6637 54.0286 17.7958 54.1607 17.9279L54.0286 18.8524L54.2928 18.9845V18.0599C54.6891 18.192 55.0854 18.192 55.3496 18.192C55.6138 18.192 55.878 18.0599 56.1422 17.9279C56.5385 17.5316 56.6706 16.8712 56.1422 16.3429C55.878 16.0787 55.6138 16.0787 55.3496 16.0787ZM55.878 16.8712C55.878 17.0033 55.7459 17.1354 55.7459 17.2675C55.6138 17.3995 55.6138 17.3995 55.4817 17.5316C55.3496 17.5316 55.3496 17.6637 55.3496 17.6637C55.3496 17.3995 55.3496 17.2675 55.3496 17.1354C55.3496 17.0033 55.3496 16.8712 55.4817 16.7391C55.6138 16.6071 55.6138 16.6071 55.7459 16.6071C55.878 16.6071 55.878 16.6071 56.0101 16.6071C55.878 16.7391 55.878 16.7391 55.878 16.8712Z" fill="#B8114F"/>
<path d="M54.5568 20.4374C54.4247 20.4374 54.1605 20.3053 54.0284 20.1732C53.7643 19.9091 53.6322 19.6449 53.5001 19.3807C53.368 19.1166 53.368 18.8524 53.368 18.7203H53.1038C53.1038 18.9845 53.1038 19.3807 53.2359 19.6449C53.368 19.9091 53.5001 20.3053 53.7643 20.5695C53.8964 20.8336 54.1606 20.8336 54.4247 20.9657C54.6889 20.9657 54.821 20.9657 54.9531 20.8336C55.0852 20.7015 55.2173 20.5695 55.2173 20.3053C55.2173 20.0411 55.2173 19.9091 55.0852 19.777C55.0852 19.6449 54.9531 19.6449 54.821 19.6449C54.6889 19.6449 54.5568 19.5128 54.4247 19.5128V20.0411C54.5568 20.0411 54.6889 20.0411 54.6889 20.0411C54.821 20.0411 54.821 20.1732 54.9531 20.1732C54.9531 20.1732 54.9531 20.3053 55.0852 20.3053V20.4374C54.821 20.4374 54.6889 20.4374 54.5568 20.4374Z" fill="#B8114F"/>
<path d="M33.5533 11.588C33.8175 11.8522 34.0817 11.8522 34.478 11.8522C34.7422 11.8522 34.8743 11.7201 35.0064 11.588C35.1385 11.4559 35.1385 11.1918 35.1385 11.0597C35.1385 10.9276 35.1385 10.9276 35.1385 10.7955C35.1385 10.6634 35.0064 10.6634 35.0064 10.5314C35.1385 10.6634 35.2706 10.6634 35.4027 10.6634C35.5348 10.6634 35.6669 10.6634 35.6669 10.6634C35.799 10.6634 35.9311 10.6634 35.9311 10.5314L36.0632 11.4559L36.7237 11.7201L36.4595 9.07849C36.8558 9.07849 37.12 9.07849 37.5163 9.07849H37.6484V10.1351H37.5163H37.3842C37.3842 10.1351 37.3842 10.1351 37.3842 10.2672C37.3842 10.3993 37.5163 10.5314 37.6484 10.7955C37.9126 11.0597 38.0447 11.1918 38.1768 11.1918C38.1768 11.1918 38.1768 11.1918 38.3089 11.1918V11.0597V10.7955H39.2336V11.4559L39.762 11.8522L39.8941 9.07849C40.6867 9.21057 41.4793 9.21057 42.404 9.34265L42.2719 9.73889L41.4793 9.60681C41.2151 9.60681 41.083 9.60681 40.9509 9.73889C40.8188 9.87097 40.6867 10.003 40.6867 10.1351C40.6867 10.3993 40.6867 10.6634 40.8188 10.9276C40.9509 11.1918 41.083 11.588 41.2151 11.8522L41.4793 11.7201C41.3472 11.588 41.2151 11.3238 41.2151 11.1918C41.2151 10.9276 41.2151 10.7955 41.2151 10.5314C41.2151 10.3993 41.3472 10.2672 41.4793 10.1351C41.6114 10.003 41.7435 10.003 41.8756 10.003L42.404 10.1351L42.1398 11.4559L42.6682 11.9842L43.0645 9.34265C44.6497 9.60681 46.1027 10.1351 47.5558 10.6634L47.2916 11.4559C47.1595 11.1918 47.1595 11.0597 47.0274 10.9276C46.8953 10.7955 46.7632 10.6634 46.6311 10.5314C46.3669 10.3993 46.1027 10.3993 45.9706 10.5314C45.7064 10.6634 45.5743 10.7955 45.5743 10.9276C45.4422 11.1918 45.5743 11.4559 45.7064 11.7201C45.8385 12.1163 46.1027 12.2484 46.3669 12.3805C46.499 12.3805 46.6311 12.5126 46.7632 12.3805C46.8953 12.3805 47.0274 12.3805 47.1595 12.2484L47.0274 12.7767L47.4237 13.305L48.3484 10.7955C48.7447 10.9276 49.141 11.0597 49.4052 11.3238L48.8768 12.2484L48.7447 12.1163H48.6126C48.6126 12.1163 48.4805 12.1163 48.4805 12.2484C48.4805 12.3805 48.4805 12.5126 48.6126 12.7767C48.7447 13.0409 48.7447 13.305 48.8768 13.305C48.8768 13.305 48.8768 13.305 49.0089 13.305C49.0089 13.305 49.141 13.305 49.141 13.173L49.2731 12.9088L50.1978 13.305L49.8015 13.9654L50.1978 14.6258L51.5188 12.2484C51.783 12.3805 52.1793 12.6446 52.4435 12.7767L51.1225 14.7579L51.3867 15.4183L52.8398 13.173C53.5003 13.5692 54.1608 14.0975 54.6892 14.4938L54.1608 15.1542L53.104 14.3617H52.9719C52.8398 14.3617 52.8398 14.3617 52.8398 14.4938C51.9151 15.0221 51.9151 15.2862 51.9151 15.4183C51.9151 15.6825 51.9151 15.8145 52.0472 15.8145C52.0472 15.8145 52.0472 15.8145 52.1793 15.8145H52.3114L52.4435 15.6825C52.4435 15.6825 52.4435 15.6825 52.5756 15.6825H52.7077L53.2361 16.0787L52.5756 16.8712L52.8398 17.5316L54.5571 15.4183C54.8213 15.6825 55.0855 15.8145 55.2176 16.0787L55.6139 15.6825C50.7262 11.3238 44.3855 8.68225 37.3842 8.68225C36.5916 8.68225 35.799 8.68225 35.0064 8.81433L35.4027 9.34265C35.5348 9.34265 35.6669 9.34265 35.799 9.34265L35.9311 10.1351C35.9311 10.2672 35.799 10.2672 35.799 10.2672C35.6669 10.2672 35.6669 10.3993 35.5348 10.3993C35.4027 10.3993 35.2706 10.3993 35.1385 10.3993C35.0064 10.3993 35.0064 10.3993 34.8743 10.3993C35.0064 10.2672 35.0064 10.2672 35.0064 10.1351C35.0064 10.003 35.0064 9.87097 35.0064 9.87097C35.0064 9.60681 34.8743 9.47473 34.6101 9.34265C34.3459 9.21057 34.0817 9.07849 33.8175 9.07849C33.6854 9.07849 33.5533 9.07849 33.4212 9.21057C33.2891 9.21057 33.157 9.34265 33.0249 9.47473L33.4212 9.87097C33.5533 9.73889 33.6854 9.60681 33.8175 9.60681C33.9496 9.47473 34.0817 9.47473 34.2138 9.47473C34.3459 9.47473 34.478 9.47473 34.478 9.47473C34.6101 9.47473 34.6101 9.60681 34.6101 9.73889C34.6101 9.87097 34.6101 10.003 34.478 10.1351C34.478 10.2672 34.3459 10.2672 34.2138 10.2672C34.0817 10.2672 34.0817 10.2672 33.9496 10.2672C33.8175 10.2672 33.6854 10.3993 33.5533 10.3993L33.8175 10.9276C34.0817 10.9276 34.2138 10.7955 34.478 10.6634L34.6101 10.7955V10.9276C34.6101 11.0597 34.6101 11.1918 34.478 11.3238C34.3459 11.4559 34.2138 11.588 34.0817 11.588C33.8175 11.588 33.6854 11.588 33.4212 11.4559C33.157 11.3238 33.0249 11.0597 32.8928 10.9276L32.7607 11.0597C33.0249 11.0597 33.2891 11.4559 33.5533 11.588ZM46.1027 12.3805C45.8385 12.3805 45.7064 12.3805 45.5743 12.3805C45.4422 12.3805 45.3101 12.2484 45.3101 12.1163C45.3101 11.9842 45.178 11.9842 45.3101 11.8522C45.3101 11.7201 45.4422 11.588 45.7064 11.588C45.9706 11.588 46.1027 11.588 46.3669 11.588C46.499 11.588 46.499 11.7201 46.6311 11.8522C46.7632 11.9842 46.7632 12.1163 46.8953 12.2484C46.499 12.2484 46.3669 12.2484 46.1027 12.3805ZM49.2731 11.9842C49.5373 12.1163 49.8015 12.2484 50.1978 12.3805L49.6694 13.305L48.7447 12.9088L49.2731 11.9842ZM38.0447 9.21057C38.3089 9.21057 38.7052 9.21057 38.9694 9.21057V10.2672H38.0447V9.21057Z" fill="#B8114F"/>
<path d="M55.2172 19.3807L55.3493 20.0411L57.3307 18.192C57.4628 18.3241 57.5949 18.4562 57.727 18.7203L57.8591 18.0599C57.4628 17.6637 57.1987 17.2675 56.8024 16.8712L56.4061 17.2675C56.5382 17.3995 56.6703 17.5316 56.9345 17.7958L55.2172 19.3807Z" fill="#B8114F"/>
<path d="M57.067 19.7767H56.2744V20.5692H57.067V19.7767Z" fill="#B8114F"/>
<path d="M57.9915 18.9843H57.1989V19.7767H57.9915V18.9843Z" fill="#B8114F"/>
<path d="M27.4766 88.5902L28.5334 89.1185V84.3636H29.4581L28.9297 83.4391H24.042H23.7778H21.2679H21.0037H15.5877H15.3235H12.8136H12.5494H5.81236H5.68026H3.56667L4.09507 84.3636H4.35927V86.4769L3.17038 85.9486C3.30248 85.8165 3.30247 85.6844 3.43457 85.5524C3.43457 85.4203 3.56667 85.1561 3.56667 85.024C3.56667 84.6278 3.43457 84.2316 3.03828 83.8353C2.64198 83.4391 2.24568 83.1749 1.84939 83.1749C1.45309 83.1749 1.18889 83.307 0.924693 83.4391C0.660495 83.7033 0.528397 83.9674 0.528397 84.2316C0.528397 84.4957 0.660495 84.7599 0.924693 85.024C1.18889 85.2882 1.45309 85.5524 1.84939 85.6844C1.45309 85.9486 0.792594 86.2128 0 86.609L0.792594 87.2694C1.71729 86.7411 2.50988 86.3448 2.90618 86.0807L3.83087 86.4769L1.18889 88.0619L1.98148 88.7223L4.49137 87.0052V88.326L5.54816 88.8544V84.0995H6.34075H6.60495H11.6247V84.892H10.4358C10.0395 84.892 9.64323 85.024 9.37903 85.2882C9.11483 85.5524 8.98273 85.9486 8.98273 86.3448C8.98273 86.8732 9.24693 87.4015 9.77533 87.9298C10.3037 88.4581 10.8321 88.7223 11.2284 88.7223H11.3605H11.4926C11.3605 89.1185 11.2284 89.5148 10.9642 89.7789C10.7 90.0431 10.4358 90.1752 10.1716 90.1752C10.0395 90.1752 9.90743 90.1752 9.90743 90.0431C9.77533 89.911 9.77533 89.911 9.77533 89.7789C9.77533 89.6468 9.77533 89.5148 9.90743 89.3827C10.0395 89.2506 10.1716 89.1185 10.4358 89.1185L9.51113 88.5902C9.37903 88.5902 9.24693 88.7223 9.11483 88.7223C8.98273 88.8544 8.98273 88.8544 8.98273 88.9864C8.58643 88.9864 8.32224 88.9864 8.19014 88.8544C8.32224 88.7223 8.58644 88.7223 8.58644 88.4581C8.71853 88.326 8.71853 88.0619 8.71853 87.9298C8.71853 87.6656 8.58643 87.4015 8.45434 87.2694C8.32224 87.1373 8.05804 87.0052 7.79384 87.0052C7.52964 87.0052 7.26544 87.1373 7.00125 87.2694C6.73705 87.5336 6.73705 87.6656 6.73705 88.0619C6.73705 88.4581 7.00125 88.8544 7.39754 89.1185C7.79384 89.3827 8.32224 89.5148 8.98273 89.5148C8.85063 89.7789 8.98273 90.0431 9.37903 90.3072C9.77532 90.5714 10.1716 90.7035 10.7 90.7035C10.9642 90.7035 11.2284 90.5714 11.4926 90.4393C11.7568 90.1751 12.021 89.911 12.1531 89.5148L12.5494 90.4393L13.2099 90.1752L12.2852 88.9864C12.4173 88.9864 12.5494 88.8544 12.6815 88.7223C12.8136 88.5902 12.8136 88.4581 12.8136 88.326C12.8136 88.0619 12.6815 87.9298 12.5494 87.6656C12.4173 87.4015 12.1531 87.2694 12.021 87.2694C11.7568 87.2694 11.6247 87.2694 11.4926 87.4015C11.3605 87.5336 11.2284 87.6656 11.2284 87.7977C11.2284 87.9298 11.2284 88.0619 11.3605 88.326C11.0963 88.4581 10.9642 88.4581 10.8321 88.4581C10.4358 88.4581 10.1716 88.326 10.0395 88.0619C9.77532 87.7977 9.64323 87.5336 9.64323 87.1373C9.64323 86.8732 9.77533 86.609 9.90743 86.3448C10.0395 86.0807 10.3037 86.0807 10.5679 86.0807H12.5494V84.3636H13.2099H13.4741H14.1346V88.4581L15.1914 89.1185V84.3636H15.984H16.2482H19.9469V85.9486C19.6827 85.6844 19.4186 85.4203 19.0223 85.1561C18.626 85.024 18.3618 84.892 18.0976 84.892C17.7013 84.892 17.305 85.024 17.0408 85.2882C16.7766 85.5524 16.5124 85.8165 16.5124 86.2128C16.5124 86.609 16.7766 87.1373 17.1729 87.5336C17.5692 87.9298 18.0976 88.194 18.4939 88.194C18.7581 88.194 19.0223 88.194 19.1544 88.0619C19.4186 87.9298 19.5507 87.7977 19.8148 87.5336V88.4581L20.8716 89.1185V84.3636H21.6642H21.9284H22.5889V88.4581L23.6457 89.1185V84.3636H24.4383H24.7025H27.6087V85.8165H25.363C25.2309 85.8165 25.0988 85.8165 25.0988 85.9486C24.9667 86.0807 24.9667 86.0807 24.9667 86.2128C24.9667 86.4769 25.0988 86.7411 25.363 87.1373C25.6272 87.4015 25.8914 87.6656 26.0235 87.6656C26.1556 87.6656 26.1556 87.6656 26.1556 87.5336L26.2877 87.4015V87.0052C26.2877 86.8732 26.2877 86.8732 26.4198 86.8732L26.5519 86.7411H27.7408V88.5902H27.4766ZM2.64198 85.2882C2.50988 85.4203 2.37778 85.5524 2.24568 85.6844C1.98148 85.5524 1.84939 85.5524 1.71729 85.2882C1.58519 85.1561 1.58519 84.892 1.58519 84.7599C1.58519 84.6278 1.58519 84.4957 1.71729 84.3636C1.84939 84.2316 1.98148 84.2316 2.24568 84.2316C2.37778 84.2316 2.50988 84.2316 2.64198 84.3636C2.77408 84.4957 2.77408 84.6278 2.77408 84.7599C2.77408 84.892 2.77408 85.1561 2.64198 85.2882ZM7.39754 88.5902C7.26544 88.4581 7.26545 88.326 7.26545 88.194C7.26545 88.0619 7.26544 87.9298 7.39754 87.7977C7.52964 87.6656 7.66174 87.6656 7.79384 87.6656C7.92594 87.6656 8.05804 87.6656 8.19014 87.7977C8.32224 87.9298 8.32224 88.0619 8.32224 88.194C8.32224 88.326 8.32224 88.4581 8.19014 88.5902C8.05804 88.7223 7.92594 88.7223 7.79384 88.7223C7.52964 88.7223 7.39754 88.7223 7.39754 88.5902ZM18.8902 87.1373C18.4939 87.2694 18.2297 87.4015 17.9655 87.4015C17.7013 87.4015 17.5692 87.2694 17.4371 87.2694C17.305 87.1373 17.1729 87.0052 17.1729 86.8732C17.1729 86.609 17.305 86.3448 17.7013 86.2128C17.9655 85.9486 18.3618 85.9486 18.7581 85.9486C18.8902 85.9486 19.1544 85.9486 19.4186 86.0807C19.6827 86.2128 19.8148 86.3448 19.9469 86.609C19.5506 86.7411 19.2865 87.0052 18.8902 87.1373Z" fill="#B8114F"/>
<path d="M28.5332 89.779C28.269 89.5149 28.0048 89.3828 27.7406 89.3828C27.6085 89.3828 27.4764 89.3828 27.3443 89.5149C27.2122 89.5149 27.0801 89.647 26.948 89.779L27.3443 90.4394C27.4764 90.3074 27.4764 90.3074 27.6085 90.3074C27.7406 90.3074 27.8727 90.1753 27.8727 90.1753C28.1369 90.1753 28.6653 90.5715 29.4579 91.364L30.1184 92.0244L30.5147 91.7602C29.9863 91.2319 29.3258 90.5715 28.5332 89.779Z" fill="#B8114F"/>
<path d="M49.2732 83.5712H45.3102H45.046H42.0077L42.5361 84.4957H43.725V86.3448H42.1398V84.7599C42.1398 84.3636 42.0077 84.0995 41.6114 83.7032C41.2151 83.307 40.9509 83.1749 40.5546 83.1749C40.2904 83.1749 40.0262 83.307 39.762 83.4391C39.4978 83.7033 39.4978 83.8353 39.4978 84.2316C39.4978 84.3636 39.4978 84.3636 39.4978 84.4957L38.9695 83.5712H32.3645L32.8929 84.4957H36.988V85.2882C36.8559 85.2882 36.7238 85.2882 36.5917 85.4203C36.4596 85.5524 36.1954 85.6844 36.0633 85.9486C35.7991 85.6844 35.667 85.5524 35.4028 85.4203C35.1386 85.2882 35.0065 85.1561 34.7423 85.1561C34.346 85.1561 34.0818 85.2882 33.8176 85.5524C33.5534 85.8165 33.4213 86.0807 33.4213 86.4769C33.4213 86.8732 33.5534 87.2694 33.9497 87.6656C34.2139 88.0619 34.7423 88.5902 35.4028 88.9864L35.667 88.5902C35.2707 88.194 35.0065 87.9298 34.7423 87.6656C34.4781 87.2694 34.4781 87.0052 34.4781 86.7411C34.4781 86.4769 34.6102 86.2128 34.7423 86.0807C34.8744 85.9486 35.1386 85.8165 35.2707 85.8165C35.4028 85.8165 35.5349 85.8165 35.667 85.9486C35.7991 85.9486 35.9312 86.0807 35.9312 86.2128C35.667 86.7411 35.5349 87.0052 35.5349 87.1373L36.4596 87.5336C36.5917 87.0052 36.7238 86.609 36.988 86.2128C37.2522 85.9486 37.5164 85.6844 37.7806 85.6844C37.9127 85.6844 38.0448 85.6844 38.1769 85.8165C38.309 85.9486 38.309 85.9486 38.309 86.0807C38.309 86.3448 38.1769 86.609 37.9127 86.8732C37.6485 87.1373 37.3843 87.5336 36.8559 87.7977L37.6485 88.5902C38.0448 88.194 38.309 87.7977 38.4411 87.4015C38.5732 87.0052 38.7053 86.7411 38.7053 86.3448C38.7053 85.9486 38.5732 85.6844 38.4411 85.4203C38.309 85.1561 38.0448 85.024 37.7806 84.892V84.0995H39.2337C39.2337 84.3636 39.4978 84.6278 39.6299 84.7599C40.0262 85.024 40.2904 85.2882 40.8188 85.2882V86.3448H40.4225C40.2904 86.3448 40.2904 86.3448 40.1583 86.4769C40.0262 86.609 40.0262 86.609 40.0262 86.7411C40.0262 87.0052 40.1583 87.2694 40.5546 87.5336C40.9509 87.9298 41.2151 88.0619 41.4793 88.0619C41.6114 88.0619 41.6114 88.0619 41.7435 87.9298C41.7435 87.7977 41.8756 87.7977 41.8756 87.6656V87.2694H43.4608V88.5902L44.5176 89.1185V84.3636H45.3102H45.5744H48.6127V85.1561H47.1596C46.7633 85.1561 46.4991 85.2882 46.2349 85.4203C45.9707 85.6844 45.8386 85.9486 45.8386 86.2128C45.8386 86.609 45.9707 87.1373 46.2349 87.5336C46.4991 88.0619 46.7633 88.4581 47.2917 88.9864L47.688 88.7223C47.4238 88.4581 47.1596 88.194 47.0275 87.7977C46.8954 87.4015 46.7633 87.1373 46.7633 86.7411C46.7633 86.4769 46.8954 86.2128 47.0275 86.0807C47.1596 85.9486 47.4238 85.8165 47.688 85.8165H48.7448V88.194L49.8016 88.8544V84.0995H50.8584L50.33 83.1749H49.2732V83.5712ZM41.2151 85.2882C41.083 85.2882 40.8188 85.1561 40.8188 84.892C40.6867 84.7599 40.6867 84.4957 40.6867 84.2316C40.6867 84.0995 40.6867 83.9674 40.8188 83.8353C40.9509 83.7032 40.9509 83.7032 41.083 83.7032C41.2151 83.7032 41.2151 83.7032 41.2151 83.8353C41.2151 83.9674 41.3472 83.9674 41.3472 84.0995V85.2882H41.2151Z" fill="#B8114F"/>
<path d="M49.0086 82.5145C48.7444 82.1183 48.6123 81.9862 48.4802 81.8541C48.216 81.59 47.9518 81.3258 47.6876 81.0616C47.4234 80.9296 47.0271 80.7975 46.7629 80.7975C46.6308 80.7975 46.4987 80.7975 46.3666 80.9296L46.7629 81.8541C46.895 81.8541 47.0271 81.722 47.2913 81.722C47.4234 81.722 47.5555 81.722 47.8197 81.8541C47.9518 81.8541 48.0839 81.9862 48.216 82.1183L49.2728 83.5712C49.537 83.5712 49.4049 83.1749 49.0086 82.5145Z" fill="#B8114F"/>
<path d="M71.4657 88.4581L72.5224 89.1185V84.3636H73.5792L73.0508 83.5712H67.5027H67.2385H62.615H62.3508H59.8409H59.5767H53.8965L54.4249 84.4957H58.3879V85.2882H55.2175L55.0854 85.6844C55.6138 85.8165 55.878 86.0807 56.2743 86.3448C56.5385 86.609 56.6706 87.0052 56.6706 87.2694C56.6706 87.4015 56.5385 87.5336 56.4064 87.6656C56.2743 87.7977 56.0101 87.9298 55.878 87.9298C55.878 87.7977 55.7459 87.6656 55.6138 87.6656C55.4817 87.5336 55.3496 87.5336 55.3496 87.5336C55.2175 87.5336 55.0854 87.5336 54.9533 87.6656C54.8212 87.7977 54.8212 87.9298 54.8212 88.0619C54.8212 88.326 54.9533 88.4581 55.2175 88.5902C55.4817 88.7223 55.7459 88.8544 56.0101 88.8544L56.6706 90.4393L57.199 90.1752L56.2743 88.8544C56.5385 88.8544 56.8027 88.7223 57.0669 88.4581C57.3311 88.326 57.3311 88.0619 57.3311 87.7977C57.3311 87.5336 57.199 87.2694 57.0669 87.0052C56.9348 86.7411 56.6706 86.4769 56.4064 86.3448H58.2557V88.8544L59.3125 89.3827V84.6278H60.1051H60.3693H61.0298V88.7223L62.0866 89.3827V84.6278H62.8792H63.1434H66.0496V86.0807H63.8039C63.6718 86.0807 63.5397 86.0807 63.5397 86.2128C63.4076 86.3448 63.4076 86.3448 63.4076 86.4769C63.4076 86.7411 63.5397 87.0052 63.8039 87.4015C64.0681 87.6656 64.3323 87.9298 64.4644 87.9298C64.5965 87.9298 64.5965 87.9298 64.5965 87.7977L64.7286 87.6656V87.2694C64.7286 87.1373 64.7286 87.1373 64.8607 87.1373L64.9928 87.0052H66.1817V88.8544L67.2385 89.3827V84.6278H67.7669H68.0311H68.8237V86.3448H68.4274C68.2953 86.3448 68.2953 86.3448 68.2953 86.4769L68.1632 86.609C68.1632 86.7411 68.2953 87.0052 68.6916 87.4015C69.0879 87.7977 69.3521 87.9298 69.4842 87.9298C69.4842 87.9298 69.6163 87.9298 69.6163 87.7977C69.6163 87.6656 69.7484 87.6656 69.7484 87.5336V87.1373H71.4657V88.4581ZM69.8805 86.3448V84.3636H71.5977V86.3448H69.8805Z" fill="#B8114F"/>
<path d="M72.5226 89.779C72.2584 89.5149 71.9942 89.3828 71.73 89.3828C71.5979 89.3828 71.4658 89.3828 71.3337 89.5149C71.2016 89.5149 71.0695 89.647 70.9374 89.779L71.3337 90.4394C71.4658 90.3074 71.4658 90.3074 71.5979 90.3074C71.73 90.3074 71.8621 90.1753 71.8621 90.1753C72.1263 90.1753 72.6547 90.5715 73.4473 91.364L74.1078 92.0244L74.504 91.7602C73.9757 91.2319 73.4473 90.5715 72.5226 89.779Z" fill="#B8114F"/>
<path d="M33.289 29.815C33.0248 30.2112 33.1569 30.6075 33.289 30.8716C33.4211 31.1358 33.8174 31.4 34.2137 31.6641C34.2137 32.1924 34.7421 32.7208 35.6667 32.9849C35.6667 33.3812 36.1951 34.0416 37.1198 34.0416C37.2519 34.0416 37.384 34.0416 37.5161 34.0416C38.0445 33.9095 38.4408 33.5132 38.4408 32.9849C39.3655 32.7208 39.8939 32.3245 39.8939 31.6641V31.532C40.5544 31.1358 40.9507 30.7396 40.8186 30.2112C40.8186 30.0792 40.8186 29.9471 40.6865 29.815C41.6112 28.8905 42.1396 27.9659 42.4038 27.0413V26.9093C42.5359 26.513 42.5359 26.1168 42.5359 26.1168C42.5359 25.3243 42.5359 24.6639 42.2717 23.8714L42.0075 23.3431C41.7433 22.9469 41.4791 22.5506 41.2149 22.2865C41.0828 22.1544 41.0828 22.1544 40.9507 22.0223V21.6261C40.8186 21.494 40.8186 21.494 40.6865 21.3619C39.4976 20.3053 38.705 19.5128 38.9692 17.7958C39.2334 16.0787 38.705 14.3617 38.0445 13.9655C38.0445 13.9655 37.9124 13.9655 37.9124 13.8334C37.9124 13.5692 37.9124 13.4371 37.7803 13.4371C37.6482 13.0409 37.2519 13.0409 37.1198 12.9088H36.9877C36.5914 12.9088 36.063 13.0409 35.7988 13.9655C35.6667 14.6259 35.6667 15.4183 35.6667 16.2108C35.6667 16.3429 35.6667 16.475 35.6667 16.607C35.6667 18.0599 34.3458 19.777 33.289 20.8336C33.289 20.8336 32.4964 21.6261 31.968 22.8148C31.5717 23.8714 29.7223 27.4376 33.289 29.815ZM37.2519 33.2491C36.8556 33.2491 36.5914 32.9849 36.5914 32.8528V32.7208C36.7235 32.7208 36.8556 32.7208 36.9877 32.7208C37.1198 32.7208 37.2519 32.7208 37.384 32.7208C37.6482 32.7208 37.7803 32.7208 38.0445 32.7208V32.8528C38.0445 33.117 37.6482 33.2491 37.2519 33.2491ZM38.0445 32.3245C37.9124 32.3245 37.7803 32.3245 37.6482 32.3245C37.5161 32.3245 37.384 32.3245 37.384 32.3245C37.1198 32.3245 36.8556 32.3245 36.5914 32.3245C35.6667 32.1924 35.1383 31.9283 35.1383 31.6641C35.7988 31.7962 36.5914 31.7962 37.1198 31.7962C38.0445 31.7962 38.9692 31.6641 39.4976 31.532L39.6297 31.6641C39.4976 31.9283 38.9692 32.1924 38.0445 32.3245ZM33.6853 21.8902C35.0062 20.4374 36.3272 18.4562 36.4593 16.8712C36.4593 16.7391 36.4593 16.607 36.4593 16.3429C36.4593 15.5504 36.4593 14.7579 36.5914 14.2296C36.7235 13.7013 36.8556 13.7013 36.9877 13.7013C37.1198 13.7013 37.1198 13.8334 37.1198 14.0975C37.1198 14.2296 37.1198 14.6258 37.1198 15.1542C37.1198 16.0787 36.9877 17.5316 37.1198 18.0599C37.2519 18.7203 37.6482 19.3807 37.9124 20.0411C38.3087 20.8336 38.705 21.6261 38.705 22.4185C38.705 23.7393 38.0445 23.8714 37.6482 23.8714C37.384 23.8714 37.1198 24.0035 37.1198 24.2677C37.1198 24.3997 37.2519 24.5318 37.384 24.5318C37.384 24.5318 37.5161 24.5318 37.6482 24.5318C37.7803 24.5318 38.0445 24.3997 38.3087 24.3997C38.4408 24.3997 38.5729 24.3997 38.705 24.3997C39.1013 24.5318 39.4976 24.796 39.4976 25.1922C39.6297 25.5885 39.6297 26.1168 38.9692 26.9093C38.8371 27.0413 38.5729 27.3055 37.9124 27.4376C37.7803 27.4376 37.6482 27.5697 37.7803 27.7017C37.7803 27.8338 37.9124 27.8338 38.0445 27.8338H38.1766C39.1013 27.8338 39.7618 28.098 40.1581 28.3621C40.2902 28.4942 40.4223 28.7584 40.4223 28.8905C40.4223 29.2867 39.8939 29.4188 39.4976 29.5508C39.2334 29.6829 39.1013 29.6829 39.1013 29.815V29.9471L39.2334 30.0792H39.3655C39.3655 30.0792 39.4976 30.0792 39.6297 30.0792C39.8939 29.9471 40.1581 29.9471 40.2902 29.9471C40.4223 29.9471 40.4223 29.9471 40.4223 29.9471C40.5544 29.9471 40.5544 30.0792 40.5544 30.0792C40.5544 30.3433 40.2902 30.6075 39.4976 31.0037C39.1013 31.1358 38.3087 31.2679 37.384 31.2679C36.063 31.2679 34.3458 31.0037 34.0816 30.4754C33.9495 30.3433 34.0816 30.2112 34.2137 29.9471L34.3458 30.0792C35.2704 30.6075 36.4593 30.6075 37.1198 30.6075C37.5161 30.6075 37.9124 30.6075 38.0445 30.6075C38.1766 30.6075 38.4408 30.4754 38.4408 30.3433C38.4408 30.2112 38.3087 30.2112 38.1766 30.2112C38.1766 30.2112 38.1766 30.2112 38.0445 30.2112C37.9124 30.2112 37.6482 30.2112 37.5161 30.2112C36.5914 30.2112 35.7988 30.0792 34.8741 29.6829C34.3458 29.5508 33.4211 29.0225 33.289 28.7584C32.6285 28.2301 32.2322 27.1734 32.2322 26.1168C31.8359 24.1356 33.1569 22.5506 33.6853 21.8902Z" fill="#B8114F"/>
<path d="M52.047 45.1363L51.3865 45.0042C51.6507 43.8155 51.7828 42.6268 51.7828 41.306C51.7828 34.9662 47.6877 29.4188 41.7433 27.4376L42.0075 26.7772C48.3482 28.8905 52.5754 34.702 52.5754 41.306C52.5754 42.6268 52.4433 43.9476 52.047 45.1363Z" fill="#B8114F"/>
<path d="M22.4566 45.1363C22.1924 43.9476 21.9282 42.6268 21.9282 41.306C21.9282 35.0982 25.627 29.4188 31.4393 27.0414L31.7035 27.7018C26.1554 29.9471 22.5887 35.2303 22.5887 41.306C22.5887 42.4947 22.7208 43.8155 23.1171 45.0042L22.4566 45.1363Z" fill="#B8114F"/>
<path d="M33.5532 76.0427C33.4211 76.0427 33.4211 76.0427 33.289 76.1748C33.1569 76.3069 33.1569 76.3069 33.1569 76.439C33.1569 76.5711 33.1569 76.7031 33.289 76.8352C33.4211 76.9673 33.5532 76.9673 33.6853 77.0994L33.8174 76.9673C33.8174 76.8352 33.8174 76.8352 33.8174 76.7031C33.8174 76.571 33.8174 76.439 33.6853 76.3069C33.6853 76.1748 33.5532 76.0427 33.5532 76.0427Z" fill="#B8114F"/>
<path d="M36.0626 77.0992C35.7984 77.0992 35.6663 77.0992 35.5342 77.2313C35.4021 77.3634 35.27 77.4955 35.27 77.6276C35.27 77.7596 35.27 77.7596 35.4021 77.8917C35.5342 78.0238 35.5342 78.0238 35.6663 78.0238C35.7984 78.0238 36.0626 78.0238 36.1947 77.8917C36.3268 77.7596 36.591 77.7596 36.7231 77.4955C36.591 77.3634 36.4589 77.2313 36.3268 77.0992C36.3268 77.0992 36.1947 77.0992 36.0626 77.0992Z" fill="#B8114F"/>
<path d="M20.4099 73.3222L20.0745 74.3242L21.0766 74.6596L21.412 73.6576L20.4099 73.3222Z" fill="#B8114F"/>
<path d="M30.3828 76.703C30.1186 76.703 29.9865 76.703 29.8544 76.8351C29.7223 76.9672 29.5902 77.0992 29.5902 77.2313C29.5902 77.3634 29.5902 77.4955 29.7223 77.4955C29.8544 77.6276 29.8544 77.6276 29.9865 77.6276C30.1186 77.6276 30.3828 77.6276 30.5149 77.6276C30.647 77.6276 30.9112 77.4955 31.1754 77.3634C31.0433 77.2313 30.9112 77.0992 30.7791 76.9672C30.647 76.703 30.5149 76.703 30.3828 76.703Z" fill="#B8114F"/>
<path d="M59.1921 71.2252L58.228 71.658L58.6609 72.6219L59.625 72.1891L59.1921 71.2252Z" fill="#B8114F"/>
<path d="M55.6139 74.4578C55.6139 74.5898 55.4818 74.7219 55.6139 74.7219C55.6139 74.854 55.746 74.9861 56.0102 74.9861C56.1423 74.9861 56.4065 74.9861 56.5386 74.9861C56.8028 74.854 56.9349 74.7219 57.067 74.5898C57.1991 74.3257 57.1991 74.1936 57.1991 73.9294C57.1991 73.7974 57.067 73.7974 56.9349 73.6653C56.8028 73.6653 56.6707 73.6653 56.4065 73.6653C56.4065 73.7974 56.2744 73.7974 56.0102 74.0615C55.746 74.3257 55.6139 74.4578 55.6139 74.4578Z" fill="#B8114F"/>
<path d="M50.7261 74.3256L51.1224 75.9105C51.1224 75.9105 51.1224 76.0426 51.2545 76.0426H51.3866C51.5187 76.0426 51.6508 75.9105 51.7829 75.7784C51.915 75.6464 52.0471 75.3822 52.0471 75.2501L51.7829 74.0614L50.7261 74.3256Z" fill="#B8114F"/>
<path d="M43.0643 76.8351C42.8001 76.8351 42.668 76.9672 42.5359 77.0992C42.4038 77.2313 42.2717 77.3634 42.4038 77.4955C42.4038 77.6276 42.5359 77.6275 42.5359 77.7596C42.668 77.7596 42.8001 77.8917 42.8001 77.8917C42.9322 77.8917 43.1964 77.7596 43.3285 77.7596C43.4606 77.6275 43.7248 77.4955 43.8569 77.3634C43.7248 77.2313 43.5927 77.0992 43.4606 77.0992C43.3285 76.8351 43.1964 76.8351 43.0643 76.8351Z" fill="#B8114F"/>
<path d="M46.631 75.2502L46.7631 76.0427L45.7063 76.3069C45.5742 76.3069 45.5742 76.3069 45.5742 76.439V76.571C45.5742 76.571 45.5742 76.7031 45.7063 76.7031C45.7063 76.7031 45.8384 76.8352 45.9705 76.8352C45.9705 76.8352 46.1026 76.7031 46.2347 76.7031C46.3668 76.7031 46.4989 76.571 46.631 76.571L47.0273 76.9673H46.631C46.4989 76.9673 46.3668 77.0994 46.3668 77.0994C46.2347 77.2314 46.2347 77.2314 46.2347 77.3635C46.2347 77.4956 46.2347 77.4956 46.3668 77.4956C46.4989 77.4956 46.4989 77.4956 46.631 77.4956C46.8952 77.4956 47.1594 77.3635 47.2915 77.0994C47.5557 76.8352 47.6878 76.7031 47.8199 76.3069L47.5557 74.854L46.631 75.2502Z" fill="#B8114F"/>
<path d="M70.2768 69.3067C70.0126 68.7784 69.7484 68.3821 69.6163 67.8538C70.1447 67.4576 70.541 67.0613 71.0694 66.6651C72.5225 65.3443 71.7299 63.4952 70.9373 62.0423L70.8052 61.7782C70.4089 60.9857 70.541 60.3253 70.541 59.6649C70.541 59.0045 70.6731 58.4762 70.2768 58.0799C69.8805 57.6837 69.3521 57.5516 68.2953 57.6837C66.0497 57.8158 64.7287 59.6649 64.4645 62.8348C64.3324 62.9669 64.0682 62.9669 63.9361 63.0989C62.6151 63.7593 60.8978 64.2877 59.4447 64.6839C59.1805 64.816 58.9163 64.816 58.6521 64.9481C58.3879 65.0801 58.2558 65.0801 58.1237 65.2122C57.199 65.7405 57.8595 68.118 58.1237 68.9105C54.1607 71.6841 46.7632 73.5332 38.441 73.5332C38.1768 73.5332 37.9126 73.5332 37.5163 73.5332C37.2521 73.5332 36.9879 73.5332 36.5916 73.5332C28.2694 73.5332 20.8718 71.8162 16.9088 68.9105C17.173 67.9859 17.8335 65.7405 16.9088 65.2122C16.7767 65.0801 16.6446 65.0801 16.3804 64.9481C16.1162 64.9481 15.852 64.816 15.5878 64.6839C14.0027 64.2877 12.4175 63.7593 11.0965 63.0989C10.9644 62.9669 10.7002 62.9669 10.5681 62.8348C10.3039 59.6649 8.8508 57.8158 6.73721 57.6837C5.68042 57.6837 5.01993 57.8158 4.75573 58.0799C4.35943 58.4762 4.49153 59.0045 4.49153 59.6649C4.49153 60.3253 4.62363 61.1178 4.22733 61.7782L4.09523 62.0423C3.43474 63.4952 2.51005 65.3443 3.96314 66.6651C4.35943 67.0613 4.88783 67.4576 5.41622 67.8538C5.15203 68.3821 4.88783 68.9104 4.75573 69.3067C4.35943 70.0992 3.83104 71.0237 3.69894 71.9483C3.56684 72.3445 3.43474 75.2503 3.96314 75.5144C4.09524 75.5144 4.22733 75.5144 4.49153 75.2503C5.15203 73.9295 6.20882 72.6087 6.86931 72.6087C7.00141 72.6087 7.13351 72.6087 7.39771 72.8728C7.52981 73.137 7.66191 73.5332 7.79401 73.7974C7.92611 74.3257 8.0582 74.4578 8.3224 74.4578C8.5866 74.4578 8.5866 74.1936 8.5866 73.9295C8.5866 72.4766 8.9829 71.1558 9.37919 69.835C10.436 70.2312 11.3607 70.4954 12.4175 70.7596C12.4175 70.7596 12.4175 70.7596 12.5496 70.7596L12.4175 70.8916C12.1533 71.1558 11.6249 71.6841 11.6249 71.6841C11.3607 72.0804 11.2286 72.4766 11.2286 72.8728C11.2286 73.2691 11.4928 73.6653 11.8891 73.7974C17.5693 77.8919 26.9484 80.2693 36.9879 80.2693C37.2521 80.2693 37.5163 80.2693 37.9126 80.2693C38.1768 80.2693 38.5731 80.2693 38.8373 80.2693C48.8768 80.2693 58.1237 77.8919 63.9361 73.7974C64.3324 73.5332 64.4645 73.137 64.5966 72.8728C64.5966 72.4766 64.4645 72.0804 64.2003 71.6841C64.2003 71.6841 63.804 71.2879 63.4077 70.8916L63.2756 70.7596C63.2756 70.7596 63.2756 70.7596 63.4077 70.7596C64.4645 70.4954 65.3892 70.2312 66.446 69.835C66.8423 71.1558 67.2385 72.4766 67.2385 73.9295C67.2385 74.1936 67.2386 74.4578 67.5027 74.4578C67.7669 74.4578 67.899 74.3257 68.0311 73.7974C68.1632 73.5332 68.2953 73.137 68.4274 72.8728C68.5595 72.6087 68.8237 72.6087 68.9558 72.6087C69.6163 72.6087 70.6731 73.9295 71.3336 75.2503C71.4657 75.6465 71.7299 75.6465 71.862 75.5144C72.5225 75.2503 72.2583 72.3445 72.1262 71.9483C71.2015 71.0237 70.8052 70.2312 70.2768 69.3067ZM7.52981 73.2691C7.39771 73.0049 7.26561 72.8728 7.26561 72.6087C7.00141 72.0804 6.60512 72.0804 6.34092 72.0804C5.28413 72.0804 4.22733 73.6653 3.69894 74.7219C3.56684 74.0615 3.56684 72.4766 3.69894 71.9483C3.96314 71.0237 4.35943 70.2312 4.75573 69.4388C5.01993 68.9104 5.28412 68.5142 5.41622 67.9859C6.34092 68.6463 7.26561 69.1746 8.4545 69.5708C7.92611 70.8916 7.52981 72.0804 7.52981 73.2691ZM5.68042 58.3441C5.68042 58.212 5.68042 58.0799 6.20882 58.0799C8.5866 58.212 9.37919 60.4574 9.64339 62.4386C7.00141 60.9857 5.54832 59.1366 5.68042 58.3441ZM16.3804 67.7217C16.3804 67.8538 16.2483 68.118 16.2483 68.2501L16.1162 68.118C15.5878 67.7217 15.3236 67.4576 15.4557 67.0613C15.5878 66.7972 15.7199 66.6651 15.9841 66.6651C16.1162 66.6651 16.2483 66.6651 16.3804 66.6651C16.5125 66.6651 16.6446 66.6651 16.6446 66.6651L16.3804 67.7217ZM19.1545 74.7219C19.0224 74.4578 19.0224 74.1936 19.0224 74.0615C19.0224 74.0615 19.0224 74.0615 19.1545 74.0615H19.2866L19.5508 74.1936L19.9471 73.137L19.4187 73.0049L18.8903 72.7408L17.7014 75.5144L17.3051 74.9861L17.7014 74.0615H17.5693H17.4372C17.4372 74.0615 17.3051 74.0615 17.3051 73.9295L17.173 73.7974C17.173 73.9295 17.173 74.0615 17.0409 74.0615C16.9088 74.1936 16.7767 74.3257 16.6446 74.4578C16.5125 74.5899 16.2483 74.5899 16.1162 74.4578C15.852 74.3257 15.5878 74.0616 15.4557 73.6653C15.3236 73.2691 15.1915 72.8728 15.3236 72.3445H15.5878C15.5878 72.7408 15.5878 73.0049 15.7199 73.2691C15.852 73.5332 15.9841 73.7974 16.2483 73.7974C16.3804 73.7974 16.5125 73.7974 16.6446 73.7974C16.7767 73.7974 16.9088 73.6653 16.9088 73.5332C16.9088 73.5332 16.9088 73.4012 16.9088 73.2691C16.9088 73.137 16.9088 73.137 16.7767 73.0049C16.6446 73.0049 16.3804 73.0049 16.1162 73.0049V72.4766C16.3804 72.6087 16.5125 72.6087 16.7767 72.6087C17.0409 72.6087 17.173 72.4766 17.173 72.3445C17.173 72.2124 17.173 72.2124 17.173 72.0804C17.173 71.9483 17.0409 71.9483 17.0409 71.9483C16.9088 71.8162 16.6446 71.8162 16.5125 71.8162C16.3804 71.8162 16.2483 71.8162 15.9841 71.9483L15.852 71.42C15.9841 71.42 16.1162 71.2879 16.3804 71.2879C16.5125 71.2879 16.7767 71.2879 16.9088 71.42C17.0409 71.552 17.173 71.6841 17.3051 72.0804C17.4372 72.4766 17.4372 72.6087 17.4372 72.8728C17.4372 73.0049 17.3051 73.0049 17.3051 73.137C17.173 73.137 17.173 73.2691 17.0409 73.2691C17.0409 73.4012 17.173 73.4012 17.173 73.6653C17.173 73.6653 17.3051 73.7974 17.4372 73.7974C17.5693 73.7974 17.7014 73.7974 17.7014 73.7974C17.8335 73.7974 17.9656 73.7974 17.9656 73.6653L18.3619 72.6087L17.9656 72.4766L17.7014 71.8162L19.2866 72.4766L22.457 73.5332L25.4953 74.3257L25.6274 74.854L25.099 74.7219L24.3064 77.6277L23.9101 77.0994L24.3064 75.5144L23.2496 75.2503C23.1175 75.2503 23.1175 75.2503 22.9854 75.2503C22.8533 75.3823 22.8533 75.5144 22.8533 75.6465C22.8533 75.9107 22.8533 76.0427 22.8533 76.3069C22.8533 76.5711 22.9854 76.8352 23.1175 76.9673L22.8533 77.0994C22.5891 76.7031 22.457 76.3069 22.3249 76.0427C22.1928 75.7786 22.1928 75.5144 22.1928 75.2503C22.1928 75.1182 22.3249 74.854 22.457 74.854C22.5891 74.722 22.7212 74.7219 22.9854 74.7219L24.3064 75.1182L24.4385 74.4578L22.457 73.9295H22.3249L21.9286 73.7974L21.0039 76.3069H21.136L21.2681 76.7031L20.7397 76.5711C20.6076 76.5711 20.4755 76.5711 20.3434 76.5711C20.2113 76.7031 20.0792 76.7031 20.0792 76.9673C20.0792 77.0994 20.0792 77.0994 20.0792 77.2315C20.0792 77.3635 20.2113 77.3635 20.3434 77.3635C20.4755 77.3635 20.6076 77.3635 20.7397 77.3635C20.8718 77.3635 21.0039 77.3635 21.136 77.2315L21.2681 77.7598C21.136 77.7598 21.0039 77.8919 20.8718 77.8919C20.7397 77.8919 20.4755 77.8919 20.3434 77.7598C20.2113 77.7598 19.9471 77.4956 19.9471 77.2315C19.815 76.9673 19.815 76.7031 19.815 76.439C19.815 76.3069 19.9471 76.1748 20.0792 76.0427C20.2113 76.0427 20.3434 76.0427 20.3434 76.0427L20.2113 75.9107L20.6076 74.854L19.6829 74.5899L19.5508 74.854C19.5508 74.9861 19.5508 74.9861 19.4187 74.9861H19.2866L19.1545 74.7219ZM37.3842 76.1748V79.2126L36.8558 78.8164V78.156C36.7237 78.2881 36.5916 78.2881 36.4595 78.4202C36.1953 78.4202 36.0632 78.4202 35.9311 78.4202C35.6669 78.4202 35.4027 78.2881 35.1385 78.0239C34.8743 77.7598 34.7422 77.4956 34.7422 77.3635C34.7422 77.0994 34.8743 76.9673 35.0064 76.8352C35.1385 76.7031 35.4027 76.5711 35.6669 76.5711C35.9311 76.5711 36.0632 76.7031 36.3274 76.7031C36.5916 76.8352 36.7237 76.9673 36.8558 77.2315V76.0427H34.6101H33.8175C33.9496 76.1748 34.0817 76.3069 34.2138 76.439C34.3459 76.5711 34.3459 76.8352 34.3459 76.9673C34.3459 77.2315 34.2138 77.3635 34.0817 77.6277C33.9496 77.8919 33.6854 78.0239 33.4212 78.156L34.0817 79.0806L33.8175 79.3447L33.2891 78.2881C33.2891 78.2881 33.2891 78.2881 33.157 78.2881H33.0249C32.8928 78.2881 32.7607 78.156 32.6286 78.0239C32.4965 77.8919 32.4965 77.7598 32.4965 77.6277C32.4965 77.4956 32.4965 77.4956 32.6286 77.3635C32.6286 77.3635 32.7607 77.2315 32.8928 77.2315C33.0249 77.2315 33.0249 77.2315 33.157 77.3635C33.2891 77.3635 33.2891 77.4956 33.2891 77.6277C33.4212 77.6277 33.4212 77.4956 33.5533 77.4956C33.6854 77.3635 33.6854 77.3635 33.8175 77.2315C33.4212 77.2315 33.157 77.0994 33.0249 76.8352C32.7607 76.7031 32.7607 76.439 32.7607 76.1748V76.0427L32.8928 75.9107H32.4965L31.836 75.7786L31.4397 78.8164L30.9113 78.4202L31.0434 77.7598C30.9113 77.8919 30.7792 77.8919 30.6471 77.8919C30.515 77.8919 30.3829 77.8919 30.2508 77.8919C29.9866 77.8919 29.7224 77.7598 29.4582 77.4956C29.194 77.2315 29.0619 76.9673 29.194 76.7031C29.194 76.5711 29.3261 76.3069 29.4582 76.1748C29.5903 76.0427 29.8545 76.0427 30.1187 76.0427C30.3829 76.0427 30.515 76.1748 30.6471 76.3069C30.7792 76.439 31.0434 76.5711 31.0434 76.8352L31.1755 75.6465L28.9298 75.3823L28.5335 75.2503L28.1373 78.4202L27.6089 78.0239L28.1373 75.3823L27.6089 75.2503L27.3447 74.7219L28.4014 74.854C28.4014 74.722 28.2693 74.5899 28.2693 74.4578C28.2693 74.3257 28.2693 74.1936 28.2693 74.1936C28.2693 73.9295 28.5335 73.6653 28.6656 73.5332C28.7977 73.4012 29.194 73.2691 29.4582 73.4011C29.7224 73.4011 29.9866 73.6653 30.2508 73.9295C30.515 74.1936 30.7792 74.7219 31.0434 75.1182L30.9113 75.2503C30.7792 74.854 30.515 74.5899 30.2508 74.3257C29.9866 74.0616 29.7224 73.9295 29.5903 73.9295C29.3261 73.9295 29.194 73.9295 28.9298 74.0615C28.7977 74.1936 28.6656 74.3257 28.5335 74.5899C28.5335 74.7219 28.5335 74.854 28.5335 74.9861L28.9298 75.1182L32.1002 75.5144L34.3459 75.6465H37.5163L37.7805 76.0427L37.3842 76.1748ZM58.2558 66.7972C58.3879 66.7972 58.52 66.7972 58.6521 66.7972C58.9163 66.7972 59.0484 66.9293 59.1805 67.1934C59.3126 67.5897 59.0484 67.8538 58.52 68.2501L58.3879 68.3821C58.3879 68.2501 58.2558 67.9859 58.2558 67.8538C58.1237 67.5897 58.1237 67.1934 57.9916 66.9293C58.1237 66.7972 58.1237 66.7972 58.2558 66.7972ZM58.9163 73.4011C58.9163 73.5332 58.9163 73.5332 58.9163 73.6653C58.9163 73.7974 58.9163 73.7974 58.7842 73.7974C58.6521 73.9295 58.3879 73.7974 58.1237 73.6653C57.8595 73.5332 57.5953 73.4012 57.5953 73.2691V73.137L57.7274 73.0049L57.9916 72.8728L57.5953 71.8162L57.0669 72.0804H56.9348L56.0101 72.4766C56.1422 72.6087 56.2743 72.6087 56.4064 72.7408C56.5385 72.8728 56.5385 72.8728 56.5385 73.0049C56.5385 73.137 56.5385 73.137 56.5385 73.2691C56.5385 73.4012 56.4064 73.5332 56.4064 73.5332C56.6706 73.5332 56.9348 73.5332 57.199 73.5332C57.4632 73.6653 57.5953 73.7974 57.5953 73.9295C57.7274 74.1936 57.7274 74.4578 57.4632 74.7219C57.3311 74.9861 57.0669 75.2503 56.8027 75.2503C56.5385 75.3823 56.1422 75.2503 55.7459 75.1182C55.3496 74.854 55.0854 74.7219 54.9533 74.3257C54.9533 74.1936 54.9533 74.0615 54.9533 73.9295C55.0854 73.7974 55.2175 73.6653 55.3496 73.5332C55.4817 73.4012 55.6138 73.2691 55.7459 73.137C55.878 73.0049 55.878 72.8728 55.7459 72.7408C55.7459 72.6087 55.6138 72.6087 55.6138 72.4766L55.4817 72.3445L54.2928 73.137L53.8966 73.2691L54.8212 76.1748L54.1607 76.0427L53.2361 73.5332L52.8398 73.6653L52.3114 73.7974L53.104 76.7031L52.4435 76.5711V75.7786C52.4435 75.9107 52.3114 75.9107 52.3114 76.0427C52.1793 76.0427 52.1793 76.1748 52.0472 76.1748C51.783 76.3069 51.5188 76.1748 51.2546 76.0427C50.8583 76.0427 50.5941 75.7786 50.5941 75.6465L50.1978 74.4578L49.8015 74.5899L49.4052 74.7219L50.0657 77.6277L49.4052 77.3635L48.7447 74.7219L48.3484 74.854L47.9521 74.9861L48.4805 78.0239L47.9521 77.7598L47.82 77.2315C47.6879 77.3635 47.5558 77.4956 47.4237 77.6277C47.2916 77.7598 47.0274 77.7598 46.7632 77.8919C46.499 77.8919 46.2348 77.8919 45.9706 77.7598C45.7064 77.6277 45.5743 77.4956 45.4422 77.2315V77.0994C45.4422 77.0994 45.4422 76.9673 45.5743 76.9673C45.4422 76.9673 45.178 76.8352 45.178 76.7031C45.0459 76.5711 45.0459 76.439 44.9138 76.3069C44.9138 76.1748 44.9138 76.0427 45.0459 75.9107C45.3101 75.9107 45.3101 75.7786 45.5743 75.7786L46.2348 75.6465V75.2503L44.7817 75.5144H44.3854L44.7817 78.5523L43.9891 78.4202L43.857 77.7598C43.7249 77.8919 43.5928 78.0239 43.4607 78.0239C43.3286 78.156 43.1965 78.156 43.0644 78.156C42.8002 78.156 42.536 78.156 42.2718 77.8919C42.0076 77.6277 41.8755 77.4956 41.7434 77.2315C41.7434 77.0994 41.7434 76.8352 41.8755 76.7031C42.0076 76.5711 42.2718 76.439 42.4039 76.439C42.6681 76.439 42.8002 76.439 43.0644 76.5711C43.3286 76.7031 43.4607 76.8352 43.5928 76.9673L43.4607 75.7786L41.2151 76.0427H40.8188L41.083 79.0806L40.5546 78.8164L40.4225 76.1748H39.8941L39.4978 75.7786L40.5546 75.6465C40.4225 75.5144 40.4225 75.3823 40.2904 75.2503C40.2904 75.1182 40.1583 75.1182 40.1583 74.9861C40.1583 74.7219 40.2904 74.4578 40.4225 74.1936C40.6867 73.9295 40.8188 73.7974 41.2151 73.7974C41.4793 73.7974 41.7434 73.9295 42.1397 74.1936C42.536 74.4578 42.8002 74.7219 43.1965 75.2503L43.0644 75.3823C42.8002 75.1182 42.536 74.854 42.2718 74.5899C42.0076 74.4578 41.7434 74.3257 41.4792 74.3257C41.215 74.3257 41.0829 74.4578 40.8188 74.5899C40.6867 74.7219 40.5546 74.9861 40.5546 75.2503C40.5546 75.3823 40.5546 75.5144 40.5546 75.6465H40.9509L44.1212 75.2503L47.6879 74.5899L49.2731 74.1936L51.9151 73.4011L52.9719 73.0049C52.8398 72.7408 52.5756 72.4766 52.3114 72.3445C52.0472 72.2124 51.9151 72.2124 51.6509 72.2124C51.5188 72.2124 51.3867 72.3445 51.3867 72.4766C51.3867 72.6087 51.3867 72.7408 51.3867 73.0049C51.3867 73.0049 51.3867 73.137 51.5188 73.2691C51.5188 73.4012 51.6509 73.4011 51.6509 73.4011L51.5188 73.5332C51.3867 73.4012 51.2546 73.4012 51.2546 73.2691C51.1225 73.137 51.1225 73.0049 50.9904 72.8728C50.8583 72.6087 50.9904 72.4766 50.9904 72.2124C51.1225 71.9483 51.2546 71.8162 51.3867 71.8162C51.6509 71.6841 51.9151 71.8162 52.3114 71.9483C52.7077 72.2124 52.9719 72.4766 53.104 72.8728L53.5003 72.7408L56.2743 71.6841L59.3126 70.3633L59.7089 70.6275L59.1805 70.8916L60.3694 73.6653L59.7089 73.5332L59.1805 72.4766L58.2558 72.8728L58.9163 73.4011ZM61.9546 74.4578L61.0299 74.1936C61.0299 74.1936 60.8978 74.1936 60.7657 74.1936H60.6336C60.6336 74.1936 60.5015 74.1936 60.5015 74.3257L60.3694 74.4578L59.9731 74.1936C59.9731 74.1936 60.1052 74.0615 60.1052 73.9295L60.2373 73.7974H60.3694H60.5015L61.9546 74.1936V74.4578ZM64.8608 62.4386C65.125 60.4574 65.9176 58.212 68.2953 58.0799C68.8237 58.0799 68.8237 58.3441 68.8237 58.3441C68.9558 59.1366 67.5027 60.9857 64.8608 62.4386ZM70.9373 74.854C70.4089 73.7974 69.22 72.2124 68.2953 72.2124C68.0311 72.2124 67.6348 72.2124 67.3706 72.7408C67.2385 72.8728 67.1064 73.137 67.1064 73.4011C66.9743 72.0804 66.5781 70.8916 66.1818 69.835C67.2385 69.4388 68.2953 68.9105 69.22 68.2501C69.4842 68.7784 69.6163 69.1746 69.8805 69.7029C70.2768 70.4954 70.6731 71.42 70.9373 72.2124C71.0694 72.6087 71.0694 74.1936 70.9373 74.854Z" fill="#B8114F"/>
</svg>
