<svg width="86" height="84" viewBox="0 0 86 84" fill="none" xmlns="http://www.w3.org/2000/svg">
<path d="M0.974322 36.6545C2.02988 28.7269 5.105 21.6633 10.2031 15.306C10.3926 15.1658 10.4273 15.1145 10.4456 15.0521C12.2112 13.2612 13.9768 11.4703 15.8862 9.6007C16.0299 9.52199 16.1131 9.39907 16.1131 9.39907C22.2559 4.43982 29.1429 1.18831 37.3377 0.290162C38.0613 0.210858 38.4963 0.117185 38.9313 0.023513C41.5653 0.0069637 44.1993 -0.00958593 47.0593 0.0789186C47.6986 0.151475 48.1119 0.118977 48.5252 0.0864784C58.9067 1.47145 67.6862 6.00195 74.7091 13.7482C80.6268 20.2754 84.2207 27.9423 85.2243 36.756C85.2774 37.2223 85.4065 37.6799 85.4037 38.3845C85.3739 39.2636 85.4407 39.8997 85.5075 40.5358C85.5218 41.3862 85.5362 42.2366 85.443 43.3347C85.2906 43.9952 85.2457 44.4081 85.1016 44.7796C84.7187 44.5212 84.435 44.3043 84.1467 43.9225C84.1421 41.513 84.1421 39.2684 84.1421 37.0238C84.0651 37.018 83.9881 37.0123 83.9112 37.0065C83.8535 37.3827 83.7958 37.7589 83.6763 38.0039C82.6497 29.6467 79.6785 22.2829 74.2834 15.9321C68.5215 9.14958 61.317 4.65399 52.6772 2.67031C43.8156 0.635704 35.14 1.23831 26.774 5.1614C15.7995 10.3077 8.2725 18.5462 4.71019 30.0993C-0.250468 46.1874 5.46738 63.4363 18.9273 73.7131C22.4696 76.4178 26.3985 78.355 30.4267 79.9835C35.7382 82.1308 41.5334 81.6938 47.1513 82.1106C47.4876 82.1356 47.8398 81.9986 48.1795 81.9162C49.0748 81.699 49.9619 81.4456 50.862 81.2522C52.2214 80.96 53.6248 80.8202 54.9441 80.407C56.5091 79.9168 58.0049 79.2054 59.6394 78.6401C60.2828 79.1432 60.8176 79.5961 61.3523 80.049C57.4247 82.1566 53.1441 83.0973 48.5787 83.7765C47.946 83.7782 47.5396 83.848 47.1332 83.9178C44.5001 83.9327 41.8669 83.9476 39.0316 83.8676C38.6336 83.8082 38.4377 83.8437 38.2418 83.8792C30.0186 83.0024 22.7426 79.8578 16.1939 74.5914C16.0865 74.468 15.9618 74.3885 15.9618 74.3885C14.1643 72.6266 12.3669 70.8648 10.4877 68.9517C10.3707 68.7449 10.3208 68.7102 10.2564 68.6964C5.149 62.5344 2.18989 55.4294 1.04623 47.3344C1.04886 46.7048 0.982159 46.2987 0.915459 45.8925C0.854976 45.5667 0.794492 45.2409 0.618897 44.8655C0.503784 43.0285 0.503784 41.2412 0.503784 39.2877C0.626505 38.8447 0.749225 38.5678 0.973985 38.0907C1.04212 37.4785 1.00822 37.0665 0.974322 36.6545Z" fill="#F9981B"/>
<path d="M84.1515 44.087C84.4353 44.3038 84.719 44.5207 85.171 44.7844C85.3392 44.8312 85.4773 44.8407 85.4773 44.8407C84.8777 53.0135 82.311 60.487 77.4859 67.1399C73.3464 72.8474 68.0457 77.1441 61.4835 80.0448C60.8178 79.5956 60.2831 79.1427 59.7225 78.5471C64.7765 76.2553 69.1355 73.0758 72.8819 69.059C79.4539 62.0124 82.9712 53.6206 83.8551 44.0669C84.0191 44.0852 84.0853 44.0861 84.1515 44.087Z" fill="#CD7B2E"/>
<path d="M85.5329 40.3865C85.4407 39.8992 85.3739 39.2631 85.3858 38.5303C85.4957 39.0349 85.527 39.6362 85.5329 40.3865Z" fill="#F89A25"/>
<path d="M47.2716 83.9412C47.5394 83.8475 47.9458 83.7778 48.437 83.7794C48.1513 83.889 47.7807 83.9271 47.2716 83.9412Z" fill="#F89A25"/>
<path d="M38.7945 0C38.4964 0.116583 38.0614 0.210255 37.4829 0.288957C37.7788 0.175021 38.2182 0.0760558 38.7945 0Z" fill="#F89A25"/>
<path d="M48.3906 0.0454973C48.1121 0.11807 47.6987 0.150568 47.2103 0.101085C47.5088 0.014544 47.8823 0.00998398 48.3906 0.0454973Z" fill="#F89A25"/>
<path d="M0.936467 36.7889C1.00822 37.0658 1.04212 37.4779 0.995723 37.966C0.909826 37.6694 0.904222 37.2967 0.936467 36.7889Z" fill="#F89A25"/>
<path d="M0.891235 46.0302C0.982063 46.2981 1.04876 46.7042 1.04417 47.1947C0.937627 46.9088 0.902367 46.5386 0.891235 46.0302Z" fill="#F89A25"/>
<path d="M85.5078 44.6987C85.4769 44.8407 85.3388 44.8312 85.2697 44.8259C85.2455 44.4077 85.2904 43.9948 85.4214 43.4923C85.5179 43.7874 85.5283 44.172 85.5078 44.6987Z" fill="#F89A25"/>
<path d="M38.3542 83.9118C38.4376 83.8428 38.6335 83.8074 38.8806 83.8424C38.7769 83.9237 38.6218 83.9345 38.3542 83.9118Z" fill="#F89A25"/>
<path d="M10.3909 15.0552C10.4266 15.1135 10.392 15.1647 10.2988 15.2229C10.2356 15.1593 10.2624 15.0986 10.3909 15.0552Z" fill="#F89A25"/>
<path d="M16.0662 9.39368C16.1126 9.39836 16.0296 9.52089 15.9948 9.53432C15.9324 9.47678 15.9524 9.42387 16.0662 9.39368Z" fill="#F89A25"/>
<path d="M10.2582 68.7491C10.3205 68.7095 10.3702 68.7441 10.4247 68.8416C10.3625 68.9019 10.3012 68.8748 10.2582 68.7491Z" fill="#F89A25"/>
<path d="M15.9587 74.4344C15.9618 74.3881 16.0861 74.4674 16.0995 74.5018C16.1128 74.5361 16.0211 74.5456 16.0211 74.5456C16.0211 74.5456 15.9556 74.4807 15.9587 74.4344Z" fill="#F89A25"/>
<path d="M83.7571 44.0491C82.9711 53.6203 79.4537 62.0121 72.8817 69.0587C69.1354 73.0755 64.7763 76.2551 59.6136 78.4966C58.005 79.2046 56.5092 79.9161 54.9442 80.4062C53.6249 80.8194 52.2215 80.9592 50.8621 81.2514C49.962 81.4448 49.0748 81.6983 48.1796 81.9154C47.8399 81.9978 47.4877 82.1348 47.1513 82.1099C41.5335 81.6931 35.7383 82.13 30.4268 79.9828C26.3985 78.3543 22.4697 76.417 18.9273 73.7123C5.46745 63.4355 -0.250396 46.1866 4.71026 30.0985C8.27257 18.5454 15.7996 10.3069 26.7741 5.16062C35.1401 1.23754 43.8157 0.63493 52.6773 2.66954C61.3171 4.65322 68.5216 9.14881 74.2835 15.9314C79.6786 22.2821 82.6498 29.6459 83.6597 38.1623C83.7223 40.3182 83.7397 42.1837 83.7571 44.0491ZM82.4148 41.6752C82.3283 40.3785 82.2656 39.0797 82.1516 37.7854C81.2374 27.4046 76.4125 19.0446 68.736 12.2418C65.7348 9.58227 62.4402 7.32571 58.4744 6.20409C56.1257 5.53983 53.8457 4.63267 51.295 3.67178C47.7689 3.43107 44.2439 3.0363 40.7163 3.01192C38.8334 2.9989 36.946 3.6254 34.7819 3.88262C32.8525 4.56646 30.956 5.37008 28.9874 5.91098C23.7481 7.35052 19.6454 10.5686 15.841 14.2156C11.0974 18.7629 7.96168 24.2904 6.01156 30.5706C3.59171 38.3635 3.65898 46.152 6.24543 53.7887C9.83494 64.3872 16.802 72.0737 27.0049 76.9021C33.2101 79.8388 39.6721 80.8317 46.4034 80.3735C48.5295 80.2287 50.6301 79.589 52.7212 79.0875C54.5582 78.6469 56.3654 78.0827 58.4392 77.5542C60.6313 76.4052 62.9546 75.4498 64.9909 74.0707C70.9798 70.0144 75.5963 64.8105 78.6748 58.1252C81.0621 52.9411 82.3599 47.6524 82.4148 41.6752Z" fill="#FDF1E7"/>
<path d="M83.8548 44.0669C83.7396 42.1839 83.7222 40.3184 83.7214 38.2938C83.7958 37.7584 83.8534 37.3822 83.9111 37.006C83.9881 37.0117 84.0651 37.0175 84.1421 37.0233C84.1421 39.2679 84.1421 41.5125 84.1467 43.922C84.085 44.0861 84.0188 44.0852 83.8548 44.0669Z" fill="#F89405"/>
<path d="M51.5348 3.83486C53.8457 4.63279 56.1256 5.53995 58.4743 6.20421C62.4402 7.32582 65.7348 9.58239 68.7359 12.2419C76.4124 19.0447 81.2374 27.4047 82.1516 37.7855C82.2656 39.0798 82.3283 40.3786 82.2613 41.8183C81.562 41.6254 80.9555 41.3588 80.4799 40.9427C77.3325 38.1892 74.2002 35.4181 71.0873 32.6257C63.8939 26.1729 56.7273 19.6901 49.5153 13.2582C48.4307 12.291 47.1602 11.5322 45.8727 10.6194C44.8849 9.4973 44.0003 8.43287 42.8742 7.07792C38.9025 13.3283 35.0539 19.3849 31.1397 25.5446C31.5945 25.5446 31.9022 25.6085 32.1719 25.5345C34.4798 24.9014 36.7479 23.9278 39.0932 23.6841C41.2967 23.4551 43.7607 23.5218 45.7816 24.3054C48.3171 25.2887 49.9992 27.5315 50.956 30.229C53.5159 37.446 49.15 44.543 41.8973 44.8892C39.5255 45.0024 37.9096 43.7938 36.8632 41.883C35.7479 39.8465 35.6064 37.6875 36.9279 35.4209C37.3087 36.2518 37.5589 36.9154 37.9029 37.5262C38.9585 39.4005 40.4738 40.513 42.7198 40.6755C45.9053 40.906 48.531 38.4485 49.4949 35.3013C50.4891 32.0557 48.4997 27.3638 45.6608 26.1439C38.6609 23.136 30.4967 27.7455 29.4405 35.0179C29.2677 36.2076 29.2559 37.4206 29.1554 38.8224C28.184 37.9422 27.3604 37.2503 26.5982 36.4965C22.1206 32.0682 21.0151 32.0238 16.2147 36.2178C16.714 36.3604 17.1427 36.5106 17.5835 36.6032C18.6706 36.8317 19.9342 36.7587 20.8162 37.3069C22.3792 38.2784 23.7454 39.583 25.1322 40.8176C26.8491 42.3461 28.5032 43.9453 30.1881 45.5652C30.2295 45.6882 30.2875 45.7137 30.4467 45.7921C31.4391 46.7168 32.3504 47.5424 33.2 48.4817C30.8851 48.9583 31.316 50.8145 30.9672 52.3599C30.83 53.0918 30.8033 53.7623 30.8016 54.5656C30.7954 54.9657 30.7641 55.233 30.6389 55.5804C30.5032 55.9832 30.4614 56.306 30.4294 56.6917C30.4393 56.7546 30.457 56.8806 30.3653 56.9404C30.3718 57.2818 30.4622 57.5669 30.5812 57.8394C30.5918 57.8636 30.7891 57.8062 30.8997 57.7867C30.8524 57.5209 30.8051 57.2551 30.8762 56.9494C31.4421 56.1583 31.9119 55.4192 32.3328 54.6533C33.3142 52.8674 33.4842 53.0334 35.1938 54.2186C38.8027 56.7207 39.4909 60.9895 42.0126 64.3585C40.9922 64.5391 40.2567 64.7317 39.5106 64.7899C37.1397 64.9749 35.3487 66.2624 33.826 67.9017C32.1948 69.6578 32.1115 71.9267 33.5099 73.7433C35.1978 75.9361 37.6977 76.9865 40.2508 77.0189C44.5599 77.0737 48.5676 74.2027 48.7207 69.3986C49.7455 70.141 50.6822 70.8341 51.5513 71.6034C53.7788 73.5753 55.9763 75.581 58.1858 77.5732C56.3654 78.0828 54.5581 78.647 52.7212 79.0876C50.6301 79.5891 48.5295 80.2288 46.4034 80.3736C39.6721 80.8318 33.2101 79.8389 27.0049 76.9023C16.802 72.0738 9.83489 64.3873 6.24538 53.7889C3.65894 46.1521 3.59167 38.3636 6.01151 30.5707C7.96163 24.2905 11.0973 18.7631 15.8409 14.2158C19.6453 10.5688 23.748 7.35064 28.9873 5.9111C30.956 5.3702 32.8524 4.56658 35.018 4.01247C35.4862 4.17378 35.7314 4.27093 35.9481 4.22723C40.204 3.36932 44.4736 3.26279 48.7751 3.86218C49.6763 3.98775 50.6139 3.85082 51.5348 3.83486Z" fill="#F7971F"/>
<path d="M58.3124 77.5639C55.9762 75.5811 53.7788 73.5754 51.5512 71.6035C50.6821 70.8342 49.7454 70.1411 48.6948 69.2501C48.4408 68.2389 48.3316 67.391 48.1995 66.3653C49.3915 66.6852 50.3719 66.9483 51.3523 67.2113C51.4256 67.0544 51.4989 66.8974 51.5723 66.7404C51.0401 66.4276 50.528 66.0717 49.971 65.8121C49.1788 65.4428 48.0003 65.3745 47.6078 64.7727C46.3557 62.8526 45.1029 60.8417 44.3813 58.6881C43.282 55.4073 44.4431 54.0993 47.6966 54.3805C49.1296 54.5043 49.7135 55.2617 49.1355 56.6249C48.7159 57.6148 47.9185 58.4446 47.2533 59.3976C48.2812 60.8675 49.9102 61.0559 51.4518 60.6212C52.2415 60.3986 53.0748 59.4292 53.3902 58.6063C54.1264 56.6857 53.3473 54.6199 51.5464 53.5023C50.5216 52.8664 49.3014 52.5454 48.1226 51.9594C47.6025 51.6052 47.1289 51.3743 46.7763 51.0703C47.666 50.7888 48.4716 50.667 49.1978 50.3583C53.7041 48.4429 57.0333 44.999 60.407 41.6221C62.8408 39.1861 65.275 36.7651 69.2935 36.9919C68.7534 35.1154 67.3601 34.3636 65.9577 33.8976C62.4844 32.7434 60.8338 35.6845 58.6822 37.5223C58.4484 35.6621 58.3058 33.9147 57.9987 32.1968C57.0129 26.6829 54.069 22.119 50.8669 17.6808C49.201 15.3718 47.6039 13.0133 45.9757 10.6771C47.1602 11.5323 48.4307 12.2911 49.5152 13.2583C56.7272 19.6902 63.8939 26.173 71.0872 32.6258C74.2001 35.4182 77.3324 38.1893 80.4798 40.9428C80.9555 41.3589 81.5619 41.6256 82.2338 41.9778C82.3598 47.6526 81.062 52.9413 78.6747 58.1254C75.5962 64.8107 70.9797 70.0146 64.9908 74.0709C62.9545 75.4501 60.6312 76.4054 58.3124 77.5639Z" fill="#C97629"/>
<path d="M51.415 3.75338C50.6141 3.85083 49.6764 3.98775 48.7753 3.86219C44.4738 3.26279 40.2042 3.36933 35.9483 4.22723C35.7315 4.27093 35.4863 4.17379 35.1576 4.05281C36.9462 3.62553 38.8335 2.99902 40.7164 3.01204C44.244 3.03643 47.769 3.4312 51.415 3.75338Z" fill="#F89C2A"/>
<path d="M45.8727 10.6195C47.6039 13.0133 49.2011 15.3718 50.8669 17.6808C54.069 22.119 57.013 26.6829 57.9987 32.1967C58.3059 33.9147 58.4485 35.6621 58.6823 37.5223C60.8338 35.6845 62.4845 32.7434 65.9577 33.8976C67.3602 34.3636 68.7534 35.1154 69.2936 36.9919C65.275 36.765 62.8408 39.1861 60.4071 41.6221C57.0333 44.999 53.7042 48.4429 49.1978 50.3583C48.4716 50.6669 47.6661 50.7888 46.6561 51.0523C46.1808 51.1676 45.9467 51.2276 45.6146 51.2669C45.4574 51.2775 45.3983 51.3087 45.2049 51.3204C44.8021 51.3315 44.5337 51.362 44.1103 51.3468C42.1653 51.1016 40.3754 50.902 38.5518 50.5906C37.2532 49.7855 36.0106 49.0453 34.7099 48.4271C34.3085 48.2363 33.7489 48.3783 33.2618 48.368C32.3504 47.5425 31.4391 46.7169 30.4214 45.7583C30.3151 45.6253 30.1844 45.514 30.1844 45.514C28.5032 43.9454 26.8491 42.3462 25.1322 40.8177C23.7454 39.5831 22.3792 38.2785 20.8162 37.307C19.9342 36.7588 18.6706 36.8318 17.5834 36.6033C17.1427 36.5107 16.714 36.3605 16.2147 36.2179C21.0151 32.0239 22.1206 32.0683 26.5982 36.4965C27.3604 37.2504 28.1839 37.9423 29.1553 38.8225C29.2559 37.4207 29.2677 36.2077 29.4405 35.018C30.4967 27.7456 38.6608 23.1361 45.6608 26.144C48.4997 27.3639 50.4891 32.0558 49.4949 35.3014C48.5309 38.4486 45.9053 40.9061 42.7198 40.6756C40.4738 40.5131 38.9585 39.4006 37.9029 37.5263C37.5589 36.9155 37.3087 36.2519 36.9279 35.421C35.6064 37.6876 35.7479 39.8466 36.8631 41.8831C37.9096 43.7939 39.5255 45.0025 41.8973 44.8893C49.15 44.5431 53.5159 37.4461 50.956 30.2291C49.9992 27.5316 48.3171 25.2888 45.7816 24.3055C43.7607 23.5218 41.2967 23.4552 39.0932 23.6842C36.7479 23.9279 34.4797 24.9015 32.1719 25.5346C31.9021 25.6086 31.5945 25.5447 31.1397 25.5447C35.0538 19.385 38.9024 13.3284 42.8742 7.078C44.0003 8.43296 44.8849 9.49739 45.8727 10.6195Z" fill="#FEFCFB"/>
<path d="M33.2 48.4817C33.749 48.3782 34.3086 48.2362 34.71 48.427C36.0106 49.0451 37.2532 49.7854 38.4195 50.6359C38.3089 51.1504 38.1418 51.6442 38.3138 51.8398C38.8694 52.4716 39.5498 52.9937 40.2429 53.6123C40.8487 53.2501 41.4911 52.866 42.2768 52.4274C44.3365 52.276 46.2529 52.1792 48.1692 52.0825C49.3015 52.5453 50.5217 52.8662 51.5465 53.5022C53.3474 54.6197 54.1265 56.6856 53.3903 58.6062C53.0749 59.429 52.2416 60.3985 51.4519 60.6211C49.9103 61.0557 48.2813 60.8674 47.2534 59.3975C47.9186 58.4445 48.716 57.6147 49.1356 56.6248C49.7136 55.2615 49.1297 54.5042 47.6967 54.3804C44.4432 54.0992 43.2821 55.4072 44.3814 58.6879C45.103 60.8416 46.3558 62.8524 47.6079 64.7726C48.0003 65.3744 49.1789 65.4426 49.9711 65.812C50.528 66.0716 51.0402 66.4274 51.5724 66.7403C51.499 66.8973 51.4257 67.0542 51.3524 67.2112C50.372 66.9482 49.3916 66.6851 48.1996 66.3652C48.3317 67.3908 48.4409 68.2388 48.576 69.2354C48.5676 74.2027 44.5599 77.0736 40.2508 77.0189C37.6977 76.9865 35.1979 75.9361 33.5099 73.7433C32.1116 71.9267 32.1948 69.6577 33.826 67.9017C35.3487 66.2624 37.1397 64.9749 39.5107 64.7899C40.2567 64.7317 40.9923 64.5391 42.0127 64.3585C39.491 60.9894 38.8027 56.7207 35.1938 54.2186C33.4843 53.0333 33.3142 52.8674 32.3328 54.6532C31.9119 55.4192 31.4421 56.1582 30.8042 56.9134C30.6139 56.9172 30.457 56.8805 30.457 56.8805C30.457 56.8805 30.4393 56.7545 30.5386 56.6246C30.6695 56.1632 30.7012 55.8318 30.7328 55.5004C30.7641 55.233 30.7954 54.9657 30.8318 54.4331C30.9171 53.5447 30.9974 52.9215 31.0777 52.2984C31.316 50.8145 30.8851 48.9583 33.2 48.4817ZM42.6509 71.9292C42.6509 71.9292 42.606 71.9203 42.8213 71.7844C42.9427 71.1014 43.0641 70.4184 43.2486 69.4413C43.232 68.9424 43.2154 68.4434 43.2271 67.6802C43.1167 67.359 43.0064 67.0378 42.9209 66.6118C42.9209 66.6118 42.8575 66.5248 42.844 66.2766C42.2556 66.2437 41.6672 66.2107 40.8259 66.1886C37.578 67.546 36.2321 70.1461 37.19 73.3454C37.305 73.7294 37.719 74.1443 38.097 74.3074C39.3848 74.8633 41.3242 74.1275 42.3691 72.8066C42.4662 72.5291 42.5633 72.2515 42.6509 71.9292Z" fill="#FDF9F5"/>
<path d="M30.9671 52.3599C30.9973 52.9216 30.917 53.5447 30.8065 54.3003C30.8032 53.7623 30.8299 53.0918 30.9671 52.3599Z" fill="#F89006"/>
<path d="M30.3652 56.9405C30.4569 56.8807 30.6137 56.9174 30.6857 56.9534C30.805 57.2552 30.8523 57.521 30.8996 57.7868C30.789 57.8063 30.5917 57.8638 30.5811 57.8396C30.462 57.567 30.3717 57.282 30.3652 56.9405Z" fill="#F89006"/>
<path d="M30.6389 55.5802C30.7011 55.8316 30.6695 56.1631 30.5287 56.5616C30.4614 56.3058 30.5032 55.983 30.6389 55.5802Z" fill="#F89006"/>
<path d="M30.1882 45.5653C30.1845 45.5141 30.3148 45.6251 30.34 45.6588C30.2873 45.7132 30.2294 45.6879 30.1882 45.5653Z" fill="#FDF9F5"/>
<path d="M48.1226 51.9594C46.2528 52.1794 44.3365 52.2762 42.3242 52.3036C42.9073 51.9536 43.5863 51.6731 44.2653 51.3926C44.5337 51.362 44.8021 51.3315 45.2439 51.3736C45.5158 51.3933 45.6142 51.3405 45.7126 51.2877C45.9467 51.2277 46.1808 51.1677 46.5351 51.1256C47.129 51.3744 47.6025 51.6053 48.1226 51.9594Z" fill="#C66104"/>
<path d="M44.1103 51.3468C43.5864 51.673 42.9074 51.9535 42.1809 52.358C41.4911 52.8661 40.8487 53.2501 40.2428 53.6124C39.5498 52.9938 38.8694 52.4717 38.3137 51.8398C38.1417 51.6443 38.3089 51.1505 38.4531 50.7478C40.3754 50.9019 42.1653 51.1015 44.1103 51.3468Z" fill="#CC7D39"/>
<path d="M45.6138 51.2667C45.6135 51.34 45.5154 51.3927 45.3783 51.3924C45.3983 51.3084 45.4572 51.2773 45.6138 51.2667Z" fill="#CC7D39"/>
<path d="M43.1988 67.9445C43.2153 68.4435 43.2319 68.9425 43.1167 69.6682C42.8586 70.57 42.7322 71.2452 42.6059 71.9204C42.6059 71.9204 42.6508 71.9293 42.5329 71.9604C42.326 72.2822 42.2369 72.5727 42.1478 72.8633C41.3241 74.1276 39.3847 74.8634 38.0969 74.3075C37.719 74.1443 37.3049 73.7295 37.1899 73.3454C36.232 70.1462 37.5779 67.5461 41.0411 66.282C41.79 66.4251 42.3237 66.475 42.8574 66.5248C42.8574 66.5248 42.9209 66.6119 42.8983 66.8002C42.9834 67.3072 43.0911 67.6259 43.1988 67.9445Z" fill="#F7971F"/>
<path d="M42.8508 66.4008C42.3238 66.475 41.7901 66.4252 41.1676 66.2766C41.6672 66.2108 42.2556 66.2438 42.8508 66.4008Z" fill="#F89012"/>
<path d="M42.7136 71.8524C42.7323 71.2452 42.8586 70.57 43.0852 69.8152C43.064 70.4185 42.9427 71.1014 42.7136 71.8524Z" fill="#F89012"/>
<path d="M43.2129 67.8122C43.0911 67.6257 42.9834 67.307 42.8859 66.8524C43.0063 67.0377 43.1167 67.3589 43.2129 67.8122Z" fill="#F89012"/>
<path d="M42.2584 72.8348C42.2369 72.5726 42.326 72.282 42.5377 71.9827C42.5632 72.2515 42.4661 72.529 42.2584 72.8348Z" fill="#F89012"/>
</svg>
