<svg width="45" height="45" viewBox="0 0 45 45" fill="none" xmlns="http://www.w3.org/2000/svg">
<path d="M0.249023 19.3987C0.807659 15.2032 2.43511 11.4649 5.13315 8.10039C5.23346 8.02621 5.25183 7.99906 5.26149 7.96601C6.19592 7.01822 7.13035 6.07043 8.14083 5.08099C8.21689 5.03933 8.26095 4.97428 8.26095 4.97428C11.5119 2.34969 15.1567 0.628893 19.4937 0.153564C19.8766 0.111594 20.1068 0.06202 20.337 0.0124457C21.731 0.00368728 23.125 -0.00507129 24.6386 0.041768C24.9769 0.0801669 25.1957 0.062968 25.4144 0.0457689C30.9086 0.77874 35.555 3.17642 39.2717 7.27596C42.4035 10.7304 44.3056 14.7879 44.8367 19.4524C44.8648 19.6992 44.9332 19.9413 44.9316 20.3143C44.9159 20.7795 44.9512 21.1162 44.9866 21.4528C44.9942 21.9029 45.0017 22.3529 44.9524 22.934C44.8718 23.2836 44.848 23.5021 44.7718 23.6987C44.5691 23.562 44.419 23.4472 44.2664 23.2452C44.264 21.97 44.264 20.782 44.264 19.5941C44.2232 19.5911 44.1825 19.588 44.1417 19.585C44.1112 19.7841 44.0807 19.9832 44.0174 20.1128C43.4742 15.6899 41.9017 11.7928 39.0465 8.43178C35.9971 4.84224 32.1842 2.46304 27.6118 1.41321C22.922 0.336436 18.3305 0.655356 13.903 2.73157C8.09498 5.45515 4.11144 9.81523 2.22616 15.9295C-0.399173 24.4438 2.62689 33.5724 9.75027 39.0112C11.625 40.4426 13.7043 41.4679 15.8361 42.3298C18.6471 43.4661 21.7141 43.2349 24.6873 43.4555C24.8653 43.4687 25.0517 43.3962 25.2315 43.3526C25.7053 43.2376 26.1747 43.1035 26.6511 43.0011C27.3706 42.8465 28.1133 42.7725 28.8115 42.5538C29.6398 42.2944 30.4314 41.9179 31.2964 41.6188C31.6369 41.885 31.9199 42.1247 32.2029 42.3644C30.1243 43.4798 27.8589 43.9776 25.4427 44.3371C25.1079 44.338 24.8928 44.375 24.6777 44.4119C23.2842 44.4198 21.8906 44.4276 20.3901 44.3853C20.1795 44.3539 20.0758 44.3727 19.9721 44.3914C15.6202 43.9274 11.7695 42.2632 8.30371 39.4761C8.24683 39.4108 8.18084 39.3687 8.18084 39.3687C7.22958 38.4363 6.27832 37.5038 5.28382 36.4914C5.22187 36.3819 5.19546 36.3636 5.16136 36.3563C2.45839 33.0951 0.892338 29.3349 0.287079 25.0508C0.288471 24.7176 0.253171 24.5027 0.217871 24.2877C0.185861 24.1153 0.153852 23.9429 0.060921 23.7442C-1.12265e-08 22.772 0 21.8261 0 20.7923C0.0649476 20.5578 0.129895 20.4112 0.248845 20.1588C0.284906 19.8348 0.266965 19.6167 0.249023 19.3987Z" fill="#F9981B"/>
<path d="M44.2689 23.3321C44.4191 23.4469 44.5692 23.5617 44.8084 23.7012C44.8975 23.726 44.9706 23.7311 44.9706 23.7311C44.6532 28.0564 43.2948 32.0116 40.7412 35.5325C38.5505 38.5531 35.7452 40.827 32.2723 42.3621C31.92 42.1244 31.637 41.8847 31.3403 41.5695C34.015 40.3567 36.322 38.6739 38.3047 36.5481C41.7828 32.8189 43.6443 28.3776 44.112 23.3215C44.1988 23.3312 44.2339 23.3317 44.2689 23.3321Z" fill="#CD7B2E"/>
<path d="M45 21.3737C44.9512 21.1159 44.9158 20.7792 44.9221 20.3914C44.9803 20.6584 44.9969 20.9767 45 21.3737Z" fill="#F89A25"/>
<path d="M24.751 44.4243C24.8927 44.3747 25.1078 44.3377 25.3677 44.3386C25.2165 44.3966 25.0204 44.4168 24.751 44.4243Z" fill="#F89A25"/>
<path d="M20.2646 0C20.1068 0.0616991 19.8766 0.111273 19.5704 0.152925C19.727 0.0926267 19.9596 0.0402511 20.2646 0Z" fill="#F89A25"/>
<path d="M25.3431 0.0240902C25.1957 0.0624978 24.977 0.0796966 24.7185 0.053509C24.8764 0.00770879 25.0741 0.00529547 25.3431 0.0240902Z" fill="#F89A25"/>
<path d="M0.228957 19.4698C0.266928 19.6164 0.28487 19.8344 0.260316 20.0928C0.214857 19.9358 0.211892 19.7386 0.228957 19.4698Z" fill="#F89A25"/>
<path d="M0.205078 24.3606C0.253147 24.5024 0.288447 24.7173 0.286018 24.9769C0.22963 24.8256 0.210969 24.6297 0.205078 24.3606Z" fill="#F89A25"/>
<path d="M44.9868 23.6559C44.9704 23.7311 44.8973 23.726 44.8607 23.7232C44.8479 23.5019 44.8717 23.2834 44.941 23.0175C44.9921 23.1736 44.9976 23.3772 44.9868 23.6559Z" fill="#F89A25"/>
<path d="M20.0316 44.4087C20.0757 44.3722 20.1794 44.3534 20.3102 44.372C20.2553 44.415 20.1732 44.4207 20.0316 44.4087Z" fill="#F89A25"/>
<path d="M5.23283 7.96765C5.25176 7.99862 5.23339 8.02577 5.1839 8.0567C5.15036 8.02294 5.1646 7.99072 5.23283 7.96765Z" fill="#F89A25"/>
<path d="M8.23635 4.97144C8.26094 4.97392 8.21688 5.03897 8.19843 5.0461C8.16531 5.01555 8.1759 4.98746 8.23635 4.97144Z" fill="#F89A25"/>
<path d="M5.16235 36.3841C5.19542 36.3631 5.22183 36.3815 5.25074 36.4333C5.21773 36.4652 5.18521 36.4509 5.16235 36.3841Z" fill="#F89A25"/>
<path d="M8.17926 39.393C8.18089 39.3684 8.24687 39.4105 8.25397 39.4288C8.26107 39.447 8.21236 39.452 8.21236 39.452C8.21236 39.452 8.17762 39.4176 8.17926 39.393Z" fill="#F89A25"/>
<path d="M44.0602 23.3122C43.6442 28.3775 41.7827 32.8187 38.3046 36.548C36.3219 38.6738 34.015 40.3565 31.2827 41.5428C30.4314 41.9175 29.6398 42.294 28.8115 42.5534C28.1133 42.7721 27.3706 42.8461 26.6511 43.0007C26.1748 43.1031 25.7053 43.2372 25.2315 43.3521C25.0517 43.3958 24.8653 43.4683 24.6873 43.4551C21.7142 43.2345 18.6472 43.4657 15.8362 42.3293C13.7043 41.4675 11.625 40.4422 9.75029 39.0108C2.62691 33.572 -0.399153 24.4434 2.22618 15.9291C4.11146 9.81481 8.095 5.45472 13.903 2.73115C18.3306 0.654934 22.922 0.336014 27.6118 1.41279C32.1843 2.46262 35.9971 4.84182 39.0465 8.43135C41.9017 11.7924 43.4742 15.6895 44.0087 20.1966C44.0418 21.3376 44.051 22.3249 44.0602 23.3122ZM43.3498 22.0558C43.304 21.3695 43.2708 20.6821 43.2105 19.9972C42.7267 14.5033 40.1732 10.079 36.1105 6.47873C34.5223 5.07122 32.7786 3.87698 30.6798 3.28338C29.4368 2.93184 28.2302 2.45174 26.8803 1.94321C25.0141 1.81582 23.1486 1.6069 21.2817 1.59399C20.2852 1.5871 19.2863 1.91866 18.141 2.05479C17.1199 2.4167 16.1162 2.842 15.0744 3.12826C12.3016 3.89011 10.1303 5.59324 8.11689 7.52334C5.60644 9.92992 3.94693 12.8552 2.91487 16.1789C1.63421 20.3031 1.66981 24.425 3.03864 28.4666C4.93832 34.0757 8.62552 38.1436 14.0252 40.699C17.3092 42.2531 20.7291 42.7786 24.2915 42.5361C25.4167 42.4595 26.5284 42.1209 27.6351 41.8555C28.6072 41.6223 29.5637 41.3237 30.6612 41.0441C31.8213 40.436 33.0509 39.9304 34.1286 39.2005C37.2981 37.0538 39.7413 34.2997 41.3705 30.7616C42.6339 28.0181 43.3208 25.2191 43.3498 22.0558Z" fill="#FDF1E7"/>
<path d="M44.112 23.3216C44.051 22.325 44.0418 21.3378 44.0414 20.2663C44.0807 19.9829 44.1112 19.7838 44.1418 19.5847C44.1825 19.5878 44.2233 19.5908 44.264 19.5939C44.264 20.7818 44.264 21.9697 44.2664 23.2449C44.2338 23.3317 44.1988 23.3313 44.112 23.3216Z" fill="#F89405"/>
<path d="M27.0072 2.0295C28.2302 2.45179 29.4368 2.93188 30.6798 3.28343C32.7786 3.87702 34.5223 5.07127 36.1106 6.47877C40.1732 10.079 42.7267 14.5034 43.2105 19.9972C43.2709 20.6822 43.304 21.3696 43.2686 22.1315C42.8985 22.0294 42.5775 21.8883 42.3258 21.6681C40.6601 20.2109 39.0024 18.7443 37.355 17.2665C33.548 13.8515 29.7552 10.4206 25.9384 7.01664C25.3644 6.50474 24.692 6.10318 24.0106 5.62007C23.4879 5.02623 23.0197 4.46291 22.4237 3.74582C20.3218 7.0537 18.285 10.259 16.2135 13.5189C16.4542 13.5189 16.617 13.5528 16.7598 13.5136C17.9811 13.1785 19.1815 12.6633 20.4227 12.5343C21.5889 12.4131 22.8929 12.4484 23.9624 12.8632C25.3043 13.3835 26.1945 14.5705 26.7009 15.9981C28.0556 19.8175 25.7451 23.5735 21.9067 23.7567C20.6515 23.8166 19.7963 23.177 19.2425 22.1657C18.6523 21.088 18.5774 19.9453 19.2768 18.7458C19.4783 19.1856 19.6107 19.5368 19.7928 19.86C20.3514 20.8519 21.1534 21.4407 22.342 21.5267C24.0279 21.6487 25.4175 20.3481 25.9276 18.6825C26.4538 16.9648 25.4009 14.4818 23.8985 13.8361C20.1939 12.2442 15.8732 14.6837 15.3142 18.5325C15.2228 19.1621 15.2165 19.8041 15.1633 20.546C14.6492 20.0802 14.2134 19.714 13.81 19.315C11.4403 16.9714 10.8552 16.948 8.31473 19.1676C8.57896 19.243 8.80583 19.3225 9.0391 19.3715C9.61445 19.4924 10.2832 19.4538 10.7499 19.7439C11.5772 20.2581 12.3002 20.9485 13.0341 21.6019C13.9428 22.4108 14.8182 23.2572 15.7099 24.1145C15.7318 24.1796 15.7625 24.193 15.8467 24.2346C16.3719 24.7239 16.8542 25.1608 17.3038 25.658C16.0787 25.9102 16.3068 26.8926 16.1222 27.7104C16.0496 28.0978 16.0354 28.4526 16.0345 28.8777C16.0312 29.0895 16.0147 29.231 15.9484 29.4148C15.8766 29.628 15.8545 29.7989 15.8376 30.003C15.8428 30.0362 15.8522 30.1029 15.8037 30.1346C15.8071 30.3153 15.8549 30.4661 15.9179 30.6104C15.9235 30.6232 16.0279 30.5928 16.0864 30.5825C16.0614 30.4418 16.0364 30.3011 16.074 30.1393C16.3735 29.7206 16.6221 29.3295 16.8449 28.9242C17.3643 27.979 17.4543 28.0669 18.359 28.6941C20.269 30.0183 20.6332 32.2775 21.9678 34.0605C21.4277 34.1561 21.0385 34.258 20.6436 34.2888C19.3889 34.3867 18.441 35.0681 17.6351 35.9356C16.7719 36.865 16.7278 38.0658 17.4678 39.0272C18.3612 40.1877 19.6842 40.7436 21.0353 40.7608C23.3159 40.7897 25.4368 39.2703 25.5179 36.7278C26.0602 37.1207 26.556 37.4875 27.0159 37.8947C28.1948 38.9383 29.3578 39.9998 30.5271 41.0541C29.5637 41.3238 28.6072 41.6224 27.6351 41.8556C26.5284 42.121 25.4167 42.4595 24.2915 42.5361C20.7291 42.7787 17.3092 42.2532 14.0252 40.699C8.62552 38.1436 4.93832 34.0757 3.03864 28.4667C1.66981 24.4251 1.63421 20.3032 2.91487 16.1789C3.94693 12.8552 5.60645 9.92996 8.1169 7.52339C10.1303 5.59329 12.3016 3.89015 15.0744 3.12831C16.1162 2.84204 17.1199 2.41674 18.266 2.12349C18.5138 2.20886 18.6435 2.26028 18.7583 2.23715C21.0106 1.78312 23.2702 1.72674 25.5467 2.04395C26.0236 2.11041 26.5198 2.03794 27.0072 2.0295Z" fill="#F7971F"/>
<path d="M30.5941 41.0492C29.3577 39.9998 28.1947 38.9383 27.0159 37.8948C26.5559 37.4876 26.0602 37.1208 25.5041 36.6492C25.3697 36.1141 25.3119 35.6653 25.242 35.1226C25.8729 35.2918 26.3917 35.4311 26.9105 35.5703C26.9494 35.4872 26.9882 35.4041 27.027 35.3211C26.7453 35.1555 26.4743 34.9672 26.1795 34.8297C25.7603 34.6343 25.1366 34.5982 24.9289 34.2797C24.2662 33.2635 23.6032 32.1993 23.2213 31.0595C22.6395 29.3232 23.254 28.631 24.9759 28.7798C25.7342 28.8453 26.0433 29.2461 25.7374 29.9676C25.5153 30.4915 25.0933 30.9306 24.7413 31.435C25.2852 32.2129 26.1473 32.3126 26.9632 32.0826C27.3812 31.9648 27.8222 31.4517 27.9891 31.0162C28.3787 29.9998 27.9664 28.9065 27.0133 28.315C26.4709 27.9785 25.8251 27.8086 25.2013 27.4985C24.9261 27.3111 24.6754 27.1889 24.4888 27.0279C24.9597 26.879 25.386 26.8145 25.7703 26.6511C28.1552 25.6374 29.9171 23.8148 31.7026 22.0277C32.9906 20.7385 34.2789 19.4572 36.4056 19.5772C36.1198 18.5841 35.3824 18.1863 34.6402 17.9396C32.802 17.3288 31.9284 18.8853 30.7898 19.8579C30.6661 18.8734 30.5906 17.9487 30.428 17.0395C29.9063 14.1214 28.3483 11.706 26.6537 9.3572C25.7721 8.13522 24.9268 6.887 24.0651 5.65063C24.692 6.10324 25.3644 6.5048 25.9383 7.01669C29.7552 10.4206 33.5479 13.8515 37.3549 17.2665C39.0023 18.7444 40.66 20.2109 42.3257 21.6682C42.5775 21.8884 42.8984 22.0295 43.254 22.2159C43.3207 25.2192 42.6338 28.0182 41.3704 30.7617C39.7412 34.2998 37.298 37.0539 34.1285 39.2006C33.0508 39.9305 31.8213 40.4361 30.5941 41.0492Z" fill="#C97629"/>
<path d="M26.9438 1.98644C26.5199 2.03801 26.0236 2.11048 25.5468 2.04402C23.2702 1.72681 21.0107 1.78319 18.7583 2.23722C18.6436 2.26034 18.5138 2.20893 18.3398 2.14491C19.2864 1.91878 20.2852 1.58721 21.2817 1.5941C23.1486 1.60701 25.0142 1.81593 26.9438 1.98644Z" fill="#F89C2A"/>
<path d="M24.0106 5.6201C24.9268 6.88698 25.7721 8.13519 26.6537 9.35717C28.3483 11.706 29.9064 14.1214 30.4281 17.0395C30.5906 17.9487 30.6661 18.8734 30.7898 19.8579C31.9285 18.8853 32.8021 17.3288 34.6402 17.9396C35.3824 18.1862 36.1198 18.5841 36.4057 19.5772C34.2789 19.4571 32.9907 20.7385 31.7026 22.0277C29.9172 23.8148 28.1553 25.6374 25.7704 26.6511C25.3861 26.8145 24.9597 26.879 24.4252 27.0184C24.1737 27.0794 24.0498 27.1112 23.874 27.132C23.7908 27.1376 23.7596 27.1541 23.6572 27.1603C23.444 27.1661 23.302 27.1823 23.0779 27.1743C22.0485 27.0445 21.1013 26.9389 20.1362 26.774C19.4489 26.348 18.7913 25.9562 18.1029 25.6291C17.8905 25.5281 17.5943 25.6033 17.3365 25.5978C16.8542 25.1609 16.3719 24.724 15.8333 24.2167C15.777 24.1463 15.7079 24.0874 15.7079 24.0874C14.8181 23.2572 13.9427 22.4109 13.0341 21.6019C12.3001 20.9485 11.5771 20.2581 10.7499 19.7439C10.2832 19.4538 9.61442 19.4925 9.03907 19.3715C8.8058 19.3225 8.57893 19.243 8.3147 19.1676C10.8552 16.948 11.4403 16.9715 13.8099 19.315C14.2133 19.714 14.6492 20.0802 15.1633 20.546C15.2165 19.8041 15.2227 19.1622 15.3142 18.5326C15.8732 14.6838 20.1939 12.2443 23.8985 13.8362C25.4009 14.4818 26.4537 16.9649 25.9276 18.6825C25.4174 20.3481 24.0279 21.6487 22.342 21.5268C21.1533 21.4407 20.3514 20.852 19.7927 19.86C19.6107 19.5368 19.4783 19.1856 19.2767 18.7458C18.5774 19.9454 18.6523 21.088 19.2425 22.1658C19.7963 23.177 20.6515 23.8167 21.9067 23.7568C25.745 23.5735 28.0556 19.8176 26.7009 15.9981C26.1945 14.5705 25.3042 13.3835 23.9624 12.8632C22.8929 12.4484 21.5888 12.4132 20.4227 12.5343C19.1815 12.6633 17.9811 13.1786 16.7597 13.5137C16.617 13.5528 16.4542 13.519 16.2135 13.519C18.2849 10.2591 20.3217 7.05373 22.4237 3.74585C23.0197 4.46293 23.4878 5.02626 24.0106 5.6201Z" fill="#FEFCFB"/>
<path d="M17.3039 25.658C17.5944 25.6033 17.8906 25.5281 18.103 25.6291C18.7913 25.9562 19.449 26.348 20.0662 26.7981C20.0077 27.0704 19.9192 27.3317 20.0102 27.4352C20.3043 27.7696 20.6644 28.0459 21.0312 28.3733C21.3518 28.1816 21.6918 27.9784 22.1076 27.7462C23.1977 27.6661 24.2119 27.6149 25.226 27.5637C25.8253 27.8086 26.4711 27.9785 27.0134 28.315C27.9665 28.9065 28.3788 29.9998 27.9892 31.0162C27.8223 31.4517 27.3813 31.9648 26.9633 32.0826C26.1475 32.3126 25.2853 32.2129 24.7414 31.435C25.0934 30.9306 25.5154 30.4915 25.7375 29.9676C26.0434 29.2461 25.7344 28.8453 24.976 28.7798C23.2541 28.631 22.6397 29.3232 23.2214 31.0595C23.6033 32.1993 24.2663 33.2635 24.929 34.2797C25.1367 34.5982 25.7604 34.6343 26.1796 34.8297C26.4744 34.9672 26.7455 35.1555 27.0271 35.3211C26.9883 35.4041 26.9495 35.4872 26.9107 35.5703C26.3918 35.4311 25.873 35.2918 25.2421 35.1225C25.312 35.6653 25.3698 36.1141 25.4413 36.6415C25.4369 39.2704 23.3159 40.7898 21.0354 40.7608C19.6842 40.7436 18.3612 40.1877 17.4679 39.0272C16.7278 38.0659 16.7719 36.865 17.6352 35.9357C18.441 35.0681 19.3889 34.3867 20.6437 34.2888C21.0385 34.258 21.4278 34.1561 21.9678 34.0605C20.6332 32.2775 20.269 30.0184 18.3591 28.6942C17.4543 28.0669 17.3643 27.9791 16.8449 28.9242C16.6222 29.3296 16.3735 29.7207 16.0359 30.1203C15.9352 30.1224 15.8522 30.103 15.8522 30.103C15.8522 30.103 15.8428 30.0363 15.8954 29.9675C15.9647 29.7233 15.9814 29.5479 15.9982 29.3725C16.0147 29.231 16.0313 29.0896 16.0505 28.8077C16.0957 28.3375 16.1382 28.0077 16.1807 27.6779C16.3068 26.8926 16.0788 25.9103 17.3039 25.658ZM22.3056 38.0672C22.3056 38.0672 22.2818 38.0625 22.3958 37.9905C22.46 37.6291 22.5242 37.2676 22.6219 36.7505C22.6131 36.4865 22.6043 36.2224 22.6105 35.8185C22.5521 35.6485 22.4937 35.4785 22.4485 35.2531C22.4485 35.2531 22.4149 35.207 22.4078 35.0757C22.0964 35.0582 21.785 35.0408 21.3397 35.0291C19.6209 35.7475 18.9086 37.1235 19.4155 38.8167C19.4764 39.0199 19.6955 39.2395 19.8955 39.3258C20.5771 39.62 21.6034 39.2306 22.1564 38.5315C22.2078 38.3846 22.2592 38.2378 22.3056 38.0672Z" fill="#FDF9F5"/>
<path d="M16.1221 27.7104C16.1381 28.0077 16.0956 28.3375 16.0371 28.7374C16.0353 28.4526 16.0495 28.0978 16.1221 27.7104Z" fill="#F89006"/>
<path d="M15.8036 30.1347C15.8521 30.1031 15.9351 30.1225 15.9732 30.1415C16.0363 30.3012 16.0614 30.4419 16.0864 30.5826C16.0278 30.5929 15.9234 30.6233 15.9178 30.6105C15.8548 30.4663 15.807 30.3154 15.8036 30.1347Z" fill="#F89006"/>
<path d="M15.9485 29.4148C15.9814 29.5479 15.9646 29.7233 15.8901 29.9342C15.8545 29.7988 15.8766 29.628 15.9485 29.4148Z" fill="#F89006"/>
<path d="M15.7099 24.1146C15.7079 24.0874 15.7771 24.1463 15.7905 24.1643C15.7625 24.1931 15.7318 24.1797 15.7099 24.1146Z" fill="#FDF9F5"/>
<path d="M25.2014 27.4985C24.2118 27.615 23.1976 27.6662 22.1327 27.6807C22.4413 27.4955 22.8006 27.347 23.16 27.1985C23.302 27.1824 23.444 27.1662 23.6779 27.1885C23.8218 27.1989 23.8738 27.171 23.9259 27.143C24.0498 27.1113 24.1737 27.0795 24.3612 27.0573C24.6755 27.1889 24.9261 27.3111 25.2014 27.4985Z" fill="#C66104"/>
<path d="M23.0779 27.1743C22.8006 27.3469 22.4413 27.4954 22.0568 27.7095C21.6917 27.9784 21.3518 28.1816 21.0311 28.3733C20.6644 28.046 20.3043 27.7696 20.0102 27.4352C19.9192 27.3317 20.0076 27.0704 20.084 26.8573C21.1013 26.9389 22.0486 27.0445 23.0779 27.1743Z" fill="#CC7D39"/>
<path d="M23.8741 27.132C23.8739 27.1709 23.8218 27.1988 23.749 27.1987C23.7596 27.1541 23.7909 27.1375 23.8741 27.132Z" fill="#CC7D39"/>
<path d="M22.5955 35.9584C22.6043 36.2224 22.613 36.4865 22.5521 36.8706C22.4155 37.3479 22.3486 37.7052 22.2817 38.0625C22.2817 38.0625 22.3055 38.0672 22.2431 38.0837C22.1336 38.254 22.0865 38.4078 22.0393 38.5615C21.6034 39.2306 20.577 39.62 19.8954 39.3258C19.6954 39.2395 19.4763 39.0199 19.4155 38.8167C18.9085 37.1235 19.6208 35.7475 21.4536 35.0785C21.8499 35.1543 22.1324 35.1806 22.4149 35.207C22.4149 35.207 22.4484 35.2531 22.4365 35.3528C22.4815 35.6211 22.5385 35.7897 22.5955 35.9584Z" fill="#F7971F"/>
<path d="M22.4113 35.1414C22.1324 35.1807 21.85 35.1543 21.5205 35.0756C21.7849 35.0408 22.0963 35.0583 22.4113 35.1414Z" fill="#F89012"/>
<path d="M22.3387 38.0265C22.3486 37.7052 22.4155 37.3478 22.5354 36.9484C22.5242 37.2676 22.46 37.6291 22.3387 38.0265Z" fill="#F89012"/>
<path d="M22.603 35.8883C22.5386 35.7896 22.4816 35.6209 22.4299 35.3804C22.4937 35.4784 22.5521 35.6484 22.603 35.8883Z" fill="#F89012"/>
<path d="M22.0978 38.5465C22.0865 38.4077 22.1336 38.2539 22.2456 38.0955C22.2591 38.2377 22.2078 38.3846 22.0978 38.5465Z" fill="#F89012"/>
</svg>
