<svg width="244" height="142" viewBox="0 0 244 142" fill="none" xmlns="http://www.w3.org/2000/svg">
<path d="M8.45093 22.4873L86.4284 1.7029" stroke="white" stroke-miterlimit="10"/>
<path d="M5.68747 22.5023C5.68747 22.5023 -4.06622 30.3669 4.56576 39.3807C4.56576 39.3807 4.75147 39.0878 5.04119 38.5845C6.5269 35.9705 10.8057 27.4825 5.78404 22.5023C5.78404 22.5023 86.3913 0.253168 91.5095 1.01934C96.6278 1.78552 107.629 1.01934 107.629 1.01934L9.96632 22.5023" stroke="white" stroke-miterlimit="10"/>
<path d="M91 15.1564C91 15.1564 58.7619 22.782 58 24.2569" stroke="white" stroke-miterlimit="10"/>
<path d="M66.4902 21.4357L40.572 32.5903" stroke="white" stroke-miterlimit="10"/>
<path d="M58.1925 24.0572L39.5245 27.7604L43.8851 29.105C43.8851 29.105 9.08232 35.3846 6.23718 36.3461" stroke="white" stroke-miterlimit="10"/>
<path d="M63.9273 22.4873L42.7782 30.1566L10.8206 38.5995L4.56577 39.3657" stroke="white" stroke-miterlimit="10"/>
<path d="M4.56573 39.223L5.42001 46.0735H3.80059C3.80059 46.0735 2.95373 48.6649 2.09945 48.6649C1.24516 48.6649 9.40171 58.8281 11.1994 56.3342C12.9971 53.8404 3.99373 47.3204 3.99373 47.3204C3.99373 47.3204 11.7714 60.7435 23.2485 57.6788L22.7731 54.8995L29.8674 56.3042C29.8674 56.3042 34.6068 56.184 43.0531 49.2959C43.0531 49.2959 46.3216 46.8997 42.4291 31.749" stroke="white" stroke-miterlimit="10"/>
<path d="M23.2486 57.6788L26.8514 74.6548" stroke="white" stroke-miterlimit="10"/>
<path d="M23.2486 54.9972L26.8514 65.7387" stroke="white" stroke-miterlimit="10"/>
<path d="M29.8823 56.3417L30.7514 72.5441" stroke="white" stroke-miterlimit="10"/>
<path d="M28.3817 62.4711C28.3817 62.4711 30.0903 77.4341 29.0429 78.5834L29.8971 84.0518" stroke="white" stroke-miterlimit="10"/>
<path d="M29.8674 75.2257C30.2255 75.4154 30.629 75.4998 31.0322 75.4693C31.4353 75.4387 31.8219 75.2945 32.148 75.053C32.6829 74.6023 33.1063 73.115 33.3663 72.2061" stroke="white" stroke-miterlimit="10"/>
<path d="M33.3217 72.3188C33.3217 72.3188 40.1262 77.4341 43.1571 77.9148C40.9285 77.0735 40.6908 77.5543 45.9131 77.9148C45.9131 77.9148 53.4382 81.0547 52.1159 84.1194" stroke="white" stroke-miterlimit="10"/>
<path d="M24.0509 61.4646C24.0509 61.4646 23.8057 84.6226 24.0509 84.9156C24.0509 84.9156 24.4149 88.6713 25.804 88.2657" stroke="white" stroke-miterlimit="10"/>
<path d="M15.9537 84.8029C15.9537 84.8029 13.3835 91.8863 15.9537 94.1998C17.74 94.9143 19.5777 95.4893 21.4509 95.92C25.1651 96.7763 29.6817 97.3847 30.3206 97.858C32.1034 99.1574 30.7588 91.2403 30.7588 91.2403C28.4931 89.0319 21.8446 87.3118 21.8446 87.3118C18.3383 83.9541 15.9686 84.9156 15.9686 84.9156C16.132 82.5945 23.9246 77.2163 23.9246 77.2163" stroke="white" stroke-miterlimit="10"/>
<path d="M17 85.9382L21.5 87.9606L26 89.9829" stroke="white" stroke-miterlimit="10"/>
<path d="M17 88.9718L24 90.9941" stroke="white" stroke-miterlimit="10"/>
<path d="M17 92.0053L23.88 93.1933" stroke="white" stroke-miterlimit="10"/>
<path d="M17 94.0276L23.88 95.2156" stroke="white" stroke-miterlimit="10"/>
<path d="M30.7514 91.0525C30.7514 91.0525 30.9892 91.9088 36.36 90.2187C36.36 90.2187 51.3434 86.9287 52.1382 84.0518C52.1382 84.0518 49.2634 92.3144 51.3954 92.0215" stroke="white" stroke-miterlimit="10"/>
<path d="M51.8188 86.1249L51.6628 94.9209" stroke="white" stroke-miterlimit="10"/>
<path d="M30.7514 98.0007L34.3097 98.241C46.292 93.7341 51.5068 94.7557 51.5068 94.7557" stroke="white" stroke-miterlimit="10"/>
<path d="M109.479 12.0914C109.479 12.0914 138.815 15.3589 210.129 15.9147C210.129 15.9147 225.045 15.3664 231.114 14.0068H243L240.222 103.161C240.222 103.161 238.201 109.298 239.969 125.155C239.969 125.155 154.749 116.464 131.988 117.741" stroke="white" stroke-miterlimit="10"/>
<path d="M132.589 117.102C132.589 117.102 101.642 115.668 101.642 114.391V104.31" stroke="white" stroke-miterlimit="10"/>
<path d="M100.379 15.9222L101.642 60.3679" stroke="white" stroke-miterlimit="10"/>
<path d="M111.864 73.8962C111.864 73.8962 112.859 68.4353 111.983 68.4128C111.983 68.4128 113.335 62.9669 111.626 62.4035C111.626 62.4035 111.767 57.7314 111.151 57.3708" stroke="white" stroke-miterlimit="10"/>
<path d="M110.304 61.5623C110.304 61.5623 111.44 58.8506 110.304 57.6563C109.167 56.4619 110.809 53.7953 110.809 53.7953C111.026 52.6363 110.968 51.4416 110.638 50.31C110.638 50.31 110.638 50.2349 110.638 50.1973" stroke="white" stroke-miterlimit="10"/>
<path d="M110.616 50.2349C110.616 50.2349 112.503 47.8762 111.158 45.5251C111.158 45.5251 110.586 33.394 110.274 31.5687C110.274 31.5687 108.521 19.4226 115.585 20.1737L141.719 20.7596" stroke="white" stroke-miterlimit="10"/>
<path d="M152.721 21.0826C152.721 21.0826 222.393 19.032 222.141 21.0826" stroke="white" stroke-miterlimit="10"/>
<path d="M223.53 20.6244C223.53 20.6244 229.599 20.6995 227.073 33.4842C227.073 33.4842 232.875 42.3027 225.587 99.5856" stroke="white" stroke-miterlimit="10"/>
<path d="M225.171 100.863C225.171 100.863 227.073 118.89 218.486 118.252" stroke="white" stroke-miterlimit="10"/>
<path d="M216.97 116.975L177.272 116.404L130.435 111.807" stroke="white" stroke-miterlimit="10"/>
<path d="M112.205 92.8102C112.205 92.8102 110.868 94.2149 114.434 95.4918L115.318 104.055C115.318 104.055 113.55 108.404 118.988 108.66L146.667 112.047" stroke="white" stroke-miterlimit="10"/>
<path d="M102.667 138.18C102.667 138.18 100.706 140.193 99.2872 139.907" stroke="white" stroke-miterlimit="10"/>
<path d="M99.1015 139.727C99.1015 139.727 100.409 136.918 102.496 138.135" stroke="white" stroke-miterlimit="10"/>
<path d="M107.332 83.0903C107.332 91.2478 100.55 97.858 92.1855 97.858C86.8667 97.858 83.5907 95.2064 80.2998 91.6534C78.6061 89.8507 78.4204 87.8977 77.4993 85.8696C77.1617 84.9848 77.0173 84.0368 77.0758 83.0903C77.0758 74.9328 83.8581 68.3226 92.2152 68.3226C97.4152 68.3226 102.556 70.7864 105.275 74.715C106.879 77.0736 107.332 80.0331 107.332 83.0903Z" stroke="white" stroke-miterlimit="10"/>
<path d="M107.191 80.4011C106.594 78.8208 105.771 77.3377 104.747 75.9994C104.665 75.8792 104.569 75.759 104.48 75.6388L104.198 75.2858C102.475 73.1815 100.321 71.4815 97.8833 70.3037C95.446 69.1259 92.7844 68.4986 90.0833 68.4653" stroke="white" stroke-miterlimit="10"/>
<path d="M103.893 74.9253L102.667 75.8342C109.873 84.0217 103.737 92.6299 103.737 92.6299" stroke="white" stroke-miterlimit="10"/>
<path d="M102.103 73.1075C102.103 73.1075 92.661 68.8184 90.3878 68.8935C90.2815 68.8911 90.1756 68.9089 90.0758 68.9461" stroke="white" stroke-miterlimit="10"/>
<path d="M77.8187 80.1683C77.8187 80.1683 81.533 70.0352 90.3878 68.901" stroke="white" stroke-miterlimit="10"/>
<path d="M92.8987 96.8664C92.8987 96.8664 80.3816 97.7302 77.8187 80.7091" stroke="white" stroke-miterlimit="10"/>
<path d="M110.928 85.4113L112.874 88.2432L114.033 85.1785" stroke="white" stroke-miterlimit="10"/>
<path d="M117.19 87.6122L112.874 88.2432" stroke="white" stroke-miterlimit="10"/>
<path d="M115.296 90.3765L112.874 89.0394C109.16 97.0392 94.8152 97.858 94.8152 97.858" stroke="white" stroke-miterlimit="10"/>
<path d="M92.5941 100.517L92.8987 125.861" stroke="white" stroke-miterlimit="10"/>
<path d="M90.5364 100.247L91.6061 125.41C92.2375 124.659 89.3775 100.359 89.3775 100.359" stroke="white" stroke-miterlimit="10"/>
<path d="M93.6118 98.4589C93.6118 98.4589 108.469 104.235 108.588 105.723C108.707 107.21 108.588 101.967 108.588 101.967" stroke="white" stroke-miterlimit="10"/>
<path d="M110.928 109.606L108.632 105.985L112.48 105.625" stroke="white" stroke-miterlimit="10"/>
<path d="M107.191 107.21L108.358 105.625" stroke="white" stroke-miterlimit="10"/>
<path d="M90.3581 99.3302L85.7747 98.0983C85.7747 98.0983 85.3884 100.284 86.0273 101.441L94.3027 98.0983C94.3027 98.0983 95.885 99.6006 94.8152 100.833L90.3581 99.3302Z" stroke="white" stroke-miterlimit="10"/>
<path d="M99.0495 139.923C99.7404 128.881 93.1067 126.695 92.5644 126.815" stroke="white" stroke-miterlimit="10"/>
<path d="M91.361 126.65C90.3284 126.161 85.5667 131.157 87.9215 140.576C86.7107 139.584 85.4107 137.857 83.5313 140.358C83.4347 140.831 83.8507 141.109 88.1964 140.959" stroke="white" stroke-miterlimit="10"/>
</svg>
