<svg width="486" height="282" viewBox="0 0 486 282" fill="none" xmlns="http://www.w3.org/2000/svg">
<path d="M15.9019 43.9746L171.857 2.40582" stroke="white" stroke-miterlimit="10"/>
<path d="M10.3749 44.0046C10.3749 44.0046 -9.13244 59.7338 8.13152 77.7614C8.13152 77.7614 8.50294 77.1755 9.08237 76.169C12.0538 70.941 20.6115 53.9649 10.5681 44.0046C10.5681 44.0046 171.783 -0.493665 182.019 1.03869C192.256 2.57104 214.259 1.03869 214.259 1.03869L18.9326 44.0046" stroke="white" stroke-miterlimit="10"/>
<path d="M181 29.3127C181 29.3127 116.524 44.5641 115 47.5138" stroke="white" stroke-miterlimit="10"/>
<path d="M131.98 41.8713L80.1439 64.1806" stroke="white" stroke-miterlimit="10"/>
<path d="M115.385 47.1144L78.049 54.5208L86.7702 57.2099C86.7702 57.2099 17.1646 69.7692 11.4744 71.6921" stroke="white" stroke-miterlimit="10"/>
<path d="M126.855 43.9746L84.5565 59.3131L20.6413 76.1991L8.13159 77.7314" stroke="white" stroke-miterlimit="10"/>
<path d="M8.13152 77.4459L9.84008 91.147H6.60124C6.60124 91.147 4.90752 96.3299 3.19895 96.3299C1.49039 96.3299 17.8035 116.656 21.3989 111.668C24.9943 106.681 6.98752 93.6408 6.98752 93.6408C6.98752 93.6408 22.5429 120.487 45.4971 114.358L44.5463 108.799L58.7348 111.608C58.7348 111.608 68.2137 111.368 85.1062 97.5919C85.1062 97.5919 91.6433 92.7995 83.8582 62.498" stroke="white" stroke-miterlimit="10"/>
<path d="M45.4971 114.358L52.7028 148.31" stroke="white" stroke-miterlimit="10"/>
<path d="M45.4971 108.994L52.7028 130.477" stroke="white" stroke-miterlimit="10"/>
<path d="M58.7645 111.683L60.5028 144.088" stroke="white" stroke-miterlimit="10"/>
<path d="M55.7634 123.942C55.7634 123.942 59.1806 153.868 57.0857 156.167L58.7943 167.104" stroke="white" stroke-miterlimit="10"/>
<path d="M58.7349 149.451C59.451 149.831 60.2581 150 61.0643 149.939C61.8706 149.877 62.6437 149.589 63.296 149.106C64.3657 148.205 65.2126 145.23 65.7326 143.412" stroke="white" stroke-miterlimit="10"/>
<path d="M65.6433 143.638C65.6433 143.638 79.2524 153.868 85.3141 154.83C80.857 153.147 80.3816 154.109 90.8261 154.83C90.8261 154.83 105.876 161.109 103.232 167.239" stroke="white" stroke-miterlimit="10"/>
<path d="M47.1017 121.929C47.1017 121.929 46.6114 168.245 47.1017 168.831C47.1017 168.831 47.8297 176.343 50.608 175.531" stroke="white" stroke-miterlimit="10"/>
<path d="M30.9075 168.606C30.9075 168.606 25.7669 182.773 30.9075 187.4C34.48 188.829 38.1555 189.979 41.9017 190.84C49.3303 192.553 58.3634 193.769 59.6411 194.716C63.2068 197.315 60.5177 181.481 60.5177 181.481C55.9863 177.064 42.6892 173.624 42.6892 173.624C35.6766 166.908 30.9372 168.831 30.9372 168.831C31.264 164.189 46.8492 153.433 46.8492 153.433" stroke="white" stroke-miterlimit="10"/>
<path d="M33 170.876L42 174.921L51 178.966" stroke="white" stroke-miterlimit="10"/>
<path d="M33 176.944L47 180.988" stroke="white" stroke-miterlimit="10"/>
<path d="M33 183.011L46.76 185.387" stroke="white" stroke-miterlimit="10"/>
<path d="M33 187.055L46.76 189.431" stroke="white" stroke-miterlimit="10"/>
<path d="M60.5029 181.105C60.5029 181.105 60.9784 182.818 71.72 179.437C71.72 179.437 101.687 172.857 103.277 167.104C103.277 167.104 97.5268 183.629 101.791 183.043" stroke="white" stroke-miterlimit="10"/>
<path d="M102.638 171.25L102.326 188.842" stroke="white" stroke-miterlimit="10"/>
<path d="M60.5029 195.001L67.6195 195.482C91.584 186.468 102.014 188.511 102.014 188.511" stroke="white" stroke-miterlimit="10"/>
<path d="M217.958 23.1827C217.958 23.1827 276.629 29.7178 419.257 30.8295C419.257 30.8295 449.09 29.7328 461.229 27.0136H485L479.444 205.322C479.444 205.322 475.402 217.596 478.938 249.31C478.938 249.31 308.498 231.928 262.976 234.482" stroke="white" stroke-miterlimit="10"/>
<path d="M264.179 233.205C264.179 233.205 202.284 230.336 202.284 227.782V207.621" stroke="white" stroke-miterlimit="10"/>
<path d="M199.759 30.8445L202.284 119.736" stroke="white" stroke-miterlimit="10"/>
<path d="M222.728 146.792C222.728 146.792 224.718 135.871 222.965 135.825C222.965 135.825 225.669 124.934 222.252 123.807C222.252 123.807 222.534 114.463 221.301 113.742" stroke="white" stroke-miterlimit="10"/>
<path d="M219.608 122.125C219.608 122.125 221.881 116.701 219.608 114.313C217.334 111.924 220.618 106.591 220.618 106.591C221.052 104.273 220.935 101.883 220.276 99.62C220.276 99.62 220.276 99.4698 220.276 99.3947" stroke="white" stroke-miterlimit="10"/>
<path d="M220.232 99.4697C220.232 99.4697 224.005 94.7524 221.316 90.0502C221.316 90.0502 220.172 65.788 219.548 62.1374C219.548 62.1374 216.042 37.8451 230.171 39.3474L282.438 40.5192" stroke="white" stroke-miterlimit="10"/>
<path d="M304.442 41.1653C304.442 41.1653 443.786 37.064 443.281 41.1653" stroke="white" stroke-miterlimit="10"/>
<path d="M446.06 40.2488C446.06 40.2488 458.198 40.3991 453.146 65.9683C453.146 65.9683 464.75 83.6054 450.175 198.171" stroke="white" stroke-miterlimit="10"/>
<path d="M449.343 200.725C449.343 200.725 453.146 236.78 435.971 235.503" stroke="white" stroke-miterlimit="10"/>
<path d="M432.941 232.95L353.544 231.808L259.87 222.614" stroke="white" stroke-miterlimit="10"/>
<path d="M223.411 184.62C223.411 184.62 220.737 187.43 227.868 189.984L229.636 207.11C229.636 207.11 226.1 215.808 236.975 216.319L292.333 223.094" stroke="white" stroke-miterlimit="10"/>
<path d="M204.334 275.36C204.334 275.36 200.412 279.386 197.574 278.815" stroke="white" stroke-miterlimit="10"/>
<path d="M197.203 278.454C197.203 278.454 199.818 272.836 203.993 275.269" stroke="white" stroke-miterlimit="10"/>
<path d="M213.665 165.181C213.665 181.496 200.1 194.716 183.371 194.716C172.733 194.716 166.181 189.413 159.6 182.307C156.212 178.701 155.841 174.795 153.998 170.739C153.323 168.97 153.034 167.073 153.152 165.181C153.152 148.866 166.716 135.645 183.43 135.645C193.83 135.645 204.111 140.573 209.549 148.43C212.758 153.147 213.665 159.066 213.665 165.181Z" stroke="white" stroke-miterlimit="10"/>
<path d="M213.382 159.802C212.188 156.642 210.541 153.675 208.494 150.999C208.331 150.758 208.138 150.518 207.96 150.278L207.395 149.572C203.95 145.363 199.641 141.963 194.767 139.607C189.892 137.252 184.569 135.997 179.167 135.931" stroke="white" stroke-miterlimit="10"/>
<path d="M206.786 148.851L204.334 150.668C218.746 167.043 206.474 184.26 206.474 184.26" stroke="white" stroke-miterlimit="10"/>
<path d="M203.205 145.215C203.205 145.215 184.322 136.637 179.776 136.787C179.563 136.782 179.351 136.818 179.152 136.892" stroke="white" stroke-miterlimit="10"/>
<path d="M154.637 159.337C154.637 159.337 162.066 139.07 179.776 136.802" stroke="white" stroke-miterlimit="10"/>
<path d="M184.797 192.733C184.797 192.733 159.763 194.46 154.637 160.418" stroke="white" stroke-miterlimit="10"/>
<path d="M220.855 169.823L224.748 175.486L227.066 169.357" stroke="white" stroke-miterlimit="10"/>
<path d="M233.38 174.224L224.748 175.486" stroke="white" stroke-miterlimit="10"/>
<path d="M229.591 179.753L224.748 177.079C217.319 193.078 188.63 194.716 188.63 194.716" stroke="white" stroke-miterlimit="10"/>
<path d="M184.188 200.034L184.797 250.722" stroke="white" stroke-miterlimit="10"/>
<path d="M180.073 199.493L182.212 249.82C183.475 248.318 177.755 199.719 177.755 199.719" stroke="white" stroke-miterlimit="10"/>
<path d="M186.224 195.918C186.224 195.918 215.938 207.47 216.176 210.445C216.413 213.42 216.176 202.934 216.176 202.934" stroke="white" stroke-miterlimit="10"/>
<path d="M220.855 218.212L216.265 210.971L223.961 210.25" stroke="white" stroke-miterlimit="10"/>
<path d="M213.382 213.42L215.715 210.25" stroke="white" stroke-miterlimit="10"/>
<path d="M179.716 197.66L170.549 195.197C170.549 195.197 169.777 199.568 171.054 201.882L187.605 195.197C187.605 195.197 190.77 198.201 188.63 200.665L179.716 197.66Z" stroke="white" stroke-miterlimit="10"/>
<path d="M197.099 278.845C198.481 256.761 185.213 252.389 184.129 252.63" stroke="white" stroke-miterlimit="10"/>
<path d="M181.722 252.299C179.657 251.323 170.133 261.313 174.843 280.152C172.421 278.169 169.821 274.714 166.062 279.716C165.869 280.663 166.701 281.219 175.393 280.918" stroke="white" stroke-miterlimit="10"/>
</svg>
