<svg width="214" height="101" viewBox="0 0 214 101" fill="none" xmlns="http://www.w3.org/2000/svg">
<path d="M1.68776 3.49459L1.39064 8.09164V20.4706C1.39064 20.4706 -0.213964 30.9117 10.1266 30.2506C20.4671 29.5896 30.2283 29.6647 30.2283 29.6647C30.2283 29.6647 32.1151 3.01382 29.5597 2.62322L3.38149 1.28619C3.38149 1.28619 1.21236 -0.216098 1.3015 3.97533" stroke="white" stroke-miterlimit="10"/>
<path d="M17.8076 46.1901L77.3846 45.0484C78.2198 44.9575 79.0645 45.0636 79.8524 45.3583C80.6403 45.653 81.35 46.1283 81.9257 46.7469C82.5015 47.3654 82.9276 48.1104 83.1708 48.9235C83.414 49.7366 83.4676 50.5956 83.3274 51.4332C82.956 58.3438 83.9663 91.3043 86.2988 93.9935C88.6314 96.6826 83.7731 99.7623 83.7731 99.7623L14.0933 96.8328C14.0933 96.8328 8.53672 84.9346 12.3253 51.4332" stroke="white" stroke-miterlimit="10"/>
<path d="M124.363 53.2359C124.363 53.2359 120.188 57.7428 115.642 55.6546C115.523 55.6546 115.538 55.4293 115.493 55.3241C112.299 48.6238 106.787 54.573 106.579 54.573" stroke="white" stroke-miterlimit="10"/>
<path d="M124.749 53.1608C124.749 53.1608 132.178 58.9146 134.852 57.1268C137.526 55.3391 140.616 53.1608 140.616 53.1608C140.616 53.1608 141.493 51.2528 151.863 56.6161" stroke="white" stroke-miterlimit="10"/>
<path d="M151.863 56.1955C159.582 56.2884 167.291 55.609 174.877 54.1674" stroke="white" stroke-miterlimit="10"/>
<path d="M174 54.0899L184 56C184 56 174 53.5007 174 54.0899Z" stroke="white" stroke-miterlimit="10"/>
<path d="M103.697 78.5497C103.697 78.5497 111.214 68.6345 120.04 76.762C128.865 84.8894 138.938 76.5666 138.938 76.5666C138.938 76.5666 168.652 75.8606 170.42 72.6606" stroke="white" stroke-miterlimit="10"/>
<path d="M103.697 95.3606C103.697 95.3606 120.248 89.727 133.218 96.7577C146.188 103.789 160.332 95.0001 160.332 95.0001C160.332 95.0001 180.508 98.9361 184.103 92.1006" stroke="white" stroke-miterlimit="10"/>
<path d="M121.258 7.71606L119.49 17.0454C119.49 17.0454 144.405 15.3778 149.085 18.4575L148.58 7.71606H122.03" stroke="white" stroke-miterlimit="10"/>
<path d="M158.816 7.71606V18.4575C158.816 18.4575 189.288 18.4575 191.502 20.3654C193.716 22.2734 190.878 7.71606 190.878 7.71606H160.213" stroke="white" stroke-miterlimit="10"/>
<path d="M202.065 6.55933V18.4576C202.065 18.4576 210.668 19.5994 211.797 17.436C212.926 15.2727 213.06 6.55933 213.06 6.55933H202.065Z" stroke="white" stroke-miterlimit="10"/>
</svg>
