<svg width="213" height="101" viewBox="0 0 213 101" fill="none" xmlns="http://www.w3.org/2000/svg">
<path d="M0.687512 3.49459L0.390397 8.09164V20.4706C0.390397 20.4706 -1.21421 30.9117 9.12634 30.2506C19.4669 29.5896 29.228 29.6647 29.228 29.6647C29.228 29.6647 31.1149 3.01382 28.5595 2.62322L2.38124 1.28619C2.38124 1.28619 0.212116 -0.216098 0.301258 3.97533" stroke="white" stroke-width="0.5" stroke-miterlimit="10"/>
<path d="M16.8076 46.1901L76.3846 45.0484C77.2198 44.9575 78.0645 45.0636 78.8524 45.3583C79.6403 45.653 80.35 46.1283 80.9257 46.7469C81.5015 47.3654 81.9276 48.1104 82.1708 48.9235C82.414 49.7366 82.4676 50.5956 82.3274 51.4332C81.956 58.3438 82.9663 91.3043 85.2988 93.9935C87.6314 96.6826 82.7731 99.7623 82.7731 99.7623L13.0933 96.8328C13.0933 96.8328 7.53672 84.9346 11.3253 51.4332" stroke="white" stroke-width="0.5" stroke-miterlimit="10"/>
<path d="M123.363 53.236C123.363 53.236 119.188 57.7429 114.641 55.6547C114.523 55.6547 114.537 55.4294 114.493 55.3242C111.299 48.6239 105.787 54.573 105.579 54.573" stroke="white" stroke-width="0.5" stroke-miterlimit="10"/>
<path d="M123.749 53.1608C123.749 53.1608 131.178 58.9146 133.852 57.1269C136.526 55.3392 139.616 53.1608 139.616 53.1608C139.616 53.1608 140.493 51.2529 150.863 56.6161" stroke="white" stroke-width="0.5" stroke-miterlimit="10"/>
<path d="M150.863 56.1955C158.582 56.2884 166.291 55.609 173.877 54.1674" stroke="white" stroke-width="0.5" stroke-miterlimit="10"/>
<path d="M173 54.0899L183 56C183 56 173 53.5007 173 54.0899Z" stroke="white" stroke-width="0.5" stroke-miterlimit="10"/>
<path d="M102.696 78.5498C102.696 78.5498 110.214 68.6345 119.039 76.762C127.864 84.8895 137.937 76.5667 137.937 76.5667C137.937 76.5667 167.652 75.8606 169.42 72.6607" stroke="white" stroke-width="0.5" stroke-miterlimit="10"/>
<path d="M102.696 95.3605C102.696 95.3605 119.247 89.7269 132.217 96.7577C145.188 103.788 159.332 95 159.332 95C159.332 95 179.508 98.936 183.103 92.1005" stroke="white" stroke-width="0.5" stroke-miterlimit="10"/>
<path d="M120.258 7.71613L118.49 17.0454C118.49 17.0454 143.405 15.3779 148.085 18.4576L147.58 7.71613H121.03" stroke="white" stroke-width="0.5" stroke-miterlimit="10"/>
<path d="M157.816 7.71613V18.4576C157.816 18.4576 188.288 18.4576 190.502 20.3655C192.715 22.2734 189.878 7.71613 189.878 7.71613H159.213" stroke="white" stroke-width="0.5" stroke-miterlimit="10"/>
<path d="M201.065 6.55927V18.4575C201.065 18.4575 209.667 19.5993 210.797 17.436C211.926 15.2727 212.059 6.55927 212.059 6.55927H201.065Z" stroke="white" stroke-width="0.5" stroke-miterlimit="10"/>
</svg>
