<svg width="107" height="51" viewBox="0 0 107 51" fill="none" xmlns="http://www.w3.org/2000/svg">
<path d="M0.843756 1.74729L0.695199 4.04582V10.2353C0.695199 10.2353 -0.107104 15.4558 5.06317 15.1253C10.2334 14.7948 15.114 14.8324 15.114 14.8324C15.114 14.8324 16.0574 1.50691 14.7797 1.31161L1.69062 0.643097C1.69062 0.643097 0.606058 -0.108049 0.650629 1.98767" stroke="white" stroke-width="0.5" stroke-miterlimit="10"/>
<path d="M8.90375 23.095L38.6922 22.5242C39.1099 22.4788 39.5322 22.5318 39.9262 22.6791C40.3201 22.8265 40.675 23.0641 40.9628 23.3734C41.2507 23.6827 41.4638 24.0552 41.5854 24.4618C41.707 24.8683 41.7338 25.2978 41.6637 25.7166C41.478 29.1719 41.9831 45.6522 43.1494 46.9967C44.3157 48.3413 41.8865 49.8812 41.8865 49.8812L7.04661 48.4164C7.04661 48.4164 4.26833 42.4673 6.16261 25.7166" stroke="white" stroke-width="0.5" stroke-miterlimit="10"/>
<path d="M62.1813 26.618C62.1813 26.618 60.0939 28.8714 57.8208 27.8273C57.7613 27.8273 57.7688 27.7147 57.7465 27.6621C56.1493 24.3119 53.3934 27.2865 53.2894 27.2865" stroke="white" stroke-width="0.5" stroke-miterlimit="10"/>
<path d="M62.3745 26.5804C62.3745 26.5804 66.0887 29.4573 67.4259 28.5634C68.763 27.6696 70.3082 26.5804 70.3082 26.5804C70.3082 26.5804 70.7465 25.6264 75.9316 28.3081" stroke="white" stroke-width="0.5" stroke-miterlimit="10"/>
<path d="M75.9316 28.0977C79.7909 28.1442 83.6452 27.8045 87.4384 27.0837" stroke="white" stroke-width="0.5" stroke-miterlimit="10"/>
<path d="M87 27.045L92 28C92 28 87 26.7503 87 27.045Z" stroke="white" stroke-width="0.5" stroke-miterlimit="10"/>
<path d="M51.8482 39.2749C51.8482 39.2749 55.6071 34.3173 60.0196 38.381C64.4322 42.4447 69.4687 38.2834 69.4687 38.2834C69.4687 38.2834 84.3258 37.9303 85.2098 36.3304" stroke="white" stroke-width="0.5" stroke-miterlimit="10"/>
<path d="M51.8482 47.6803C51.8482 47.6803 60.1236 44.8635 66.6087 48.3788C73.0939 51.8942 80.1658 47.5 80.1658 47.5C80.1658 47.5 90.2538 49.468 92.0515 46.0503" stroke="white" stroke-width="0.5" stroke-miterlimit="10"/>
<path d="M60.6288 3.85805L59.7448 8.5227C59.7448 8.5227 72.2025 7.68893 74.5425 9.22879L74.2899 3.85805H61.015" stroke="white" stroke-width="0.5" stroke-miterlimit="10"/>
<path d="M79.4081 3.85805V9.22879C79.4081 9.22879 94.6441 9.22878 95.7509 10.1827C96.8578 11.1367 95.4389 3.85805 95.4389 3.85805H80.1064" stroke="white" stroke-width="0.5" stroke-miterlimit="10"/>
<path d="M101.033 3.27964V9.22878C101.033 9.22878 105.334 9.79966 105.898 8.718C106.463 7.63634 106.53 3.27964 106.53 3.27964H101.033Z" stroke="white" stroke-width="0.5" stroke-miterlimit="10"/>
</svg>
