<svg width="184" height="106" viewBox="0 0 184 106" fill="none" xmlns="http://www.w3.org/2000/svg">
<path d="M5.88637 66.9841L10.6357 59.6059" stroke="#696969" stroke-miterlimit="10"/>
<path d="M5.82187 66.7664L10.3376 59.6942" stroke="#696969" stroke-miterlimit="10"/>
<path d="M7.67375 64.734L10.7807 60.0952" stroke="#696969" stroke-miterlimit="10"/>
<path fill-rule="evenodd" clip-rule="evenodd" d="M22.0346 45.5009C22.3816 45.8608 22.3814 45.861 22.3813 45.8611L22.3835 45.859L22.3953 45.8479C22.4065 45.8375 22.4244 45.8211 22.4486 45.7994C22.4972 45.7559 22.5715 45.6911 22.6706 45.6096C22.8689 45.4464 23.1657 45.2168 23.5526 44.9576C24.3271 44.4387 25.4576 43.805 26.877 43.3479C29.6994 42.4392 33.6941 42.217 38.3685 45.0557L61.0695 59.7761L61.0716 59.7774L61.0788 59.7823L61.1118 59.8043C61.1402 59.8229 61.1812 59.8495 61.2343 59.8829C61.3404 59.9497 61.495 60.0438 61.6935 60.1562C62.0902 60.381 62.6636 60.68 63.3776 60.9813C64.803 61.5829 66.8041 62.2008 69.0864 62.2466C71.3752 62.2924 73.9416 61.7622 76.4767 60.0746C79.0051 58.3914 81.471 55.5779 83.6035 51.1076L83.6255 51.0693C83.6463 51.0331 83.6776 50.9791 83.7189 50.9084C83.8015 50.7669 83.9242 50.5584 84.0841 50.2919C84.404 49.7589 84.8721 48.9943 85.4642 48.0698C86.6488 46.2203 88.3271 43.7348 90.3035 41.1875C92.2814 38.6383 94.5492 36.0383 96.9116 33.9532C99.2826 31.8604 101.704 30.3265 103.988 29.8418L103.962 29.7192C104.208 29.6746 104.541 29.6241 104.945 29.5865C105.873 29.5 107.169 29.4825 108.634 29.7582C111.548 30.3063 115.165 32.0172 117.919 36.7423L130.845 60.5108L130.846 60.5129L130.85 60.5207L130.868 60.5557C130.884 60.5857 130.908 60.6286 130.938 60.6833C131 60.7926 131.091 60.949 131.212 61.1426C131.453 61.5294 131.814 62.0657 132.298 62.6713C133.263 63.8801 134.727 65.378 136.711 66.5072C138.701 67.6396 141.209 68.3983 144.242 68.1248C147.267 67.852 150.777 66.5561 154.784 63.645L154.822 63.6218C154.857 63.6 154.91 63.5675 154.98 63.525C155.121 63.44 155.328 63.3154 155.596 63.1575C156.131 62.8417 156.907 62.3931 157.869 61.8633C159.792 60.8031 162.453 59.4196 165.406 58.124C168.36 56.8275 171.594 55.6248 174.665 54.9195C177.747 54.2117 180.607 54.0191 182.846 54.683L183.13 53.7243C180.646 52.9876 177.585 53.223 174.441 53.9449C171.286 54.6694 167.989 55.8982 165.004 57.2083C162.016 58.5194 159.327 59.9176 157.386 60.9875C156.415 61.5226 155.63 61.9761 155.088 62.2962C154.816 62.4562 154.605 62.583 154.462 62.6699C154.39 62.7134 154.336 62.7469 154.298 62.7696L154.256 62.7956L154.245 62.8024L154.242 62.8042L154.242 62.8046C154.241 62.8048 154.241 62.8049 154.505 63.2296L154.241 62.8049L154.226 62.8145L154.211 62.8252C150.307 65.6644 146.961 66.8756 144.152 67.1288C141.348 67.3817 139.041 66.6829 137.206 65.6381C135.365 64.5901 133.993 63.191 133.079 62.0472C132.623 61.4764 132.284 60.9725 132.06 60.6132C131.948 60.4336 131.865 60.2905 131.81 60.1935C131.783 60.1451 131.763 60.1082 131.75 60.0841L131.736 60.0577L131.733 60.052L131.733 60.0515L131.733 60.0514L131.727 60.0399L118.794 36.2581L118.79 36.2517L118.786 36.2454C115.871 31.238 111.988 29.3715 108.819 28.7754C107.243 28.4789 105.851 28.4978 104.852 28.5908C104.352 28.6373 103.949 28.7026 103.669 28.7568C103.528 28.784 103.419 28.8084 103.343 28.8264C103.304 28.8354 103.275 28.8429 103.254 28.8482L103.229 28.8546L103.222 28.8566L103.22 28.8572L103.219 28.8575C103.219 28.8575 103.219 28.8576 103.255 28.9909C100.891 29.6338 98.5011 31.2164 96.2498 33.2035C93.823 35.3456 91.512 37.9986 89.5135 40.5745C87.5134 43.1522 85.8176 45.664 84.6221 47.5305C84.0242 48.4641 83.5508 49.2371 83.2267 49.7774C83.0646 50.0475 82.9397 50.2595 82.8552 50.4043C82.8129 50.4767 82.7808 50.5323 82.759 50.57L82.7343 50.613L82.728 50.6241L82.7263 50.6271L82.7258 50.6279C82.7257 50.6281 82.7256 50.6282 83.1602 50.8756L82.7256 50.6282L82.7166 50.6441L82.7088 50.6605C80.6328 55.0184 78.2701 57.6794 75.9225 59.2422C73.5783 60.8027 71.218 61.2891 69.1064 61.2468C66.9883 61.2043 65.1152 60.6293 63.7665 60.06C63.0935 59.776 62.5549 59.495 62.1864 59.2862C62.0023 59.1819 61.8609 59.0957 61.7668 59.0365C61.7197 59.0069 61.6845 58.9841 61.6617 58.969L61.6368 58.9525L61.6315 58.9489L61.631 58.9486L61.6311 58.9484L61.6201 58.9413L38.9065 44.2127L38.9003 44.2087L38.8941 44.2049C33.9426 41.1955 29.6397 41.4079 26.5705 42.3961C25.0436 42.8877 23.8294 43.5684 22.996 44.1268C22.5789 44.4062 22.2558 44.6559 22.0352 44.8374C21.9249 44.9282 21.84 45.0021 21.7818 45.0542C21.7526 45.0803 21.7301 45.1009 21.7144 45.1156L21.6958 45.133L21.6904 45.1381L21.6887 45.1398L21.688 45.1404C21.6878 45.1407 21.6875 45.1409 22.0346 45.5009Z" fill="#696969"/>
<path d="M22.2859 45.6288C22.2859 45.6288 25.52 42.6729 30.6981 42.2382" stroke="#696969" stroke-miterlimit="10"/>
<path d="M22.9313 45.4378C22.9313 45.4378 25.7683 42.9781 28.8762 42.6647" stroke="#696969" stroke-miterlimit="10"/>
<path d="M15.1671 54.0127L21.832 46.9779" stroke="#696969" stroke-miterlimit="10"/>
<path d="M8.52811 55.3718L13.9831 54.7843" stroke="#696969" stroke-miterlimit="10"/>
<path d="M13.5358 54.9168L9.18387 55.7848L7.44091 55.289L21.8358 46.9766C21.8358 46.9766 18.8859 54.4291 15.2604 61.2215L14.7478 54.744L7.77429 55.089" stroke="#696969" stroke-miterlimit="10"/>
<path d="M14.208 55.1549L14.8435 59.339L14.7632 54.9904" stroke="#696969" stroke-miterlimit="10"/>
<path d="M9.08459 55.4641L11.3377 55.3554" stroke="#696969" stroke-miterlimit="10"/>
<path d="M7.82935 55.1741C8.29416 55.3654 8.77068 55.5311 9.25662 55.6703" stroke="#696969" stroke-miterlimit="10"/>
</svg>
