<svg width="66" height="94" viewBox="0 0 66 94" fill="none" xmlns="http://www.w3.org/2000/svg">
<path d="M66 18.3081L59.9872 85.6664L32.9596 93.1593L6.0064 85.6769L0 18.3081H66Z" fill="#264DE4"/>
<path d="M54.8396 81.3771L59.9779 23.8164H33V87.4319L54.8396 81.3771Z" fill="#2965F1"/>
<path d="M13.7697 48.8025L14.5102 57.0649H33.0001V48.8025H13.7697Z" fill="#EBEBEB"/>
<path d="M32.9999 32.0791H32.9714H12.2815L13.0326 40.3417H32.9999V32.0791Z" fill="#EBEBEB"/>
<path d="M33 78.8576V70.2611L32.9638 70.2708L23.7618 67.786L23.1735 61.1963H18.7021H14.8793L16.0368 74.1696L32.962 78.8681L33 78.8576Z" fill="#EBEBEB"/>
<path d="M15.5327 0H25.54V4.18488H19.7176V8.36977H25.54V12.5547H15.5327V0Z" fill="white"/>
<path d="M27.5415 0H37.5488V3.63903H31.7264V4.36684H37.5488V12.7366H27.5415V8.91562H33.364V8.18782H27.5415V0Z" fill="white"/>
<path d="M39.5503 0H49.5576V3.63903H43.7352V4.36684H49.5576V12.7366H39.5503V8.91562H45.3727V8.18782H39.5503V0Z" fill="white"/>
<path d="M43.1458 57.0651L42.1867 67.7809L32.9714 70.2682V78.8643L49.91 74.1698L50.0343 72.7738L51.9759 51.0214L52.1775 48.8026L53.6691 32.0791H32.9714V40.3417H44.6141L43.8623 48.8026H32.9714V57.0651H43.1458Z" fill="white"/>
</svg>
