<svg width="33" height="47" viewBox="0 0 33 47" fill="none" xmlns="http://www.w3.org/2000/svg">
<path d="M33 9.15405L29.9936 42.8332L16.4798 46.5797L3.0032 42.8385L0 9.15405H33Z" fill="#264DE4"/>
<path d="M27.4198 40.6886L29.989 11.9082H16.5V43.716L27.4198 40.6886Z" fill="#2965F1"/>
<path d="M6.88483 24.4012L7.2551 28.5325H16.5001V24.4012H6.88483Z" fill="#EBEBEB"/>
<path d="M16.5 16.0396H16.4857H6.14075L6.51629 20.1709H16.5V16.0396Z" fill="#EBEBEB"/>
<path d="M16.5 39.4288V35.1306L16.4819 35.1354L11.8809 33.893L11.5868 30.5981H9.35104H7.43964L8.01842 37.0848L16.481 39.4341L16.5 39.4288Z" fill="#EBEBEB"/>
<path d="M7.76636 0H12.77V2.09244H9.8588V4.18488H12.77V6.27733H7.76636V0Z" fill="white"/>
<path d="M13.7708 0H18.7744V1.81951H15.8632V2.18342H18.7744V6.3683H13.7708V4.45781H16.682V4.09391H13.7708V0Z" fill="white"/>
<path d="M19.7751 0H24.7788V1.81951H21.8676V2.18342H24.7788V6.3683H19.7751V4.45781H22.6864V4.09391H19.7751V0Z" fill="white"/>
<path d="M21.5729 28.5325L21.0934 33.8905L16.4857 35.1341V39.4321L24.955 37.0849L25.0172 36.3869L25.988 25.5107L26.0888 24.4013L26.8346 16.0396H16.4857V20.1709H22.3071L21.9312 24.4013H16.4857V28.5325H21.5729Z" fill="white"/>
</svg>
