<svg width="356" height="133" viewBox="0 0 356 133" fill="none" xmlns="http://www.w3.org/2000/svg">
<path d="M1 49C2.89711 45.1667 7.4881 38.3 10.6752 41.5M15.2283 37L28.3183 27M35.717 21.5L53.9293 13M62.4662 13L81.2476 17M85.8006 21.5L97.1833 32.5M101.736 37L114.826 49M121.087 56.5L128.486 67.5M133.039 74L140.437 85L152.389 93.5M161.495 98L172.309 106M184.26 112.5L198.489 123M211.01 126.5L228.653 132M238.897 132L253.695 126.5M257.678 123L274.752 106M279.305 98L297.518 67.5M302.64 56.5L319.145 32.5M328.82 27C332.994 22.1667 344.073 13.4 355 17" stroke="#FEFEFE"/>
<path d="M19.698 7.94763L70.198 1.94763C73.0313 0.780964 78.398 -0.252369 77.198 4.94763L37.698 40.9475C34.698 42.2808 29.898 42.7475 34.698 33.9475L42.698 16.4475C43.6026 14.9775 44.5686 12.9245 43.5973 12.8804L42.698 13.1486C42.205 13.3908 41.5503 13.8083 40.698 14.4475L18.698 12.4475C15.698 11.3436 11.698 8.89813 19.698 7.94763Z" fill="#D9D9D9"/>
<path d="M42.698 13.1486C44.9814 12.0268 43.7946 14.6656 42.698 16.4475L34.698 33.9475C29.898 42.7475 34.698 42.2808 37.698 40.9475L77.198 4.94763C78.398 -0.252369 73.0313 0.780964 70.198 1.94763L19.698 7.94763C11.698 8.89813 15.698 11.3436 18.698 12.4475L40.698 14.4475C41.5503 13.8083 42.205 13.3908 42.698 13.1486ZM42.698 13.1486L70.198 4.94763" stroke="#FEFEFE"/>
</svg>
