<svg width="64" height="109" viewBox="0 0 64 109" fill="none" xmlns="http://www.w3.org/2000/svg">
<path d="M8.89307 106.63C7.55798 105.213 7.15437 103.265 8.19596 103.265C9.22141 103.265 8.84071 101.589 7.75074 101.305C7.17936 101.156 12.9896 101.003 20.6623 100.965L34.6128 100.896L34.4141 104.072C34.2187 107.194 34.1908 107.238 32.7847 106.588C31.5671 106.026 31.4862 105.83 32.2414 105.271C32.7294 104.909 33.1287 104.443 33.1287 104.235C33.1287 103.532 30.8556 103.85 30.5537 104.596C30.3748 105.038 30.2354 104.919 30.2074 104.3C30.1626 103.31 30.7672 103.011 32.3867 103.221C32.7948 103.273 33.1287 102.905 33.1287 102.403C33.1287 101.753 32.5283 101.489 31.051 101.489H28.9732V104.448C28.9732 106.076 28.7061 107.408 28.3796 107.408C28.0531 107.408 27.786 106.875 27.786 106.224C27.786 105.435 27.3902 105.04 26.5987 105.04C25.9457 105.04 25.4114 105.339 25.4114 105.705C25.4114 106.161 25.1307 106.137 24.5137 105.626C23.8353 105.065 23.779 104.687 24.2833 104.081C25.1235 103.072 24.5551 101.489 23.3523 101.489C22.6538 101.489 22.4388 102.209 22.4243 104.596C22.4089 107.135 22.2728 107.541 21.6802 106.816C21.2812 106.327 20.5551 105.84 20.0665 105.733C19.578 105.626 18.7565 105.16 18.241 104.698C17.026 103.607 16.5481 103.637 15.149 104.892C14.0427 105.885 14.0038 105.878 14.2196 104.744C14.3893 103.852 15.0651 103.478 16.9657 103.224C19.2089 102.925 19.449 103.006 19.1441 103.964C18.7207 105.294 20.1918 105.431 21.2497 104.16C22.7672 102.337 21.5582 101.582 17.2866 101.686L13.2419 101.785L12.8899 104.744C12.6964 106.372 12.496 107.135 12.4447 106.441C12.3883 105.678 11.8273 105.042 11.026 104.833C9.08894 104.328 8.36892 105.371 9.66744 106.802C11.1795 108.468 10.4781 108.312 8.89316 106.63L8.89307 106.63ZM27.7862 102.969C27.7862 101.884 27.4696 101.489 26.5989 101.489C25.7282 101.489 25.4116 101.884 25.4116 102.969C25.4116 104.054 25.7282 104.448 26.5989 104.448C27.4696 104.448 27.7862 104.054 27.7862 102.969ZM12.2388 102.821C12.1288 102.251 11.5118 101.785 10.8677 101.785C10.2237 101.785 9.60668 102.251 9.49668 102.821C9.34683 103.597 9.69097 103.857 10.8677 103.857C12.0445 103.857 12.3887 103.597 12.2388 102.821ZM52.6435 106.964C51.9051 106.025 51.9261 106.004 52.8677 106.74C53.439 107.187 53.9065 107.653 53.9065 107.776C53.9065 108.263 53.419 107.95 52.6435 106.964L52.6435 106.964ZM43.9248 106.076C43.8447 104.889 43.4988 104.448 42.6463 104.448C41.889 104.448 41.5898 104.74 41.7963 105.276C41.9716 105.732 41.8538 106.265 41.5345 106.462C40.6844 106.986 39.2147 106.282 38.7798 105.142C38.4769 104.349 38.5502 104.299 39.1494 104.892C39.5606 105.299 40.2536 105.632 40.6895 105.632C41.2982 105.632 41.3347 105.357 40.8468 104.448C40.2745 103.382 40.3953 103.265 42.0626 103.265C45.0374 103.265 43.8174 101.832 40.5039 101.434C38.8523 101.236 41.7116 101.042 47.0802 100.989L56.5784 100.896L56.375 104.153C56.1792 107.287 55.0943 108.26 55.0943 105.301C55.0943 103.6 54.1572 103.45 52.5491 104.892C51.4428 105.885 51.4038 105.878 51.617 104.744C51.7634 103.965 52.3958 103.497 53.4669 103.373C56.1348 103.066 55.5094 101.489 52.7197 101.489H50.3452L50.3263 104.596C50.3108 107.135 50.1748 107.541 49.5821 106.816C49.1832 106.327 48.457 105.844 47.9685 105.741C46.545 105.441 45.1463 103.771 46.0413 103.44C47.222 103.004 46.9004 101.489 45.6271 101.489C44.6556 101.489 44.4359 101.986 44.2528 104.596C44.1329 106.305 43.9854 106.971 43.925 106.076L43.9248 106.076ZM49.1514 104.16C49.5544 103.676 49.7291 102.877 49.5395 102.384C49.1035 101.252 47.3767 101.207 47.3767 102.328C47.3767 102.79 47.2146 103.589 47.0164 104.104C46.5501 105.315 48.1545 105.357 49.1514 104.16H49.1514ZM24.522 98.5299C24.3202 98.2044 24.4222 97.9381 24.7487 97.9381C25.0752 97.9381 25.5075 98.2044 25.7092 98.5299C25.911 98.8554 25.809 99.1217 25.4825 99.1217C25.156 99.1217 24.7238 98.8554 24.522 98.5299ZM51.8293 98.5299C51.365 97.7809 52.1508 97.7809 53.3134 98.5299C54.0808 99.0243 54.0651 99.1049 53.2 99.1127C52.6479 99.1174 52.0311 98.8554 51.8293 98.5299V98.5299ZM17.2268 94.4348C12.1226 94.0782 10.8867 93.4093 11.3988 91.2798C11.577 90.5384 11.284 90.2417 10.3676 90.236C6.73681 90.2131 4.63521 88.1004 4.63521 84.4734C4.63521 83.5458 4.35843 82.5109 4.02014 82.1737C2.93515 81.0919 4.67071 73.7854 6.25911 72.7479C6.99848 72.2649 7.6034 71.3187 7.6034 70.6451C7.6034 69.9715 8.13767 68.7432 8.79067 67.9156C9.44367 67.088 9.97794 66.694 9.97794 67.0402C9.97794 67.3863 9.64402 68.0215 9.2359 68.4516C8.82777 68.8818 8.43835 70.1659 8.3705 71.3052C8.2695 73.0013 8.35916 73.1824 8.8654 72.305C9.20545 71.7156 9.33612 70.85 9.1558 70.3815C8.78061 69.4067 9.71254 69.2145 10.2908 70.1474C10.5015 70.4872 10.3607 71.1414 9.97794 71.6011C9.59523 72.0609 9.43092 72.6771 9.61282 72.9705C9.79471 73.264 9.69189 74.3789 9.38431 75.4481C8.77713 77.5588 9.20657 79.0469 10.0431 77.7308C10.4406 77.1052 10.5554 77.1567 10.5625 77.9635C10.5672 78.5331 10.3579 78.9992 10.0967 78.9992C9.25775 78.9992 8.19704 77.6112 8.19704 76.5135C8.19704 75.9275 7.95497 75.4481 7.6591 75.4481C6.8257 75.4481 6.27214 80.8991 6.73244 84.5726C7.13911 87.8177 8.19706 89.2071 8.19706 86.4961C8.19706 85.7366 8.39741 84.9155 8.64229 84.6714C8.88716 84.4274 9.12568 83.5174 9.17233 82.6493C9.29792 80.3117 9.33676 80.1831 9.9171 80.1831C10.6353 80.1831 10.4295 83.9167 9.68116 84.4649C9.34321 84.7125 9.52047 84.9036 10.0927 84.9088C10.6456 84.9135 11.4763 84.3794 11.9386 83.7213C12.693 82.6475 12.8585 82.6198 13.5514 83.4523C13.9761 83.9625 14.716 84.2298 15.1955 84.0463C16.1976 83.6629 20.0697 84.9199 20.0697 85.6286C20.0697 85.8887 20.3939 86.035 20.7901 85.9536C21.1862 85.8722 21.7839 86.4049 22.1181 87.1373C22.7416 88.5036 24.0015 89.0613 23.4552 87.7291C22.5518 85.5262 22.5329 84.8697 23.4211 86.5455C23.9819 87.6034 24.7735 88.469 25.1804 88.469C25.649 88.469 25.2469 87.1676 24.0832 84.9179C22.8506 82.5352 21.8881 81.3668 21.1579 81.3668C19.8098 81.3668 19.7904 81.8775 21.0676 83.7504L22.0654 85.2138L20.7708 84.0863C19.0914 82.6239 19.1284 81.4693 20.8758 80.807C22.2303 80.2935 22.4455 79.7072 23.1685 74.5606C23.3207 73.4768 22.9468 73.3624 18.7341 73.2041C14.299 73.0374 14.1334 73.0794 14.1334 74.3715V75.7118L13.2093 74.3964C12.701 73.6729 11.7744 73.081 11.1502 73.081C10.3585 73.081 10.1243 72.7975 10.376 72.1437C10.5745 71.6281 10.9 71.4283 11.0994 71.6998C11.6563 72.4576 14.3756 72.448 14.8664 71.6863C15.176 71.2058 15.3051 71.2342 15.3116 71.7843C15.3163 72.2104 15.5878 72.3944 15.9143 72.1932C17.0881 71.47 16.4753 70.7972 14.8754 71.0525C13.3194 71.3008 13.2969 71.2713 14.3953 70.4215C15.029 69.9312 15.913 69.53 16.3596 69.53C16.8062 69.53 16.9993 69.252 16.7887 68.9122C16.5781 68.5725 16.6761 67.9697 17.0065 67.5727C17.337 67.1757 17.9507 65.5228 18.3704 63.8996C19.1093 61.042 19.1461 61.0046 19.5314 62.7238C19.9338 64.5193 20.0056 64.309 20.2856 60.5149C20.3512 59.6255 20.7646 58.5601 21.2043 58.1475C21.8703 57.5224 21.9484 57.8909 21.6725 60.3564C21.4904 61.984 21.1602 63.7817 20.9388 64.3513C20.6651 65.0558 20.8212 65.3871 21.4268 65.3871C21.9166 65.3871 22.4765 64.9735 22.671 64.4681C22.9976 63.6196 22.3296 57.3298 21.4879 53.3283C21.2295 52.0994 21.326 51.7475 21.8355 52.0614C22.294 52.3439 22.5 52.1109 22.4242 51.3956C22.1422 48.7352 22.6468 48.8008 23.0652 51.4789C23.7349 55.7656 23.7246 62.9997 23.0455 65.3606C22.677 66.6417 22.6687 67.5268 23.0232 67.7453C23.8069 68.2282 23.0689 70.7136 22.1418 70.7136C21.725 70.7136 21.2303 71.1131 21.0424 71.6014C20.8342 72.1422 21.0412 72.4892 21.5725 72.4892C22.052 72.4892 22.4484 72.1562 22.4534 71.7493C22.4601 71.205 22.5973 71.2217 22.9728 71.8125C23.563 72.7412 24.3426 71.8592 24.0276 70.6191C23.9168 70.1828 23.9287 69.9973 24.0541 70.2069C24.3563 70.712 26.5998 70.1125 26.5998 69.5267C26.5998 69.2753 26.1324 69.1066 25.5612 69.1518C24.9076 69.2035 24.5009 68.7953 24.464 68.0503C24.4193 67.1496 24.4646 67.1142 24.6534 67.9023C24.8882 68.8829 26.0848 69.4352 25.9358 68.4942C25.707 67.0491 26.132 67.0933 26.9181 68.5962C27.8763 70.4281 27.2565 71.5196 25.6147 70.8915C25.177 70.724 24.8188 70.8454 24.8188 71.1613C24.8188 72.3084 27.4701 71.5723 28.1359 70.2404C28.6866 69.1388 28.6032 68.4626 27.698 66.6926C26.9416 65.2134 26.7973 64.4336 27.252 64.2825C27.6218 64.1596 28.1565 64.4244 28.4402 64.871C28.7931 65.4264 28.959 65.064 28.9652 63.7246C28.9705 62.6185 28.7256 61.9194 28.4029 62.1182C28.0864 62.3132 27.8473 61.7347 27.8669 60.8215C27.8864 59.9147 27.5843 57.8919 27.1955 56.3264C26.7739 54.6288 26.684 52.8374 26.9726 51.8876C27.3621 50.606 27.5178 51.1041 27.7702 54.4379C28.0351 57.9362 28.1901 58.3966 28.7665 57.3971C29.1419 56.7461 29.5269 54.216 29.622 51.7746C29.7421 48.6908 30.1227 46.8562 30.8687 45.765C32.2578 43.7327 32.2262 43.3023 30.7552 44.2181C30.1022 44.6247 29.568 45.426 29.568 45.9987C29.568 46.5714 29.1673 47.04 28.6775 47.04C28.1878 47.04 27.7871 47.4754 27.7871 48.0076C27.7871 48.7078 27.4414 48.5371 26.5364 47.3901C25.5576 46.1495 24.8803 45.8508 23.4198 46.0155C21.8197 46.1961 21.5016 46.5159 21.1868 48.2606L20.8197 50.2952L20.7334 47.9278C20.633 45.1708 20.0927 42.8809 19.5553 42.9349C19.3485 42.9556 18.1775 44.1723 16.9532 45.6386C15.7288 47.1049 14.727 47.9916 14.727 47.609C14.727 47.2264 14.3349 47.0634 13.8556 47.2468C13.3763 47.4302 12.8262 47.3255 12.6332 47.0142C12.4403 46.7029 12.5653 46.4482 12.9111 46.4482C13.2568 46.4482 13.5087 45.849 13.4709 45.1166C13.419 44.1144 13.3348 44.0412 13.1305 44.8206C12.7352 46.3288 12.1593 46.1015 10.8812 43.9329C10.2578 42.8749 9.3988 41.6575 8.97233 41.2273C8.54584 40.7972 8.19691 39.9473 8.19691 39.3387C8.19691 38.7302 7.89558 38.0466 7.5273 37.8196C6.61464 37.2573 7.27473 31.307 8.52757 28.8029C9.09787 27.6631 9.34804 26.2621 9.13344 25.4097C8.93242 24.6112 9.02381 23.9578 9.33652 23.9578C9.96239 23.9578 10.8991 19.0305 10.6304 17.1516C10.5373 16.5006 10.0737 15.5348 9.60021 15.0053C8.84202 14.1576 8.8663 13.9933 9.8038 13.6281C10.7519 13.2588 10.6824 13.0645 9.1682 11.8515L7.46808 10.4894L5.46467 11.7491C4.36282 12.4419 3.28602 13.6466 3.07178 14.4261C2.85756 15.2056 2.15995 16.3642 1.52155 17.0006C0.638813 17.8807 0.526795 18.3209 1.0538 18.8385C1.57681 19.3522 1.91897 19.3014 2.44885 18.6313C3.19071 17.6933 5.44731 17.208 4.89042 18.1063C4.71141 18.3951 4.1958 18.6313 3.74457 18.6313C2.62414 18.6313 2.23383 19.4063 2.85204 20.4035C3.26416 21.0683 3.60341 20.9461 4.57407 19.7834C5.23888 18.987 5.79173 18.0025 5.80259 17.5956C5.82444 16.7767 6.71217 16.7069 8.45431 17.3871C9.24337 17.6952 9.38258 17.9706 8.89954 18.2682C8.51309 18.5063 7.95258 18.5506 7.65398 18.3666C6.17849 17.4575 6.90914 21.1684 8.42137 22.2641C9.08191 22.7427 8.35772 23.9608 7.41984 23.9488C6.88244 23.9419 6.88517 23.8306 7.43118 23.4846C7.94586 23.1585 7.80201 22.813 6.92383 22.2663C5.91334 21.6371 5.78114 21.6407 6.17098 22.2866C6.52567 22.8743 6.3858 22.8613 5.61137 22.2346C4.88475 21.6466 4.78182 21.274 5.26398 20.9769C5.75955 20.6716 5.76732 20.4428 5.29206 20.15C4.9307 19.9273 4.60094 19.9606 4.55927 20.2239C4.17913 22.6264 4.34592 23.5116 5.30487 24.1813C5.91181 24.6051 6.20975 25.1652 5.96695 25.4259C5.72416 25.6866 6.28627 25.7177 7.21609 25.495C8.46379 25.1961 8.83968 25.2905 8.65097 25.8556C8.20127 27.2021 6.34569 27.0809 5.339 25.6394C4.80683 24.8773 3.36219 23.1587 2.12868 21.8203C-0.453764 19.0182 -0.519418 18.7128 1.03639 16.7409C1.66914 15.9389 2.36026 14.5941 2.57213 13.7523C2.80003 12.847 3.63129 11.9437 4.60729 11.5406C5.51473 11.1659 6.62518 10.1737 7.07504 9.33574C7.52485 8.49781 9.05969 7.31358 10.4858 6.7041C13.0415 5.61191 13.1066 5.6131 15.0118 6.78704C16.0749 7.4421 17.3496 7.97806 17.8443 7.97806C18.3391 7.97806 18.8836 8.51073 19.0544 9.16176C19.2252 9.81279 19.6897 10.3454 20.0868 10.3454C20.646 10.3454 20.6421 10.1453 20.0697 9.45768C19.6564 8.96124 19.5927 8.56991 19.925 8.56991C20.7093 8.56991 21.7654 5.83298 21.9777 3.25011C22.1323 1.36857 22.3426 1.15409 24.348 0.832063C26.9103 0.420594 27.4725 0.678922 28.0537 2.53463C28.3966 3.62966 28.6455 3.76081 29.3209 3.20199C29.7832 2.81948 30.1615 2.76505 30.1615 3.08105C30.1615 3.39704 29.1125 4.06642 27.8305 4.56849C25.6869 5.40796 25.5287 5.40327 25.8638 4.51029C26.1805 3.66656 26.097 3.64574 25.2267 4.35151C24.3611 5.05356 24.2251 5.02864 24.2251 4.168C24.2251 3.39399 24.6217 3.23454 26.006 3.45204C27.8909 3.7482 28.2989 3.22003 27.0095 2.15311C25.9019 1.23664 22.7193 2.20585 22.8203 3.42896C22.8639 3.95701 23.0676 5.05637 23.2729 5.87187C23.5535 6.98655 23.4427 7.27685 22.8264 7.04106C21.5798 6.56411 21.1159 9.20911 22.2308 10.4373C22.7417 11.0001 23.0198 11.809 22.8488 12.2347C22.6467 12.738 22.5216 12.6465 22.4911 11.973C22.4653 11.4034 22.1852 10.9373 21.8687 10.9373C21.5521 10.9373 21.3283 11.8694 21.3712 13.0087C21.453 15.1759 22.3802 15.6956 23.5844 14.2491C23.9967 13.7538 24.1121 12.7373 23.8702 11.7337L23.4641 10.0495L24.9476 11.4054L26.4312 12.7613L27.3927 11.2983C28.2862 9.9387 28.2817 9.81632 27.3285 9.56715C26.7644 9.41968 27.1896 9.26811 28.2734 9.23035C29.9592 9.17164 30.2166 8.97014 30.0543 7.83608C29.9435 7.06195 29.3707 6.4243 28.6773 6.30333C27.49 6.09615 27.49 6.09614 28.6773 7.03851C29.6508 7.81123 29.6762 7.91545 28.8182 7.61732C28.2426 7.41735 27.3278 7.61673 26.7852 8.05976C25.9372 8.75257 25.9479 8.63718 26.861 7.23822C28.712 4.40263 31.3487 5.45262 31.3487 9.02535C31.3487 10.755 31.5259 10.9945 32.6844 10.8305C33.7601 10.6782 34.0201 10.2628 34.0201 8.69629C34.0201 5.99268 36.3255 4.63261 37.8348 6.44573C38.3671 7.08516 38.3627 7.38393 37.8158 7.72087C37.3614 8.00081 37.2566 7.91079 37.5277 7.47346C38.2085 6.37529 36.1088 5.9378 35.0801 6.96345C33.6469 8.39228 34.5558 9.96382 36.5485 9.50247C37.4433 9.2953 37.8643 9.3353 37.484 9.59139C36.9684 9.93862 37.0037 10.3449 37.623 11.1893C38.4241 12.2816 38.495 12.2839 39.6361 11.2544C40.2866 10.6675 40.6524 9.88994 40.4489 9.52655C40.1837 9.05282 40.2849 9.05486 40.8064 9.53376C41.3791 10.0597 41.3473 10.7518 40.6566 12.7889C40.1741 14.2119 39.5154 15.3761 39.1927 15.3761C38.8701 15.3761 38.0506 16.0419 37.3716 16.8557C36.5658 17.8217 36.1303 18.0374 36.1175 17.4772C36.1031 16.8531 35.9196 16.7965 35.4447 17.27C34.9698 17.7435 34.4804 17.6107 33.6502 16.783C32.7424 15.878 32.2649 15.7749 31.3184 16.28C30.6637 16.6293 30.2876 17.1724 30.4825 17.4869C30.6775 17.8014 31.0411 17.9329 31.2906 17.7792C31.5402 17.6254 31.7443 17.8921 31.7443 18.3718C31.7443 19.0306 31.4206 18.9409 30.4218 18.0054C29.6652 17.2968 28.9452 17.0152 28.7393 17.3475C28.5413 17.6669 27.8165 17.7816 27.1288 17.6023C26.0745 17.3274 25.9301 16.9587 26.208 15.2514C26.4404 13.8233 26.328 13.3009 25.8265 13.4788C25.4354 13.6175 25.1805 14.3094 25.2601 15.0163C25.3821 16.0987 25.2311 16.2088 24.3033 15.7137C23.5155 15.2934 22.8823 15.3626 22.0807 15.9567C20.9926 16.7631 20.9999 16.8273 22.3298 18.1531C23.6026 19.4221 23.7533 19.4471 24.4563 18.5058C25.1557 17.5694 25.3215 17.5648 26.6482 18.4445C27.4376 18.9679 28.424 19.8166 28.8403 20.3305C29.4626 21.0989 29.8053 21.1352 30.7696 20.5348C31.4145 20.1333 31.9421 20.0422 31.9421 20.3324C31.9421 21.6349 35.4564 20.5827 37.1527 18.7722C39.1242 16.668 39.9526 16.4048 40.4594 17.7216C40.6516 18.2209 40.1895 19.0607 39.3681 19.7048C38.3658 20.4908 38.0424 21.1991 38.277 22.094C38.6794 23.6279 38.7367 23.6352 40.2463 22.3466C41.0453 21.6645 41.4403 20.599 41.4403 19.1263C41.4403 17.9158 41.7084 16.7602 42.036 16.5583C42.8401 16.0629 42.6598 9.07857 41.8159 8.03041C41.4461 7.5709 41.1163 6.77191 41.083 6.25487C40.9157 3.65714 40.8005 3.24332 40.2446 3.24332C39.9016 3.24332 39.7775 4.00751 39.9562 5.01885C40.1288 5.9954 40.0276 6.79439 39.7314 6.79439C38.8728 6.79439 38.4661 5.1248 39.2475 4.80793C39.7205 4.6161 39.6788 4.50495 39.1222 4.47377C38.4752 4.43755 38.5266 4.1643 39.3514 3.25569C40.3203 2.1883 40.3284 2.05135 39.4434 1.71275C38.9092 1.50838 38.0887 1.48787 37.62 1.66718C37.1514 1.84648 36.6605 1.67522 36.5293 1.2866C36.3518 0.761092 36.0377 0.788181 35.3037 1.39232C34.7608 1.83907 34.3167 1.95383 34.3167 1.64733C34.3167 1.34083 33.2481 1.09627 31.9421 1.10387C30.6361 1.11145 29.5676 1.36225 29.5676 1.66115C29.5676 1.96005 29.1669 1.87305 28.6771 1.46782C27.0538 0.124682 27.7425 -0.137208 32.3874 0.0570356C40.8022 0.408882 41.2397 0.579264 41.7603 3.70801C41.9615 4.91727 42.5729 6.7842 43.119 7.8568C44.2686 10.1151 45.3726 10.0805 48.9283 7.67481C50.1251 6.8651 51.3596 6.2026 51.6718 6.2026C52.8901 6.2026 55.4763 8.16439 56.4207 9.80481C56.9897 10.7933 57.9137 11.5292 58.5858 11.5292C60.1556 11.5292 61.624 13.0785 61.624 14.7349C61.624 15.475 62.1583 16.5626 62.8113 17.1517C63.4643 17.7409 63.9985 18.5483 63.9985 18.9459C63.9985 19.3434 62.2864 21.4706 60.1939 23.6729C57.5674 26.437 56.0967 27.5651 55.4448 27.3157C54.9253 27.117 54.5003 26.5465 54.5003 26.048C54.5003 25.5495 54.2332 25.1417 53.9067 25.1417C53.0855 25.1417 53.1584 25.5398 54.2963 27.2712C55.5837 29.2301 56.2665 34.545 55.5434 36.9787C55.3984 37.467 55.0636 38.6654 54.7995 39.642C54.5354 40.6185 53.8258 42.0527 53.2225 42.829C52.6193 43.6054 52.1258 44.4762 52.1258 44.7643C52.1258 45.0524 51.4343 46.3802 50.589 47.7151C49.4568 49.5033 49.1383 50.6295 49.379 51.9942C49.5587 53.0129 49.4762 54.7784 49.1956 55.9177C48.768 57.6542 48.6756 57.2474 48.6247 53.4024C48.546 47.4609 47.6204 47.4325 47.4668 53.3669C47.3077 59.5085 46.7831 59.7027 46.7831 53.6197C46.7831 48.8631 46.7377 48.7104 44.7053 46.6241L42.6276 44.4912L42.5206 48.5769C42.434 51.8813 42.3711 52.125 42.1912 49.8514C42.0367 47.8967 41.7075 47.0401 41.1109 47.0401C40.6391 47.0401 40.253 46.6406 40.253 46.1523C40.253 44.9829 39.0653 45.0566 37.5515 46.32C36.568 47.1408 36.3829 47.8454 36.588 49.9871C36.7276 51.4451 36.4897 54.9074 36.0593 57.6811L35.2768 62.724L34.5569 59.7648C34.1609 58.1372 33.8477 55.3408 33.8608 53.5504C33.874 51.7601 33.9871 50.9611 34.1124 51.7749C34.9326 57.1056 35.0375 57.4335 35.5332 56.2137C36.1079 54.7993 36.2192 50.8076 35.7342 49.005C35.5314 48.2513 34.9537 47.7471 34.3451 47.7928C33.6149 47.8477 33.3945 48.2193 33.6085 49.0352C33.8441 49.9334 33.6887 50.1131 32.928 49.8221C30.838 49.0225 30.163 49.9692 30.1189 53.7619C30.0957 55.7616 29.8765 59.5283 29.6318 62.1324C29.3866 64.7426 29.4196 67.0243 29.7054 67.2173C29.9905 67.4099 30.1781 67.8094 30.1222 68.1051C29.8261 69.6713 30.3142 70.1223 32.3049 70.1223C34.4086 70.1223 34.4419 70.0857 34.0814 68.1701C33.8365 66.8684 34.0088 65.833 34.5985 65.0629C35.4261 63.9822 35.4597 64.0316 35.1224 65.8314C34.8795 67.1271 34.9929 67.7549 35.4697 67.7549C35.9235 67.7549 36.0324 68.2109 35.7731 69.0253C35.4301 70.1029 35.559 70.246 36.623 69.9686C37.3128 69.7888 38.0295 69.8873 38.2157 70.1876C38.4018 70.4878 38.8111 70.5752 39.125 70.3817C39.439 70.1882 40.5899 69.9471 41.6826 69.8459C43.3874 69.6879 43.6272 69.8222 43.3728 70.7923C43.1381 71.6868 42.9026 71.7792 42.2447 71.2348C41.585 70.689 41.4846 70.7323 41.7586 71.4442C41.9486 71.9379 42.7611 72.3417 43.5642 72.3417C44.5604 72.3417 44.8579 72.1302 44.5005 71.6759C44.2124 71.3097 43.9339 70.544 43.8817 69.9743C43.8294 69.4047 43.7357 68.4503 43.6735 67.8536C43.6114 67.2568 43.2131 66.7685 42.7886 66.7685C42.2946 66.7685 42.1378 67.2125 42.3529 68.0015C42.614 68.959 42.3873 68.8454 41.3386 67.4935C40.5959 66.5358 39.9392 64.8047 39.8794 63.6465C39.8195 62.4882 39.5898 60.2089 39.3689 58.5813C39.1306 56.8259 39.2296 55.0202 39.6123 54.1425C40.1369 52.9391 40.1902 53.2706 39.8979 55.918C39.4618 59.8682 40.5797 59.3924 41.3882 55.2837L41.9039 52.6629L41.9689 55.1972C42.0047 56.5911 42.4593 58.7218 42.9792 59.932C43.499 61.1422 44.3245 63.4434 44.8135 65.0457C45.7841 68.2262 47.2053 70.7142 48.0514 70.7142C48.3473 70.7142 48.8902 70.0561 49.2577 69.2519C49.8352 67.9882 49.7328 67.6255 48.503 66.5801C47.6497 65.8548 47.4365 65.4331 47.9704 65.527C48.9272 65.6951 48.9702 65.1147 48.3312 60.6528C48.0261 58.5221 48.1639 58.7581 49.0202 61.8324C49.7176 64.3364 50.4275 65.7401 51.0577 65.8611C51.5896 65.9632 52.1611 66.401 52.3278 66.8338C52.5368 67.377 52.2682 67.5264 51.4612 67.316C50.3143 67.017 50.3123 67.0515 51.3572 69.0958C51.9432 70.2424 52.6238 71.0594 52.8695 70.9114C53.1153 70.7634 53.0048 70.0592 52.6239 69.3465C51.9978 68.1749 52.0261 68.1286 52.9191 68.8631C53.4623 69.3098 53.9068 70.0422 53.9068 70.4906C53.9068 70.939 54.2893 71.306 54.7568 71.306C55.2243 71.306 56.196 72.1309 56.9162 73.1392C58.0431 74.7171 58.2234 75.7363 58.2106 80.4568C58.1994 84.5669 57.9469 86.3194 57.2029 87.4518C56.1554 89.0456 54.7287 89.8642 53.8943 89.35C53.6198 89.1808 53.2098 89.3416 52.9831 89.7072C52.6906 90.179 52.4092 90.1389 52.0128 89.5688C51.6238 89.0094 51.5684 89.1698 51.8302 90.0975C52.4142 92.1675 51.6542 93.6384 49.6385 94.3389C47.7114 95.0087 26.3394 95.0728 17.2265 94.4362L17.2268 94.4348ZM20.8354 92.6114C20.6647 91.9604 20.4226 91.4278 20.2974 91.4278C20.1722 91.4278 20.0698 91.9604 20.0698 92.6114C20.0698 93.2625 20.3119 93.7951 20.6079 93.7951C20.9038 93.7951 21.0062 93.2625 20.8354 92.6114ZM22.7836 92.7101C22.7836 92.1133 22.4768 91.6251 22.1018 91.6251C21.7268 91.6251 21.5481 92.1133 21.7046 92.7101C21.8611 93.3069 22.1679 93.7951 22.3864 93.7951C22.6048 93.7951 22.7836 93.3069 22.7836 92.7101H22.7836ZM24.6184 92.9442C24.4075 92.3965 24.755 92.0035 25.5937 91.8412C26.6708 91.6327 26.6137 91.575 25.2641 91.5084C24.0004 91.446 23.6316 91.6952 23.6316 92.6114C23.6316 93.2625 23.9273 93.7951 24.2888 93.7951C24.6502 93.7951 24.7985 93.4122 24.6184 92.9442V92.9442ZM26.5998 93.2033C26.5998 92.8778 26.3326 92.6114 26.0061 92.6114C25.6796 92.6114 25.4125 92.8778 25.4125 93.2033C25.4125 93.5288 25.6796 93.7951 26.0061 93.7951C26.3326 93.7951 26.5998 93.5288 26.5998 93.2033ZM30.1616 93.1293C30.1616 92.8445 29.4938 92.6114 28.6775 92.6114C27.8613 92.6114 27.1934 92.8445 27.1934 93.1293C27.1934 93.4141 27.8613 93.6472 28.6775 93.6472C29.4938 93.6472 30.1616 93.4141 30.1616 93.1293ZM33.1298 93.2033C33.1298 92.8778 32.5955 92.6114 31.9425 92.6114C31.2895 92.6114 30.7552 92.8778 30.7552 93.2033C30.7552 93.5288 31.2895 93.7951 31.9425 93.7951C32.5955 93.7951 33.1298 93.5288 33.1298 93.2033ZM41.4407 93.1239C41.4407 92.8421 39.7043 92.6114 37.5821 92.6114C35.4598 92.6114 33.7234 92.8337 33.7234 93.1054C33.7234 93.3771 35.4598 93.6077 37.5821 93.6179C39.7043 93.6281 41.4407 93.4058 41.4407 93.1239ZM43.2216 93.2033C43.2216 92.8778 42.9545 92.6114 42.628 92.6114C42.3015 92.6114 42.0343 92.8778 42.0343 93.2033C42.0343 93.5288 42.3015 93.7951 42.628 93.7951C42.9545 93.7951 43.2216 93.5288 43.2216 93.2033ZM45.0025 93.2033C45.0025 92.8778 44.7354 92.6114 44.4089 92.6114C44.0824 92.6114 43.8153 92.8778 43.8153 93.2033C43.8153 93.5288 44.0824 93.7951 44.4089 93.7951C44.7354 93.7951 45.0025 93.5288 45.0025 93.2033ZM47.3771 93.2033C47.3771 92.8778 47.1099 92.6114 46.7834 92.6114C46.4569 92.6114 46.1898 92.8778 46.1898 93.2033C46.1898 93.5288 46.4569 93.7951 46.7834 93.7951C47.1099 93.7951 47.3771 93.5288 47.3771 93.2033ZM33.8718 91.5861C31.2661 91.4352 30.1616 91.1342 30.1616 90.575C30.1616 89.7042 28.7106 88.9288 28.1419 89.4957C27.466 90.1696 27.7918 90.8361 28.8259 90.8949C29.4995 90.9331 29.3429 91.1086 28.3807 91.3941C27.4795 91.6615 28.9953 91.8279 32.2393 91.8177C36.1143 91.8056 36.5628 91.742 33.8718 91.5861V91.5861ZM39.499 91.662C39.3018 91.4653 38.7898 91.4443 38.3612 91.6153C37.8877 91.8042 38.0283 91.9445 38.7199 91.9729C39.3457 91.9986 39.6963 91.8587 39.499 91.662L39.499 91.662ZM43.37 91.6276C42.9619 91.4634 42.2941 91.4634 41.8859 91.6276C41.4778 91.7918 41.8117 91.9261 42.628 91.9261C43.4442 91.9261 43.7782 91.7918 43.37 91.6276ZM22.4532 90.0961C22.4592 89.6379 22.6284 89.5816 22.8985 89.9481C23.6531 90.9723 27.0057 90.9931 27.3972 89.9761C27.6887 89.2185 27.189 89.0604 24.5032 89.0604C22.0133 89.0604 21.2569 89.2672 21.2569 89.9481C21.2569 90.4364 21.524 90.8359 21.8505 90.8359C22.177 90.8359 22.4482 90.503 22.4532 90.0961ZM31.9425 90.2441C31.9425 89.9185 31.6754 89.6522 31.3489 89.6522C31.0224 89.6522 30.7552 89.9185 30.7552 90.2441C30.7552 90.5696 31.0224 90.8359 31.3489 90.8359C31.6754 90.8359 31.9425 90.5696 31.9425 90.2441ZM33.7234 90.2441C33.7234 89.9185 33.4563 89.6522 33.1298 89.6522C32.8033 89.6522 32.5361 89.9185 32.5361 90.2441C32.5361 90.5696 32.8033 90.8359 33.1298 90.8359C33.4563 90.8359 33.7234 90.5696 33.7234 90.2441ZM38.8164 89.8571C38.5957 89.2837 39.087 89.0603 40.5688 89.0603C41.8155 89.0603 42.6315 88.7684 42.637 88.3205C42.644 87.7507 42.7583 87.7571 43.1346 88.3485C43.5248 88.9618 43.7766 88.932 44.3855 88.2006C45.3877 86.9967 46.1897 87.0368 46.1897 88.2909C46.1897 89.5539 47.1509 88.632 47.5473 86.9889C47.8243 85.8406 47.835 85.8419 47.9018 87.0319C47.9601 88.0714 48.3723 88.265 50.6029 88.3001C53.3154 88.3428 54.6312 87.1782 53.3328 85.8838C52.9111 85.4634 52.7169 85.7252 52.7106 86.7226C52.704 87.7731 52.5595 87.949 52.1859 87.3611C51.6135 86.4601 53.2631 83.041 54.0394 83.5194C54.2931 83.6757 54.5006 84.6026 54.5006 85.5791C54.5006 87.5969 55.6541 87.3631 55.7471 85.3264C55.8015 84.1338 55.84 84.1485 56.2258 85.5093L56.6454 86.9889L57.049 85.5093C57.6066 83.465 57.4948 77.1814 56.8752 75.7438C56.514 74.9057 56.3222 75.7699 56.2185 78.703L56.0719 82.846L55.6879 78.703C55.4767 76.4244 55.2527 74.9596 55.19 75.4479C55.0888 76.237 55.0122 76.237 54.5006 75.4479C54.0957 74.8231 53.9171 75.6997 53.898 78.4071C53.8776 81.3123 53.7228 82.0006 53.2658 81.2184C52.8982 80.5892 51.948 80.1826 50.845 80.1826C49.2046 80.1826 49.0652 80.0397 49.4017 78.703C49.7068 77.4907 49.5576 77.2234 48.5755 77.2234C47.9163 77.2234 47.377 77.4613 47.377 77.7519C47.377 78.0426 46.9245 78.4536 46.3714 78.6652C45.4679 79.0108 45.4739 78.9309 46.4296 77.878C47.0147 77.2335 47.3042 76.401 47.073 76.0281C46.8419 75.6552 47.4836 75.7784 48.499 76.3019C49.619 76.8794 50.3452 77.7134 50.3452 78.4223C50.3452 79.6807 52.076 80.0803 52.2019 78.851C52.2436 78.4441 52.3423 77.4769 52.4214 76.7016C52.5376 75.562 52.1285 75.1211 50.2845 74.3989C47.8268 73.4365 47.6466 72.551 49.9598 72.8041C51.1079 72.9298 51.3841 72.6869 51.3841 71.5518C51.3841 69.7744 50.0442 68.5073 49.5427 69.8103C49.3516 70.3069 49.454 70.7132 49.7702 70.7132C50.0865 70.7132 50.3452 71.1453 50.3452 71.6734C50.3452 72.3343 50.1139 72.4657 49.6032 72.0949C48.5301 71.3158 45.5961 71.1142 45.5961 71.8195C45.5961 72.7671 46.6504 73.1661 46.9826 72.3444C47.148 71.9355 47.2833 72.3999 47.2833 73.3765C47.2833 74.353 47.1448 74.808 46.9756 74.3875C46.7406 73.8037 46.4728 73.7845 45.8422 74.3062C45.1948 74.8419 44.9248 74.7514 44.5916 73.887C44.2132 72.9051 44.1215 72.9465 43.7533 74.2643C43.3608 75.6689 43.3369 75.6764 43.2807 74.4122C43.2359 73.4021 42.8632 73.0806 41.7375 73.0806C40.9212 73.0806 40.2533 73.1662 40.2533 73.2708C40.2533 74.0436 42.5377 77.9034 42.972 77.8644C43.2725 77.8374 43.5518 78.0816 43.5926 78.4071C43.6334 78.7327 43.7269 79.1322 43.8003 79.2949C43.8738 79.4577 43.9598 80.3232 43.9915 81.2184C44.0231 82.1136 44.6642 83.5091 45.4162 84.3196C46.8833 85.9009 47.1415 86.693 46.1897 86.693C45.8632 86.693 45.5961 86.3894 45.5961 86.0184C45.5961 85.6474 45.1606 85.0264 44.6284 84.6384C44.0962 84.2504 43.4663 82.8894 43.2288 81.6139L42.7969 79.2949L42.3292 81.8759C42.0096 83.6392 41.1667 85.185 39.6686 86.755C38.4626 88.019 37.578 89.1551 37.7029 89.2796C37.8278 89.4041 37.5039 89.669 36.9831 89.8682C36.4623 90.0675 36.184 89.992 36.3647 89.7006C36.5453 89.4092 36.1585 89.3102 35.505 89.4805C33.5059 90.0017 34.1812 90.6538 36.72 90.6538C38.49 90.6538 39.0422 90.4439 38.8163 89.857L38.8164 89.8571ZM50.5853 85.6008C50.8633 85.1523 50.4868 84.9175 49.4897 84.9175C47.8929 84.9175 47.567 84.0384 48.6122 82.5501C49.1002 81.8552 49.154 81.9515 48.8599 82.994C48.5404 84.1264 48.7122 84.3256 50.0083 84.3256C51.5936 84.3256 52.0332 85.1309 50.8471 85.8618C50.4224 86.1234 50.3228 86.0241 50.5853 85.6008H50.5853ZM44.7056 76.0395C44.9074 75.714 45.1903 75.4477 45.3343 75.4477C45.4782 75.4477 45.596 75.714 45.596 76.0395C45.596 76.365 45.3131 76.6314 44.9674 76.6314C44.6216 76.6314 44.5038 76.365 44.7056 76.0395ZM42.0342 90.1177C42.0342 89.8615 41.5 89.6518 40.847 89.6518C40.1939 89.6518 39.6597 89.9016 39.6597 90.2069C39.6597 90.5122 40.1939 90.7218 40.847 90.6728C41.5 90.6237 42.0342 90.374 42.0342 90.1177ZM45.0024 90.2437C45.0024 89.9181 44.7353 89.6518 44.4088 89.6518C44.0823 89.6518 43.8151 89.9181 43.8151 90.2437C43.8151 90.5692 44.0823 90.8355 44.4088 90.8355C44.7353 90.8355 45.0024 90.5692 45.0024 90.2437ZM50.8759 89.9118C51.0193 89.7688 50.1413 89.6518 48.9249 89.6518C47.7085 89.6518 46.8669 89.8997 47.0547 90.2027C47.3726 90.7155 50.2927 90.4932 50.8759 89.9118ZM17.2761 88.6442C18.3228 88.643 18.7116 88.7552 18.1402 88.8942C16.7162 89.2405 16.8265 90.2437 18.2886 90.2437C18.9416 90.2437 19.4759 89.8768 19.4759 89.4284C19.4759 88.9799 19.9203 88.2475 20.4635 87.8008C21.3564 87.0665 21.3849 87.1126 20.7603 88.2813C19.7542 90.1641 19.9151 90.7268 21.0129 89.1642C21.9635 87.8112 21.7398 85.7332 20.7118 86.3667C20.4075 86.5542 19.5374 86.472 18.7783 86.184C13.6412 84.2348 12.0904 84.1695 10.094 85.8183C9.99477 85.9002 10.4613 86.8629 11.1307 87.9575C11.8 89.0521 12.3528 89.5482 12.359 89.06C12.369 88.2709 12.4343 88.2709 12.9458 89.06C13.3294 89.6518 13.5243 89.7011 13.5303 89.2079C13.5351 88.801 13.8066 88.4681 14.133 88.4681C14.4595 88.4681 14.695 88.6679 14.6564 88.912C14.4989 89.9063 14.8826 90.4717 15.1186 89.5932C15.2844 88.9762 16.0352 88.6459 17.2759 88.6442H17.2761ZM10.6339 89.141C10.9675 89.666 11.1497 89.7041 11.1556 89.2502C11.1604 88.8666 10.7928 88.1819 10.3383 87.7288C9.88378 87.2756 9.38048 86.391 9.2199 85.763C8.96065 84.7492 8.9202 84.7665 8.85906 85.9179C8.82118 86.6311 9.04567 87.3721 9.35791 87.5644C9.67015 87.7568 9.8475 88.2386 9.75201 88.6351C9.65653 89.0315 9.70055 89.126 9.84981 88.8451C9.99906 88.5641 10.3519 88.6973 10.6339 89.141H10.6339ZM37.3451 87.7165C43.0275 83.9319 42.5259 75.1333 36.4644 72.2652C30.4396 69.4148 23.6276 73.5856 23.633 80.122C23.6389 87.2117 31.536 91.586 37.3448 87.7165H37.3451ZM28.5231 87.2876C24.3638 84.7593 23.0534 79.738 25.5722 75.9786C27.3954 73.2577 30.4265 71.7579 33.375 72.1177C41.5345 73.1137 43.3884 83.7037 36.0555 87.4312C33.3904 88.786 30.911 88.7387 28.5235 87.2873L28.5231 87.2876ZM35.1445 87.3081C39.9022 85.5046 41.4965 79.4176 38.2688 75.3806C36.4534 73.1098 32.4911 72.0899 29.6391 73.1592C26.0558 74.5026 24.1025 78.8899 25.3755 82.7358C26.7219 86.8031 31.0873 88.8466 35.1444 87.3084L35.1445 87.3081ZM30.9768 81.0895C30.793 80.612 30.7803 79.8796 30.9485 79.4619C31.1168 79.0443 31.2756 79.3019 31.3013 80.0343C31.3275 80.7775 31.7262 81.3659 32.2036 81.3659C33.6145 81.3659 33.981 80.0587 32.8095 79.2047C32.2075 78.7658 32.0004 78.4067 32.3493 78.4067C32.6983 78.4067 33.3163 78.8062 33.7228 79.2945C34.3124 80.0027 34.3124 80.3617 33.7228 81.07C32.7808 82.2016 31.4085 82.2113 30.9768 81.0895L30.9768 81.0895ZM31.9419 80.1822C31.9419 79.8567 32.209 79.5904 32.5355 79.5904C32.862 79.5904 33.1291 79.8567 33.1291 80.1822C33.1291 80.5077 32.862 80.7741 32.5355 80.7741C32.209 80.7741 31.9419 80.5077 31.9419 80.1822ZM5.97973 74.778C5.72973 74.5298 5.48699 76.3766 5.4403 78.8821L5.35543 83.4374L5.89486 79.3333C6.19155 77.0761 6.22974 75.0262 5.97973 74.778ZM53.3128 72.4882C53.3128 72.1627 53.0299 71.8964 52.6841 71.8964C52.3384 71.8964 52.2206 72.1627 52.4224 72.4882C52.6241 72.8137 52.907 73.0801 53.051 73.0801C53.195 73.0801 53.3128 72.8137 53.3128 72.4882ZM18.5221 71.551C18.744 70.9746 18.6113 70.704 18.1775 70.8482C17.2901 71.1431 16.8015 72.4882 17.5818 72.4882C17.9005 72.4882 18.3237 72.0665 18.5221 71.551H18.5221ZM20.5516 71.3415C20.7 70.8976 20.4774 70.6757 20.0322 70.8236C19.6037 70.9661 19.1362 71.4321 18.9933 71.8594C18.8449 72.3033 19.0675 72.5252 19.5128 72.3772C19.9413 72.2348 20.4088 71.7688 20.5516 71.3415ZM40.8671 71.6247C40.2057 70.8302 38.1554 70.8062 37.4456 71.5846C37.1941 71.8605 37.3222 71.8946 37.7303 71.6604C38.1384 71.4262 38.4724 71.4834 38.4724 71.7875C38.4724 72.0915 39.1452 72.3403 39.9676 72.3403C41.0693 72.3403 41.306 72.152 40.8671 71.6247H40.8671ZM45.4079 69.418C45.2184 68.9459 45.0777 69.0861 45.0492 69.7756C45.0234 70.3995 45.1637 70.7491 45.361 70.5524C45.5583 70.3557 45.5794 69.8452 45.4078 69.418L45.4079 69.418ZM22.1788 69.5795C21.9943 69.2818 22.1789 68.9033 22.589 68.7385C23.2354 68.4787 21.6979 68.1094 20.5759 68.255C20.3645 68.2824 20.321 67.8114 20.4792 67.2082C20.6374 66.6051 20.4311 65.9046 20.0206 65.6517C19.4951 65.3279 19.3865 65.4831 19.6535 66.1768C19.901 66.8198 19.73 67.1616 19.1607 67.1616C18.6812 67.1616 18.2889 67.5611 18.2889 68.0494C18.2889 68.5426 18.8166 68.9371 19.4762 68.9371C20.1292 68.9371 20.6634 69.2035 20.6634 69.529C20.6634 69.8545 21.0799 70.1208 21.5889 70.1208C22.0979 70.1208 22.3634 69.8772 22.1788 69.5795V69.5795ZM42.3572 62.7934C41.7321 58.096 41.0089 58.0622 40.8453 62.7228C40.7085 66.6232 40.6991 66.5893 41.8022 66.1673C42.5843 65.8681 42.6848 65.2563 42.3572 62.7934V62.7934ZM43.6147 62.8708C43.45 62.4639 43.3153 62.7968 43.3153 63.6106C43.3153 64.4244 43.45 64.7573 43.6147 64.3504C43.7794 63.9435 43.7794 63.2777 43.6147 62.8708ZM49.3799 45.7629C49.2572 45.5493 48.5777 45.5256 47.87 45.7101C46.7946 45.9904 46.6541 45.8598 47.0153 44.9147C47.3528 44.0314 47.29 43.9395 46.7286 44.495C46.1667 45.0509 46.321 45.5288 47.4355 46.6847C48.6922 47.988 48.9051 48.044 49.2321 47.1572C49.4361 46.6039 49.5026 45.9765 49.3799 45.7629V45.7629ZM32.536 46.7081C32.536 46.2007 32.2689 45.95 31.9424 46.1512C31.6159 46.3524 31.3488 46.7676 31.3488 47.0739C31.3488 47.3802 31.6159 47.6308 31.9424 47.6308C32.2689 47.6308 32.536 47.2156 32.536 46.7081V46.7081ZM34.494 45.8747C34.1065 44.3972 32.536 42.9807 32.536 44.1087C32.536 44.7545 34.1843 47.039 34.6502 47.039C34.7323 47.039 34.662 46.5151 34.494 45.8748L34.494 45.8747ZM15.9227 44.677C15.3739 44.3388 15.3852 43.9603 15.972 43.0235C16.593 42.0322 16.5896 41.6363 15.954 40.8727C15.5256 40.358 14.8992 39.9369 14.5621 39.9369C14.2249 39.9369 14.3918 40.4246 14.9329 41.0207C16.0064 42.2034 15.6981 43.0035 14.3652 42.4935C13.7499 42.2582 13.6386 42.4665 13.948 43.2741C14.5383 44.8148 15.524 45.7876 16.1258 45.4234C16.4055 45.2541 16.3141 44.9182 15.9227 44.677L15.9227 44.677ZM28.3802 43.3748C28.3802 42.6188 27.3236 42.8176 26.9924 43.6359C26.808 44.0914 26.675 43.9911 26.6461 43.3749C26.6204 42.8245 26.8664 42.2095 27.1929 42.0083C27.5194 41.8071 27.7865 41.3349 27.7865 40.9588C27.7865 40.552 27.4009 40.6596 26.8345 41.2242C26.1334 41.9233 25.996 42.6887 26.3133 44.1289C26.7168 45.9604 26.7959 46.0137 27.5621 44.9689C28.012 44.3555 28.3801 43.6381 28.3801 43.3748L28.3802 43.3748ZM36.0974 44.0448C36.0974 43.7385 35.8303 43.4879 35.5038 43.4879C35.1773 43.4879 34.9102 43.9031 34.9102 44.4106C34.9102 44.9181 35.1773 45.1687 35.5038 44.9675C35.8303 44.7663 36.0974 44.3511 36.0974 44.0448V44.0448ZM24.8094 42.7132C24.8142 42.4498 24.5514 42.399 24.2249 42.6001C23.8984 42.8013 23.6353 43.4163 23.6403 43.9667C23.6482 44.8292 23.729 44.8448 24.2249 44.0797C24.5414 43.5915 24.8044 42.9765 24.8094 42.7132V42.7132ZM38.1265 42.678C37.4112 40.3111 36.6282 40.1436 36.7799 42.39C36.8822 43.9045 37.1606 44.4549 37.7166 44.2422C38.2166 44.0509 38.3674 43.4754 38.1264 42.678L38.1265 42.678ZM50.9556 42.8961C51.6611 41.5426 51.6426 41.4857 50.7392 42.2287C50.196 42.6754 49.7515 43.4522 49.7515 43.9549C49.7515 45.0296 49.9214 44.8802 50.9556 42.8961H50.9556ZM18.2889 42.8961C18.2889 42.245 18.0218 41.7124 17.6953 41.7124C17.3688 41.7124 17.1016 42.245 17.1016 42.8961C17.1016 43.5471 17.3688 44.0798 17.6953 44.0798C18.0218 44.0798 18.2889 43.5471 18.2889 42.8961ZM23.038 42.8611C23.038 42.5548 22.7709 42.3042 22.4444 42.3042C22.1179 42.3042 21.8507 42.7195 21.8507 43.2269C21.8507 43.7344 22.1179 43.985 22.4444 43.7838C22.7709 43.5827 23.038 43.1674 23.038 42.8611ZM32.3878 41.266C32.7959 41.1317 33.1298 41.4436 33.1298 41.959C33.1298 42.4744 33.5305 42.8961 34.0203 42.8961C34.51 42.8961 34.9108 42.6391 34.9108 42.3251C34.9108 41.6595 32.97 40.5287 31.8276 40.5287C30.8147 40.5287 29.4103 42.7546 29.9122 43.5643C30.1355 43.9245 30.5794 43.6239 30.9712 42.8472C31.3422 42.1117 31.9797 41.4001 32.3878 41.2659V41.266ZM41.8462 42.7852C41.6567 42.313 41.516 42.4533 41.4876 43.1427C41.4618 43.7666 41.6021 44.1162 41.7994 43.9195C41.9966 43.7229 42.0177 43.2124 41.8462 42.7851L41.8462 42.7852ZM44.4089 42.662C44.4089 42.2774 44.9432 40.9179 45.5962 39.6409C46.2492 38.364 46.7834 36.9603 46.7834 36.5216C46.7834 36.083 47.0245 35.8726 47.3192 36.0542C47.8942 36.4085 49.3685 32.8473 48.8577 32.338C48.3735 31.8553 46.8521 34.235 47.22 34.8996C47.4022 35.2287 47.1915 35.165 46.7518 34.7581C45.5155 33.6141 43.7865 33.8136 44.1867 35.0541C44.4625 35.9088 44.413 35.9376 43.9035 35.2192C43.564 34.7403 43.1108 34.5233 42.8965 34.737C42.6822 34.9507 42.9348 35.7346 43.4579 36.4791C43.9809 37.2237 44.4089 37.4915 44.4089 37.0743C44.4089 36.6571 44.6402 36.4583 44.9229 36.6325C45.5661 37.0288 45.0528 39.9368 44.3397 39.9368C44.0513 39.9368 43.8153 40.4537 43.8153 41.0855C43.8153 41.7173 43.5481 42.3989 43.2216 42.6001C42.2862 43.1764 42.5297 44.0802 43.5185 43.7018C44.0082 43.5145 44.4089 43.0465 44.4089 42.6619L44.4089 42.662ZM46.744 41.4165C46.7753 41.742 47.1546 41.3425 47.587 40.5287C48.4139 38.9721 48.2777 37.9023 47.3271 38.4881C46.6769 38.8887 44.9897 42.7217 45.0293 43.7082C45.0441 44.0754 45.4231 43.5768 45.8716 42.6002C46.3201 41.6237 46.7127 41.091 46.744 41.4165L46.744 41.4165ZM12.6081 41.988C13.5407 40.5689 13.5284 40.405 12.3795 38.9489C11.5315 37.8741 11.1652 37.6911 11.1652 38.3424C11.1652 38.8554 11.4323 39.4397 11.7588 39.6409C12.8124 40.2901 12.3889 41.2118 11.2087 40.8383C10.1731 40.5106 10.1309 40.6184 10.7634 41.9775C11.1476 42.8031 11.4981 43.4807 11.5421 43.4832C11.5862 43.4856 12.0658 42.8128 12.608 41.9879L12.6081 41.988ZM40.6123 41.8727C40.0088 41.2711 39.511 42.1768 40.0061 42.9755C40.3801 43.5789 40.5199 43.5793 40.721 42.9779C40.8585 42.5667 40.8096 42.0694 40.6123 41.8727H40.6123ZM49.7306 40.3083C49.7421 40.0243 49.3509 40.1235 48.8611 40.5287C48.3714 40.9339 47.9802 41.8321 47.9917 42.5246C48.0115 43.7108 48.062 43.6979 48.8611 42.3042C49.3277 41.4904 49.719 40.5922 49.7306 40.3082V40.3083ZM22.9077 40.6225C23.1899 39.7783 22.0623 39.7085 21.5479 40.5383C21.3428 40.8692 20.9263 40.9866 20.6224 40.7993C20.3184 40.6121 20.0698 40.7392 20.0698 41.0819C20.0698 41.9108 22.6147 41.4988 22.9077 40.6225V40.6225ZM24.6425 39.0503C24.6101 37.9103 24.398 36.9776 24.1711 36.9776C23.4984 36.9776 22.92 39.0099 23.5346 39.2141C23.8451 39.3173 23.9519 39.9633 23.7719 40.6496C23.5642 41.4414 23.6742 41.7559 24.073 41.5103C24.4186 41.2973 24.6749 40.1903 24.6425 39.0503V39.0503ZM43.2216 40.8246C43.2216 40.3363 42.9628 39.9368 42.6465 39.9368C42.3303 39.9368 42.2253 40.3363 42.4132 40.8246C42.6012 41.3129 42.8599 41.7124 42.9883 41.7124C43.1166 41.7124 43.2216 41.3129 43.2216 40.8246ZM18.8824 40.5636C18.8824 40.2573 18.6153 39.8421 18.2888 39.6409C17.9623 39.4398 17.6952 39.6904 17.6952 40.1979C17.6952 40.7053 17.9623 41.1206 18.2888 41.1206C18.6153 41.1206 18.8824 40.8699 18.8824 40.5636V40.5636ZM31.1321 39.6105C32.7153 37.9074 32.8594 37.5037 31.8083 37.7174C31.0711 37.8673 28.9741 40.1259 28.9741 40.77C28.9741 41.4999 29.7767 41.0686 31.1321 39.6105V39.6105ZM38.9984 40.3807C38.9326 39.9739 39.0883 39.1613 39.3443 38.5751C39.669 37.8318 39.4039 37.0784 38.4687 36.0859C37.7311 35.3031 36.9626 34.6823 36.7611 34.7065C35.2936 34.8823 34.8943 34.5777 35.602 33.8223C36.211 33.1724 36.5648 33.276 37.6228 34.4142C38.999 35.8946 39.6597 36.1502 39.6597 35.202C39.6597 34.3999 37.1105 31.9063 36.4984 32.1097C36.2289 32.1993 36.1785 31.7383 36.3863 31.0854C36.8031 29.7763 35.1002 26.9656 33.8717 26.9348C32.7588 26.9069 32.9773 27.9813 34.317 29.125C34.97 29.6824 35.5042 30.4936 35.5042 30.9277C35.5042 31.3618 34.8448 30.9697 34.0389 30.0564C33.233 29.1431 32.5651 28.7287 32.5548 29.1356C32.5445 29.5425 32.2193 29.8754 31.8322 29.8754C30.7126 29.8754 28.3806 32.3444 28.3806 33.5297C28.3806 34.1239 28.6477 34.6102 28.9742 34.6102C29.3007 34.6102 29.5679 34.2413 29.5679 33.7905C29.5679 33.3397 30.2152 32.548 31.0062 32.0312C32.3413 31.1591 32.5439 31.1741 33.826 32.2393C34.5858 32.8706 34.9269 33.396 34.5841 33.4068C34.2413 33.4176 33.6402 33.1069 33.2484 32.7163C32.6944 32.1639 32.536 32.2954 32.536 33.3082C32.536 34.0832 32.9042 34.6102 33.4456 34.6102C33.9459 34.6102 34.5697 35.1884 34.8319 35.8951C35.1478 36.7465 35.4537 36.9462 35.7383 36.487C35.9746 36.1058 36.4351 35.7939 36.7616 35.7939C37.0881 35.7939 37.1901 36.0602 36.9883 36.3857C36.7865 36.7113 36.8757 36.9776 37.1866 36.9776C37.4974 36.9776 37.92 37.4148 38.1257 37.949C38.4383 38.7614 38.3514 38.7979 37.5955 38.1725C36.2663 37.0727 36.3817 38.6365 37.7303 39.9999C38.9968 41.2802 39.1514 41.3267 38.9984 40.3807V40.3807ZM41.4406 40.2328C41.4406 39.7445 41.0072 39.345 40.4775 39.345C39.6886 39.345 39.6481 39.5057 40.2533 40.2328C40.6598 40.7211 41.0932 41.1206 41.2165 41.1206C41.3397 41.1206 41.4406 40.7211 41.4406 40.2328ZM53.042 40.5696C52.8542 40.2666 52.972 39.8513 53.3038 39.6469C53.6357 39.4425 53.9071 38.8588 53.9071 38.3499C53.9071 37.5945 53.7436 37.5599 53.0167 38.1614C51.9986 39.0037 51.8113 41.1206 52.7549 41.1206C53.1007 41.1206 53.2299 40.8727 53.042 40.5696V40.5696ZM27.7869 38.6174C27.7869 37.6242 27.6379 37.5479 26.8965 38.1613C26.4067 38.5666 26.006 39.2567 26.006 39.6949C26.006 40.1599 26.3767 40.3498 26.8965 40.1509C27.3862 39.9636 27.7869 39.2735 27.7869 38.6174ZM36.0979 38.6337C36.0979 38.0114 31.3522 33.4266 30.7081 33.4266C30.4075 33.4266 30.1615 33.8261 30.1615 34.3143C30.1615 34.8026 29.8943 35.2021 29.5678 35.2021C29.2413 35.2021 28.9742 35.8679 28.9742 36.6817C28.9742 37.4955 29.2413 38.1613 29.5678 38.1613C29.8943 38.1613 30.1615 37.8151 30.1615 37.3919C30.1615 35.55 31.4227 35.3879 33.1607 37.0066C34.9492 38.6722 35.6426 40.0956 34.0058 38.7413C32.845 37.7809 32.1373 38.4488 33.0957 39.6002C33.6804 40.3026 34.0493 40.3358 34.9612 39.768C35.5864 39.3788 36.0979 38.8683 36.0979 38.6337V38.6337ZM18.2887 37.7205C18.2887 36.9984 18.1225 36.9702 17.3983 37.5695C16.9085 37.9747 16.5078 38.0961 16.5078 37.8392C16.5078 37.5824 16.368 37.5116 16.197 37.682C16.0261 37.8525 16.0573 38.4363 16.2664 38.9795C16.5613 39.7458 16.8304 39.8149 17.4676 39.2877C17.9192 38.914 18.2887 38.2088 18.2887 37.7205L18.2887 37.7205ZM52.0655 36.9776C52.0831 36.2924 51.8988 36.3393 51.2576 37.1831C50.8006 37.7844 50.5887 38.6971 50.7866 39.2113C51.0928 40.0068 51.2133 39.9762 51.5945 39.0058C51.841 38.3786 52.0529 37.4659 52.0655 36.9776ZM9.80567 38.1613C9.6349 37.5103 9.67053 36.9756 9.88484 36.973C10.0992 36.9706 10.6043 36.2604 11.0073 35.395C11.5458 34.2388 11.5658 33.6122 11.083 33.0322C10.5796 32.4275 10.6599 32.2429 11.4264 32.2429C12.0324 32.2429 12.3762 31.8345 12.2983 31.2071C12.2276 30.6375 12.3743 29.702 12.6243 29.1282C12.8875 28.5239 12.7795 27.7254 12.3676 27.2306C11.9764 26.7607 11.8173 26.1167 12.014 25.7994C12.2107 25.4821 12.0702 25.0368 11.7019 24.8099C10.5435 24.0961 9.9608 25.9146 10.8934 27.3336C12.009 29.0312 11.998 29.6267 10.8682 28.6919C10.1412 28.0904 9.97771 28.125 9.97771 28.8804C9.97771 29.3893 10.2448 29.9703 10.5713 30.1715C10.8978 30.3727 11.165 30.8205 11.165 31.1667C11.165 31.5591 10.8244 31.5142 10.2602 31.0474C8.87776 29.9036 8.50472 30.8323 9.64789 32.5718C10.208 33.424 10.4967 34.2901 10.2897 34.4966C10.0826 34.703 9.67507 34.4879 9.38407 34.0185C9.09308 33.5491 8.66399 33.3554 8.43057 33.5881C8.19715 33.8208 8.49116 34.5455 9.08393 35.1985C10.0544 36.2677 9.91769 36.6568 8.642 36.456C7.98098 36.3519 8.10272 37.4417 8.80009 37.8715C9.13192 38.0759 9.24972 38.4911 9.06187 38.7942C8.87403 39.0972 9.03439 39.3451 9.41825 39.3451C9.82389 39.3451 9.98613 38.8494 9.80568 38.1614L9.80567 38.1613ZM14.5549 37.5701C14.3843 36.9194 14.4975 36.2311 14.8067 36.0406C15.1158 35.8502 15.2063 35.1841 15.0078 34.5604C14.7918 33.882 14.9272 33.4266 15.3448 33.4266C15.7929 33.4266 15.9094 32.8968 15.6703 31.9469C15.4555 31.0937 15.5539 30.4673 15.9028 30.4673C16.7817 30.4673 16.6471 28.107 15.7657 28.0624C15.3575 28.0418 15.6526 27.7738 16.4213 27.4668C17.3162 27.1095 17.6966 26.5906 17.4788 26.0247C17.2917 25.5385 17.3788 25.1407 17.6723 25.1407C17.9659 25.1407 18.2914 24.5975 18.3957 23.9336C18.6046 22.6045 19.6046 22.2704 19.9833 23.4032C20.1347 23.8562 19.9436 23.9493 19.4663 23.6552C18.889 23.2995 18.8044 23.5962 19.1105 24.9045C19.4046 26.1614 19.3508 26.3829 18.9094 25.7326C18.4432 25.0458 18.3048 25.2882 18.2977 26.8032C18.2924 27.9563 18.0445 28.6112 17.695 28.3959C17.3685 28.1947 17.1013 28.4296 17.1013 28.9179C17.1013 29.4062 17.4028 29.9914 17.7712 30.2184C18.228 30.4999 18.1297 30.8049 17.4619 31.1775C16.9233 31.478 16.6719 32.0291 16.9033 32.4022C17.1346 32.7753 17.3803 33.7577 17.4493 34.5852C17.5184 35.4128 17.4463 35.757 17.2886 35.3501C16.8152 34.1266 16.001 34.5179 16.339 35.8064C16.8915 37.9129 18.0978 36.0325 18.4641 32.4938C18.6516 30.6832 19.1222 28.8208 19.5099 28.355C19.8976 27.8892 20.0622 27.5081 19.8757 27.5081C19.6891 27.5081 19.9235 26.5845 20.3966 25.4556C21.7111 22.319 21.5122 21.0794 19.6243 20.6428C18.7264 20.4351 17.3685 19.8767 16.6068 19.4019C15.3604 18.6251 15.1412 18.6469 14.4173 19.6203C13.6426 20.6619 13.5805 20.6582 12.7342 19.5191C12.251 18.8686 11.6546 18.5367 11.409 18.7816C11.1634 19.0265 11.5888 19.8917 12.3544 20.7042C13.7196 22.1529 13.2761 22.8658 11.8773 21.4712C11.3233 20.9188 11.165 21.0342 11.165 21.9906C11.165 22.6668 11.5717 23.5567 12.0688 23.9681C12.5906 24.3998 12.8246 25.181 12.6225 25.816C12.1979 27.1496 13.2728 27.2861 13.9998 25.991C14.463 25.1658 14.6106 25.1782 15.365 26.1046C15.8302 26.6759 15.931 26.9767 15.5889 26.7729C15.2468 26.5691 14.5896 26.6349 14.1284 26.9191C13.4302 27.3493 13.4846 27.6567 14.4536 28.756C15.4552 29.8922 15.4752 30.0245 14.5974 29.7057C13.2401 29.2127 12.5112 30.4736 13.753 31.1664C15.1859 31.9659 14.9555 32.9868 13.4497 32.5103C12.5053 32.2114 12.2585 32.3166 12.5024 32.9143C13.6807 35.8025 13.6813 35.8109 12.7152 35.4413C11.4506 34.9575 11.4958 36.0987 12.7975 37.5201C14.1683 39.0169 14.9402 39.0388 14.555 37.57L14.5549 37.5701ZM15.6215 23.9635C15.4135 23.628 15.6518 23.5288 16.1801 23.7309C17.2085 24.1244 17.3967 24.5486 16.5428 24.5486C16.2355 24.5486 15.821 24.2854 15.6215 23.9636L15.6215 23.9635ZM13.9879 22.4771C14.1439 21.6633 14.374 20.9975 14.4992 20.9975C14.6244 20.9975 14.7268 21.6633 14.7268 22.4771C14.7268 23.2909 14.4967 23.9567 14.2155 23.9567C13.9343 23.9567 13.8319 23.2909 13.9879 22.4771ZM16.1676 21.898C15.1632 21.1404 15.1461 21.0329 16.0275 21.0163C16.5796 21.006 17.2074 21.2815 17.4226 21.6287C18.0693 22.6719 17.3876 22.8181 16.1676 21.8979L16.1676 21.898ZM20.0696 38.1613C20.0696 37.8358 19.8025 37.5695 19.476 37.5695C19.1495 37.5695 18.8823 37.8358 18.8823 38.1613C18.8823 38.4868 19.1495 38.7532 19.476 38.7532C19.8025 38.7532 20.0696 38.4868 20.0696 38.1613ZM22.3081 37.6804C22.6642 36.6152 21.4372 36.8391 21.0232 37.9148C20.8013 38.4912 20.934 38.7618 21.3678 38.6177C21.7557 38.4887 22.1788 38.067 22.3081 37.6804L22.3081 37.6804ZM41.3264 37.0159C40.9318 36.386 40.3823 36.0101 40.1053 36.1808C39.5393 36.5295 40.7032 38.1613 41.5179 38.1613C41.8072 38.1613 41.721 37.6459 41.3264 37.0159V37.0159ZM27.1925 36.0907C28.1187 34.3655 27.6218 33.5187 26.3169 34.5983C25.3644 35.3864 25.0621 37.5694 25.9054 37.5694C26.1768 37.5694 26.7559 36.904 27.1926 36.0907L27.1925 36.0907ZM50.9386 34.8144C50.9386 33.639 49.8847 33.8478 49.1786 35.1632C48.1521 37.0755 48.4473 37.8583 49.7513 36.6817C50.4043 36.0925 50.9386 35.2522 50.9386 34.8144V34.8144ZM21.8504 34.8363C21.8504 34.348 21.5832 34.1131 21.2567 34.3143C20.9302 34.5155 20.6631 35.0795 20.6631 35.5678C20.6631 36.0561 20.9302 36.291 21.2567 36.0898C21.5832 35.8886 21.8504 35.3245 21.8504 34.8363V34.8363ZM55.0941 34.1694C55.0941 33.4105 54.9507 33.3996 54.1064 34.0939C53.2136 34.8282 53.1851 34.782 53.8096 33.6134C54.658 32.0258 54.6742 31.651 53.8941 31.651C53.5606 31.651 52.987 32.309 52.6195 33.1131C52.1076 34.2332 52.129 34.7886 52.711 35.4878C53.5847 36.5373 55.0941 35.7022 55.0941 34.1694V34.1694ZM24.8186 33.5775C24.8186 32.8555 24.6523 32.8273 23.9281 33.4265C23.4384 33.8318 23.0377 34.5628 23.0377 35.0511C23.0377 35.7731 23.2039 35.8013 23.9281 35.2021C24.4179 34.7969 24.8186 34.0658 24.8186 33.5775ZM42.0341 34.3143C42.0341 33.826 41.6333 33.4265 41.1436 33.4265C39.5986 33.4265 40.0993 34.593 41.8856 35.1554C41.9673 35.1811 42.0341 34.8026 42.0341 34.3143ZM43.58 32.4031C42.9766 31.8015 42.4787 32.7073 42.9738 33.506C43.3478 34.1093 43.4876 34.1098 43.6887 33.5083C43.8262 33.0971 43.7773 32.5998 43.58 32.4031H43.58ZM47.335 31.1722C47.358 30.7461 47.1096 30.5621 46.7831 30.7632C46.4566 30.9644 46.2083 31.8457 46.2312 32.7217C46.2685 34.1438 46.3276 34.1876 46.7831 33.1306C47.0637 32.4796 47.3121 31.5983 47.335 31.1722V31.1722ZM21.8502 31.8771C21.8502 31.3888 21.5831 31.1539 21.2566 31.3551C20.9301 31.5563 20.6629 32.1204 20.6629 32.6086C20.6629 33.0969 20.9301 33.3318 21.2566 33.1306C21.5831 32.9294 21.8502 32.3654 21.8502 31.8771V31.8771ZM27.153 30.7928C26.3415 29.9689 25.1737 31.3618 25.6463 32.5899C26.0091 33.5324 26.1005 33.5242 26.8725 32.4817C27.39 31.7827 27.4965 31.1417 27.153 30.7928L27.153 30.7928ZM39.9791 32.7974C40.3817 32.148 38.6762 29.8755 37.7863 29.8755C37.5104 29.8755 37.2846 30.275 37.2846 30.7632C37.2846 31.2515 37.5518 31.651 37.8783 31.651C38.2048 31.651 38.4719 32.0505 38.4719 32.5388C38.4719 33.5628 39.4054 33.7231 39.9791 32.7974L39.9791 32.7974ZM45.5956 32.1245C45.5956 31.1684 45.42 30.9974 44.9349 31.4811C44.5716 31.8433 44.4538 32.4293 44.6731 32.7832C45.2872 33.7737 45.5955 33.5535 45.5955 32.1245H45.5956ZM52.9786 30.4072C52.7418 30.0252 52.1809 30.1776 51.4729 30.8164C50.4705 31.7208 50.3446 31.729 50.3446 30.8899C50.3446 30.3704 50.6117 29.7807 50.9382 29.5796C51.2647 29.3784 51.5318 28.9326 51.5318 28.5888C51.5318 28.2419 50.8715 28.3952 50.0477 28.9333C49.2263 29.4699 48.5636 29.6241 48.5636 29.2787C48.5636 28.9355 48.9643 28.5013 49.4541 28.314C49.9438 28.1266 50.3446 27.6089 50.3446 27.1635C50.3446 26.5339 49.9813 26.4829 48.7121 26.9344C47.2251 27.4633 47.1775 27.4391 48.1779 26.6632C49.4599 25.6688 48.9921 24.4549 47.5057 24.9189C46.5603 25.2141 46.5617 25.1751 47.5247 24.384C48.6084 23.4938 48.9284 22.1815 48.062 22.1815C47.7861 22.1815 47.0813 22.7091 46.4959 23.354C45.7401 24.1867 45.6075 24.7443 46.0386 25.2775C46.3724 25.6905 46.8208 26.8464 47.0348 27.8461C47.2489 28.8458 48.2068 30.5182 49.1636 31.5626L50.9032 33.4615L52.1296 32.2388C52.8041 31.5663 53.1862 30.7421 52.9786 30.4072L52.9786 30.4072ZM41.4253 30.8077C40.6385 30.0233 40.1491 30.6929 40.6183 31.9119C40.9274 32.715 41.1159 32.7659 41.498 32.1495C41.7655 31.718 41.7327 31.1142 41.4253 30.8076L41.4253 30.8077ZM25.0023 29.2305C24.5442 28.7738 24.0959 28.9706 23.4275 29.9221C22.1552 31.7331 22.8026 32.5069 24.3713 31.0499C25.2808 30.2052 25.4604 29.6872 25.0023 29.2305V29.2305ZM43.3492 29.767C42.4443 28.8648 41.8931 29.4143 42.395 30.7183C42.6711 31.4356 42.9692 31.5465 43.4182 31.099C43.8671 30.6513 43.8471 30.2633 43.3492 29.7669V29.767ZM30.4857 29.4931C32.1413 27.7122 32.3262 26.9162 31.0847 26.9162C30.1374 26.9162 28.3797 29.1171 28.3797 30.3031C28.3797 31.4227 28.8658 31.2358 30.4858 29.4931H30.4857ZM46.6463 29.3946C47.0025 28.3294 45.7754 28.5532 45.3614 29.629C45.1395 30.2054 45.2722 30.476 45.706 30.3318C46.0939 30.2029 46.5171 29.7812 46.6463 29.3946V29.3946ZM22.1707 29.2443C22.3859 28.8971 22.3651 28.431 22.1244 28.2085C21.8838 27.9861 21.5726 28.122 21.433 28.5106C21.2934 28.8992 20.7957 29.0704 20.327 28.8911C19.8583 28.7118 19.4749 28.86 19.4749 29.2203C19.4749 30.0588 21.6538 30.0781 22.1707 29.2443V29.2443ZM27.9926 28.3368C28.5961 27.511 28.9316 26.6776 28.7382 26.4848C28.2435 25.9916 26.0049 28.1166 26.0049 29.0794C26.0049 30.2907 26.775 30.0029 27.9926 28.3368ZM39.6587 29.3517C39.6587 28.6048 36.6643 26.7451 36.2027 27.2054C35.991 27.4164 36.4817 28.0976 37.2931 28.7191C38.9101 29.9578 39.6588 30.158 39.6588 29.3517H39.6587ZM42.4119 27.6343C41.3729 26.5952 39.7189 27.3136 40.0698 28.6514C40.3059 29.5516 40.5702 29.615 41.7615 29.0571C42.911 28.5187 43.0319 28.2543 42.4119 27.6343V27.6343ZM45.5037 27.8328C45.6284 27.1918 45.4567 26.9316 45.0674 27.1715C44.6298 27.4411 44.5491 26.9457 44.8137 25.614C45.1814 23.7632 45.1421 23.706 44.0627 24.5203C43.1678 25.1954 43.0828 25.2017 43.6657 24.5499C44.0739 24.0936 44.4078 23.0751 44.4078 22.2866C44.4078 21.0185 44.2937 20.9467 43.4202 21.6651C42.5273 22.3994 42.4988 22.3532 43.1233 21.1846C43.5033 20.4737 43.8141 19.2086 43.8141 18.3734C43.8141 17.5382 44.0145 16.8836 44.2594 16.9189C45.2705 17.0642 47.3766 16.0773 47.385 15.4542C47.3904 15.047 47.5923 15.0951 47.8983 15.5764C48.2932 16.1975 48.7738 16.0282 50.1154 14.7953C53.4425 11.7377 53.7151 11.5282 54.366 11.5282C55.6994 11.5282 55.6675 10.3846 54.2928 8.90579C53.5155 8.06951 52.3281 7.38528 51.6542 7.38528C50.4458 7.38528 48.5632 8.80287 48.5632 9.71289C48.5632 9.97001 47.9597 10.0653 47.222 9.92475C46.3228 9.7534 45.4082 10.1706 44.4471 11.1905C43.6586 12.0273 43.3022 12.7119 43.6551 12.7119C44.0079 12.7119 44.1569 13.2446 43.9861 13.8956C43.8057 14.5837 43.9679 15.0793 44.3736 15.0793C44.7574 15.0793 44.9037 15.35 44.6986 15.6808C44.4935 16.0116 44.1303 16.1619 43.8915 16.0147C43.0867 15.5189 41.89 20.9359 42.3 23.2181C43.2222 28.3513 44.9257 30.805 45.5036 27.8326L45.5037 27.8328ZM46.0766 14.0754C46.8312 13.9261 47.5938 13.4266 47.7713 12.9655C47.9488 12.5044 48.3215 12.2672 48.5996 12.4385C49.6679 13.0968 48.4455 14.2407 46.6185 14.2925C45.3559 14.3283 45.1715 14.2544 46.0766 14.0754L46.0766 14.0754ZM45.2982 12.1202C45.5 11.7947 46.1169 11.5325 46.6689 11.5375C47.534 11.5453 47.5497 11.6258 46.7823 12.1202C45.6197 12.8693 44.8339 12.8693 45.2982 12.1202V12.1202ZM53.4845 28.1001C53.3137 27.449 52.9069 26.9164 52.5804 26.9164C52.2539 26.9164 52.1264 26.3837 52.2972 25.7327C52.499 24.9634 52.3154 24.549 51.7728 24.549C50.6545 24.549 50.7013 26.863 51.8284 27.2942C52.3181 27.4816 52.7188 28.0059 52.7188 28.4593C52.7188 28.9128 52.961 29.2838 53.2569 29.2838C53.5528 29.2838 53.6552 28.7511 53.4845 28.1001V28.1001ZM26.005 26.2404C26.005 25.8915 25.5825 25.7677 25.066 25.9653C24.5496 26.1629 24.0153 26.3245 23.8787 26.3245C23.7422 26.3245 23.6305 26.7334 23.6305 27.2331C23.6305 27.9583 23.8701 28.0138 24.8177 27.5082C25.4707 27.1598 26.005 26.5893 26.005 26.2404H26.005ZM39.6587 26.2896C39.6587 25.9833 39.3915 25.7327 39.065 25.7327C38.7385 25.7327 38.4714 26.1479 38.4714 26.6554C38.4714 27.1629 38.7385 27.4135 39.065 27.2123C39.3915 27.0111 39.6587 26.5959 39.6587 26.2896V26.2896ZM23.6305 24.7376C23.6305 23.9852 23.4653 23.949 22.7466 24.5436C22.2604 24.9459 22.0117 25.5155 22.1939 25.8095C22.6623 26.5649 23.6305 25.8425 23.6305 24.7376V24.7376ZM41.6545 25.4368C41.4665 24.9486 41.2078 24.5491 41.0795 24.5491C40.9512 24.5491 40.8462 24.9486 40.8462 25.4368C40.8462 25.9251 41.1049 26.3246 41.4212 26.3246C41.7374 26.3246 41.8424 25.9251 41.6545 25.4368ZM57.4678 25.775C57.4678 25.0632 55.7648 23.3654 55.0509 23.3654C54.3158 23.3654 54.3436 21.7558 55.0865 21.2981C55.4097 21.0989 55.5296 21.3098 55.3535 21.7675C54.9949 22.699 57.7698 24.7986 58.646 24.2588C59.6892 23.6159 58.5738 22.2948 57.1218 22.4537C56.3244 22.541 55.707 22.3157 55.7498 21.9532C55.9825 19.9815 55.6386 19.3459 54.4997 19.6428C52.8242 20.0796 52.9111 23.1367 54.6481 24.8682C56.0432 26.2591 57.4678 26.7172 57.4678 25.7751L57.4678 25.775ZM29.0106 24.4011L29.0482 23.0694L29.5851 24.4011C30.2287 25.9974 31.9016 26.1849 31.7854 24.6477C31.7403 24.0509 31.423 23.5208 31.0803 23.4696C30.7375 23.4184 29.9181 23.2948 29.2594 23.195C27.3617 22.9073 26.6212 22.2247 27.0158 21.127C27.2168 20.5678 27.1629 20.3076 26.8961 20.549C26.6292 20.7903 26.0301 20.6726 25.5647 20.2875C24.6975 19.57 22.262 19.1408 22.5936 19.764C22.695 19.9544 23.1461 20.8426 23.5962 21.7378C24.4495 23.435 25.4039 23.8993 25.4211 22.6256C25.4265 22.2187 25.9871 22.7513 26.6667 23.8093C28.111 26.0577 28.9577 26.2716 29.0106 24.4011H29.0106ZM37.1357 24.9637C37.5438 24.6559 37.8778 23.8947 37.8778 23.2721C37.8778 22.3363 37.6787 22.2462 36.7295 22.7527C36.098 23.0897 35.0605 23.3654 34.4242 23.3654C33.7646 23.3654 33.133 23.8766 32.9553 24.5543C32.6877 25.5743 32.91 25.7277 34.5185 25.6333C35.5499 25.5727 36.7276 25.2714 37.1357 24.9636V24.9637ZM51.7784 22.5785C52.2954 22.3807 52.7185 21.6185 52.7185 20.8846C52.7185 19.6415 52.5946 19.6857 50.9028 21.5325C49.7259 22.8171 49.2246 23.8526 49.4781 24.4757C49.8113 25.2944 49.941 25.2517 50.3538 24.1875C50.6202 23.5004 51.2613 22.7763 51.7784 22.5785V22.5785ZM47.9694 20.4061C47.9694 19.5104 46.431 19.6977 45.6012 20.6945C45.1982 21.1786 45.0258 21.9837 45.2182 22.4835C45.5164 23.2582 45.745 23.2157 46.7687 22.1951C47.4291 21.5367 47.9695 20.7316 47.9695 20.4061H47.9694ZM60.6293 21.4002C61.0187 21.633 60.9668 21.375 60.5117 20.8156C59.5698 19.6579 60.4047 19.4557 61.5916 20.5541C62.2312 21.1459 62.3073 21.1459 61.9721 20.5541C61.7417 20.1472 61.8361 19.8143 62.1818 19.8143C63.1254 19.8143 62.9381 17.6974 61.9201 16.855C61.4303 16.4498 61.0296 15.6508 61.0296 15.0795C61.0296 13.8608 60.2497 13.1888 57.6371 12.1563C56.0177 11.5163 55.5908 11.5397 54.8174 12.3108C53.4011 13.7227 53.6818 15.0795 55.3901 15.0795C56.2063 15.0795 56.8741 15.3209 56.8741 15.6159C56.8741 15.911 56.3551 16.017 55.7208 15.8516C55.0864 15.6863 53.7529 15.9561 52.7573 16.4512C51.0452 17.3027 50.9787 17.2928 51.5294 16.267C51.8496 15.6706 52.4485 15.0627 52.8603 14.9161C53.2722 14.7696 53.4562 14.4828 53.2691 14.2789C52.7647 13.7289 49.7605 15.2627 49.7551 16.0729C49.7528 16.4565 50.1944 17.213 50.737 17.7539C51.6564 18.6706 51.6262 18.7237 50.2917 18.5359C49.1429 18.3744 48.8601 18.5977 48.8601 19.6662C48.8601 20.8508 49.7031 21.6625 49.7821 20.554C49.7995 20.3099 50.4674 19.7687 51.2662 19.3514C52.0651 18.9342 52.7187 18.2017 52.7187 17.7239C52.7187 17.246 52.9858 16.855 53.3123 16.855C53.6388 16.855 53.906 17.2545 53.906 17.7427C53.906 18.5956 54.8493 18.879 56.9851 18.6678C57.5359 18.6134 58.2972 19.1475 58.6768 19.8548C59.0851 20.6152 59.1172 20.9867 58.7553 20.7638C58.4188 20.5564 57.9502 20.6986 57.7139 21.0797C57.4447 21.514 57.5418 21.614 57.9739 21.3478C58.3718 21.1026 58.8426 21.3768 59.087 21.9961C59.4854 23.0058 59.523 23.0075 59.7213 22.0264C59.8457 21.4114 60.2183 21.1544 60.6293 21.4002L60.6293 21.4002ZM60.3331 19.415C59.7867 19.2709 58.9143 18.5059 58.3945 17.7149C57.6155 16.5296 57.5804 16.0673 58.195 15.0862C58.6051 14.4315 59.2771 13.8958 59.6883 13.8958C60.5594 13.8958 60.7044 16.0279 59.8683 16.5431C59.0782 17.03 59.7898 18.6306 60.7963 18.6306C61.2511 18.6306 61.6232 18.8969 61.6232 19.2224C61.6232 19.5479 61.5565 19.7834 61.4748 19.7456C61.3932 19.7079 60.8794 19.5591 60.333 19.415L60.3331 19.415ZM59.8423 15.5587C59.8423 14.7807 58.4931 15.2679 58.1974 16.1526C58.0528 16.5851 58.3242 16.7174 58.9023 16.4962C59.4194 16.2984 59.8424 15.8765 59.8424 15.5587H59.8423ZM18.8814 18.96C18.8814 18.1364 16.7279 16.2631 15.7811 16.2631C14.8086 16.2631 15.3799 17.9362 16.6553 18.8232C18.3478 20.0003 18.8814 20.0331 18.8814 18.96V18.96ZM20.418 17.5978C19.7695 16.9513 19.3248 17.9795 19.7904 19.0489C20.2318 20.063 20.2638 20.062 20.5098 19.0281C20.6514 18.433 20.61 17.7894 20.4179 17.5978H20.418ZM48.5635 17.9743C48.5635 16.9987 47.1984 16.7499 45.8355 17.4771C43.5278 18.7084 43.9872 19.8322 46.4858 19.0677C47.6285 18.718 48.5635 18.226 48.5635 17.9743V17.9743ZM13.5039 16.5171C12.9046 15.7972 12.9506 15.7105 13.7664 16.0226C14.5501 16.3225 14.751 16.0488 14.7338 14.7045C14.7219 13.7714 14.8663 12.0758 15.0548 10.9365C15.2797 9.5764 15.0988 8.46409 14.5278 7.69748C13.7546 6.65938 13.4932 6.61789 12.171 7.3234C11.3531 7.75982 10.3499 7.91116 9.94188 7.65971C9.46199 7.36401 9.34953 7.44387 9.6235 7.88582C9.87449 8.29071 9.66998 8.56912 9.12158 8.56912C7.53818 8.56912 8.10592 10.2678 10.019 11.2541C11.5167 12.0263 11.7139 12.3477 11.1243 13.0559C10.5541 13.7409 10.6065 14.1379 11.3791 14.9892C12.4548 16.1741 12.6855 17.1306 11.7579 16.559C11.4314 16.3579 11.1643 16.4574 11.1643 16.7801C11.1643 17.1029 11.6985 17.5361 12.3515 17.7427C13.0045 17.9494 13.5698 18.4334 13.6077 18.8184C13.6455 19.2033 13.8012 19.0394 13.9535 18.4541C14.1058 17.8688 13.9035 16.9972 13.5039 16.5171L13.5039 16.5171ZM11.8829 13.6595C12.3039 13.2041 12.7419 12.92 12.8562 13.0283C13.2083 13.3618 12.3159 14.4876 11.6995 14.4876C11.3793 14.4876 11.4619 14.115 11.8829 13.6596L11.8829 13.6595ZM20.2716 16.6629C20.4864 16.877 20.6581 16.1423 20.6531 15.0301C20.647 13.6885 20.4741 13.2752 20.1391 13.8022C19.7706 14.3819 19.5544 14.1806 19.339 13.0573C19.0996 11.8085 19.1966 11.6444 19.853 12.1875C21.5367 13.5806 20.5785 11.7188 18.8202 10.1806C17.0396 8.62286 15.7853 8.09743 16.0333 9.01307C16.0994 9.25721 15.9454 10.5001 15.691 11.7752C15.2772 13.8492 15.4052 14.2623 16.9065 15.6974C17.9536 16.6984 18.8282 17.1082 19.2327 16.7874C19.5892 16.5047 20.0567 16.4487 20.2715 16.6629L20.2716 16.6629ZM16.8035 13.3039C15.6589 12.8135 15.6629 12.7938 16.9169 12.7536C17.6323 12.7307 18.3827 12.9784 18.5844 13.3039C19.0184 14.0039 18.4375 14.0039 16.8035 13.3039H16.8035ZM30.6317 15.3349C31.3741 14.8165 31.7833 14.0978 31.5586 13.7073C31.3372 13.3227 31.8174 13.6072 32.6258 14.3396C34.3312 15.8849 37.7287 16.1548 38.2552 14.7869C38.4424 14.3005 38.8348 14.0499 39.127 14.23C39.4193 14.4101 39.6585 14.2754 39.6585 13.9307C39.6585 13.0892 38.8867 13.1391 37.9092 14.0437C37.4063 14.5091 37.2526 14.5293 37.4948 14.0984C37.7066 13.7216 37.6291 12.7894 37.3227 12.0269C37.0163 11.2644 36.7486 10.945 36.7279 11.3171C36.7072 11.6892 36.2518 12.1614 35.7159 12.3664C34.8951 12.6804 34.8617 12.5948 35.5037 11.8236C36.6966 10.3905 35.7457 10.1028 34.3653 11.4791C33.6851 12.1572 32.7789 12.7121 32.3515 12.7121C31.3629 12.7121 29.8125 11.4955 29.3346 10.3447C29.1318 9.85643 29.1179 10.2359 29.3036 11.1878C29.5887 12.6492 29.5076 12.8082 28.7829 12.2085C28.0995 11.6431 27.8497 11.6922 27.5582 12.4495C27.0624 13.7378 27.0911 13.8957 27.8208 13.8957C28.1665 13.8957 28.3264 13.696 28.1759 13.4519C28.0255 13.2077 28.6331 12.9819 29.5261 12.95C30.5292 12.9141 31.1496 13.2001 31.1496 13.6983C31.1496 14.2077 30.7532 14.3793 30.0733 14.1642C29.4813 13.9768 28.5241 14.0981 27.9461 14.4335C27.3051 14.8056 27.1983 15.0505 27.6723 15.0615C28.0997 15.0713 28.2843 15.3458 28.0825 15.6713C27.5154 16.5862 29.1485 16.3706 30.6317 15.3349L30.6317 15.3349ZM58.6639 79.6389C58.6591 77.8757 58.7758 76.5537 58.9236 76.7011C59.4665 77.2423 59.6537 81.3025 59.1709 82.0617C58.8669 82.5398 58.6694 81.5962 58.6639 79.6389V79.6389ZM19.5242 79.8271C20.1095 79.6488 20.4641 78.8696 20.4641 77.7615C20.4641 76.7815 20.9606 75.5296 21.5694 74.9746C22.6104 74.0256 22.6305 74.0257 21.9145 74.9764C21.4965 75.5314 21.1104 76.8598 21.0566 77.9284C20.9826 79.3979 20.6696 79.9007 19.7715 79.9924C19.0444 80.0666 18.9486 80.0026 19.5242 79.8273L19.5242 79.8271ZM14.4643 78.0401C14.2497 77.1879 14.2078 76.3575 14.371 76.1947C14.5343 76.032 14.8395 76.5808 15.0494 77.4143C15.3143 78.4667 15.9127 79.0035 17.0076 79.171C18.4566 79.3927 18.4333 79.4194 16.7193 79.5009C15.1689 79.5746 14.7886 79.3283 14.4643 78.0401L14.4643 78.0401ZM11.4381 70.748C11.6275 70.4425 11.3993 69.9764 10.9311 69.7122C9.6762 69.0043 10.3929 65.9768 11.8154 65.9768C12.4693 65.9768 13.0576 65.4319 13.2532 64.6452C13.7819 62.5185 13.8732 54.7276 13.411 51.1807C13.1453 49.1419 13.1786 48.4784 13.5002 49.4051C13.7826 50.2189 14.0403 51.8036 14.0728 52.9266C14.1424 55.328 15.0992 54.745 15.4815 52.0684C15.6856 50.6391 15.7524 50.7777 15.824 52.7794C15.8729 54.1469 15.5122 56.7996 15.0224 58.6742C14.5327 60.5488 14.132 62.9898 14.132 64.0987C14.132 65.8421 14.2972 66.0718 15.3532 65.7965C16.129 65.5942 16.4912 65.7309 16.3463 66.1713C16.2208 66.5526 15.4709 66.9427 14.6799 67.0383C13.3356 67.2007 11.1824 70.1197 12.4069 70.1197C12.7027 70.1197 12.9447 70.386 12.9447 70.7116C12.9447 71.0371 12.5283 71.3034 12.0193 71.3034C11.5102 71.3034 11.2487 71.0534 11.4381 70.7479L11.4381 70.748ZM12.5295 67.7278C12.7346 66.946 12.5991 66.5838 12.156 66.7292C11.7735 66.8546 11.3714 67.5652 11.2623 68.3083C11.0219 69.9457 12.0742 69.4636 12.5295 67.7278V67.7278ZM53.9221 68.66C53.5247 68.1827 53.3038 67.4805 53.4312 67.0995C53.5585 66.7186 54.1242 67.1092 54.6883 67.9674C55.7659 69.6071 55.1636 70.1515 53.922 68.66H53.9221ZM38.8496 67.4564C39.0376 66.9682 39.2677 66.5687 39.3611 66.5687C39.4545 66.5687 39.6847 66.9682 39.8726 67.4564C40.0787 67.9918 39.8756 68.3442 39.3611 68.3442C38.8466 68.3442 38.6436 67.9918 38.8496 67.4564ZM37.2834 66.6036C37.2834 65.9333 37.5505 65.385 37.877 65.385C38.2035 65.385 38.4706 65.7687 38.4706 66.2378C38.4706 66.7069 38.2035 67.2553 37.877 67.4564C37.5505 67.6576 37.2834 67.2738 37.2834 66.6036ZM35.5025 66.2378C35.5025 65.7303 35.7696 65.4797 36.0961 65.6809C36.4226 65.882 36.6897 66.2973 36.6897 66.6036C36.6897 66.9099 36.4226 67.1605 36.0961 67.1605C35.7696 67.1605 35.5025 66.7453 35.5025 66.2378ZM25.4106 64.828C25.4106 63.3989 25.7408 63.2548 26.2116 64.4782C26.3955 64.9561 26.2905 65.5045 25.9783 65.6968C25.6661 65.8892 25.4106 65.4982 25.4106 64.828L25.4106 64.828ZM37.3303 63.2641C37.3588 62.5746 37.4994 62.4344 37.6889 62.9065C37.8604 63.3338 37.8393 63.8443 37.642 64.0409C37.4448 64.2376 37.3045 63.888 37.3302 63.2641L37.3303 63.2641ZM36.4857 60.3542C36.6846 59.0521 36.9454 57.8758 37.0653 57.7402C37.515 57.2317 37.1784 60.4017 36.662 61.5379C36.2871 62.3629 36.2337 62.0042 36.4857 60.3542V60.3542ZM40.3453 51.1806C40.3453 50.3668 40.48 50.0339 40.6447 50.4408C40.8094 50.8477 40.8094 51.5135 40.6447 51.9204C40.48 52.3273 40.3453 51.9944 40.3453 51.1806ZM7.66082 20.23C6.90993 18.9834 6.92258 18.9708 7.94478 19.9469C8.53321 20.5088 8.88688 21.0959 8.7307 21.2516C8.57452 21.4074 8.09307 20.9476 7.66084 20.23L7.66082 20.23ZM3.86154 15.2955C3.31153 14.7472 4.10653 13.3028 4.95835 13.3028C6.28679 13.3028 6.51569 14.3905 5.32137 15.0278C4.70215 15.3582 4.04523 15.4786 3.86156 15.2955H3.86154ZM24.3171 7.3843C24.3171 6.57052 24.4518 6.2376 24.6165 6.6445C24.7812 7.05139 24.7812 7.71722 24.6165 8.12411C24.4518 8.53101 24.3171 8.19809 24.3171 7.3843ZM34.9088 8.34452C34.9088 8.22162 35.3762 7.75554 35.9476 7.30879C36.8892 6.57259 36.9101 6.59353 36.1718 7.53223C35.3962 8.51813 34.9087 8.83163 34.9087 8.34448L34.9088 8.34452ZM36.5413 4.60891C35.9699 4.46004 35.5024 4.09144 35.5024 3.78979C35.5024 2.95363 36.4561 3.13532 37.2833 4.1291C37.6898 4.61737 37.9228 4.98598 37.8012 4.94822C37.6796 4.91046 37.1127 4.75777 36.5413 4.60891H36.5413ZM31.0501 3.24133C31.2519 2.91582 31.5348 2.64949 31.6788 2.64949C31.8228 2.64949 31.9406 2.91582 31.9406 3.24133C31.9406 3.56685 31.6577 3.83318 31.3119 3.83318C30.9661 3.83318 30.8483 3.56685 31.0501 3.24133Z" fill="white"/>
</svg>
