<svg width="320" height="210" viewBox="0 0 320 210" fill="none" xmlns="http://www.w3.org/2000/svg">
<rect x="0.5" y="0.5" width="319" height="209" stroke="url(#paint0_linear_257_2)"/>
<path d="M18.138 120.469C18.138 120.469 1.72541 101.152 22.5765 77.5489C22.5765 77.5489 46.6918 50.5041 76.1566 41.7135C76.1566 41.7135 86.491 36.2023 101.654 41.7135C116.816 47.2247 122.479 53.9909 122.995 62.2602C123.512 70.5296 99.7607 115.454 85.1144 137.418L50.3104 193.152C50.3104 193.152 43.5945 210.359 73.1858 195.607C73.1858 195.607 82.0981 197.029 142.829 123.379C142.829 123.379 219.583 8.12004 266.362 1.14122C266.362 1.14122 299.698 -7.9024 309 24.9269C309 24.9269 289.358 1.64725 238.192 31.9057C238.192 31.9057 230.181 24.6688 130.425 151.558C130.425 151.558 82.6143 219.261 51.3479 208.927C51.3479 208.927 27.9562 201.472 40.7503 176.452C40.7503 176.452 60.1336 127.003 76.8448 109.088C76.8448 109.088 103.723 52.0628 97.8629 46.5516C92.0023 41.0404 51.606 55.661 50.5685 70.15C49.531 84.6391 23.6949 68.7229 18.138 120.469Z" fill="#0057FF"/>
<defs>
<linearGradient id="paint0_linear_257_2" x1="160" y1="0" x2="160" y2="210" gradientUnits="userSpaceOnUse">
<stop/>
<stop offset="1" stop-color="white"/>
</linearGradient>
</defs>
</svg>
