<svg width="29" height="19" viewBox="0 0 29 19" fill="none" xmlns="http://www.w3.org/2000/svg">
<rect x="0.5" y="0.5" width="27.9524" height="18" stroke="#696969"/>
<path d="M1.64106 10.8996C1.64106 10.8996 0.156111 9.15188 2.04263 7.01633C2.04263 7.01633 4.2245 4.56942 6.89036 3.77408C6.89036 3.77408 7.82538 3.27544 9.19723 3.77408C10.5691 4.27271 11.0815 4.88489 11.1282 5.63307C11.1749 6.38125 9.02597 10.4459 7.70083 12.4331L4.55189 17.4757C4.55189 17.4757 3.94427 19.0325 6.62157 17.6978C6.62157 17.6978 7.42793 17.8264 12.9227 11.1629C12.9227 11.1629 19.8671 0.73467 24.0994 0.103253C24.0994 0.103253 27.1155 -0.714979 27.9571 2.25529C27.9571 2.25529 26.1801 0.149037 21.5507 2.8867C21.5507 2.8867 20.8259 2.23194 11.8004 13.7124C11.8004 13.7124 7.47463 19.8379 4.64576 18.9029C4.64576 18.9029 2.52938 18.2284 3.68693 15.9647C3.68693 15.9647 5.44066 11.4907 6.95263 9.86984C6.95263 9.86984 9.38451 4.71044 8.85426 4.21181C8.32402 3.71318 4.66911 5.036 4.57525 6.34691C4.48138 7.65782 2.14383 6.21778 1.64106 10.8996Z" fill="#696969"/>
</svg>
