<svg width="98" height="96" viewBox="0 0 98 96" fill="none" xmlns="http://www.w3.org/2000/svg">
<path fill-rule="evenodd" clip-rule="evenodd" d="M49.0405 0C21.9224 0 0 21.9999 0 49.2168C0 70.9727 14.0464 89.3886 33.5326 95.9066C35.9688 96.3966 36.8612 94.8476 36.8612 93.5446C36.8612 92.4036 36.7809 88.4926 36.7809 84.4177C23.139 87.3516 20.2982 78.5507 20.2982 78.5507C18.1059 72.8467 14.8575 71.3807 14.8575 71.3807C10.3925 68.3657 15.1828 68.3657 15.1828 68.3657C20.1356 68.6917 22.7345 73.4177 22.7345 73.4177C27.1182 80.9137 34.182 78.7957 37.0238 77.4917C37.4294 74.3137 38.7293 72.1137 40.1096 70.8917C29.2292 69.7507 17.7816 65.5137 17.7816 46.6088C17.7816 41.2308 19.729 36.8308 22.8148 33.4089C22.3279 32.1869 20.6224 27.1339 23.3026 20.3709C23.3026 20.3709 27.4434 19.0669 36.7799 25.4229C40.7772 24.3456 44.8995 23.7975 49.0405 23.7929C53.1813 23.7929 57.4024 24.3639 61.3002 25.4229C70.6377 19.0669 74.7785 20.3709 74.7785 20.3709C77.4586 27.1339 75.7521 32.1869 75.2653 33.4089C78.4323 36.8308 80.2995 41.2308 80.2995 46.6088C80.2995 65.5137 68.8519 69.6687 57.8902 70.8917C59.677 72.4397 61.2189 75.3727 61.2189 80.0177C61.2189 86.6176 61.1386 91.9146 61.1386 93.5436C61.1386 94.8476 62.032 96.3966 64.4672 95.9076C83.9533 89.3876 97.9998 70.9727 97.9998 49.2168C98.0801 21.9999 76.0774 0 49.0405 0Z" fill="white"/>
</svg>
