<svg width="50" height="40" viewBox="0 0 50 40" fill="none" xmlns="http://www.w3.org/2000/svg">
<path d="M0.506996 4.69248L0.509223 4.67462L0.51016 4.65666C0.627288 2.41229 2.41208 0.627443 4.65639 0.510405L4.67437 0.509468L4.69223 0.50724C4.74324 0.500879 4.79921 0.500244 4.89119 0.500244H45.1084C45.2022 0.500244 45.2678 0.50095 45.3184 0.507249L45.3361 0.509462L45.354 0.510399C47.5876 0.627472 49.3725 2.41233 49.4896 4.64593L49.4905 4.66412L49.4928 4.68219C49.4991 4.73228 49.4998 4.79755 49.4998 4.89144V34.2392C49.4998 36.6696 47.5389 38.6305 45.1085 38.6305H4.89129C2.4609 38.6305 0.5 36.6696 0.5 34.2392V4.89144C0.5 4.79945 0.500634 4.74348 0.506996 4.69248Z" stroke="#C8C8C8"/>
<path d="M49.989 4.61976C49.8585 2.13061 47.8694 0.141552 45.3803 0.0110839C37.3915 7.99982 32.9052 12.4861 24.9999 20.3914C22.001 17.3907 7.57907 2.95971 4.63045 0.0109863C2.13046 0.141455 0.141308 2.13051 0.0109375 4.6305C0 4.71751 0 4.80452 0 4.89144V34.2392C0 36.9457 2.18476 39.1305 4.89129 39.1305H6.52175V11.1414L22.6956 27.3044C23.3261 27.9457 24.163 28.261 25 28.261C25.8369 28.261 26.6739 27.9457 27.3044 27.3044L43.4782 11.1306V39.1305H45.1087C47.8152 39.1305 50 36.9457 50 34.2392V4.89144C49.9998 4.80452 49.9998 4.70667 49.989 4.61976Z" fill="#C8C8C8"/>
</svg>
