<svg width="42" height="75" viewBox="0 0 42 75" fill="none" xmlns="http://www.w3.org/2000/svg">
<path d="M26.6672 71.1798C26.6672 71.1798 24.7061 73.1929 23.2872 72.9075" stroke="white" stroke-miterlimit="10"/>
<path d="M23.1015 72.7272C23.1015 72.7272 24.4089 69.9179 26.4963 71.1348" stroke="white" stroke-miterlimit="10"/>
<path d="M31.3323 16.0903C31.3323 24.2478 24.5501 30.858 16.1855 30.858C10.8667 30.858 7.59069 28.2064 4.29984 24.6534C2.60613 22.8507 2.4204 20.8977 1.49926 18.8696C1.16171 17.9848 1.01728 17.0368 1.07584 16.0903C1.07584 7.93279 7.8581 1.32265 16.2152 1.32265C21.4152 1.32265 26.5558 3.78644 29.2746 7.71496C30.8792 10.0736 31.3323 13.0331 31.3323 16.0903Z" stroke="white" stroke-miterlimit="10"/>
<path d="M31.1912 13.4011C30.5941 11.8208 29.7706 10.3377 28.7472 8.99939C28.6655 8.87921 28.5689 8.75901 28.4798 8.63883L28.1975 8.28579C26.4752 6.18153 24.3206 4.4815 21.8833 3.30372C19.446 2.12594 16.7844 1.49863 14.0833 1.46533" stroke="white" stroke-miterlimit="10"/>
<path d="M27.8929 7.92527L26.6672 8.83416C33.8729 17.0217 27.7369 25.6299 27.7369 25.6299" stroke="white" stroke-miterlimit="10"/>
<path d="M26.1026 6.10746C26.1026 6.10746 16.661 1.81838 14.3878 1.8935C14.2815 1.89106 14.1756 1.90888 14.0758 1.94606" stroke="white" stroke-miterlimit="10"/>
<path d="M1.81873 13.1683C1.81873 13.1683 5.533 3.03525 14.3878 1.90101" stroke="white" stroke-miterlimit="10"/>
<path d="M16.8987 29.8664C16.8987 29.8664 4.38158 30.7302 1.81873 13.7091" stroke="white" stroke-miterlimit="10"/>
<path d="M34.9278 18.4113L36.8741 21.2432L38.0329 18.1785" stroke="white" stroke-miterlimit="10"/>
<path d="M41.19 20.6122L36.8741 21.2432" stroke="white" stroke-miterlimit="10"/>
<path d="M39.2958 23.3765L36.8741 22.0394C33.1598 30.0392 18.8152 30.858 18.8152 30.858" stroke="white" stroke-miterlimit="10"/>
<path d="M16.5941 33.517L16.8987 58.8609" stroke="white" stroke-miterlimit="10"/>
<path d="M14.5364 33.2466L15.6061 58.4103C16.2375 57.6591 13.3775 33.3593 13.3775 33.3593" stroke="white" stroke-miterlimit="10"/>
<path d="M17.6118 31.4589C17.6118 31.4589 32.4689 37.2352 32.5878 38.7225C32.7066 40.2098 32.5878 34.9668 32.5878 34.9668" stroke="white" stroke-miterlimit="10"/>
<path d="M34.9278 42.606L32.6324 38.9854L36.4804 38.6249" stroke="white" stroke-miterlimit="10"/>
<path d="M31.1912 40.2098L32.3575 38.6249" stroke="white" stroke-miterlimit="10"/>
<path d="M14.3581 32.3302L9.7747 31.0983C9.7747 31.0983 9.38842 33.2842 10.0273 34.4409L18.3027 31.0983C18.3027 31.0983 19.885 32.6006 18.8152 33.8325L14.3581 32.3302Z" stroke="white" stroke-miterlimit="10"/>
<path d="M23.0495 72.9225C23.7404 61.8806 17.1067 59.6947 16.5644 59.8149" stroke="white" stroke-miterlimit="10"/>
<path d="M15.361 59.6496C14.3284 59.1614 9.56669 64.1566 11.9215 73.576C10.7107 72.5845 9.41068 70.8568 7.53126 73.3582C7.43469 73.8314 7.85069 74.1093 12.1964 73.9591" stroke="white" stroke-miterlimit="10"/>
</svg>
