<svg width="217" height="127" viewBox="0 0 217 127" fill="none" xmlns="http://www.w3.org/2000/svg">
<path d="M33.8764 21.225C33.8764 21.225 29.1683 4.73779 19.229 12.3272C19.229 12.3272 15.5672 15.991 14.7825 25.9357C14.0989 26.3981 13.3132 26.6873 12.493 26.7785C11.6729 26.8696 10.8429 26.76 10.0745 26.4591" stroke="white" stroke-miterlimit="10"/>
<path d="M27.599 24.8889C27.599 24.8889 27.3375 20.1782 24.1987 21.7484C24.1987 21.7484 19.2291 24.1038 19.7522 30.908C19.7522 30.908 20.5369 40.3293 18.9676 39.5442" stroke="white" stroke-miterlimit="10"/>
<path d="M35.4457 16.2527C35.4457 16.2527 38.5845 -0.23455 54.0165 1.07396C54.0165 1.07396 60.0323 -0.234551 64.2173 11.0187C64.2173 11.0187 66.2705 18.8697 71.7842 16.2527L75.9875 14.6825" stroke="white" stroke-miterlimit="10"/>
<path d="M39.6307 19.9166C39.6307 19.9166 38.5845 15.991 46.4313 13.6357C46.4313 13.6357 54.5396 10.2336 59.5092 15.4676C59.5092 15.4676 62.3864 20.44 62.1248 24.6272C62.1248 24.6272 61.8397 27.5059 69.0457 24.6272L71.0179 23.5804" stroke="white" stroke-miterlimit="10"/>
<path d="M43.8157 26.9825C43.8157 26.9825 50.0931 18.2233 55.7167 22.6042C55.7998 22.6503 55.8714 22.7148 55.9259 22.7927C56.3287 23.2768 56.7629 24.9543 57.9399 30.6437C57.9399 30.6437 57.6784 35.0927 61.8633 34.5693L65.2636 33.5225" stroke="white" stroke-miterlimit="10"/>
<path d="M56.3705 22.2719C56.3705 22.2719 60.0323 24.1038 58.4629 29.0761" stroke="white" stroke-miterlimit="10"/>
<path d="M41.7232 19.9166C41.7232 19.9166 45.6466 11.5421 57.1552 14.1592" stroke="white" stroke-miterlimit="10"/>
<path d="M30.4761 27.5058C30.4761 27.5058 26.5527 22.0101 25.5065 30.3846L23.4428 46.5944L23.414 46.8718C23.414 46.8718 23.1525 48.442 20.2753 47.9186L18.1828 47.3952" stroke="white" stroke-miterlimit="10"/>
<path d="M31.2608 29.4399C31.2608 29.4399 29.4299 26.5036 27.599 27.6604" stroke="white" stroke-miterlimit="10"/>
<path d="M28.6426 29.0762C28.6426 29.0762 32.566 41.1145 32.3045 45.3017" stroke="white" stroke-miterlimit="10"/>
<path d="M28.7211 29.0814C28.7211 29.0814 31.266 42.7161 30.9993 43.4751C30.9993 43.4751 31.1562 47.0002 35.1319 46.9374C35.1319 46.9374 49.0469 48.7091 49.3084 44.2602" stroke="white" stroke-miterlimit="10"/>
<path d="M29.4299 30.1282C29.4299 30.1282 31.2614 29.5839 31.2614 32.4835" stroke="white" stroke-miterlimit="10"/>
<path d="M30.4998 37.1888C30.4998 37.1888 30.9993 48.2196 35.4458 46.3667C35.4458 46.3667 44.862 48.5991 49.4393 42.894" stroke="white" stroke-miterlimit="10"/>
<path d="M49.4392 45.3017C49.4392 45.3017 52.0059 43.6818 50.0279 31.2902C49.8631 30.2669 49.6695 29.1704 49.4392 27.9953L50.109 25.3417" stroke="white" stroke-miterlimit="10"/>
<path d="M50.7758 30.6882C50.7758 30.6882 55.714 28.236 57.613 37.8143C57.613 37.8143 57.6783 45.0399 61.6017 42.6846L63.2783 41.9937" stroke="white" stroke-miterlimit="10"/>
<path d="M16.0878 39.5914C16.0878 39.5914 15.5647 39.4108 14.7277 39.1857C11.0345 38.1965 1.27308 36.3384 3.93314 45.3017L10.8592 61.0038" stroke="white" stroke-miterlimit="10"/>
<path d="M13.7364 40.3293C13.7364 40.3293 3.88604 39.4421 5.80327 43.1557L12.0807 61.0038" stroke="white" stroke-miterlimit="10"/>
<path d="M16.6134 73.8271C16.6134 73.8271 18.8629 82.4843 20.8533 87.8675C21.8211 90.4845 22.7261 92.3295 23.2832 92.0259C23.2832 92.0259 21.6406 96.6842 50.7757 93.6302" stroke="white" stroke-miterlimit="10"/>
<path d="M21.9755 88.0166C21.9755 88.0166 22.6869 96.1294 50.7758 92.6958" stroke="white" stroke-miterlimit="10"/>
<path d="M1.18146 62.0507H41.7232" stroke="white" stroke-miterlimit="10"/>
<path d="M52.217 62.0506C52.217 62.0506 140.765 59.957 142.771 62.0506" stroke="white" stroke-miterlimit="10"/>
<path d="M141.9 61.0039C141.9 61.0039 166.464 58.0964 172.623 60.5957C172.623 60.5957 175.003 59.7033 174.595 65.9763C174.187 72.2493 172.121 69.7631 163.087 70.4252" stroke="white" stroke-miterlimit="10"/>
<path d="M1.18152 63.0267C1.18152 63.0267 -0.984194 70.5533 9.64558 69.4411L63.2653 69.5536" stroke="white" stroke-miterlimit="10"/>
<path d="M64.8712 68.855L89.4813 68.4624" stroke="white" stroke-miterlimit="10"/>
<path d="M64.7404 69.9016L125.684 68.0697L107.375 70.1633C107.375 70.1633 162.041 69.3782 162.564 70.1633" stroke="white" stroke-miterlimit="10"/>
<path d="M158.272 60.1559C158.272 60.1559 163.817 60.0721 160.835 61.5847" stroke="white" stroke-miterlimit="10"/>
<path d="M161.716 60.1532C161.716 60.1532 164.361 59.8915 164.51 61.3649" stroke="white" stroke-miterlimit="10"/>
<path d="M164.643 61.1215L168.551 60.7499" stroke="white" stroke-miterlimit="10"/>
<path d="M168.75 60.75C168.75 60.75 175.119 60.4883 173.549 62.8436" stroke="white" stroke-miterlimit="10"/>
<path d="M173.557 62.5741L173.295 67.2847C173.295 67.2847 173.557 70.9486 163.356 70.1635" stroke="white" stroke-miterlimit="10"/>
<path d="M14.2594 117.531C14.7825 120.41 11.6438 120.148 11.6438 120.148C6.15106 120.41 6.41262 118.055 6.41262 118.055L5.55469 94.6691C4.96095 91.6936 4.46661 70.1633 4.46661 70.1633" stroke="white" stroke-miterlimit="10"/>
<path d="M12.4156 70.9484L14.1293 116.877" stroke="white" stroke-miterlimit="10"/>
<path d="M32.8277 95.5225C32.9306 97.002 32.9986 98.4849 33.0318 99.9714C33.0736 101.45 33.0841 102.929 33.0893 104.42C33.0945 105.912 33.0736 107.378 33.0318 108.869C32.9899 110.361 32.9297 111.827 32.8277 113.318C32.7248 111.84 32.6567 110.357 32.6236 108.869C32.5817 107.388 32.5713 105.909 32.566 104.42C32.5608 102.931 32.5817 101.46 32.6236 99.9714C32.6655 98.4823 32.7256 97.0011 32.8277 95.5225Z" fill="white"/>
<path d="M35.5767 95.6794C35.6796 97.316 35.7476 98.9516 35.7808 100.586C35.8226 102.222 35.8331 103.858 35.8383 105.493C35.8436 107.129 35.8226 108.765 35.7808 110.4C35.7389 112.036 35.6787 113.671 35.5767 115.307C35.4738 113.672 35.4058 112.037 35.3726 110.4C35.3308 108.765 35.3203 107.129 35.3151 105.493C35.3098 103.858 35.3308 102.222 35.3726 100.586C35.4145 98.9507 35.4747 97.3151 35.5767 95.6794Z" fill="white"/>
<path d="M32.0455 113.606C32.0455 113.606 23.1525 116.746 23.4141 118.055C23.6756 119.363 39.1076 118.578 39.1076 118.578" stroke="white" stroke-miterlimit="10"/>
<path d="M36.0761 114.129C36.0761 114.129 37.8391 114.915 38.0797 115.307" stroke="white" stroke-miterlimit="10"/>
<path d="M37.7999 48.4422C39.1081 47.9188 38.3232 52.8911 38.3232 52.8911" stroke="white" stroke-miterlimit="10"/>
<path d="M38.3232 52.6294C38.6999 53.3779 37.3447 56.5261 37.7999 59.486" stroke="white" stroke-miterlimit="10"/>
<path d="M41.1089 49.6642L39.6306 59.9569" stroke="white" stroke-miterlimit="10"/>
<path d="M37.7999 71.2102C38.4198 71.8435 36.1547 89.4404 41.7233 87.6975" stroke="white" stroke-miterlimit="10"/>
<path d="M39.6308 71.7336C38.2602 72.5187 37.8678 89.2337 42.7695 87.1741C42.7695 87.1741 62.648 83.772 63.4327 90.3145C63.4327 90.3145 61.6018 100.521 48.2622 113.083" stroke="white" stroke-miterlimit="10"/>
<path d="M41.6186 87.7288C41.6186 87.7288 48.5238 87.174 52.4472 91.3612C52.4472 91.3612 55.8475 94.7634 50.6163 99.2123C50.6163 99.2123 44.6946 107.063 39.4163 114.129" stroke="white" stroke-miterlimit="10"/>
<path d="M45.1235 117.793H45.2935C50.0513 118.01 48.2622 116.485 48.2622 116.485C46.4313 114.129 43.5541 113.868 43.5541 113.868C39.6308 113.083 38.0797 116.684 38.0797 116.684C38.0797 116.684 36.5313 117.851 42.2647 117.822L45.1235 117.793Z" stroke="white" stroke-miterlimit="10"/>
<path d="M58.2014 114.129C56.8936 112.036 53.7549 112.297 53.7549 112.297C52.7194 112.13 51.6589 112.208 50.6592 112.526C49.6595 112.844 48.7487 113.394 48.0006 114.129C48.0006 114.129 54.278 115.7 57.9399 114.129" stroke="white" stroke-miterlimit="10"/>
<path d="M42.7695 49.2272C42.7695 49.2272 49.8316 59.4336 54.8012 57.34L66.9088 47.2802" stroke="white" stroke-miterlimit="10"/>
<path d="M66.9093 46.7986L65.2636 42.8495" stroke="white" stroke-miterlimit="10"/>
<path d="M67.3091 46.7986L68.926 41.3761" stroke="white" stroke-miterlimit="10"/>
<path d="M67.8427 46.7986L72.9849 45.3016" stroke="white" stroke-miterlimit="10"/>
<path d="M67.6175 47.657L70.4136 50.0646" stroke="white" stroke-miterlimit="10"/>
<path d="M34.792 48.8608C34.792 48.8608 17.1419 55.4793 23.2833 61.119" stroke="white" stroke-miterlimit="10"/>
<path d="M23.5684 61.1215L43.9465 61.0038" stroke="white" stroke-miterlimit="10"/>
<path d="M44.4095 60.7368L41.7965 57.9575" stroke="white" stroke-miterlimit="10"/>
<path d="M45.2334 60.8232L49.0391 59.3053" stroke="white" stroke-miterlimit="10"/>
<path d="M45.0975 61.3964C45.0975 61.3964 50.0933 62.3071 50.6164 63.8773" stroke="white" stroke-miterlimit="10"/>
<path d="M44.6003 61.7889L46.4318 64.6677" stroke="white" stroke-miterlimit="10"/>
<path d="M79.3877 60.2187L84.6189 44.2549L111.036 40.5911" stroke="white" stroke-miterlimit="10"/>
<path d="M79.5186 60.2188L65.5251 61.5273" stroke="white" stroke-miterlimit="10"/>
<path d="M80.1724 60.2188L85.142 45.04" stroke="white" stroke-width="0.5" stroke-miterlimit="10"/>
<path d="M97.812 51.3234C97.9925 52.0169 96.5278 52.1085 95.8582 52.6319C94.9689 53.3123 94.0587 52.5534 93.9044 51.3234C93.8154 50.6089 94.8512 50.4074 95.8582 50.0149C96.4546 49.7924 97.6159 50.5697 97.812 51.3234Z" stroke="white" stroke-width="0.5" stroke-miterlimit="10"/>
<path d="M94.2312 51.3234L94.5582 50.9989V51.6505L94.8825 50.9989V51.7709L95.4684 50.9989L95.5338 51.6505L96.1851 50.9989L96.5094 51.3234L97.1607 50.9989L97.2889 51.3836" stroke="white" stroke-width="0.25" stroke-miterlimit="10"/>
<path d="M84.6189 44.2548L85.142 45.0399L111.56 41.3761" stroke="white" stroke-width="0.5" stroke-miterlimit="10"/>
<path d="M111.56 41.3762L111.01 40.5544" stroke="white" stroke-width="0.5" stroke-miterlimit="10"/>
<path d="M79.3877 60.2187C79.3877 60.2187 93.5119 59.957 107.636 58.125L111.56 41.3761" stroke="white" stroke-miterlimit="10"/>
<path d="M163.871 70.4252C163.871 70.4252 166.181 71.171 166.594 82.1835" stroke="white" stroke-miterlimit="10"/>
<path d="M167.533 70.8176V81.8274" stroke="white" stroke-miterlimit="10"/>
<path d="M172.668 71.4719C172.668 71.4719 174.858 71.2102 174.073 79.5846" stroke="white" stroke-miterlimit="10"/>
<path d="M199.705 30.5155C198.473 38.9816 193.015 45.9717 184.142 46.0868C175.548 46.1994 168.925 39.1072 168.58 30.5155C168.206 21.1937 175.064 14.6381 184.142 14.9443C194.001 15.2766 201.092 20.987 199.705 30.5155Z" stroke="white" stroke-miterlimit="10"/>
<path d="M170.41 22.2719C170.41 22.2719 166.225 27.7676 171.98 39.5442C172.424 39.7928 179.303 46.6102 184.796 45.5634C187.412 45.04 195.52 41.3761 197.351 35.8804C197.351 35.8804 199.705 30.908 198.136 24.1038L199.341 24.4178" stroke="white" stroke-miterlimit="10"/>
<path d="M181.527 47.6569C181.179 48.5598 162.378 46.2909 156.809 27.5059" stroke="white" stroke-miterlimit="10"/>
<path d="M156.548 26.4591L157.856 20.9634" stroke="white" stroke-miterlimit="10"/>
<path d="M157.594 26.9825L160.994 25.674" stroke="white" stroke-miterlimit="10"/>
<path d="M156.025 27.2443L151.578 25.4124" stroke="white" stroke-miterlimit="10"/>
<path d="M156.286 28.291C156.548 27.3777 154.659 30.1832 154.194 32.2166" stroke="white" stroke-miterlimit="10"/>
<path d="M185.913 47.8219C185.913 47.8219 182.63 63.2937 177.697 61.365C172.764 59.4363 168.58 54.4613 168.58 54.4613" stroke="white" stroke-miterlimit="10"/>
<path d="M168.551 53.718L169.626 48.9655" stroke="white" stroke-miterlimit="10"/>
<path d="M169.168 53.7181L174.334 52.6294" stroke="white" stroke-miterlimit="10"/>
<path d="M166.594 54.2964C166.594 54.2964 161.256 53.4145 160.994 52.6294" stroke="white" stroke-miterlimit="10"/>
<path d="M167.635 54.6758C167.635 54.6758 165.179 57.6016 165.179 58.3867" stroke="white" stroke-miterlimit="10"/>
<path d="M187.673 47.1335C187.673 47.1335 184.43 81.639 181.082 82.1833C181.082 82.1833 159.948 82.9868 160.733 91.0995" stroke="white" stroke-miterlimit="10"/>
<path d="M160.733 91.0995C160.733 91.0995 157.594 104.185 159.164 118.317" stroke="white" stroke-miterlimit="10"/>
<path d="M189.243 49.4889C189.243 49.4889 186.627 83.7719 182.181 84.8187C182.181 84.8187 168.525 89.2676 167.635 101.693V119.332" stroke="white" stroke-miterlimit="10"/>
<path d="M158.724 119.599C158.724 119.599 156.286 115.176 151.317 117.27C146.347 119.363 147.655 120.934 147.655 120.934C147.655 120.934 150.841 123.027 158.64 121.195" stroke="white" stroke-miterlimit="10"/>
<path d="M167.533 120.149C167.533 120.149 161.34 119.714 159.728 125.035C159.914 124.972 157.181 127.178 168.58 125.121C168.58 125.121 173.303 124.132 171.457 121.748" stroke="white" stroke-miterlimit="10"/>
<path d="M171.718 121.98C171.718 121.98 169.662 120.12 168.056 120.149" stroke="white" stroke-miterlimit="10"/>
<path d="M192.19 47.1335C192.19 47.1335 206.506 45.5633 214.352 47.6569C214.352 47.6569 216.534 47.3952 216.097 48.9654C216.097 48.9654 216.183 58.3867 210.952 67.2846C210.952 67.2846 205.459 90.8378 203.89 90.3144" stroke="white" stroke-miterlimit="10"/>
<path d="M169.887 95.6349C170.149 93.1042 197.874 93.1932 197.874 93.1932C204.56 93.2848 203.869 91.4032 203.89 90.3145L202.844 87.9592C202.844 87.9592 175.903 86.5381 175.642 88.2941" stroke="white" stroke-miterlimit="10"/>
<path d="M204.172 88.0168C204.172 88.0168 208.765 67.3999 214.828 51.771C214.828 51.771 214.92 48.4945 211.891 48.8609L192.19 49.4889" stroke="white" stroke-miterlimit="10"/>
<path d="M189.766 95.2869C189.869 97.3369 189.937 99.3869 189.97 101.437C190.012 103.489 190.022 105.538 190.028 107.589C190.033 109.641 190.012 111.688 189.97 113.74C189.928 115.791 189.868 117.84 189.766 119.89C189.663 117.84 189.595 115.79 189.562 113.74C189.52 111.688 189.51 109.639 189.504 107.589C189.499 105.54 189.52 103.489 189.562 101.437C189.604 99.3851 189.664 97.336 189.766 95.2869Z" fill="white"/>
<path d="M193.951 94.7634C193.951 97.0315 193.916 99.2996 193.847 101.568C193.786 103.837 193.695 106.106 193.598 108.372C193.501 110.638 193.378 112.907 193.234 115.176C193.091 117.445 192.928 119.706 192.711 121.98C192.711 119.712 192.745 117.444 192.813 115.176C192.873 112.907 192.965 110.638 193.075 108.372C193.185 106.106 193.295 103.837 193.438 101.568C193.582 99.2987 193.747 97.0272 193.951 94.7634Z" fill="white"/>
<path d="M187.673 116.215C187.673 116.215 173.026 117 176.949 122.234C176.949 122.234 178.78 125.637 191.335 124.851C191.335 124.851 199.967 124.783 204.675 121.939C204.675 121.939 212.1 118.293 194.524 116.207" stroke="white" stroke-miterlimit="10"/>
<path d="M12.6901 41.6378L8.87656 48.026" stroke="white" stroke-width="0.5" stroke-miterlimit="10"/>
<path d="M15.5673 43.4698L10.3361 52.3677" stroke="white" stroke-width="0.5" stroke-miterlimit="10"/>
<path d="M18.7059 44.2549C18.7059 44.5166 12.4285 57.0783 12.4285 57.0783" stroke="white" stroke-width="0.5" stroke-miterlimit="10"/>
<path d="M21.5831 51.8442L15.0441 60.2187" stroke="white" stroke-width="0.5" stroke-miterlimit="10"/>
<path d="M26.5528 72.5187L21.9755 81.5605" stroke="white" stroke-width="0.5" stroke-miterlimit="10"/>
<path d="M32.1397 71.4718L23.5684 87.7052" stroke="white" stroke-width="0.5" stroke-miterlimit="10"/>
<path d="M35.7884 74.3428L27.3374 90.3145" stroke="white" stroke-width="0.5" stroke-miterlimit="10"/>
<path d="M35.5765 82.33L31.2608 90.7803" stroke="white" stroke-width="0.5" stroke-miterlimit="10"/>
<path d="M37.7057 88.6868L33.8764 92.4082" stroke="white" stroke-width="0.5" stroke-miterlimit="10"/>
<path d="M197.6 53.718L192.19 60.1376" stroke="white" stroke-width="0.5" stroke-miterlimit="10"/>
<path d="M203.903 54.6758L192.19 69.1165" stroke="white" stroke-width="0.5" stroke-miterlimit="10"/>
<path d="M210.154 54.6758L193.951 75.5282" stroke="white" stroke-width="0.5" stroke-miterlimit="10"/>
<path d="M206.147 69.5536C206.147 69.5536 193.634 82.9554 190.653 84.4104" stroke="white" stroke-width="0.5" stroke-miterlimit="10"/>
</svg>
