<svg width="66" height="94" viewBox="0 0 66 94" fill="none" xmlns="http://www.w3.org/2000/svg">
<path d="M6.1488 0H10.3329V4.14774H14.1896V0H18.3737V12.5524H14.1896V8.36825H10.3693V12.5524H6.1488M23.904 4.18412H20.2111V0H31.7993V4.18412H28.0882V12.5524H23.904M33.6367 0H38.0209L40.7133 4.42062L43.4057 0H47.7899V12.5524H43.6058V6.33076L40.6769 10.8423L37.748 6.33076V12.5524H33.6367M49.8638 0H54.0479V8.40463H59.9785V12.5524H49.8638" fill="white"/>
<path d="M6.00331 85.6836L0 18.301H66L59.9967 85.6472L32.9454 93.1423" fill="#E44D26"/>
<path d="M33 87.4118V23.8313H59.9785L54.8302 81.3175" fill="#F16529"/>
<path d="M12.2612 32.072H32.9999V40.3311H21.3208L22.0848 48.7903H32.9999V57.0312H14.517M14.8809 61.179H23.1763L23.7585 67.7826L32.9999 70.2567V78.8796L16.0451 74.1498" fill="#EBEBEB"/>
<path d="M53.6659 32.072H32.9636V40.3311H52.9019M52.156 48.7903H32.9636V57.0494H43.1511L42.1869 67.7826L32.9636 70.2567V78.8432L49.882 74.1498" fill="white"/>
</svg>
