<svg width="33" height="47" viewBox="0 0 33 47" fill="none" xmlns="http://www.w3.org/2000/svg">
<path d="M3.0744 0H5.16646V2.07387H7.0948V0H9.18686V6.27619H7.0948V4.18412H5.18466V6.27619H3.0744M11.952 2.09206H10.1055V0H15.8996V2.09206H14.0441V6.27619H11.952M16.8183 0H19.0105L20.3567 2.21031L21.7028 0H23.895V6.27619H21.8029V3.16538L20.3385 5.42117L18.874 3.16538V6.27619H16.8183M24.9319 0H27.024V4.20232H29.9892V6.27619H24.9319" fill="white"/>
<path d="M3.00165 42.8418L0 9.15051H33L29.9983 42.8236L16.4727 46.5711" fill="#E44D26"/>
<path d="M16.5 43.7059V11.9156H29.9893L27.4151 40.6588" fill="#F16529"/>
<path d="M6.13062 16.036H16.5V20.1656H10.6604L11.0424 24.3952H16.5V28.5156H7.25851M7.44043 30.5895H11.5882L11.8792 33.8913L16.5 35.1284V39.4398L8.02257 37.0749" fill="#EBEBEB"/>
<path d="M26.833 16.036H16.4818V20.1656H26.4509M26.078 24.3952H16.4818V28.5247H21.5755L21.0934 33.8913L16.4818 35.1283V39.4216L24.941 37.0749" fill="white"/>
</svg>
