<svg width="186" height="58" viewBox="0 0 186 58" fill="none" xmlns="http://www.w3.org/2000/svg">
<path d="M62.0284 7.63722H73.4082V51.3701H62.0284V7.63722ZM79.3794 51.3701V7.63722H110.673V16.1163H90.7589V25.1402H109.079V33.6208H90.7589V42.8872H110.673V51.3701H79.3794ZM117.049 51.3701V7.63722H148.335V16.1163H128.426V25.1402H146.739V33.6208H128.426V42.8872H148.335V51.3701H117.049ZM154.707 51.3701V7.63722H186V16.1163H166.093V25.1402H184.408V33.6208H166.093V42.8872H186V51.3701H154.707ZM25.9589 33.8919C25.8085 36.9799 25.7714 39.8378 25.5567 42.9336C26.7047 43.0446 28.0005 43.1513 29.2248 42.9614L28.8586 34.3316L28.7943 33.9209C27.8621 33.9595 26.9801 33.9994 25.9589 33.8919ZM18.7884 25.2202C17.3742 25.9747 15.2937 27.1152 15.5233 29.18C15.8262 30.3073 16.9728 31.0359 17.8802 31.4992C22.8953 33.8516 29.5532 33.9317 34.848 32.1759C36.1551 31.6395 37.9101 30.8618 38.1503 29.1567C38.1361 27.7483 36.7353 26.8615 35.729 26.322V26.2551C36.0799 26.1078 36.4835 25.9747 36.8468 25.9341V25.8966C35.0736 25.5582 33.3611 25.0644 31.6435 24.581C31.9741 25.3834 32.2131 26.2296 32.4889 27.0638C33.0047 26.8878 33.534 26.7544 34.091 26.6732C34.9966 27.0487 36.2939 27.5859 36.4225 28.7913C36.5231 29.919 35.3639 30.4681 34.6319 30.926C30.748 32.4304 26.3781 32.5774 22.3275 31.4334C21.2086 31.0583 19.5942 30.5764 19.4554 29.0597C20.2496 27.0634 22.3036 26.6477 24.019 26.1631C23.1373 25.5582 22.2407 25.023 21.3863 24.3501C20.4635 24.4042 19.6207 24.8343 18.7884 25.2202ZM27.3692 13.174L26.8664 14.8923L24.3452 22.58C24.9766 22.6485 25.7584 22.58 26.3781 22.6485V22.7119L26.0094 31.4079L26.073 31.4992C26.8794 31.5835 27.8865 31.6264 28.7086 31.4771V31.3402L28.3794 22.9057L28.4288 22.6203L30.647 22.58C29.5408 19.468 28.4674 16.3247 27.4342 13.174H27.3692ZM26.1976 9.31137C28.0525 7.96633 29.7167 9.84699 31.1538 10.9217C36.7106 15.6831 41.9542 21.1333 45.9503 27.2881C46.4534 28.082 46.6812 29.3153 46.2296 30.2141C45.1939 32.0533 43.796 33.7321 42.4711 35.4368V35.53C39.1674 39.2736 35.6785 43.1223 31.9084 46.2927C30.0683 47.4846 28.3794 50.0877 26.0094 48.475C20.6128 44.2771 15.4488 39.0578 11.0713 33.4599C10.3291 32.2293 9.1702 31.2207 8.65398 29.8246C7.93359 27.9347 9.52186 26.5784 10.4304 25.1549C14.8941 19.2948 20.4374 13.5484 26.1976 9.31137ZM30.8487 3.71463L28.7947 0.615773C28.5425 0.452574 28.229 0.181863 27.9504 0.102584C27.3448 -0.177021 26.6916 0.161367 26.1972 0.560471L22.4808 5.71363C16.5179 13.5751 9.45937 20.9156 1.7589 26.5425C1.1504 27.0487 0.245466 27.5429 0.0569226 28.3775C-0.145062 29.1277 0.222216 29.7473 0.65997 30.2145C6.82631 34.7357 12.7216 40.1035 17.9692 46.225C18.9007 47.2669 19.656 48.3029 20.5671 49.281C22.1019 51.4551 23.9049 53.6467 25.3159 55.9791C25.7584 56.4714 25.8343 57.2808 26.526 57.5206C27.0676 57.7202 27.7364 57.8555 28.253 57.5206L28.7667 56.9714C35.147 47.3496 43.2391 38.7078 52.2801 31.7312C53.1847 30.8707 54.9135 30.5509 54.9382 28.9541C54.8739 28.2174 54.471 27.4915 53.8767 27.0893L53.7289 27.0634C49.0763 23.6942 44.7413 19.8838 40.6573 15.5609L36.1442 10.5423C34.3158 8.38438 32.539 5.9944 30.8487 3.71463ZM25.5309 8.12875C27.3448 6.62593 29.6273 7.8739 31.1535 9.25646C32.7519 10.557 34.4168 12.0308 35.8783 13.5368L36.1439 13.6992C40.1908 17.6964 43.949 22.1388 47.0365 26.8352C47.5371 27.6524 47.9796 28.5786 47.6998 29.6634C46.6703 32.4033 44.5782 34.5872 42.749 36.9803C38.7914 41.5147 34.6166 45.9025 29.9434 49.4032C28.9981 50.1147 27.7226 50.7722 26.5903 50.2076C23.15 48.2905 20.2492 45.1503 17.2383 42.2893C13.7465 38.8424 10.2419 34.8293 7.59538 30.631C7.20194 30.042 7.09114 29.3153 7.10277 28.5384C7.4428 27.0893 8.37571 25.8966 9.25812 24.6749C12.3852 20.4325 16.2157 16.4082 20.0839 12.732C20.1733 12.638 20.3382 12.4373 20.4784 12.3418C22.1397 10.8127 23.7901 9.4591 25.5309 8.12875Z" fill="#C8C8C8"/>
</svg>
