<svg width="145" height="43" viewBox="0 0 145 43" fill="none" xmlns="http://www.w3.org/2000/svg">
<g filter="url(#filter0_d_82_5)">
<rect x="5" y="5" width="135" height="33" rx="5" fill="#333333"/>
<path d="M22.6 22.4V23.22H28.42C28.38 24.24 28.2 25.12 27.88 25.9C27.56 26.7 27.14 27.34 26.62 27.82C25.52 28.84 24.1 29.36 22.66 29.36C21.22 29.36 19.82 28.94 18.84 28.04C17.34 26.66 16.9 24.52 16.9 22.66C16.9 20.56 17.4 18.96 18.38 17.8C19.38 16.62 20.8 16.02 22.66 16.02C24 16.02 25.16 16.36 26.1 17.02C27.12 17.76 27.88 18.88 28.22 20.2C28.22 20.2 28.48 20.12 29.14 19.96C28.72 18.46 27.94 17.28 26.82 16.44C25.68 15.6 24.3 15.18 22.66 15.18C20.52 15.18 18.88 15.84 17.7 17.18C16.54 18.5 15.96 20.3 15.96 22.66C15.96 25 16.54 26.84 17.72 28.18C18.88 29.52 20.52 30.18 22.66 30.18C23.6 30.18 24.5 30.02 25.3 29.72C26.1 29.4 26.82 28.94 27.44 28.32C28.06 27.7 28.54 26.9 28.88 25.88C29.24 24.88 29.4 23.72 29.4 22.4H22.6ZM36.1106 30.18C37.6906 30.18 38.9506 29.66 39.8706 28.64C40.7706 27.62 41.2306 26.3 41.2306 24.54C41.2306 22.78 40.7706 21.4 39.8706 20.38C38.9506 19.36 37.6906 18.84 36.1106 18.84C34.5106 18.84 33.2706 19.34 32.3506 20.36C31.4306 21.4 30.9706 22.78 30.9706 24.54C30.9706 26.3 31.4306 27.62 32.3506 28.64C33.2706 29.66 34.5106 30.18 36.1106 30.18ZM36.1106 29.36C34.7906 29.36 33.7506 28.92 33.0106 28.06C32.2506 27.18 31.8706 26.06 31.8706 24.54C31.8706 23.02 32.2506 21.82 33.0106 20.96C33.7506 20.08 34.7906 19.64 36.1106 19.64C37.4306 19.64 38.4706 20.08 39.2306 20.96C39.9906 21.82 40.3706 23.02 40.3706 24.54C40.3706 26.06 39.9906 27.18 39.2306 28.06C38.4706 28.92 37.4306 29.36 36.1106 29.36ZM52.5617 19.82V19.04H48.4217V15.42H47.5417V19.04H45.8217V19.46V19.82H47.5417V26.82C47.5417 27.82 47.8017 28.6 48.3017 29.16C48.8017 29.72 49.5017 30 50.3817 30H52.5417V29.54V29.22H50.3817C49.7617 29.22 49.2817 29.02 48.9417 28.58C48.6017 28.16 48.4217 27.58 48.4217 26.82V19.82H52.5617ZM58.7278 30.18C60.3078 30.18 61.5678 29.66 62.4878 28.64C63.3878 27.62 63.8478 26.3 63.8478 24.54C63.8478 22.78 63.3878 21.4 62.4878 20.38C61.5678 19.36 60.3078 18.84 58.7278 18.84C57.1278 18.84 55.8878 19.34 54.9678 20.36C54.0478 21.4 53.5878 22.78 53.5878 24.54C53.5878 26.3 54.0478 27.62 54.9678 28.64C55.8878 29.66 57.1278 30.18 58.7278 30.18ZM58.7278 29.36C57.4078 29.36 56.3678 28.92 55.6278 28.06C54.8678 27.18 54.4878 26.06 54.4878 24.54C54.4878 23.02 54.8678 21.82 55.6278 20.96C56.3678 20.08 57.4078 19.64 58.7278 19.64C60.0478 19.64 61.0878 20.08 61.8478 20.96C62.6078 21.82 62.9878 23.02 62.9878 24.54C62.9878 26.06 62.6078 27.18 61.8478 28.06C61.0878 28.92 60.0478 29.36 58.7278 29.36ZM74.2589 15.42H69.3789V30H70.3389V23.32H74.2589C75.7589 23.32 76.9389 22.98 77.7789 22.3C78.5989 21.62 79.0189 20.64 79.0189 19.38C79.0189 18.12 78.5989 17.14 77.7589 16.46C76.9389 15.76 75.7589 15.42 74.2589 15.42ZM74.1789 22.5H70.3389V16.26H74.1789C75.4189 16.26 76.3789 16.52 77.0389 17.06C77.7189 17.6 78.0589 18.36 78.0589 19.38C78.0589 20.38 77.7189 21.16 77.0389 21.7C76.3789 22.24 75.4189 22.5 74.1789 22.5ZM85.3698 19.04H85.2298C83.3698 19.04 82.1098 19.72 81.4098 21.06V19.04H80.5898V30H81.4898V23.52C81.4898 22.28 81.7698 21.36 82.3698 20.76C82.9698 20.16 83.7898 19.84 84.8498 19.82H85.3698V19.04ZM90.7786 30.18C92.3586 30.18 93.6186 29.66 94.5386 28.64C95.4386 27.62 95.8986 26.3 95.8986 24.54C95.8986 22.78 95.4386 21.4 94.5386 20.38C93.6186 19.36 92.3586 18.84 90.7786 18.84C89.1786 18.84 87.9386 19.34 87.0186 20.36C86.0986 21.4 85.6386 22.78 85.6386 24.54C85.6386 26.3 86.0986 27.62 87.0186 28.64C87.9386 29.66 89.1786 30.18 90.7786 30.18ZM90.7786 29.36C89.4586 29.36 88.4186 28.92 87.6786 28.06C86.9186 27.18 86.5386 26.06 86.5386 24.54C86.5386 23.02 86.9186 21.82 87.6786 20.96C88.4186 20.08 89.4586 19.64 90.7786 19.64C92.0986 19.64 93.1386 20.08 93.8986 20.96C94.6586 21.82 95.0386 23.02 95.0386 24.54C95.0386 26.06 94.6586 27.18 93.8986 28.06C93.1386 28.92 92.0986 29.36 90.7786 29.36ZM97.4844 30.76C97.4844 31.42 97.3044 31.96 96.9444 32.32C96.5644 32.7 96.0644 32.88 95.4044 32.88H93.5444V33.68H95.4044C96.3444 33.68 97.0644 33.42 97.5844 32.9C98.1244 32.4 98.3844 31.68 98.3844 30.76V19.06H97.4844V30.76ZM97.4444 15.76V16.78H98.4244V15.76H97.4444ZM105.135 18.84C103.535 18.84 102.275 19.36 101.335 20.4C100.395 21.46 99.915 22.84 99.915 24.58C99.915 26.28 100.375 27.58 101.335 28.62C102.275 29.66 103.535 30.18 105.135 30.18C106.355 30.18 107.375 29.86 108.215 29.26C109.035 28.66 109.635 27.8 110.015 26.68L109.175 26.48C109.175 26.48 109.135 26.6 109.035 26.8C108.695 27.62 108.195 28.26 107.535 28.7C106.875 29.14 106.075 29.36 105.135 29.36C103.835 29.36 102.815 28.94 102.035 28.1C101.255 27.26 100.855 26.18 100.815 24.78H109.955C110.055 24.78 110.315 24.78 110.315 24.78C110.315 24.78 110.315 24.48 110.315 24.38V24.24C110.315 23.52 110.195 22.86 109.975 22.22C109.755 21.58 109.435 21 109.015 20.5C108.595 20 108.055 19.58 107.395 19.28C106.715 19 105.975 18.84 105.135 18.84ZM105.135 19.64C106.395 19.64 107.395 20.06 108.175 20.86C108.955 21.66 109.375 22.7 109.435 23.98H100.835C100.935 22.66 101.355 21.6 102.135 20.82C102.895 20.04 103.895 19.64 105.135 19.64ZM116.76 30.18C118.06 30.18 119.14 29.84 119.98 29.16C120.84 28.48 121.42 27.52 121.7 26.28L120.84 26.06C120.84 26.06 120.76 26.36 120.74 26.46C120.46 27.38 119.98 28.12 119.3 28.62C118.6 29.12 117.76 29.36 116.76 29.36C115.46 29.36 114.42 28.92 113.66 28.06C112.92 27.18 112.54 26.06 112.54 24.58C112.54 23.06 112.9 21.86 113.66 20.96C114.4 20.08 115.44 19.64 116.76 19.64C117.7 19.64 118.52 19.88 119.18 20.34C119.86 20.8 120.34 21.48 120.66 22.34L120.76 22.72L121.62 22.46C121.3 21.32 120.72 20.42 119.88 19.8C119.06 19.16 118.02 18.84 116.76 18.84C115.16 18.84 113.92 19.36 113 20.38C112.1 21.4 111.64 22.8 111.64 24.58C111.64 26.3 112.08 27.6 113 28.62C113.9 29.66 115.16 30.18 116.76 30.18ZM129.495 19.82V19.04H125.355V15.42H124.475V19.04H122.755V19.46V19.82H124.475V26.82C124.475 27.82 124.735 28.6 125.235 29.16C125.735 29.72 126.435 30 127.315 30H129.475V29.54V29.22H127.315C126.695 29.22 126.215 29.02 125.875 28.58C125.535 28.16 125.355 27.58 125.355 26.82V19.82H129.495Z" fill="#FFC772"/>
</g>
<defs>
<filter id="filter0_d_82_5" x="0" y="0" width="145" height="43" filterUnits="userSpaceOnUse" color-interpolation-filters="sRGB">
<feFlood flood-opacity="0" result="BackgroundImageFix"/>
<feColorMatrix in="SourceAlpha" type="matrix" values="0 0 0 0 0 0 0 0 0 0 0 0 0 0 0 0 0 0 127 0" result="hardAlpha"/>
<feOffset/>
<feGaussianBlur stdDeviation="2.5"/>
<feComposite in2="hardAlpha" operator="out"/>
<feColorMatrix type="matrix" values="0 0 0 0 1 0 0 0 0 0.779 0 0 0 0 0.4475 0 0 0 1 0"/>
<feBlend mode="normal" in2="BackgroundImageFix" result="effect1_dropShadow_82_5"/>
<feBlend mode="normal" in="SourceGraphic" in2="effect1_dropShadow_82_5" result="shape"/>
</filter>
</defs>
</svg>
