<svg width="93" height="29" viewBox="0 0 93 29" fill="none" xmlns="http://www.w3.org/2000/svg">
<path d="M31.0142 3.81861H36.7041V25.685H31.0142V3.81861ZM39.6897 25.685V3.81861H55.3366V8.05813H45.3794V12.5701H54.5394V16.8104H45.3794V21.4436H55.3366V25.685H39.6897V25.685ZM58.5244 25.685V3.81861H74.1673V8.05813H64.2129V12.5701H73.3697V16.8104H64.2129V21.4436H74.1673V25.685H58.5244ZM77.3533 25.685V3.81861H93V8.05813H83.0465V12.5701H92.2041V16.8104H83.0465V21.4436H92.9998V25.685H77.3533ZM12.9794 16.9459C12.9042 18.4899 12.8857 19.9189 12.7784 21.4668C13.3524 21.5223 14.0003 21.5757 14.6124 21.4807L14.4293 17.1658L14.3972 16.9604C13.9311 16.9798 13.4899 16.9997 12.9793 16.9459H12.9794ZM9.39422 12.6101C8.68709 12.9874 7.64684 13.5576 7.76163 14.59C7.91312 15.1536 8.48638 15.5179 8.94012 15.7496C11.4477 16.9258 14.7766 16.9658 17.424 16.088C18.0776 15.8198 18.9551 15.4309 19.0751 14.5784C19.068 13.8741 18.3676 13.4308 17.8645 13.161V13.1276C18.04 13.0539 18.2418 12.9874 18.4234 12.9671V12.9483C17.5368 12.7791 16.6806 12.5322 15.8218 12.2905C15.9871 12.6917 16.1066 13.1148 16.2444 13.5319C16.5024 13.4439 16.767 13.3772 17.0455 13.3366C17.4983 13.5243 18.1469 13.7929 18.2112 14.3956C18.2616 14.9595 17.6819 15.2341 17.3159 15.463C15.374 16.2152 13.1891 16.2887 11.1638 15.7167C10.6043 15.5291 9.7971 15.2882 9.72771 14.5298C10.1248 13.5317 11.1518 13.3238 12.0095 13.0815C11.5686 12.7791 11.1204 12.5115 10.6931 12.175C10.2318 12.2021 9.81036 12.4171 9.39422 12.6101ZM13.6846 6.58701L13.4332 7.44613L12.1726 11.29C12.4883 11.3242 12.8792 11.29 13.1891 11.3242V11.356L13.0047 15.7039L13.0365 15.7496C13.4397 15.7917 13.9432 15.8132 14.3543 15.7386V15.6701L14.1897 11.4528L14.2144 11.3101L15.3235 11.29C14.7704 9.73402 14.2337 8.16235 13.7171 6.58701H13.6844H13.6846ZM13.0988 4.65569C14.0262 3.98316 14.8583 4.9235 15.5769 5.46086C18.3553 7.84156 20.9771 10.5666 22.9751 13.644C23.2267 14.041 23.3406 14.6577 23.1148 15.107C22.597 16.0267 21.898 16.8661 21.2356 17.7184V17.765C19.5837 19.6368 17.8392 21.5612 15.9542 23.1464C15.0342 23.7423 14.1897 25.0438 13.0047 24.2375C10.3064 22.1385 7.7244 19.5289 5.53563 16.7299C5.16453 16.1147 4.5851 15.6104 4.32699 14.9123C3.9668 13.9673 4.76093 13.2892 5.21521 12.5774C7.44703 9.64739 10.2189 6.77419 13.099 4.65569H13.0988ZM15.4243 1.85732L14.3973 0.307887C14.2713 0.226287 14.1145 0.0909317 13.9752 0.051292C13.6724 -0.0885105 13.3458 0.0806834 13.0986 0.280235L11.2404 2.85682C8.25897 6.78753 4.72969 10.4578 0.879448 13.2712C0.5752 13.5243 0.122733 13.7715 0.0284613 14.1887C-0.072531 14.5639 0.111108 14.8736 0.329985 15.1072C3.41316 17.3678 6.36082 20.0517 8.98462 23.1125C9.45035 23.6334 9.82798 24.1515 10.2835 24.6405C11.051 25.7276 11.9524 26.8234 12.6579 27.9896C12.8792 28.2357 12.9171 28.6404 13.263 28.7603C13.5338 28.8601 13.8682 28.9278 14.1265 28.7603L14.3833 28.4857C17.5735 23.6748 21.6196 19.3539 26.14 15.8656C26.5923 15.4354 27.4568 15.2755 27.4691 14.4771C27.437 14.1087 27.2355 13.7457 26.9384 13.5446L26.8644 13.5317C24.5382 11.8471 22.3706 9.94188 20.3286 7.78045L18.0721 5.27116C17.1579 4.19219 16.2695 2.9972 15.4243 1.85732ZM12.7655 4.06438C13.6724 3.31296 14.8137 3.93695 15.5767 4.62823C16.3759 5.27851 17.2084 6.01542 17.9391 6.76838L18.0719 6.8496C20.0954 8.84821 21.9745 11.0694 23.5182 13.4176C23.7685 13.8262 23.9898 14.2893 23.8499 14.8317C23.3351 16.2017 22.2891 17.2936 21.3745 18.4901C19.3957 20.7573 17.3083 22.9512 14.9717 24.7016C14.4991 25.0574 13.8613 25.3861 13.2951 25.1038C11.575 24.1453 10.1246 22.5752 8.61916 21.1446C6.87323 19.4212 5.12094 17.4146 3.79769 15.3155C3.60097 15.021 3.54557 14.6577 3.55138 14.2692C3.7214 13.5446 4.18785 12.9483 4.62906 12.3375C6.19262 10.2163 8.10784 8.20412 10.042 6.36599C10.0866 6.31901 10.1691 6.21865 10.2392 6.17089C11.0699 5.40633 11.8951 4.72955 12.7655 4.06438V4.06438Z" fill="#C8C8C8"/>
</svg>
