<svg width="117" height="36" viewBox="0 0 117 36" fill="none" xmlns="http://www.w3.org/2000/svg">
<path d="M39.0179 4.763H46.1761V32.0372H39.0179V4.763ZM49.9322 32.0372V4.763H69.617V10.051H57.0903V15.6788H68.6141V20.9678H57.0903V26.7468H69.617V32.0372H49.9322ZM73.6275 32.0372V4.763H93.3073V10.051H80.7839V15.6788H92.3038V20.9678H80.7839V26.7468H93.3073V32.0372H73.6275ZM97.3154 32.0372V4.763H117V10.051H104.478V15.6788H115.999V20.9678H104.478V26.7468H117V32.0372H97.3154ZM16.329 21.1369C16.2344 23.0627 16.2111 24.8451 16.076 26.7758C16.7981 26.845 17.6132 26.9116 18.3833 26.7931L18.153 21.4111L18.1125 21.1549C17.5262 21.1791 16.9711 21.2039 16.3288 21.1369H16.329ZM11.8185 15.7287C10.9289 16.1993 9.62021 16.9106 9.76464 18.1983C9.95522 18.9013 10.6764 19.3557 11.2472 19.6446C14.4019 21.1118 18.5899 21.1617 21.9205 20.0667C22.7427 19.7322 23.8467 19.2472 23.9977 18.1838C23.9888 17.3054 23.1077 16.7523 22.4747 16.4159V16.3742C22.6954 16.2823 22.9493 16.1993 23.1778 16.174V16.1506C22.0624 15.9395 20.9852 15.6316 19.9048 15.3301C20.1127 15.8305 20.2631 16.3582 20.4366 16.8785C20.761 16.7687 21.094 16.6855 21.4443 16.6349C22.014 16.8691 22.83 17.2041 22.9109 17.9559C22.9742 18.6592 22.245 19.0016 21.7846 19.2872C19.3415 20.2254 16.5927 20.3171 14.0447 19.6036C13.3409 19.3697 12.3254 19.0692 12.2381 18.1232C12.7376 16.8782 14.0297 16.619 15.1087 16.3168C14.5541 15.9395 13.9901 15.6057 13.4527 15.1861C12.8722 15.2198 12.3421 15.488 11.8185 15.7287ZM17.2161 8.21605L16.8998 9.28764L15.3139 14.0822C15.7111 14.1249 16.2028 14.0822 16.5927 14.1249V14.1644L16.3607 19.5877L16.4007 19.6446C16.908 19.6972 17.5415 19.724 18.0586 19.6309V19.5455L17.8516 14.2853L17.8827 14.1073L19.278 14.0822C18.5821 12.1414 17.9069 10.181 17.257 8.21605H17.2158H17.2161ZM16.4791 5.80709C17.6459 4.96825 18.6927 6.14113 19.5968 6.81139C23.0921 9.78087 26.3905 13.1799 28.9042 17.0184C29.2207 17.5135 29.364 18.2827 29.0799 18.8432C28.4284 19.9903 27.5491 21.0372 26.7157 22.1004V22.1585C24.6376 24.4932 22.4429 26.8935 20.0714 28.8707C18.9139 29.6141 17.8516 31.2375 16.3607 30.2317C12.9661 27.6137 9.71779 24.3586 6.96418 20.8675C6.49732 20.1 5.76835 19.471 5.44363 18.6003C4.99049 17.4216 5.98956 16.5758 6.56107 15.688C9.36885 12.0333 12.856 8.44952 16.4793 5.80709H16.4791ZM19.4048 2.31665L18.1128 0.384031C17.9542 0.28225 17.757 0.11342 17.5817 0.0639771C17.2008 -0.1104 16.7899 0.100637 16.4789 0.349541L14.1412 3.56334C10.3903 8.46616 5.95025 13.0441 1.1064 16.5534C0.723639 16.8691 0.154406 17.1773 0.0358061 17.6978C-0.0912486 18.1657 0.139781 18.5521 0.415142 18.8434C4.29397 21.6631 8.00232 25.0108 11.3032 28.8285C11.8891 29.4783 12.3642 30.1244 12.9374 30.7344C13.9028 32.0903 15.037 33.4571 15.9245 34.9117C16.2028 35.2187 16.2506 35.7235 16.6857 35.8731C17.0264 35.9975 17.4471 36.0819 17.7721 35.8731L18.0952 35.5306C22.1086 29.5299 27.1988 24.1403 32.8859 19.7894C33.4549 19.2527 34.5424 19.0533 34.5579 18.0574C34.5175 17.5979 34.264 17.1452 33.8902 16.8944L33.7972 16.8782C30.8706 14.777 28.1437 12.4006 25.5747 9.70465L22.7359 6.57479C21.5858 5.22897 20.4681 3.73844 19.4048 2.31665ZM16.0598 5.06955C17.2008 4.1323 18.6365 4.9106 19.5965 5.77284C20.602 6.58395 21.6493 7.50311 22.5686 8.44229L22.7356 8.54358C25.2813 11.0365 27.6453 13.807 29.5875 16.7359C29.9024 17.2456 30.1807 17.8232 30.0047 18.4997C29.3571 20.2085 28.0411 21.5705 26.8905 23.063C24.4011 25.8909 21.775 28.6274 18.8353 30.8106C18.2407 31.2544 17.4384 31.6644 16.7261 31.3122C14.5621 30.1167 12.7374 28.1583 10.8435 26.374C8.64697 24.2243 6.44247 21.7215 4.77774 19.1032C4.53025 18.7359 4.46056 18.2827 4.46787 17.7981C4.68176 16.8944 5.26859 16.1506 5.82365 15.3887C7.79072 12.7429 10.2002 10.2331 12.6334 7.94038C12.6896 7.88177 12.7934 7.7566 12.8816 7.69702C13.9266 6.74338 14.9647 5.89922 16.0598 5.06955Z" fill="white"/>
</svg>
