<svg width="50" height="50" viewBox="0 0 50 50" fill="none" xmlns="http://www.w3.org/2000/svg">
<path d="M35.1047 0H14.8953C6.68198 0 0 6.68198 0 14.8953V35.1047C0 43.318 6.68198 50 14.8953 50H35.1047C43.318 50 50 43.318 50 35.1047V14.8953C49.9999 6.68198 43.3179 0 35.1047 0ZM44.97 35.1047C44.97 40.5531 40.5531 44.97 35.1047 44.97H14.8953C9.44688 44.97 5.03 40.5531 5.03 35.1047V14.8953C5.03 9.44679 9.44688 5.03 14.8953 5.03H35.1047C40.5531 5.03 44.97 9.44679 44.97 14.8953V35.1047Z" fill="#C8C8C8"/>
<path d="M25 12.0684C17.8694 12.0684 12.0682 17.8695 12.0682 25C12.0682 32.1305 17.8694 37.9318 25 37.9318C32.1306 37.9318 37.9318 32.1306 37.9318 25C37.9318 17.8695 32.1306 12.0684 25 12.0684ZM25 32.9019C20.6359 32.9019 17.0982 29.3642 17.0982 25.0001C17.0982 20.6361 20.636 17.0984 25 17.0984C29.3641 17.0984 32.9018 20.6361 32.9018 25.0001C32.9018 29.3641 29.364 32.9019 25 32.9019Z" fill="#C8C8C8"/>
<path d="M37.9564 15.2642C39.6677 15.2642 41.055 13.8769 41.055 12.1655C41.055 10.4542 39.6677 9.06689 37.9564 9.06689C36.2451 9.06689 34.8578 10.4542 34.8578 12.1655C34.8578 13.8769 36.2451 15.2642 37.9564 15.2642Z" fill="#C8C8C8"/>
</svg>
