<svg width="32" height="54" viewBox="0 0 32 54" fill="none" xmlns="http://www.w3.org/2000/svg">
<g clip-path="url(#clip0_38_246)">
<path d="M4.44629 53.3148C3.77875 52.6064 3.57694 51.6323 4.09774 51.6323C4.61046 51.6323 4.42011 50.7946 3.87512 50.6526C3.58944 50.5782 6.49455 50.5017 10.3309 50.4826L17.3062 50.4478L17.2068 52.0361C17.1091 53.5972 17.0952 53.6188 16.3921 53.2942C15.7833 53.0131 15.7429 52.9151 16.1205 52.6354C16.3645 52.4547 16.5641 52.2217 16.5641 52.1176C16.5641 51.7658 15.4275 51.9252 15.2766 52.2982C15.1872 52.5191 15.1175 52.4596 15.1035 52.1502C15.0811 51.6552 15.3834 51.5054 16.1931 51.6103C16.3971 51.6367 16.5641 51.4527 16.5641 51.2014C16.5641 50.8766 16.2639 50.7446 15.5252 50.7446H14.4864V52.2242C14.4864 53.038 14.3528 53.7038 14.1896 53.7038C14.0263 53.7038 13.8927 53.4375 13.8927 53.112C13.8927 52.7174 13.6949 52.5201 13.2991 52.5201C12.9726 52.5201 12.7055 52.6696 12.7055 52.8523C12.7055 53.0806 12.5651 53.0683 12.2566 52.813C11.9174 52.5323 11.8892 52.3437 12.1414 52.0407C12.5615 51.536 12.2773 50.7446 11.6759 50.7446C11.3266 50.7446 11.2192 51.1044 11.2119 52.2982C11.2042 53.5677 11.1362 53.7706 10.8398 53.4079C10.6404 53.1637 10.2773 52.9202 10.033 52.8667C9.78874 52.8132 9.37801 52.5801 9.12028 52.3488C8.51275 51.8036 8.27378 51.8186 7.57424 52.4461C7.02112 52.9423 7.00164 52.9392 7.10954 52.3721C7.19443 51.9259 7.53233 51.7389 8.48262 51.612C9.60421 51.4623 9.72424 51.5031 9.5718 51.982C9.3601 52.6469 10.0957 52.7154 10.6246 52.08C11.3834 51.1685 10.7788 50.7912 8.64305 50.8432L6.62071 50.8925L6.44473 52.3721C6.34794 53.1859 6.24776 53.5677 6.22211 53.2204C6.19391 52.8388 5.91339 52.5208 5.51278 52.4164C4.54423 52.1638 4.18421 52.6856 4.83348 53.4009C5.5895 54.2338 5.23878 54.1558 4.44634 53.3148L4.44629 53.3148ZM13.8928 51.4844C13.8928 50.9419 13.7345 50.7446 13.2992 50.7446C12.8639 50.7446 12.7056 50.9418 12.7056 51.4844C12.7056 52.0269 12.8639 52.2242 13.2992 52.2242C13.7345 52.2242 13.8928 52.0269 13.8928 51.4844ZM6.11916 51.4104C6.06414 51.1256 5.75565 50.8925 5.43363 50.8925C5.11161 50.8925 4.8031 51.1256 4.7481 51.4104C4.67317 51.7983 4.84524 51.9283 5.43363 51.9283C6.02202 51.9283 6.19411 51.7983 6.11916 51.4104ZM26.3215 53.4818C25.9523 53.0125 25.9628 53.002 26.4336 53.3701C26.7193 53.5935 26.953 53.8266 26.953 53.888C26.953 54.1315 26.7093 53.9748 26.3215 53.4819L26.3215 53.4818ZM21.9621 53.038C21.9221 52.4443 21.7492 52.2242 21.3229 52.2242C20.9442 52.2242 20.7947 52.3699 20.8979 52.6381C20.9856 52.8658 20.9266 53.1325 20.767 53.2309C20.3419 53.4928 19.6071 53.1408 19.3896 52.5712C19.2382 52.1744 19.2749 52.1496 19.5745 52.4461C19.78 52.6495 20.1266 52.816 20.3445 52.816C20.6489 52.816 20.6671 52.6786 20.4231 52.2242C20.137 51.6911 20.1974 51.6323 21.0311 51.6323C22.5184 51.6323 21.9085 50.916 20.2517 50.7171C19.4259 50.6179 20.8555 50.5212 23.5399 50.4947L28.289 50.4478L28.1873 52.0763C28.0894 53.6437 27.5469 54.1302 27.5469 52.6506C27.5469 51.8001 27.0783 51.7248 26.2743 52.4461C25.7212 52.9423 25.7016 52.9392 25.8082 52.3721C25.8814 51.9826 26.1976 51.7483 26.7332 51.6866C28.0671 51.5331 27.7544 50.7445 26.3596 50.7445H25.1723L25.1629 52.2981C25.1552 53.5676 25.0871 53.7706 24.7908 53.4079C24.5913 53.1637 24.2283 52.9218 23.984 52.8704C23.2723 52.7204 22.5729 51.8855 23.0204 51.7201C23.6108 51.5019 23.45 50.7445 22.8133 50.7445C22.3276 50.7445 22.2177 50.9929 22.1262 52.2981C22.0662 53.1526 21.9924 53.4855 21.9622 53.0379L21.9621 53.038ZM24.5755 52.08C24.777 51.8379 24.8643 51.4384 24.7695 51.1922C24.5515 50.6258 23.6881 50.6035 23.6881 51.1642C23.6881 51.3951 23.607 51.7946 23.508 52.052C23.2748 52.6577 24.077 52.6787 24.5754 52.08H24.5755ZM12.2607 49.2649C12.1599 49.1022 12.2109 48.969 12.3741 48.969C12.5374 48.969 12.7535 49.1022 12.8544 49.2649C12.9553 49.4277 12.9043 49.5609 12.741 49.5609C12.5778 49.5609 12.3616 49.4277 12.2607 49.2649ZM25.9144 49.2649C25.6822 48.8904 26.0752 48.8904 26.6565 49.2649C27.0401 49.5122 27.0323 49.5524 26.5998 49.5563C26.3237 49.5587 26.0153 49.4277 25.9144 49.2649ZM8.61315 47.2174C6.06104 47.0391 5.44313 46.7046 5.69913 45.6399C5.78824 45.2692 5.64173 45.1209 5.18356 45.118C3.36816 45.1065 2.31736 44.0502 2.31736 42.2367C2.31736 41.7729 2.17897 41.2554 2.00983 41.0868C1.46733 40.546 2.33511 36.8927 3.12931 36.374C3.499 36.1325 3.80145 35.6593 3.80145 35.3225C3.80145 34.9858 4.06859 34.3716 4.39509 33.9578C4.72159 33.544 4.98873 33.347 4.98873 33.5201C4.98873 33.6932 4.82177 34.0107 4.6177 34.2258C4.41364 34.4409 4.21893 35.0829 4.185 35.6526C4.1345 36.5006 4.17933 36.5912 4.43246 36.1525C4.60248 35.8578 4.66782 35.425 4.57765 35.1907C4.39006 34.7034 4.85603 34.6073 5.14517 35.0737C5.25049 35.2436 5.18009 35.5707 4.98873 35.8006C4.79737 36.0304 4.71521 36.3385 4.80616 36.4853C4.89711 36.632 4.8457 37.1894 4.69191 37.7241C4.38832 38.7794 4.60304 39.5234 5.02129 38.8654C5.22006 38.5526 5.27746 38.5783 5.281 38.9817C5.28338 39.2666 5.1787 39.4996 5.0481 39.4996C4.62863 39.4996 4.09828 38.8056 4.09828 38.2567C4.09828 37.9638 3.97724 37.7241 3.82931 37.7241C3.4126 37.7241 3.13582 40.4496 3.36598 42.2863C3.56931 43.9088 4.09829 44.6035 4.09829 43.2481C4.09829 42.8683 4.19846 42.4577 4.3209 42.3357C4.44334 42.2137 4.5626 41.7587 4.58592 41.3246C4.64871 40.1559 4.66814 40.0915 4.95831 40.0915C5.3174 40.0915 5.21451 41.9584 4.84034 42.2325C4.67136 42.3562 4.75999 42.4518 5.04612 42.4544C5.32255 42.4568 5.73789 42.1897 5.96905 41.8606C6.34625 41.3237 6.429 41.3099 6.77547 41.7261C6.98782 41.9812 7.35774 42.1149 7.59751 42.0232C8.09857 41.8315 10.0346 42.4599 10.0346 42.8143C10.0346 42.9444 10.1967 43.0175 10.3948 42.9768C10.5929 42.9361 10.8917 43.2024 11.0588 43.5687C11.3706 44.2518 12.0005 44.5306 11.7274 43.8646C11.2757 42.7631 11.2662 42.4349 11.7103 43.2727C11.9907 43.8017 12.3865 44.2345 12.5899 44.2345C12.8243 44.2345 12.6232 43.5838 12.0413 42.4589C11.425 41.2676 10.9438 40.6834 10.5787 40.6834C9.90465 40.6834 9.89498 40.9387 10.5335 41.8752L11.0325 42.6069L10.3851 42.0432C9.54546 41.3119 9.56395 40.7346 10.4376 40.4035C11.1149 40.1468 11.2225 39.8536 11.584 37.2803C11.6601 36.7384 11.4732 36.6812 9.3668 36.602C7.14924 36.5187 7.06646 36.5397 7.06646 37.1857V37.8559L6.6044 37.1982C6.35027 36.8365 5.88696 36.5405 5.57486 36.5405C5.17902 36.5405 5.06192 36.3987 5.18777 36.0718C5.28699 35.814 5.44976 35.7142 5.54948 35.8499C5.82791 36.2288 7.18756 36.224 7.43294 35.8432C7.58777 35.6029 7.65232 35.6171 7.65555 35.8921C7.65793 36.1052 7.79367 36.1972 7.95691 36.0966C8.54378 35.735 8.23743 35.3986 7.43748 35.5263C6.65946 35.6504 6.64821 35.6356 7.19739 35.2108C7.51428 34.9656 7.95627 34.765 8.17956 34.765C8.40287 34.765 8.49942 34.626 8.3941 34.4561C8.28879 34.2862 8.3378 33.9848 8.50303 33.7864C8.66825 33.5879 8.97512 32.7614 9.18497 31.9498C9.55439 30.521 9.57282 30.5023 9.76546 31.3619C9.96665 32.2597 10.0026 32.1545 10.1425 30.2574C10.1753 29.8128 10.3821 29.2801 10.6019 29.0737C10.9349 28.7612 10.974 28.9454 10.836 30.1782C10.7449 30.992 10.5799 31.8908 10.4692 32.1757C10.3323 32.5279 10.4103 32.6935 10.7132 32.6935C10.958 32.6935 11.238 32.4868 11.3353 32.234C11.4985 31.8098 11.1646 28.6649 10.7437 26.6642C10.6145 26.0497 10.6628 25.8737 10.9175 26.0307C11.1468 26.172 11.2498 26.0555 11.2119 25.6978C11.0708 24.3676 11.3232 24.4004 11.5324 25.7394C11.8672 27.8828 11.8621 31.4999 11.5225 32.6803C11.3383 33.3209 11.3341 33.7634 11.5114 33.8726C11.9032 34.1141 11.5342 35.3568 11.0706 35.3568C10.8623 35.3568 10.6149 35.5566 10.5209 35.8007C10.4169 36.0711 10.5203 36.2446 10.786 36.2446C11.0257 36.2446 11.224 36.0781 11.2264 35.8747C11.2298 35.6025 11.2984 35.6108 11.4862 35.9063C11.7813 36.3706 12.171 35.9296 12.0135 35.3095C11.9581 35.0914 11.9641 34.9987 12.0268 35.1035C12.1779 35.356 13.2996 35.0562 13.2996 34.7633C13.2996 34.6376 13.066 34.5533 12.7803 34.5759C12.4536 34.6018 12.2502 34.3976 12.2317 34.0252C12.2094 33.5748 12.232 33.5571 12.3264 33.9512C12.4439 34.4415 13.0422 34.7176 12.9677 34.2471C12.8532 33.5246 13.0657 33.5466 13.4588 34.2981C13.9379 35.2141 13.628 35.7598 12.8071 35.4457C12.5882 35.362 12.4092 35.4227 12.4092 35.5807C12.4092 36.1542 13.7348 35.7862 14.0677 35.1202C14.3431 34.5694 14.3013 34.2313 13.8488 33.3463C13.4706 32.6067 13.3984 32.2168 13.6258 32.1412C13.8107 32.0798 14.078 32.2122 14.2199 32.4355C14.3963 32.7132 14.4792 32.532 14.4824 31.8623C14.485 31.3092 14.3626 30.9597 14.2012 31.0591C14.043 31.1566 13.9234 30.8673 13.9332 30.4107C13.943 29.9573 13.7919 28.9459 13.5975 28.1632C13.3867 27.3144 13.3417 26.4187 13.4861 25.9438C13.6808 25.303 13.7587 25.552 13.8849 27.2189C14.0173 28.9681 14.0948 29.1983 14.383 28.6986C14.5707 28.373 14.7632 27.108 14.8108 25.8873C14.8708 24.3454 15.0611 23.4281 15.4341 22.8825C16.1287 21.8664 16.1129 21.6511 15.3774 22.1091C15.0509 22.3124 14.7837 22.713 14.7837 22.9994C14.7837 23.2857 14.5834 23.52 14.3385 23.52C14.0936 23.52 13.8933 23.7377 13.8933 24.0038C13.8933 24.3539 13.7204 24.2685 13.268 23.695C12.7785 23.0747 12.4399 22.9254 11.7097 23.0078C10.9096 23.098 10.7505 23.258 10.5931 24.1303L10.4096 25.1476L10.3665 23.9639C10.3162 22.5854 10.0461 21.4404 9.7774 21.4674C9.67401 21.4778 9.08852 22.0861 8.47633 22.8193C7.86414 23.5524 7.36326 23.9958 7.36326 23.8045C7.36326 23.6132 7.16719 23.5317 6.92753 23.6234C6.68789 23.7151 6.41288 23.6628 6.31638 23.5071C6.21989 23.3515 6.2824 23.2241 6.45528 23.2241C6.62817 23.2241 6.75412 22.9245 6.73519 22.5583C6.70928 22.0572 6.66716 22.0206 6.56501 22.4103C6.36735 23.1644 6.07939 23.0508 5.44037 21.9664C5.12865 21.4375 4.69916 20.8287 4.48592 20.6136C4.27268 20.3986 4.09821 19.9737 4.09821 19.6694C4.09821 19.3651 3.94755 19.0233 3.7634 18.9098C3.30708 18.6286 3.63712 15.6535 4.26354 14.4014C4.54869 13.8316 4.67378 13.131 4.56648 12.7048C4.46597 12.3056 4.51166 11.9789 4.66801 11.9789C4.98095 11.9789 5.4493 9.51524 5.31496 8.5758C5.26841 8.25029 5.03662 7.76738 4.79986 7.50267C4.42076 7.07879 4.43291 6.99664 4.90166 6.81405C5.3757 6.62941 5.34095 6.53226 4.58385 5.92572L3.73379 5.24472L2.73209 5.87457C2.18117 6.22097 1.64277 6.82329 1.53564 7.21305C1.42854 7.60281 1.07973 8.18208 0.760531 8.50031C0.319162 8.94035 0.263153 9.16043 0.526654 9.41925C0.788163 9.6761 0.959239 9.65069 1.22418 9.31567C1.59511 8.84663 2.72341 8.60401 2.44496 9.05316C2.35546 9.19754 2.09765 9.31567 1.87204 9.31567C1.31183 9.31567 1.11667 9.70315 1.42578 10.2018C1.63184 10.5342 1.80146 10.4731 2.28679 9.89169C2.6192 9.49349 2.89562 9.00123 2.90105 8.79778C2.91198 8.38834 3.35584 8.35345 4.22691 8.69355C4.62144 8.84759 4.69105 8.98528 4.44953 9.13409C4.2563 9.25315 3.97604 9.2753 3.82674 9.1833C3.089 8.72873 3.45432 10.5842 4.21044 11.1321C4.54071 11.3714 4.17861 11.9804 3.70968 11.9744C3.44098 11.971 3.44234 11.9153 3.71535 11.7423C3.97269 11.5792 3.90076 11.4065 3.46167 11.1331C2.95643 10.8186 2.89033 10.8203 3.08525 11.1433C3.26259 11.4372 3.19266 11.4307 2.80544 11.1173C2.44213 10.8233 2.39067 10.637 2.63174 10.4885C2.87953 10.3358 2.88342 10.2214 2.64578 10.075C2.4651 9.96365 2.30023 9.98029 2.27939 10.112C2.08932 11.3132 2.17272 11.7558 2.65219 12.0906C2.95566 12.3025 3.10463 12.5826 2.98323 12.7129C2.86183 12.8433 3.14289 12.8589 3.6078 12.7475C4.23165 12.598 4.4196 12.6453 4.32524 12.9278C4.10039 13.601 3.1726 13.5405 2.66926 12.8197C2.40317 12.4387 1.68085 11.5794 1.06409 10.9101C-0.227126 9.50908 -0.259953 9.35641 0.517949 8.37046C0.834328 7.96945 1.17989 7.29703 1.28582 6.87617C1.39977 6.42352 1.8154 5.97183 2.3034 5.7703C2.75712 5.58293 3.31235 5.08684 3.53728 4.66787C3.76218 4.2489 4.5296 3.65679 5.24268 3.35205C6.52051 2.80595 6.55304 2.80655 7.50565 3.39352C8.03722 3.72105 8.67455 3.98903 8.92192 3.98903C9.1693 3.98903 9.44156 4.25536 9.52695 4.58088C9.61233 4.90639 9.84461 5.17272 10.0432 5.17272C10.3227 5.17272 10.3208 5.07267 10.0346 4.72884C9.82797 4.48062 9.79608 4.28496 9.96225 4.28496C10.3544 4.28496 10.8824 2.91649 10.9886 1.62505C11.0659 0.684286 11.1711 0.577043 12.1738 0.416032C13.4549 0.210297 13.736 0.339461 14.0266 1.26732C14.198 1.81483 14.3225 1.88041 14.6602 1.601C14.8914 1.40974 15.0805 1.38253 15.0805 1.54053C15.0805 1.69852 14.556 2.03321 13.915 2.28424C12.8432 2.70398 12.7641 2.70163 12.9317 2.25515C13.09 1.83328 13.0482 1.82287 12.6131 2.17576C12.1803 2.52678 12.1123 2.51432 12.1123 2.084C12.1123 1.69699 12.3106 1.61727 13.0028 1.72602C13.9452 1.8741 14.1492 1.61001 13.5045 1.07656C12.9507 0.61832 11.3594 1.10292 11.4099 1.71448C11.4317 1.97851 11.5335 2.52818 11.6362 2.93594C11.7765 3.49328 11.7211 3.63843 11.413 3.52053C10.7896 3.28205 10.5577 4.60456 11.1152 5.21865C11.3706 5.50007 11.5097 5.90448 11.4242 6.11734C11.3231 6.36902 11.2605 6.32326 11.2453 5.9865C11.2324 5.70168 11.0924 5.46864 10.9341 5.46864C10.7758 5.46864 10.6639 5.93472 10.6854 6.50437C10.7262 7.58795 11.1899 7.8478 11.7919 7.12453C11.9981 6.87689 12.0558 6.36866 11.9348 5.86686L11.7318 5.02475L12.4736 5.70271L13.2153 6.38067L13.6961 5.64915C14.1429 4.96935 14.1406 4.90816 13.664 4.78358C13.3819 4.70984 13.5946 4.63406 14.1365 4.61518C14.9794 4.58582 15.1081 4.48507 15.0269 3.91804C14.9715 3.53097 14.6851 3.21215 14.3384 3.15167C13.7448 3.04807 13.7448 3.04807 14.3384 3.51926C14.8252 3.90561 14.8379 3.95772 14.4088 3.80866C14.1211 3.70867 13.6636 3.80837 13.3924 4.02988C12.9683 4.37629 12.9737 4.31859 13.4303 3.61911C14.3557 2.20131 15.6741 2.72631 15.6741 4.51268C15.6741 5.37748 15.7627 5.49727 16.3419 5.41524C16.8798 5.33908 17.0098 5.1314 17.0098 4.34814C17.0098 2.99634 18.1625 2.3163 18.9172 3.22286C19.1833 3.54258 19.1811 3.69196 18.9076 3.86043C18.6805 4.0004 18.6281 3.95539 18.7636 3.73673C19.104 3.18764 18.0542 2.9689 17.5398 3.48172C16.8232 4.19614 17.2777 4.98191 18.274 4.75124C18.7214 4.64765 18.9319 4.66765 18.7418 4.79569C18.4839 4.96931 18.5016 5.17243 18.8112 5.59463C19.2118 6.14081 19.2473 6.14197 19.8178 5.62719C20.1431 5.33373 20.3259 4.94497 20.2242 4.76327C20.0916 4.52641 20.1422 4.52743 20.403 4.76688C20.6893 5.02984 20.6734 5.37592 20.328 6.39445C20.0868 7.10594 19.7574 7.68805 19.5961 7.68805C19.4348 7.68805 19.025 8.02096 18.6856 8.42786C18.2826 8.91083 18.0649 9.0187 18.0585 8.73858C18.0513 8.42653 17.9596 8.39827 17.7221 8.63501C17.4846 8.87175 17.2399 8.80534 16.8248 8.39149C16.371 7.93899 16.1322 7.88747 15.6589 8.14001C15.3316 8.31466 15.1435 8.5862 15.241 8.74345C15.3385 8.90069 15.5203 8.96645 15.6451 8.88958C15.7698 8.81271 15.8719 8.94606 15.8719 9.18592C15.8719 9.51528 15.7101 9.47045 15.2107 9.00269C14.8324 8.64838 14.4724 8.50761 14.3694 8.67374C14.2704 8.83346 13.908 8.89078 13.5642 8.80113C13.037 8.66369 12.9648 8.47935 13.1037 7.6257C13.22 6.91164 13.1637 6.65045 12.913 6.73938C12.7174 6.80874 12.59 7.15468 12.6298 7.50813C12.6908 8.04937 12.6153 8.10441 12.1514 7.85687C11.7575 7.6467 11.4409 7.6813 11.0401 7.97833C10.4961 8.38155 10.4997 8.41363 11.1647 9.07655C11.8011 9.71104 11.8764 9.72356 12.2279 9.25292C12.5776 8.78472 12.6605 8.7824 13.3239 9.22224C13.7186 9.48395 14.2118 9.90831 14.4199 10.1653C14.7311 10.5495 14.9024 10.5676 15.3846 10.2674C15.707 10.0666 15.9708 10.0211 15.9708 10.1662C15.9708 10.8175 17.7279 10.2913 18.5761 9.38608C19.5619 8.33402 19.976 8.20242 20.2295 8.86079C20.3256 9.11043 20.0945 9.53034 19.6838 9.85239C19.1827 10.2454 19.0209 10.5996 19.1383 11.047C19.3394 11.8139 19.3681 11.8176 20.1229 11.1733C20.5224 10.8323 20.7199 10.2995 20.7199 9.56317C20.7199 8.95792 20.854 8.38012 21.0178 8.27915C21.4198 8.03144 21.3297 4.53928 20.9077 4.0152C20.7228 3.78545 20.5579 3.38595 20.5412 3.12744C20.4576 1.82857 20.4 1.62166 20.122 1.62166C19.9506 1.62166 19.8885 2.00375 19.9779 2.50943C20.0641 2.9977 20.0136 3.3972 19.8654 3.3972C19.4362 3.3972 19.2328 2.5624 19.6235 2.40396C19.86 2.30805 19.8391 2.25248 19.5608 2.23689C19.2374 2.21877 19.2631 2.08215 19.6754 1.62784C20.1599 1.09415 20.164 1.02567 19.7214 0.856376C19.4543 0.754191 19.0441 0.743935 18.8098 0.833591C18.5754 0.923241 18.33 0.837608 18.2644 0.643302C18.1757 0.380546 18.0186 0.39409 17.6516 0.696159C17.3802 0.919537 17.1581 0.976916 17.1581 0.823666C17.1581 0.670413 16.6238 0.548134 15.9708 0.551937C15.3178 0.555725 14.7835 0.681125 14.7835 0.830575C14.7835 0.980024 14.5832 0.936524 14.3383 0.733908C13.5267 0.0623411 13.871 -0.0686041 16.1934 0.0285178C20.4008 0.204441 20.6196 0.289632 20.8799 1.854C20.9805 2.45863 21.2862 3.3921 21.5592 3.9284C22.1341 5.05755 22.686 5.04024 24.4639 3.8374C25.0623 3.43255 25.6796 3.1013 25.8357 3.1013C26.4448 3.1013 27.7379 4.08219 28.2101 4.9024C28.4946 5.39665 28.9566 5.76461 29.2927 5.76461C30.0776 5.76461 30.8117 6.53927 30.8117 7.36744C30.8117 7.73749 31.0789 8.28128 31.4054 8.57587C31.7319 8.87046 31.999 9.27413 31.999 9.47293C31.999 9.67172 31.143 10.7353 30.0967 11.8364C28.7834 13.2185 28.0481 13.7825 27.7221 13.6578C27.4624 13.5585 27.2499 13.2733 27.2499 13.024C27.2499 12.7748 27.1164 12.5708 26.9531 12.5708C26.5425 12.5708 26.5789 12.7699 27.1479 13.6356C27.7916 14.6151 28.133 17.2725 27.7715 18.4893C27.6989 18.7335 27.5315 19.3327 27.3995 19.821C27.2674 20.3093 26.9127 21.0264 26.611 21.4145C26.3094 21.8027 26.0627 22.2381 26.0627 22.3822C26.0627 22.5262 25.7169 23.1901 25.2943 23.8575C24.7282 24.7516 24.5689 25.3148 24.6893 25.9971C24.7791 26.5064 24.7379 27.3892 24.5976 27.9589C24.3837 28.8271 24.3376 28.6237 24.3121 26.7012C24.2727 23.7304 23.8099 23.7162 23.7331 26.6835C23.6536 29.7543 23.3913 29.8513 23.3913 26.8098C23.3913 24.4315 23.3686 24.3552 22.3524 23.312L21.3136 22.2456L21.26 24.2885C21.2168 25.9407 21.1853 26.0625 21.0954 24.9257C21.0181 23.9483 20.8535 23.5201 20.5552 23.5201C20.3193 23.5201 20.1263 23.3203 20.1263 23.0762C20.1263 22.4914 19.5324 22.5283 18.7755 23.16C18.2837 23.5704 18.1912 23.9227 18.2937 24.9935C18.3636 25.7226 18.2446 27.4537 18.0294 28.8405L17.6381 31.362L17.2782 29.8824C17.0802 29.0686 16.9236 27.6704 16.9302 26.7752C16.9367 25.88 16.9933 25.4805 17.0559 25.8874C17.4661 28.5528 17.5185 28.7168 17.7663 28.1069C18.0537 27.3997 18.1093 25.4038 17.8669 24.5025C17.7655 24.1257 17.4766 23.8736 17.1723 23.8964C16.8072 23.9238 16.697 24.1097 16.804 24.5176C16.9218 24.9667 16.8441 25.0566 16.4637 24.911C15.4188 24.5112 15.0812 24.9846 15.0592 26.881C15.0476 27.8808 14.938 29.7641 14.8157 31.0662C14.6931 32.3713 14.7096 33.5122 14.8525 33.6087C14.995 33.7049 15.0888 33.9047 15.0609 34.0525C14.9128 34.8356 15.1568 35.0612 16.1522 35.0612C17.204 35.0612 17.2207 35.0429 17.0405 34.085C16.918 33.4342 17.0041 32.9165 17.299 32.5314C17.7128 31.9911 17.7296 32.0158 17.561 32.9157C17.4395 33.5636 17.4962 33.8775 17.7346 33.8775C17.9615 33.8775 18.016 34.1054 17.8863 34.5126C17.7148 35.0515 17.7792 35.123 18.3112 34.9843C18.6562 34.8944 19.0145 34.9436 19.1076 35.0938C19.2007 35.2439 19.4053 35.2876 19.5623 35.1909C19.7193 35.0941 20.2947 34.9736 20.8411 34.9229C21.6934 34.8439 21.8134 34.9111 21.6861 35.3961C21.5688 35.8434 21.4511 35.8896 21.1221 35.6174C20.7923 35.3445 20.742 35.3661 20.879 35.7221C20.974 35.9689 21.3803 36.1709 21.7818 36.1709C22.28 36.1709 22.4287 36.0651 22.25 35.8379C22.106 35.6548 21.9667 35.272 21.9406 34.9872C21.9144 34.7023 21.8676 34.2252 21.8365 33.9268C21.8054 33.6284 21.6063 33.3843 21.3941 33.3843C21.1471 33.3843 21.0687 33.6062 21.1762 34.0008C21.3067 34.4795 21.1934 34.4227 20.6691 33.7467C20.2977 33.2679 19.9694 32.4023 19.9394 31.8232C19.9095 31.2441 19.7947 30.1044 19.6842 29.2907C19.5651 28.413 19.6146 27.5101 19.8059 27.0712C20.0682 26.4696 20.0949 26.6353 19.9487 27.959C19.7306 29.9341 20.2896 29.6962 20.6938 27.6419L20.9517 26.3314L20.9842 27.5986C21.0021 28.2956 21.2294 29.3609 21.4893 29.966C21.7493 30.5711 22.162 31.7217 22.4065 32.5229C22.8918 34.1131 23.6024 35.3571 24.0254 35.3571C24.1734 35.3571 24.4449 35.0281 24.6286 34.626C24.9174 33.9941 24.8662 33.8128 24.2512 33.2901C23.8246 32.9274 23.718 32.7166 23.985 32.7635C24.4634 32.8476 24.4848 32.5573 24.1654 30.3264C24.0128 29.2611 24.0817 29.3791 24.5099 30.9162C24.8586 32.1682 25.2135 32.8701 25.5286 32.9305C25.7946 32.9816 26.0803 33.2005 26.1636 33.4169C26.2682 33.6885 26.1339 33.7632 25.7303 33.658C25.1569 33.5085 25.1559 33.5258 25.6783 34.5479C25.9714 35.1212 26.3117 35.5297 26.4345 35.4557C26.5574 35.3817 26.5021 35.0296 26.3117 34.6733C25.9987 34.0874 26.0128 34.0643 26.4593 34.4315C26.7309 34.6549 26.9531 35.0211 26.9531 35.2453C26.9531 35.4695 27.1444 35.653 27.3782 35.653C27.6119 35.653 28.0978 36.0655 28.4578 36.5696C29.0213 37.3585 29.1115 37.8682 29.105 40.2284C29.0995 42.2834 28.9732 43.1597 28.6012 43.7259C28.0775 44.5228 27.3641 44.9321 26.9469 44.675C26.8096 44.5904 26.6047 44.6708 26.4913 44.8536C26.3451 45.0895 26.2043 45.0695 26.0061 44.7844C25.8117 44.5047 25.784 44.5849 25.9148 45.0488C26.2069 46.0838 25.8269 46.8192 24.819 47.1695C23.8555 47.5043 13.1695 47.5364 8.61299 47.2181L8.61315 47.2174ZM10.4175 46.3057C10.3321 45.9802 10.211 45.7139 10.1484 45.7139C10.0859 45.7139 10.0347 45.9802 10.0347 46.3057C10.0347 46.6312 10.1557 46.8976 10.3037 46.8976C10.4517 46.8976 10.5029 46.6312 10.4175 46.3057ZM11.3915 46.355C11.3915 46.0567 11.2381 45.8125 11.0507 45.8125C10.8632 45.8125 10.7738 46.0567 10.8521 46.355C10.9303 46.6534 11.0837 46.8976 11.1929 46.8976C11.3022 46.8976 11.3915 46.6534 11.3915 46.355H11.3915ZM12.309 46.4721C12.2035 46.1982 12.3773 46.0018 12.7966 45.9206C13.3352 45.8163 13.3066 45.7875 12.6318 45.7542C12 45.723 11.8156 45.8476 11.8156 46.3057C11.8156 46.6312 11.9634 46.8976 12.1441 46.8976C12.3248 46.8976 12.399 46.7061 12.309 46.4721ZM13.2996 46.6016C13.2996 46.4389 13.1661 46.3057 13.0028 46.3057C12.8396 46.3057 12.706 46.4389 12.706 46.6016C12.706 46.7644 12.8396 46.8976 13.0028 46.8976C13.1661 46.8976 13.2996 46.7644 13.2996 46.6016ZM15.0806 46.5647C15.0806 46.4222 14.7466 46.3057 14.3385 46.3057C13.9304 46.3057 13.5965 46.4222 13.5965 46.5647C13.5965 46.7071 13.9304 46.8236 14.3385 46.8236C14.7466 46.8236 15.0806 46.7071 15.0806 46.5647ZM16.5646 46.6016C16.5646 46.4389 16.2975 46.3057 15.971 46.3057C15.6445 46.3057 15.3774 46.4389 15.3774 46.6016C15.3774 46.7644 15.6445 46.8976 15.971 46.8976C16.2975 46.8976 16.5646 46.7644 16.5646 46.6016ZM20.7201 46.562C20.7201 46.421 19.8519 46.3057 18.7908 46.3057C17.7297 46.3057 16.8615 46.4169 16.8615 46.5527C16.8615 46.6885 17.7297 46.8038 18.7908 46.8089C19.8519 46.814 20.7201 46.7029 20.7201 46.562ZM21.6106 46.6016C21.6106 46.4389 21.477 46.3057 21.3137 46.3057C21.1505 46.3057 21.0169 46.4389 21.0169 46.6016C21.0169 46.7644 21.1505 46.8976 21.3137 46.8976C21.477 46.8976 21.6106 46.7644 21.6106 46.6016ZM22.501 46.6016C22.501 46.4389 22.3675 46.3057 22.2042 46.3057C22.041 46.3057 21.9074 46.4389 21.9074 46.6016C21.9074 46.7644 22.041 46.8976 22.2042 46.8976C22.3675 46.8976 22.501 46.7644 22.501 46.6016ZM23.6883 46.6016C23.6883 46.4389 23.5547 46.3057 23.3915 46.3057C23.2282 46.3057 23.0947 46.4389 23.0947 46.6016C23.0947 46.7644 23.2282 46.8976 23.3915 46.8976C23.5547 46.8976 23.6883 46.7644 23.6883 46.6016ZM16.9357 45.7931C15.6328 45.7176 15.0806 45.5671 15.0806 45.2875C15.0806 44.8521 14.355 44.4644 14.0707 44.7478C13.7327 45.0848 13.8957 45.4181 14.4127 45.4474C14.7495 45.4665 14.6712 45.5543 14.1901 45.6971C13.7395 45.8307 14.4974 45.9139 16.1194 45.9089C18.0569 45.9028 18.2811 45.871 16.9357 45.7931ZM19.7493 45.831C19.6506 45.7327 19.3946 45.7222 19.1804 45.8077C18.9436 45.9021 19.0139 45.9722 19.3597 45.9864C19.6726 45.9993 19.8479 45.9294 19.7493 45.831L19.7493 45.831ZM21.6848 45.8138C21.4807 45.7317 21.1468 45.7317 20.9427 45.8138C20.7387 45.8959 20.9056 45.9631 21.3137 45.9631C21.7219 45.9631 21.8888 45.8959 21.6848 45.8138ZM11.2264 45.048C11.2293 44.819 11.3139 44.7908 11.449 44.9741C11.8263 45.4861 13.5026 45.4965 13.6983 44.988C13.8441 44.6092 13.5943 44.5302 12.2514 44.5302C11.0064 44.5302 10.6282 44.6336 10.6282 44.9741C10.6282 45.2182 10.7618 45.418 10.925 45.418C11.0883 45.418 11.2239 45.2515 11.2264 45.048ZM15.971 45.122C15.971 44.9593 15.8374 44.8261 15.6742 44.8261C15.5109 44.8261 15.3774 44.9593 15.3774 45.122C15.3774 45.2848 15.5109 45.418 15.6742 45.418C15.8374 45.418 15.971 45.2848 15.971 45.122ZM16.8615 45.122C16.8615 44.9593 16.7279 44.8261 16.5646 44.8261C16.4014 44.8261 16.2678 44.9593 16.2678 45.122C16.2678 45.2848 16.4014 45.418 16.5646 45.418C16.7279 45.418 16.8615 45.2848 16.8615 45.122ZM19.408 44.9285C19.2976 44.6419 19.5433 44.5302 20.2842 44.5302C20.9075 44.5302 21.3155 44.3842 21.3183 44.1603C21.3218 43.8753 21.3789 43.8786 21.5671 44.1743C21.7622 44.4809 21.8881 44.466 22.1925 44.1003C22.6936 43.4983 23.0946 43.5184 23.0946 44.1455C23.0946 44.7769 23.5752 44.316 23.7734 43.4944C23.9119 42.9203 23.9172 42.921 23.9506 43.5159C23.9798 44.0357 24.1859 44.1325 25.3012 44.1501C26.6574 44.1714 27.3153 43.5891 26.6662 42.9419C26.4553 42.7317 26.3582 42.8626 26.3551 43.3613C26.3518 43.8865 26.2795 43.9745 26.0927 43.6805C25.8065 43.2301 26.6313 41.5205 27.0195 41.7597C27.1463 41.8378 27.2501 42.3013 27.2501 42.7896C27.2501 43.7985 27.8268 43.6815 27.8733 42.6632C27.9005 42.0669 27.9197 42.0742 28.1127 42.7546L28.3225 43.4944L28.5243 42.7546C28.8031 41.7325 28.7472 38.5907 28.4374 37.8719C28.2568 37.4529 28.1609 37.885 28.109 39.3515L28.0357 41.423L27.8437 39.3515C27.7381 38.2122 27.6261 37.4798 27.5948 37.7239C27.5441 38.1185 27.5058 38.1185 27.2501 37.7239C27.0476 37.4116 26.9583 37.8499 26.9488 39.2036C26.9385 40.6562 26.8611 41.0003 26.6327 40.6092C26.4489 40.2946 25.9738 40.0913 25.4222 40.0913C24.602 40.0913 24.5323 40.0199 24.7006 39.3515C24.8532 38.7453 24.7786 38.6117 24.2875 38.6117C23.9579 38.6117 23.6883 38.7306 23.6883 38.876C23.6883 39.0213 23.462 39.2268 23.1855 39.3326C22.7337 39.5054 22.7367 39.4655 23.2146 38.939C23.5071 38.6167 23.6519 38.2005 23.5363 38.0141C23.4207 37.8276 23.7415 37.8892 24.2492 38.151C24.8093 38.4397 25.1724 38.8567 25.1724 39.2112C25.1724 39.8403 26.0378 40.0401 26.1007 39.4255C26.1215 39.222 26.1709 38.7384 26.2105 38.3508C26.2686 37.781 26.064 37.5605 25.142 37.1995C23.9132 36.7182 23.823 36.2755 24.9796 36.4021C25.5537 36.4649 25.6918 36.3435 25.6918 35.7759C25.6918 34.8872 25.0219 34.2536 24.7711 34.9051C24.6756 35.1534 24.7267 35.3566 24.8849 35.3566C25.043 35.3566 25.1724 35.5726 25.1724 35.8367C25.1724 36.1672 25.0567 36.2328 24.8013 36.0474C24.2648 35.6579 22.7978 35.5571 22.7978 35.9098C22.7978 36.3835 23.3249 36.583 23.4911 36.1722C23.5738 35.9677 23.6414 36.2 23.6414 36.6882C23.6414 37.1765 23.5722 37.404 23.4876 37.1938C23.3701 36.9018 23.2361 36.8922 22.9209 37.1531C22.5971 37.421 22.4622 37.3757 22.2956 36.9435C22.1063 36.4526 22.0605 36.4732 21.8764 37.1321C21.6802 37.8344 21.6682 37.8382 21.6401 37.2061C21.6177 36.701 21.4314 36.5403 20.8685 36.5403C20.4604 36.5403 20.1264 36.5831 20.1264 36.6354C20.1264 37.0218 21.2686 38.9517 21.4857 38.9322C21.636 38.9187 21.7756 39.0408 21.796 39.2036C21.8165 39.3663 21.8632 39.5661 21.8999 39.6475C21.9367 39.7288 21.9797 40.1616 21.9955 40.6092C22.0113 41.0568 22.3319 41.7545 22.7079 42.1598C23.4414 42.9504 23.5705 43.3465 23.0946 43.3465C22.9314 43.3465 22.7978 43.1947 22.7978 43.0092C22.7978 42.8237 22.5801 42.5132 22.3139 42.3192C22.0478 42.1252 21.7329 41.4447 21.6142 40.807L21.3982 39.6475L21.1643 40.9379C21.0046 41.8196 20.5831 42.5925 19.8341 43.3775C19.231 44.0095 18.7888 44.5775 18.8512 44.6398C18.9137 44.7021 18.7517 44.8345 18.4913 44.9341C18.2309 45.0337 18.0918 44.996 18.1821 44.8503C18.2724 44.7046 18.079 44.6551 17.7523 44.7403C16.7527 45.0009 17.0903 45.3269 18.3597 45.3269C19.2448 45.3269 19.5209 45.222 19.4079 44.9285L19.408 44.9285ZM25.2924 42.8004C25.4314 42.5761 25.2432 42.4587 24.7446 42.4587C23.9462 42.4587 23.7833 42.0192 24.3059 41.2751C24.5499 40.9276 24.5768 40.9758 24.4297 41.497C24.27 42.0632 24.3559 42.1628 25.0039 42.1628C25.7965 42.1628 26.0164 42.5654 25.4233 42.9309C25.211 43.0617 25.1612 43.0121 25.2924 42.8004H25.2924ZM22.3525 38.0198C22.4534 37.857 22.5949 37.7238 22.6669 37.7238C22.7389 37.7238 22.7978 37.857 22.7978 38.0198C22.7978 38.1825 22.6563 38.3157 22.4834 38.3157C22.3106 38.3157 22.2517 38.1825 22.3525 38.0198ZM21.0169 45.0589C21.0169 44.9307 20.7497 44.8259 20.4232 44.8259C20.0967 44.8259 19.8296 44.9508 19.8296 45.1034C19.8296 45.2561 20.0967 45.3609 20.4232 45.3364C20.7497 45.3119 21.0169 45.187 21.0169 45.0589ZM22.501 45.1218C22.501 44.9591 22.3674 44.8259 22.2041 44.8259C22.0409 44.8259 21.9073 44.9591 21.9073 45.1218C21.9073 45.2846 22.0409 45.4178 22.2041 45.4178C22.3674 45.4178 22.501 45.2846 22.501 45.1218ZM25.4377 44.9559C25.5094 44.8844 25.0704 44.8259 24.4622 44.8259C23.854 44.8259 23.4332 44.9499 23.5271 45.1014C23.6861 45.3578 25.1461 45.2466 25.4377 44.9559ZM8.63778 44.3221C9.16113 44.3215 9.35555 44.3776 9.06986 44.4471C8.35786 44.6202 8.413 45.1218 9.14407 45.1218C9.47057 45.1218 9.73771 44.9384 9.73771 44.7142C9.73771 44.49 9.95992 44.1238 10.2315 43.9004C10.6779 43.5333 10.6922 43.5563 10.3799 44.1406C9.87685 45.0821 9.95732 45.3634 10.5062 44.5821C10.9815 43.9056 10.8697 42.8666 10.3557 43.1833C10.2035 43.2771 9.76845 43.236 9.38891 43.092C6.82036 42.1174 6.04495 42.0848 5.04675 42.9091C4.99714 42.9501 5.23038 43.4314 5.56508 43.9787C5.89978 44.5261 6.17615 44.7741 6.17926 44.53C6.18428 44.1354 6.21688 44.1354 6.47264 44.53C6.66446 44.8259 6.76189 44.8506 6.76492 44.604C6.76729 44.4005 6.90303 44.2341 7.06628 44.2341C7.22953 44.2341 7.34728 44.3339 7.32795 44.456C7.24922 44.9531 7.44108 45.2358 7.55907 44.7966C7.64194 44.4881 8.01736 44.3229 8.63771 44.3221H8.63778ZM5.31668 44.5705C5.4835 44.833 5.57461 44.8521 5.57757 44.6251C5.57995 44.4333 5.39617 44.091 5.16891 43.8644C4.94165 43.6378 4.69 43.1955 4.60971 42.8815C4.48008 42.3746 4.45986 42.3833 4.42929 42.9589C4.41035 43.3155 4.52259 43.686 4.67871 43.7822C4.83483 43.8784 4.9235 44.1193 4.87576 44.3175C4.82802 44.5158 4.85003 44.563 4.92466 44.4225C4.99929 44.2821 5.17571 44.3486 5.3167 44.5705H5.31668ZM18.6723 43.8583C21.5135 41.966 21.2627 37.5666 18.232 36.1326C15.2196 34.7074 11.8136 36.7928 11.8162 40.061C11.8192 43.6058 15.7678 45.793 18.6721 43.8583H18.6723ZM14.2613 43.6438C12.1816 42.3797 11.5265 39.869 12.7859 37.9893C13.6974 36.6289 15.213 35.8789 16.6872 36.0589C20.767 36.5568 21.694 41.8519 18.0275 43.7156C16.695 44.393 15.4553 44.3693 14.2615 43.6437L14.2613 43.6438ZM17.572 43.654C19.9509 42.7523 20.748 39.7088 19.1342 37.6903C18.2265 36.5549 16.2453 36.0449 14.8193 36.5796C13.0277 37.2513 12.051 39.445 12.6875 41.3679C13.3607 43.4015 15.5434 44.4233 17.572 43.6542L17.572 43.654ZM15.4881 40.5448C15.3962 40.306 15.3899 39.9398 15.474 39.731C15.5582 39.5222 15.6375 39.6509 15.6504 40.0171C15.6635 40.3888 15.8628 40.683 16.1016 40.683C16.807 40.683 16.9902 40.0293 16.4045 39.6023C16.1035 39.3829 16 39.2033 16.1744 39.2033C16.3489 39.2033 16.6579 39.4031 16.8611 39.6472C17.1559 40.0014 17.1559 40.1809 16.8611 40.535C16.3902 41.1008 15.704 41.1057 15.4882 40.5448L15.4881 40.5448ZM15.9707 40.0911C15.9707 39.9284 16.1043 39.7952 16.2675 39.7952C16.4308 39.7952 16.5643 39.9284 16.5643 40.0911C16.5643 40.2539 16.4308 40.387 16.2675 40.387C16.1043 40.387 15.9707 40.2539 15.9707 40.0911ZM2.98962 37.389C2.86462 37.2649 2.74325 38.1883 2.71991 39.441L2.67747 41.7187L2.94719 39.6667C3.09553 38.5381 3.11463 37.5131 2.98962 37.389ZM26.6562 36.2441C26.6562 36.0814 26.5147 35.9482 26.3418 35.9482C26.1689 35.9482 26.11 36.0814 26.2109 36.2441C26.3118 36.4069 26.4533 36.54 26.5253 36.54C26.5973 36.54 26.6562 36.4069 26.6562 36.2441ZM9.26081 35.7755C9.37174 35.4873 9.3054 35.352 9.0885 35.4241C8.64482 35.5715 8.4005 36.2441 8.79064 36.2441C8.95003 36.2441 9.1616 36.0332 9.2608 35.7755H9.26081ZM10.2756 35.6708C10.3498 35.4488 10.2385 35.3378 10.0159 35.4118C9.80158 35.483 9.56783 35.7161 9.49642 35.9297C9.42221 36.1516 9.53352 36.2626 9.75613 36.1886C9.9704 36.1174 10.2042 35.8844 10.2756 35.6708ZM20.4333 35.8124C20.1026 35.4151 19.0775 35.4031 18.7225 35.7923C18.5968 35.9302 18.6608 35.9473 18.8649 35.8302C19.069 35.7131 19.2359 35.7417 19.2359 35.8937C19.2359 36.0457 19.5724 36.1701 19.9835 36.1701C20.5344 36.1701 20.6528 36.076 20.4333 35.8124H20.4333ZM22.7037 34.709C22.6089 34.4729 22.5386 34.5431 22.5244 34.8878C22.5115 35.1998 22.5816 35.3745 22.6803 35.2762C22.7789 35.1779 22.7894 34.9226 22.7037 34.709L22.7037 34.709ZM11.0892 34.7898C10.9969 34.6409 11.0892 34.4517 11.2943 34.3693C11.6174 34.2394 10.8487 34.0547 10.2877 34.1275C10.182 34.1412 10.1603 33.9057 10.2394 33.6041C10.3185 33.3025 10.2153 32.9523 10.0101 32.8259C9.74728 32.6639 9.69301 32.7416 9.82648 33.0884C9.95024 33.4099 9.86473 33.5808 9.5801 33.5808C9.34035 33.5808 9.1442 33.7805 9.1442 34.0247C9.1442 34.2713 9.40803 34.4686 9.73783 34.4686C10.0643 34.4686 10.3315 34.6017 10.3315 34.7645C10.3315 34.9272 10.5397 35.0604 10.7942 35.0604C11.0487 35.0604 11.1814 34.9386 11.0892 34.7898ZM21.1783 31.3967C20.8658 29.048 20.5042 29.0311 20.4224 31.3614C20.354 33.3116 20.3493 33.2946 20.9009 33.0836C21.2919 32.934 21.3422 32.6282 21.1783 31.3967V31.3967ZM21.8071 31.4354C21.7248 31.232 21.6574 31.3984 21.6574 31.8053C21.6574 32.2122 21.7248 32.3787 21.8071 32.1752C21.8895 31.9718 21.8895 31.6388 21.8071 31.4354ZM24.6897 22.8815C24.6283 22.7747 24.2886 22.7628 23.9347 22.855C23.3971 22.9952 23.3268 22.9299 23.5074 22.4573C23.6761 22.0157 23.6448 21.9698 23.3641 22.2475C23.0831 22.5254 23.1603 22.7644 23.7175 23.3423C24.3458 23.994 24.4523 24.022 24.6158 23.5786C24.7178 23.302 24.7511 22.9882 24.6897 22.8814V22.8815ZM16.2678 23.3541C16.2678 23.1003 16.1342 22.975 15.971 23.0756C15.8077 23.1762 15.6741 23.3838 15.6741 23.537C15.6741 23.6901 15.8077 23.8154 15.971 23.8154C16.1342 23.8154 16.2678 23.6078 16.2678 23.3541V23.3541ZM17.2468 22.9374C17.053 22.1986 16.2678 21.4903 16.2678 22.0543C16.2678 22.3773 17.0919 23.5195 17.3249 23.5195C17.3659 23.5195 17.3308 23.2575 17.2468 22.9374L17.2468 22.9374ZM7.9611 22.3385C7.6867 22.1694 7.69234 21.9802 7.98576 21.5117C8.29624 21.0161 8.29457 20.8181 7.97677 20.4364C7.76254 20.179 7.44935 19.9684 7.28079 19.9684C7.11222 19.9684 7.19566 20.2123 7.46619 20.5103C8.00296 21.1017 7.84878 21.5017 7.18234 21.2468C6.87472 21.1291 6.81906 21.2332 6.97378 21.6371C7.26889 22.4074 7.76174 22.8938 8.06266 22.7117C8.20253 22.627 8.15682 22.4591 7.96109 22.3385L7.9611 22.3385ZM14.1898 21.6874C14.1898 21.3094 13.6616 21.4088 13.496 21.8179C13.4038 22.0457 13.3372 21.9956 13.3228 21.6874C13.3099 21.4122 13.433 21.1047 13.5962 21.0042C13.7595 20.9036 13.893 20.6674 13.893 20.4794C13.893 20.276 13.7002 20.3298 13.417 20.6121C13.0664 20.9616 12.9978 21.3443 13.1564 22.0644C13.3581 22.9802 13.3977 23.0068 13.7808 22.4845C14.0058 22.1777 14.1898 21.8191 14.1898 21.6874L14.1898 21.6874ZM18.0485 22.0224C18.0485 21.8693 17.9149 21.744 17.7517 21.744C17.5884 21.744 17.4548 21.9516 17.4548 22.2053C17.4548 22.459 17.5884 22.5843 17.7517 22.4838C17.9149 22.3832 18.0485 22.1755 18.0485 22.0224V22.0224ZM12.4045 21.3566C12.4068 21.2249 12.2754 21.1995 12.1122 21.3001C11.9489 21.4007 11.8174 21.7082 11.8199 21.9834C11.8238 22.4146 11.8642 22.4224 12.1122 22.0399C12.2704 21.7957 12.402 21.4883 12.4045 21.3566V21.3566ZM19.063 21.339C18.7054 20.1556 18.3139 20.0718 18.3897 21.195C18.4409 21.9523 18.58 22.2275 18.858 22.1211C19.1081 22.0255 19.1835 21.7377 19.063 21.339L19.063 21.339ZM25.4775 21.448C25.8303 20.7713 25.8211 20.7428 25.3693 21.1143C25.0977 21.3377 24.8755 21.7261 24.8755 21.9775C24.8755 22.5148 24.9604 22.4401 25.4776 21.448H25.4775ZM9.14421 21.448C9.14421 21.1225 9.01065 20.8562 8.84739 20.8562C8.68414 20.8562 8.55058 21.1225 8.55058 21.448C8.55058 21.7736 8.68414 22.0399 8.84739 22.0399C9.01065 22.0399 9.14421 21.7736 9.14421 21.448ZM11.5188 21.4306C11.5188 21.2774 11.3852 21.1521 11.2219 21.1521C11.0587 21.1521 10.9251 21.3597 10.9251 21.6135C10.9251 21.8672 11.0587 21.9925 11.2219 21.8919C11.3852 21.7913 11.5188 21.5837 11.5188 21.4306ZM16.1937 20.633C16.3977 20.5659 16.5647 20.7218 16.5647 20.9795C16.5647 21.2372 16.765 21.448 17.0099 21.448C17.2548 21.448 17.4551 21.3196 17.4551 21.1625C17.4551 20.8297 16.4847 20.2643 15.9135 20.2643C15.4071 20.2643 14.7049 21.3773 14.9559 21.7822C15.0675 21.9622 15.2895 21.8119 15.4854 21.4236C15.6709 21.0558 15.9896 20.7001 16.1937 20.6329V20.633ZM20.9229 21.3926C20.8281 21.1565 20.7578 21.2266 20.7435 21.5714C20.7307 21.8833 20.8008 22.0581 20.8994 21.9598C20.9981 21.8614 21.0086 21.6062 20.9228 21.3926L20.9229 21.3926ZM22.2042 21.331C22.2042 21.1387 22.4713 20.459 22.7978 19.8205C23.1243 19.182 23.3915 18.4801 23.3915 18.2608C23.3915 18.0415 23.512 17.9363 23.6594 18.0271C23.9468 18.2042 24.684 16.4236 24.4286 16.169C24.1865 15.9276 23.4258 17.1175 23.6098 17.4498C23.7008 17.6143 23.5955 17.5825 23.3757 17.3791C22.7575 16.8071 21.893 16.9068 22.0931 17.527C22.231 17.9544 22.2062 17.9688 21.9515 17.6096C21.7817 17.3702 21.5552 17.2617 21.448 17.3685C21.3409 17.4753 21.4672 17.8673 21.7287 18.2396C21.9902 18.6118 22.2042 18.7457 22.2042 18.5371C22.2042 18.3286 22.3199 18.2292 22.4612 18.3163C22.7828 18.5144 22.5262 19.9684 22.1696 19.9684C22.0254 19.9684 21.9074 20.2268 21.9074 20.5428C21.9074 20.8587 21.7738 21.1994 21.6106 21.3C21.1429 21.5882 21.2646 22.0401 21.759 21.8509C22.0039 21.7572 22.2042 21.5232 22.2042 21.3309L22.2042 21.331ZM23.3717 20.7082C23.3874 20.871 23.5771 20.6712 23.7933 20.2644C24.2067 19.486 24.1386 18.9512 23.6633 19.244C23.3382 19.4443 22.4946 21.3608 22.5144 21.8541C22.5218 22.0377 22.7113 21.7884 22.9355 21.3001C23.1598 20.8118 23.3561 20.5455 23.3718 20.7083L23.3717 20.7082ZM6.30378 20.994C6.77008 20.2845 6.76394 20.2025 6.18951 19.4745C5.7655 18.937 5.58234 18.8456 5.58234 19.1712C5.58234 19.4277 5.71591 19.7199 5.87916 19.8205C6.40595 20.1451 6.1942 20.6059 5.60408 20.4192C5.08628 20.2553 5.06521 20.3092 5.38147 20.9888C5.57357 21.4016 5.74878 21.7403 5.77081 21.7416C5.79286 21.7428 6.03267 21.4064 6.30377 20.9939L6.30378 20.994ZM20.3059 20.9363C20.0042 20.6355 19.7552 21.0884 20.0028 21.4878C20.1898 21.7894 20.2597 21.7897 20.3602 21.4889C20.429 21.2833 20.4045 21.0347 20.3059 20.9363H20.3059ZM24.865 20.1541C24.8708 20.0121 24.6752 20.0617 24.4303 20.2643C24.1854 20.467 23.9898 20.9161 23.9956 21.2623C24.0055 21.8554 24.0307 21.8489 24.4303 21.1521C24.6636 20.7452 24.8592 20.2961 24.865 20.1541V20.1541ZM11.4536 20.3112C11.5947 19.8892 11.0309 19.8543 10.7737 20.2692C10.6711 20.4346 10.4629 20.4933 10.3109 20.3997C10.159 20.306 10.0346 20.3696 10.0346 20.5409C10.0346 20.9554 11.3071 20.7494 11.4536 20.3112ZM12.321 19.5252C12.3048 18.9552 12.1987 18.4888 12.0853 18.4888C11.749 18.4888 11.4598 19.5049 11.7671 19.6071C11.9223 19.6587 11.9757 19.9817 11.8857 20.3248C11.7818 20.7207 11.8369 20.878 12.0363 20.7551C12.2091 20.6487 12.3372 20.0952 12.321 19.5252ZM21.6105 20.4123C21.6105 20.1682 21.4812 19.9684 21.323 19.9684C21.1649 19.9684 21.1124 20.1682 21.2064 20.4123C21.3003 20.6564 21.4297 20.8562 21.4939 20.8562C21.558 20.8562 21.6105 20.6564 21.6105 20.4123ZM9.44097 20.2818C9.44097 20.1287 9.30741 19.9211 9.14415 19.8205C8.9809 19.7199 8.84734 19.8452 8.84734 20.0989C8.84734 20.3527 8.9809 20.5603 9.14415 20.5603C9.30741 20.5603 9.44097 20.435 9.44097 20.2818V20.2818ZM15.5658 19.8052C16.3574 18.9537 16.4295 18.7519 15.9039 18.8587C15.5353 18.9337 14.4868 20.063 14.4868 20.385C14.4868 20.7499 14.8881 20.5343 15.5658 19.8052ZM19.499 20.1904C19.4661 19.9869 19.5439 19.5807 19.6719 19.2875C19.8342 18.9159 19.7017 18.5392 19.2341 18.0429C18.8653 17.6515 18.4811 17.3412 18.3803 17.3532C17.6466 17.4411 17.4469 17.2888 17.8008 16.9112C18.1053 16.5862 18.2821 16.638 18.8112 17.2071C19.4993 17.9473 19.8296 18.0751 19.8296 17.601C19.8296 17.2 18.555 15.9531 18.2489 16.0549C18.1142 16.0996 18.089 15.8692 18.1929 15.5427C18.4013 14.8882 17.5499 13.4828 16.9356 13.4674C16.3792 13.4535 16.4884 13.9907 17.1582 14.5625C17.4847 14.8412 17.7519 15.2468 17.7519 15.4639C17.7519 15.6809 17.4222 15.4848 17.0192 15.0282C16.6162 14.5715 16.2823 14.3644 16.2772 14.5678C16.272 14.7713 16.1094 14.9377 15.9159 14.9377C15.3561 14.9377 14.1901 16.1722 14.1901 16.7648C14.1901 17.062 14.3236 17.3051 14.4869 17.3051C14.6501 17.3051 14.7837 17.1207 14.7837 16.8952C14.7837 16.6698 15.1073 16.274 15.5029 16.0156C16.1704 15.5795 16.2717 15.587 16.9128 16.1197C17.2926 16.4353 17.4632 16.698 17.2918 16.7034C17.1204 16.7088 16.8199 16.5535 16.624 16.3582C16.3469 16.082 16.2678 16.1477 16.2678 16.6541C16.2678 17.0416 16.4519 17.3051 16.7226 17.3051C16.9727 17.3051 17.2846 17.5942 17.4157 17.9476C17.5737 18.3732 17.7266 18.4731 17.8689 18.2435C17.9871 18.0529 18.2173 17.8969 18.3805 17.8969C18.5438 17.8969 18.5948 18.0301 18.4939 18.1929C18.393 18.3556 18.4376 18.4888 18.593 18.4888C18.7485 18.4888 18.9598 18.7074 19.0626 18.9745C19.2189 19.3807 19.1755 19.399 18.7975 19.0862C18.1329 18.5363 18.1906 19.3183 18.8649 20C19.4982 20.6401 19.5755 20.6633 19.499 20.1903V20.1904ZM20.72 20.1164C20.72 19.8723 20.5033 19.6725 20.2385 19.6725C19.8441 19.6725 19.8238 19.7528 20.1264 20.1164C20.3297 20.3605 20.5464 20.5603 20.608 20.5603C20.6696 20.5603 20.72 20.3605 20.72 20.1164ZM26.5208 20.2848C26.4268 20.1333 26.4858 19.9257 26.6517 19.8235C26.8176 19.7212 26.9533 19.4294 26.9533 19.1749C26.9533 18.7973 26.8716 18.7799 26.5081 19.0807C25.9991 19.5019 25.9054 20.5603 26.3772 20.5603C26.5501 20.5603 26.6147 20.4363 26.5208 20.2848V20.2848ZM13.8932 19.3087C13.8932 18.8121 13.8187 18.7739 13.448 19.0807C13.2031 19.2833 13.0028 19.6283 13.0028 19.8474C13.0028 20.08 13.1881 20.1749 13.448 20.0755C13.6929 19.9818 13.8932 19.6367 13.8932 19.3087ZM18.0487 19.3168C18.0487 19.0057 15.6759 16.7133 15.3538 16.7133C15.2035 16.7133 15.0805 16.913 15.0805 17.1572C15.0805 17.4013 14.9469 17.6011 14.7837 17.6011C14.6204 17.6011 14.4869 17.934 14.4869 18.3409C14.4869 18.7478 14.6204 19.0807 14.7837 19.0807C14.9469 19.0807 15.0805 18.9075 15.0805 18.696C15.0805 17.775 15.7111 17.694 16.5801 18.5033C17.4743 19.3361 17.8211 20.0478 17.0026 19.3707C16.4223 18.8905 16.0684 19.2244 16.5476 19.8001C16.84 20.1513 17.0244 20.1679 17.4804 19.884C17.7929 19.6894 18.0487 19.4342 18.0487 19.3169V19.3168ZM9.14413 18.8602C9.14413 18.4992 9.061 18.4851 8.6989 18.7847C8.45402 18.9874 8.25367 19.0481 8.25367 18.9196C8.25367 18.7912 8.18374 18.7558 8.09827 18.841C8.01281 18.9262 8.02841 19.2181 8.13294 19.4897C8.28042 19.8729 8.41498 19.9074 8.73355 19.6438C8.95936 19.457 9.14411 19.1044 9.14411 18.8603L9.14413 18.8602ZM26.0325 18.4888C26.0413 18.1462 25.9492 18.1697 25.6285 18.5916C25.4001 18.8922 25.2941 19.3486 25.3931 19.6057C25.5462 20.0034 25.6064 19.9881 25.797 19.5029C25.9203 19.1893 26.0262 18.733 26.0325 18.4888ZM4.90259 19.0807C4.81721 18.7551 4.83502 18.4878 4.94218 18.4865C5.04933 18.4853 5.30189 18.1302 5.5034 17.6975C5.77263 17.1194 5.78267 16.8061 5.54126 16.5161C5.28954 16.2137 5.32969 16.1214 5.71296 16.1214C6.01598 16.1214 6.18784 15.9173 6.14892 15.6036C6.11357 15.3187 6.1869 14.851 6.31188 14.5641C6.4435 14.2619 6.3895 13.8627 6.18354 13.6153C5.98797 13.3804 5.90842 13.0583 6.00676 12.8997C6.1051 12.741 6.03487 12.5184 5.85072 12.4049C5.27148 12.048 4.98015 12.9573 5.44646 13.6668C6.00427 14.5156 5.99874 14.8133 5.43384 14.3459C5.07035 14.0452 4.98861 14.0625 4.98861 14.4402C4.98861 14.6947 5.12218 14.9851 5.28543 15.0857C5.44868 15.1863 5.58225 15.4103 5.58225 15.5833C5.58225 15.7796 5.41194 15.7571 5.12984 15.5237C4.43863 14.9518 4.25212 15.4162 4.8237 16.2859C5.10373 16.712 5.24812 17.1451 5.14459 17.2483C5.04105 17.3515 4.83729 17.2439 4.69179 17.0092C4.54629 16.7745 4.33175 16.6777 4.21504 16.7941C4.09833 16.9104 4.24534 17.2728 4.54172 17.5993C5.02696 18.1338 4.9586 18.3284 4.32075 18.228C3.99025 18.176 4.05111 18.7209 4.3998 18.9357C4.56571 19.038 4.62462 19.2456 4.53069 19.3971C4.43677 19.5486 4.51695 19.6726 4.70888 19.6726C4.9117 19.6726 4.99282 19.4247 4.90259 19.0807L4.90259 19.0807ZM7.27723 18.785C7.19189 18.4597 7.24853 18.1156 7.4031 18.0203C7.55766 17.9251 7.6029 17.592 7.50364 17.2802C7.39565 16.941 7.46333 16.7133 7.67215 16.7133C7.8962 16.7133 7.95446 16.4484 7.8349 15.9735C7.72751 15.5469 7.77671 15.2337 7.95114 15.2337C8.39061 15.2337 8.32332 14.0535 7.88259 14.0312C7.67852 14.0209 7.82605 13.8869 8.21042 13.7334C8.65785 13.5547 8.84808 13.2953 8.73917 13.0124C8.64561 12.7693 8.68915 12.5704 8.83592 12.5704C8.98269 12.5704 9.14547 12.2988 9.19762 11.9668C9.30205 11.3022 9.80203 11.1352 9.9914 11.7016C10.0671 11.9281 9.97157 11.9747 9.73292 11.8276C9.44424 11.6497 9.40197 11.7981 9.55502 12.4522C9.70205 13.0807 9.67514 13.1914 9.45444 12.8663C9.22137 12.5229 9.15213 12.6441 9.1486 13.4016C9.14593 13.9781 9.02199 14.3056 8.84724 14.198C8.68399 14.0974 8.55042 14.2148 8.55042 14.4589C8.55042 14.7031 8.70115 14.9957 8.88535 15.1092C9.11378 15.25 9.0646 15.4024 8.7307 15.5888C8.46143 15.739 8.33572 16.0146 8.45139 16.2011C8.56703 16.3877 8.6899 16.8789 8.72441 17.2926C8.75893 17.7064 8.72293 17.8785 8.64406 17.675C8.40738 17.0633 8.00023 17.2589 8.16924 17.9032C8.4455 18.9564 9.04865 18.0163 9.23182 16.2469C9.32553 15.3416 9.56085 14.4104 9.7547 14.1775C9.94857 13.9446 10.0309 13.7541 9.93758 13.7541C9.8443 13.7541 9.9615 13.2923 10.1981 12.7278C10.8553 11.1595 10.7559 10.5397 9.8119 10.3214C9.36296 10.2175 8.68402 9.93833 8.30314 9.70095C7.67997 9.31255 7.57035 9.32347 7.20841 9.81014C6.82103 10.331 6.78999 10.3291 6.36688 9.75956C6.12525 9.43431 5.82708 9.26835 5.70426 9.3908C5.58143 9.51325 5.79415 9.94584 6.17697 10.3521C6.85953 11.0764 6.63781 11.4329 5.93841 10.7356C5.66139 10.4594 5.58223 10.5171 5.58223 10.9953C5.58223 11.3334 5.7856 11.7784 6.03417 11.984C6.29506 12.1999 6.41208 12.5905 6.31099 12.908C6.09872 13.5748 6.63618 13.6431 6.99966 12.9955C7.23125 12.5829 7.30506 12.5891 7.68225 13.0523C7.91487 13.338 7.96525 13.4883 7.7942 13.3865C7.62316 13.2846 7.29453 13.3175 7.06397 13.4595C6.71488 13.6747 6.74207 13.8283 7.22655 14.378C7.72734 14.9461 7.73734 15.0123 7.29846 14.8528C6.61981 14.6063 6.25537 15.2368 6.87626 15.5832C7.59269 15.9829 7.4775 16.4934 6.72462 16.2551C6.25239 16.1057 6.12903 16.1583 6.25093 16.4571C6.84009 17.9013 6.84041 17.9055 6.35736 17.7207C5.72507 17.4788 5.74766 18.0493 6.39851 18.76C7.08389 19.5085 7.46988 19.5194 7.27724 18.785L7.27723 18.785ZM7.81049 11.9818C7.7065 11.814 7.82566 11.7644 8.08979 11.8655C8.604 12.0622 8.69809 12.2743 8.27114 12.2743C8.11752 12.2743 7.91024 12.1427 7.81051 11.9818L7.81049 11.9818ZM6.99371 11.2386C7.07172 10.8317 7.18677 10.4988 7.24936 10.4988C7.31196 10.4988 7.36317 10.8317 7.36317 11.2386C7.36317 11.6455 7.24813 11.9784 7.10751 11.9784C6.9669 11.9784 6.91569 11.6455 6.99371 11.2386ZM8.08356 10.949C7.58138 10.5702 7.57283 10.5164 8.01351 10.5082C8.28956 10.503 8.60346 10.6408 8.71106 10.8144C9.03438 11.3359 8.69355 11.4091 8.08356 10.949L8.08356 10.949ZM10.0346 19.0807C10.0346 18.9179 9.90098 18.7847 9.73773 18.7847C9.57448 18.7847 9.44091 18.9179 9.44091 19.0807C9.44091 19.2434 9.57448 19.3766 9.73773 19.3766C9.90098 19.3766 10.0346 19.2434 10.0346 19.0807ZM11.1538 18.8402C11.3319 18.3076 10.7184 18.4195 10.5113 18.9574C10.4004 19.2456 10.4667 19.3809 10.6836 19.3088C10.8776 19.2444 11.0892 19.0335 11.1538 18.8402L11.1538 18.8402ZM20.663 18.508C20.4657 18.193 20.1909 18.0051 20.0524 18.0904C19.7694 18.2648 20.3514 19.0807 20.7587 19.0807C20.9034 19.0807 20.8603 18.8229 20.663 18.508ZM13.596 18.0454C14.0591 17.1828 13.8106 16.7593 13.1582 17.2992C12.682 17.6932 12.5308 18.7847 12.9525 18.7847C13.0881 18.7847 13.3777 18.452 13.596 18.0453L13.596 18.0454ZM25.4691 17.4072C25.4691 16.8195 24.9421 16.9239 24.589 17.5816C24.0758 18.5377 24.2234 18.9291 24.8754 18.3408C25.2019 18.0462 25.4691 17.6261 25.4691 17.4072V17.4072ZM10.9249 17.4181C10.9249 17.174 10.7914 17.0565 10.6281 17.1571C10.4649 17.2577 10.3313 17.5398 10.3313 17.7839C10.3313 18.028 10.4649 18.1455 10.6281 18.0449C10.7914 17.9443 10.9249 17.6623 10.9249 17.4181ZM27.5468 17.0847C27.5468 16.7053 27.4751 16.6998 27.053 17.0469C26.6065 17.4141 26.5923 17.391 26.9046 16.8067C27.3288 16.0129 27.3368 15.8255 26.9468 15.8255C26.78 15.8255 26.4933 16.1545 26.3095 16.5566C26.0536 17.1166 26.0643 17.3943 26.3553 17.7439C26.7921 18.2687 27.5468 17.8511 27.5468 17.0847V17.0847ZM12.409 16.7888C12.409 16.4277 12.3259 16.4137 11.9638 16.7133C11.7189 16.9159 11.5186 17.2814 11.5186 17.5255C11.5186 17.8866 11.6017 17.9007 11.9638 17.601C12.2087 17.3984 12.409 17.0329 12.409 16.7888ZM21.0168 17.1572C21.0168 16.913 20.8164 16.7133 20.5716 16.7133C19.7991 16.7133 20.0494 17.2965 20.9426 17.5777C20.9834 17.5905 21.0168 17.4013 21.0168 17.1572ZM21.7898 16.2016C21.488 15.9008 21.2391 16.3536 21.4866 16.753C21.6736 17.0546 21.7436 17.0549 21.8441 16.7542C21.9128 16.5486 21.8884 16.2999 21.7898 16.2016H21.7898ZM23.6673 15.5861C23.6788 15.3731 23.5546 15.281 23.3913 15.3816C23.2281 15.4822 23.1039 15.9229 23.1154 16.3608C23.134 17.0719 23.1635 17.0938 23.3913 16.5653C23.5316 16.2398 23.6558 15.7991 23.6673 15.5861V15.5861ZM10.9249 15.9385C10.9249 15.6944 10.7913 15.577 10.628 15.6776C10.4648 15.7781 10.3312 16.0602 10.3312 16.3043C10.3312 16.5485 10.4648 16.6659 10.628 16.5653C10.7913 16.4647 10.9249 16.1827 10.9249 15.9385ZM13.5763 15.3964C13.1705 14.9844 12.5866 15.6809 12.8229 16.2949C13.0043 16.7662 13.05 16.7621 13.436 16.2408C13.6948 15.8913 13.748 15.5708 13.5762 15.3964L13.5763 15.3964ZM19.9893 16.3987C20.1906 16.074 19.3379 14.9377 18.8929 14.9377C18.7549 14.9377 18.6421 15.1375 18.6421 15.3816C18.6421 15.6258 18.7756 15.8255 18.9389 15.8255C19.1021 15.8255 19.2357 16.0253 19.2357 16.2694C19.2357 16.7814 19.7024 16.8615 19.9893 16.3987L19.9893 16.3987ZM22.7975 16.0622C22.7975 15.5842 22.7098 15.4987 22.4672 15.7405C22.2855 15.9217 22.2266 16.2146 22.3363 16.3916C22.6434 16.8869 22.7975 16.7767 22.7975 16.0622H22.7975ZM26.4891 15.2036C26.3707 15.0126 26.0902 15.0888 25.7362 15.4082C25.235 15.8604 25.172 15.8645 25.172 15.445C25.172 15.1852 25.3056 14.8904 25.4689 14.7898C25.6321 14.6892 25.7657 14.4663 25.7657 14.2944C25.7657 14.121 25.4355 14.1976 25.0236 14.4667C24.6129 14.7349 24.2816 14.8121 24.2816 14.6394C24.2816 14.4677 24.4819 14.2507 24.7268 14.157C24.9717 14.0633 25.172 13.8045 25.172 13.5818C25.172 13.267 24.9904 13.2415 24.3558 13.4672C23.6123 13.7316 23.5885 13.7195 24.0887 13.3316C24.7297 12.8344 24.4958 12.2275 23.7526 12.4595C23.2799 12.607 23.2806 12.5875 23.7621 12.192C24.3039 11.7469 24.464 11.0907 24.0307 11.0907C23.8928 11.0907 23.5404 11.3546 23.2477 11.677C22.8698 12.0934 22.8035 12.3721 23.019 12.6388C23.186 12.8453 23.4101 13.4232 23.5172 13.923C23.6242 14.4229 24.1032 15.2591 24.5816 15.7813L25.4514 16.7307L26.0646 16.1194C26.4018 15.7831 26.5928 15.3711 26.4891 15.2036L26.4891 15.2036ZM20.7124 15.4038C20.319 15.0116 20.0743 15.3464 20.3089 15.9559C20.4635 16.3575 20.5577 16.3829 20.7488 16.0747C20.8825 15.859 20.8661 15.5571 20.7124 15.4038L20.7124 15.4038ZM12.5009 14.6153C12.2719 14.3869 12.0477 14.4853 11.7135 14.961C11.0773 15.8666 11.4011 16.2535 12.1854 15.5249C12.6401 15.1026 12.73 14.8436 12.5009 14.6153ZM21.6744 14.8835C21.2219 14.4324 20.9463 14.7072 21.1973 15.3592C21.3353 15.7178 21.4844 15.7733 21.7088 15.5495C21.9333 15.3257 21.9233 15.1316 21.6744 14.8835V14.8835ZM15.2426 14.7466C16.0704 13.8561 16.1629 13.4581 15.5421 13.4581C15.0685 13.4581 14.1896 14.5585 14.1896 15.1515C14.1896 15.7114 14.4327 15.6179 15.2426 14.7466H15.2426ZM23.3229 14.6973C23.501 14.1647 22.8875 14.2766 22.6804 14.8145C22.5695 15.1027 22.6358 15.238 22.8527 15.1659C23.0467 15.1015 23.2583 14.8906 23.3229 14.6973V14.6973ZM11.0851 14.6221C11.1927 14.4485 11.1823 14.2155 11.062 14.1043C10.9416 13.993 10.7861 14.061 10.7163 14.2553C10.6464 14.4496 10.3976 14.5352 10.1633 14.4456C9.92893 14.3559 9.7372 14.43 9.7372 14.6102C9.7372 15.0294 10.8266 15.0391 11.0851 14.6221V14.6221ZM13.996 14.1684C14.2978 13.7555 14.4655 13.3388 14.3689 13.2424C14.1215 12.9958 13.0022 14.0583 13.0022 14.5397C13.0022 15.1453 13.3873 15.0015 13.996 14.1684ZM19.8291 14.6758C19.8291 14.3024 18.3319 13.3726 18.1011 13.6027C17.9953 13.7082 18.2406 14.0488 18.6463 14.3596C19.4548 14.9789 19.8292 15.079 19.8292 14.6758H19.8291ZM21.2057 13.8171C20.6862 13.2976 19.8592 13.6568 20.0346 14.3257C20.1527 14.7758 20.2848 14.8075 20.8805 14.5285C21.4552 14.2594 21.5157 14.1271 21.2057 13.8171ZM22.7516 13.9164C22.8139 13.5959 22.7281 13.4658 22.5335 13.5857C22.3147 13.7206 22.2743 13.4728 22.4066 12.807C22.5905 11.8816 22.5708 11.853 22.0311 12.2602C21.5837 12.5977 21.5411 12.6008 21.8326 12.2749C22.0367 12.0468 22.2036 11.5375 22.2036 11.1433C22.2036 10.5093 22.1466 10.4734 21.7098 10.8326C21.2634 11.1997 21.2492 11.1766 21.5614 10.5923C21.7514 10.2368 21.9068 9.60429 21.9068 9.18668C21.9068 8.76908 22.007 8.44182 22.1294 8.45943C22.635 8.53211 23.6881 8.03863 23.6923 7.72708C23.695 7.52352 23.7959 7.54755 23.9489 7.78821C24.1463 8.09875 24.3867 8.0141 25.0574 7.39765C26.721 5.86886 26.8573 5.7641 27.1827 5.7641C27.8494 5.7641 27.8335 5.19229 27.1462 4.45289C26.7575 4.03475 26.1638 3.69264 25.8268 3.69264C25.2226 3.69264 24.2814 4.40143 24.2814 4.85645C24.2814 4.98501 23.9796 5.03267 23.6107 4.96238C23.1612 4.8767 22.7038 5.08532 22.2233 5.59527C21.8291 6.01364 21.6509 6.35597 21.8273 6.35597C22.0037 6.35597 22.0782 6.6223 21.9928 6.94782C21.9026 7.29183 21.9837 7.53966 22.1865 7.53966C22.3785 7.53966 22.4516 7.675 22.3491 7.84041C22.2465 8.00582 22.0649 8.08095 21.9455 8.00736C21.5431 7.75944 20.9448 10.468 21.1498 11.609C21.6109 14.1756 22.4626 15.4025 22.7516 13.9163L22.7516 13.9164ZM23.0381 7.03768C23.4153 6.96304 23.7967 6.71331 23.8854 6.48276C23.9742 6.25218 24.1605 6.1336 24.2995 6.21926C24.8337 6.54839 24.2225 7.12035 23.309 7.14624C22.6777 7.16415 22.5855 7.12722 23.0381 7.03768L23.0381 7.03768ZM22.6489 6.06012C22.7498 5.89736 23.0582 5.76624 23.3342 5.76873C23.7668 5.77264 23.7746 5.81291 23.3909 6.06012C22.8096 6.43464 22.4167 6.43464 22.6489 6.06012ZM26.742 14.05C26.6566 13.7245 26.4532 13.4582 26.2899 13.4582C26.1267 13.4582 26.063 13.1919 26.1484 12.8663C26.2493 12.4817 26.1575 12.2745 25.8862 12.2745C25.327 12.2745 25.3504 13.4315 25.9139 13.6471C26.1588 13.7408 26.3592 14.003 26.3592 14.2297C26.3592 14.4564 26.4802 14.6419 26.6282 14.6419C26.7762 14.6419 26.8274 14.3756 26.742 14.05ZM13.0023 13.1202C13.0023 12.9457 12.791 12.8838 12.5328 12.9826C12.2745 13.0814 12.0074 13.1623 11.9391 13.1623C11.8709 13.1623 11.815 13.3667 11.815 13.6166C11.815 13.9792 11.9348 14.0069 12.4086 13.7541C12.7351 13.5799 13.0023 13.2946 13.0023 13.1202H13.0023ZM19.8291 13.1448C19.8291 12.9917 19.6955 12.8663 19.5323 12.8663C19.369 12.8663 19.2355 13.074 19.2355 13.3277C19.2355 13.5814 19.369 13.7067 19.5323 13.6061C19.6955 13.5056 19.8291 13.2979 19.8291 13.1448ZM11.815 12.3688C11.815 11.9926 11.7324 11.9745 11.373 12.2718C11.13 12.4729 11.0056 12.7577 11.0967 12.9047C11.3309 13.2825 11.815 12.9212 11.815 12.3688ZM20.827 12.7184C20.733 12.4743 20.6037 12.2745 20.5395 12.2745C20.4753 12.2745 20.4228 12.4743 20.4228 12.7184C20.4228 12.9626 20.5522 13.1623 20.7103 13.1623C20.8685 13.1623 20.921 12.9626 20.827 12.7184ZM28.7336 12.8875C28.7336 12.5316 27.8821 11.6827 27.5252 11.6827C27.1577 11.6827 27.1716 10.8779 27.543 10.649C27.7046 10.5495 27.7646 10.6549 27.6765 10.8837C27.4972 11.3495 28.8847 12.3993 29.3227 12.1294C29.8444 11.808 29.2866 11.1474 28.5607 11.2269C28.162 11.2705 27.8532 11.1579 27.8746 10.9766C27.991 9.99074 27.819 9.67295 27.2496 9.82142C26.4119 10.0398 26.4553 11.5683 27.3238 12.4341C28.0214 13.1295 28.7337 13.3586 28.7337 12.8875L28.7336 12.8875ZM14.5051 12.2005L14.5239 11.5347L14.7923 12.2005C15.1141 12.9987 15.9505 13.0925 15.8924 12.3238C15.8699 12.0255 15.7112 11.7604 15.5399 11.7348C15.3685 11.7092 14.9588 11.6474 14.6294 11.5975C13.6806 11.4537 13.3104 11.1124 13.5077 10.5635C13.6082 10.2839 13.5812 10.1538 13.4478 10.2745C13.3144 10.3951 13.0148 10.3363 12.7821 10.1438C12.3485 9.785 11.1307 9.57042 11.2966 9.882C11.3472 9.97721 11.5728 10.4213 11.7978 10.8689C12.2245 11.7175 12.7017 11.9497 12.7103 11.3128C12.713 11.1093 12.9933 11.3757 13.3331 11.9046C14.0553 13.0289 14.4786 13.1358 14.505 12.2005H14.5051ZM18.5676 12.4818C18.7717 12.328 18.9386 11.9474 18.9386 11.636C18.9386 11.1681 18.8391 11.1231 18.3645 11.3763C18.0487 11.5448 17.53 11.6827 17.2118 11.6827C16.8821 11.6827 16.5663 11.9383 16.4774 12.2772C16.3436 12.7871 16.4547 12.8638 17.259 12.8166C17.7747 12.7864 18.3636 12.6357 18.5676 12.4818V12.4818ZM25.8889 11.2892C26.1475 11.1903 26.359 10.8092 26.359 10.4423C26.359 9.82076 26.2971 9.84286 25.4511 10.7662C24.8627 11.4086 24.6121 11.9263 24.7388 12.2378C24.9054 12.6472 24.9703 12.6259 25.1766 12.0938C25.3099 11.7502 25.6304 11.3882 25.8889 11.2893V11.2892ZM23.9845 10.2031C23.9845 9.75518 23.2152 9.84884 22.8003 10.3473C22.5988 10.5893 22.5127 10.9918 22.6088 11.2417C22.7579 11.6291 22.8723 11.6079 23.3841 11.0975C23.7143 10.7683 23.9845 10.3658 23.9845 10.2031H23.9845ZM30.3144 10.7001C30.5091 10.8165 30.4831 10.6875 30.2556 10.4078C29.7846 9.82896 30.2021 9.72785 30.7956 10.277C31.1153 10.573 31.1534 10.573 30.9858 10.277C30.8706 10.0736 30.9178 9.90713 31.0907 9.90713C31.5625 9.90713 31.4688 8.8487 30.9598 8.42751C30.7149 8.2249 30.5146 7.8254 30.5146 7.53975C30.5146 6.93041 30.1246 6.59439 28.8183 6.07816C28.0086 5.75815 27.7952 5.76983 27.4084 6.15538C26.7003 6.86136 26.8407 7.53974 27.6948 7.53974C28.1029 7.53974 28.4368 7.66044 28.4368 7.80796C28.4368 7.95548 28.1773 8.00852 27.8601 7.92582C27.543 7.84313 26.8762 7.97803 26.3784 8.22559C25.5223 8.65137 25.4891 8.64639 25.7645 8.13351C25.9245 7.83531 26.224 7.53137 26.4299 7.45807C26.6359 7.38479 26.7278 7.24142 26.6343 7.13945C26.3821 6.86447 24.88 7.63133 24.8773 8.03645C24.8761 8.22827 25.097 8.60649 25.3682 8.87693C25.828 9.33529 25.8129 9.36184 25.1456 9.26797C24.5712 9.18718 24.4298 9.29884 24.4298 9.83312C24.4298 10.4254 24.8513 10.8312 24.8908 10.277C24.8995 10.1549 25.2334 9.88435 25.6329 9.67572C26.0323 9.46708 26.3591 9.10086 26.3591 8.86193C26.3591 8.62299 26.4927 8.42749 26.6559 8.42749C26.8192 8.42749 26.9527 8.62723 26.9527 8.87137C26.9527 9.2978 27.4244 9.43952 28.4923 9.3339C28.7677 9.30668 29.1483 9.57374 29.3382 9.92738C29.5423 10.3076 29.5583 10.4934 29.3774 10.3819C29.2092 10.2782 28.9749 10.3493 28.8567 10.5399C28.7221 10.757 28.7706 10.807 28.9867 10.6739C29.1857 10.5513 29.421 10.6884 29.5432 10.9981C29.7424 11.5029 29.7612 11.5038 29.8604 11.0132C29.9226 10.7057 30.1089 10.5772 30.3144 10.7001L30.3144 10.7001ZM30.1663 9.7075C29.8931 9.63547 29.4569 9.25294 29.197 8.85744C28.8075 8.26479 28.79 8.03364 29.0972 7.54312C29.3023 7.21574 29.6383 6.94791 29.8439 6.94791C30.2795 6.94791 30.352 8.01397 29.9339 8.27157C29.5389 8.51499 29.8946 9.31529 30.3979 9.31529C30.6253 9.31529 30.8114 9.44846 30.8114 9.61121C30.8114 9.77397 30.778 9.89169 30.7372 9.87281C30.6964 9.85393 30.4395 9.77955 30.1663 9.70752L30.1663 9.7075ZM29.9209 7.77933C29.9209 7.39037 29.2463 7.63393 29.0984 8.07629C29.0261 8.29253 29.1618 8.35868 29.4509 8.24808C29.7094 8.14918 29.921 7.93824 29.921 7.77933H29.9209ZM9.44045 9.48C9.44045 9.06819 8.36371 8.13156 7.89032 8.13156C7.40404 8.13156 7.68969 8.96811 8.32738 9.41161C9.17364 10.0001 9.44045 10.0165 9.44045 9.48001V9.48ZM10.2087 8.79891C9.88449 8.47564 9.66215 8.98973 9.89494 9.52445C10.1157 10.0315 10.1317 10.031 10.2547 9.51406C10.3254 9.21651 10.3048 8.8947 10.2087 8.79891H10.2087ZM24.2815 8.98716C24.2815 8.49934 23.599 8.37493 22.9175 8.73853C21.7636 9.35419 21.9934 9.91609 23.2426 9.53385C23.814 9.35902 24.2815 9.11301 24.2815 8.98716V8.98716ZM6.75169 8.25854C6.45206 7.89858 6.47505 7.85526 6.88294 8.01131C7.2748 8.16123 7.37525 8.02439 7.36667 7.35226C7.3607 6.8857 7.43293 6.03791 7.52715 5.46826C7.63963 4.7882 7.54914 4.23205 7.26365 3.84874C6.87707 3.32969 6.74635 3.30895 6.08525 3.6617C5.67629 3.87991 5.17473 3.95558 4.9707 3.82985C4.73075 3.68201 4.67452 3.72194 4.8115 3.94291C4.937 4.14536 4.83475 4.28456 4.56055 4.28456C3.76884 4.28456 4.05272 5.13388 5.00924 5.62704C5.75812 6.01313 5.85669 6.17385 5.56192 6.52795C5.27682 6.87045 5.30298 7.06896 5.68933 7.49458C6.22713 8.08705 6.34251 8.56529 5.8787 8.27952C5.71545 8.17893 5.58188 8.22868 5.58188 8.39007C5.58188 8.55147 5.84902 8.76805 6.17552 8.87136C6.50202 8.97468 6.78465 9.21671 6.80359 9.40918C6.82253 9.60166 6.90034 9.5197 6.97651 9.22705C7.05268 8.93441 6.95152 8.49858 6.75169 8.25853L6.75169 8.25854ZM5.9412 6.82977C6.1517 6.60205 6.3707 6.46001 6.42786 6.51417C6.60392 6.68091 6.15772 7.24382 5.84948 7.24382C5.68943 7.24382 5.73071 7.0575 5.9412 6.82979L5.9412 6.82977ZM10.1355 8.33143C10.243 8.43852 10.3288 8.07116 10.3263 7.51506C10.3233 6.84424 10.2368 6.63762 10.0693 6.90111C9.88506 7.19093 9.77698 7.09029 9.66928 6.52863C9.54956 5.90427 9.59805 5.8222 9.92627 6.09377C10.7681 6.79028 10.289 5.85942 9.40987 5.0903C8.51956 4.31143 7.89242 4.04871 8.0164 4.50654C8.04945 4.6286 7.97243 5.25007 7.84525 5.88758C7.63836 6.92458 7.70238 7.13117 8.45298 7.84869C8.97657 8.34921 9.41384 8.55411 9.61609 8.39372C9.79436 8.25237 10.0281 8.22434 10.1355 8.33144L10.1355 8.33143ZM8.40153 6.65194C7.8292 6.40674 7.83122 6.39688 8.45821 6.37682C8.81588 6.36537 9.19109 6.48918 9.29198 6.65194C9.50895 7.00196 9.21851 7.00196 8.40152 6.65194H8.40153ZM15.3156 7.66743C15.6868 7.40824 15.8914 7.04892 15.779 6.85364C15.6684 6.66133 15.9085 6.80361 16.3126 7.16981C17.1653 7.94243 18.8641 8.07741 19.1274 7.39345C19.221 7.15025 19.4171 7.02495 19.5633 7.115C19.7094 7.20505 19.829 7.13769 19.829 6.96533C19.829 6.54462 19.4431 6.56953 18.9544 7.02184C18.7029 7.25453 18.626 7.26467 18.7471 7.04919C18.853 6.86078 18.8143 6.3947 18.6611 6.01346C18.5079 5.63222 18.3741 5.47252 18.3637 5.65857C18.3534 5.8446 18.1257 6.0807 17.8577 6.1832C17.4473 6.34021 17.4306 6.29741 17.7516 5.91179C18.348 5.19527 17.8726 5.05139 17.1824 5.73954C16.8423 6.07861 16.3892 6.35604 16.1755 6.35604C15.6812 6.35604 14.906 5.74775 14.6671 5.17235C14.5657 4.92822 14.5587 5.11793 14.6516 5.59392C14.7941 6.32462 14.7536 6.4041 14.3912 6.10424C14.0495 5.82154 13.9246 5.84612 13.7789 6.22473C13.5309 6.86889 13.5453 6.94787 13.9101 6.94787C14.083 6.94787 14.1629 6.848 14.0877 6.72593C14.0125 6.60386 14.3163 6.49094 14.7628 6.47498C15.2643 6.45705 15.5746 6.60006 15.5746 6.84917C15.5746 7.10386 15.3763 7.18966 15.0364 7.08208C14.7404 6.98842 14.2618 7.04903 13.9728 7.21676C13.6523 7.40278 13.5989 7.52523 13.8359 7.53073C14.0496 7.53567 14.1419 7.6729 14.041 7.83565C13.7575 8.29309 14.574 8.18531 15.3156 7.66744L15.3156 7.66743ZM29.3317 39.8195C29.3293 38.9378 29.3876 38.2768 29.4616 38.3506C29.733 38.6212 29.8266 40.6512 29.5852 41.0309C29.4332 41.2699 29.3345 40.7981 29.3317 39.8195ZM9.76185 39.9136C10.0545 39.8244 10.2318 39.4348 10.2318 38.8807C10.2318 38.3908 10.4801 37.7648 10.7844 37.4873C11.305 37.0128 11.315 37.0128 10.957 37.4882C10.748 37.7657 10.555 38.4299 10.5281 38.9642C10.4911 39.699 10.3346 39.9503 9.88551 39.9962C9.52197 40.0333 9.47403 40.0013 9.76184 39.9136L9.76185 39.9136ZM7.23189 39.0201C7.12462 38.594 7.10363 38.1787 7.18526 38.0974C7.26688 38.016 7.41951 38.2904 7.52443 38.7071C7.6569 39.2334 7.9561 39.5018 8.50355 39.5855C9.22806 39.6963 9.21639 39.7097 8.35942 39.7504C7.58419 39.7873 7.39404 39.6641 7.23189 39.02L7.23189 39.0201ZM5.71879 35.374C5.81349 35.2212 5.69941 34.9882 5.4653 34.8561C4.83786 34.5022 5.19619 32.9884 5.90744 32.9884C6.23439 32.9884 6.52857 32.716 6.62634 32.3226C6.89069 31.2592 6.93633 27.3638 6.70524 25.5903C6.57239 24.5709 6.58906 24.2392 6.74986 24.7026C6.89106 25.1095 7.0199 25.9018 7.03617 26.4633C7.07097 27.664 7.54937 27.3725 7.74049 26.0342C7.84256 25.3195 7.87594 25.3888 7.91174 26.3897C7.9362 27.0735 7.75586 28.3998 7.51098 29.3371C7.2661 30.2744 7.06575 31.4949 7.06575 32.0494C7.06575 32.9211 7.14835 33.0359 7.67634 32.8982C8.06428 32.7971 8.24534 32.8654 8.17288 33.0857C8.11016 33.2763 7.73522 33.4714 7.33968 33.5192C6.66754 33.6004 5.59098 35.0599 6.20323 35.0599C6.35112 35.0599 6.47212 35.193 6.47212 35.3558C6.47212 35.5185 6.26389 35.6517 6.00938 35.6517C5.75487 35.6517 5.62411 35.5267 5.7188 35.374L5.71879 35.374ZM6.26452 33.8639C6.36705 33.473 6.29931 33.2919 6.07774 33.3646C5.88652 33.4273 5.68546 33.7826 5.63091 34.1541C5.51072 34.9728 6.03686 34.7318 6.26452 33.8639V33.8639ZM26.9608 34.33C26.7621 34.0913 26.6517 33.7402 26.7153 33.5498C26.779 33.3593 27.0618 33.5546 27.3439 33.9837C27.8827 34.8036 27.5816 35.0757 26.9608 34.33H26.9608ZM19.4246 33.7282C19.5185 33.4841 19.6336 33.2843 19.6803 33.2843C19.727 33.2843 19.8421 33.4841 19.9361 33.7282C20.0391 33.9959 19.9375 34.1721 19.6803 34.1721C19.4231 34.1721 19.3216 33.9959 19.4246 33.7282ZM18.6414 33.3018C18.6414 32.9667 18.775 32.6925 18.9383 32.6925C19.1015 32.6925 19.2351 32.8844 19.2351 33.1189C19.2351 33.3534 19.1015 33.6276 18.9383 33.7282C18.775 33.8288 18.6414 33.6369 18.6414 33.3018ZM17.751 33.1189C17.751 32.8652 17.8846 32.7398 18.0478 32.8404C18.2111 32.941 18.3446 33.1486 18.3446 33.3018C18.3446 33.4549 18.2111 33.5802 18.0478 33.5802C17.8846 33.5802 17.751 33.3726 17.751 33.1189ZM12.7051 32.414C12.7051 31.6995 12.8701 31.6274 13.1056 32.2391C13.1975 32.478 13.145 32.7522 12.9889 32.8484C12.8328 32.9446 12.7051 32.7491 12.7051 32.414L12.7051 32.414ZM18.6649 31.6321C18.6791 31.2873 18.7495 31.2172 18.8442 31.4533C18.93 31.6669 18.9194 31.9221 18.8208 32.0205C18.7221 32.1188 18.652 31.944 18.6649 31.6321L18.6649 31.6321ZM18.2426 30.1771C18.342 29.5261 18.4725 28.9379 18.5324 28.8701C18.7573 28.6158 18.5889 30.2009 18.3308 30.7689C18.1433 31.1814 18.1166 31.0021 18.2426 30.1771ZM20.1724 25.5903C20.1724 25.1834 20.2398 25.0169 20.3221 25.2204C20.4045 25.4238 20.4045 25.7568 20.3221 25.9602C20.2398 26.1636 20.1724 25.9972 20.1724 25.5903ZM3.83017 10.115C3.45472 9.49171 3.46105 9.48541 3.97215 9.97346C4.26636 10.2544 4.4432 10.548 4.3651 10.6258C4.28702 10.7037 4.04629 10.4738 3.83018 10.115L3.83017 10.115ZM1.93053 7.64775C1.65552 7.37358 2.05302 6.65138 2.47893 6.65138C3.14315 6.65138 3.2576 7.19526 2.66044 7.51388C2.35083 7.67908 2.02237 7.73932 1.93054 7.64775H1.93053ZM12.1583 3.69215C12.1583 3.28526 12.2257 3.1188 12.308 3.32225C12.3904 3.5257 12.3904 3.85861 12.308 4.06206C12.2257 4.2655 12.1583 4.09905 12.1583 3.69215ZM17.4541 4.17226C17.4541 4.11081 17.6879 3.87777 17.9736 3.65439C18.4444 3.2863 18.4548 3.29677 18.0856 3.76611C17.6979 4.25906 17.4541 4.41582 17.4541 4.17224L17.4541 4.17226ZM18.2704 2.30445C17.9847 2.23002 17.751 2.04572 17.751 1.8949C17.751 1.47682 18.2278 1.56766 18.6414 2.06455C18.8446 2.30869 18.9612 2.49299 18.9004 2.47411C18.8396 2.45523 18.5561 2.37888 18.2704 2.30445H18.2704ZM15.5248 1.62067C15.6257 1.45791 15.7672 1.32474 15.8391 1.32474C15.9111 1.32474 15.97 1.45791 15.97 1.62067C15.97 1.78342 15.8286 1.91659 15.6557 1.91659C15.4828 1.91659 15.4239 1.78342 15.5248 1.62067Z" fill="white"/>
</g>
<defs>
<clipPath id="clip0_38_246">
<rect width="32" height="54" fill="white"/>
</clipPath>
</defs>
</svg>
