<svg width="50" height="50" viewBox="0 0 50 50" fill="none" xmlns="http://www.w3.org/2000/svg">
<path d="M37.4306 0H12.5297C5.63045 0 0 5.63492 0 12.5397V37.5C0 44.3651 5.63045 50 12.5297 50H37.4703C44.3696 50 50 44.3651 50 37.4603V12.5397C49.9603 5.63492 44.3299 0 37.4306 0ZM16.6535 40.4762H9.51626V19.8413H16.6535V40.4762ZM13.0452 16.6667C11.023 16.6667 9.3973 15.0397 9.3973 13.0159C9.3973 10.9921 11.023 9.36508 13.0452 9.36508C15.0674 9.36508 16.6931 10.9921 16.6931 13.0159C16.6534 15.0397 15.0278 16.6667 13.0452 16.6667ZM40.4837 40.4762H40.4441H34.4964V30.4762C34.4964 28.0556 34.1792 24.9603 30.8882 24.9603C27.5178 24.9603 26.9627 27.5794 26.9627 30.3175V40.4762H21.0151V19.8413H26.5662V22.619H26.7248C27.5971 21.0317 29.6193 19.8016 32.7914 19.8016C39.3339 19.8016 40.4837 23.5714 40.4837 29.1667V40.4762Z" fill="#C8C8C8"/>
</svg>
