<svg width="60" height="40" viewBox="0 0 60 40" fill="none" xmlns="http://www.w3.org/2000/svg">
<g filter="url(#filter0_b_423_103)">
<rect x="0.5" y="0.5" width="59" height="39" stroke="#C8C8C8"/>
</g>
<path d="M3.40085 22.9465C3.40085 22.9465 0.323485 19.2671 4.23306 14.7712C4.23306 14.7712 8.75468 9.61982 14.2793 7.94542C14.2793 7.94542 16.217 6.89567 19.06 7.94542C21.903 8.99518 22.9648 10.284 23.0616 11.8591C23.1584 13.4342 18.7051 21.9913 15.9589 26.1748L9.43316 36.7909C9.43316 36.7909 8.17394 40.0684 13.7223 37.2584C13.7223 37.2584 15.3934 37.5293 26.7805 23.5008C26.7805 23.5008 41.1719 1.54667 49.9428 0.217375C49.9428 0.217375 56.1933 -1.50522 57.9375 4.74798C57.9375 4.74798 54.2547 0.313763 44.6611 6.07727C44.6611 6.07727 43.1589 4.69882 24.4546 28.8682C24.4546 28.8682 15.4902 41.764 9.62769 39.7956C9.62769 39.7956 5.24176 38.3757 7.64065 33.6099C7.64065 33.6099 11.275 24.191 14.4084 20.7786C14.4084 20.7786 19.4481 9.91673 18.3493 8.86698C17.2504 7.81722 9.67609 10.6021 9.48156 13.3619C9.28703 16.1217 4.44277 13.0901 3.40085 22.9465Z" fill="url(#paint0_linear_423_103)"/>
<defs>
<filter id="filter0_b_423_103" x="-97" y="-97" width="254" height="234" filterUnits="userSpaceOnUse" color-interpolation-filters="sRGB">
<feFlood flood-opacity="0" result="BackgroundImageFix"/>
<feGaussianBlur in="BackgroundImage" stdDeviation="48.5"/>
<feComposite in2="SourceAlpha" operator="in" result="effect1_backgroundBlur_423_103"/>
<feBlend mode="normal" in="SourceGraphic" in2="effect1_backgroundBlur_423_103" result="shape"/>
</filter>
<linearGradient id="paint0_linear_423_103" x1="2.24997" y1="24.4885" x2="68.8466" y2="11.4451" gradientUnits="userSpaceOnUse">
<stop stop-color="#6FB4D1"/>
<stop offset="0.416421" stop-color="#FFC772"/>
<stop offset="0.784375" stop-color="#0057FF"/>
</linearGradient>
</defs>
</svg>
