<svg width="50" height="50" viewBox="0 0 50 50" fill="none" xmlns="http://www.w3.org/2000/svg">
<g clip-path="url(#clip0_663_46)">
<path d="M25 0C11.215 0 0 11.215 0 25C0 38.785 11.215 50 25 50C38.785 50 50 38.785 50 25C50 11.215 38.785 0 25 0ZM25 2.855C30.3802 2.85167 35.5762 4.81482 39.61 8.375C42.7567 13.32 43.1767 21.1217 35.765 23.6383C35.3733 22.305 34.6967 20.7 33.555 19.56H33.6117C33.6783 17.6083 33.4333 15.8933 32.895 14.4683C34.5283 12.4 34.61 10.2417 33.1167 8.38667C30.755 5.45167 24.6067 3.90333 19.91 6.22C19.8168 6.27017 19.7467 6.35456 19.7146 6.45539C19.6824 6.55622 19.6906 6.66561 19.7375 6.76049C19.7844 6.85537 19.8663 6.92833 19.966 6.964C20.0656 6.99966 20.1752 6.99524 20.2717 6.95167C22.2717 5.96833 24.715 5.67167 27.1617 6.11833C29.4283 6.535 31.415 7.57 32.48 8.89667C33.3133 9.92167 33.9433 11.55 32.515 13.61C32.1964 12.9743 31.7834 12.3904 31.29 11.8783C30.0467 10.605 28.3817 9.935 26.4683 9.935H26.3883C25.1383 9.89167 23.4067 10.2683 22.2733 11.435C21.5717 12.165 21.1817 13.1017 21.1067 14.2267C20.6861 14.5739 20.2844 14.9433 19.9033 15.3333V15.3333C13.555 9.14667 5.96333 13.7133 5.96333 13.7133H5.95167C7.91181 10.4064 10.6987 7.66636 14.0384 5.76258C17.3781 3.8588 21.1558 2.85678 25 2.855V2.855ZM29.9783 35.155C29.9495 35.1533 29.9205 35.1533 29.8917 35.155C28.4667 35.0667 26.74 34.6 24.7917 33.3783L24.7733 33.4067C24.0033 32.8517 22.5883 31.715 20.6783 29.6233C20.7217 28.535 20.2283 27.495 19.205 26.5283C20.7198 25.5488 22.501 25.0632 24.3033 25.1383C26.27 28.5217 30.2167 29.1283 30.3917 29.155L30.8083 29.2133L30.8533 28.7967C30.9983 27.3983 31.4883 26.4367 32.3083 25.945C33.1933 25.4133 34.295 25.5367 34.975 25.8067C36.1517 26.3767 36.895 27.1717 37.18 28.1683C37.56 29.4833 37.0833 30.9233 36.5133 31.835L36.5033 31.8533C35.6517 33.365 34.1317 34.4917 32.3367 34.9517C31.5652 35.1374 30.7702 35.2059 29.9783 35.155V35.155ZM17.1083 20.4333V20.4533L17.205 20.3883C17.3533 20.3167 17.5017 20.25 17.655 20.1767L17.6383 20.1383C18.415 19.71 20.0983 18.8983 22.9983 18.055C23.97 18.585 25.1367 18.595 26.47 18.0867C26.67 18.995 26.8617 21.38 24.5267 24.3167C20.7767 24.08 18.395 26.0867 18.2883 26.1783L17.9167 26.5L18.29 26.8083C19.375 27.705 19.9033 28.6417 19.86 29.6C19.8133 30.6317 19.0983 31.48 18.4967 31.8967C17.3717 32.5633 16.2983 32.73 15.3033 32.425C14 32 13.0633 30.8183 12.6217 29.8333V29.815C11.8383 28.28 11.7033 26.6783 12.2283 25.1883C12.895 23.3283 14.575 21.6883 17.1167 20.4317L17.1083 20.4333ZM32.795 19.5283H32.82C32.805 20.4067 32.665 22.2667 31.9367 25.195L31.89 25.2217C30.935 25.7967 30.335 26.8117 30.1033 28.2433C29.13 28.0117 26.6783 27.225 25.2167 25.0417L25.2667 24.6917C28.415 20.64 27.17 17.5117 27.1133 17.3767L26.9467 16.9917L26.5633 17.1583C25.28 17.7333 24.2033 17.79 23.37 17.325C22.465 16.825 22.0217 15.81 21.915 15.085C21.8183 13.78 22.135 12.7417 22.8533 11.9933C23.8017 11.0067 25.2867 10.6967 26.3533 10.735H26.3767C28.1033 10.7183 29.595 11.3017 30.7017 12.4333C32.1717 13.9533 32.8933 16.4017 32.7833 19.5217L32.795 19.5283ZM2.855 25C2.85554 23.5927 2.98947 22.1887 3.255 20.8067C5.94667 15.595 12.82 11.5117 18.755 16.6567C18.0972 17.4882 17.6024 18.4365 17.2967 19.4517C15.53 20.2533 14.1133 21.2283 13.0817 22.3367C10.5017 21.7867 8.53167 22.67 7.52667 24.8367C5.94167 28.2517 7.28 34.4517 11.4417 37.6333C11.5122 37.6881 11.5991 37.7174 11.6883 37.7167C11.7735 37.7164 11.8564 37.6896 11.9256 37.6399C11.9947 37.5903 12.0466 37.5202 12.074 37.4396C12.1013 37.3589 12.1028 37.2718 12.0782 37.1903C12.0536 37.1088 12.0041 37.037 11.9367 36.985C10.1667 35.6333 8.81333 33.5717 8.13 31.1783C7.49667 28.9633 7.54667 26.7217 8.26167 25.1783C8.81667 23.985 9.99167 22.69 12.4717 23.0567C12.0422 23.624 11.7016 24.2534 11.4617 24.9233C10.8633 26.6283 11.0133 28.445 11.895 30.1833C12.4083 31.3217 13.5117 32.71 15.0617 33.2033C15.4568 33.3288 15.8688 33.3929 16.2833 33.3933C16.9015 33.3856 17.5121 33.2559 18.08 33.0117C18.3933 33.1517 18.8383 33.345 19.3717 33.5283L19.11 33.645C16.965 42.2417 24.845 47.1317 24.845 47.1317L24.865 47.145C12.72 47.0733 2.855 37.1667 2.855 25ZM34.2117 45.1383C24.9133 46.705 19.3783 41.88 20.8367 34.1533L20.7933 33.9467C21.9283 34.2133 23.2267 34.3633 24.45 34.1233C26.395 35.3217 28.135 35.8233 29.6167 35.9567C30.2233 37.7617 31.9317 38.8733 34.0883 38.8733H34.325C36.21 38.8033 38.1 37.9083 39.6483 36.3533C41.4467 34.5483 42.705 31.9167 43.2883 28.745C43.3025 28.6914 43.3056 28.6355 43.2974 28.5807C43.2893 28.5259 43.2701 28.4733 43.2409 28.4261C43.2118 28.379 43.1734 28.3382 43.128 28.3064C43.0826 28.2746 43.0312 28.2523 42.977 28.241C42.9227 28.2297 42.8667 28.2295 42.8124 28.2405C42.7581 28.2515 42.7066 28.2735 42.661 28.3051C42.6155 28.3366 42.5768 28.3771 42.5474 28.4241C42.518 28.4711 42.4985 28.5236 42.49 28.5783V28.6067C41.6483 33.19 38.79 37.9 34.295 38.0667C32.535 38.1333 31.1017 37.335 30.5067 36C31.1946 35.9946 31.8794 35.9073 32.5467 35.74C33.5184 35.5026 34.4324 35.072 35.2341 34.4738C36.0359 33.8757 36.709 33.1222 37.2133 32.2583C37.88 31.2 38.4217 29.5133 37.97 27.9433C37.6797 26.972 37.0535 26.1355 36.2033 25.5833C36.195 25.525 36.185 25.4667 36.1733 25.4017C44.7117 23.0417 44.34 14.2717 44.34 14.2717V14.2567C45.7545 16.7951 46.6551 19.5873 46.9905 22.4738C47.3258 25.3603 47.0893 28.2846 46.2944 31.0796C45.4995 33.8747 44.1618 36.4859 42.3578 38.7639C40.5537 41.042 38.3186 42.9424 35.78 44.3567C35.2656 44.6433 34.7394 44.9094 34.2017 45.155L34.2117 45.1383Z" fill="white"/>
<path d="M25.2516 13.345C25.1445 13.3446 25.0396 13.3761 24.9504 13.4353C24.8611 13.4946 24.7914 13.579 24.7501 13.6778C24.7088 13.7767 24.6978 13.8855 24.7183 13.9907C24.7389 14.0958 24.7902 14.1925 24.8657 14.2685C24.9412 14.3445 25.0376 14.3963 25.1426 14.4176C25.2476 14.4388 25.3566 14.4284 25.4557 14.3877C25.5548 14.347 25.6396 14.2778 25.6994 14.189C25.7592 14.1001 25.7913 13.9954 25.7916 13.8883C25.7918 13.8172 25.778 13.7467 25.751 13.6809C25.724 13.6151 25.6843 13.5553 25.6341 13.5048C25.584 13.4543 25.5244 13.4143 25.4587 13.3868C25.3931 13.3594 25.3227 13.3452 25.2516 13.345Z" fill="white"/>
<path d="M16.5649 30.8034C16.8631 30.8034 17.1049 30.5616 17.1049 30.2634C17.1049 29.9652 16.8631 29.7234 16.5649 29.7234C16.2667 29.7234 16.0249 29.9652 16.0249 30.2634C16.0249 30.5616 16.2667 30.8034 16.5649 30.8034Z" fill="white"/>
<path d="M34.5634 29.6867C34.8617 29.6867 35.1034 29.4449 35.1034 29.1467C35.1034 28.8485 34.8617 28.6067 34.5634 28.6067C34.2652 28.6067 34.0234 28.8485 34.0234 29.1467C34.0234 29.4449 34.2652 29.6867 34.5634 29.6867Z" fill="white"/>
</g>
<defs>
<clipPath id="clip0_663_46">
<rect width="50" height="50" fill="white"/>
</clipPath>
</defs>
</svg>
