<svg width="100" height="100" viewBox="0 0 100 100" fill="none" xmlns="http://www.w3.org/2000/svg">
<g clip-path="url(#clip0_665_77)">
<path d="M50 0C22.43 0 0 22.43 0 50C0 77.57 22.43 100 50 100C77.57 100 100 77.57 100 50C100 22.43 77.57 0 50 0ZM50 5.71C60.7604 5.70335 71.1523 9.62964 79.22 16.75C85.5133 26.64 86.3533 42.2433 71.53 47.2767C70.7467 44.61 69.3933 41.4 67.11 39.12H67.2233C67.3567 35.2167 66.8667 31.7867 65.79 28.9367C69.0567 24.8 69.22 20.4833 66.2333 16.7733C61.51 10.9033 49.2133 7.80667 39.82 12.44C39.6336 12.5403 39.4935 12.7091 39.4291 12.9108C39.3647 13.1124 39.3812 13.3312 39.475 13.521C39.5688 13.7107 39.7326 13.8567 39.9319 13.928C40.1312 13.9993 40.3504 13.9905 40.5433 13.9033C44.5433 11.9367 49.43 11.3433 54.3233 12.2367C58.8567 13.07 62.83 15.14 64.96 17.7933C66.6267 19.8433 67.8867 23.1 65.03 27.22C64.3928 25.9485 63.5668 24.7808 62.58 23.7567C60.0933 21.21 56.7633 19.87 52.9367 19.87H52.7767C50.2767 19.7833 46.8133 20.5367 44.5467 22.87C43.1433 24.33 42.3633 26.2033 42.2133 28.4533C41.3723 29.1477 40.5689 29.8866 39.8067 30.6667V30.6667C27.11 18.2933 11.9267 27.4267 11.9267 27.4267H11.9033C15.8236 20.8128 21.3974 15.3327 28.0768 11.5252C34.7563 7.7176 42.3115 5.71356 50 5.71V5.71ZM59.9567 70.31C59.8989 70.3067 59.8411 70.3067 59.7833 70.31C56.9333 70.1333 53.48 69.2 49.5833 66.7567L49.5467 66.8133C48.0067 65.7033 45.1767 63.43 41.3567 59.2467C41.4433 57.07 40.4567 54.99 38.41 53.0567C41.4395 51.0976 45.0021 50.1264 48.6067 50.2767C52.54 57.0433 60.4333 58.2567 60.7833 58.31L61.6167 58.4267L61.7067 57.5933C61.9967 54.7967 62.9767 52.8733 64.6167 51.89C66.3867 50.8267 68.59 51.0733 69.95 51.6133C72.3033 52.7533 73.79 54.3433 74.36 56.3367C75.12 58.9667 74.1667 61.8467 73.0267 63.67L73.0067 63.7067C71.3033 66.73 68.2633 68.9833 64.6733 69.9033C63.1304 70.2747 61.5404 70.4118 59.9567 70.31V70.31ZM34.2167 40.8667V40.9067L34.41 40.7767C34.7067 40.6333 35.0033 40.5 35.31 40.3533L35.2767 40.2767C36.83 39.42 40.1967 37.7967 45.9967 36.11C47.94 37.17 50.2733 37.19 52.94 36.1733C53.34 37.99 53.7233 42.76 49.0533 48.6333C41.5533 48.16 36.79 52.1733 36.5767 52.3567L35.8333 53L36.58 53.6167C38.75 55.41 39.8067 57.2833 39.72 59.2C39.6267 61.2633 38.1967 62.96 36.9933 63.7933C34.7433 65.1267 32.5967 65.46 30.6067 64.85C28 64 26.1267 61.6367 25.2433 59.6667V59.63C23.6767 56.56 23.4067 53.3567 24.4567 50.3767C25.79 46.6567 29.15 43.3767 34.2333 40.8633L34.2167 40.8667ZM65.59 39.0567H65.64C65.61 40.8133 65.33 44.5333 63.8733 50.39L63.78 50.4433C61.87 51.5933 60.67 53.6233 60.2067 56.4867C58.26 56.0233 53.3567 54.45 50.4333 50.0833L50.5333 49.3833C56.83 41.28 54.34 35.0233 54.2267 34.7533L53.8933 33.9833L53.1267 34.3167C50.56 35.4667 48.4067 35.58 46.74 34.65C44.93 33.65 44.0433 31.62 43.83 30.17C43.6367 27.56 44.27 25.4833 45.7067 23.9867C47.6033 22.0133 50.5733 21.3933 52.7067 21.47H52.7533C56.2067 21.4367 59.19 22.6033 61.4033 24.8667C64.3433 27.9067 65.7867 32.8033 65.5667 39.0433L65.59 39.0567ZM5.71 50C5.71108 47.1854 5.97895 44.3773 6.51 41.6133C11.8933 31.19 25.64 23.0233 37.51 33.3133C36.1944 34.9763 35.2048 36.8729 34.5933 38.9033C31.06 40.5067 28.2267 42.4567 26.1633 44.6733C21.0033 43.5733 17.0633 45.34 15.0533 49.6733C11.8833 56.5033 14.56 68.9033 22.8833 75.2667C23.0243 75.3761 23.1982 75.4349 23.3767 75.4333C23.547 75.4329 23.7128 75.3792 23.8511 75.2799C23.9894 75.1805 24.0932 75.0404 24.1479 74.8791C24.2026 74.7179 24.2056 74.5436 24.1564 74.3806C24.1071 74.2175 24.0082 74.074 23.8733 73.97C20.3333 71.2667 17.6267 67.1433 16.26 62.3567C14.9933 57.9267 15.0933 53.4433 16.5233 50.3567C17.6333 47.97 19.9833 45.38 24.9433 46.1133C24.0844 47.248 23.4032 48.5069 22.9233 49.8467C21.7267 53.2567 22.0267 56.89 23.79 60.3667C24.8167 62.6433 27.0233 65.42 30.1233 66.4067C30.9135 66.6577 31.7376 66.7858 32.5667 66.7867C33.803 66.7713 35.0242 66.5119 36.16 66.0233C36.7867 66.3033 37.6767 66.69 38.7433 67.0567L38.22 67.29C33.93 84.4833 49.69 94.2633 49.69 94.2633L49.73 94.29C25.44 94.1467 5.71 74.3333 5.71 50ZM68.4233 90.2767C49.8267 93.41 38.7567 83.76 41.6733 68.3067L41.5867 67.8933C43.8567 68.4267 46.4533 68.7267 48.9 68.2467C52.79 70.6433 56.27 71.6467 59.2333 71.9133C60.4467 75.5233 63.8633 77.7467 68.1767 77.7467H68.65C72.42 77.6067 76.2 75.8167 79.2967 72.7067C82.8933 69.0967 85.41 63.8333 86.5767 57.49C86.605 57.3828 86.6112 57.271 86.5949 57.1614C86.5786 57.0517 86.5401 56.9465 86.4819 56.8522C86.4236 56.7579 86.3468 56.6765 86.256 56.6128C86.1652 56.5492 86.0625 56.5047 85.954 56.482C85.8455 56.4594 85.7335 56.459 85.6248 56.4811C85.5162 56.5031 85.4132 56.547 85.3221 56.6101C85.2309 56.6732 85.1536 56.7542 85.0948 56.8482C85.036 56.9422 84.9969 57.0471 84.98 57.1567V57.2133C83.2967 66.38 77.58 75.8 68.59 76.1333C65.07 76.2667 62.2033 74.67 61.0133 72C62.3892 71.9892 63.7588 71.8147 65.0933 71.48C67.0368 71.0052 68.8647 70.144 70.4682 68.9476C72.0717 67.7513 73.418 66.2444 74.4267 64.5167C75.76 62.4 76.8433 59.0267 75.94 55.8867C75.3594 53.944 74.107 52.2711 72.4067 51.1667C72.39 51.05 72.37 50.9333 72.3467 50.8033C89.4233 46.0833 88.68 28.5433 88.68 28.5433V28.5133C91.509 33.5902 93.3102 39.1745 93.9809 44.9475C94.6516 50.7205 94.1785 56.5691 92.5888 62.1593C90.999 67.7494 88.3237 72.9717 84.7155 77.5279C81.1074 82.0841 76.6371 85.8849 71.56 88.7133C70.5311 89.2867 69.4789 89.8189 68.4033 90.31L68.4233 90.2767Z" fill="white"/>
<path d="M50.5034 26.6899C50.2891 26.6893 50.0795 26.7522 49.901 26.8707C49.7225 26.9892 49.5831 27.1579 49.5005 27.3556C49.4179 27.5533 49.3958 27.7711 49.4369 27.9814C49.4781 28.1916 49.5807 28.385 49.7317 28.5369C49.8827 28.6889 50.0754 28.7927 50.2855 28.8351C50.4955 28.8776 50.7134 28.8568 50.9116 28.7754C51.1098 28.694 51.2794 28.5557 51.399 28.3779C51.5186 28.2001 51.5827 27.9909 51.5834 27.7766C51.5838 27.6343 51.5563 27.4934 51.5022 27.3618C51.4482 27.2302 51.3688 27.1105 51.2685 27.0096C51.1682 26.9087 51.049 26.8285 50.9177 26.7737C50.7865 26.7188 50.6457 26.6904 50.5034 26.6899Z" fill="white"/>
<path d="M33.13 61.6068C33.7265 61.6068 34.21 61.1232 34.21 60.5268C34.21 59.9303 33.7265 59.4468 33.13 59.4468C32.5336 59.4468 32.05 59.9303 32.05 60.5268C32.05 61.1232 32.5336 61.6068 33.13 61.6068Z" fill="white"/>
<path d="M69.1266 59.3734C69.7231 59.3734 70.2066 58.8898 70.2066 58.2934C70.2066 57.6969 69.7231 57.2134 69.1266 57.2134C68.5302 57.2134 68.0466 57.6969 68.0466 58.2934C68.0466 58.8898 68.5302 59.3734 69.1266 59.3734Z" fill="white"/>
</g>
<defs>
<clipPath id="clip0_665_77">
<rect width="100" height="100" fill="white"/>
</clipPath>
</defs>
</svg>
