<svg width="372" height="216" viewBox="0 0 372 216" fill="none" xmlns="http://www.w3.org/2000/svg">
<path d="M12.3896 33.8449L131.584 2.07446" stroke="white" stroke-miterlimit="10"/>
<path d="M8.16513 33.8678C8.16513 33.8678 -6.74408 45.8894 6.45052 59.6677C6.45052 59.6677 6.73439 59.2199 7.17724 58.4506C9.44825 54.4549 15.9888 41.4803 8.31275 33.8678C8.31275 33.8678 131.527 -0.141587 139.35 1.02957C147.174 2.20072 163.991 1.02957 163.991 1.02957L14.7057 33.8678" stroke="white" stroke-miterlimit="10"/>
<path d="M138.572 22.6392C138.572 22.6392 89.2935 34.2955 88.1289 36.55" stroke="white" stroke-miterlimit="10"/>
<path d="M101.106 32.2373L61.4883 49.2879" stroke="white" stroke-miterlimit="10"/>
<path d="M88.4227 36.2446L59.8874 41.9052L66.5529 43.9605C66.5529 43.9605 13.3544 53.5593 9.00537 55.029" stroke="white" stroke-miterlimit="10"/>
<path d="M97.1891 33.8447L64.8612 45.5678L16.0117 58.4734L6.45068 59.6446" stroke="white" stroke-miterlimit="10"/>
<path d="M6.45086 59.4267L7.75669 69.8982H5.28129C5.28129 69.8982 3.9868 73.8594 2.68097 73.8594C1.37513 73.8594 13.843 89.3945 16.5909 85.5825C19.3389 81.7705 5.57652 71.8042 5.57652 71.8042C5.57652 71.8042 17.4653 92.3223 35.0089 87.6377L34.2821 83.3894L45.1262 85.5365C45.1262 85.5365 52.3708 85.3529 65.2815 74.8239C65.2815 74.8239 70.2777 71.1612 64.3277 48.0022" stroke="white" stroke-miterlimit="10"/>
<path d="M35.0083 87.6377L40.5155 113.587" stroke="white" stroke-miterlimit="10"/>
<path d="M35.0083 83.5386L40.5155 99.9577" stroke="white" stroke-miterlimit="10"/>
<path d="M45.1489 85.5938L46.4775 110.36" stroke="white" stroke-miterlimit="10"/>
<path d="M42.855 94.9631C42.855 94.9631 45.4666 117.835 43.8656 119.592L45.1714 127.951" stroke="white" stroke-miterlimit="10"/>
<path d="M45.126 114.459C45.6733 114.749 46.2901 114.878 46.9063 114.831C47.5225 114.785 48.1135 114.564 48.612 114.195C49.4296 113.506 50.0768 111.233 50.4742 109.844" stroke="white" stroke-miterlimit="10"/>
<path d="M50.4062 110.016C50.4062 110.016 60.8075 117.835 65.4404 118.57C62.0338 117.284 61.6705 118.018 69.6531 118.57C69.6531 118.57 81.1558 123.369 79.1346 128.054" stroke="white" stroke-miterlimit="10"/>
<path d="M36.2354 93.4246C36.2354 93.4246 35.8607 128.823 36.2354 129.271C36.2354 129.271 36.7918 135.012 38.9152 134.392" stroke="white" stroke-miterlimit="10"/>
<path d="M23.8585 129.099C23.8585 129.099 19.9296 139.926 23.8585 143.463C26.5889 144.555 29.398 145.434 32.2612 146.092C37.9387 147.401 44.8426 148.331 45.8192 149.054C48.5444 151.041 46.4891 138.939 46.4891 138.939C43.0258 135.563 32.863 132.934 32.863 132.934C27.5034 127.801 23.8812 129.271 23.8812 129.271C24.131 125.723 36.0425 117.502 36.0425 117.502" stroke="white" stroke-miterlimit="10"/>
<path d="M25.4575 130.834L32.3361 133.925L39.2147 137.017" stroke="white" stroke-miterlimit="10"/>
<path d="M25.4575 135.471L36.1575 138.562" stroke="white" stroke-miterlimit="10"/>
<path d="M25.4575 140.108L35.9741 141.924" stroke="white" stroke-miterlimit="10"/>
<path d="M25.4575 143.199L35.9741 145.015" stroke="white" stroke-miterlimit="10"/>
<path d="M46.4775 138.652C46.4775 138.652 46.8409 139.961 55.0506 137.377C55.0506 137.377 77.9538 132.348 79.1688 127.951C79.1688 127.951 74.7744 140.581 78.0333 140.133" stroke="white" stroke-miterlimit="10"/>
<path d="M78.6799 131.12L78.4414 144.565" stroke="white" stroke-miterlimit="10"/>
<path d="M46.4775 149.272L51.9166 149.64C70.2323 142.751 78.2036 144.312 78.2036 144.312" stroke="white" stroke-miterlimit="10"/>
<path d="M166.818 17.9539C166.818 17.9539 211.66 22.9485 320.668 23.7981C320.668 23.7981 343.469 22.96 352.746 20.8817H370.914L366.668 157.16C366.668 157.16 363.579 166.541 366.282 190.779C366.282 190.779 236.016 177.495 201.224 179.447" stroke="white" stroke-miterlimit="10"/>
<path d="M202.144 178.471C202.144 178.471 154.839 176.278 154.839 174.326V158.917" stroke="white" stroke-miterlimit="10"/>
<path d="M152.909 23.8096L154.839 91.748" stroke="white" stroke-miterlimit="10"/>
<path d="M170.463 112.427C170.463 112.427 171.985 104.08 170.645 104.045C170.645 104.045 172.711 95.721 170.1 94.8598C170.1 94.8598 170.316 87.7181 169.373 87.167" stroke="white" stroke-miterlimit="10"/>
<path d="M168.078 93.5735C168.078 93.5735 169.816 89.4286 168.078 87.6029C166.341 85.7773 168.851 81.7013 168.851 81.7013C169.183 79.9296 169.093 78.1034 168.589 76.3736C168.589 76.3736 168.589 76.2588 168.589 76.2014" stroke="white" stroke-miterlimit="10"/>
<path d="M168.555 76.2591C168.555 76.2591 171.44 72.6537 169.384 69.0599C169.384 69.0599 168.51 50.5166 168.033 47.7265C168.033 47.7265 165.353 29.1603 176.152 30.3085L216.099 31.2041" stroke="white" stroke-miterlimit="10"/>
<path d="M232.916 31.6976C232.916 31.6976 339.415 28.563 339.029 31.6976" stroke="white" stroke-miterlimit="10"/>
<path d="M341.153 30.9973C341.153 30.9973 350.43 31.1121 346.569 50.6543C346.569 50.6543 355.438 64.1341 344.298 151.695" stroke="white" stroke-miterlimit="10"/>
<path d="M343.662 153.647C343.662 153.647 346.569 181.204 333.443 180.228" stroke="white" stroke-miterlimit="10"/>
<path d="M331.126 178.276L270.445 177.403L198.851 170.376" stroke="white" stroke-miterlimit="10"/>
<path d="M170.986 141.339C170.986 141.339 168.942 143.486 174.392 145.438L175.744 158.527C175.744 158.527 173.041 165.175 181.353 165.565L223.662 170.744" stroke="white" stroke-miterlimit="10"/>
<path d="M156.405 210.689C156.405 210.689 153.408 213.766 151.239 213.33" stroke="white" stroke-miterlimit="10"/>
<path d="M150.955 213.054C150.955 213.054 152.954 208.76 156.144 210.62" stroke="white" stroke-miterlimit="10"/>
<path d="M163.536 126.481C163.536 138.95 153.169 149.054 140.383 149.054C132.253 149.054 127.245 145.001 122.215 139.57C119.626 136.815 119.342 133.829 117.934 130.729C117.418 129.377 117.197 127.928 117.287 126.481C117.287 114.012 127.654 103.907 140.429 103.907C148.377 103.907 156.235 107.674 160.391 113.679C162.844 117.284 163.536 121.808 163.536 126.481Z" stroke="white" stroke-miterlimit="10"/>
<path d="M163.321 122.37C162.408 119.955 161.149 117.688 159.585 115.642C159.46 115.458 159.312 115.274 159.176 115.091L158.745 114.551C156.112 111.335 152.818 108.736 149.093 106.936C145.367 105.135 141.299 104.176 137.17 104.125" stroke="white" stroke-miterlimit="10"/>
<path d="M158.279 114L156.405 115.389C167.42 127.905 158.04 141.063 158.04 141.063" stroke="white" stroke-miterlimit="10"/>
<path d="M155.543 111.222C155.543 111.222 141.11 104.665 137.636 104.78C137.473 104.777 137.311 104.804 137.159 104.861" stroke="white" stroke-miterlimit="10"/>
<path d="M118.423 122.014C118.423 122.014 124.1 106.525 137.636 104.792" stroke="white" stroke-miterlimit="10"/>
<path d="M141.474 147.539C141.474 147.539 122.34 148.859 118.423 122.841" stroke="white" stroke-miterlimit="10"/>
<path d="M169.032 130.029L172.007 134.357L173.779 129.673" stroke="white" stroke-miterlimit="10"/>
<path d="M178.605 133.393L172.007 134.358" stroke="white" stroke-miterlimit="10"/>
<path d="M175.709 137.618L172.007 135.575C166.33 147.803 144.403 149.054 144.403 149.054" stroke="white" stroke-miterlimit="10"/>
<path d="M141.008 153.119L141.473 191.859" stroke="white" stroke-miterlimit="10"/>
<path d="M137.863 152.705L139.498 191.17C140.463 190.022 136.092 152.878 136.092 152.878" stroke="white" stroke-miterlimit="10"/>
<path d="M142.564 149.973C142.564 149.973 165.274 158.802 165.456 161.076C165.637 163.349 165.456 155.335 165.456 155.335" stroke="white" stroke-miterlimit="10"/>
<path d="M169.033 167.012L165.524 161.478L171.406 160.927" stroke="white" stroke-miterlimit="10"/>
<path d="M163.321 163.349L165.104 160.927" stroke="white" stroke-miterlimit="10"/>
<path d="M137.59 151.305L130.584 149.422C130.584 149.422 129.994 152.763 130.97 154.531L143.62 149.422C143.62 149.422 146.038 151.718 144.403 153.601L137.59 151.305Z" stroke="white" stroke-miterlimit="10"/>
<path d="M150.876 213.353C151.932 196.475 141.792 193.133 140.963 193.317" stroke="white" stroke-miterlimit="10"/>
<path d="M139.123 193.064C137.545 192.318 130.266 199.954 133.866 214.352C132.015 212.836 130.028 210.195 127.155 214.019C127.007 214.742 127.643 215.167 134.286 214.937" stroke="white" stroke-miterlimit="10"/>
<path d="M65.6058 109.966L94.3547 81.3723" stroke="white" stroke-width="0.5" stroke-miterlimit="10"/>
<path d="M104.943 69.2204L152.949 21.4931" stroke="white" stroke-width="0.5" stroke-miterlimit="10"/>
<path d="M82.5068 124.609L109.509 119.041" stroke="white" stroke-width="0.5" stroke-miterlimit="10"/>
<path d="M163.321 106.548L358.265 44.3967" stroke="white" stroke-width="0.5" stroke-miterlimit="10"/>
<path d="M79.9863 108.006L125.634 69.3237" stroke="white" stroke-width="0.5" stroke-miterlimit="10"/>
<path d="M85.7432 117.502L205.187 62.8711" stroke="white" stroke-width="0.5" stroke-miterlimit="10"/>
<path d="M88.207 108.007L235.051 28.5747" stroke="white" stroke-width="0.5" stroke-miterlimit="10"/>
<path d="M179.604 38.828L179.377 42.3414V51.8025C179.377 51.8025 178.151 59.7824 186.054 59.2772C193.957 58.772 201.418 58.8294 201.418 58.8294C201.418 58.8294 202.86 38.4605 200.907 38.162L180.899 37.1401C180.899 37.1401 179.241 35.9919 179.309 39.1954" stroke="white" stroke-width="0.5" stroke-miterlimit="10"/>
<path d="M191.924 71.4597L237.458 70.5871C238.097 70.5177 238.742 70.5987 239.344 70.824C239.947 71.0492 240.489 71.4124 240.929 71.8852C241.369 72.358 241.695 72.9274 241.881 73.5488C242.066 74.1702 242.107 74.8268 242 75.4669C241.716 80.7486 242.488 105.94 244.271 107.995C246.054 110.05 242.341 112.404 242.341 112.404L189.086 110.165C189.086 110.165 184.839 101.072 187.734 75.4669" stroke="white" stroke-width="0.5" stroke-miterlimit="10"/>
<path d="M273.363 76.8448C273.363 76.8448 270.172 80.2894 266.698 78.6934C266.607 78.6934 266.618 78.5212 266.584 78.4408C264.143 73.3199 259.93 77.8667 259.771 77.8667" stroke="white" stroke-width="0.5" stroke-miterlimit="10"/>
<path d="M273.659 76.7874C273.659 76.7874 279.336 81.185 281.38 79.8186C283.424 78.4523 285.786 76.7874 285.786 76.7874C285.786 76.7874 286.456 75.3292 294.382 79.4282" stroke="white" stroke-width="0.5" stroke-miterlimit="10"/>
<path d="M294.382 79.1067C300.281 79.1777 306.173 78.6585 311.971 77.5566" stroke="white" stroke-width="0.5" stroke-miterlimit="10"/>
<path d="M311.3 77.4974L318.943 78.9573C318.943 78.9573 311.3 77.0471 311.3 77.4974Z" stroke="white" stroke-width="0.5" stroke-miterlimit="10"/>
<path d="M257.568 96.1918C257.568 96.1918 263.314 88.6138 270.059 94.8255C276.804 101.037 284.503 94.6762 284.503 94.6762C284.503 94.6762 307.213 94.1366 308.564 91.6909" stroke="white" stroke-width="0.5" stroke-miterlimit="10"/>
<path d="M257.568 109.04C257.568 109.04 270.218 104.734 280.131 110.108C290.044 115.481 300.854 108.764 300.854 108.764C300.854 108.764 316.274 111.773 319.022 106.548" stroke="white" stroke-width="0.5" stroke-miterlimit="10"/>
<path d="M270.99 42.0547L269.639 49.1849C269.639 49.1849 288.682 47.9105 292.258 50.2642L291.872 42.0547H271.581" stroke="white" stroke-width="0.5" stroke-miterlimit="10"/>
<path d="M299.695 42.0547V50.2642C299.695 50.2642 322.985 50.2642 324.676 51.7224C326.368 53.1806 324.2 42.0547 324.2 42.0547H300.763" stroke="white" stroke-width="0.5" stroke-miterlimit="10"/>
<path d="M332.75 41.1704V50.2641C332.75 50.2641 339.325 51.1367 340.188 49.4833C341.051 47.8299 341.153 41.1704 341.153 41.1704H332.75Z" stroke="white" stroke-width="0.5" stroke-miterlimit="10"/>
</svg>
