<svg width="146" height="59" viewBox="0 0 146 59" fill="none" xmlns="http://www.w3.org/2000/svg">
<path d="M22.96 40.0573L37.5847 24.8571L41 28.4076L20.5 49.7143L0 28.4076L3.4153 24.8571L18.04 40.0573V0H22.96V40.0573ZM0 53.0286H41V58H0V53.0286Z" fill="#FFC772"/>
<path d="M84.28 19.08C87 22.16 88.36 26.3 88.36 31.5C88.36 36.82 86.98 40.98 84.22 43.98C81.54 47.02 77.78 48.54 72.94 48.54C70.1 48.54 67.64 47.98 65.56 46.86C63.52 45.78 61.86 44.18 60.58 42.06V58.86H58V15.12H60.4V21.6C61.68 19.36 63.38 17.62 65.5 16.38C67.62 15.14 70.14 14.52 73.06 14.52C77.86 14.52 81.6 16.04 84.28 19.08ZM82.3 42.3C84.58 39.66 85.72 36.08 85.72 31.56C85.72 27 84.6 23.42 82.36 20.82C80.12 18.18 77.02 16.86 73.06 16.86C69.14 16.86 66.1 18.02 63.94 20.34C61.78 22.5 60.66 25.68 60.58 29.88V32.82C60.58 37.06 61.66 40.34 63.82 42.66C65.94 45.02 68.98 46.2 72.94 46.2C76.94 46.2 80.06 44.9 82.3 42.3Z" fill="#FFC772"/>
<path d="M122.142 4.26V47.94H119.682V41.64C118.402 43.8 116.722 45.48 114.642 46.68C112.522 47.92 110.022 48.54 107.142 48.54C102.382 48.54 98.6219 47.02 95.8619 43.98C93.1019 40.98 91.7219 36.86 91.7219 31.62C91.7219 26.34 93.0819 22.16 95.8019 19.08C98.4819 16.04 102.242 14.52 107.082 14.52C109.842 14.52 112.302 15.08 114.462 16.2C116.542 17.32 118.222 18.92 119.502 21V4.26H122.142ZM119.502 30.24C119.502 26 118.402 22.72 116.202 20.4C114.042 18.04 111.002 16.86 107.082 16.86C103.082 16.86 99.9819 18.18 97.7819 20.82C95.5419 23.42 94.4219 27 94.4219 31.56C94.4219 36.08 95.5619 39.66 97.8419 42.3C100.082 44.9 103.182 46.2 107.142 46.2C111.062 46.2 114.102 45.06 116.262 42.78C118.422 40.46 119.502 37.22 119.502 33.06V30.24Z" fill="#FFC772"/>
<path d="M145.597 4.26V6.66H138.217C136.537 6.66 135.217 7.24 134.257 8.4C133.297 9.56 132.817 11.18 132.817 13.26V15.24H143.257V17.58H132.817V48H130.237V17.58H125.377V15.24H130.237V13.26C130.237 10.38 130.937 8.18 132.337 6.66C133.817 5.06 135.777 4.26 138.217 4.26H145.597Z" fill="#FFC772"/>
</svg>
