<svg width="116" height="36" viewBox="0 0 116 36" fill="none" xmlns="http://www.w3.org/2000/svg">
<path d="M49.2946 8.53515H49.2749L47.6974 16.8905H45.5285L43.4778 6.69616H45.213L46.6327 14.5518H46.6524L48.1707 6.69616H50.4185L51.917 14.5518H51.9368L53.4156 6.69616H55.0916L53.0212 16.8905H50.8129L49.2946 8.53515ZM57.6944 9.23477C59.2127 9.23477 60.9478 10.0343 60.9478 13.0926C60.9478 16.2509 59.2127 16.9705 57.6944 16.9705C56.1761 16.9705 54.4212 16.2309 54.4212 13.0926C54.4409 10.0343 56.1958 9.23477 57.6944 9.23477ZM57.6944 15.7112C58.838 15.7112 59.1141 14.3719 59.1141 13.1126C59.1141 11.8533 58.8577 10.534 57.6944 10.534C56.531 10.534 56.2747 11.8533 56.2747 13.1126C56.2747 14.3719 56.5507 15.7112 57.6944 15.7112ZM61.8351 10.594C61.8351 10.1742 61.8154 9.77447 61.776 9.3547H63.3928C63.4125 9.81445 63.452 10.2742 63.452 10.7339H63.4717C63.6886 10.1543 64.2407 9.25475 65.3646 9.25475C65.4632 9.25475 65.5618 9.27474 65.6604 9.29473V10.9938C65.5026 10.9538 65.3252 10.9138 65.1674 10.9138C64.4379 10.9138 63.6294 11.3736 63.6294 12.7728V16.8905H61.8548L61.8351 10.594ZM66.4294 5.93658H68.2237V16.8706H66.4294V5.93658ZM75.4996 5.93658V15.5913C75.4996 16.011 75.5193 16.4508 75.5587 16.8706H73.8827C73.8433 16.4908 73.8236 16.091 73.8236 15.7112H73.7841C73.4884 16.3508 72.956 16.9905 71.8123 16.9905C69.9786 16.9905 69.2096 15.2115 69.2096 13.1326C69.2096 10.674 70.1758 9.25475 71.7729 9.25475C72.6011 9.21478 73.3503 9.69451 73.6855 10.4541H73.7053V5.93658H75.4996ZM72.2856 15.6512C73.3306 15.6512 73.6855 14.4919 73.6855 13.0926C73.6855 11.6334 73.2912 10.574 72.3053 10.574C71.3194 10.574 70.9645 11.5535 70.9645 13.0527C70.9842 14.7917 71.2602 15.6512 72.2856 15.6512ZM80.8037 6.69616H82.6572V10.8339H85.6345V6.69616H87.4683V16.8905H85.6345V12.373H82.6572V16.8706H80.8037V6.69616ZM93.9949 16.5108C93.3048 16.8306 92.5358 16.9905 91.7865 16.9905C89.4007 16.9905 88.3556 15.2515 88.3556 13.2326C88.3556 10.9938 89.519 9.25475 91.4119 9.25475C93.009 9.25475 94.3695 10.1942 94.3695 13.2725V13.6323H90.0908C90.0908 14.9116 90.6034 15.6912 91.9837 15.6912C93.0682 15.6912 93.6005 15.3514 93.9358 15.1115L93.9949 16.5108ZM92.6344 12.473C92.6344 11.1537 92.2006 10.4741 91.3922 10.4741C90.4457 10.4741 90.0711 11.4735 90.0711 12.473H92.6344ZM95.5132 9.79446C96.2427 9.43466 97.0512 9.23477 97.8596 9.23477C100.167 9.23477 100.699 10.3741 100.699 12.2531V15.5313C100.699 15.9711 100.738 16.4108 100.798 16.8506H99.1807C99.1018 16.5108 99.0624 16.1709 99.0821 15.8311H99.0624C98.6089 16.4508 98.0568 16.9705 96.992 16.9705C95.8484 16.9705 94.7836 16.1709 94.7836 14.7717C94.7836 12.7328 96.4202 12.2131 98.6878 12.2131H99.0427V11.9333C99.0427 11.1937 98.6877 10.4941 97.6624 10.4941C96.9329 10.5141 96.223 10.7739 95.6315 11.2337L95.5132 9.79446ZM99.023 13.1926H98.8652C97.3469 13.1926 96.4399 13.5124 96.4399 14.6118C96.4005 15.2115 96.854 15.7312 97.4455 15.7712H97.5835C98.6483 15.7712 99.0427 14.9716 99.0427 13.6323V13.1926H99.023ZM102.336 5.93658H104.11V16.8706H102.336V5.93658ZM106.161 7.81555L107.935 7.25585V9.3547H109.414V10.674H107.935V14.5918C107.935 15.3914 108.231 15.6312 108.744 15.6312C108.98 15.6312 109.217 15.5713 109.414 15.4713V16.7506C109.04 16.9105 108.626 16.9905 108.211 16.9905C106.89 16.9905 106.141 16.3708 106.141 14.7917V10.694H104.958V9.37469H106.141V7.81555H106.161ZM109.986 5.93658H111.761V10.3342H111.8C112.116 9.87441 112.53 9.25475 113.634 9.25475C115.31 9.25475 115.823 10.5141 115.823 12.0332V16.8706H114.048V12.373C114.048 11.2137 113.752 10.7339 113.023 10.7339C112.096 10.7339 111.761 11.5335 111.761 12.493V16.8706H109.986V5.93658ZM47.5594 19.5891C49.6495 19.5891 51.5621 21.1682 51.5621 24.8262C51.5621 28.4842 49.6495 30.0633 47.5594 30.0633C45.4693 30.0633 43.5567 28.4842 43.5567 24.8262C43.5567 21.1682 45.4693 19.5891 47.5594 19.5891ZM47.5594 28.6441C48.7228 28.6441 49.6692 27.6446 49.6692 24.8262C49.6692 22.0077 48.7228 21.0283 47.5594 21.0283C46.3961 21.0283 45.4496 22.0277 45.4496 24.8262C45.4496 27.6246 46.3961 28.6441 47.5594 28.6441ZM52.3114 23.6468C52.3114 23.2271 52.2917 22.8273 52.2523 22.4075H53.8691C53.8888 22.8673 53.9283 23.327 53.9283 23.7868H53.948C54.1649 23.2071 54.7367 22.3076 55.8409 22.3076C55.9395 22.3076 56.0381 22.3276 56.1367 22.3475V24.0466C55.9789 24.0066 55.8015 23.9667 55.624 23.9667C54.8944 23.9667 54.086 24.4264 54.086 25.8256V29.9434H52.3114V23.6468ZM57.0043 31.1027C57.6747 31.5025 58.4239 31.7224 59.1929 31.7424C60.8689 31.7424 61.145 30.563 61.145 29.3837V28.6641H61.1253C60.8295 29.2437 60.3366 29.9434 59.1732 29.9434C58.1479 29.9434 56.5902 29.2437 56.5902 26.2054C56.5902 24.1266 57.3197 22.3076 59.2718 22.3076C60.3563 22.3076 60.8492 22.9272 61.2239 23.5869H61.283C61.283 23.1871 61.3225 22.8073 61.3422 22.4275H62.959C62.9393 22.8273 62.8999 23.2071 62.8999 23.6069V29.1438C62.8999 31.5025 62.19 33.1616 59.469 33.1616C58.6014 33.1616 57.7338 33.0017 56.9254 32.7018L57.0043 31.1027ZM59.5873 28.6041C60.7112 28.6041 61.1647 27.7845 61.1647 26.0855C61.1647 24.5064 60.5732 23.6668 59.7253 23.6868C58.7789 23.7068 58.4239 24.5863 58.4239 26.1055C58.4239 27.8645 58.976 28.6041 59.5873 28.6041ZM64.4773 22.8473C65.2069 22.4675 66.0153 22.2876 66.8237 22.2876C69.1307 22.2876 69.6631 23.427 69.6631 25.3059V28.5841C69.6631 29.0239 69.7025 29.4636 69.7617 29.9034H68.1448C68.066 29.5636 68.0265 29.2238 68.0462 28.8839H68.0265C67.573 29.5036 67.0209 30.0233 65.9561 30.0233C64.8125 30.0233 63.7477 29.2238 63.7477 27.8245C63.7477 25.7857 65.3843 25.2659 67.6519 25.2659H68.0068V24.9861C68.0068 24.2465 67.6519 23.5469 66.6266 23.5469C65.897 23.5669 65.1872 23.8267 64.5956 24.2865L64.4773 22.8473ZM67.9871 26.2454H67.8293C66.3111 26.2454 65.4041 26.5652 65.4041 27.6646C65.3646 28.2643 65.8181 28.784 66.4097 28.824H66.5477C67.6124 28.824 68.0068 28.0244 68.0068 26.6852L67.9871 26.2454ZM71.1025 23.6468C71.1025 23.2271 71.0828 22.8273 71.0433 22.4075H72.7194C72.7391 22.7873 72.7785 23.1871 72.7785 23.5669H72.7982C73.0546 23.1071 73.5672 22.3076 74.77 22.3076C76.446 22.3076 76.9587 23.5669 76.9587 25.086V29.9234H75.1644V25.4059C75.1644 24.2465 74.8686 23.7668 74.139 23.7668C73.2123 23.7668 72.8771 24.5663 72.8771 25.5258V29.9034H71.1025V23.6468ZM78.3192 19.2093H80.1727V20.9883H78.3192V19.2093ZM78.3587 22.4075H80.1333V29.9234H78.3587V22.4075ZM81.5332 28.3642L84.7078 23.7868H81.6318V22.4075H86.4824V23.9467L83.367 28.5441H86.581V29.9234H81.5135V28.3642H81.5332ZM87.9415 22.8473C88.6711 22.4675 89.4795 22.2876 90.2879 22.2876C92.5949 22.2876 93.1273 23.427 93.1273 25.3059V28.5841C93.1273 29.0239 93.1668 29.4636 93.2259 29.9034H91.609C91.5302 29.5636 91.4907 29.2238 91.5105 28.8839H91.4907C91.0372 29.5036 90.4851 30.0233 89.4204 30.0233C88.2767 30.0233 87.212 29.2238 87.212 27.8245C87.212 25.7857 88.8485 25.2659 91.1161 25.2659H91.471V24.9861C91.471 24.2465 91.1161 23.5469 90.0908 23.5469C89.3612 23.5669 88.6514 23.8267 88.0598 24.2865L87.9415 22.8473ZM91.4513 26.2454H91.2936C89.7753 26.2454 88.8683 26.5652 88.8683 27.6646C88.8288 28.2643 89.2823 28.784 89.8739 28.824H90.0119C91.0767 28.824 91.471 28.0244 91.471 26.6852V26.2454H91.4513ZM95.0597 20.8684L96.8343 20.3087V22.4075H98.3131V23.7268H96.8343V27.6246C96.8343 28.4242 97.13 28.6641 97.6427 28.6641C97.8793 28.6641 98.1159 28.6241 98.3131 28.5042V29.7834C97.9385 29.9634 97.5244 30.0433 97.1103 30.0233C95.7892 30.0233 95.0399 29.4037 95.0399 27.8445V23.7268H93.8569V22.4075H95.0399L95.0597 20.8684ZM99.3976 19.2093H101.231V20.9883H99.3976V19.2093ZM99.437 22.4075H101.231V29.9234H99.4567L99.437 22.4075ZM105.471 22.2876C106.989 22.2876 108.724 23.0871 108.724 26.1455C108.724 29.3037 106.989 30.0233 105.471 30.0233C103.952 30.0233 102.198 29.3037 102.198 26.1455C102.217 23.1071 103.972 22.2876 105.471 22.2876ZM105.471 28.764C106.614 28.764 106.89 27.4247 106.89 26.1654C106.89 24.9061 106.634 23.5869 105.471 23.5869C104.307 23.5869 104.051 24.9061 104.051 26.1654C104.051 27.4247 104.327 28.764 105.471 28.764ZM110.144 23.6468C110.144 23.2271 110.124 22.8273 110.085 22.4075H111.761C111.78 22.7873 111.82 23.1871 111.82 23.5669H111.84C112.096 23.1071 112.609 22.3076 113.811 22.3076C115.487 22.3076 116 23.5669 116 25.086V29.9234H114.225V25.4059C114.225 24.2465 113.93 23.7668 113.2 23.7668C112.273 23.7668 111.938 24.5663 111.938 25.5258V29.9034H110.164L110.144 23.6468ZM32.7119 6.59622C33.4809 7.5357 34.8217 8.0754 35.6104 9.01489C35.0386 6.2564 32.9485 3.99765 30.4641 3.45795C31.6866 4.37744 31.9429 5.65674 32.7119 6.59622ZM2.89852 13.5924C4.61397 9.81445 7.15757 10.614 8.24205 7.03598C7.61108 8.11538 4.83087 8.57513 3.54921 11.3936C4.21962 9.7145 3.88441 7.15591 4.98861 5.75668C1.6563 8.27529 3.07598 12.3131 2.89852 13.5924ZM5.9745 22.6274C6.28999 24.0866 5.38297 26.2254 6.82237 28.2443C5.34353 26.5652 2.18868 26.1255 0.90702 23.5669C2.50416 29.8234 6.68435 28.5441 8.55754 29.9034C7.01955 27.6446 8.28149 26.1455 5.9745 22.6274ZM5.50128 26.5652C4.57454 23.0671 6.21112 21.8478 4.96889 18.4897C4.85059 20.3886 3.58865 21.3081 4.43651 24.7662C2.95767 21.8278 0.670406 20.7284 0 18.7295C0.0394357 24.2265 4.39708 25.0461 5.50128 26.5652ZM12.1856 32.422C10.904 30.623 11.7715 29.6035 8.1829 26.3453C8.9519 27.5447 8.16318 29.0439 10.5885 31.3626C8.22234 29.9434 4.92946 30.543 3.35203 28.6441C6.07309 33.9212 10.8448 31.7624 12.1856 32.422ZM29.6359 31.3626C32.0612 29.0239 31.2725 27.5247 32.0415 26.3453C28.4331 29.6035 29.3204 30.623 28.019 32.422C29.3796 31.7624 34.1513 33.9212 36.8526 28.6441C35.2949 30.563 32.002 29.9434 29.6359 31.3626ZM33.402 28.2443C34.8414 26.2254 33.9344 24.1066 34.2302 22.6274C31.9232 26.1455 33.1851 27.6446 31.6471 29.9034C33.54 28.5441 37.7005 29.8234 39.2976 23.5669C38.016 26.1255 34.8808 26.5652 33.402 28.2443ZM27.6444 32.6819C26.3627 32.342 25.0416 32.1222 23.7008 32.0822C22.4783 32.0622 21.2558 32.2621 20.1122 32.7018C18.9686 32.2621 17.746 32.0622 16.5235 32.0822C15.1827 32.1222 13.8616 32.342 12.58 32.6819C10.411 33.2615 8.53782 33.7213 6.90124 32.8817C8.45895 34.281 10.2927 34.8007 12.9349 34.5009C15.1236 34.261 16.8982 33.1416 18.9686 33.1616H19.0474C17.746 33.8212 16.5827 34.7407 15.6362 35.8601L16.6418 36C16.6418 36 17.6869 33.8612 20.1122 33.3015C22.5375 33.8612 23.5825 36 23.5825 36L24.5881 35.8601C23.6417 34.7407 22.4783 33.8212 21.177 33.1616H21.2558C23.3262 33.1416 25.1008 34.261 27.2895 34.5009C29.9317 34.7807 31.7457 34.281 33.3231 32.8817C31.6866 33.7213 29.8134 33.2615 27.6444 32.6819ZM5.12664 14.6918C4.23933 16.4308 2.83937 16.8306 2.99711 20.4086C2.24783 17.2304 0.45351 16.031 0.473228 14.0121C-0.768995 19.3292 2.5436 19.9489 3.41118 22.1876C3.27316 18.9894 5.28438 18.3497 5.12664 14.6918ZM6.36886 10.594C6.05337 11.0338 5.83648 11.2337 5.00833 11.9133C3.76611 12.9127 2.89852 14.332 2.60275 15.9111C2.68163 13.9522 1.49856 11.1537 2.28727 9.11483C-0.768995 13.4924 2.46473 16.111 2.58304 17.7101C3.35203 14.6518 5.18579 14.6318 6.36886 10.594ZM37.6216 15.9111C37.3061 14.332 36.4583 12.9127 35.216 11.9133C34.3879 11.2137 34.171 11.0338 33.8555 10.594C35.0386 14.6318 36.8723 14.6518 37.6611 17.7101C37.7794 16.131 41.0131 13.5124 37.9568 9.11483C38.7455 11.1537 37.5625 13.9522 37.6216 15.9111ZM40.2244 18.7295C39.554 20.7484 37.2667 21.8278 35.7879 24.7662C36.6357 21.3081 35.3738 20.3886 35.2555 18.4897C34.0133 21.8478 35.6498 23.0671 34.7231 26.5652C35.8273 25.0461 40.1849 24.2265 40.2244 18.7295ZM35.0977 14.6918C34.9203 18.3497 36.9512 18.9894 36.8132 22.1876C37.6611 19.9689 40.9934 19.3292 39.7512 14.0121C39.7709 16.051 37.9765 17.2304 37.2273 20.4286C37.385 16.8106 36.0048 16.4308 35.0977 14.6918ZM7.51249 6.59622C8.28149 5.65674 8.53782 4.37744 9.76033 3.45795C7.25616 3.99765 5.16607 6.23642 4.59425 8.9949C5.38297 8.05541 6.7435 7.51571 7.51249 6.59622ZM32.002 6.996C33.0865 10.594 35.6301 9.79446 37.3456 13.5524C37.1681 12.2931 38.5878 8.23532 35.2555 5.75668C36.3794 7.13592 36.0442 9.7145 36.6949 11.3936C35.3935 8.57513 32.6133 8.11538 32.002 6.996ZM23.3262 9.05486C22.6755 8.77502 21.9854 8.59512 21.2953 8.49517V8.95492C21.9459 9.05486 22.5769 9.23477 23.1685 9.47463C23.2473 9.33471 23.3065 9.19479 23.3262 9.05486ZM22.8135 4.59732L22.9516 4.47738L22.6952 4.35745L22.0051 4.33746L21.8276 4.4574L21.4333 4.41742V4.51736C21.6896 4.53735 21.9459 4.55734 22.1431 4.59732L22.4783 4.57733L22.8135 4.59732ZM21.5122 19.5091C21.5122 19.3892 21.3544 19.2692 21.1375 19.1693H21.0981C21.0981 19.2692 21.0784 19.729 21.0784 19.9689C21.3347 19.8289 21.5122 19.709 21.5122 19.5091ZM13.6053 10.7339C13.625 10.654 13.6447 10.554 13.6645 10.4741C13.5659 10.4941 13.487 10.5141 13.3884 10.4941L13.6053 10.7339ZM10.4307 7.51571L12.0476 9.15481C10.0955 11.2137 8.99133 13.9722 8.9519 16.8306H6.66463C6.70406 13.3325 8.04488 10.0143 10.4307 7.51571ZM9.44484 20.2687L9.30682 20.2487L9.16879 20.1088L8.5181 20.0488L8.71528 20.3287L8.12375 20.2087L8.28149 20.0688L8.14346 19.9289L7.70967 20.1088L7.55193 20.3886L7.61108 21.0483L8.10403 22.2476L8.34064 22.6274L8.47867 22.6674L8.10403 21.9478L8.02516 21.588L8.10403 21.508L8.04488 21.3081L8.26177 21.3481L8.61669 21.8678L8.69556 21.9078V21.528L8.83359 21.608L8.87302 21.8078L9.22795 21.9078L9.38569 21.7879L9.44484 21.8278V22.1077L9.60258 22.3076L9.79976 22.3475L10.2336 23.0671L10.4899 23.1471L10.5688 22.8073C11.0223 23.5469 11.5349 24.2465 12.1462 24.8662L10.5293 26.5053C8.12578 24.0479 6.74269 20.75 6.66463 17.2903H8.9519C8.97161 18.2898 9.14907 19.3092 9.44484 20.2687ZM11.6927 17.2703C11.6927 17.4902 11.7124 17.7101 11.7518 17.95L11.4758 18.0099L11.4166 18.2898L10.8251 19.0494L10.8448 20.0888L10.2533 20.2887H9.91807C9.60258 19.3092 9.44484 18.3098 9.40541 17.2703H11.6927ZM12.2053 23.8067L12.718 24.1066L12.8166 24.1865L12.442 24.5663C12.2645 24.3864 12.1067 24.2065 11.949 24.0066L12.2053 23.8067ZM14.2954 11.4336L15.9123 13.0727C15.5771 13.4524 15.2813 13.8722 15.0644 14.332H14.9461L14.7095 14.3919H14.6306L14.394 14.6118L14.7095 14.5718L14.9856 14.5119L14.9264 14.5918L14.6898 14.7517H14.5715L14.2166 15.0316L13.8814 14.9916L13.3884 15.9311L13.487 16.111L13.2109 16.4308L13.1715 16.8306H12.1462C12.1659 14.8117 12.9349 12.8928 14.2954 11.4336ZM15.9517 18.2098L16.07 18.1499L16.3658 18.3697L16.2278 18.4697L16.563 18.6896L16.5433 18.4497L16.7207 18.1499L16.9179 18.3497L17.1151 18.6296L16.7602 18.7295L16.9179 19.0494L17.1545 18.9094L17.1151 18.8095L17.2925 18.6896L17.3911 18.1898C17.5292 18.4897 17.7066 18.7695 17.9235 19.0094L16.3066 20.6485C15.5179 19.8089 15.025 18.7295 14.887 17.5702L15.2222 17.93H15.5377L15.9517 18.2098ZM13.625 16.4708L13.6645 16.011L13.9405 15.8511L14.4335 15.9311L14.5123 16.011C14.4729 16.2709 14.4532 16.5507 14.4335 16.8106H13.8814L13.625 16.4708ZM12.8757 18.0699L12.6588 18.4097H12.2842L12.2645 18.3897C12.2053 18.0299 12.1659 17.6501 12.1462 17.2903H12.8363L12.6786 17.85L12.8757 18.0699ZM14.394 22.5874C14.2363 22.4075 14.0588 22.2276 13.9208 22.0477L13.9997 21.468L13.763 20.9083L13.7039 20.0288L13.4278 19.4891L13.487 19.1493L13.1518 18.5097L12.8757 18.3697L12.9941 18.0299L12.8757 17.7701L12.9941 17.4702H13.3095L13.4278 17.2903H13.9602L14.0391 17.4502L13.9208 17.9899L13.8616 18.0899L14.0588 18.5296L13.9208 18.6096L13.8222 18.4897L13.7828 18.5296L13.8814 18.7895L14.0391 19.0893H14.118L14.1574 18.8095L14.0785 18.7095V18.5296L14.0588 18.1499L14.1771 17.4702L14.0588 17.2903H14.4335C14.5123 18.6696 15.0644 19.9689 16.0109 20.9683L14.394 22.5874ZM28.1571 24.8262C30.1091 22.7873 31.233 20.0888 31.2922 17.2703H33.5795C33.5006 20.7084 32.1401 24.0066 29.7542 26.4653L28.1571 24.8262ZM27.5261 24.1865L27.7036 23.9866L27.5261 23.0871L27.4078 23.0472L27.4867 22.8872L27.112 22.7673L27.0331 23.0871L26.9937 23.4869L26.9148 23.5669L26.2247 22.8673C27.6641 21.3481 28.4923 19.3692 28.5711 17.2703H30.8584C30.7795 19.9888 29.7148 22.5674 27.8416 24.5064L27.5261 24.1865ZM25.5149 26.3653L25.7318 25.9056L25.6529 25.7057L25.9684 25.4258V25.2659L25.6923 25.086L25.9092 24.6263L26.2444 24.1865L25.9092 23.8267H25.6529L25.4952 23.5669C25.6332 23.4469 25.7712 23.327 25.8895 23.2071L27.5064 24.8462C26.9148 25.4258 26.2444 25.9456 25.5149 26.3653ZM25.1994 21.8478L24.9825 21.6279L25.1402 21.4081L25.3571 20.9683L25.2783 20.8484L25.4163 20.5285L25.3966 20.2287L25.3177 19.9289L25.1205 19.8689L25.0416 20.0288L24.9233 19.9888C25.1008 19.729 25.2585 19.4292 25.3966 19.1493L25.5937 19.0693L25.7121 18.9094L25.7712 18.9694L25.9092 18.8095L25.7909 18.6696L25.8895 18.6496L26.067 18.7295H26.4219L26.6388 18.6096L27.1909 18.4497L27.0923 18.2698L27.0529 18.0499L27.3486 18.1898L27.4669 18.1299L27.4078 17.89L27.0331 18.0299L26.6388 17.95L26.3233 17.3103H28.0782C27.9993 19.2892 27.2106 21.1682 25.8698 22.5874L25.6332 22.3475L25.7318 22.0277L25.5543 21.3081L25.1994 21.8478ZM24.3712 13.1326L25.9881 11.4935C26.3627 11.9133 26.6979 12.373 26.9937 12.8528L26.7965 12.9127L26.8163 13.2725L27.4078 13.6523C27.5655 13.9921 27.6838 14.332 27.7824 14.6918L27.6838 14.8517L27.4669 15.0116L27.4078 15.3514L27.25 15.4314L27.1317 15.5913L27.0134 15.5313H26.7965L26.9148 15.3514L27.0134 14.8917L27.1712 14.7917L26.7374 14.3719L26.4219 14.4919L26.343 14.8117L26.1458 15.0316L25.9289 14.8517L25.8501 14.6518L25.9684 14.5718L26.0275 14.6918L26.1261 14.6518L26.0867 14.4519H25.9487V14.5318L25.8501 14.5518L25.3571 13.9522L25.1797 13.8122L25.2388 13.7523L25.3966 13.6923L25.2388 13.6323C25.2388 13.6323 25.0614 13.6723 25.0416 13.6723L25.1402 13.8122H24.8839C24.7262 13.5524 24.5684 13.3325 24.3712 13.1326ZM24.6276 22.0677L24.1346 21.9278L23.9769 21.9877L23.7008 21.7679L23.4445 21.6679C23.5825 21.568 23.7008 21.468 23.8191 21.3681L24.2332 21.6679L24.5487 21.8278L24.7064 21.9877L24.6276 22.0677ZM23.76 14.3719L23.9572 14.332V14.292L23.76 14.1521L23.8191 13.7123L24.0558 13.4524C24.2135 13.6323 24.3515 13.8122 24.4895 14.0121L24.4107 14.272L24.1938 14.1121L24.0163 14.1521L24.0952 14.312H24.1741L24.0755 14.5518L24.0163 14.4519L23.76 14.3719ZM26.5008 15.9711L26.9148 15.7512L27.3289 15.6912L27.4275 15.4913L27.6641 15.3514L27.7627 15.1515L27.8416 14.8117C27.881 14.9316 27.9007 15.0516 27.9402 15.1715L27.7233 15.8311V16.051L27.9993 15.5913C28.0585 15.991 28.0979 16.4108 28.1176 16.8106H26.1064L26.067 16.6307L26.3036 16.4508L26.343 16.3309L26.4416 16.2509L26.7177 16.2109L26.7374 16.091L26.5008 15.9711ZM26.9543 10.534L27.5064 10.554L27.6444 10.714L27.5852 10.9538L28.3542 11.4336L28.512 11.4136L29.4782 12.5529L29.8725 12.413C30.5035 13.7923 30.8387 15.3114 30.8584 16.8306H28.5711C28.5711 16.2309 28.4923 15.6512 28.3542 15.0716L28.4528 14.9316L28.5909 14.192L28.4923 13.4125L28.2162 12.513L27.5852 11.5735L27.743 11.6534L27.8219 11.5735L27.3092 11.2137L27.2698 11.3336L27.7824 12.0732L28.0782 12.6729L28.2754 13.2725L28.3345 13.6723L28.4331 14.3519L28.2359 14.3719C28.2359 14.3719 28.019 13.9522 27.9402 13.7723L28.0388 13.6124L27.8416 13.3325V13.0727L27.7036 12.8928L27.5261 12.9127C27.4669 12.7928 27.4078 12.6729 27.3289 12.5729L27.4472 12.6329L27.4867 12.5929L27.4275 12.453L27.5852 12.373L27.5261 12.2931L27.3092 12.373L27.3881 12.0132L27.25 11.9333L27.1317 12.2131C26.8754 11.8333 26.5994 11.4735 26.3036 11.1337L26.9543 10.534ZM29.8725 7.55569C32.2387 10.0543 33.5597 13.3725 33.5992 16.8306H31.3119C31.2922 15.1115 30.8978 13.4125 30.1288 11.8733L30.1486 11.8333L30.3063 11.9133L30.3457 11.7934L29.9317 11.0738L29.4387 10.3941L28.8669 9.91439C28.6697 9.67452 28.4725 9.43466 28.2557 9.19479L29.8725 7.55569ZM20.1319 31.0627C27.8219 31.0627 34.0527 24.7262 34.033 16.9305C34.033 9.69451 28.6303 3.63785 21.5319 2.89825L21.5122 2.97821C21.4924 3.11813 21.453 3.23807 21.4333 3.358C24.4895 3.65784 27.3486 5.01709 29.5373 7.19589L27.9993 8.75503L28.0585 8.47518L27.8613 8.37524L27.605 8.39523L27.6641 8.21533L27.4867 7.57568L27.112 7.15591L25.9092 6.51626L25.8106 6.6362L25.5937 6.69616C26.0078 7.29583 26.2247 8.01544 26.2247 8.73504V9.01489L26.8163 9.77447L26.5402 9.83443L26.7177 10.1143L26.1853 10.654L25.9684 10.2542C25.8698 10.534 25.7318 10.8139 25.574 11.0538L25.6923 11.1537L24.0558 12.7928C23.9572 12.6929 23.8586 12.6129 23.76 12.513C23.6022 12.5929 23.4445 12.6529 23.2868 12.7128L23.4248 12.8128L23.3459 12.8928L23.1487 12.9927L23.0699 13.1926L22.9516 13.0727L22.6164 13.1926L22.7149 13.3525L22.9516 13.2925L23.1093 13.3125L23.129 13.2326L23.2473 13.1726L23.2868 13.1126L23.5037 13.0527H23.6614L23.76 13.1326L23.129 13.7923L23.0896 13.7323L22.4192 13.8522L22.2614 14.0121L22.1234 14.0321L22.5375 13.6323L22.3797 13.5524L21.9854 14.0721L22.1037 14.0521V14.252L22.2417 14.312L22.2614 14.5119L22.0248 14.4719L21.7882 14.5119L21.1967 14.212C21.1967 14.212 21.1572 15.8111 21.1572 16.6107C22.5375 17.0904 24.0163 17.7701 24.0163 19.5691C24.036 20.3287 23.6417 21.0483 23.0107 21.468L22.9713 21.488L22.9318 21.528C22.3797 21.9078 21.6502 22.1077 21.0192 22.3076L20.9995 23.5669C22.0051 24.0666 23.2079 24.8062 23.0896 26.885C23.0699 27.4048 22.8727 27.5447 22.7149 27.5847C22.1234 27.7246 21.5122 27.8245 20.9206 27.8645V28.3243C23.5234 28.1444 25.9684 27.045 27.8613 25.226L29.4782 26.8651C24.2924 31.9423 16.07 31.9423 10.8645 26.905L12.4814 25.2659C14.3546 27.045 16.7799 28.1244 19.3432 28.3243V27.8645C16.8982 27.6646 14.6109 26.6452 12.8363 24.9261L13.2504 24.4864L13.8419 24.5463L14.1574 24.2065L14.9856 24.2465L15.1039 23.9467L15.0644 23.8267C16.2869 24.7662 17.746 25.3659 19.284 25.5258V25.066C17.5883 24.8662 16.0109 24.1466 14.7489 22.9672L16.3658 21.3281C16.7602 21.6879 17.1939 21.9877 17.6869 22.2276C17.7263 22.0677 17.7658 21.9278 17.8446 21.7879C17.4306 21.568 17.0362 21.3081 16.701 21.0083L18.3179 19.3692C18.5742 19.5691 18.87 19.749 19.1657 19.8489V19.3492C18.9686 19.2692 18.7911 19.1493 18.6334 19.0294L19.0869 18.5696C18.9291 18.5296 18.7714 18.4697 18.6136 18.4097L18.2981 18.7295C18.1404 18.5496 18.0024 18.3497 17.9038 18.1499C17.6277 18.0299 17.3517 17.89 17.0954 17.7101C16.1489 17.1304 15.5771 16.071 15.5968 14.9316C15.5771 14.172 15.794 13.4125 16.2475 12.8128L14.6306 11.1737C15.8137 10.0143 17.332 9.27474 18.9488 9.01489V8.55514C17.2137 8.815 15.5771 9.61456 14.3151 10.8539L14.0391 10.574C13.9799 10.674 13.9011 10.8139 13.8222 10.9938L13.9997 11.1737C12.5603 12.7129 11.7518 14.7517 11.7124 16.8706H9.40541C9.44484 14.1321 10.4899 11.5135 12.3631 9.51461L13.0926 10.2542H13.1912C13.3293 10.2342 13.487 10.1942 13.6053 10.1343L12.6786 9.19479C13.1715 8.71505 13.7039 8.27529 14.2757 7.8955C14.3151 7.77557 14.3349 7.65563 14.394 7.55569C14.4926 7.39578 14.6109 7.23587 14.7489 7.07595C13.8814 7.55569 13.0926 8.15536 12.3828 8.85497L10.7659 7.21588C12.9349 5.07705 15.7545 3.73779 18.7911 3.41797C18.7911 3.358 18.7714 3.31802 18.7714 3.31802C18.7517 3.19809 18.7319 3.09814 18.7122 2.95822C11.042 3.75778 5.50128 10.694 6.30971 18.4497C7.05898 25.6257 13.0138 31.0827 20.1319 31.0627ZM26.974 6.65618L26.836 6.43631L26.5402 6.27639L26.3036 6.4563L26.5994 6.61621L26.9346 6.85607L26.974 6.65618ZM25.5937 13.2126L25.6135 13.3925L26.0078 13.2725L26.1261 13.0327L25.8501 12.6729L25.9881 12.453L26.3627 12.7128L26.4219 12.6529L26.343 12.5929L26.2642 12.433L26.4219 12.353L26.2642 12.1532L25.9092 12.3331L25.7909 12.5529L25.7121 12.7528L25.8698 13.0127L25.8106 13.1326L25.5937 13.2126ZM9.0702 23.6069L9.08992 23.5069L8.89274 23.0472L8.65613 22.9472L9.0702 23.6069ZM18.3967 14.8917C18.3967 15.2914 18.6334 15.5513 19.0474 15.7912V15.6113L18.7911 15.3314L18.9291 15.0716L19.0474 15.0316C19.0277 14.5718 19.0277 14.0721 19.0277 13.9921H19.008C18.6136 14.232 18.4165 14.5119 18.3967 14.8917Z" fill="white"/>
<path d="M20.96 24.9463C21.6699 25.3061 22.3403 25.8258 22.6163 26.7853C22.7346 25.1862 21.8473 24.5065 20.9798 24.0268L20.96 24.9463ZM25.7318 8.73523C25.7318 7.27603 24.6867 5.67691 22.1431 5.11722C21.8868 5.07724 21.6304 5.03726 21.3741 5.01727C21.3741 5.23715 21.3544 5.73688 21.3544 5.73688C21.3544 5.89679 21.3347 6.47647 21.3347 6.5964C21.4924 6.61639 21.6699 6.63638 21.8276 6.65637C23.3065 7.01617 23.8388 7.8757 23.8388 8.71524C23.8388 10.0945 22.6755 10.6142 21.2558 11.014L20.7826 11.1339C20.3488 11.2339 19.8953 11.3538 19.4615 11.4737C19.3037 11.5137 19.146 11.5537 18.9883 11.6136C17.4108 12.0934 16.0503 12.8729 16.0503 14.8519C16.0503 16.8308 17.608 17.5504 19.1263 18.0301C19.1263 17.4704 19.1066 16.8907 19.0868 16.331C18.3967 16.0112 17.9432 15.5915 17.9432 14.8918C17.9432 14.1922 18.377 13.7924 19.0277 13.4926C19.1657 13.4326 19.3235 13.3727 19.5009 13.3127C19.8756 13.1728 20.3093 13.0728 20.7431 12.9529L21.2164 12.833C23.3459 12.3133 25.7515 11.6336 25.7318 8.73523ZM18.0615 22.5876C18.0615 23.3872 18.6333 23.8069 19.2052 24.1467C19.2052 24.0068 19.1854 22.7875 19.1854 22.7675C19.2052 22.5276 19.422 22.3677 19.6192 22.2878C19.915 22.1478 20.2305 22.0279 20.546 21.928C20.7234 21.868 20.8614 21.808 21.0192 21.7681C22.1825 21.4082 23.5234 20.9685 23.5234 19.5293C23.5234 18.0901 22.3797 17.5104 21.1178 17.0706C21.0981 17.5304 21.0981 18.19 21.0783 18.6498C21.6107 18.8497 21.9656 19.1095 21.9656 19.5293C21.9656 20.049 21.4333 20.3288 21.0389 20.4888C20.8812 20.5487 20.6446 20.6287 20.5657 20.6487C20.2502 20.7486 19.9347 20.8486 19.6192 20.9685C19.4615 21.0285 19.3037 21.0884 19.146 21.1684C18.6333 21.4482 18.0615 21.868 18.0615 22.5876ZM18.8502 5.23715C18.377 5.39706 17.9038 5.57696 17.4503 5.81683C16.9573 5.97674 16.2475 6.01672 15.5179 6.81628C15.2813 7.09613 15.0644 7.39596 14.8475 7.6958C14.6306 8.01562 14.6109 8.53534 14.4532 8.79519C14.2165 9.19497 14.2757 9.43484 14.2757 9.43484C14.2363 9.61474 14.1377 9.79464 14.0194 9.93457C13.7827 10.2144 13.4278 10.3543 13.0729 10.2944C13.4081 10.4543 13.8616 10.2344 13.8616 10.2344C13.7827 10.4543 13.7236 10.6742 13.6842 10.894C14.0588 10.0345 14.394 9.73468 14.5123 9.63473C14.6701 9.67471 15.0053 9.65472 15.6165 9.29492C16.3066 8.89514 17.3517 8.2355 17.6474 7.81573C17.9629 7.39596 18.377 7.05615 18.8699 6.87625C18.8699 6.27658 18.8502 5.71689 18.8502 5.23715ZM15.932 7.89569L15.5771 7.97564L16.0109 7.25604L16.5038 7.27603L15.932 7.89569Z" fill="white"/>
<path d="M20.2897 22.4876C20.2305 22.5076 20.0531 22.5876 19.9348 22.6275C19.8164 22.6675 19.6784 22.7275 19.6784 22.7675C19.6784 22.7675 19.7967 28.9241 19.7967 29.044C19.7967 30.3033 20.4277 30.3233 20.4277 29.044C20.4277 28.9641 20.5657 22.3877 20.5657 22.3877C20.5657 22.3877 20.3883 22.4476 20.2897 22.4876ZM19.6193 20.4487C19.8164 20.3888 20.0136 20.3088 20.1911 20.2688C20.3291 20.2289 20.4474 20.1889 20.5854 20.1489C20.5854 19.7691 20.7037 14.4121 20.7235 13.4526C20.3094 13.5525 19.8953 13.6725 19.501 13.8124C19.5207 14.532 19.6193 19.8691 19.6193 20.4487ZM20.1516 0C18.377 0 19.1263 2.67853 19.2643 3.55804C19.2643 3.59802 19.4024 9.61471 19.4418 10.9939C19.7179 10.914 19.9742 10.854 20.2502 10.7941L20.7826 10.6541C20.8023 9.31487 20.9404 3.57803 20.9404 3.53805C21.0587 2.61856 21.9854 0 20.1516 0" fill="white"/>
</svg>
