<svg width="93" height="29" viewBox="0 0 93 29" fill="none" xmlns="http://www.w3.org/2000/svg">
<path d="M39.5207 6.84278H39.5048L38.2402 13.5415H36.5013L34.8572 5.36842H36.2483L37.3865 11.6665H37.4023L38.6196 5.36842H40.4217L41.6231 11.6665H41.639L42.8246 5.36842H44.1683L42.5084 13.5415H40.7379L39.5207 6.84278ZM46.255 7.40368C47.4722 7.40368 48.8633 8.04471 48.8633 10.4966C48.8633 13.0287 47.4722 13.6056 46.255 13.6056C45.0377 13.6056 43.6308 13.0127 43.6308 10.4966C43.6466 8.04471 45.0535 7.40368 46.255 7.40368ZM46.255 12.596C47.1719 12.596 47.3932 11.5223 47.3932 10.5127C47.3932 9.50304 47.1877 8.44535 46.255 8.44535C45.3223 8.44535 45.1168 9.50304 45.1168 10.5127C45.1168 11.5223 45.3381 12.596 46.255 12.596ZM49.5747 8.49343C49.5747 8.15689 49.5589 7.83637 49.5273 7.49983H50.8236C50.8394 7.86842 50.871 8.23702 50.871 8.60561H50.8868C51.0607 8.14086 51.5033 7.41971 52.4044 7.41971C52.4834 7.41971 52.5625 7.43573 52.6415 7.45176V8.81394C52.515 8.78189 52.3728 8.74984 52.2463 8.74984C51.6614 8.74984 51.0133 9.11843 51.0133 10.2402V13.5415H49.5905L49.5747 8.49343ZM53.258 4.75945H54.6966V13.5255H53.258V4.75945ZM60.5298 4.75945V12.4998C60.5298 12.8364 60.5456 13.1889 60.5773 13.5255H59.2336C59.2019 13.221 59.1861 12.9005 59.1861 12.596H59.1545C58.9174 13.1088 58.4906 13.6216 57.5737 13.6216C56.1035 13.6216 55.487 12.1954 55.487 10.5287C55.487 8.55753 56.2616 7.41971 57.5421 7.41971C58.206 7.38766 58.8067 7.77227 59.0755 8.38125H59.0913V4.75945H60.5298ZM57.9531 12.5479C58.7909 12.5479 59.0755 11.6184 59.0755 10.4966C59.0755 9.32676 58.7593 8.4774 57.9689 8.4774C57.1785 8.4774 56.8939 9.26266 56.8939 10.4646C56.9097 11.8588 57.1311 12.5479 57.9531 12.5479ZM64.7823 5.36842H66.2682V8.68573H68.6553V5.36842H70.1255V13.5415H68.6553V9.91971H66.2682V13.5255H64.7823V5.36842ZM75.358 13.237C74.8047 13.4934 74.1882 13.6216 73.5875 13.6216C71.6747 13.6216 70.8368 12.2274 70.8368 10.6088C70.8368 8.81394 71.7695 7.41971 73.2871 7.41971C74.5676 7.41971 75.6583 8.17291 75.6583 10.6409V10.9293H72.228C72.228 11.955 72.639 12.58 73.7455 12.58C74.615 12.58 75.0418 12.3075 75.3106 12.1152L75.358 13.237ZM74.2672 9.99984C74.2672 8.94214 73.9194 8.39727 73.2713 8.39727C72.5125 8.39727 72.2121 9.19855 72.2121 9.99984H74.2672ZM76.5752 7.8524C77.1601 7.56394 77.8083 7.40368 78.4564 7.40368C80.306 7.40368 80.7328 8.31714 80.7328 9.82355V12.4518C80.7328 12.8043 80.7644 13.1569 80.8118 13.5095H79.5156C79.4523 13.237 79.4207 12.9646 79.4365 12.6921H79.4207C79.0571 13.1889 78.6145 13.6056 77.7608 13.6056C76.844 13.6056 75.9903 12.9646 75.9903 11.8428C75.9903 10.2082 77.3024 9.7915 79.1204 9.7915H79.4049V9.56714C79.4049 8.9742 79.1203 8.4133 78.2983 8.4133C77.7134 8.42932 77.1443 8.63766 76.6701 9.00625L76.5752 7.8524ZM79.3891 10.5768H79.2626C78.0454 10.5768 77.3182 10.8332 77.3182 11.7146C77.2866 12.1954 77.6502 12.612 78.1244 12.6441H78.2351C79.0887 12.6441 79.4049 12.003 79.4049 10.9293V10.5768H79.3891ZM82.0449 4.75945H83.4676V13.5255H82.0449V4.75945ZM85.1117 6.26586L86.5344 5.81714V7.49983H87.72V8.55753H86.5344V11.6986C86.5344 12.3396 86.7716 12.5319 87.1826 12.5319C87.3723 12.5319 87.562 12.4838 87.72 12.4037V13.4293C87.4197 13.5575 87.0877 13.6216 86.7557 13.6216C85.6966 13.6216 85.0959 13.1248 85.0959 11.8588V8.57355H84.1474V7.51586H85.0959V6.26586H85.1117ZM88.1785 4.75945H89.6012V8.28509H89.6328C89.8858 7.9165 90.2178 7.41971 91.103 7.41971C92.4467 7.41971 92.8577 8.42932 92.8577 9.64727V13.5255H91.435V9.91971C91.435 8.99022 91.1979 8.60561 90.613 8.60561C89.87 8.60561 89.6012 9.24663 89.6012 10.0159V13.5255H88.1785V4.75945ZM38.1295 15.705C39.8052 15.705 41.3386 16.971 41.3386 19.9037C41.3386 22.8364 39.8052 24.1024 38.1295 24.1024C36.4538 24.1024 34.9204 22.8364 34.9204 19.9037C34.9204 16.971 36.4538 15.705 38.1295 15.705ZM38.1295 22.9646C39.0622 22.9646 39.821 22.1633 39.821 19.9037C39.821 17.6441 39.0622 16.8588 38.1295 16.8588C37.1968 16.8588 36.438 17.6601 36.438 19.9037C36.438 22.1473 37.1968 22.9646 38.1295 22.9646ZM41.9393 18.9582C41.9393 18.6216 41.9235 18.3011 41.8919 17.9646H43.1882C43.204 18.3332 43.2356 18.7018 43.2356 19.0704H43.2514C43.4253 18.6056 43.8837 17.8845 44.769 17.8845C44.848 17.8845 44.9271 17.9005 45.0061 17.9165V19.2787C44.8797 19.2466 44.7374 19.2146 44.5951 19.2146C44.0102 19.2146 43.3621 19.5832 43.3621 20.705V24.0063H41.9393V18.9582ZM45.7017 24.9358C46.2392 25.2563 46.8399 25.4325 47.4564 25.4486C48.8001 25.4486 49.0214 24.5031 49.0214 23.5575V22.9806H49.0056C48.7685 23.4454 48.3733 24.0063 47.4406 24.0063C46.6186 24.0063 45.3697 23.4454 45.3697 21.0095C45.3697 19.3428 45.9546 17.8845 47.5196 17.8845C48.3891 17.8845 48.7843 18.3813 49.0847 18.9101H49.1321C49.1321 18.5896 49.1637 18.2851 49.1795 17.9806H50.4758C50.46 18.3011 50.4284 18.6056 50.4284 18.9261V23.3652C50.4284 25.2563 49.8593 26.5864 47.6777 26.5864C46.9822 26.5864 46.2866 26.4582 45.6385 26.2178L45.7017 24.9358ZM47.7726 22.9325C48.6736 22.9325 49.0372 22.2755 49.0372 20.9133C49.0372 19.6473 48.563 18.9742 47.8832 18.9902C47.1244 19.0063 46.8399 19.7114 46.8399 20.9293C46.8399 22.3396 47.2825 22.9325 47.7726 22.9325ZM51.693 18.3172C52.2779 18.0127 52.9261 17.8684 53.5742 17.8684C55.4238 17.8684 55.8506 18.7819 55.8506 20.2883V22.9165C55.8506 23.2691 55.8822 23.6216 55.9296 23.9742H54.6334C54.5701 23.7018 54.5385 23.4293 54.5543 23.1569H54.5385C54.1749 23.6537 53.7323 24.0704 52.8786 24.0704C51.9618 24.0704 51.1081 23.4293 51.1081 22.3075C51.1081 20.6729 52.4202 20.2563 54.2381 20.2563H54.5227V20.0319C54.5227 19.4389 54.2381 18.8781 53.4161 18.8781C52.8312 18.8941 52.2621 19.1024 51.7879 19.471L51.693 18.3172ZM54.5069 21.0415H54.3804C53.1632 21.0415 52.436 21.2979 52.436 22.1793C52.4044 22.6601 52.768 23.0768 53.2422 23.1088H53.3529C54.2065 23.1088 54.5227 22.4678 54.5227 21.3941L54.5069 21.0415ZM57.0046 18.9582C57.0046 18.6216 56.9888 18.3011 56.9572 17.9646H58.3009C58.3167 18.2691 58.3483 18.5896 58.3483 18.8941H58.3641C58.5696 18.5255 58.9806 17.8845 59.9449 17.8845C61.2886 17.8845 61.6996 18.8941 61.6996 20.112V23.9902H60.2611V20.3684C60.2611 19.4389 60.024 19.0543 59.4391 19.0543C58.6961 19.0543 58.4273 19.6954 58.4273 20.4646V23.9742H57.0046V18.9582ZM62.7904 15.4005H64.2764V16.8268H62.7904V15.4005ZM62.822 17.9646H64.2448V23.9902H62.822V17.9646ZM65.3672 22.7402L67.9123 19.0704H65.4462V17.9646H69.335V19.1986L66.8373 22.8845H69.4141V23.9902H65.3514V22.7402H65.3672ZM70.5048 18.3172C71.0898 18.0127 71.7379 17.8684 72.386 17.8684C74.2356 17.8684 74.6624 18.7819 74.6624 20.2883V22.9165C74.6624 23.2691 74.694 23.6216 74.7415 23.9742H73.4452C73.382 23.7018 73.3503 23.4293 73.3661 23.1569H73.3503C72.9867 23.6537 72.5441 24.0704 71.6905 24.0704C70.7736 24.0704 69.9199 23.4293 69.9199 22.3075C69.9199 20.6729 71.232 20.2563 73.05 20.2563H73.3345V20.0319C73.3345 19.4389 73.05 18.8781 72.228 18.8781C71.643 18.8941 71.0739 19.1024 70.5997 19.471L70.5048 18.3172ZM73.3187 21.0415H73.1923C71.975 21.0415 71.2478 21.2979 71.2478 22.1793C71.2162 22.6601 71.5798 23.0768 72.0541 23.1088H72.1647C73.0184 23.1088 73.3345 22.4678 73.3345 21.3941V21.0415H73.3187ZM76.2116 16.7306L77.6344 16.2819V17.9646H78.82V19.0223H77.6344V22.1473C77.6344 22.7883 77.8715 22.9806 78.2825 22.9806C78.4722 22.9806 78.6619 22.9486 78.82 22.8524V23.8781C78.5196 24.0223 78.1877 24.0864 77.8557 24.0704C76.7965 24.0704 76.1958 23.5736 76.1958 22.3236V19.0223H75.2473V17.9646H76.1958L76.2116 16.7306ZM79.6895 15.4005H81.1596V16.8268H79.6895V15.4005ZM79.7211 17.9646H81.1596V23.9902H79.7369L79.7211 17.9646ZM84.5584 17.8684C85.7756 17.8684 87.1668 18.5095 87.1668 20.9614C87.1668 23.4934 85.7756 24.0704 84.5584 24.0704C83.3412 24.0704 81.9342 23.4934 81.9342 20.9614C81.95 18.5255 83.357 17.8684 84.5584 17.8684ZM84.5584 23.0607C85.4753 23.0607 85.6966 21.987 85.6966 20.9774C85.6966 19.9678 85.4911 18.9101 84.5584 18.9101C83.6257 18.9101 83.4202 19.9678 83.4202 20.9774C83.4202 21.987 83.6415 23.0607 84.5584 23.0607ZM88.3049 18.9582C88.3049 18.6216 88.2891 18.3011 88.2575 17.9646H89.6012C89.617 18.2691 89.6487 18.5896 89.6487 18.8941H89.6645C89.87 18.5255 90.281 17.8845 91.2453 17.8845C92.589 17.8845 93 18.8941 93 20.112V23.9902H91.5773V20.3684C91.5773 19.4389 91.3401 19.0543 90.7552 19.0543C90.0122 19.0543 89.7435 19.6954 89.7435 20.4646V23.9742H88.3208L88.3049 18.9582ZM26.2259 5.28829C26.8424 6.0415 27.9174 6.47419 28.5497 7.2274C28.0913 5.01586 26.4156 3.20496 24.4238 2.77227C25.4039 3.50945 25.6094 4.53509 26.2259 5.28829ZM2.32381 10.8973C3.69913 7.86842 5.7384 8.50945 6.60785 5.64086C6.10199 6.50624 3.87302 6.87483 2.84549 9.13445C3.38297 7.7883 3.11423 5.73701 3.99949 4.61522C1.32789 6.63445 2.46609 9.87163 2.32381 10.8973ZM4.7899 18.1409C5.04284 19.3107 4.31566 21.0255 5.46966 22.6441C4.28404 21.2979 1.75472 20.9454 0.72718 18.8941C2.00765 23.9101 5.359 22.8845 6.86079 23.9742C5.62774 22.1633 6.63947 20.9614 4.7899 18.1409ZM4.4105 21.2979C3.66752 18.4934 4.9796 17.5159 3.98368 14.8236C3.88883 16.346 2.8771 17.0832 3.55686 19.8556C2.37124 17.4998 0.537481 16.6184 0 15.0159C0.0316165 19.4229 3.52524 20.08 4.4105 21.2979ZM9.76951 25.9934C8.74197 24.5511 9.43753 23.7338 6.56043 21.1216C7.17695 22.0832 6.54462 23.2851 8.48904 25.1441C6.59205 24.0063 3.95207 24.487 2.6874 22.9646C4.86894 27.1954 8.69454 25.4646 9.76951 25.9934ZM23.7598 25.1441C25.7042 23.2691 25.0719 22.0672 25.6884 21.1216C22.7955 23.7338 23.5069 24.5511 22.4635 25.9934C23.5543 25.4646 27.3799 27.1954 29.5456 22.9646C28.2968 24.5031 25.6568 24.0063 23.7598 25.1441ZM26.7792 22.6441C27.9332 21.0255 27.206 19.3268 27.4431 18.1409C25.5936 20.9614 26.6053 22.1633 25.3723 23.9742C26.8899 22.8845 30.2254 23.9101 31.5059 18.8941C30.4783 20.9454 27.9648 21.2979 26.7792 22.6441ZM22.1632 26.2018C21.1356 25.9293 20.0765 25.7531 19.0015 25.721C18.0214 25.705 17.0413 25.8652 16.1244 26.2178C15.2075 25.8652 14.2274 25.705 13.2473 25.721C12.1724 25.7531 11.1132 25.9293 10.0857 26.2018C8.34676 26.6665 6.84498 27.0351 5.53289 26.362C6.78174 27.4838 8.25191 27.9005 10.3702 27.6601C12.1249 27.4678 13.5477 26.5704 15.2075 26.5864H15.2708C14.2274 27.1152 13.2947 27.8524 12.536 28.7499L13.3422 28.862C13.3422 28.862 14.18 27.1473 16.1244 26.6986C18.0688 27.1473 18.9067 28.862 18.9067 28.862L19.7129 28.7499C18.9541 27.8524 18.0214 27.1152 16.9781 26.5864H17.0413C18.7012 26.5704 20.1239 27.4678 21.8786 27.6601C23.9969 27.8845 25.4513 27.4838 26.716 26.362C25.4039 27.0351 23.9021 26.6665 22.1632 26.2018ZM4.11015 11.7787C3.39878 13.1729 2.27639 13.4934 2.40286 16.362C1.80214 13.8139 0.36359 12.8524 0.379398 11.2338C-0.616522 15.4966 2.03927 15.9934 2.73483 17.7883C2.62417 15.2242 4.23661 14.7114 4.11015 11.7787ZM5.10607 8.49343C4.85314 8.84599 4.67925 9.00625 4.0153 9.55112C3.01938 10.3524 2.32381 11.4902 2.08669 12.7563C2.14992 11.1857 1.20143 8.94214 1.83376 7.30753C-0.616522 10.8171 1.97603 12.9165 2.07088 14.1986C2.6874 11.7466 4.15757 11.7306 5.10607 8.49343ZM30.1622 12.7563C29.9092 11.4902 29.2295 10.3524 28.2336 9.55112C27.5696 8.99022 27.3957 8.84599 27.1428 8.49343C28.0913 11.7306 29.5614 11.7466 30.1938 14.1986C30.2886 12.9325 32.8812 10.8332 30.4309 7.30753C31.0632 8.94214 30.1147 11.1857 30.1622 12.7563ZM32.2489 15.0159C31.7114 16.6345 29.8776 17.4998 28.692 19.8556C29.3717 17.0832 28.36 16.346 28.2652 14.8236C27.2693 17.5159 28.5813 18.4934 27.8384 21.2979C28.7236 20.08 32.2172 19.4229 32.2489 15.0159ZM28.1387 11.7787C27.9964 14.7114 29.6247 15.2242 29.514 17.7883C30.1938 16.0095 32.8654 15.4966 31.8695 11.2338C31.8853 12.8684 30.4467 13.8139 29.846 16.378C29.9725 13.4774 28.8659 13.1729 28.1387 11.7787ZM6.02295 5.28829C6.63947 4.53509 6.84498 3.50945 7.82509 2.77227C5.81744 3.20496 4.14176 4.99983 3.68332 7.21137C4.31566 6.45817 5.40643 6.02547 6.02295 5.28829ZM25.6568 5.60881C26.5263 8.49343 28.5655 7.8524 29.9408 10.8652C29.7986 9.85561 30.9368 6.6024 28.2652 4.61522C29.1662 5.72099 28.8975 7.7883 29.4192 9.13445C28.3758 6.87483 26.1469 6.50624 25.6568 5.60881ZM18.7012 7.25945C18.1795 7.03509 17.6262 6.89086 17.0729 6.81073V7.17932C17.5946 7.25945 18.1005 7.40368 18.5747 7.59599C18.6379 7.48381 18.6854 7.37163 18.7012 7.25945ZM18.2902 3.68573L18.4008 3.58957L18.1953 3.49342L17.642 3.47739L17.4997 3.57355L17.1836 3.5415V3.62163C17.3891 3.63765 17.5946 3.65368 17.7527 3.68573L18.0214 3.6697L18.2902 3.68573ZM17.2468 15.6409C17.2468 15.5447 17.1203 15.4486 16.9465 15.3684H16.9148C16.9148 15.4486 16.899 15.8172 16.899 16.0095C17.1045 15.8973 17.2468 15.8011 17.2468 15.6409ZM10.9077 8.60561C10.9235 8.5415 10.9393 8.46137 10.9551 8.39727C10.8761 8.4133 10.8129 8.42932 10.7338 8.4133L10.9077 8.60561ZM8.36257 6.02547L9.65885 7.33958C8.09383 8.99022 7.20857 11.2018 7.17695 13.4934H5.34319C5.37481 10.6889 6.44977 8.02868 8.36257 6.02547ZM7.57216 16.2498L7.4615 16.2338L7.35084 16.1216L6.82917 16.0736L6.98725 16.2979L6.513 16.2018L6.63947 16.0896L6.52881 15.9774L6.18103 16.1216L6.05456 16.346L6.10199 16.8748L6.4972 17.8364L6.68689 18.1409L6.79755 18.1729L6.4972 17.596L6.43396 17.3075L6.4972 17.2434L6.44977 17.0832L6.62366 17.1152L6.90821 17.5319L6.97144 17.5639V17.2595L7.0821 17.3236L7.11372 17.4838L7.39827 17.5639L7.52473 17.4678L7.57216 17.4998V17.7242L7.69862 17.8845L7.85671 17.9165L8.20449 18.4934L8.41 18.5575L8.47323 18.2851C8.83682 18.8781 9.24783 19.4389 9.73789 19.9357L8.44161 21.2499C6.51463 19.2797 5.40578 16.6358 5.34319 13.862H7.17695C7.19276 14.6633 7.33503 15.4806 7.57216 16.2498ZM9.3743 13.846C9.3743 14.0223 9.39011 14.1986 9.42172 14.3909L9.20041 14.4389L9.15298 14.6633L8.67874 15.2723L8.69454 16.1056L8.2203 16.2659H7.95156C7.69862 15.4806 7.57216 14.6793 7.54054 13.846H9.3743ZM9.78531 19.0864L10.1963 19.3268L10.2754 19.3909L9.97501 19.6954C9.83274 19.5511 9.70627 19.4069 9.57981 19.2466L9.78531 19.0864ZM11.461 9.1665L12.7573 10.4806C12.4885 10.7851 12.2514 11.1216 12.0775 11.4902H11.9827L11.793 11.5383H11.7297L11.54 11.7146L11.793 11.6825L12.0143 11.6345L11.9669 11.6986L11.7772 11.8268H11.6823L11.3978 12.0511L11.129 12.0191L10.7338 12.7723L10.8129 12.9165L10.5915 13.1729L10.5599 13.4934H9.73789C9.7537 11.8748 10.3702 10.3364 11.461 9.1665ZM12.7889 14.5992L12.8837 14.5511L13.1209 14.7274L13.0102 14.8075L13.2789 14.9838L13.2631 14.7915L13.4054 14.5511L13.5635 14.7114L13.7216 14.9357L13.437 15.0159L13.5635 15.2723L13.7532 15.1601L13.7216 15.08L13.8638 14.9838L13.9429 14.5832C14.0535 14.8236 14.1958 15.0479 14.3697 15.2402L13.0734 16.5543C12.4411 15.8813 12.0459 15.0159 11.9352 14.0864L12.204 14.3748H12.4569L12.7889 14.5992ZM10.9235 13.205L10.9551 12.8364L11.1764 12.7082L11.5716 12.7723L11.6349 12.8364C11.6033 13.0447 11.5875 13.2691 11.5716 13.4774H11.129L10.9235 13.205ZM10.3228 14.487L10.1489 14.7595H9.84855L9.83274 14.7434C9.78531 14.455 9.7537 14.1505 9.73789 13.862H10.2912L10.1647 14.3107L10.3228 14.487ZM11.54 18.1088C11.4136 17.9646 11.2713 17.8204 11.1606 17.6761L11.2239 17.2114L11.0342 16.7627L10.9867 16.0575L10.7654 15.6248L10.8129 15.3524L10.5441 14.8396L10.3228 14.7274L10.4176 14.455L10.3228 14.2466L10.4176 14.0063H10.6706L10.7654 13.862H11.1923L11.2555 13.9902L11.1606 14.4229L11.1132 14.503L11.2713 14.8556L11.1606 14.9197L11.0816 14.8236L11.05 14.8556L11.129 15.0639L11.2555 15.3043H11.3187L11.3503 15.08L11.2871 14.9998V14.8556L11.2713 14.5511L11.3661 14.0063L11.2713 13.862H11.5716C11.6349 14.9678 12.0775 16.0095 12.8363 16.8107L11.54 18.1088ZM22.5742 19.9037C24.1392 18.2691 25.0403 16.1056 25.0877 13.846H26.9215C26.8582 16.6024 25.7675 19.2466 23.8547 21.2178L22.5742 19.9037ZM22.0683 19.3909L22.2106 19.2306L22.0683 18.5095L21.9735 18.4774L22.0367 18.3492L21.7364 18.2531L21.6731 18.5095L21.6415 18.83L21.5783 18.8941L21.025 18.3332C22.179 17.1152 22.8429 15.5287 22.9062 13.846H24.7399C24.6767 16.0255 23.823 18.0928 22.3213 19.6473L22.0683 19.3909ZM20.4559 21.1377L20.6298 20.7691L20.5665 20.6088L20.8195 20.3845V20.2563L20.5982 20.112L20.7721 19.7434L21.0408 19.3909L20.7721 19.1024H20.5665L20.4401 18.8941C20.5507 18.7979 20.6614 18.7018 20.7562 18.6056L22.0525 19.9197C21.5783 20.3845 21.0408 20.8011 20.4559 21.1377ZM20.203 17.5159L20.0291 17.3396L20.1555 17.1633L20.3294 16.8107L20.2662 16.7146L20.3768 16.4582L20.361 16.2178L20.2978 15.9774L20.1397 15.9293L20.0765 16.0575L19.9816 16.0255C20.1239 15.8172 20.2504 15.5768 20.361 15.3524L20.5191 15.2883L20.614 15.1601L20.6614 15.2082L20.7721 15.08L20.6772 14.9678L20.7562 14.9518L20.8985 15.0159H21.1831L21.357 14.9197L21.7996 14.7915L21.7206 14.6473L21.6889 14.471L21.9261 14.5832L22.0209 14.5351L21.9735 14.3428L21.6731 14.455L21.357 14.3909L21.104 13.878H22.511C22.4477 15.4646 21.8154 16.971 20.7404 18.1088L20.5507 17.9165L20.6298 17.6601L20.4875 17.0832L20.203 17.5159ZM19.539 10.5287L20.8353 9.21458C21.1356 9.55112 21.4044 9.91971 21.6415 10.3043L21.4834 10.3524L21.4992 10.6409L21.9735 10.9454C22.1 11.2178 22.1948 11.4902 22.2738 11.7787L22.1948 11.9069L22.0209 12.0351L21.9735 12.3075L21.847 12.3716L21.7522 12.4998L21.6573 12.4518H21.4834L21.5783 12.3075L21.6573 11.9389L21.7838 11.8588L21.436 11.5223L21.1831 11.6184L21.1198 11.8748L20.9618 12.0511L20.7879 11.9069L20.7246 11.7466L20.8195 11.6825L20.8669 11.7787L20.9459 11.7466L20.9143 11.5864H20.8037V11.6505L20.7246 11.6665L20.3294 11.1857L20.1872 11.0736L20.2346 11.0255L20.361 10.9774L20.2346 10.9293C20.2346 10.9293 20.0923 10.9614 20.0765 10.9614L20.1555 11.0736H19.95C19.8236 10.8652 19.6971 10.6889 19.539 10.5287ZM19.7445 17.6922L19.3493 17.58L19.2228 17.6281L19.0015 17.4518L18.796 17.3716C18.9067 17.2915 19.0015 17.2114 19.0964 17.1313L19.4284 17.3716L19.6813 17.4998L19.8078 17.6281L19.7445 17.6922ZM19.049 11.5223L19.207 11.4902V11.4582L19.049 11.346L19.0964 10.9934L19.2861 10.7851C19.4125 10.9293 19.5232 11.0736 19.6339 11.2338L19.5706 11.4421L19.3967 11.3139L19.2545 11.346L19.3177 11.4742H19.3809L19.3019 11.6665L19.2545 11.5864L19.049 11.5223ZM21.2463 12.8043L21.5783 12.628L21.9103 12.58L21.9893 12.4197L22.179 12.3075L22.258 12.1473L22.3213 11.8748C22.3529 11.971 22.3687 12.0671 22.4003 12.1633L22.2264 12.6921V12.8684L22.4477 12.4998C22.4952 12.8204 22.5268 13.1569 22.5426 13.4774H20.9301L20.8985 13.3332L21.0882 13.1889L21.1198 13.0928L21.1989 13.0287L21.4202 12.9966L21.436 12.9005L21.2463 12.8043ZM21.6099 8.44535L22.0525 8.46137L22.1632 8.58958L22.1158 8.78189L22.7323 9.1665L22.8587 9.15048L23.6334 10.0639L23.9495 9.95176C24.4554 11.0575 24.7241 12.2755 24.7399 13.4934H22.9062C22.9062 13.0127 22.8429 12.5479 22.7323 12.0832L22.8113 11.971L22.922 11.378L22.8429 10.753L22.6216 10.0319L22.1158 9.27868L22.2422 9.34279L22.3055 9.27868L21.8944 8.99022L21.8628 9.08638L22.2738 9.67932L22.511 10.1601L22.669 10.6409L22.7165 10.9614L22.7955 11.5062L22.6374 11.5223C22.6374 11.5223 22.4635 11.1857 22.4003 11.0415L22.4793 10.9133L22.3213 10.6889V10.4806L22.2106 10.3364L22.0683 10.3524C22.0209 10.2562 21.9735 10.1601 21.9103 10.08L22.0051 10.128L22.0367 10.096L21.9893 9.98381L22.1158 9.91971L22.0683 9.85561L21.8944 9.91971L21.9577 9.63125L21.847 9.56714L21.7522 9.7915C21.5467 9.48702 21.3253 9.19855 21.0882 8.92612L21.6099 8.44535ZM23.9495 6.05753C25.8465 8.06073 26.9057 10.721 26.9373 13.4934H25.1035C25.0877 12.1152 24.7715 10.753 24.155 9.51907L24.1708 9.48702L24.2973 9.55112L24.3289 9.45497L23.9969 8.87804L23.6017 8.33317L23.1433 7.94855C22.9852 7.75625 22.8271 7.56394 22.6532 7.37163L23.9495 6.05753ZM16.1402 24.9037C22.3055 24.9037 27.3009 19.8236 27.2851 13.5736C27.2851 7.77227 22.9536 2.9165 17.2626 2.32355L17.2468 2.38765C17.231 2.49983 17.1994 2.59598 17.1836 2.69214C19.6339 2.93252 21.9261 4.02227 23.6808 5.76906L22.4477 7.01906L22.4952 6.79471L22.3371 6.71458L22.1316 6.7306L22.179 6.58637L22.0367 6.07355L21.7364 5.73701L20.7721 5.22419L20.693 5.32035L20.5191 5.36842C20.8511 5.84919 21.025 6.42612 21.025 7.00304V7.2274L21.4992 7.83637L21.2779 7.88445L21.4202 8.10881L20.9934 8.5415L20.8195 8.22099C20.7404 8.44535 20.6298 8.66971 20.5033 8.86202L20.5982 8.94214L19.2861 10.2562C19.207 10.1761 19.128 10.112 19.049 10.0319C18.9225 10.096 18.796 10.1441 18.6696 10.1921L18.7802 10.2723L18.717 10.3364L18.5589 10.4165L18.4957 10.5768L18.4008 10.4806L18.1321 10.5768L18.2111 10.705L18.4008 10.6569L18.5273 10.6729L18.5431 10.6088L18.6379 10.5607L18.6696 10.5127L18.8434 10.4646H18.9699L19.049 10.5287L18.5431 11.0575L18.5115 11.0095L17.974 11.1056L17.8475 11.2338L17.7369 11.2498L18.0688 10.9293L17.9424 10.8652L17.6262 11.2819L17.7211 11.2659V11.4261L17.8317 11.4742L17.8475 11.6345L17.6578 11.6024L17.4681 11.6345L16.9939 11.3941C16.9939 11.3941 16.9623 12.6761 16.9623 13.3171C18.0688 13.7018 19.2545 14.2466 19.2545 15.6889C19.2703 16.2979 18.9541 16.8748 18.4482 17.2114L18.4166 17.2274L18.385 17.2595C17.9424 17.5639 17.3575 17.7242 16.8516 17.8845L16.8358 18.8941C17.642 19.2947 18.6063 19.8877 18.5115 21.5543C18.4957 21.971 18.3376 22.0832 18.2111 22.1152C17.7369 22.2274 17.2468 22.3075 16.7726 22.3396V22.7082C18.8593 22.564 20.8195 21.6825 22.3371 20.2242L23.6334 21.5383C19.4758 25.6088 12.8837 25.6088 8.71035 21.5704L10.0066 20.2563C11.5084 21.6825 13.4528 22.5479 15.5079 22.7082V22.3396C13.5477 22.1793 11.7139 21.362 10.2912 19.9838L10.6232 19.6313L11.0974 19.6793L11.3503 19.4069L12.0143 19.439L12.1091 19.1986L12.0775 19.1024C13.0576 19.8556 14.2274 20.3364 15.4605 20.4646V20.096C14.101 19.9357 12.8363 19.3588 11.8246 18.4133L13.1209 17.0992C13.437 17.3877 13.7848 17.628 14.18 17.8204C14.2116 17.6922 14.2432 17.58 14.3065 17.4678C13.9745 17.2915 13.6583 17.0832 13.3896 16.8428L14.6859 15.5287C14.8914 15.6889 15.1285 15.8332 15.3656 15.9133V15.5127C15.2075 15.4486 15.0653 15.3524 14.9388 15.2563L15.3024 14.8877C15.1759 14.8556 15.0495 14.8075 14.923 14.7595L14.6701 15.0159C14.5436 14.8716 14.4329 14.7114 14.3539 14.5511C14.1326 14.455 13.9113 14.3428 13.7058 14.1986C12.947 13.7338 12.4885 12.8845 12.5043 11.971C12.4885 11.362 12.6624 10.753 13.026 10.2723L11.7297 8.95817C12.6782 8.02868 13.8955 7.43573 15.1917 7.2274V6.85881C13.8006 7.06714 12.4885 7.70817 11.4768 8.70176L11.2555 8.4774C11.2081 8.55753 11.1448 8.66971 11.0816 8.81394L11.2239 8.95817C10.0699 10.1921 9.42172 11.8268 9.39011 13.5255H7.54054C7.57216 11.33 8.41 9.23061 9.91178 7.62804L10.4967 8.22099H10.5757C10.6864 8.20496 10.8129 8.17291 10.9077 8.12484L10.1647 7.37163C10.5599 6.98701 10.9867 6.63445 11.4452 6.32996C11.4768 6.23381 11.4926 6.13765 11.54 6.05753C11.6191 5.92932 11.7139 5.80112 11.8246 5.67291C11.129 6.05753 10.4967 6.5383 9.92759 7.09919L8.63131 5.78509C10.3702 4.07034 12.6308 2.99663 15.0653 2.74021C15.0653 2.69214 15.0495 2.66009 15.0495 2.66009C15.0337 2.56393 15.0178 2.4838 15.002 2.37162C8.85263 3.01265 4.41051 8.57355 5.05864 14.7915C5.65936 20.5447 10.4335 24.9197 16.1402 24.9037ZM21.6257 5.33637L21.515 5.16009L21.2779 5.03188L21.0882 5.17611L21.3253 5.30432L21.5941 5.49663L21.6257 5.33637ZM20.5191 10.5928L20.5349 10.737L20.8511 10.6409L20.9459 10.4486L20.7246 10.1601L20.8353 9.98381L21.1356 10.1921L21.1831 10.1441L21.1198 10.096L21.0566 9.96779L21.1831 9.90368L21.0566 9.74343L20.7721 9.88766L20.6772 10.0639L20.614 10.2242L20.7404 10.4325L20.693 10.5287L20.5191 10.5928ZM7.2718 18.9261L7.28761 18.846L7.12953 18.4774L6.93983 18.3973L7.2718 18.9261ZM14.7491 11.9389C14.7491 12.2595 14.9388 12.4678 15.2708 12.6601V12.5159L15.0653 12.2915L15.1759 12.0832L15.2708 12.0511C15.255 11.6825 15.255 11.2819 15.255 11.2178H15.2392C14.923 11.4101 14.7649 11.6345 14.7491 11.9389Z" fill="#C8C8C8"/>
<path d="M16.8042 20C17.3733 20.2884 17.9107 20.7051 18.1321 21.4743C18.2269 20.1923 17.5155 19.6474 16.82 19.2628L16.8042 20ZM20.6298 7.00317C20.6298 5.8333 19.7919 4.55125 17.7527 4.10253C17.5472 4.07048 17.3417 4.03843 17.1361 4.0224C17.1361 4.19868 17.1203 4.59932 17.1203 4.59932C17.1203 4.72753 17.1045 5.19227 17.1045 5.28843C17.231 5.30445 17.3733 5.32048 17.4997 5.3365C18.6854 5.62497 19.1122 6.31407 19.1122 6.98715C19.1122 8.09292 18.1795 8.50958 17.0413 8.8301L16.6619 8.92625C16.3141 9.00638 15.9505 9.10253 15.6027 9.19869C15.4763 9.23074 15.3498 9.26279 15.2233 9.31087C13.9587 9.69548 12.8679 10.3205 12.8679 11.907C12.8679 13.4936 14.1168 14.0705 15.334 14.4551C15.334 14.0064 15.3182 13.5416 15.3024 13.0929C14.7491 12.8365 14.3855 12.5 14.3855 11.9391C14.3855 11.3782 14.7333 11.0577 15.255 10.8173C15.3656 10.7692 15.4921 10.7211 15.6344 10.673C15.9347 10.5609 16.2825 10.4807 16.6303 10.3846L17.0097 10.2884C18.717 9.87176 20.6456 9.32689 20.6298 7.00317ZM14.4804 18.109C14.4804 18.75 14.9388 19.0865 15.3972 19.359C15.3972 19.2468 15.3814 18.2692 15.3814 18.2532C15.3972 18.0609 15.5711 17.9327 15.7292 17.8686C15.9663 17.7564 16.2193 17.6602 16.4722 17.5801C16.6145 17.532 16.7251 17.484 16.8516 17.4519C17.7843 17.1634 18.8592 16.8109 18.8592 15.657C18.8592 14.5032 17.9424 14.0384 16.9306 13.6859C16.9148 14.0545 16.9148 14.5833 16.899 14.9519C17.3258 15.1122 17.6104 15.3205 17.6104 15.657C17.6104 16.0737 17.1836 16.2981 16.8674 16.4263C16.7409 16.4743 16.5512 16.5384 16.488 16.5545C16.2351 16.6346 15.9821 16.7147 15.7292 16.8109C15.6027 16.859 15.4763 16.907 15.3498 16.9711C14.9388 17.1955 14.4804 17.532 14.4804 18.109ZM15.1127 4.19868C14.7333 4.32689 14.3539 4.47112 13.9903 4.66343C13.5951 4.79163 13.026 4.82368 12.4411 5.46471C12.2514 5.68907 12.0775 5.92945 11.9036 6.16984C11.7297 6.42625 11.7139 6.84292 11.5874 7.05125C11.3977 7.37176 11.4452 7.56407 11.4452 7.56407C11.4136 7.7083 11.3345 7.85253 11.2397 7.96471C11.05 8.18907 10.7654 8.30125 10.4809 8.25317C10.7496 8.38138 11.1132 8.2051 11.1132 8.2051C11.05 8.38138 11.0025 8.55766 10.9709 8.73394C11.2713 8.04484 11.54 7.80446 11.6349 7.72433C11.7613 7.75638 12.0301 7.74035 12.5201 7.45189C13.0734 7.13138 13.9113 6.60253 14.1484 6.26599C14.4013 5.92945 14.7333 5.65702 15.1285 5.51279C15.1285 5.03202 15.1127 4.5833 15.1127 4.19868ZM12.7731 6.33009L12.4885 6.3942L12.8363 5.81727L13.2315 5.8333L12.7731 6.33009Z" fill="#C8C8C8"/>
<path d="M16.2667 18.0289C16.2193 18.0449 16.077 18.109 15.9822 18.141C15.8873 18.1731 15.7767 18.2212 15.7767 18.2532C15.7767 18.2532 15.8715 23.1891 15.8715 23.2853C15.8715 24.2949 16.3774 24.3109 16.3774 23.2853C16.3774 23.2212 16.488 17.9487 16.488 17.9487C16.488 17.9487 16.3458 17.9968 16.2667 18.0289ZM15.7292 16.3943C15.8873 16.3462 16.0454 16.2821 16.1877 16.25C16.2983 16.218 16.3932 16.1859 16.5038 16.1539C16.5038 15.8494 16.5987 11.5545 16.6145 10.7853C16.2825 10.8654 15.9505 10.9616 15.6344 11.0737C15.6502 11.6507 15.7292 15.9295 15.7292 16.3943ZM16.1561 0C14.7333 0 15.334 2.14744 15.4447 2.85257C15.4447 2.88462 15.5553 7.70834 15.587 8.81411C15.8083 8.75001 16.0138 8.70193 16.2351 8.65386L16.6619 8.54168C16.6777 7.46796 16.7884 2.86859 16.7884 2.83654C16.8832 2.09936 17.6262 0 16.1561 0" fill="#C8C8C8"/>
</svg>
