<svg width="186" height="58" viewBox="0 0 186 58" fill="none" xmlns="http://www.w3.org/2000/svg">
<path d="M79.0413 13.6856H79.0097L76.4804 27.083H73.0026L69.7144 10.7368H72.4967L74.7731 23.333H74.8047L77.2392 10.7368H80.8435L83.2463 23.333H83.2779L85.6492 10.7368H88.3366L85.0168 27.083H81.4758L79.0413 13.6856ZM92.51 14.8074C94.9444 14.8074 97.7267 16.0894 97.7267 20.9933C97.7267 26.0574 94.9444 27.2112 92.51 27.2112C90.0755 27.2112 87.2616 26.0253 87.2616 20.9933C87.2932 16.0894 90.1071 14.8074 92.51 14.8074ZM92.51 25.192C94.3437 25.192 94.7863 23.0445 94.7863 21.0253C94.7863 19.0061 94.3753 16.8907 92.51 16.8907C90.6446 16.8907 90.2336 19.0061 90.2336 21.0253C90.2336 23.0445 90.6762 25.192 92.51 25.192ZM99.1494 16.9869C99.1494 16.3138 99.1178 15.6727 99.0546 14.9997H101.647C101.679 15.7368 101.742 16.474 101.742 17.2112H101.774C102.121 16.2817 103.007 14.8394 104.809 14.8394C104.967 14.8394 105.125 14.8715 105.283 14.9035V17.6279C105.03 17.5638 104.746 17.4997 104.493 17.4997C103.323 17.4997 102.027 18.2369 102.027 20.4804V27.083H99.181L99.1494 16.9869ZM106.516 9.51889H109.393V27.051H106.516V9.51889ZM121.06 9.51889V24.9997C121.06 25.6728 121.091 26.3779 121.155 27.051H118.467C118.404 26.442 118.372 25.801 118.372 25.192H118.309C117.835 26.2176 116.981 27.2433 115.147 27.2433C112.207 27.2433 110.974 24.3907 110.974 21.0574C110.974 17.1151 112.523 14.8394 115.084 14.8394C116.412 14.7753 117.613 15.5445 118.151 16.7625H118.183V9.51889H121.06ZM115.906 25.0958C117.582 25.0958 118.151 23.2369 118.151 20.9933C118.151 18.6535 117.519 16.9548 115.938 16.9548C114.357 16.9548 113.788 18.5253 113.788 20.9292C113.819 23.7176 114.262 25.0958 115.906 25.0958ZM129.565 10.7368H132.536V17.3715H137.311V10.7368H140.251V27.083H137.311V19.8394H132.536V27.051H129.565V10.7368ZM150.716 26.474C149.609 26.9869 148.376 27.2433 147.175 27.2433C143.349 27.2433 141.674 24.4548 141.674 21.2176C141.674 17.6279 143.539 14.8394 146.574 14.8394C149.135 14.8394 151.317 16.3458 151.317 21.2817V21.8587H144.456C144.456 23.9099 145.278 25.1599 147.491 25.1599C149.23 25.1599 150.084 24.6151 150.621 24.2304L150.716 26.474ZM148.534 19.9997C148.534 17.8843 147.839 16.7945 146.543 16.7945C145.025 16.7945 144.424 18.3971 144.424 19.9997H148.534ZM153.15 15.7048C154.32 15.1279 155.617 14.8074 156.913 14.8074C160.612 14.8074 161.466 16.6343 161.466 19.6471V24.9035C161.466 25.6087 161.529 26.3138 161.624 27.0189H159.031C158.905 26.474 158.841 25.9292 158.873 25.3843H158.841C158.114 26.3779 157.229 27.2112 155.522 27.2112C153.688 27.2112 151.981 25.9292 151.981 23.6856C151.981 20.4163 154.605 19.583 158.241 19.583H158.81V19.1343C158.81 17.9484 158.241 16.8266 156.597 16.8266C155.427 16.8586 154.289 17.2753 153.34 18.0125L153.15 15.7048ZM158.778 21.1535H158.525C156.091 21.1535 154.636 21.6663 154.636 23.4292C154.573 24.3907 155.3 25.224 156.249 25.2881H156.47C158.177 25.2881 158.81 24.0061 158.81 21.8587V21.1535H158.778ZM164.09 9.51889H166.935V27.051H164.09V9.51889ZM170.223 12.5317L173.069 11.6343V14.9997H175.44V17.1151H173.069V23.3971C173.069 24.6792 173.543 25.0638 174.365 25.0638C174.745 25.0638 175.124 24.9676 175.44 24.8074V26.8587C174.839 27.1151 174.175 27.2433 173.511 27.2433C171.393 27.2433 170.192 26.2497 170.192 23.7176V17.1471H168.295V15.0317H170.192V12.5317H170.223ZM176.357 9.51889H179.202V16.5702H179.266C179.772 15.833 180.435 14.8394 182.206 14.8394C184.893 14.8394 185.715 16.8586 185.715 19.2945V27.051H182.87V19.8394C182.87 17.9804 182.396 17.2112 181.226 17.2112C179.74 17.2112 179.202 18.4933 179.202 20.0317V27.051H176.357V9.51889ZM76.2591 31.4099C79.6104 31.4099 82.6772 33.942 82.6772 39.8074C82.6772 45.6728 79.6104 48.2048 76.2591 48.2048C72.9077 48.2048 69.8409 45.6728 69.8409 39.8074C69.8409 33.942 72.9077 31.4099 76.2591 31.4099ZM76.2591 45.9292C78.1244 45.9292 79.642 44.3266 79.642 39.8074C79.642 35.2882 78.1244 33.7176 76.2591 33.7176C74.3937 33.7176 72.8761 35.3202 72.8761 39.8074C72.8761 44.2946 74.3937 45.9292 76.2591 45.9292ZM83.8786 37.9164C83.8786 37.2433 83.847 36.6023 83.7838 35.9292H86.3763C86.408 36.6664 86.4712 37.4035 86.4712 38.1407H86.5028C86.8506 37.2112 87.7675 35.7689 89.538 35.7689C89.6961 35.7689 89.8542 35.801 90.0122 35.833V38.5574C89.7593 38.4933 89.4748 38.4292 89.1902 38.4292C88.0204 38.4292 86.7241 39.1664 86.7241 41.41V48.0125H83.8786V37.9164ZM91.4034 49.8715C92.4783 50.5125 93.6798 50.8651 94.9128 50.8971C97.6002 50.8971 98.0428 49.0061 98.0428 47.1151V45.9612H98.0112C97.537 46.8907 96.7466 48.0125 94.8812 48.0125C93.2371 48.0125 90.7394 46.8907 90.7394 42.0189C90.7394 38.6856 91.9092 35.7689 95.0393 35.7689C96.7782 35.7689 97.5686 36.7625 98.1693 37.8202H98.2642C98.2642 37.1792 98.3274 36.5702 98.359 35.9612H100.952C100.92 36.6023 100.857 37.2112 100.857 37.8523V46.7305C100.857 50.5125 99.7185 53.1728 95.3554 53.1728C93.9643 53.1728 92.5732 52.9164 91.2769 52.4356L91.4034 49.8715ZM95.5451 45.8651C97.3473 45.8651 98.0745 44.551 98.0745 41.8266C98.0745 39.2946 97.126 37.9484 95.7664 37.9805C94.2489 38.0125 93.6798 39.4228 93.6798 41.8587C93.6798 44.6792 94.565 45.8651 95.5451 45.8651V45.8651ZM103.386 36.6343C104.556 36.0253 105.852 35.7369 107.148 35.7369C110.848 35.7369 111.701 37.5638 111.701 40.5766V45.833C111.701 46.5382 111.764 47.2433 111.859 47.9484H109.267C109.14 47.4036 109.077 46.8587 109.109 46.3138H109.077C108.35 47.3074 107.465 48.1407 105.757 48.1407C103.924 48.1407 102.216 46.8587 102.216 44.6151C102.216 41.3459 104.84 40.5125 108.476 40.5125H109.045V40.0638C109.045 38.8779 108.476 37.7561 106.832 37.7561C105.662 37.7882 104.524 38.2048 103.576 38.942L103.386 36.6343ZM109.014 42.083H108.761C106.326 42.083 104.872 42.5959 104.872 44.3587C104.809 45.3202 105.536 46.1535 106.484 46.2177H106.706C108.413 46.2177 109.045 44.9356 109.045 42.7882L109.014 42.083ZM114.009 37.9164C114.009 37.2433 113.978 36.6023 113.914 35.9292H116.602C116.633 36.5382 116.697 37.1792 116.697 37.7882H116.728C117.139 37.051 117.961 35.7689 119.89 35.7689C122.577 35.7689 123.399 37.7882 123.399 40.2241V47.9805H120.522V40.7369C120.522 38.8779 120.048 38.1087 118.878 38.1087C117.392 38.1087 116.855 39.3907 116.855 40.9292V47.9484H114.009V37.9164ZM125.581 30.801H128.553V33.6535H125.581V30.801ZM125.644 35.9292H128.49V47.9805H125.644V35.9292ZM130.734 45.4805L135.825 38.1407H130.892V35.9292H138.67V38.3971L133.675 45.7689H138.828V47.9805H130.703V45.4805H130.734ZM141.01 36.6343C142.18 36.0253 143.476 35.7369 144.772 35.7369C148.471 35.7369 149.325 37.5638 149.325 40.5766V45.833C149.325 46.5382 149.388 47.2433 149.483 47.9484H146.89C146.764 47.4036 146.701 46.8587 146.732 46.3138H146.701C145.973 47.3074 145.088 48.1407 143.381 48.1407C141.547 48.1407 139.84 46.8587 139.84 44.6151C139.84 41.3459 142.464 40.5125 146.1 40.5125H146.669V40.0638C146.669 38.8779 146.1 37.7561 144.456 37.7561C143.286 37.7882 142.148 38.2048 141.199 38.942L141.01 36.6343ZM146.637 42.083H146.385C143.95 42.083 142.496 42.5959 142.496 44.3587C142.432 45.3202 143.16 46.1535 144.108 46.2177H144.329C146.037 46.2177 146.669 44.9356 146.669 42.7882V42.083H146.637ZM152.423 33.4612L155.269 32.5638V35.9292H157.64V38.0446H155.269V44.2946C155.269 45.5766 155.743 45.9612 156.565 45.9612C156.944 45.9612 157.324 45.8971 157.64 45.7048V47.7561C157.039 48.0446 156.375 48.1728 155.711 48.1407C153.593 48.1407 152.392 47.1471 152.392 44.6471V38.0446H150.495V35.9292H152.392L152.423 33.4612ZM159.379 30.801H162.319V33.6535H159.379V30.801ZM159.442 35.9292H162.319V47.9805H159.474L159.442 35.9292ZM169.117 35.7369C171.551 35.7369 174.334 37.0189 174.334 41.9228C174.334 46.9869 171.551 48.1407 169.117 48.1407C166.682 48.1407 163.868 46.9869 163.868 41.9228C163.9 37.051 166.714 35.7369 169.117 35.7369ZM169.117 46.1215C170.951 46.1215 171.393 43.9741 171.393 41.9548C171.393 39.9356 170.982 37.8202 169.117 37.8202C167.251 37.8202 166.84 39.9356 166.84 41.9548C166.84 43.9741 167.283 46.1215 169.117 46.1215ZM176.61 37.9164C176.61 37.2433 176.578 36.6023 176.515 35.9292H179.202C179.234 36.5382 179.297 37.1792 179.297 37.7882H179.329C179.74 37.051 180.562 35.7689 182.491 35.7689C185.178 35.7689 186 37.7882 186 40.2241V47.9805H183.155V40.7369C183.155 38.8779 182.68 38.1087 181.51 38.1087C180.024 38.1087 179.487 39.3907 179.487 40.9292V47.9484H176.642L176.61 37.9164ZM52.4518 10.5766C53.6849 12.083 55.8348 12.9484 57.0994 14.4548C56.1826 10.0317 52.8312 6.40992 48.8475 5.54453C50.8078 7.01889 51.2188 9.07018 52.4518 10.5766ZM4.64763 21.7945C7.39827 15.7369 11.4768 17.0189 13.2157 11.2817C12.204 13.0125 7.74605 13.7497 5.69097 18.2689C6.76594 15.5766 6.22845 11.474 7.99898 9.23043C2.65579 13.2689 4.93218 19.7433 4.64763 21.7945V21.7945ZM9.57981 36.2817C10.0857 38.6215 8.63131 42.051 10.9393 45.2882C8.56808 42.5959 3.50943 41.8907 1.45436 37.7882C4.0153 47.8202 10.718 45.7689 13.7216 47.9484C11.2555 44.3266 13.2789 41.9228 9.57981 36.2817V36.2817ZM8.82101 42.5959C7.33503 36.9869 9.95921 35.0317 7.96736 29.6471C7.77767 32.692 5.75421 34.1664 7.11372 39.7112C4.74248 34.9997 1.07496 33.2369 0 30.0317C0.063233 38.8458 7.05048 40.16 8.82101 42.5959ZM19.539 51.9869C17.4839 49.1023 18.8751 47.4677 13.1209 42.2433C14.3539 44.1664 13.0892 46.5702 16.9781 50.2882C13.1841 48.0125 7.90413 48.9741 5.37481 45.9292C9.73789 54.3907 17.3891 50.9292 19.539 51.9869ZM47.5196 50.2882C51.4085 46.5382 50.1438 44.1343 51.3769 42.2433C45.591 47.4677 47.0138 49.1023 44.9271 51.9869C47.1086 50.9292 54.7598 54.3907 59.0913 45.9292C56.5936 49.0061 51.3136 48.0125 47.5196 50.2882ZM53.5584 45.2882C55.8664 42.051 54.412 38.6535 54.8863 36.2817C51.1872 41.9228 53.2106 44.3266 50.7445 47.9484C53.7797 45.7689 60.4508 47.8202 63.0117 37.7882C60.9567 41.8907 55.9296 42.5959 53.5584 45.2882V45.2882ZM44.3264 52.4036C42.2713 51.8587 40.153 51.5061 38.0031 51.442C36.0428 51.41 34.0826 51.7305 32.2489 52.4356C30.4151 51.7305 28.4549 51.41 26.4946 51.442C24.3447 51.5061 22.2264 51.8587 20.1713 52.4036C16.6935 53.333 13.69 54.0702 11.0658 52.7241C13.5635 54.9677 16.5038 55.801 20.7404 55.3202C24.2499 54.9356 27.0954 53.1407 30.4151 53.1728H30.5416C28.4549 54.2305 26.5895 55.7048 25.0719 57.4997L26.6843 57.7241C26.6843 57.7241 28.36 54.2946 32.2489 53.3971C36.1377 54.2946 37.8134 57.7241 37.8134 57.7241L39.4258 57.4997C37.9082 55.7048 36.0428 54.2305 33.9561 53.1728H34.0826C37.4023 53.1407 40.2478 54.9356 43.7573 55.3202C47.9939 55.7689 50.9026 54.9677 53.4319 52.7241C50.8078 54.0702 47.8042 53.333 44.3264 52.4036ZM8.2203 23.5574C6.79755 26.3458 4.55278 26.9869 4.80571 32.724C3.60428 27.6279 0.72718 25.7048 0.758797 22.4676C-1.23304 30.9933 4.07853 31.9869 5.46966 35.5766C5.24834 30.4484 8.47323 29.4228 8.2203 23.5574V23.5574ZM10.2121 16.9869C9.70627 17.692 9.35849 18.0125 8.0306 19.1022C6.03876 20.7048 4.64763 22.9804 4.17338 25.5125C4.29985 22.3715 2.40286 17.8843 3.66752 14.6151C-1.23304 21.6343 3.95207 25.833 4.14176 28.3971C5.37481 23.4933 8.31515 23.4612 10.2121 16.9869V16.9869ZM60.3243 25.5125C59.8185 22.9804 58.459 20.7048 56.4671 19.1022C55.1392 17.9804 54.7914 17.692 54.2856 16.9869C56.1826 23.4612 59.1229 23.4933 60.3876 28.3971C60.5773 25.8651 65.7624 21.6663 60.8618 14.6151C62.1265 17.8843 60.2295 22.3715 60.3243 25.5125V25.5125ZM64.4977 30.0317C63.4227 33.2689 59.7552 34.9997 57.384 39.7112C58.7435 34.1664 56.72 32.692 56.5303 29.6471C54.5385 35.0317 57.1627 36.9869 55.6767 42.5959C57.4472 40.16 64.4345 38.8458 64.4977 30.0317V30.0317ZM56.2774 23.5574C55.9929 29.4228 59.2494 30.4484 59.028 35.5766C60.3876 32.0189 65.7308 30.9933 63.7389 22.4676C63.7705 25.7369 60.8934 27.6279 59.692 32.7561C59.9449 26.9548 57.7318 26.3458 56.2774 23.5574V23.5574ZM12.0459 10.5766C13.2789 9.07018 13.69 7.01889 15.6502 5.54453C11.6349 6.40992 8.28353 9.99966 7.36665 14.4227C8.63131 12.9163 10.8129 12.0509 12.0459 10.5766ZM51.3136 11.2176C53.0525 16.9869 57.1311 15.7048 59.8817 21.7304C59.5971 19.7112 61.8735 13.2048 56.5303 9.23043C58.3325 11.442 57.795 15.5766 58.8384 18.2689C56.7517 13.7497 52.2937 13.0125 51.3136 11.2176ZM37.4023 14.5189C36.359 14.0702 35.2524 13.7817 34.1458 13.6215V14.3586C35.1892 14.5189 36.2009 14.8074 37.1494 15.192C37.2759 14.9676 37.3707 14.7433 37.4023 14.5189ZM36.5803 7.37146L36.8016 7.17915L36.3906 6.98684L35.284 6.95479L34.9995 7.1471L34.3672 7.08299V7.24325C34.7782 7.2753 35.1892 7.30735 35.5054 7.37146L36.0428 7.33941L36.5803 7.37146ZM34.4936 31.2817C34.4936 31.0894 34.2407 30.8971 33.8929 30.7369H33.8297C33.8297 30.8971 33.7981 31.6343 33.7981 32.0189C34.2091 31.7946 34.4936 31.6023 34.4936 31.2817ZM21.8154 17.2112C21.847 17.083 21.8786 16.9227 21.9103 16.7945C21.7522 16.8266 21.6257 16.8586 21.4676 16.8266L21.8154 17.2112ZM16.7251 12.0509L19.3177 14.6792C16.1877 17.9804 14.4171 22.4035 14.3539 26.9869H10.6864C10.7496 21.3779 12.8995 16.0574 16.7251 12.0509V12.0509ZM15.1443 32.4997L14.923 32.4676L14.7017 32.2433L13.6583 32.1471L13.9745 32.5958L13.026 32.4035L13.2789 32.1792L13.0576 31.9548L12.3621 32.2433L12.1091 32.692L12.204 33.7497L12.9944 35.6728L13.3738 36.2817L13.5951 36.3458L12.9944 35.192L12.8679 34.6151L12.9944 34.4869L12.8995 34.1664L13.2473 34.2305L13.8164 35.0638L13.9429 35.1279V34.5189L14.1642 34.6471L14.2274 34.9676L14.7965 35.1279L15.0495 34.9356L15.1443 34.9997V35.4484L15.3972 35.7689L15.7134 35.833L16.409 36.9869L16.82 37.1151L16.9465 36.5702C17.6736 37.7561 18.4957 38.8779 19.4758 39.8715L16.8832 42.4997C13.0293 38.5594 10.8116 33.2715 10.6864 27.724H14.3539C14.3855 29.3266 14.6701 30.9612 15.1443 32.4997V32.4997ZM18.7486 27.692C18.7486 28.0446 18.7802 28.3971 18.8434 28.7817L18.4008 28.8779L18.306 29.3266L17.3575 30.5446L17.3891 32.2112L16.4406 32.5317H15.9031C15.3972 30.9612 15.1443 29.3587 15.0811 27.692H18.7486ZM19.5706 38.1728L20.3927 38.6535L20.5507 38.7817L19.95 39.3907C19.6655 39.1023 19.4125 38.8138 19.1596 38.4933L19.5706 38.1728ZM22.922 18.333L25.5145 20.9612C24.9771 21.5702 24.5028 22.2433 24.155 22.9804H23.9653L23.5859 23.0766H23.4595L23.0801 23.4292L23.5859 23.3651L24.0286 23.2689L23.9337 23.3971L23.5543 23.6535H23.3646L22.7955 24.1022L22.258 24.0381L21.4676 25.5446L21.6257 25.833L21.1831 26.3458L21.1198 26.9869H19.4758C19.5074 23.7497 20.7404 20.6728 22.922 18.333V18.333ZM25.5778 29.1984L25.7675 29.1022L26.2417 29.4548L26.0204 29.6151L26.5579 29.9676L26.5263 29.583L26.8108 29.1022L27.127 29.4228L27.4431 29.8715L26.874 30.0317L27.127 30.5446L27.5064 30.3202L27.4431 30.1599L27.7277 29.9676L27.8858 29.1664C28.1071 29.6471 28.3916 30.0958 28.7394 30.4805L26.1469 33.1087C24.8822 31.7625 24.0918 30.0317 23.8705 28.1728L24.408 28.7497H24.9138L25.5778 29.1984ZM21.847 26.4099L21.9103 25.6728L22.3529 25.4163L23.1433 25.5446L23.2698 25.6728C23.2065 26.0894 23.1749 26.5381 23.1433 26.9548H22.258L21.847 26.4099ZM20.6456 28.974L20.2978 29.5189H19.6971L19.6655 29.4869C19.5706 28.9099 19.5074 28.301 19.4758 27.724H20.5824L20.3294 28.6215L20.6456 28.974ZM23.0801 36.2176C22.8271 35.9292 22.5426 35.6407 22.3213 35.3523L22.4477 34.4228L22.0683 33.5253L21.9735 32.1151L21.5309 31.2497L21.6257 30.7048L21.0882 29.6792L20.6456 29.4548L20.8353 28.9099L20.6456 28.4933L20.8353 28.0125H21.3412L21.5309 27.724H22.3845L22.511 27.9805L22.3213 28.8458L22.2264 29.0061L22.5426 29.7112L22.3213 29.8394L22.1632 29.6471L22.1 29.7112L22.258 30.1279L22.511 30.6087H22.6374L22.7007 30.1599L22.5742 29.9997V29.7112L22.5426 29.1022L22.7323 28.0125L22.5426 27.724H23.1433C23.2698 29.9356 24.155 32.0189 25.6726 33.6215L23.0801 36.2176ZM45.1484 39.8074C48.2784 36.5382 50.0806 32.2112 50.1754 27.692H53.8429C53.7165 33.2048 51.5349 38.4933 47.7093 42.4356L45.1484 39.8074ZM44.1367 38.7817L44.4212 38.4612L44.1367 37.0189L43.947 36.9548L44.0734 36.6984L43.4727 36.5061L43.3463 37.0189L43.283 37.66L43.1566 37.7882L42.05 36.6664C44.358 34.2305 45.6859 31.0574 45.8123 27.692H49.4799C49.3534 32.051 47.6461 36.1856 44.6425 39.2946L44.1367 38.7817ZM40.9118 42.2753L41.2596 41.5382L41.1331 41.2176L41.639 40.7689V40.5125L41.1963 40.2241L41.5441 39.4869L42.0816 38.7817L41.5441 38.2048H41.1331L40.8802 37.7882C41.1015 37.5958 41.3228 37.4035 41.5125 37.2112L44.1051 39.8394C43.1566 40.7689 42.0816 41.6023 40.9118 42.2753V42.2753ZM40.4059 35.0317L40.0581 34.6792L40.3111 34.3266L40.6589 33.6215L40.5324 33.4292L40.7537 32.9164L40.7221 32.4356L40.5956 31.9548L40.2795 31.8587L40.153 32.1151L39.9633 32.051C40.2478 31.6343 40.5008 31.1535 40.7221 30.7048L41.0382 30.5766L41.2279 30.3202L41.3228 30.4164L41.5441 30.1599L41.3544 29.9356L41.5125 29.9035L41.797 30.0317H42.3661L42.7139 29.8394L43.5992 29.583L43.4411 29.2946L43.3779 28.942L43.8521 29.1664L44.0418 29.0702L43.947 28.6856L43.3463 28.9099L42.7139 28.7817L42.2081 27.7561H45.0219C44.8955 30.9292 43.6308 33.942 41.4809 36.2176L41.1015 35.833L41.2596 35.3202L40.975 34.1664L40.4059 35.0317ZM39.078 21.0574L41.6706 18.4292C42.2713 19.1022 42.8088 19.8394 43.283 20.6087L42.9669 20.7048L42.9985 21.2817L43.947 21.8907C44.1999 22.4356 44.3896 22.9804 44.5477 23.5574L44.3896 23.8138L44.0418 24.0702L43.947 24.6151L43.694 24.7433L43.5043 24.9997L43.3146 24.9035H42.9669L43.1566 24.6151L43.3146 23.8779L43.5676 23.7176L42.872 23.0446L42.3661 23.2369L42.2397 23.7497L41.9235 24.1022L41.5757 23.8138L41.4493 23.4933L41.639 23.3651L41.7338 23.5574L41.8919 23.4933L41.8287 23.1728H41.6073V23.301L41.4493 23.333L40.6589 22.3715L40.3743 22.1471L40.4692 22.051L40.7221 21.9548L40.4692 21.8587C40.4692 21.8587 40.1846 21.9228 40.153 21.9228L40.3111 22.1471H39.9001C39.6471 21.7304 39.3942 21.3779 39.078 21.0574V21.0574ZM39.489 35.3843L38.6986 35.1599L38.4457 35.2561L38.0031 34.9035L37.592 34.7433C37.8134 34.583 38.0031 34.4228 38.1928 34.2625L38.8567 34.7433L39.3626 34.9997L39.6155 35.2561L39.489 35.3843ZM38.0979 23.0446L38.4141 22.9804V22.9163L38.0979 22.692L38.1928 21.9869L38.5722 21.5702C38.8251 21.8587 39.0464 22.1471 39.2677 22.4676L39.1413 22.8843L38.7935 22.6279L38.5089 22.692L38.6354 22.9484H38.7619L38.6038 23.333L38.5089 23.1728L38.0979 23.0446ZM42.4926 25.6087L43.1566 25.2561L43.8205 25.1599L43.9786 24.8394L44.358 24.6151L44.5161 24.2946L44.6425 23.7497C44.7058 23.942 44.7374 24.1343 44.8006 24.3266L44.4528 25.3843V25.7369L44.8955 24.9997C44.9903 25.6407 45.0535 26.3138 45.0852 26.9548H41.8603L41.797 26.6663L42.1764 26.3779L42.2397 26.1856L42.3978 26.0574L42.8404 25.9933L42.872 25.801L42.4926 25.6087ZM43.2198 16.8907L44.1051 16.9227L44.3264 17.1792L44.2315 17.5638L45.4646 18.333L45.7175 18.301L47.2667 20.1279L47.899 19.9035C48.9108 22.1151 49.4482 24.551 49.4799 26.9869H45.8123C45.8123 26.0253 45.6859 25.0958 45.4646 24.1663L45.6226 23.942L45.844 22.7561L45.6859 21.5061L45.2432 20.0638L44.2315 18.5574L44.4844 18.6856L44.6109 18.5574L43.7889 17.9804L43.7257 18.1728L44.5477 19.3586L45.0219 20.3202L45.3381 21.2817L45.4329 21.9228L45.591 23.0125L45.2749 23.0446C45.2749 23.0446 44.9271 22.3715 44.8006 22.083L44.9587 21.8266L44.6425 21.3779V20.9612L44.4212 20.6728L44.1367 20.7048C44.0418 20.5125 43.947 20.3202 43.8205 20.1599L44.0102 20.2561L44.0734 20.192L43.9786 19.9676L44.2315 19.8394L44.1367 19.7112L43.7889 19.8394L43.9153 19.2625L43.694 19.1343L43.5043 19.583C43.0933 18.974 42.6507 18.3971 42.1764 17.8522L43.2198 16.8907ZM47.899 12.1151C51.693 16.1215 53.8113 21.442 53.8746 26.9869H50.207C50.1754 24.2304 49.5431 21.5061 48.31 19.0381L48.3417 18.974L48.5946 19.1022L48.6578 18.9099L47.9939 17.7561L47.2035 16.6663L46.2866 15.8971C45.9704 15.5125 45.6543 15.1279 45.3065 14.7433L47.899 12.1151ZM32.2805 49.8074C44.6109 49.8074 54.6017 39.6471 54.5701 27.1471C54.5701 15.5445 45.9072 5.83299 34.5252 4.64709L34.4936 4.7753C34.462 4.99966 34.3988 5.19197 34.3672 5.38427C39.2677 5.86504 43.8521 8.04453 47.3616 11.5381L44.8955 14.0381L44.9903 13.5894L44.6741 13.4292L44.2631 13.4612L44.358 13.1727L44.0734 12.1471L43.4727 11.474L41.5441 10.4484L41.386 10.6407L41.0382 10.7368C41.7022 11.6984 42.05 12.8522 42.05 14.0061V14.4548L42.9985 15.6727L42.5558 15.7689L42.8404 16.2176L41.9867 17.083L41.639 16.442C41.4809 16.8907 41.2596 17.3394 41.0066 17.724L41.1963 17.8843L38.5722 20.5125C38.4141 20.3522 38.256 20.224 38.0979 20.0638C37.845 20.192 37.592 20.2881 37.3391 20.3843L37.5604 20.5445L37.434 20.6728L37.1178 20.833L36.9913 21.1535L36.8016 20.9612L36.2642 21.1535L36.4222 21.4099L36.8016 21.3138L37.0546 21.3458L37.0862 21.2176L37.2759 21.1215L37.3391 21.0253L37.6869 20.9292H37.9398L38.0979 21.0574L37.0862 22.1151L37.0229 22.0189L35.948 22.2112L35.6951 22.4676L35.4737 22.4997L36.1377 21.8587L35.8848 21.7304L35.2524 22.5638L35.4421 22.5317V22.8522L35.6634 22.9484L35.6951 23.2689L35.3157 23.2048L34.9363 23.2689L33.9878 22.7881C33.9878 22.7881 33.9245 25.3522 33.9245 26.6343C36.1377 27.4035 38.5089 28.4933 38.5089 31.3779C38.5405 32.5958 37.9082 33.7497 36.8965 34.4228L36.8333 34.4548L36.77 34.5189C35.8848 35.1279 34.7149 35.4484 33.7032 35.7689L33.6716 37.7882C35.284 38.5894 37.2126 39.7753 37.0229 43.1087C36.9913 43.942 36.6752 44.1664 36.4222 44.2305C35.4737 44.4548 34.4936 44.6151 33.5451 44.6792V45.4164C37.7185 45.1279 41.639 43.3651 44.6741 40.4484L47.2667 43.0766C38.9516 51.2177 25.7675 51.2177 17.4207 43.1407L20.0133 40.5125C23.0168 43.3651 26.9057 45.0959 31.0158 45.4164V44.6792C27.0954 44.3587 23.4278 42.7241 20.5824 39.9676L21.2463 39.2625L22.1948 39.3587L22.7007 38.8138L24.0286 38.8779L24.2183 38.3971L24.155 38.2048C26.1152 39.7112 28.4549 40.6728 30.921 40.9292V40.192C28.2019 39.8715 25.6726 38.7176 23.6492 36.8266L26.2417 34.1984C26.874 34.7753 27.5696 35.2561 28.36 35.6407C28.4233 35.3843 28.4865 35.1599 28.613 34.9356C27.949 34.583 27.3167 34.1664 26.7792 33.6856L29.3718 31.0574C29.7828 31.3779 30.257 31.6664 30.7313 31.8266V31.0253C30.4151 30.8971 30.1305 30.7048 29.8776 30.5125L30.6048 29.7753C30.3519 29.7112 30.0989 29.6151 29.846 29.5189L29.3401 30.0317C29.0872 29.7433 28.8659 29.4228 28.7078 29.1022C28.2652 28.9099 27.8225 28.6856 27.4115 28.3971C25.8939 27.4676 24.9771 25.7689 25.0087 23.942C24.9771 22.724 25.3248 21.5061 26.052 20.5445L23.4595 17.9163C25.3565 16.0574 27.7909 14.8715 30.3835 14.4548V13.7176C27.6012 14.1343 24.9771 15.4163 22.9536 17.4035L22.511 16.9548C22.4161 17.1151 22.2896 17.3394 22.1632 17.6279L22.4477 17.9163C20.1397 20.3843 18.8434 23.6535 18.7802 27.051H15.0811C15.1443 22.6599 16.82 18.4612 19.8236 15.2561L20.9934 16.442H21.1515C21.3728 16.4099 21.6257 16.3458 21.8154 16.2497L20.3294 14.7433C21.1198 13.974 21.9735 13.2689 22.8904 12.6599C22.9536 12.4676 22.9852 12.2753 23.0801 12.1151C23.2381 11.8586 23.4278 11.6022 23.6492 11.3458C22.258 12.1151 20.9934 13.0766 19.8552 14.1984L17.2626 11.5702C20.7404 8.14069 25.2616 5.99325 30.1305 5.48043C30.1305 5.38428 30.0989 5.32017 30.0989 5.32017C30.0673 5.12786 30.0357 4.96761 30.0041 4.74325C17.7053 6.0253 8.82101 17.1471 10.1173 29.583C11.3187 41.0894 20.8669 49.8394 32.2805 49.8074V49.8074ZM43.2514 10.6727L43.0301 10.3202L42.5558 10.0638L42.1764 10.3522L42.6507 10.6086L43.1882 10.9933L43.2514 10.6727ZM41.0382 21.1856L41.0699 21.474L41.7022 21.2817L41.8919 20.8971L41.4493 20.3202L41.6706 19.9676L42.2713 20.3843L42.3661 20.2881L42.2397 20.192L42.1132 19.9356L42.3661 19.8074L42.1132 19.4869L41.5441 19.7753L41.3544 20.1279L41.2279 20.4484L41.4809 20.8651L41.386 21.0574L41.0382 21.1856ZM14.5436 37.8523L14.5752 37.692L14.2591 36.9548L13.8797 36.7946L14.5436 37.8523ZM29.4982 23.8779C29.4982 24.5189 29.8776 24.9356 30.5416 25.3202V25.0317L30.1305 24.583L30.3519 24.1663L30.5416 24.1022C30.5099 23.3651 30.5099 22.5638 30.5099 22.4356H30.4783C29.846 22.8202 29.5298 23.2689 29.4982 23.8779" fill="#C8C8C8"/>
<path d="M33.6085 40C34.7467 40.5769 35.8217 41.4102 36.2643 42.9487C36.454 40.3846 35.0313 39.2948 33.6401 38.5256L33.6085 40ZM41.2597 14.0063C41.2597 11.6666 39.584 9.10249 35.5055 8.20506C35.0945 8.14095 34.6835 8.07685 34.2725 8.0448C34.2725 8.39736 34.2409 9.19865 34.2409 9.19865C34.2409 9.45506 34.2092 10.3845 34.2092 10.5769C34.4622 10.6089 34.7467 10.641 34.9996 10.673C37.3709 11.2499 38.2245 12.6281 38.2245 13.9743C38.2245 16.1858 36.3592 17.0192 34.0828 17.6602L33.324 17.8525C32.6284 18.0128 31.9012 18.2051 31.2057 18.3974C30.9527 18.4615 30.6998 18.5256 30.4469 18.6217C27.9175 19.391 25.736 20.641 25.736 23.814C25.736 26.9871 28.2337 28.141 30.6682 28.9102C30.6682 28.0128 30.6366 27.0833 30.605 26.1858C29.4984 25.673 28.7712 24.9999 28.7712 23.8782C28.7712 22.7564 29.4668 22.1153 30.5101 21.6346C30.7314 21.5384 30.9844 21.4422 31.2689 21.3461C31.8696 21.1217 32.5652 20.9615 33.2607 20.7692L34.0195 20.5769C37.4341 19.7435 41.2913 18.6538 41.2597 14.0063ZM28.9609 36.2179C28.9609 37.5 29.8778 38.173 30.7947 38.7179C30.7947 38.4936 30.763 36.5384 30.763 36.5064C30.7947 36.1218 31.1424 35.8653 31.4586 35.7371C31.9328 35.5128 32.4387 35.3205 32.9446 35.1602C33.2291 35.0641 33.4504 34.9679 33.7034 34.9038C35.5687 34.3269 37.7187 33.6217 37.7187 31.3141C37.7187 29.0064 35.8849 28.0769 33.8615 27.3717C33.8298 28.1089 33.8298 29.1666 33.7982 29.9038C34.6519 30.2243 35.221 30.641 35.221 31.3141C35.221 32.1474 34.3673 32.5961 33.735 32.8525C33.4821 32.9487 33.1027 33.0769 32.9762 33.1089C32.4703 33.2692 31.9645 33.4294 31.4586 33.6218C31.2057 33.7179 30.9527 33.8141 30.6998 33.9423C29.8778 34.391 28.9609 35.0641 28.9609 36.2179V36.2179ZM30.2256 8.39736C29.4668 8.65377 28.708 8.94224 27.9808 9.32685C27.1904 9.58326 26.0522 9.64736 24.8824 10.9294C24.503 11.3781 24.1552 11.8589 23.8074 12.3397C23.4596 12.8525 23.428 13.6858 23.1751 14.1025C22.7957 14.7435 22.8905 15.1281 22.8905 15.1281C22.8273 15.4166 22.6692 15.7051 22.4795 15.9294C22.1001 16.3781 21.531 16.6025 20.9619 16.5063C21.4994 16.7628 22.2266 16.4102 22.2266 16.4102C22.1001 16.7628 22.0053 17.1153 21.942 17.4679C22.5427 16.0897 23.0802 15.6089 23.2699 15.4487C23.5229 15.5128 24.0603 15.4807 25.0404 14.9038C26.147 14.2628 27.8227 13.2051 28.2969 12.532C28.8028 11.8589 29.4668 11.314 30.2572 11.0256C30.2572 10.064 30.2256 9.1666 30.2256 8.39736V8.39736ZM25.5463 12.6602L24.9772 12.7884L25.6728 11.6345L26.4632 11.6666L25.5463 12.6602Z" fill="#C8C8C8"/>
<path d="M32.5335 36.0577C32.4386 36.0898 32.1541 36.218 31.9644 36.2821C31.7747 36.3462 31.5534 36.4424 31.5534 36.5065C31.5534 36.5065 31.7431 46.3783 31.7431 46.5706C31.7431 48.5898 32.7548 48.6219 32.7548 46.5706C32.7548 46.4424 32.9761 35.8975 32.9761 35.8975C32.9761 35.8975 32.6916 35.9936 32.5335 36.0577V36.0577ZM31.4585 32.7885C31.7747 32.6924 32.0909 32.5641 32.3754 32.5C32.5967 32.4359 32.7864 32.3718 33.0077 32.3077C33.0077 31.6988 33.1974 23.109 33.229 21.5705C32.5651 21.7308 31.9012 21.9231 31.2688 22.1475C31.3004 23.3013 31.4585 31.859 31.4585 32.7885ZM32.3122 0C29.4667 0 30.6681 4.29488 30.8894 5.70514C30.8894 5.76924 31.1107 15.4167 31.174 17.6282C31.6166 17.5 32.0276 17.4039 32.4703 17.3077L33.3239 17.0834C33.3555 14.9359 33.5768 5.73719 33.5768 5.67308C33.7665 4.19872 35.2525 0 32.3122 0" fill="#C8C8C8"/>
</svg>
