<?xml version="1.0" encoding="UTF-8"?>
<svg xmlns="http://www.w3.org/2000/svg" xmlns:xlink="http://www.w3.org/1999/xlink" version="1.2" >
<font id="Noirden Extra Light Oblique">
<font-face  font-family="Noirden" units-per-em="1000" ascent="750" descent="-250" font-style="normal" font-weight="400" font-stretch="normal" cap-height="900" x-height="700" underline-position="-75" underline-thickness="50" />
<missing-glyph  horiz-adv-x="197" d="" />
<glyph glyph-name="NULL" d="" />
<glyph glyph-name="nonmarkingreturn" unicode="&#xd;" horiz-adv-x="197" d="" />
<glyph glyph-name="space" unicode="&#x20;" horiz-adv-x="197" d="" />
<glyph glyph-name="F" unicode="F" horiz-adv-x="544" d="M545 598 L154 598 L100 290 L483 290 L478 260 L95 260 L32 -100 L-2 -100 L124 629 L550 629 L545 598 L545 598 Z " />
<glyph glyph-name="E" unicode="E" horiz-adv-x="539" d="M546 598 L155 598 L100 290 L483 290 L478 260 L95 260 L36 -70 L427 -70 L422 -100 L-4 -100 L124 629 L551 629 L546 598 L546 598 Z " />
<glyph glyph-name="G" unicode="G" horiz-adv-x="770" d="M722 279 Q715 238 704 201.5 Q693 165 679 133 Q650 66 613 23 Q575 -21 525 -52 Q501 -67 476.5 -77.5 Q452 -88 426 -96 Q377 -109 320 -109 Q160 -109 89 -11 Q18 87 48 266 Q76 442 182 542 Q285 641 446 641 Q568 641 643 578 Q716 517 731 403 L714 399 Q710 397 706.5 396.5 Q703 396 701 395 Q697 394 695 394 Q695 397 694 401 Q692 409 692 412 Q677 507 611 558 Q546 610 440 610 Q295 610 204 520 Q111 428 84 266 Q71 188 78 126 Q87 63 115 17 Q129 -6 150 -23.5 Q171 -41 197 -54 Q224 -66 255.5 -72.5 Q287 -79 325 -79 Q384 -79 439 -59 Q494 -40 543 -1 Q592 39 628 102 Q664 166 680 248 L454 248 L377 248 L383 279 L460 279 L722 279 Z " />
<glyph glyph-name="H" unicode="H" horiz-adv-x="629" d="M600 629 L635 629 L510 -100 L475 -100 L537 260 L93 260 L31 -100 L-4 -100 L120 629 L156 629 L98 290 L542 290 L600 629 L600 629 Z " />
<glyph glyph-name="I" unicode="I" horiz-adv-x="124" d="M-19 -100 L107 629 L143 629 L16 -100 L-19 -100 L-19 -100 Z " />
<glyph glyph-name="J" unicode="J" horiz-adv-x="555" d="M215 -109 Q129 -109 79 -60 Q29 -9 22 83 L58 94 Q58 92 59 89 Q59 87 59.5 83 Q60 79 61 74 Q68 2 111 -39 Q154 -79 221 -79 Q310 -79 369 -24 Q429 31 445 129 L531 629 L568 629 L482 129 Q462 15 393 -47 Q322 -109 215 -109 Z " />
<glyph glyph-name="K" unicode="K" horiz-adv-x="555" d="M221 328 L481 -100 L439 -100 L194 306 L76 207 L22 -100 L-13 -100 L113 629 L149 629 L84 256 L534 629 L580 629 L221 328 L221 328 Z " />
<glyph glyph-name="L" unicode="L" horiz-adv-x="494" d="M26 -70 L417 -70 L412 -100 L-14 -100 L114 629 L150 629 L26 -70 L26 -70 Z " />
<glyph glyph-name="M" unicode="M" horiz-adv-x="705" d="M728 629 L599 -100 L563 -100 L669 500 Q671 507 672 516.5 Q673 526 675 534 Q677 544 679 554 L302 -100 L269 -100 L127 554 Q125 544 123 534 Q121 526 119.5 516 Q118 506 117 499 L11 -100 L-24 -100 L104 629 L149 629 L295 -57 L689 629 L728 629 Z " />
<glyph glyph-name="N" unicode="N" horiz-adv-x="601" d="M585 630 L621 630 L494 -100 L456 -100 L133 576 Q131 565 129 554 Q127 545 125.5 535.5 Q124 526 123 518 L15 -100 L-19 -100 L107 630 L144 630 L467 -47 Q469 -36 471 -25 Q473 -16 474 -6 Q475 4 477 12 L585 630 Z " />
<glyph glyph-name="O" unicode="O" horiz-adv-x="774" d="M588 -11 Q484 -109 322 -109 Q160 -109 88 -11 Q18 88 49 266 Q79 446 185 543 Q291 641 453 641 Q615 641 685 544 Q721 495 730.5 426 Q740 357 725 266 Q693 86 588 -11 Z M325 -79 Q471 -79 564 11 Q658 101 688 266 Q715 431 653 520 Q590 610 445 610 Q299 610 206 520 Q110 430 83 266 Q68 188 77 126 Q81 94 90 67 Q99 40 113 17 Q142 -28 197 -54 Q252 -79 325 -79 Z " />
<glyph glyph-name="P" unicode="P" horiz-adv-x="552" d="M346 629 Q458 629 512 578 Q564 527 548 434 Q532 342 460 290 Q388 239 276 239 L75 239 L14 -100 L-20 -100 L110 629 L346 629 Z M277 269 Q377 269 436 312 Q499 355 512 434 Q526 513 481 555 Q435 598 337 598 L140 598 L80 269 L277 269 Z " />
<glyph glyph-name="Q" unicode="Q" horiz-adv-x="774" d="M665 78 Q616 -3 546 -48 L618 -192 L576 -192 L515 -66 L514 -67 Q431 -109 328 -109 Q166 -109 95 -11 Q23 87 55 266 Q87 445 193 542 Q298 641 460 641 Q621 641 692 542 Q762 443 731 266 Q712 159 665 78 Z M452 62 L492 62 L533 -21 Q660 67 696 266 Q724 429 662 520 Q599 610 455 610 Q310 610 214 520 Q120 430 91 266 Q78 188 85 126 Q89 94 97.5 67 Q106 40 121 17 Q149 -28 203 -54 Q259 -79 333 -79 Q428 -79 501 -39 L452 62 Z " />
<glyph glyph-name="S" unicode="S" horiz-adv-x="584" d="M225 -109 Q67 -109 -20 -9 L4 18 L9 13 L18 4 Q96 -79 231 -79 Q345 -79 413 -33 Q481 12 495 93 Q516 218 366 255 L223 291 Q54 333 76 464 Q91 550 162 595 Q232 641 350 641 Q418 641 479 613 Q508 599 531.5 580.5 Q555 562 575 539 L549 517 L546 520 Q544 522 542 523.5 Q540 525 537 528 Q520 547 499 561.5 Q478 576 452 587 Q400 610 344 610 Q241 610 183 572 Q124 534 112 464 Q96 361 236 324 L380 287 Q557 242 532 94 Q516 -4 435 -57 Q358 -109 225 -109 Z " />
<glyph glyph-name="R" unicode="R" horiz-adv-x="537" d="M278 259 L464 -100 L420 -100 L237 259 L79 259 L14 -100 L-20 -100 L110 629 L354 629 Q469 629 522 580 Q576 532 560 444 Q543 355 473 307 Q401 259 288 259 L278 259 Z M140 598 L84 289 L293 289 Q388 289 450 329 Q510 370 523 444 Q537 518 489 558 Q466 578 430.5 588 Q395 598 345 598 L140 598 Z " />
<glyph glyph-name="T" unicode="T" horiz-adv-x="584" d="M615 629 L610 598 L368 598 L244 -100 L209 -100 L333 598 L92 598 L97 629 L615 629 L615 629 Z " />
<glyph glyph-name="U" unicode="U" horiz-adv-x="615" d="M243 -109 Q113 -109 61 -37 Q8 34 33 187 L109 629 L144 629 L69 187 Q47 56 91 -13 Q134 -79 249 -79 Q362 -79 428 -13 Q496 55 518 187 L594 629 L631 629 L555 187 Q530 36 451 -37 Q373 -109 243 -109 Z " />
<glyph glyph-name="V" unicode="V" horiz-adv-x="553" d="M572 629 L611 629 L226 -100 L226 -100 L188 -100 L188 -100 L68 629 L108 629 L217 -45 L572 629 L572 629 Z " />
<glyph glyph-name="W" unicode="W" horiz-adv-x="926" d="M938 629 L976 629 L631 -100 L596 -100 L517 565 L202 -100 L168 -100 L81 629 L119 629 L196 -41 L509 629 L548 629 L548 629 L548 629 L625 -41 L938 629 L938 629 Z " />
<glyph glyph-name="X" unicode="X" horiz-adv-x="649" d="M573 -100 L528 -100 L325 259 L-2 -100 L-43 -100 L308 286 L113 629 L158 629 L335 316 L621 629 L663 629 L352 289 L573 -100 L573 -100 Z " />
<glyph glyph-name="Y" unicode="Y" horiz-adv-x="579" d="M625 629 L306 244 L246 -100 L211 -100 L271 242 L88 629 L131 629 L294 274 L581 629 L625 629 L625 629 Z " />
<glyph glyph-name="Z" unicode="Z" horiz-adv-x="558" d="M602 629 L597 598 L11 -70 L482 -70 L477 -100 L-38 -100 L-33 -70 L555 598 L81 598 L86 629 L602 629 L602 629 Z " />
<glyph glyph-name="a" unicode="a" horiz-adv-x="582" d="M579 448 L492 -63 L486 -99 L474 -99 L456 -99 L459 -78 L462 -63 L476 18 Q438 -42 376 -75 Q315 -109 237 -109 Q177 -109 134 -90 Q91 -71 62 -33 Q6 44 30 174 Q41 240 66 292 Q91 344 133 382 Q215 458 333 458 Q409 458 461 426 Q510 394 528 336 L547 448 L579 448 Z M505 200 Q523 307 477 367 Q432 428 328 428 Q224 428 153 360 Q82 292 63 174 Q42 56 90 -11 Q138 -80 242 -80 Q343 -80 411 -20 Q477 39 495 143 L505 200 Z " />
<glyph glyph-name="b" unicode="b" horiz-adv-x="582" d="M500 383 Q555 308 532 175 Q508 42 428 -33 Q344 -109 226 -109 Q148 -109 99 -76 Q49 -43 31 16 L11 -100 L-19 -100 L107 629 L140 629 L89 336 Q128 394 188 426 Q249 459 326 459 Q445 459 500 383 Z M406 -11 Q478 56 499 175 Q518 293 472 361 Q425 429 321 429 Q216 429 151 368 Q85 309 65 200 L55 143 Q37 39 84 -20 Q129 -80 231 -80 Q335 -80 406 -11 Z " />
<glyph glyph-name="c" unicode="c" horiz-adv-x="593" d="M248 -109 Q187 -109 144 -90 Q101 -71 72 -33 Q17 45 39 173 Q61 304 144 381 Q226 458 345 458 Q437 458 493 410 Q548 364 557 277 L525 268 Q525 270 524 273 Q523 275 522 278 Q521 281 520 286 Q508 355 461 391 Q414 428 340 428 Q235 428 164 360 Q93 292 72 173 Q53 57 101 -11 Q149 -80 253 -80 Q329 -80 392 -40 Q454 1 488 73 L498 93 L504 91 Q510 89 515 89 L528 84 Q509 38 481 2.5 Q453 -33 418 -58 Q344 -109 248 -109 Z " />
<glyph glyph-name="d" unicode="d" horiz-adv-x="584" d="M596 629 L476 -100 L445 -100 L465 18 Q427 -42 365 -75 Q304 -109 227 -109 Q109 -109 51 -33 Q-4 45 17 175 Q39 307 120 383 Q201 459 319 459 Q397 459 447 427 Q473 411 489 388.5 Q505 366 515 337 L563 629 L596 629 Z M493 201 Q510 309 463 368 Q418 429 314 429 Q213 429 140 361 Q71 295 50 175 Q30 56 80 -11 Q126 -80 231 -80 Q334 -80 400 -20 Q467 39 483 143 L493 201 Z " />
<glyph glyph-name="e" unicode="e" horiz-adv-x="573" d="M547 290 Q552 267 551.5 243 Q551 219 547 193 L542 166 L497 166 L59 166 Q43 54 92 -12 Q143 -80 244 -80 Q319 -80 376 -44 Q432 -10 470 54 L481 73 Q492 69 495.5 68 Q499 67 510 64 Q508 59 505 53.5 Q502 48 499 43 Q460 -24 399 -64 Q328 -109 239 -109 Q120 -109 63 -32 Q6 47 27 172 Q49 301 133 380 Q175 418 224.5 438 Q274 458 334 458 Q397 458 443 435 Q489 413 514 374 Q527 355 534.5 334 Q542 313 547 290 Z M515 195 Q529 299 478 363 Q431 428 329 428 Q231 428 161 365 Q89 300 65 195 L515 195 Z " />
<glyph glyph-name="f" unicode="f" horiz-adv-x="372" d="M397 629 L392 599 L272 599 Q224 599 192 567 Q162 535 151 476 L147 446 L329 446 L324 417 L142 417 L56 -100 L24 -100 L110 417 L32 417 L37 446 L115 446 L119 476 Q131 548 172 589 Q213 629 277 629 L397 629 Z " />
<glyph glyph-name="g" unicode="g" horiz-adv-x="583" d="M596 447 L493 -144 Q482 -213 437 -248 Q394 -285 325 -285 L71 -285 L76 -256 L330 -256 Q383 -256 418 -226 Q452 -198 461 -144 L489 14 Q450 -42 391 -75 Q329 -109 253 -109 Q133 -109 78 -33 Q23 43 45 174 Q67 305 149 382 Q231 458 350 458 Q425 458 477 426 Q527 394 545 336 L564 447 L596 447 Z M521 200 Q540 305 494 368 Q447 428 345 428 Q239 428 170 360 Q99 294 78 174 Q57 56 106 -11 Q153 -79 258 -79 Q360 -79 426 -20 Q493 38 511 143 L521 200 Z " />
<glyph glyph-name="h" unicode="h" horiz-adv-x="497" d="M299 458 Q400 458 438 396 Q475 335 454 215 L401 -100 L368 -100 L421 215 Q439 321 409 375 Q379 428 294 428 Q109 428 78 241 L20 -100 L-12 -100 L110 629 L143 629 L96 350 Q162 458 299 458 Z " />
<glyph glyph-name="backslash" unicode="&#x5c;" horiz-adv-x="585" d="M397 -230 L141 723 L176 723 L430 -230 L397 -230 L397 -230 Z " />
<glyph glyph-name="bracketright" unicode="&#x5d;" horiz-adv-x="274" d="M306 721 L141 -232 L-40 -232 L-35 -202 L112 -202 L267 690 L119 690 L124 721 L306 721 Z " />
<glyph glyph-name="asciicircum" unicode="&#x5e;" horiz-adv-x="413" d="M248 697 L350 448 L317 448 L227 669 L61 448 L28 448 L216 697 L248 697 L248 697 Z " />
<glyph glyph-name="underscore" unicode="&#x5f;" horiz-adv-x="540" d="M40 -100 L46 -71 L492 -71 L486 -100 L40 -100 L40 -100 Z " />
<glyph glyph-name="i" unicode="i" horiz-adv-x="123" d="M-16 -100 L77 447 L110 447 L16 -100 L-16 -100 L-16 -100 Z M100 609 L141 609 L134 567 L93 567 L100 609 Z " />
<glyph glyph-name="j" unicode="j" horiz-adv-x="122" d="M92 447 L125 447 L19 -143 Q5 -212 -37 -247 Q-82 -284 -150 -284 L-206 -284 L-247 -284 L-244 -270 L-242 -255 L-221 -255 L-201 -255 L-145 -255 Q-92 -255 -57 -225 Q-24 -197 -13 -143 L92 447 Z M158 609 L150 567 L109 567 L117 609 L158 609 Z " />
<glyph glyph-name="k" unicode="k" horiz-adv-x="446" d="M374 -100 L328 -100 Q326 -98 324 -94.5 Q322 -91 315.5 -82 Q309 -73 296 -55.5 Q283 -38 260 -6 Q237 26 201.5 74 Q166 122 114 193 L56 145 L13 -100 L-19 -100 L107 629 L140 629 L63 189 L378 447 L425 447 L143 216 L374 -100 Z " />
<glyph glyph-name="l" unicode="l" horiz-adv-x="248" d="M176 -71 L171 -100 L118 -100 Q55 -100 28 -60 Q1 -19 13 51 L112 629 L145 629 L46 51 Q37 -8 57 -39 Q77 -71 123 -71 L176 -71 Z " />
<glyph glyph-name="n" unicode="n" horiz-adv-x="497" d="M452 396 Q471 365 474.5 320 Q478 275 468 215 L414 -100 L382 -100 L436 215 Q454 321 424 374 Q394 428 309 428 Q124 428 93 241 L35 -100 L2 -100 L95 448 L126 448 L109 346 Q176 458 314 458 Q414 458 452 396 Z " />
<glyph glyph-name="m" unicode="m" horiz-adv-x="779" d="M624 458 Q794 458 756 233 L699 -100 L666 -100 L723 233 Q740 334 713 381 Q688 428 619 428 Q533 428 488 380 Q442 334 425 233 L368 -100 L334 -100 L391 233 Q424 428 287 428 Q202 428 156 384 Q109 339 93 241 L35 -100 L2 -100 L95 448 L126 448 L111 357 Q170 458 292 458 Q418 458 430 335 Q489 458 624 458 Z " />
<glyph glyph-name="o" unicode="o" horiz-adv-x="573" d="M239 -109 Q120 -109 64 -33 Q9 43 31 174 Q52 304 133 382 Q217 458 334 458 Q453 458 509 381 Q538 343 546 291.5 Q554 240 543 174 Q521 43 440 -33 Q398 -71 348.5 -90 Q299 -109 239 -109 Z M91 -11 Q140 -80 244 -80 Q349 -80 418 -11 Q489 56 510 174 Q529 292 481 360 Q433 428 329 428 Q225 428 154 360 Q84 294 64 174 Q43 56 91 -11 Z " />
<glyph glyph-name="p" unicode="p" horiz-adv-x="582" d="M538 383 Q592 306 570 176 Q546 43 464 -33 Q383 -109 264 -109 Q225 -109 194 -101 Q163 -93 137 -78 Q88 -46 70 11 L19 -281 L-14 -281 L112 448 L143 448 L123 334 Q165 394 224 426 Q285 459 363 459 Q482 459 538 383 Z M444 -11 Q516 58 535 175 Q556 295 509 361 Q462 429 358 429 Q255 429 189 370 Q157 341 135 300.5 Q113 260 104 208 L94 149 Q74 41 121 -19 Q167 -80 269 -80 Q372 -80 444 -11 Z " />
<glyph glyph-name="q" unicode="q" horiz-adv-x="583" d="M597 448 L470 -280 L438 -280 L489 14 Q454 -42 392 -76 Q330 -108 253 -108 Q193 -108 150 -89 Q107 -70 78 -32 Q24 45 46 175 Q70 305 150 382 Q234 458 351 458 Q428 458 479 424 Q530 391 547 332 L567 448 L597 448 Z M523 206 Q541 310 494 369 Q447 428 345 428 Q241 428 171 360 Q100 294 79 174 Q59 55 106 -10 Q154 -79 258 -79 Q361 -79 428 -18 Q495 45 513 151 L523 206 Z " />
<glyph glyph-name="r" unicode="r" horiz-adv-x="297" d="M324 448 L319 419 L295 419 Q214 417 162 374 Q110 329 93 234 L35 -100 L2 -100 L97 448 L127 448 L109 343 Q171 442 301 448 L324 448 Z " />
<glyph glyph-name="s" unicode="s" horiz-adv-x="473" d="M186 -109 Q155 -109 127 -102.5 Q99 -96 72 -84 Q20 -59 1 -25 L28 -5 Q37 -19 59 -35 Q81 -51 100 -60 Q143 -80 191 -80 Q278 -80 331 -48 Q383 -17 394 45 Q410 138 270 172 Q265 174 256.5 176 Q248 178 235 180 Q224 183 214.5 185.5 Q205 188 197 190 Q64 220 82 329 Q93 384 149 421 Q208 459 292 459 Q351 459 395 432 Q410 423 428 407.5 Q446 392 454 378 L430 357 Q423 365 413 375 Q395 393 366 412 Q350 422 330 426 Q310 430 287 430 Q215 430 169 400 Q121 370 114 330 Q107 283 131 257 Q155 231 207 219 Q214 217 223 215 Q232 213 244 210 Q266 204 280 201 Q359 182 399 143 Q439 106 428 45 Q414 -30 352 -69 Q290 -109 186 -109 Z " />
<glyph glyph-name="t" unicode="t" horiz-adv-x="362" d="M155 419 L91 58 Q80 -2 100 -37 Q122 -71 170 -71 L246 -71 L279 -71 L274 -100 L241 -100 L165 -100 Q101 -100 73 -58 Q44 -17 57 58 L121 419 L36 419 L41 448 L126 448 L158 629 L192 629 L160 448 L373 448 L368 419 L155 419 Z " />
<glyph glyph-name="u" unicode="u" horiz-adv-x="504" d="M506 448 L413 -100 L382 -100 L399 3 Q333 -109 195 -109 Q92 -109 56 -48 Q37 -17 33.5 28 Q30 73 40 133 L94 448 L126 448 L72 133 Q54 28 84 -26 Q114 -80 200 -80 Q383 -80 415 108 L473 448 L506 448 Z " />
<glyph glyph-name="v" unicode="v" horiz-adv-x="481" d="M510 448 L208 -100 L171 -100 L67 448 L103 448 L199 -50 L474 448 L510 448 L510 448 Z " />
<glyph glyph-name="w" unicode="w" horiz-adv-x="777" d="M770 448 L807 448 L529 -100 L494 -100 L423 382 L179 -100 L144 -100 L64 448 L100 448 L171 -46 L421 448 L450 448 L521 -46 L770 448 L770 448 Z " />
<glyph glyph-name="x" unicode="x" horiz-adv-x="506" d="M450 -100 L409 -100 L251 173 L6 -100 L-31 -100 L238 197 L94 448 L135 448 L264 226 L464 448 L502 448 L278 199 L450 -100 L450 -100 Z " />
<glyph glyph-name="y" unicode="y" horiz-adv-x="482" d="M527 448 L173 -196 Q153 -233 116 -258 Q81 -281 44 -281 L41 -281 L11 -281 L17 -248 L47 -248 L58 -248 Q81 -248 106 -231 Q129 -213 147 -181 L192 -99 L82 448 L119 448 L216 -56 L490 448 L527 448 Z " />
<glyph glyph-name="z" unicode="z" horiz-adv-x="500" d="M522 448 L517 419 L29 -70 L435 -70 L429 -100 L-19 -100 L-13 -70 L474 419 L68 419 L73 448 L522 448 L522 448 Z " />
<glyph glyph-name="bar" unicode="&#x7c;" horiz-adv-x="124" d="M160 722 L-4 -231 L-36 -231 L128 722 L160 722 Z " />
<glyph glyph-name="braceleft" unicode="&#x7b;" horiz-adv-x="246" d="M291 721 L289 706 L286 690 L269 690 L263 690 L259 690 Q227 690 204 665 Q182 639 175 596 L132 346 Q130 335 126.5 326 Q123 317 119 308 Q114 299 109.5 292 Q105 285 99 279 Q94 274 89 269 Q84 264 79 260 Q69 251 63 249 L57 245 Q58 245 59 244 Q60 243 62 242 Q64 240 66.5 238 Q69 236 74 231 Q81 224 88 212 Q94 199 97 183 Q99 174 99 164.5 Q99 155 97 144 L55 -106 Q48 -151 61 -176 Q75 -202 106 -202 L110 -202 L116 -202 L133 -202 L130 -218 L128 -232 L105 -232 L102 -232 Q55 -232 33 -198 Q10 -166 19 -109 L62 140 Q65 161 62 180 Q59 197 51 210 Q47 216 43.5 220.5 Q40 225 36 230 Q31 234 28 237 Q25 240 22 242 L16 245 Q20 247 23 249 Q30 252 40 260 Q47 265 52.5 270 Q58 275 64 280 Q74 292 84 310 Q89 319 92.5 329 Q96 339 98 350 L140 597 Q149 654 184 687 Q220 721 265 721 L268 721 L291 721 Z " />
<glyph glyph-name="braceright" unicode="&#x7d;" horiz-adv-x="245" d="M140 720 Q187 720 210 686 Q233 651 224 596 L182 349 Q179 327 182 309 Q185 290 193 279 Q195 274 199 269 Q203 264 208 259 Q213 254 216.5 252 Q220 250 221 248 Q224 246 228 244 L221 241 Q217 239 212.5 236 Q208 233 203 229 Q198 224 192 219.5 Q186 215 181 209 Q169 197 160 179 Q155 169 152 159.5 Q149 150 147 139 L105 -110 Q96 -166 61 -199 Q27 -233 -19 -233 L-44 -233 L-39 -203 L-13 -203 Q17 -203 40 -177 Q63 -152 71 -107 L113 143 Q116 164 125 182 Q130 191 134.5 198 Q139 205 144 211 Q152 220 165 230 Q170 235 174 237 Q178 239 180 241 Q182 242 184 243 Q186 244 188 244 L182 248 Q180 250 176.5 252 Q173 254 169 259 Q166 263 162.5 268 Q159 273 155 278 Q153 284 150.5 291 Q148 298 146 307 Q143 326 147 345 L189 595 Q196 638 181 664 Q167 689 135 689 L109 689 L115 720 L140 720 Z " />
<glyph glyph-name="asciitilde" unicode="&#x7e;" horiz-adv-x="572" d="M388 210 Q367 210 345 221 Q323 234 310 249 Q303 257 295 266 Q287 275 279 285 Q262 304 249 321 Q234 339 216 349 Q198 360 177 360 Q132 360 107 335 Q82 310 67 257 Q65 252 65 248.5 Q65 245 64 243 Q63 240 63 239 L30 242 Q48 314 84 352 Q120 390 182 390 Q196 390 209 386 Q222 382 236 374 Q249 366 260 357 Q271 348 281 337 Q290 326 299.5 315 Q309 304 317 293 Q327 282 336 273 Q345 264 355 256 Q374 241 394 241 Q437 241 463 265 Q490 290 503 340 Q504 344 505 348 Q506 352 507 355 Q508 359 509 361 L540 355 Q519 283 483 247 Q446 210 388 210 Z " />
<glyph glyph-name="Euro" unicode="&#x20ac;" horiz-adv-x="624" d="M628 629 L622 596 L470 596 Q348 596 262 534 Q177 471 136 355 L512 355 L507 324 L127 324 Q123 310 119 295 Q115 280 113 264 Q111 256 110 245 Q109 234 108 218 L457 218 L452 188 L105 188 Q101 64 166 -3 Q229 -70 357 -70 L508 -70 L502 -103 L351 -103 Q209 -103 137 -27 Q64 48 70 188 L24 188 L29 218 L72 218 Q75 249 78 264 Q80 280 83.5 295 Q87 310 91 324 L47 324 L52 355 L100 355 Q143 486 241 558 Q336 629 476 629 L628 629 Z " />
<glyph glyph-name="circumflex" unicode="&#x2c6;" horiz-adv-x="326" d="M292 525 L250 525 L174 618 L61 525 L20 525 L142 626 Q161 641 179 641 Q197 641 209 626 L292 525 Z " />
<glyph glyph-name="D" unicode="D" horiz-adv-x="701" d="M371 630 Q532 630 604 534 Q676 437 646 265 Q614 90 510 -5 Q406 -100 244 -100 L-3 -100 L123 630 L371 630 Z M249 -70 Q393 -70 489 18 Q582 106 610 265 Q637 424 574 512 Q511 599 366 599 L153 599 L36 -70 L249 -70 Z " />
<glyph glyph-name="exclam" unicode="&#x21;" horiz-adv-x="124" d="M0 0 L106 629 L141 629 Q112 457 92 342 Q72 227 60 155 Q48 83 41.5 47.5 Q35 12 33 0 L0 0 Z M-21 -100 L19 -100 L26 -59 L-14 -59 L-21 -100 Z " />
<glyph glyph-name="quotedbl" unicode="&#x22;" horiz-adv-x="187" d="M22 511 Q19 511 18 514 Q17 516 19 520 L47 580 Q52 591 45 595 Q35 604 38 619 Q39 631 50 640 Q61 648 74 648 Q87 648 92 640 Q100 632 98 619 Q97 612 59 534 Q51 519 44 516 Q36 511 22 511 Z M95 511 Q92 511 91 514 Q89 517 91 520 L120 580 Q124 589 117 595 Q108 604 111 619 Q112 630 122 640 Q133 648 145 648 Q159 648 164 640 Q171 632 170 619 Q168 614 158.5 593 Q149 572 132 534 Q124 519 117 516 Q109 511 95 511 Z " />
<glyph glyph-name="numbersign" unicode="&#x23;" horiz-adv-x="624" d="M589 370 L482 370 L400 157 L507 157 L495 127 L388 127 L301 -100 L270 -100 L358 127 L145 127 L57 -100 L27 -100 L115 127 L8 127 L20 157 L127 157 L208 370 L102 370 L114 400 L221 400 L308 629 L338 629 L251 400 L464 400 L551 629 L581 629 L494 400 L601 400 L589 370 L589 370 Z M370 157 L451 370 L239 370 L157 157 L370 157 L370 157 Z " />
<glyph glyph-name="percent" unicode="&#x25;" horiz-adv-x="618" d="M169 395 Q117 395 86 432 Q56 468 65 521 Q74 573 116 609 Q159 645 211 645 Q263 645 293 609 Q324 574 315 521 Q306 467 263 432 Q222 395 169 395 Z M133 590 Q115 576 105.5 558.5 Q96 541 92 521 Q84 478 109 451 Q133 422 173 422 Q213 422 248 451 Q281 479 288 521 Q294 561 271 590 Q247 619 206 619 Q167 619 133 590 Z M494 105 Q524 69 515 16 Q506 -36 464 -72 Q421 -109 370 -109 Q318 -109 287 -72 Q257 -36 266 16 Q275 69 317 105 Q358 142 412 142 Q464 142 494 105 Z M449 -53 Q483 -25 489 16 Q497 57 472 86 Q448 114 408 114 Q366 114 334 86 Q301 57 293 16 Q287 -25 311 -53 Q333 -82 375 -82 Q416 -82 449 -53 Z M17 -78 L17 -79 L2 -96 L-18 -96 L-33 -96 L566 615 L581 633 L617 633 L17 -78 Z " />
<glyph glyph-name="quotesingle" unicode="&#x27;" horiz-adv-x="139" d="M35 504 Q33 504 30 507 Q30 511 31 513 L59 573 Q64 584 57 587 Q47 595 49 612 Q52 625 62 633 Q73 641 86 641 Q98 641 105 633 Q112 624 109 612 Q109 606 71 527 Q65 514 57 509 Q47 504 35 504 Z " />
<glyph glyph-name="ampersand" unicode="&#x26;" horiz-adv-x="720" d="M653 -68 L651 -80 L648 -98 L629 -98 L619 -98 Q580 -98 547 -82 Q516 -67 497 -39 L480 -9 Q362 -109 229 -109 Q112 -109 50 -47 Q-10 14 7 117 Q16 170 50 214 Q86 260 141 292 L250 355 L210 419 Q179 467 187 516 Q197 572 241 607 Q284 641 348 641 Q414 641 449 608 Q482 574 471 513 Q459 443 366 389 L297 348 L489 40 Q571 124 617 236 L627 256 L633 254 L642 251 L657 246 Q602 107 505 15 L525 -16 Q533 -28 543 -37.5 Q553 -47 567 -54 Q591 -68 624 -68 L635 -68 L653 -68 Z M281 373 L353 414 Q391 436 412 460 Q431 482 436 512 Q445 559 419 585 Q394 611 343 611 Q294 611 262 586 Q228 558 221 516 Q215 480 241 436 L281 373 Z M235 -78 Q356 -78 463 16 L267 330 L151 262 Q57 205 42 117 Q26 29 80 -25 Q132 -78 235 -78 Z " />
<glyph glyph-name="parenleft" unicode="&#x28;" horiz-adv-x="235" d="M88 -212 Q12 19 49 237 Q94 495 248 700 L272 688 L266 680 Q264 677 262 673.5 Q260 670 258 668 Q125 481 82 237 Q46 30 112 -181 Q113 -183 114 -185.5 Q115 -188 116 -191 Q117 -195 118 -198 L110 -202 Q106 -204 102.5 -205.5 Q99 -207 97 -208 L88 -212 Z " />
<glyph glyph-name="parenright" unicode="&#x29;" horiz-adv-x="234" d="M-18 -208 Q-20 -207 -22.5 -205.5 Q-25 -204 -28 -202 Q-32 -200 -35 -198 Q-34 -195 -31 -191 Q-29 -188 -27 -185.5 Q-25 -183 -23 -181 Q46 -75 89 29 Q132 133 149 237 Q191 484 123 668 L115 688 L143 700 Q228 493 183 237 Q164 127 116 15.5 Q68 -96 -10 -212 L-18 -208 Z " />
<glyph glyph-name="asterisk" unicode="&#x2a;" horiz-adv-x="448" d="M410 501 L244 455 L324 324 L296 306 L225 443 L109 306 L87 324 L211 455 L58 501 L73 530 L221 474 L241 641 L272 641 L241 474 L406 530 L410 501 L410 501 Z " />
<glyph glyph-name="plus" unicode="&#x2b;" horiz-adv-x="564" d="M528 269 L523 238 L297 238 L256 0 L221 0 L262 238 L36 238 L41 269 L267 269 L308 506 L343 506 L302 269 L528 269 L528 269 Z " />
<glyph glyph-name="comma" unicode="&#x2c;" horiz-adv-x="139" d="M42 -189 Q38 -189 37 -186 Q37 -183 38 -182 L66 -121 Q72 -111 65 -106 Q55 -98 57 -82 Q60 -69 69 -60 Q80 -52 93 -52 Q104 -52 112 -60 Q120 -69 117 -82 Q117 -87 77 -167 Q71 -181 64 -184 Q54 -189 42 -189 Z " />
<glyph glyph-name="hyphen" unicode="&#x2d;" horiz-adv-x="434" d="M382 275 L376 243 L56 243 L62 275 L382 275 Z " />
<glyph glyph-name="period" unicode="&#x2e;" horiz-adv-x="88" d="M38 -109 Q24 -109 18.5 -100.5 Q13 -92 15 -79 Q17 -66 26.5 -57.5 Q36 -49 49 -49 Q62 -49 69 -58 Q76 -67 74 -79 Q72 -92 61.5 -100.5 Q51 -109 38 -109 Z " />
<glyph glyph-name="slash" unicode="&#x2f;" horiz-adv-x="569" d="M-26 -203 L560 750 L595 750 L7 -203 L-26 -203 L-26 -203 Z " />
<glyph glyph-name="zero" unicode="0" horiz-adv-x="633" d="M253 -109 Q125 -109 71 -9 Q19 89 49 270 Q79 448 164 545 Q251 642 379 642 Q506 642 560 545 Q613 447 583 270 Q568 178 539 109.5 Q510 41 467 -9 Q423 -59 370.5 -84 Q318 -109 253 -109 Z M258 -76 Q369 -76 444 15 Q482 61 508 123 Q534 185 548 270 Q575 431 529 521 Q484 610 373 610 Q262 610 187 521 Q112 433 85 270 Q71 185 75.5 123 Q80 61 102 15 Q147 -76 258 -76 Z " />
<glyph glyph-name="one" unicode="1" horiz-adv-x="215" d="M235 635 L105 -100 L70 -100 L182 534 L64 534 L68 557 L187 558 Q188 567 191 575 Q193 582 195 589 Q197 596 199 601 L208 635 L235 635 Z " />
<glyph glyph-name="two" unicode="2" horiz-adv-x="558" d="M302 212 Q236 177 193.5 153 Q151 129 131 116 Q71 76 48 34 Q37 16 29 -10.5 Q21 -37 15 -70 L431 -70 L426 -100 L-25 -100 L-20 -70 Q-12 -22 3.5 16 Q19 54 42 81 Q80 125 161 172 Q193 190 292 242 Q309 252 324 260 Q339 268 351 275 Q364 283 376.5 291 Q389 299 402 309 Q416 318 426.5 327.5 Q437 337 445 346 Q462 363 476 388 Q481 399 485.5 411 Q490 423 492 437 Q506 515 460 561 Q416 608 327 608 Q256 608 197 571 Q139 533 114 472 L107 455 L101 457 Q99 458 96 458.5 Q93 459 91 460 L76 465 Q100 540 171 590 Q206 616 247 628 Q288 640 333 640 Q441 640 491 584 Q543 527 528 437 Q522 399 501 366 Q481 332 448 305 Q431 291 415 279.5 Q399 268 382 257 Q366 246 345.5 235 Q325 224 302 212 Z " />
<glyph glyph-name="three" unicode="3" horiz-adv-x="530" d="M466 221 Q495 174 483 109 Q466 11 390 -49 Q313 -109 204 -109 Q113 -109 54 -59 Q-5 -11 -5 69 L29 78 Q31 5 85 -39 Q134 -78 210 -78 Q303 -78 368 -27 Q432 25 447 109 Q460 181 417 227 Q375 271 290 271 L207 271 L212 300 L294 300 Q367 300 420 342 Q471 384 483 454 Q495 524 452 566 Q410 609 327 609 Q249 609 190 572 Q156 551 133 521 Q110 491 98 456 L67 466 Q94 546 165 593 Q202 618 243 629.5 Q284 641 331 641 Q430 641 481 590 Q533 539 518 454 Q507 392 469 349 Q433 306 374 286 Q435 268 466 221 Z " />
<glyph glyph-name="four" unicode="4" horiz-adv-x="488" d="M452 101 L446 70 L360 70 L331 -100 L296 -100 L325 70 L-16 70 L-10 101 L421 629 L456 629 L366 101 L452 101 Z M26 101 L331 101 L406 539 Q406 541 406.5 546 Q407 551 408 557 Q409 564 411 572 L26 101 Z " />
<glyph glyph-name="five" unicode="5" horiz-adv-x="563" d="M304 379 Q414 379 471 312 Q527 244 508 135 Q490 27 411 -42 Q329 -109 220 -109 Q125 -109 67 -61 Q7 -14 4 64 L40 76 Q41 73 41 70 Q41 67 41 64 Q41 61 42 56 Q50 -5 98 -40 Q147 -76 226 -76 Q321 -76 389 -18 Q456 40 473 135 Q489 229 441 288 Q393 346 298 346 Q236 346 178 317 Q118 286 82 237 L46 237 L143 629 L552 629 L546 599 L172 599 L97 298 Q118 317 142.5 332 Q167 347 193 358 Q247 379 304 379 Z " />
<glyph glyph-name="six" unicode="6" horiz-adv-x="580" d="M235 -109 Q173 -109 131 -87 Q89 -65 61 -22 Q47 0 39.5 27 Q32 54 31 86 Q27 148 42 242 Q77 440 160 540 Q243 641 374 641 Q452 641 502 595 Q550 551 564 470 L528 458 L528 462 Q528 464 527.5 466.5 Q527 469 526 473 Q513 537 471 573 Q431 610 367 610 Q143 610 77 230 Q109 292 177 327 Q248 361 333 361 Q439 361 489 296 Q539 231 521 122 Q503 17 426 -45 Q348 -109 235 -109 Z M242 -77 Q340 -77 405 -24 Q470 29 485 119 Q502 216 460 273 Q418 330 328 330 Q223 330 154 279 Q87 228 70 133 Q66 114 66.5 95.5 Q67 77 70 59 Q77 22 96 -4 Q147 -77 242 -77 Z " />
<glyph glyph-name="seven" unicode="7" horiz-adv-x="466" d="M509 629 L503 596 Q498 564 489.5 534.5 Q481 505 468 476 Q457 447 443 421.5 Q429 396 414 373 Q398 350 381.5 328 Q365 306 346 284 Q328 262 309.5 240.5 Q291 219 272 197 Q253 175 235.5 153.5 Q218 132 201 110 Q184 88 168.5 64 Q153 40 138 12 Q124 -15 112.5 -43 Q101 -71 92 -100 L47 -100 Q57 -69 69.5 -40 Q82 -11 97 18 Q114 47 130 72 Q146 97 164 119 Q181 142 199.5 163.5 Q218 185 238 207 Q257 229 276 250.5 Q295 272 312 293 Q331 315 348 336.5 Q365 358 381 381 Q397 404 411 428.5 Q425 453 437 481 Q449 509 458 538 Q467 567 472 599 L70 599 L75 629 L509 629 Z " />
<glyph glyph-name="nine" unicode="9" horiz-adv-x="582" d="M197 -109 Q117 -109 64 -61 Q9 -12 0 68 L35 79 L38 64 Q47 0 93 -39 Q139 -77 203 -77 Q316 -77 394 20 Q473 119 503 296 Q468 234 402 204 Q370 188 330.5 180.5 Q291 173 246 173 Q140 173 92 238 Q44 303 64 416 Q80 516 158 579 Q238 641 352 641 Q415 641 457 617 Q501 593 522 548 Q533 525 539.5 498.5 Q546 472 548 441 Q551 379 539 303 Q504 100 417 -4 Q328 -109 197 -109 Z M250 203 Q359 203 428 252 Q497 300 512 394 Q521 452 505 500 Q489 549 447 580 Q406 611 347 611 Q253 611 184 557 Q115 505 100 419 Q83 318 122 261 Q160 203 250 203 Z " />
<glyph glyph-name="eight" unicode="8" horiz-adv-x="519" d="M360 294 Q429 273 460 224 Q491 173 479 106 Q461 8 385 -50 Q306 -109 195 -109 Q82 -109 23 -50 Q-36 9 -18 106 Q-7 175 42 224 Q91 273 167 294 Q108 314 83 355 Q56 396 67 457 Q80 540 152 591 Q221 641 326 641 Q428 641 479 591 Q529 541 516 457 Q505 397 465 355 Q425 313 360 294 Z M202 -78 Q296 -78 363 -28 Q429 23 444 106 Q457 184 409 232 Q359 279 264 279 Q165 279 98 232 Q31 185 17 106 Q2 22 52 -28 Q104 -78 202 -78 Z M102 457 Q90 389 136 349 Q180 308 269 308 Q353 308 412 349 Q469 389 481 457 Q493 526 450 569 Q406 611 322 611 Q232 611 174 569 Q114 528 102 457 Z " />
<glyph glyph-name="colon" unicode="&#x3a;" horiz-adv-x="175" d="M125 443 Q112 443 106 451 Q98 460 101 472 Q102 484 113 493 Q123 502 136 502 Q150 502 156 494 Q162 487 160 472 Q158 466 155.5 460.5 Q153 455 148 451 Q138 443 125 443 Z M35 -59 Q22 -59 16 -50 Q8 -43 10 -29 Q14 -15 23 -8 Q33 1 46 1 Q59 1 65 -8 Q72 -15 70 -29 Q67 -44 58 -50 Q49 -59 35 -59 Z " />
<glyph glyph-name="semicolon" unicode="&#x3b;" horiz-adv-x="172" d="M0 -137 Q-4 -137 -4 -134 Q-7 -131 -4 -130 L23 -69 Q27 -59 21 -54 Q10 -45 13 -30 Q14 -17 25 -8 Q36 0 49 0 Q60 0 68 -8 Q75 -17 74 -30 Q72 -38 34 -115 Q28 -129 20 -132 Q12 -137 0 -137 Z M126 442 Q113 442 105 450 Q97 459 100 471 Q101 483 112 492 Q122 501 136 501 Q147 501 155 492 Q163 486 161 471 Q158 458 148 450 Q137 442 126 442 Z " />
<glyph glyph-name="less" unicode="&#x3c;" horiz-adv-x="588" d="M566 494 L101 300 L501 109 L495 73 L45 289 L50 313 L572 529 L566 494 L566 494 Z " />
<glyph glyph-name="equal" unicode="&#x3d;" horiz-adv-x="635" d="M89 353 L94 384 L580 384 L575 353 L89 353 L89 353 Z M64 191 L68 222 L554 222 L550 191 L64 191 L64 191 Z " />
<glyph glyph-name="greater" unicode="&#x3e;" horiz-adv-x="590" d="M97 528 L547 312 L542 288 L20 72 L26 108 L489 299 Q415 335 358.5 362.5 Q302 390 260 410 Q218 430 189.5 444.5 Q161 459 142 468 Q98 489 92 493 L97 528 Z " />
<glyph glyph-name="question" unicode="&#x3f;" horiz-adv-x="473" d="M434 589 Q480 536 465 449 Q459 416 445 391 Q430 364 409 343 Q400 333 389.5 323 Q379 313 367 304 Q355 293 343.5 283.5 Q332 274 320 264 Q308 254 297.5 244 Q287 234 276 223 Q257 203 240 173 Q232 159 226.5 144 Q221 129 218 112 L207 59 L197 3 L163 3 L173 59 L183 113 Q189 146 204 176 Q220 207 240 228 Q251 239 261.5 250.5 Q272 262 285 273 Q297 284 308.5 294 Q320 304 331 314 Q344 324 354.5 334 Q365 344 375 354 Q396 375 410 399 Q425 422 429 449 Q443 523 404 566 Q365 611 288 611 Q212 611 158 569 Q105 529 87 467 L82 444 L50 450 Q66 530 131 586 Q198 641 293 641 Q386 641 434 589 Z M190 -58 L183 -100 L142 -100 L149 -58 L190 -58 Z " />
<glyph glyph-name="caron" unicode="&#x2c7;" horiz-adv-x="349" d="M195 527 Q178 511 159 511 Q142 511 129 527 L44 629 L86 629 L163 535 L274 629 L317 629 L195 527 Z " />
<glyph glyph-name="at" unicode="&#x40;" horiz-adv-x="997" d="M972 359 Q990 278 973 176 Q954 70 892 11 Q857 -21 813 -36 Q795 -41 776 -41 Q757 -41 742 -27 Q740 -25 738.5 -23 Q737 -21 735 -19 Q723 -4 719 19 Q715 12 710 5.5 Q705 -1 700 -8 Q695 -14 690 -20 Q685 -26 678 -31 Q666 -44 651 -54.5 Q636 -65 620 -74 Q557 -107 480 -107 Q362 -107 305 -31 Q250 45 274 176 Q296 307 378 384 Q459 460 578 460 Q655 460 705 428 Q731 410 748 389 Q749 387 750.5 385 Q752 383 753 381 Q760 371 764.5 360.5 Q769 350 773 338 L792 448 L825 448 L756 51 Q754 23 763 8 Q767 2 773.5 -2.5 Q780 -7 790 -7.5 Q800 -8 814.5 -3 Q829 2 849 14 L849 13 Q854 18 859.5 22 Q865 26 870 31 Q925 83 941 176 Q956 270 940 347 Q923 426 879 479 Q856 506 827.5 527.5 Q799 549 763 564 Q726 579 685.5 587 Q645 595 598 595 Q509 595 424 564 Q343 534 278 479 Q214 424 171 347 Q127 268 112 176 Q90 54 126 -42 Q143 -90 173 -127 Q203 -164 246 -190 Q332 -243 453 -243 Q520 -243 595 -220 Q632 -208 664.5 -193 Q697 -178 726 -158 Q743 -147 754 -159 L762 -171 Q730 -194 693.5 -212 Q657 -230 614 -244 Q530 -272 448 -272 Q318 -272 223 -216 Q132 -161 94 -58 Q55 44 79 176 Q102 310 175 410 Q212 461 257.5 500.5 Q303 540 360 568 Q417 596 477 610 Q537 624 603 624 Q703 624 781 591 Q858 560 907 500 Q930 471 947 436 Q964 401 972 359 Z M749 202 Q764 285 740 339 Q732 356 721 370 Q720 371 719.5 372.5 Q719 374 717 375 Q671 430 573 430 Q469 430 398 362 Q343 310 317 224 Q314 213 311.5 201 Q309 189 307 176 Q286 57 334 -10 Q339 -17 344 -23 Q349 -29 355 -34 Q402 -78 485 -78 Q589 -78 655 -19 Q656 -16 659 -15 Q664 -10 670 -4 Q676 2 681 9 Q725 62 739 144 L749 202 Z " />
<glyph glyph-name="bracketleft" unicode="&#x5b;" horiz-adv-x="274" d="M314 721 L309 690 L161 690 L6 -202 L154 -202 L149 -232 L-32 -232 L132 721 L314 721 Z " />
<glyph glyph-name="grave" unicode="&#x60;" horiz-adv-x="249" d="M198 511 L160 511 L67 629 L111 629 L198 511 L198 511 Z " />
<glyph glyph-name="dollar" unicode="&#x24;" horiz-adv-x="577" d="M373 290 Q550 244 524 95 Q507 0 434 -51 Q363 -103 242 -109 L228 -188 L224 -207 L202 -207 L201 -207 L198 -207 L193 -207 L194 -203 L211 -109 Q59 -107 -28 -8 L-1 18 Q0 16 3 13 Q5 11 7 9 Q9 7 11 5 Q88 -77 216 -78 L279 278 L217 294 Q47 336 71 467 Q86 553 157 597 Q228 643 343 643 L344 643 L360 734 L391 734 L375 642 Q435 636 486 609 Q511 595 532 578.5 Q553 562 570 542 L546 518 L541 523 Q539 525 535.5 527.5 Q532 530 530 533 Q512 552 492.5 565 Q473 578 447 590 Q409 607 369 611 L315 305 L373 290 Z M285 312 L338 612 Q237 612 179 575 Q119 537 107 467 Q87 363 230 327 L285 312 Z M405 -33 Q473 13 488 94 Q509 221 359 257 L309 270 L247 -78 Q343 -74 405 -33 Z " />
<glyph glyph-name="tilde" unicode="&#x2dc;" horiz-adv-x="595" d="M399 484 Q381 484 366 493 Q358 499 351 504.5 Q344 510 338 518 Q332 525 326 533 Q320 541 313 549 Q306 557 301 565 Q296 573 291 580 Q284 587 277.5 593.5 Q271 600 263 605 Q248 614 233 614 Q197 614 176 592 Q165 581 156.5 564.5 Q148 548 142 524 Q140 519 140 516.5 Q140 514 139 512 Q138 510 138 509 L112 512 Q120 544 131.5 567 Q143 590 158 607 Q188 640 238 640 Q258 640 281 627 Q302 611 315 595 Q323 585 330.5 575.5 Q338 566 344 556 Q352 547 359 539 Q366 531 375 524 Q389 511 404 511 Q441 511 461 532 Q482 551 496 597 Q497 600 497.5 603.5 Q498 607 499 609 L501 615 L525 610 Q507 548 477 516 Q445 484 399 484 Z " />
<glyph glyph-name="cedilla" unicode="&#xb8;" horiz-adv-x="245" d="M205 -178 Q218 -193 214 -221 Q207 -252 182 -269 Q155 -285 118 -285 L19 -285 L24 -257 L128 -257 Q179 -257 187 -221 Q189 -208 182.5 -199.5 Q176 -191 162 -190 L83 -190 Q69 -190 64 -182 Q61 -178 61.5 -170 Q62 -162 65 -156 L84 -100 L107 -100 L85 -162 L162 -162 Q193 -162 205 -178 Z " />
<glyph glyph-name="dieresis" unicode="&#xa8;" horiz-adv-x="210" d="M29 555 L38 597 L79 597 L70 555 L29 555 Z M144 597 L184 597 L175 555 L135 555 L144 597 Z " />
<glyph glyph-name="Ydieresis" unicode="&#x178;" horiz-adv-x="579" d="M625 629 L306 244 L246 -100 L211 -100 L271 242 L88 629 L131 629 L294 274 L581 629 L625 629 L625 629 Z M213 755 L222 797 L263 797 L254 755 L213 755 Z M328 797 L368 797 L359 755 L319 755 L328 797 Z " />
<glyph glyph-name="Edieresis" unicode="&#xcb;" horiz-adv-x="539" d="M546 598 L155 598 L100 290 L483 290 L478 260 L95 260 L36 -70 L427 -70 L422 -100 L-4 -100 L124 629 L551 629 L546 598 L546 598 Z M240 753 L249 795 L290 795 L281 753 L240 753 Z M355 795 L395 795 L386 753 L346 753 L355 795 Z " />
<glyph glyph-name="Adieresis" unicode="&#xc4;" horiz-adv-x="614" d="M503 -100 L452 138 L120 138 L-6 -100 L-42 -100 L347 629 L384 629 L544 -100 L503 -100 L503 -100 Z M136 168 L445 168 L359 590 L136 168 L136 168 Z M287 753 L296 795 L337 795 L328 753 L287 753 Z M402 795 L442 795 L433 753 L393 753 L402 795 Z " />
<glyph glyph-name="Odieresis" unicode="&#xd6;" horiz-adv-x="774" d="M588 -11 Q484 -109 322 -109 Q160 -109 88 -11 Q18 88 49 266 Q79 446 185 543 Q291 641 453 641 Q615 641 685 544 Q721 495 730.5 426 Q740 357 725 266 Q693 86 588 -11 Z M325 -79 Q471 -79 564 11 Q658 101 688 266 Q715 431 653 520 Q590 610 445 610 Q299 610 206 520 Q110 430 83 266 Q68 188 77 126 Q81 94 90 67 Q99 40 113 17 Q142 -28 197 -54 Q252 -79 325 -79 Z M401 756 L410 798 L451 798 L442 756 L401 756 Z M516 798 L556 798 L547 756 L507 756 L516 798 Z " />
<glyph glyph-name="Udieresis" unicode="&#xdc;" horiz-adv-x="615" d="M243 -109 Q113 -109 61 -37 Q8 34 33 187 L109 629 L144 629 L69 187 Q47 56 91 -13 Q134 -79 249 -79 Q362 -79 428 -13 Q496 55 518 187 L594 629 L631 629 L555 187 Q530 36 451 -37 Q373 -109 243 -109 Z M300 752 L309 794 L350 794 L341 752 L300 752 Z M415 794 L455 794 L446 752 L406 752 L415 794 Z " />
<glyph glyph-name="adieresis" unicode="&#xe4;" horiz-adv-x="582" d="M579 448 L492 -63 L486 -99 L474 -99 L456 -99 L459 -78 L462 -63 L476 18 Q438 -42 376 -75 Q315 -109 237 -109 Q177 -109 134 -90 Q91 -71 62 -33 Q6 44 30 174 Q41 240 66 292 Q91 344 133 382 Q215 458 333 458 Q409 458 461 426 Q510 394 528 336 L547 448 L579 448 Z M505 200 Q523 307 477 367 Q432 428 328 428 Q224 428 153 360 Q82 292 63 174 Q42 56 90 -11 Q138 -80 242 -80 Q343 -80 411 -20 Q477 39 495 143 L505 200 Z M280 556 L289 598 L330 598 L321 556 L280 556 Z M395 598 L435 598 L426 556 L386 556 L395 598 Z " />
<glyph glyph-name="edieresis" unicode="&#xeb;" horiz-adv-x="573" d="M547 290 Q552 267 551.5 243 Q551 219 547 193 L542 166 L497 166 L59 166 Q43 54 92 -12 Q143 -80 244 -80 Q319 -80 376 -44 Q432 -10 470 54 L481 73 Q492 69 495.5 68 Q499 67 510 64 Q508 59 505 53.5 Q502 48 499 43 Q460 -24 399 -64 Q328 -109 239 -109 Q120 -109 63 -32 Q6 47 27 172 Q49 301 133 380 Q175 418 224.5 438 Q274 458 334 458 Q397 458 443 435 Q489 413 514 374 Q527 355 534.5 334 Q542 313 547 290 Z M515 195 Q529 299 478 363 Q431 428 329 428 Q231 428 161 365 Q89 300 65 195 L515 195 Z M261 555 L270 597 L311 597 L302 555 L261 555 Z M376 597 L416 597 L407 555 L367 555 L376 597 Z " />
<glyph glyph-name="odieresis" unicode="&#xf6;" horiz-adv-x="573" d="M239 -109 Q120 -109 64 -33 Q9 43 31 174 Q52 304 133 382 Q217 458 334 458 Q453 458 509 381 Q538 343 546 291.5 Q554 240 543 174 Q521 43 440 -33 Q398 -71 348.5 -90 Q299 -109 239 -109 Z M91 -11 Q140 -80 244 -80 Q349 -80 418 -11 Q489 56 510 174 Q529 292 481 360 Q433 428 329 428 Q225 428 154 360 Q84 294 64 174 Q43 56 91 -11 Z M293 555 L302 597 L343 597 L334 555 L293 555 Z M408 597 L448 597 L439 555 L399 555 L408 597 Z " />
<glyph glyph-name="udieresis" unicode="&#xfc;" horiz-adv-x="504" d="M506 448 L413 -100 L382 -100 L399 3 Q333 -109 195 -109 Q92 -109 56 -48 Q37 -17 33.5 28 Q30 73 40 133 L94 448 L126 448 L72 133 Q54 28 84 -26 Q114 -80 200 -80 Q383 -80 415 108 L473 448 L506 448 Z M245 559 L254 601 L295 601 L286 559 L245 559 Z M360 601 L400 601 L391 559 L351 559 L360 601 Z " />
<glyph glyph-name="acute" unicode="&#xb4;" horiz-adv-x="219" d="M15 511 L154 629 L198 629 L54 511 L15 511 L15 511 Z " />
<glyph glyph-name="Aacute" unicode="&#xc1;" horiz-adv-x="614" d="M503 -100 L452 138 L120 138 L-6 -100 L-42 -100 L347 629 L384 629 L544 -100 L503 -100 L503 -100 Z M136 168 L445 168 L359 590 L136 168 L136 168 Z M283 711 L422 829 L466 829 L322 711 L283 711 L283 711 Z " />
<glyph glyph-name="Eacute" unicode="&#xc9;" horiz-adv-x="539" d="M546 598 L155 598 L100 290 L483 290 L478 260 L95 260 L36 -70 L427 -70 L422 -100 L-4 -100 L124 629 L551 629 L546 598 L546 598 Z M244 711 L383 829 L427 829 L283 711 L244 711 L244 711 Z " />
<glyph glyph-name="Iacute" unicode="&#xcd;" horiz-adv-x="229" d="M1 -100 L127 629 L163 629 L36 -100 L1 -100 L1 -100 Z M61 709 L200 827 L244 827 L100 709 L61 709 L61 709 Z " />
<glyph glyph-name="Oacute" unicode="&#xd3;" horiz-adv-x="774" d="M588 -11 Q484 -109 322 -109 Q160 -109 88 -11 Q18 88 49 266 Q79 446 185 543 Q291 641 453 641 Q615 641 685 544 Q721 495 730.5 426 Q740 357 725 266 Q693 86 588 -11 Z M325 -79 Q471 -79 564 11 Q658 101 688 266 Q715 431 653 520 Q590 610 445 610 Q299 610 206 520 Q110 430 83 266 Q68 188 77 126 Q81 94 90 67 Q99 40 113 17 Q142 -28 197 -54 Q252 -79 325 -79 Z M388 717 L527 835 L571 835 L427 717 L388 717 L388 717 Z " />
<glyph glyph-name="Uacute" unicode="&#xda;" horiz-adv-x="615" d="M243 -109 Q113 -109 61 -37 Q8 34 33 187 L109 629 L144 629 L69 187 Q47 56 91 -13 Q134 -79 249 -79 Q362 -79 428 -13 Q496 55 518 187 L594 629 L631 629 L555 187 Q530 36 451 -37 Q373 -109 243 -109 Z M295 710 L434 828 L478 828 L334 710 L295 710 L295 710 Z " />
<glyph glyph-name="Yacute" unicode="&#xdd;" horiz-adv-x="579" d="M625 629 L306 244 L246 -100 L211 -100 L271 242 L88 629 L131 629 L294 274 L581 629 L625 629 L625 629 Z M262 711 L401 829 L445 829 L301 711 L262 711 L262 711 Z " />
<glyph glyph-name="yacute" unicode="&#xfd;" horiz-adv-x="482" d="M527 448 L173 -196 Q153 -233 116 -258 Q81 -281 44 -281 L41 -281 L11 -281 L17 -248 L47 -248 L58 -248 Q81 -248 106 -231 Q129 -213 147 -181 L192 -99 L82 448 L119 448 L216 -56 L490 448 L527 448 Z M230 511 L369 629 L413 629 L269 511 L230 511 L230 511 Z " />
<glyph glyph-name="uacute" unicode="&#xfa;" horiz-adv-x="504" d="M506 448 L413 -100 L382 -100 L399 3 Q333 -109 195 -109 Q92 -109 56 -48 Q37 -17 33.5 28 Q30 73 40 133 L94 448 L126 448 L72 133 Q54 28 84 -26 Q114 -80 200 -80 Q383 -80 415 108 L473 448 L506 448 Z M219 511 L358 629 L402 629 L258 511 L219 511 L219 511 Z " />
<glyph glyph-name="oacute" unicode="&#xf3;" horiz-adv-x="573" d="M239 -109 Q120 -109 64 -33 Q9 43 31 174 Q52 304 133 382 Q217 458 334 458 Q453 458 509 381 Q538 343 546 291.5 Q554 240 543 174 Q521 43 440 -33 Q398 -71 348.5 -90 Q299 -109 239 -109 Z M91 -11 Q140 -80 244 -80 Q349 -80 418 -11 Q489 56 510 174 Q529 292 481 360 Q433 428 329 428 Q225 428 154 360 Q84 294 64 174 Q43 56 91 -11 Z M248 511 L387 629 L431 629 L287 511 L248 511 L248 511 Z " />
<glyph glyph-name="aacute" unicode="&#xe1;" horiz-adv-x="582" d="M579 448 L492 -63 L486 -99 L474 -99 L456 -99 L459 -78 L462 -63 L476 18 Q438 -42 376 -75 Q315 -109 237 -109 Q177 -109 134 -90 Q91 -71 62 -33 Q6 44 30 174 Q41 240 66 292 Q91 344 133 382 Q215 458 333 458 Q409 458 461 426 Q510 394 528 336 L547 448 L579 448 Z M505 200 Q523 307 477 367 Q432 428 328 428 Q224 428 153 360 Q82 292 63 174 Q42 56 90 -11 Q138 -80 242 -80 Q343 -80 411 -20 Q477 39 495 143 L505 200 Z M253 511 L392 629 L436 629 L292 511 L253 511 L253 511 Z " />
<glyph glyph-name="ring" unicode="&#x2da;" horiz-adv-x="224" d="M153 515 Q127 494 96 494 Q65 494 48 515 Q31 536 37 567 Q44 599 69 620.5 Q94 642 125 642 Q157 642 174 620.5 Q191 599 184 567 Q178 536 153 515 Z M69 533 Q81 519 101 519 Q121 519 137.5 533 Q154 547 158 567 Q163 588 152.5 602.5 Q142 617 120 617 Q99 617 83.5 602.5 Q68 588 63 567 Q59 546 69 533 Z " />
<glyph glyph-name="Aring" unicode="&#xc5;" horiz-adv-x="614" d="M503 -100 L452 138 L120 138 L-6 -100 L-42 -100 L347 629 L384 629 L544 -100 L503 -100 L503 -100 Z M136 168 L445 168 L359 590 L136 168 L136 168 Z M409 715 Q383 694 352 694 Q321 694 304 715 Q287 736 293 767 Q300 799 325 820.5 Q350 842 381 842 Q413 842 430 820.5 Q447 799 440 767 Q434 736 409 715 Z M325 733 Q337 719 357 719 Q377 719 393.5 733 Q410 747 414 767 Q419 788 408.5 802.5 Q398 817 376 817 Q355 817 339.5 802.5 Q324 788 319 767 Q315 746 325 733 Z " />
<glyph glyph-name="aring" unicode="&#xe5;" horiz-adv-x="582" d="M579 448 L492 -63 L486 -99 L474 -99 L456 -99 L459 -78 L462 -63 L476 18 Q438 -42 376 -75 Q315 -109 237 -109 Q177 -109 134 -90 Q91 -71 62 -33 Q6 44 30 174 Q41 240 66 292 Q91 344 133 382 Q215 458 333 458 Q409 458 461 426 Q510 394 528 336 L547 448 L579 448 Z M505 200 Q523 307 477 367 Q432 428 328 428 Q224 428 153 360 Q82 292 63 174 Q42 56 90 -11 Q138 -80 242 -80 Q343 -80 411 -20 Q477 39 495 143 L505 200 Z M411 514 Q385 493 354 493 Q323 493 306 514 Q289 535 295 566 Q302 598 327 619.5 Q352 641 383 641 Q415 641 432 619.5 Q449 598 442 566 Q436 535 411 514 Z M327 532 Q339 518 359 518 Q379 518 395.5 532 Q412 546 416 566 Q421 587 410.5 601.5 Q400 616 378 616 Q357 616 341.5 601.5 Q326 587 321 566 Q317 545 327 532 Z " />
<glyph glyph-name="Ecircumflex" unicode="&#xca;" horiz-adv-x="539" d="M546 598 L155 598 L100 290 L483 290 L478 260 L95 260 L36 -70 L427 -70 L422 -100 L-4 -100 L124 629 L551 629 L546 598 L546 598 Z M462 723 L420 723 L344 816 L231 723 L190 723 L312 824 Q331 839 349 839 Q367 839 379 824 L462 723 Z " />
<glyph glyph-name="ucircumflex" unicode="&#xfb;" horiz-adv-x="504" d="M506 448 L413 -100 L382 -100 L399 3 Q333 -109 195 -109 Q92 -109 56 -48 Q37 -17 33.5 28 Q30 73 40 133 L94 448 L126 448 L72 133 Q54 28 84 -26 Q114 -80 200 -80 Q383 -80 415 108 L473 448 L506 448 Z M448 527 L406 527 L330 620 L217 527 L176 527 L298 628 Q317 643 335 643 Q353 643 365 628 L448 527 Z " />
<glyph glyph-name="ocircumflex" unicode="&#xf4;" horiz-adv-x="573" d="M239 -109 Q120 -109 64 -33 Q9 43 31 174 Q52 304 133 382 Q217 458 334 458 Q453 458 509 381 Q538 343 546 291.5 Q554 240 543 174 Q521 43 440 -33 Q398 -71 348.5 -90 Q299 -109 239 -109 Z M91 -11 Q140 -80 244 -80 Q349 -80 418 -11 Q489 56 510 174 Q529 292 481 360 Q433 428 329 428 Q225 428 154 360 Q84 294 64 174 Q43 56 91 -11 Z M500 522 L458 522 L382 615 L269 522 L228 522 L350 623 Q369 638 387 638 Q405 638 417 623 L500 522 Z " />
<glyph glyph-name="acircumflex" unicode="&#xe2;" horiz-adv-x="582" d="M579 448 L492 -63 L486 -99 L474 -99 L456 -99 L459 -78 L462 -63 L476 18 Q438 -42 376 -75 Q315 -109 237 -109 Q177 -109 134 -90 Q91 -71 62 -33 Q6 44 30 174 Q41 240 66 292 Q91 344 133 382 Q215 458 333 458 Q409 458 461 426 Q510 394 528 336 L547 448 L579 448 Z M505 200 Q523 307 477 367 Q432 428 328 428 Q224 428 153 360 Q82 292 63 174 Q42 56 90 -11 Q138 -80 242 -80 Q343 -80 411 -20 Q477 39 495 143 L505 200 Z M468 525 L426 525 L350 618 L237 525 L196 525 L318 626 Q337 641 355 641 Q373 641 385 626 L468 525 Z " />
<glyph glyph-name="Acircumflex" unicode="&#xc2;" horiz-adv-x="614" d="M503 -100 L452 138 L120 138 L-6 -100 L-42 -100 L347 629 L384 629 L544 -100 L503 -100 L503 -100 Z M136 168 L445 168 L359 590 L136 168 L136 168 Z M493 723 L451 723 L375 816 L262 723 L221 723 L343 824 Q362 839 380 839 Q398 839 410 824 L493 723 Z " />
<glyph glyph-name="ecircumflex" unicode="&#xea;" horiz-adv-x="573" d="M547 290 Q552 267 551.5 243 Q551 219 547 193 L542 166 L497 166 L59 166 Q43 54 92 -12 Q143 -80 244 -80 Q319 -80 376 -44 Q432 -10 470 54 L481 73 Q492 69 495.5 68 Q499 67 510 64 Q508 59 505 53.5 Q502 48 499 43 Q460 -24 399 -64 Q328 -109 239 -109 Q120 -109 63 -32 Q6 47 27 172 Q49 301 133 380 Q175 418 224.5 438 Q274 458 334 458 Q397 458 443 435 Q489 413 514 374 Q527 355 534.5 334 Q542 313 547 290 Z M515 195 Q529 299 478 363 Q431 428 329 428 Q231 428 161 365 Q89 300 65 195 L515 195 Z M467 525 L425 525 L349 618 L236 525 L195 525 L317 626 Q336 641 354 641 Q372 641 384 626 L467 525 Z " />
<glyph glyph-name="Otilde" unicode="&#xd5;" horiz-adv-x="774" d="M588 -11 Q484 -109 322 -109 Q160 -109 88 -11 Q18 88 49 266 Q79 446 185 543 Q291 641 453 641 Q615 641 685 544 Q721 495 730.5 426 Q740 357 725 266 Q693 86 588 -11 Z M325 -79 Q471 -79 564 11 Q658 101 688 266 Q715 431 653 520 Q590 610 445 610 Q299 610 206 520 Q110 430 83 266 Q68 188 77 126 Q81 94 90 67 Q99 40 113 17 Q142 -28 197 -54 Q252 -79 325 -79 Z M564 684 Q546 684 531 693 Q523 699 516 704.5 Q509 710 503 718 Q497 725 491 733 Q485 741 478 749 Q471 757 466 765 Q461 773 456 780 Q449 787 442.5 793.5 Q436 800 428 805 Q413 814 398 814 Q362 814 341 792 Q330 781 321.5 764.5 Q313 748 307 724 Q305 719 305 716.5 Q305 714 304 712 Q303 710 303 709 L277 712 Q285 744 296.5 767 Q308 790 323 807 Q353 840 403 840 Q423 840 446 827 Q467 811 480 795 Q488 785 495.5 775.5 Q503 766 509 756 Q517 747 524 739 Q531 731 540 724 Q554 711 569 711 Q606 711 626 732 Q647 751 661 797 Q662 800 662.5 803.5 Q663 807 664 809 L666 815 L690 810 Q672 748 642 716 Q610 684 564 684 Z " />
<glyph glyph-name="Atilde" unicode="&#xc3;" horiz-adv-x="614" d="M503 -100 L452 138 L120 138 L-6 -100 L-42 -100 L347 629 L384 629 L544 -100 L503 -100 L503 -100 Z M136 168 L445 168 L359 590 L136 168 L136 168 Z M444 684 Q426 684 411 693 Q403 699 396 704.5 Q389 710 383 718 Q377 725 371 733 Q365 741 358 749 Q351 757 346 765 Q341 773 336 780 Q329 787 322.5 793.5 Q316 800 308 805 Q293 814 278 814 Q242 814 221 792 Q210 781 201.5 764.5 Q193 748 187 724 Q185 719 185 716.5 Q185 714 184 712 Q183 710 183 709 L157 712 Q165 744 176.5 767 Q188 790 203 807 Q233 840 283 840 Q303 840 326 827 Q347 811 360 795 Q368 785 375.5 775.5 Q383 766 389 756 Q397 747 404 739 Q411 731 420 724 Q434 711 449 711 Q486 711 506 732 Q527 751 541 797 Q542 800 542.5 803.5 Q543 807 544 809 L546 815 L570 810 Q552 748 522 716 Q490 684 444 684 Z " />
<glyph glyph-name="atilde" unicode="&#xe3;" horiz-adv-x="582" d="M579 448 L492 -63 L486 -99 L474 -99 L456 -99 L459 -78 L462 -63 L476 18 Q438 -42 376 -75 Q315 -109 237 -109 Q177 -109 134 -90 Q91 -71 62 -33 Q6 44 30 174 Q41 240 66 292 Q91 344 133 382 Q215 458 333 458 Q409 458 461 426 Q510 394 528 336 L547 448 L579 448 Z M505 200 Q523 307 477 367 Q432 428 328 428 Q224 428 153 360 Q82 292 63 174 Q42 56 90 -11 Q138 -80 242 -80 Q343 -80 411 -20 Q477 39 495 143 L505 200 Z M427 485 Q409 485 394 494 Q386 500 379 505.5 Q372 511 366 519 Q360 526 354 534 Q348 542 341 550 Q334 558 329 566 Q324 574 319 581 Q312 588 305.5 594.5 Q299 601 291 606 Q276 615 261 615 Q225 615 204 593 Q193 582 184.5 565.5 Q176 549 170 525 Q168 520 168 517.5 Q168 515 167 513 Q166 511 166 510 L140 513 Q148 545 159.5 568 Q171 591 186 608 Q216 641 266 641 Q286 641 309 628 Q330 612 343 596 Q351 586 358.5 576.5 Q366 567 372 557 Q380 548 387 540 Q394 532 403 525 Q417 512 432 512 Q469 512 489 533 Q510 552 524 598 Q525 601 525.5 604.5 Q526 608 527 610 L529 616 L553 611 Q535 549 505 517 Q473 485 427 485 Z " />
<glyph glyph-name="ntilde" unicode="&#xf1;" horiz-adv-x="497" d="M452 396 Q471 365 474.5 320 Q478 275 468 215 L414 -100 L382 -100 L436 215 Q454 321 424 374 Q394 428 309 428 Q124 428 93 241 L35 -100 L2 -100 L95 448 L126 448 L109 346 Q176 458 314 458 Q414 458 452 396 Z M395 484 Q377 484 362 493 Q354 499 347 504.5 Q340 510 334 518 Q328 525 322 533 Q316 541 309 549 Q302 557 297 565 Q292 573 287 580 Q280 587 273.5 593.5 Q267 600 259 605 Q244 614 229 614 Q193 614 172 592 Q161 581 152.5 564.5 Q144 548 138 524 Q136 519 136 516.5 Q136 514 135 512 Q134 510 134 509 L108 512 Q116 544 127.5 567 Q139 590 154 607 Q184 640 234 640 Q254 640 277 627 Q298 611 311 595 Q319 585 326.5 575.5 Q334 566 340 556 Q348 547 355 539 Q362 531 371 524 Q385 511 400 511 Q437 511 457 532 Q478 551 492 597 Q493 600 493.5 603.5 Q494 607 495 609 L497 615 L521 610 Q503 548 473 516 Q441 484 395 484 Z " />
<glyph glyph-name="otilde" unicode="&#xf5;" horiz-adv-x="573" d="M239 -109 Q120 -109 64 -33 Q9 43 31 174 Q52 304 133 382 Q217 458 334 458 Q453 458 509 381 Q538 343 546 291.5 Q554 240 543 174 Q521 43 440 -33 Q398 -71 348.5 -90 Q299 -109 239 -109 Z M91 -11 Q140 -80 244 -80 Q349 -80 418 -11 Q489 56 510 174 Q529 292 481 360 Q433 428 329 428 Q225 428 154 360 Q84 294 64 174 Q43 56 91 -11 Z M441 482 Q423 482 408 491 Q400 497 393 502.5 Q386 508 380 516 Q374 523 368 531 Q362 539 355 547 Q348 555 343 563 Q338 571 333 578 Q326 585 319.5 591.5 Q313 598 305 603 Q290 612 275 612 Q239 612 218 590 Q207 579 198.5 562.5 Q190 546 184 522 Q182 517 182 514.5 Q182 512 181 510 Q180 508 180 507 L154 510 Q162 542 173.5 565 Q185 588 200 605 Q230 638 280 638 Q300 638 323 625 Q344 609 357 593 Q365 583 372.5 573.5 Q380 564 386 554 Q394 545 401 537 Q408 529 417 522 Q431 509 446 509 Q483 509 503 530 Q524 549 538 595 Q539 598 539.5 601.5 Q540 605 541 607 L543 613 L567 608 Q549 546 519 514 Q487 482 441 482 Z " />
<glyph glyph-name="Ntilde" unicode="&#xd1;" horiz-adv-x="601" d="M585 630 L621 630 L494 -100 L456 -100 L133 576 Q131 565 129 554 Q127 545 125.5 535.5 Q124 526 123 518 L15 -100 L-19 -100 L107 630 L144 630 L467 -47 Q469 -36 471 -25 Q473 -16 474 -6 Q475 4 477 12 L585 630 Z M458 682 Q440 682 425 691 Q417 697 410 702.5 Q403 708 397 716 Q391 723 385 731 Q379 739 372 747 Q365 755 360 763 Q355 771 350 778 Q343 785 336.5 791.5 Q330 798 322 803 Q307 812 292 812 Q256 812 235 790 Q224 779 215.5 762.5 Q207 746 201 722 Q199 717 199 714.5 Q199 712 198 710 Q197 708 197 707 L171 710 Q179 742 190.5 765 Q202 788 217 805 Q247 838 297 838 Q317 838 340 825 Q361 809 374 793 Q382 783 389.5 773.5 Q397 764 403 754 Q411 745 418 737 Q425 729 434 722 Q448 709 463 709 Q500 709 520 730 Q541 749 555 795 Q556 798 556.5 801.5 Q557 805 558 807 L560 813 L584 808 Q566 746 536 714 Q504 682 458 682 Z " />
<glyph glyph-name="Agrave" unicode="&#xc0;" horiz-adv-x="614" d="M503 -100 L452 138 L120 138 L-6 -100 L-42 -100 L347 629 L384 629 L544 -100 L503 -100 L503 -100 Z M136 168 L445 168 L359 590 L136 168 L136 168 Z M424 711 L386 711 L293 829 L337 829 L424 711 L424 711 Z " />
<glyph glyph-name="Ograve" unicode="&#xd2;" horiz-adv-x="774" d="M588 -11 Q484 -109 322 -109 Q160 -109 88 -11 Q18 88 49 266 Q79 446 185 543 Q291 641 453 641 Q615 641 685 544 Q721 495 730.5 426 Q740 357 725 266 Q693 86 588 -11 Z M325 -79 Q471 -79 564 11 Q658 101 688 266 Q715 431 653 520 Q590 610 445 610 Q299 610 206 520 Q110 430 83 266 Q68 188 77 126 Q81 94 90 67 Q99 40 113 17 Q142 -28 197 -54 Q252 -79 325 -79 Z M521 709 L483 709 L390 827 L434 827 L521 709 L521 709 Z " />
<glyph glyph-name="Ugrave" unicode="&#xd9;" horiz-adv-x="615" d="M243 -109 Q113 -109 61 -37 Q8 34 33 187 L109 629 L144 629 L69 187 Q47 56 91 -13 Q134 -79 249 -79 Q362 -79 428 -13 Q496 55 518 187 L594 629 L631 629 L555 187 Q530 36 451 -37 Q373 -109 243 -109 Z M435 710 L397 710 L304 828 L348 828 L435 710 L435 710 Z " />
<glyph glyph-name="egrave" unicode="&#xe8;" horiz-adv-x="573" d="M547 290 Q552 267 551.5 243 Q551 219 547 193 L542 166 L497 166 L59 166 Q43 54 92 -12 Q143 -80 244 -80 Q319 -80 376 -44 Q432 -10 470 54 L481 73 Q492 69 495.5 68 Q499 67 510 64 Q508 59 505 53.5 Q502 48 499 43 Q460 -24 399 -64 Q328 -109 239 -109 Q120 -109 63 -32 Q6 47 27 172 Q49 301 133 380 Q175 418 224.5 438 Q274 458 334 458 Q397 458 443 435 Q489 413 514 374 Q527 355 534.5 334 Q542 313 547 290 Z M515 195 Q529 299 478 363 Q431 428 329 428 Q231 428 161 365 Q89 300 65 195 L515 195 Z M395 510 L357 510 L264 628 L308 628 L395 510 L395 510 Z " />
<glyph glyph-name="eacute" unicode="&#xe9;" horiz-adv-x="573" d="M547 290 Q552 267 551.5 243 Q551 219 547 193 L542 166 L497 166 L59 166 Q43 54 92 -12 Q143 -80 244 -80 Q319 -80 376 -44 Q432 -10 470 54 L481 73 Q492 69 495.5 68 Q499 67 510 64 Q508 59 505 53.5 Q502 48 499 43 Q460 -24 399 -64 Q328 -109 239 -109 Q120 -109 63 -32 Q6 47 27 172 Q49 301 133 380 Q175 418 224.5 438 Q274 458 334 458 Q397 458 443 435 Q489 413 514 374 Q527 355 534.5 334 Q542 313 547 290 Z M515 195 Q529 299 478 363 Q431 428 329 428 Q231 428 161 365 Q89 300 65 195 L515 195 Z M245 511 L384 629 L428 629 L284 511 L245 511 L245 511 Z " />
<glyph glyph-name="ugrave" unicode="&#xf9;" horiz-adv-x="504" d="M506 448 L413 -100 L382 -100 L399 3 Q333 -109 195 -109 Q92 -109 56 -48 Q37 -17 33.5 28 Q30 73 40 133 L94 448 L126 448 L72 133 Q54 28 84 -26 Q114 -80 200 -80 Q383 -80 415 108 L473 448 L506 448 Z M360 511 L322 511 L229 629 L273 629 L360 511 L360 511 Z " />
<glyph glyph-name="ograve" unicode="&#xf2;" horiz-adv-x="573" d="M239 -109 Q120 -109 64 -33 Q9 43 31 174 Q52 304 133 382 Q217 458 334 458 Q453 458 509 381 Q538 343 546 291.5 Q554 240 543 174 Q521 43 440 -33 Q398 -71 348.5 -90 Q299 -109 239 -109 Z M91 -11 Q140 -80 244 -80 Q349 -80 418 -11 Q489 56 510 174 Q529 292 481 360 Q433 428 329 428 Q225 428 154 360 Q84 294 64 174 Q43 56 91 -11 Z M401 511 L363 511 L270 629 L314 629 L401 511 L401 511 Z " />
<glyph glyph-name="agrave" unicode="&#xe0;" horiz-adv-x="582" d="M579 448 L492 -63 L486 -99 L474 -99 L456 -99 L459 -78 L462 -63 L476 18 Q438 -42 376 -75 Q315 -109 237 -109 Q177 -109 134 -90 Q91 -71 62 -33 Q6 44 30 174 Q41 240 66 292 Q91 344 133 382 Q215 458 333 458 Q409 458 461 426 Q510 394 528 336 L547 448 L579 448 Z M505 200 Q523 307 477 367 Q432 428 328 428 Q224 428 153 360 Q82 292 63 174 Q42 56 90 -11 Q138 -80 242 -80 Q343 -80 411 -20 Q477 39 495 143 L505 200 Z M405 510 L367 510 L274 628 L318 628 L405 510 L405 510 Z " />
<glyph glyph-name="Egrave" unicode="&#xc8;" horiz-adv-x="539" d="M546 598 L155 598 L100 290 L483 290 L478 260 L95 260 L36 -70 L427 -70 L422 -100 L-4 -100 L124 629 L551 629 L546 598 L546 598 Z M380 711 L342 711 L249 829 L293 829 L380 711 L380 711 Z " />
<glyph glyph-name="Igrave" unicode="&#xcc;" horiz-adv-x="188" d="M1 -100 L127 629 L163 629 L36 -100 L1 -100 L1 -100 Z M195 709 L157 709 L64 827 L108 827 L195 709 L195 709 Z " />
<glyph glyph-name="Idieresis" unicode="&#xcf;" horiz-adv-x="188" d="M-9 -100 L117 629 L153 629 L26 -100 L-9 -100 L-9 -100 Z M67 755 L76 797 L117 797 L108 755 L67 755 Z M182 797 L222 797 L213 755 L173 755 L182 797 Z " />
<glyph glyph-name="Icircumflex" unicode="&#xce;" horiz-adv-x="251" d="M31 -100 L157 629 L193 629 L66 -100 L31 -100 L31 -100 Z M315 725 L273 725 L197 818 L84 725 L43 725 L165 826 Q184 841 202 841 Q220 841 232 826 L315 725 Z " />
<glyph glyph-name="Ucircumflex" unicode="&#xdb;" horiz-adv-x="615" d="M243 -109 Q113 -109 61 -37 Q8 34 33 187 L109 629 L144 629 L69 187 Q47 56 91 -13 Q134 -79 249 -79 Q362 -79 428 -13 Q496 55 518 187 L594 629 L631 629 L555 187 Q530 36 451 -37 Q373 -109 243 -109 Z M510 722 L468 722 L392 815 L279 722 L238 722 L360 823 Q379 838 397 838 Q415 838 427 823 L510 722 Z " />
<glyph glyph-name="Ocircumflex" unicode="&#xd4;" horiz-adv-x="774" d="M588 -11 Q484 -109 322 -109 Q160 -109 88 -11 Q18 88 49 266 Q79 446 185 543 Q291 641 453 641 Q615 641 685 544 Q721 495 730.5 426 Q740 357 725 266 Q693 86 588 -11 Z M325 -79 Q471 -79 564 11 Q658 101 688 266 Q715 431 653 520 Q590 610 445 610 Q299 610 206 520 Q110 430 83 266 Q68 188 77 126 Q81 94 90 67 Q99 40 113 17 Q142 -28 197 -54 Q252 -79 325 -79 Z M596 721 L554 721 L478 814 L365 721 L324 721 L446 822 Q465 837 483 837 Q501 837 513 822 L596 721 Z " />
<glyph glyph-name="Ccedilla" unicode="&#xc7;" horiz-adv-x="833" d="M362 -109 Q203 -109 132 -11 Q62 88 93 266 Q123 444 227 542 Q330 641 491 641 Q614 641 688 578 Q762 517 776 403 L758 399 Q755 398 747 396 L739 394 L739 401 Q739 406 737 412 Q722 507 656 558 Q592 610 485 610 Q342 610 249 520 Q155 427 128 266 Q121 227 120 192.5 Q119 158 123 126 Q126 94 135.5 67 Q145 40 159 17 Q187 -28 241 -54 Q296 -79 368 -79 Q481 -79 566 -23 Q652 34 694 136 Q695 138 696.5 141.5 Q698 145 700 149 Q702 153 703 157 L736 147 Q686 24 590 -42 Q493 -109 362 -109 Z M492 -178 Q505 -193 501 -221 Q494 -252 469 -269 Q442 -285 405 -285 L306 -285 L311 -257 L415 -257 Q466 -257 474 -221 Q476 -208 469.5 -199.5 Q463 -191 449 -190 L370 -190 Q356 -190 351 -182 Q348 -178 348.5 -170 Q349 -162 352 -156 L371 -100 L394 -100 L372 -162 L449 -162 Q480 -162 492 -178 Z " />
<glyph glyph-name="ccedilla" unicode="&#xe7;" horiz-adv-x="593" d="M248 -109 Q187 -109 144 -90 Q101 -71 72 -33 Q17 45 39 173 Q61 304 144 381 Q226 458 345 458 Q437 458 493 410 Q548 364 557 277 L525 268 Q525 270 524 273 Q523 275 522 278 Q521 281 520 286 Q508 355 461 391 Q414 428 340 428 Q235 428 164 360 Q93 292 72 173 Q53 57 101 -11 Q149 -80 253 -80 Q329 -80 392 -40 Q454 1 488 73 L498 93 L504 91 Q510 89 515 89 L528 84 Q509 38 481 2.5 Q453 -33 418 -58 Q344 -109 248 -109 Z M372 -178 Q385 -193 381 -221 Q374 -252 349 -269 Q322 -285 285 -285 L186 -285 L191 -257 L295 -257 Q346 -257 354 -221 Q356 -208 349.5 -199.5 Q343 -191 329 -190 L250 -190 Q236 -190 231 -182 Q228 -178 228.5 -170 Q229 -162 232 -156 L251 -100 L274 -100 L252 -162 L329 -162 Q360 -162 372 -178 Z " />
<glyph glyph-name="ydieresis" unicode="&#xff;" horiz-adv-x="482" d="M527 448 L173 -196 Q153 -233 116 -258 Q81 -281 44 -281 L41 -281 L11 -281 L17 -248 L47 -248 L58 -248 Q81 -248 106 -231 Q129 -213 147 -181 L192 -99 L82 448 L119 448 L216 -56 L490 448 L527 448 Z M245 555 L254 597 L295 597 L286 555 L245 555 Z M360 597 L400 597 L391 555 L351 555 L360 597 Z " />
<glyph glyph-name="Zcaron" unicode="&#x17d;" horiz-adv-x="558" d="M602 629 L597 598 L11 -70 L482 -70 L477 -100 L-38 -100 L-33 -70 L555 598 L81 598 L86 629 L602 629 L602 629 Z M432 727 Q415 711 396 711 Q379 711 366 727 L281 829 L323 829 L400 735 L511 829 L554 829 L432 727 Z " />
<glyph glyph-name="zcaron" unicode="&#x17e;" horiz-adv-x="500" d="M522 448 L517 419 L29 -70 L435 -70 L429 -100 L-19 -100 L-13 -70 L474 419 L68 419 L73 448 L522 448 L522 448 Z M370 527 Q353 511 334 511 Q317 511 304 527 L219 629 L261 629 L338 535 L449 629 L492 629 L370 527 Z " />
<glyph glyph-name="Scaron" unicode="&#x160;" horiz-adv-x="584" d="M225 -109 Q67 -109 -20 -9 L4 18 L9 13 L18 4 Q96 -79 231 -79 Q345 -79 413 -33 Q481 12 495 93 Q516 218 366 255 L223 291 Q54 333 76 464 Q91 550 162 595 Q232 641 350 641 Q418 641 479 613 Q508 599 531.5 580.5 Q555 562 575 539 L549 517 L546 520 Q544 522 542 523.5 Q540 525 537 528 Q520 547 499 561.5 Q478 576 452 587 Q400 610 344 610 Q241 610 183 572 Q124 534 112 464 Q96 361 236 324 L380 287 Q557 242 532 94 Q516 -4 435 -57 Q358 -109 225 -109 Z M392 727 Q375 711 356 711 Q339 711 326 727 L241 829 L283 829 L360 735 L471 829 L514 829 L392 727 Z " />
<glyph glyph-name="scaron" unicode="&#x161;" horiz-adv-x="473" d="M186 -109 Q155 -109 127 -102.5 Q99 -96 72 -84 Q20 -59 1 -25 L28 -5 Q37 -19 59 -35 Q81 -51 100 -60 Q143 -80 191 -80 Q278 -80 331 -48 Q383 -17 394 45 Q410 138 270 172 Q265 174 256.5 176 Q248 178 235 180 Q224 183 214.5 185.5 Q205 188 197 190 Q64 220 82 329 Q93 384 149 421 Q208 459 292 459 Q351 459 395 432 Q410 423 428 407.5 Q446 392 454 378 L430 357 Q423 365 413 375 Q395 393 366 412 Q350 422 330 426 Q310 430 287 430 Q215 430 169 400 Q121 370 114 330 Q107 283 131 257 Q155 231 207 219 Q214 217 223 215 Q232 213 244 210 Q266 204 280 201 Q359 182 399 143 Q439 106 428 45 Q414 -30 352 -69 Q290 -109 186 -109 Z M326 527 Q309 511 290 511 Q273 511 260 527 L175 629 L217 629 L294 535 L405 629 L448 629 L326 527 Z " />
<glyph glyph-name="sterling" unicode="&#xa3;" horiz-adv-x="567" d="M472 -68 L466 -100 L-9 -100 L-3 -68 Q93 52 115 180 Q117 189 117.5 200.5 Q118 212 119 226 L47 226 L49 238 L52 258 L72 258 L115 258 Q113 268 109.5 281 Q106 294 99 310 Q93 327 89 342.5 Q85 358 82 372 Q77 402 83 434 Q91 476 108 509 Q128 545 159 574 Q192 604 243 622 Q295 640 360 640 Q498 640 551 551 L526 529 L513 543 Q459 607 354 607 Q259 607 197 564 Q134 519 119 436 Q117 422 117.5 407.5 Q118 393 120 379 Q123 365 127.5 349 Q132 333 137 316 Q143 299 146 284.5 Q149 270 151 258 L447 258 L445 246 L442 226 L422 226 L154 226 Q155 217 153.5 206.5 Q152 196 150 183 Q126 41 37 -68 L472 -68 Z " />
<glyph glyph-name="yen" unicode="&#xa5;" horiz-adv-x="579" d="M626 629 L387 338 L502 338 L500 326 L497 306 L477 306 L360 306 L309 243 L296 172 L473 172 L471 160 L468 140 L448 140 L291 140 L249 -100 L212 -100 L254 140 L73 140 L75 152 L78 172 L98 172 L259 172 L272 242 L242 306 L102 306 L104 318 L107 338 L127 338 L227 338 L89 629 L134 629 L267 338 L348 338 L583 629 L626 629 Z M296 273 L323 306 L282 306 L296 273 Z " />
<glyph glyph-name="cent" unicode="&#xa2;" horiz-adv-x="593" d="M548 175 Q511 82 438 32 Q364 -18 268 -18 L263 -18 L247 -109 L217 -109 L233 -16 Q130 -6 85 70 Q40 144 60 265 Q81 387 152 462 Q225 538 329 548 L330 548 L346 641 L376 641 L360 550 L365 550 Q458 550 514 502 Q568 457 577 369 L563 365 Q561 364 557.5 363 Q554 362 551 361 L543 359 Q542 363 542 367 Q542 370 541.5 373 Q541 376 541 378 Q528 445 482 483 Q435 521 360 521 Q358 521 357.5 520.5 Q357 520 355 520 L268 11 L273 11 Q352 11 413 51 Q475 92 509 164 Q510 166 511 169.5 Q512 173 514 176 L518 184 Q521 183 525 182 Q528 181 531 180 Q534 179 536 179 L548 175 Z M122 80 Q161 24 238 13 L325 518 Q245 508 185 452 Q114 384 93 265 Q73 146 122 80 Z " />
<glyph glyph-name="igrave" unicode="&#xec;" horiz-adv-x="164" d="M102 629 L191 513 L162 513 L67 629 L102 629 Z M7 -100 L99 447 L132 447 L40 -100 L7 -100 Z " />
<glyph glyph-name="iacute" unicode="&#xed;" horiz-adv-x="123" d="M22 513 L153 629 L186 629 L49 513 L22 513 Z M-17 -100 L77 447 L110 447 L15 -100 L-17 -100 Z " />
<glyph glyph-name="icircumflex" unicode="&#xee;" horiz-adv-x="123" d="M237 525 L206 525 L123 624 L7 525 L-23 525 L97 628 Q111 641 126 641 Q140 641 152 628 L237 525 Z M-16 -100 L78 447 L111 447 L16 -100 L-16 -100 Z " />
<glyph glyph-name="idieresis" unicode="&#xef;" horiz-adv-x="123" d="M58 629 L90 629 L84 592 L52 592 L58 629 Z M155 629 L187 629 L181 592 L149 592 L155 629 Z M-16 -100 L77 447 L110 447 L16 -100 L-16 -100 Z " />
<glyph glyph-name="lslash" unicode="&#x142;" horiz-adv-x="330" d="M252 -70 L249 -87 L247 -100 L224 -100 L193 -100 Q131 -100 104 -60 Q77 -20 90 51 L124 240 L-4 180 L-13 208 L130 275 L194 632 L227 632 L166 292 L297 352 L306 324 L160 256 L123 51 Q113 -5 133 -39 Q152 -70 198 -70 L229 -70 L232 -70 L252 -70 Z " />
<glyph glyph-name="Lslash" unicode="&#x141;" horiz-adv-x="576" d="M113 -69 L504 -69 L499 -100 L73 -100 L128 222 L2 163 L-7 191 L13 201 L134 258 L198 630 L233 630 L172 275 L302 336 L311 307 L290 298 L166 240 L113 -69 L113 -69 Z " />
<glyph glyph-name="Eth" unicode="&#xd0;" horiz-adv-x="752" d="M664 534 Q736 438 706 265 Q674 91 571 -5 Q465 -100 305 -100 L56 -100 L118 254 L8 254 L13 286 L123 286 L183 630 L432 630 Q592 630 664 534 Z M549 18 Q642 106 670 265 Q697 424 634 512 Q572 599 427 599 L214 599 L159 286 L332 286 L327 254 L154 254 L97 -70 L310 -70 Q453 -70 549 18 Z " />
<glyph glyph-name="Oslash" unicode="&#xd8;" horiz-adv-x="774" d="M588 -11 Q484 -109 322 -109 Q160 -109 88 -11 Q18 88 49 266 Q79 446 185 543 Q291 641 453 641 Q615 641 685 544 Q721 495 730.5 426 Q740 357 725 266 Q693 86 588 -11 Z M325 -79 Q471 -79 564 11 Q658 101 688 266 Q715 431 653 520 Q590 610 445 610 Q299 610 206 520 Q110 430 83 266 Q68 188 77 126 Q81 94 90 67 Q99 40 113 17 Q142 -28 197 -54 Q252 -79 325 -79 Z M77 -203 L663 750 L698 750 L110 -203 L77 -203 L77 -203 Z " />
<glyph glyph-name="oslash" unicode="&#xf8;" horiz-adv-x="573" d="M67 -174 L487 515 L512 515 L91 -174 L67 -174 Z M239 -109 Q120 -109 64 -33 Q9 43 31 174 Q52 304 133 382 Q217 458 334 458 Q453 458 509 381 Q538 343 546 291.5 Q554 240 543 174 Q521 43 440 -33 Q398 -71 348.5 -90 Q299 -109 239 -109 Z M91 -11 Q140 -80 244 -80 Q349 -80 418 -11 Q489 56 510 174 Q529 292 481 360 Q433 428 329 428 Q225 428 154 360 Q84 294 64 174 Q43 56 91 -11 Z " />
<glyph glyph-name="multiply" unicode="&#xd7;" horiz-adv-x="233" d="M204 357 L139 299 L185 239 L146 239 L114 278 L70 239 L31 239 L97 299 L50 357 L94 357 L121 321 L160 357 L204 357 L204 357 Z " />
<glyph glyph-name="eth" unicode="&#xf0;" horiz-adv-x="592" d="M372 548 L417 488 L378 488 L347 527 L302 488 L263 488 L330 548 L284 606 L328 606 L355 570 L394 606 L438 606 L372 548 Z M239 -109 Q120 -109 64 -33 Q9 43 31 174 Q52 304 133 382 Q217 458 334 458 Q453 458 509 381 Q538 343 546 291.5 Q554 240 543 174 Q521 43 440 -33 Q398 -71 348.5 -90 Q299 -109 239 -109 Z M91 -11 Q140 -80 244 -80 Q349 -80 418 -11 Q489 56 510 174 Q529 292 481 360 Q433 428 329 428 Q225 428 154 360 Q84 294 64 174 Q43 56 91 -11 Z " />
<glyph glyph-name="fi" unicode="&#xfb01;" horiz-adv-x="395" d="M353 447 L376 447 L281 -100 L258 -100 L353 447 Z M412 632 L406 594 L373 594 L376 612 L273 612 Q222 612 186 576 Q153 542 141 475 L136 449 L325 449 L322 430 L133 430 L41 -100 L19 -100 L111 430 L35 430 L38 449 L114 449 L119 475 Q133 552 173 591 Q214 632 276 632 L362 632 L412 632 Z " />
<glyph glyph-name="fl" unicode="&#xfb02;" horiz-adv-x="519" d="M397 629 L392 599 L272 599 Q224 599 192 567 Q162 535 151 476 L147 446 L329 446 L324 417 L142 417 L56 -100 L24 -100 L110 417 L32 417 L37 446 L115 446 L119 476 Q131 548 172 589 Q213 629 277 629 L397 629 Z M430 -71 L425 -100 L372 -100 Q309 -100 282 -60 Q255 -19 267 51 L366 629 L399 629 L300 51 Q291 -8 311 -39 Q331 -71 377 -71 L430 -71 Z " />
<glyph glyph-name="AE" unicode="&#xc6;" horiz-adv-x="768" d="M390 598 L341 290 L724 290 L719 260 L336 260 L283 -70 L674 -70 L670 -100 L244 -100 L281 138 L113 138 L-12 -100 L-48 -100 L341 629 L786 629 L781 598 L390 598 Z M286 168 L353 590 L129 168 L286 168 Z " />
<glyph glyph-name="ae" unicode="&#xe6;" horiz-adv-x="1041" d="M1008 166 L525 166 Q523 149 522 132.5 Q521 116 521 101 Q523 67 532 38.5 Q541 10 558 -13 Q610 -80 710 -80 Q784 -80 843 -45 Q899 -10 936 53 L946 72 L962 68 L976 64 Q974 59 971.5 53.5 Q969 48 965 43 Q926 -27 866 -64 Q794 -109 705 -109 Q585 -109 530 -32 Q515 -13 506 9 L487 -100 L457 -100 L478 22 Q458 -8 433 -33 Q408 -58 378 -75 Q317 -109 239 -109 Q119 -109 64 -33 Q8 42 31 175 Q52 306 132 382 Q214 458 333 458 Q371 458 403.5 450.5 Q436 443 460 427 Q485 410 502.5 390 Q520 370 530 341 L545 435 L577 435 L561 338 Q570 349 579 359.5 Q588 370 599 380 Q683 458 800 458 Q861 458 910 436 Q956 412 980 375 Q993 355 1000.5 334.5 Q1008 314 1013 291 Q1018 268 1017.5 243.5 Q1017 219 1013 194 L1008 166 Z M413 -20 Q465 26 488 103 Q487 119 489 135.5 Q491 152 494 169 Q497 187 501 204 Q505 221 510 237 Q516 318 477 368 Q431 429 328 429 Q223 429 154 361 Q83 294 63 175 Q42 58 91 -11 Q140 -79 244 -79 Q347 -79 413 -20 Z M981 196 Q994 298 945 364 Q897 429 795 429 Q699 429 627 366 Q571 316 545 243 Q541 232 538 220 Q535 208 531 196 L981 196 Z " />
<glyph glyph-name="OE" unicode="&#x152;" horiz-adv-x="980" d="M561 289 L944 289 L938 259 L555 259 L499 -69 L890 -69 L885 -99 L459 -99 L462 -84 Q396 -109 313 -109 Q151 -109 79 -10 Q8 88 38 264 Q54 353 87 422 Q120 491 174 540 Q279 639 440 639 Q520 639 581 614 L584 629 L1010 629 L1004 598 L613 598 L561 289 Z M575 578 Q518 608 435 608 Q289 608 196 518 Q149 473 118 409.5 Q87 346 73 264 Q66 225 65.5 191.5 Q65 158 69 126 Q74 94 82.5 67 Q91 40 106 17 Q133 -28 189 -54 Q242 -79 318 -79 Q400 -79 468 -49 L575 578 Z " />
<glyph glyph-name="oe" unicode="&#x153;" horiz-adv-x="1025" d="M521 168 Q519 151 517.5 135.5 Q516 120 517 106 Q519 34 553 -12 Q603 -79 704 -79 Q778 -79 837 -43 Q893 -9 931 55 L941 73 L971 65 Q968 60 965 54.5 Q962 49 960 44 Q919 -26 860 -63 Q789 -108 699 -108 Q583 -108 524 -31 Q500 3 489 45 Q464 0 429 -32 Q349 -108 229 -108 Q108 -108 54 -32 Q-2 43 21 176 Q43 307 125 383 Q205 459 326 459 Q446 459 500 383 Q513 366 521.5 346.5 Q530 327 535 305 Q558 347 595 381 Q679 459 796 459 Q861 459 906 437 Q951 414 977 376 Q1002 337 1009 292 Q1017 244 1008 195 L1003 168 L521 168 Z M409 -11 Q433 13 452 42.5 Q471 72 483 108 Q483 138 489 174 Q492 192 496.5 208.5 Q501 225 506 242 Q506 315 472 362 Q424 430 321 430 Q218 430 145 362 Q73 292 54 176 Q33 59 82 -11 Q130 -79 234 -79 Q336 -79 409 -11 Z M976 197 Q991 297 941 365 Q891 430 791 430 Q694 430 622 367 Q567 316 540 242 Q536 231 532.5 220 Q529 209 527 197 L976 197 Z " />
<glyph glyph-name="B" unicode="B" horiz-adv-x="557" d="M394 277 Q465 259 495 213 Q526 167 514 93 Q497 0 425 -50 Q352 -100 235 -100 L-17 -100 L109 630 L352 630 Q465 630 517 581 Q570 534 555 445 Q543 379 502 338 Q462 295 394 277 Z M139 599 L85 290 L293 290 Q385 290 447 330 Q506 371 519 445 Q531 519 485 559 Q437 599 342 599 L139 599 Z M231 -70 Q334 -70 400 -27 Q465 17 478 95 Q491 174 444 217 Q398 260 298 260 L80 260 L22 -70 L231 -70 Z " />
<glyph glyph-name="C" unicode="C" horiz-adv-x="789" d="M318 -109 Q159 -109 88 -11 Q18 88 49 266 Q79 444 183 542 Q286 641 447 641 Q570 641 644 578 Q718 517 732 403 L714 399 Q711 398 703 396 L695 394 L695 401 Q695 406 693 412 Q678 507 612 558 Q548 610 441 610 Q298 610 205 520 Q111 427 84 266 Q77 227 76 192.5 Q75 158 79 126 Q82 94 91.5 67 Q101 40 115 17 Q143 -28 197 -54 Q252 -79 324 -79 Q437 -79 522 -23 Q608 34 650 136 Q651 138 652.5 141.5 Q654 145 656 149 Q658 153 659 157 L692 147 Q642 24 546 -42 Q449 -109 318 -109 Z " />
<glyph glyph-name="A" unicode="A" horiz-adv-x="614" d="M503 -100 L452 138 L120 138 L-6 -100 L-42 -100 L347 629 L384 629 L544 -100 L503 -100 L503 -100 Z M136 168 L445 168 L359 590 L136 168 L136 168 Z " />
<glyph glyph-name="quotedblright" unicode="&#x201d;" horiz-adv-x="187" d="M22 511 Q19 511 18 514 Q17 516 19 520 L47 580 Q52 591 45 595 Q35 604 38 619 Q39 631 50 640 Q61 648 74 648 Q87 648 92 640 Q100 632 98 619 Q97 612 59 534 Q51 519 44 516 Q36 511 22 511 Z M95 511 Q92 511 91 514 Q89 517 91 520 L120 580 Q124 589 117 595 Q108 604 111 619 Q112 630 122 640 Q133 648 145 648 Q159 648 164 640 Q171 632 170 619 Q168 614 158.5 593 Q149 572 132 534 Q124 519 117 516 Q109 511 95 511 Z " />
<glyph glyph-name="quotedblleft" unicode="&#x201c;" horiz-adv-x="183" d="M22 511 Q19 511 18 514 Q17 516 19 520 L47 580 Q52 591 45 595 Q35 604 38 619 Q39 631 50 640 Q61 648 74 648 Q87 648 92 640 Q100 632 98 619 Q97 612 59 534 Q51 519 44 516 Q36 511 22 511 Z M95 511 Q92 511 91 514 Q89 517 91 520 L120 580 Q124 589 117 595 Q108 604 111 619 Q112 630 122 640 Q133 648 145 648 Q159 648 164 640 Q171 632 170 619 Q168 614 158.5 593 Q149 572 132 534 Q124 519 117 516 Q109 511 95 511 Z " />
<glyph glyph-name="quoteleft" unicode="&#x2018;" horiz-adv-x="132" d="M35 504 Q33 504 30 507 Q30 511 31 513 L59 573 Q64 584 57 587 Q47 595 49 612 Q52 625 62 633 Q73 641 86 641 Q98 641 105 633 Q112 624 109 612 Q109 606 71 527 Q65 514 57 509 Q47 504 35 504 Z " />
<glyph glyph-name="quoteright" unicode="&#x2019;" horiz-adv-x="123" d="M35 504 Q33 504 30 507 Q30 511 31 513 L59 573 Q64 584 57 587 Q47 595 49 612 Q52 625 62 633 Q73 641 86 641 Q98 641 105 633 Q112 624 109 612 Q109 606 71 527 Q65 514 57 509 Q47 504 35 504 Z " />
</font>
</svg>
