<?xml version="1.0" encoding="UTF-8"?>
<svg xmlns="http://www.w3.org/2000/svg" xmlns:xlink="http://www.w3.org/1999/xlink" version="1.2" >
<font id="Noirden Regular Oblique">
<font-face  font-family="Noirden" units-per-em="1000" ascent="750" descent="-250" font-style="normal" font-weight="400" font-stretch="normal" cap-height="900" x-height="700" underline-position="-75" underline-thickness="50" />
<missing-glyph  horiz-adv-x="197" d="" />
<glyph glyph-name="NULL" d="" />
<glyph glyph-name="CR" unicode="&#xd;" horiz-adv-x="197" d="" />
<glyph glyph-name="space" unicode="&#x20;" horiz-adv-x="197" d="" />
<glyph glyph-name="exclam" unicode="&#x21;" horiz-adv-x="157" d="M55 47 L85 199 L85 199 C90 225 96 252 100 278 L162 629 L91 629 L29 277 C18 213 5 136 -7 47 L55 47 L55 47 Z M40 -35 L-22 -35 L-34 -102 L28 -102 L40 -35 L40 -35 Z " />
<glyph glyph-name="quotedbl" unicode="&#x22;" horiz-adv-x="215" d="M4 483 C19 483 32 486 42 492 C51 498 60 508 68 522 C93 571 105 598 106 602 C111 627 96 648 69 648 C45 648 20 629 15 602 C12 588 15 577 23 568 C28 563 29 556 24 545 L-1 494 C-2 491 -3 489 -1 486 C-1 484 1 483 4 483 L4 483 Z M111 483 C127 483 140 486 150 492 C159 498 168 508 176 522 C199 568 212 595 214 602 C219 626 205 648 178 648 C153 648 128 629 123 602 C120 587 123 576 131 568 C137 563 138 556 132 545 L106 494 C105 491 104 489 106 486 C106 484 108 483 111 483 L111 483 Z " />
<glyph glyph-name="numbersign" unicode="&#x23;" horiz-adv-x="624" d="M581 356 L605 416 L514 416 L595 630 L535 630 L453 416 L270 416 L352 630 L291 630 L210 416 L118 416 L95 356 L186 356 L117 173 L25 173 L2 112 L93 112 L12 -100 L73 -100 L154 112 L337 112 L256 -100 L316 -100 L398 112 L489 112 L512 173 L421 173 L491 356 L581 356 Z M360 173 L178 173 L247 356 L429 356 L360 173 Z " />
<glyph glyph-name="dollar" unicode="&#x24;" horiz-adv-x="577" d="M506 235 C476 269 425 295 353 312 L331 317 L376 577 C423 568 469 545 514 506 C522 499 529 492 529 492 L580 542 C530 600 465 632 387 640 L403 733 L341 733 L325 643 C252 639 194 622 147 591 C102 559 74 514 64 456 C48 361 102 300 227 273 L261 265 L207 -47 C137 -42 79 -18 34 27 C25 35 21 39 21 39 L-31 -9 C-4 -40 28 -65 64 -81 C101 -97 145 -107 197 -109 L179 -214 L241 -214 L259 -109 C336 -104 399 -84 448 -48 C496 -12 527 38 538 104 C547 158 537 201 506 235 L506 235 Z M242 338 C202 348 172 363 154 383 C135 404 128 428 133 456 C140 496 160 527 194 549 C224 567 264 578 314 580 L272 331 L242 338 L242 338 Z M393 -5 C359 -28 318 -42 269 -46 L320 251 L332 248 C383 237 421 219 442 193 C465 167 473 137 467 103 C459 60 435 23 393 -5 L393 -5 Z " />
<glyph glyph-name="percent" unicode="&#x25;" horiz-adv-x="646" d="M190 375 C267 378 335 436 348 511 C361 587 308 646 236 646 C160 646 90 583 78 511 C65 434 117 375 190 375 L190 375 Z M161 574 C182 591 204 600 228 600 C252 600 272 591 287 574 C302 556 306 535 302 511 C298 486 286 465 265 448 C244 430 222 421 198 421 C174 421 154 430 139 448 C125 465 120 486 124 511 C128 535 141 556 161 574 L161 574 Z M449 162 C372 159 304 101 291 26 C278 -51 330 -109 403 -109 C480 -109 550 -47 562 26 C575 103 522 162 449 162 L449 162 Z M478 -37 C458 -55 435 -63 411 -63 C387 -63 367 -55 352 -37 C338 -19 333 2 337 26 C341 51 354 72 374 89 C395 107 418 116 442 116 C466 116 486 107 500 89 C515 72 519 51 515 26 C511 2 499 -19 478 -37 L478 -37 Z M597 634 L-20 -97 L43 -97 L660 634 L597 634 Z " />
<glyph glyph-name="ampersand" unicode="&#x26;" horiz-adv-x="744" d="M640 -38 C602 -38 572 -23 552 8 L535 32 C589 89 634 160 667 245 C622 259 610 262 610 262 C582 197 545 134 499 83 L325 336 L360 357 C429 399 469 446 479 499 C486 543 478 577 454 603 C431 628 395 641 347 641 C302 641 264 628 232 603 C201 577 182 544 175 502 C169 466 181 425 211 380 L233 348 L155 305 C64 253 13 190 0 115 C-11 48 3 -7 44 -49 C85 -90 143 -111 221 -111 C315 -111 403 -79 483 -15 L499 -40 C511 -59 529 -73 551 -84 C573 -94 596 -100 620 -100 L629 -100 L631 -100 L655 -100 L666 -38 L640 -38 L640 -38 Z M240 502 C244 527 256 547 272 562 C290 577 312 585 337 585 C365 585 386 577 399 561 C414 546 418 524 413 497 C407 463 381 433 334 406 L293 383 L269 417 C246 451 236 480 240 502 L240 502 Z M232 -50 C175 -50 131 -35 100 -5 C69 25 59 65 68 113 C72 142 83 166 101 188 C119 209 142 229 173 247 L266 301 L449 33 C381 -22 310 -50 232 -50 L232 -50 Z " />
<glyph glyph-name="quotesingle" unicode="&#x27;" horiz-adv-x="139" d="M27 477 C43 477 56 480 65 486 C75 491 84 502 91 516 C113 564 126 590 127 595 C129 609 127 620 119 628 C112 637 102 641 89 641 C76 641 64 637 53 628 C44 620 37 609 35 595 C32 581 35 570 44 561 C50 556 50 549 46 539 L21 486 C20 484 20 482 22 480 C23 478 24 477 27 477 L27 477 Z " />
<glyph glyph-name="parenleft" unicode="&#x28;" horiz-adv-x="235" d="M88 -213 L138 -190 C138 -190 136 -183 133 -171 C117 -114 106 -50 101 21 C96 92 99 164 111 236 C140 411 193 550 271 656 L283 673 L245 699 C143 562 78 408 49 236 C26 95 39 -54 88 -213 L88 -213 Z " />
<glyph glyph-name="parenright" unicode="&#x29;" horiz-adv-x="234" d="M-50 -189 L-8 -212 C94 -53 158 96 182 237 C212 409 199 563 144 700 L96 674 L103 657 C145 551 151 412 120 237 C97 102 43 -39 -39 -170 C-47 -182 -50 -189 -50 -189 L-50 -189 Z " />
<glyph glyph-name="asterisk" unicode="&#x2a;" horiz-adv-x="448" d="M414 492 L404 546 L249 483 L286 641 L230 641 L215 484 L80 546 L53 492 L199 451 L77 328 L118 296 L223 431 L284 296 L335 328 L255 451 L414 492 L414 492 Z " />
<glyph glyph-name="plus" unicode="&#x2b;" horiz-adv-x="564" d="M529 284 L318 284 L356 506 L292 506 L254 284 L42 284 L31 223 L243 223 L205 0 L269 0 L307 223 L518 223 L529 284 L529 284 Z " />
<glyph glyph-name="comma" unicode="&#x2c;" horiz-adv-x="127" d="M17 -215 C33 -215 46 -213 55 -207 C65 -201 73 -191 81 -176 C104 -129 117 -103 118 -98 C122 -73 107 -52 80 -52 C56 -52 31 -71 26 -98 C23 -112 26 -123 36 -132 C41 -137 41 -144 37 -154 L11 -206 C10 -209 10 -211 11 -213 C12 -215 14 -215 17 -215 L17 -215 Z " />
<glyph glyph-name="hyphen" unicode="&#x2d;" horiz-adv-x="434" d="M59 289 C59 289 49 231 48 228 L383 228 L394 289 L59 289 Z " />
<glyph glyph-name="period" unicode="&#x2e;" horiz-adv-x="97" d="M42 -109 C66 -109 89 -91 93 -65 C97 -42 84 -19 57 -19 C33 -19 7 -38 2 -65 C-1 -90 15 -109 42 -109 L42 -109 Z " />
<glyph glyph-name="slash" unicode="&#x2f;" horiz-adv-x="569" d="M-39 -203 L22 -203 L608 751 L545 751 L-39 -203 L-39 -203 Z " />
<glyph glyph-name="zero" unicode="0" horiz-adv-x="633" d="M251 -110 C336 -110 408 -76 466 -10 C524 56 563 150 585 273 C605 391 598 483 563 547 C528 612 467 645 382 645 C296 645 226 612 167 548 C110 483 70 391 50 273 C28 150 36 56 70 -10 C106 -76 165 -110 251 -110 L251 -110 Z M131 37 C107 93 104 172 122 273 C138 370 169 446 212 500 C256 555 309 582 371 582 C433 582 478 555 502 500 C528 446 531 370 515 273 C497 172 466 93 421 37 C378 -19 324 -47 262 -47 C200 -47 156 -19 131 37 L131 37 Z " />
<glyph glyph-name="one" unicode="1" horiz-adv-x="269" d="M283 636 L226 636 L225 632 C214 592 196 537 196 537 L57 537 L50 493 L189 493 L84 -100 L154 -100 L283 636 L283 636 Z " />
<glyph glyph-name="two" unicode="2" horiz-adv-x="558" d="M299 197 C324 209 349 222 376 236 C413 256 452 280 482 313 C514 346 534 390 542 435 C551 487 540 541 508 578 C473 623 404 642 337 642 C309 642 282 638 256 630 C230 622 207 612 187 600 C152 578 118 549 92 512 C83 497 74 483 70 469 L129 446 C129 446 137 459 140 464 C157 499 181 527 213 547 C244 567 282 578 326 578 C410 578 489 532 472 435 C469 419 464 402 457 386 C429 331 369 306 313 274 C272 253 233 232 187 207 C149 186 107 164 73 131 C44 104 19 71 2 31 C-5 10 -11 -13 -15 -38 L-26 -100 L440 -100 L451 -38 L56 -38 C61 -6 69 20 79 40 C93 68 118 94 152 117 C175 132 224 159 299 197 L299 197 Z " />
<glyph glyph-name="three" unicode="3" horiz-adv-x="530" d="M483 223 C468 254 443 278 409 294 C441 310 468 332 488 360 C509 387 522 418 528 453 C538 509 524 555 487 591 C449 626 397 644 331 644 C270 644 216 628 169 597 C123 566 88 524 68 471 L127 451 C167 537 238 580 320 580 C366 580 402 569 428 545 C455 521 465 491 458 453 C451 413 433 381 404 357 C375 333 338 321 294 321 L212 321 L202 263 L285 263 C336 263 374 250 399 223 C425 197 432 161 425 115 C416 67 394 28 356 -2 C316 -32 271 -47 218 -47 C177 -47 143 -37 116 -15 C85 9 68 46 63 87 L-4 66 C6 -48 97 -109 207 -109 C281 -109 345 -88 398 -47 C452 -6 484 48 496 115 C503 156 499 192 483 223 L483 223 Z " />
<glyph glyph-name="four" unicode="4" horiz-adv-x="523" d="M484 121 L398 121 L484 629 L413 629 L0 121 L-9 58 L317 58 L290 -100 L361 -100 L388 58 L474 58 L484 121 Z M73 121 L393 512 C393 512 389 487 388 483 L327 121 L73 121 Z " />
<glyph glyph-name="five" unicode="5" horiz-adv-x="563" d="M301 366 C242 366 187 350 137 318 L196 566 L539 566 L550 629 L142 629 L43 224 L114 224 C158 274 227 303 290 303 C387 303 455 229 437 127 C421 30 334 -50 231 -50 C135 -50 93 -6 73 83 C73 83 58 78 3 60 C11 -51 106 -113 220 -113 C353 -113 483 -16 507 127 C531 269 443 361 301 366 L301 366 Z " />
<glyph glyph-name="six" unicode="6" horiz-adv-x="580" d="M233 -109 C312 -109 377 -87 430 -44 C484 0 517 55 529 122 C541 192 529 249 494 294 C458 339 406 362 336 362 C290 362 248 354 208 337 C168 320 138 296 117 265 C135 365 165 442 208 496 C251 550 304 578 365 578 C401 578 430 568 452 549 C476 530 491 502 499 466 C500 461 503 450 503 450 C503 450 514 453 519 455 L575 471 C566 526 545 569 511 599 C478 629 433 644 378 644 C293 644 221 610 164 544 C105 477 65 384 44 263 C20 129 25 33 60 -26 C94 -81 152 -109 233 -109 L233 -109 Z M247 -45 C188 -45 145 -24 119 19 C99 51 93 89 101 135 C111 189 135 231 175 258 C215 286 264 300 324 300 C375 300 412 283 436 250 C460 217 467 173 457 120 C449 71 426 31 388 1 C351 -30 304 -45 247 -45 L247 -45 Z " />
<glyph glyph-name="seven" unicode="7" horiz-adv-x="486" d="M537 630 L77 630 L66 567 L461 567 C450 501 417 435 373 377 C328 317 277 263 224 199 C172 141 122 80 82 8 C62 -29 48 -64 37 -100 L123 -100 C141 -31 179 36 225 97 C269 155 317 209 370 271 C418 329 461 389 494 458 C509 494 520 530 526 566 L537 630 L537 630 Z " />
<glyph glyph-name="eight" unicode="8" horiz-adv-x="519" d="M391 296 C424 311 451 332 473 359 C494 385 509 416 514 451 C524 509 512 556 477 591 C443 626 392 644 325 644 C256 644 198 626 150 591 C103 556 74 509 64 451 C59 416 62 385 75 359 C88 332 109 311 138 296 C97 280 62 256 34 224 C7 193 -9 156 -16 114 C-28 46 -14 -8 25 -48 C64 -89 121 -109 198 -109 C272 -109 336 -89 388 -48 C439 -8 470 46 482 114 C489 156 485 193 468 224 C453 256 427 280 391 296 L391 296 Z M210 -47 C154 -47 111 -32 84 -3 C56 27 47 65 55 114 C63 161 85 199 122 226 C159 254 207 268 263 268 C317 268 357 254 384 226 C411 198 421 161 413 114 C405 65 382 27 345 -3 C308 -32 263 -47 210 -47 L210 -47 Z M315 582 C362 582 397 570 420 546 C443 522 451 491 444 451 C438 411 419 380 389 357 C358 334 319 322 272 322 C222 322 186 334 162 357 C137 380 129 411 135 451 C142 491 161 522 193 546 C225 570 266 582 315 582 L315 582 Z " />
<glyph glyph-name="nine" unicode="9" horiz-adv-x="582" d="M196 -109 C376 -109 489 23 534 286 C574 524 512 644 346 644 C271 644 206 622 152 578 C96 535 63 478 51 408 C39 338 50 281 85 238 C120 196 173 174 243 174 C289 174 331 182 370 197 C407 212 437 235 459 266 C439 160 409 82 366 31 C323 -21 270 -46 208 -46 C171 -46 140 -36 112 -14 C85 7 68 36 61 72 C60 76 58 89 58 89 L-11 68 C-3 13 19 -31 55 -62 C92 -93 139 -109 196 -109 L196 -109 Z M256 237 C205 237 168 253 145 285 C121 316 113 359 123 414 C131 463 156 504 195 535 C235 566 280 581 331 581 C383 581 423 564 450 529 C477 494 486 450 477 397 C467 343 444 303 405 277 C366 250 316 237 256 237 L256 237 Z " />
<glyph glyph-name="colon" unicode="&#x3a;" horiz-adv-x="175" d="M119 412 C143 412 168 432 172 458 C176 482 161 503 135 503 C111 503 86 485 81 458 C77 433 93 413 119 412 L119 412 Z M38 -63 C62 -63 86 -46 91 -19 C95 5 80 27 53 27 C29 27 4 8 0 -19 C-3 -43 11 -63 38 -63 L38 -63 Z " />
<glyph glyph-name="semicolon" unicode="&#x3b;" horiz-adv-x="172" d="M120 411 C144 411 168 429 173 456 C177 480 162 501 135 501 C111 501 86 483 82 456 C78 432 93 411 120 411 L120 411 Z M-4 -137 C11 -137 23 -135 32 -129 C41 -123 50 -113 57 -98 C80 -51 92 -25 93 -20 C97 4 82 26 55 26 C30 26 6 8 2 -20 C0 -34 2 -45 11 -54 C16 -59 17 -66 12 -76 L-11 -128 C-12 -131 -12 -133 -11 -135 C-9 -137 -7 -137 -4 -137 L-4 -137 Z " />
<glyph glyph-name="less" unicode="&#x3c;" horiz-adv-x="588" d="M564 471 L576 539 L52 324 L44 279 L493 62 L505 130 L151 300 L564 471 L564 471 Z " />
<glyph glyph-name="equal" unicode="&#x3d;" horiz-adv-x="635" d="M89 336 L576 336 L586 397 L99 397 L89 336 Z M60 174 L547 174 L558 235 L71 235 L60 174 Z " />
<glyph glyph-name="greater" unicode="&#x3e;" horiz-adv-x="590" d="M106 538 L94 470 L449 299 L35 129 L23 61 L548 278 L556 323 L106 538 L106 538 Z " />
<glyph glyph-name="question" unicode="&#x3f;" horiz-adv-x="473" d="M443 589 C410 624 360 641 294 641 C259 641 226 635 196 622 C124 589 59 520 46 449 L106 436 L112 457 C117 472 124 486 134 500 C167 555 229 581 283 581 C365 581 423 530 409 448 C406 432 399 417 391 402 C370 370 343 347 316 322 C280 292 251 269 227 241 C195 207 177 167 170 128 L156 50 L210 50 L226 107 L234 132 C247 170 267 203 296 231 C325 257 355 281 384 304 C417 332 441 358 458 389 C468 407 474 427 478 448 C488 506 476 553 443 589 L443 589 Z M203 -31 L140 -31 L128 -98 L191 -98 L203 -31 L203 -31 Z " />
<glyph glyph-name="at" unicode="&#x40;" horiz-adv-x="970" d="M864 494 C793 577 683 623 562 623 C442 623 314 576 216 494 C119 409 52 291 32 170 C11 50 36 -70 105 -154 C175 -238 287 -284 407 -284 C512 -284 632 -244 722 -177 L691 -129 L672 -143 C599 -193 500 -223 417 -223 C313 -223 217 -183 159 -110 C100 -37 80 66 98 170 C116 275 172 376 255 450 C338 523 448 562 552 562 C655 562 754 524 811 450 C871 375 890 271 873 170 C863 116 844 75 817 44 C792 15 709 -18 717 36 L786 441 L721 441 L707 361 C690 390 666 413 637 429 C607 445 572 453 531 453 C451 453 386 428 332 377 C279 326 244 256 229 167 C214 80 226 12 263 -38 C300 -89 358 -114 438 -114 C478 -114 517 -105 552 -87 C579 -73 603 -55 626 -34 C633 -27 639 -20 647 -12 C647 -12 657 -43 702 -51 C756 -59 819 -35 860 5 C900 44 926 100 938 170 C959 292 932 410 864 494 L864 494 Z M672 156 C666 118 655 85 639 56 C599 -19 523 -56 448 -56 C392 -56 345 -35 317 5 C291 45 284 100 296 170 C317 293 395 395 521 395 C576 395 617 379 645 348 C648 346 650 343 653 340 C671 316 680 287 682 251 C683 231 681 209 677 185 L672 156 L672 156 Z " />
<glyph glyph-name="A" unicode="A" horiz-adv-x="639" d="M488 -100 L565 -100 L419 629 L345 629 L-51 -100 L21 -100 L142 122 L444 122 L488 -100 Z M175 184 L365 535 L432 184 L175 184 Z " />
<glyph glyph-name="B" unicode="B" horiz-adv-x="603" d="M465 276 C537 306 580 360 594 439 C605 499 593 546 559 579 C525 613 471 629 397 629 L115 629 L-15 -100 L277 -100 C353 -100 415 -83 463 -48 C511 -14 541 35 553 99 C561 143 557 179 542 209 C527 240 501 262 465 276 L465 276 Z M173 567 L384 567 C436 567 473 556 497 533 C521 510 529 478 521 436 C514 393 495 361 463 338 C431 315 390 303 339 303 L126 303 L173 567 Z M285 -39 L64 -39 L115 245 L339 245 C392 245 432 232 457 207 C482 182 490 147 482 102 C474 57 453 22 419 -2 C384 -26 339 -39 285 -39 L285 -39 Z " />
<glyph glyph-name="C" unicode="C" horiz-adv-x="763" d="M324 -109 C409 -109 483 -87 548 -41 C612 4 661 67 693 148 L646 160 C640 162 626 166 626 166 C626 166 621 151 618 145 C593 85 555 38 506 4 C457 -31 400 -48 334 -48 C293 -48 257 -41 227 -27 C197 -14 174 3 159 24 C143 45 131 70 124 99 C116 128 112 156 112 183 C112 210 114 237 119 266 C134 362 170 439 225 495 C280 552 350 580 437 580 C499 580 549 564 586 533 C622 502 646 458 656 403 C657 398 660 385 660 385 C660 385 673 388 678 390 L730 403 C721 478 692 537 644 579 C595 621 530 642 448 642 C342 642 253 608 182 541 C112 473 66 381 48 266 C35 190 37 125 54 69 C71 13 101 -31 148 -62 C194 -94 253 -109 324 -109 L324 -109 Z " />
<glyph glyph-name="D" unicode="D" horiz-adv-x="689" d="M367 630 L108 630 L-7 -100 L251 -100 C357 -100 445 -68 514 -4 C583 61 627 150 646 265 C664 379 648 469 599 533 C552 598 473 630 367 630 L367 630 Z M260 -39 L70 -39 L167 568 L357 568 C444 568 506 541 542 488 C580 435 591 360 576 265 C561 170 526 96 472 42 C419 -12 347 -39 260 -39 L260 -39 Z " />
<glyph glyph-name="E" unicode="E" horiz-adv-x="539" d="M556 568 L567 630 L122 630 L-2 -100 L442 -100 L453 -39 L77 -39 L125 244 L493 244 L504 306 L136 306 L180 568 L556 568 L556 568 Z " />
<glyph glyph-name="F" unicode="F" horiz-adv-x="544" d="M558 568 L569 630 L124 630 L-4 -100 L65 -100 L126 244 L493 244 L504 306 L137 306 L183 568 L558 568 L558 568 Z " />
<glyph glyph-name="G" unicode="G" horiz-adv-x="770" d="M386 280 L375 217 L641 217 C620 134 581 69 527 22 C473 -24 409 -48 334 -48 C293 -48 257 -41 227 -27 C170 -2 138 43 124 99 C109 153 109 210 119 267 C134 363 170 440 225 496 C281 553 350 581 437 581 C499 581 549 565 586 534 C622 503 646 459 656 404 C657 399 660 385 660 385 C660 385 674 389 679 391 L730 404 C721 479 692 538 644 580 C595 622 531 643 448 643 C342 643 253 609 182 542 C112 474 66 382 48 267 C35 191 37 125 54 69 C71 13 102 -31 148 -62 C194 -94 252 -109 323 -109 C427 -109 515 -76 587 -9 C659 58 705 154 726 280 L386 280 Z " />
<glyph glyph-name="H" unicode="H" horiz-adv-x="622" d="M572 630 L516 306 L121 306 L177 630 L107 630 L-19 -100 L50 -100 L110 244 L505 244 L445 -100 L516 -100 L643 630 L572 630 L572 630 Z " />
<glyph glyph-name="I" unicode="I" horiz-adv-x="148" d="M-23 -100 L46 -100 L171 629 L101 629 L-23 -100 L-23 -100 Z " />
<glyph glyph-name="J" unicode="J" horiz-adv-x="527" d="M188 -109 C260 -109 320 -88 366 -47 C413 -5 442 54 455 130 L541 629 L470 629 L384 130 C375 74 354 30 321 -1 C289 -32 248 -48 199 -48 C162 -48 132 -36 110 -14 C87 9 73 41 68 83 L67 103 L-3 85 C0 22 19 -26 52 -59 C85 -93 131 -109 188 -109 L188 -109 Z " />
<glyph glyph-name="K" unicode="K" horiz-adv-x="595" d="M276 329 L624 629 L535 629 L122 277 L184 629 L114 629 L-14 -100 L55 -100 L105 182 L222 283 L423 -85 L431 -100 L519 -100 L276 329 L276 329 Z " />
<glyph glyph-name="L" unicode="L" horiz-adv-x="494" d="M66 -39 L184 629 L114 629 L-14 -100 L430 -100 L441 -39 L66 -39 L66 -39 Z " />
<glyph glyph-name="M" unicode="M" horiz-adv-x="782" d="M796 629 L709 629 L342 -11 L206 629 L114 629 L-14 -100 L55 -100 L150 438 C154 458 160 490 160 490 L289 -100 L362 -100 L702 492 C702 492 696 459 692 439 L597 -100 L667 -100 L796 629 L796 629 Z " />
<glyph glyph-name="N" unicode="N" horiz-adv-x="654" d="M598 629 L498 66 C495 47 488 6 488 6 L191 629 L114 629 L-14 -100 L55 -100 L155 462 C158 482 165 522 165 522 L461 -100 L539 -100 L668 629 L598 629 L598 629 Z " />
<glyph glyph-name="O" unicode="O" horiz-adv-x="774" d="M322 -109 C428 -109 517 -75 587 -8 C659 59 703 151 723 267 C742 383 728 475 681 542 C632 610 555 643 449 643 C342 643 253 610 182 542 C111 474 66 383 47 267 C27 152 42 61 89 -7 C137 -75 215 -109 322 -109 L322 -109 Z M333 -48 C267 -48 195 -27 157 25 C111 89 102 176 118 267 C134 363 170 440 225 496 C281 553 351 581 438 581 C525 581 587 553 623 497 C660 441 669 364 653 267 C636 170 601 94 546 37 C490 -19 420 -48 333 -48 L333 -48 Z " />
<glyph glyph-name="P" unicode="P" horiz-adv-x="561" d="M368 629 L112 629 L-12 -100 L57 -100 L112 223 L298 223 C375 223 436 240 485 276 C533 311 561 361 572 426 C583 491 572 541 536 576 C500 612 445 629 368 629 L368 629 Z M308 285 L123 285 L171 567 L356 567 C410 567 450 555 476 530 C501 506 510 471 502 426 C495 381 474 346 440 322 C406 297 362 285 308 285 L308 285 Z " />
<glyph glyph-name="Q" unicode="Q" horiz-adv-x="774" d="M665 79 C697 133 720 196 732 267 C752 383 739 475 690 542 C643 610 565 643 458 643 C351 643 263 610 192 542 C121 474 75 383 55 267 C36 152 50 61 97 -7 C146 -75 223 -109 330 -109 C385 -109 435 -100 481 -82 L540 -198 L621 -198 L543 -49 C592 -18 634 25 665 79 L665 79 Z M340 -48 C271 -47 203 -26 166 25 C115 93 113 183 127 267 C144 363 180 440 234 496 C290 553 361 581 448 581 C535 581 596 553 633 497 C669 441 679 364 662 267 C652 208 634 157 610 112 C585 66 554 31 516 5 L490 55 L412 55 L454 -28 C417 -41 379 -48 340 -48 L340 -48 Z " />
<glyph glyph-name="R" unicode="R" horiz-adv-x="612" d="M343 244 C416 245 475 263 521 297 C566 330 594 377 604 437 C615 499 602 546 567 580 C531 613 475 630 399 630 L109 630 L-17 -100 L52 -100 L112 244 L263 244 L453 -100 L527 -100 L343 244 Z M168 568 L386 568 C440 568 480 557 505 534 C531 511 541 479 533 437 C526 395 507 363 473 340 C440 318 396 306 343 306 L123 306 L168 568 Z " />
<glyph glyph-name="S" unicode="S" horiz-adv-x="584" d="M228 -109 C315 -109 386 -91 442 -55 C498 -19 531 34 543 105 C552 158 542 202 512 236 C481 270 430 295 358 312 L249 339 C208 348 179 363 160 384 C141 405 133 429 138 456 C145 497 166 528 200 549 C234 571 281 581 341 581 C403 581 463 556 520 507 C523 504 532 495 532 495 L586 543 C576 554 564 565 552 575 C539 586 523 596 505 607 C486 618 463 627 436 633 C410 640 382 643 352 643 C274 643 210 627 160 596 C109 564 79 518 69 456 C53 362 107 301 233 273 L338 249 C390 238 425 219 448 193 C469 167 478 138 473 104 C465 60 440 23 399 -5 C357 -33 304 -48 239 -48 C157 -48 90 -22 40 28 L28 40 L-26 -9 C2 -43 38 -68 78 -84 C119 -101 169 -109 228 -109 L228 -109 Z " />
<glyph glyph-name="T" unicode="T" horiz-adv-x="584" d="M611 629 L92 629 L81 567 L306 567 L192 -100 L262 -100 L376 567 L600 567 L611 629 L611 629 Z " />
<glyph glyph-name="U" unicode="U" horiz-adv-x="615" d="M236 -109 C278 -109 315 -104 349 -94 C383 -83 414 -67 442 -44 C471 -21 496 10 517 50 C537 90 552 137 563 193 L645 630 L575 630 L493 193 C478 114 451 54 411 13 C371 -27 317 -48 247 -48 C178 -48 131 -27 107 14 C83 54 78 114 93 193 L174 630 L105 630 L23 193 C14 148 11 108 13 74 C16 39 22 11 33 -12 C45 -35 60 -54 80 -69 C101 -83 123 -94 148 -100 C173 -106 204 -109 236 -109 L236 -109 Z " />
<glyph glyph-name="V" unicode="V" horiz-adv-x="604" d="M587 629 L252 2 L147 629 L70 629 L195 -100 L270 -100 L661 629 L587 629 L587 629 Z " />
<glyph glyph-name="W" unicode="W" horiz-adv-x="975" d="M948 630 L661 12 L589 630 L516 630 L228 12 L156 630 L80 630 L171 -100 L243 -100 L532 519 L602 -100 L673 -100 L1016 630 L948 630 L948 630 Z " />
<glyph glyph-name="X" unicode="X" horiz-adv-x="698" d="M618 -100 L397 289 L706 630 L622 630 L364 346 L201 630 L114 630 L310 286 L-41 -100 L43 -100 L342 231 L531 -100 L618 -100 L618 -100 Z " />
<glyph glyph-name="Y" unicode="Y" horiz-adv-x="599" d="M649 630 L566 630 L308 315 L162 630 L76 630 L261 249 L200 -100 L271 -100 L332 249 L649 630 L649 630 Z " />
<glyph glyph-name="Z" unicode="Z" horiz-adv-x="572" d="M610 629 L83 629 L73 567 L515 567 L-24 -38 L-34 -100 L492 -100 L502 -38 L61 -38 L600 567 L610 629 L610 629 Z " />
<glyph glyph-name="bracketleft" unicode="&#x5b;" horiz-adv-x="274" d="M134 721 L-34 -233 L147 -233 L158 -172 L42 -172 L189 659 L305 659 L316 721 L134 721 Z " />
<glyph glyph-name="backslash" unicode="&#x5c;" horiz-adv-x="585" d="M386 -230 L448 -230 L185 724 L122 724 L386 -230 L386 -230 Z " />
<glyph glyph-name="bracketright" unicode="&#x5d;" horiz-adv-x="274" d="M126 722 L115 660 L232 660 L85 -171 L-31 -171 L-42 -232 L140 -232 L309 722 L126 722 Z " />
<glyph glyph-name="asciicircum" unicode="&#x5e;" horiz-adv-x="413" d="M260 697 L198 697 L13 448 L76 448 L219 642 L302 448 L364 448 L260 697 L260 697 Z " />
<glyph glyph-name="underscore" unicode="&#x5f;" horiz-adv-x="540" d="M38 -100 L484 -100 L497 -46 L51 -46 L38 -100 L38 -100 Z " />
<glyph glyph-name="grave" unicode="&#x60;" horiz-adv-x="249" d="M137 629 L57 629 L151 509 L216 509 L137 629 L137 629 Z " />
<glyph glyph-name="a" unicode="a" horiz-adv-x="582" d="M586 448 L521 448 L507 367 C490 396 467 419 437 435 C408 451 372 459 331 459 C252 459 186 433 132 383 C79 332 45 262 30 173 C15 86 25 17 63 -33 C100 -84 158 -109 238 -109 C279 -109 316 -100 352 -81 C388 -62 419 -38 447 -6 L430 -100 L492 -100 L586 448 Z M472 162 C461 94 436 42 396 5 C357 -32 308 -50 248 -50 C188 -50 145 -30 118 10 C91 51 84 106 96 175 C107 245 133 300 173 340 C213 380 262 400 321 400 C381 400 425 382 453 345 C480 308 489 257 477 190 L472 162 L472 162 Z " />
<glyph glyph-name="b" unicode="b" horiz-adv-x="586" d="M514 381 C477 432 420 458 340 458 C300 458 262 449 226 432 C191 415 160 392 132 362 L179 629 L114 629 L-12 -100 L49 -100 L65 -7 C81 -39 104 -63 134 -82 C164 -100 198 -109 238 -109 C318 -109 385 -84 440 -33 C494 17 529 85 544 172 C560 261 549 330 514 381 L514 381 Z M399 10 C359 -30 309 -50 249 -50 C190 -50 146 -32 120 5 C94 42 86 94 97 162 L101 185 C113 253 140 306 180 343 C220 381 270 399 330 399 C390 399 432 379 458 339 C483 299 491 244 479 174 C466 104 440 51 399 10 L399 10 Z " />
<glyph glyph-name="c" unicode="c" horiz-adv-x="593" d="M248 -109 C311 -109 367 -92 415 -59 C464 -25 501 23 527 86 L466 102 C466 102 460 87 457 81 C437 40 410 8 376 -15 C342 -38 303 -49 258 -49 C198 -49 154 -29 127 11 C100 52 92 103 103 170 C115 240 141 295 181 336 C222 377 272 398 333 398 C374 398 408 388 434 367 C461 347 477 316 487 276 C489 265 490 258 490 258 L556 276 C548 334 527 379 491 410 C455 442 406 458 343 458 C263 458 196 432 141 381 C88 329 53 259 38 170 C24 85 36 20 72 -31 C108 -83 167 -109 248 -109 L248 -109 Z " />
<glyph glyph-name="d" unicode="d" horiz-adv-x="587" d="M535 629 L492 366 C476 395 451 417 421 434 C392 450 356 458 316 458 C236 458 170 432 117 381 C64 330 31 261 16 172 C2 85 13 17 51 -33 C88 -84 147 -109 226 -109 C267 -109 304 -100 340 -81 C375 -63 407 -38 433 -7 L423 -72 L422 -79 L418 -99 L438 -99 L480 -99 L485 -72 L600 629 L535 629 L535 629 Z M458 162 C447 94 423 42 383 5 C344 -32 295 -50 235 -50 C176 -50 133 -30 105 10 C78 51 70 104 81 174 C93 244 119 299 158 339 C197 379 246 399 306 399 C365 399 409 381 437 344 C465 307 474 256 463 189 L458 162 L458 162 Z " />
<glyph glyph-name="e" unicode="e" horiz-adv-x="586" d="M558 191 C565 240 563 284 550 323 C537 365 513 398 477 423 C440 448 395 461 340 461 C259 461 191 435 134 383 C78 330 43 261 28 174 C14 88 26 20 65 -32 C104 -83 164 -109 245 -109 C306 -109 360 -94 407 -64 C456 -33 494 10 521 65 L461 81 C461 81 458 75 452 65 C430 28 402 0 369 -20 C335 -39 297 -49 255 -49 C197 -49 153 -31 124 6 C95 44 84 93 91 155 L552 155 C555 175 555 175 558 191 L558 191 Z M102 215 C120 272 148 317 189 351 C228 384 276 401 330 401 C384 401 426 384 456 350 C484 316 497 271 495 215 L102 215 L102 215 Z " />
<glyph glyph-name="f" unicode="f" horiz-adv-x="377" d="M291 629 C248 629 213 617 183 591 C155 565 136 530 128 486 L121 447 L38 447 L28 386 L111 386 L26 -100 L92 -100 L177 386 L335 386 L345 447 L187 447 L194 486 C199 512 209 532 224 547 C239 561 257 568 280 568 L405 568 L416 629 L291 629 Z " />
<glyph glyph-name="g" unicode="g" horiz-adv-x="587" d="M535 448 L521 366 C504 395 481 418 452 434 C422 450 386 458 346 458 C266 458 200 433 147 382 C93 331 59 261 43 172 C28 85 39 17 77 -34 C113 -84 172 -109 252 -109 C292 -109 329 -100 365 -82 C399 -64 430 -40 456 -10 L435 -129 C430 -158 418 -181 398 -198 C378 -215 355 -224 326 -224 L97 -224 L86 -285 L315 -285 C364 -285 404 -271 438 -242 C471 -214 492 -176 500 -129 L600 448 L600 448 L535 448 Z M486 161 C474 94 449 41 409 4 C370 -32 321 -51 262 -51 C202 -51 158 -31 131 10 C104 50 97 105 109 175 C121 244 148 299 188 340 C227 380 276 400 336 400 C396 400 439 381 468 345 C494 308 502 256 491 190 L486 161 L486 161 Z " />
<glyph glyph-name="h" unicode="h" horiz-adv-x="515" d="M312 458 C274 458 239 449 206 433 C174 417 146 394 123 365 L169 629 L103 629 L-23 -100 L42 -100 L100 230 C109 285 131 327 166 355 C201 384 247 398 302 398 C354 398 387 384 403 354 C418 325 420 280 410 219 L354 -100 L420 -100 L476 219 C489 298 484 357 458 397 C432 438 383 458 312 458 L312 458 Z " />
<glyph glyph-name="i" unicode="i" horiz-adv-x="123" d="M-35 -100 L59 448 L125 448 L30 -100 L-35 -100 L-35 -100 Z M154 619 L91 619 L79 552 L142 552 L154 619 L154 619 Z " />
<glyph glyph-name="j" unicode="j" horiz-adv-x="163" d="M-2 -127 C-7 -156 -20 -180 -39 -197 C-59 -214 -84 -223 -113 -223 L-167 -223 L-177 -223 L-198 -223 L-201 -241 L-208 -283 L-177 -283 L-123 -283 C-74 -283 -34 -269 0 -241 C32 -213 53 -175 61 -127 L163 448 L99 448 L-2 -127 L-2 -127 Z M192 619 L129 619 L117 552 L180 552 L192 619 L192 619 Z " />
<glyph glyph-name="k" unicode="k" horiz-adv-x="467" d="M216 228 L475 448 L386 448 L100 203 L174 629 L107 629 L-19 -100 L47 -100 L85 117 L162 183 L334 -100 L417 -100 L216 228 L216 228 Z " />
<glyph glyph-name="l" unicode="l" horiz-adv-x="252" d="M164 -39 L155 -39 L115 -39 C94 -39 79 -33 69 -19 C61 -6 58 12 62 36 L167 629 L101 629 L-3 36 C-10 -6 -4 -39 14 -64 C33 -88 63 -100 104 -100 L144 -100 L173 -100 L180 -59 L184 -39 L164 -39 L164 -39 Z " />
<glyph glyph-name="m" unicode="m" horiz-adv-x="829" d="M773 400 C747 439 703 459 642 459 C603 459 569 450 538 432 C506 414 480 389 458 357 C440 425 390 459 307 459 C242 459 188 430 145 372 L158 448 L96 448 L1 -100 L66 -100 L124 231 C134 289 152 331 179 358 C205 386 244 399 297 399 C336 399 364 385 381 357 C400 329 403 287 394 231 L336 -100 L402 -100 L460 231 C470 289 488 332 514 359 C540 386 579 399 632 399 C673 399 703 386 719 359 C735 332 738 289 728 231 L670 -100 L736 -100 L794 231 C806 305 800 361 773 400 L773 400 Z " />
<glyph glyph-name="n" unicode="n" horiz-adv-x="530" d="M474 398 C449 438 400 458 329 458 C253 458 191 426 144 363 L158 448 L95 448 L2 -100 L68 -100 L124 231 C134 286 155 328 188 357 C221 385 264 399 319 399 C371 399 405 385 421 355 C437 326 439 281 429 220 L374 -100 L439 -100 L494 220 C507 299 500 358 474 398 L474 398 Z " />
<glyph glyph-name="o" unicode="o" horiz-adv-x="571" d="M239 -109 C319 -109 386 -83 441 -32 C494 19 529 85 543 173 C558 260 547 330 510 381 C473 432 414 458 334 458 C255 458 188 432 133 381 C80 330 45 261 30 173 C16 85 27 19 64 -32 C101 -83 160 -109 239 -109 L239 -109 Z M249 -49 C190 -49 146 -29 119 11 C92 52 84 103 95 173 C107 242 133 297 174 338 C215 378 265 398 324 398 C384 398 428 378 455 338 C481 297 489 242 477 173 C466 103 440 52 400 11 C359 -29 309 -49 249 -49 L249 -49 Z " />
<glyph glyph-name="p" unicode="p" horiz-adv-x="582" d="M543 383 C507 433 449 458 369 458 C328 458 289 449 253 431 C217 413 186 388 157 357 L173 448 L153 448 L111 448 L-15 -281 L49 -281 L94 -22 C128 -80 186 -109 267 -109 C347 -109 415 -83 469 -32 C523 19 559 88 574 176 C589 263 578 332 543 383 L543 383 Z M428 10 C387 -30 337 -50 277 -50 C217 -50 175 -32 148 4 C122 41 114 93 126 162 L132 192 C144 258 171 309 210 345 C250 381 300 399 359 399 C419 399 461 379 487 339 C512 299 519 244 506 174 C494 105 469 51 428 10 L428 10 Z " />
<glyph glyph-name="q" unicode="q" horiz-adv-x="583" d="M537 448 L521 357 C506 388 483 413 452 431 C422 449 387 458 345 458 C265 458 198 433 146 383 C92 332 58 263 44 176 C29 88 40 19 77 -32 C113 -83 172 -109 251 -109 C332 -109 400 -79 454 -18 L409 -281 L474 -281 L599 448 L537 448 Z M486 165 C474 96 449 43 410 6 C371 -31 321 -50 261 -50 C202 -50 158 -30 131 10 C104 51 96 105 108 174 C120 244 147 299 185 339 C225 379 275 399 335 399 C395 399 439 381 465 344 C493 308 501 256 490 188 L486 165 L486 165 Z " />
<glyph glyph-name="r" unicode="r" horiz-adv-x="322" d="M348 448 C261 448 193 417 143 356 L143 358 L155 427 L158 448 L139 448 L96 448 L81 358 L3 -100 L68 -100 L119 203 C130 262 151 308 186 340 C220 371 263 387 315 387 L327 387 C332 387 346 387 346 387 C346 387 348 401 349 406 L356 448 L348 448 L348 448 Z " />
<glyph glyph-name="s" unicode="s" horiz-adv-x="467" d="M185 -109 C252 -109 308 -94 349 -66 C392 -37 418 2 427 53 C434 94 423 125 397 154 C370 182 330 203 277 214 L198 232 C145 244 123 272 131 316 C135 340 149 359 175 375 C200 391 231 399 270 399 C296 399 320 394 340 384 C361 374 377 362 387 347 C395 339 399 333 399 333 L454 374 C449 383 443 392 433 401 C425 409 413 418 400 428 C386 437 369 444 349 449 C329 455 306 458 283 458 C223 458 174 444 135 418 C96 391 73 356 65 313 C59 276 67 246 88 221 C109 197 143 180 185 171 C198 168 224 163 260 156 C296 148 323 135 341 117 C358 99 365 80 361 53 C355 21 338 -4 310 -22 C281 -39 244 -48 196 -48 C168 -48 142 -42 117 -30 C91 -19 73 -5 60 10 C53 19 49 24 49 24 L-4 -21 C13 -46 38 -67 71 -84 C105 -100 142 -109 185 -109 L185 -109 Z " />
<glyph glyph-name="t" unicode="t" horiz-adv-x="362" d="M360 385 L371 446 L176 446 L207 629 L141 629 L110 446 L24 446 L13 385 L99 385 L44 63 C36 13 43 -26 66 -56 C88 -85 123 -100 171 -100 L237 -100 L276 -100 L283 -58 L287 -39 L248 -39 L182 -39 C155 -39 134 -30 121 -12 C108 6 105 32 110 63 L165 385 L360 385 L360 385 Z " />
<glyph glyph-name="u" unicode="u" horiz-adv-x="537" d="M469 449 L411 118 C402 63 381 21 348 -8 C315 -36 271 -50 216 -50 C164 -50 131 -36 115 -7 C99 23 97 68 107 129 L163 449 L98 449 L42 129 C29 50 35 -9 60 -49 C86 -89 135 -109 206 -109 C282 -109 345 -77 392 -13 L377 -100 L440 -100 L535 449 L469 449 L469 449 Z " />
<glyph glyph-name="v" unicode="v" horiz-adv-x="495" d="M461 448 L214 -6 L127 448 L56 448 L163 -100 L232 -100 L533 448 L461 448 L461 448 Z " />
<glyph glyph-name="w" unicode="w" horiz-adv-x="794" d="M833 448 L764 448 L542 5 L478 448 L411 448 L188 5 L125 448 L56 448 L135 -100 L203 -100 L426 342 L488 -100 L556 -100 L833 448 L833 448 Z " />
<glyph glyph-name="x" unicode="x" horiz-adv-x="537" d="M482 -100 L311 197 L539 448 L463 448 L283 248 L168 448 L85 448 L232 193 L-33 -100 L42 -100 L261 143 L400 -100 L482 -100 L482 -100 Z " />
<glyph glyph-name="y" unicode="y" horiz-adv-x="509" d="M484 448 L239 -8 L147 448 L76 448 L189 -99 L154 -165 C137 -192 114 -220 83 -220 L38 -220 L27 -282 L69 -282 C96 -282 121 -274 147 -257 C172 -241 192 -218 208 -190 L257 -100 L556 448 L484 448 L484 448 Z " />
<glyph glyph-name="z" unicode="z" horiz-adv-x="500" d="M522 448 L73 448 L63 387 L426 387 L-9 -39 L-19 -100 L429 -100 L439 -39 L75 -39 L512 387 L522 448 L522 448 Z " />
<glyph glyph-name="braceleft" unicode="&#x7b;" horiz-adv-x="246" d="M254 721 L247 721 C212 721 182 709 156 686 C131 663 115 634 109 597 L66 349 C64 336 59 324 52 311 C41 289 26 275 9 261 C2 256 -6 250 -14 245 C-5 238 0 234 4 228 C18 211 25 197 30 178 C32 165 32 153 29 139 L-13 -109 C-19 -146 -14 -176 2 -199 C21 -221 47 -233 82 -233 L94 -233 L127 -233 L134 -190 L137 -172 L118 -172 L104 -172 L100 -172 C82 -172 68 -165 60 -154 C52 -141 49 -124 53 -103 L96 143 C98 157 99 170 97 181 C94 201 85 216 73 230 C67 236 61 242 55 245 C66 251 71 255 78 260 C97 273 109 289 119 308 C125 320 129 332 131 346 L174 591 C178 612 185 629 199 641 C211 653 227 659 245 659 L263 659 L282 659 L285 678 L292 721 L254 721 L254 721 Z " />
<glyph glyph-name="bar" unicode="&#x7c;" horiz-adv-x="139" d="M122 723 L-42 -231 L16 -231 L181 723 L122 723 Z " />
<glyph glyph-name="braceright" unicode="&#x7d;" horiz-adv-x="245" d="M116 720 L105 658 L142 658 C161 658 174 652 182 640 C191 628 193 611 190 590 L148 345 C146 331 145 319 147 307 C150 291 157 273 171 259 C176 254 181 250 190 244 C182 241 174 235 166 229 C150 215 135 200 126 180 C120 169 116 156 113 142 L71 -104 C68 -125 60 -142 46 -155 C35 -166 19 -173 0 -173 L-36 -173 L-46 -234 L-1 -234 C33 -234 63 -222 89 -200 C114 -177 130 -147 136 -110 L179 138 C182 160 193 188 213 207 C225 219 238 230 253 240 L261 244 C259 245 257 246 254 248 C243 256 233 268 225 281 C215 300 211 322 214 348 L257 596 C263 633 257 662 240 685 C222 708 196 720 161 720 L116 720 Z " />
<glyph glyph-name="asciitilde" unicode="&#x7e;" horiz-adv-x="572" d="M375 205 C452 205 508 255 542 355 L488 366 C488 366 485 358 480 345 C469 315 457 294 441 281 C415 260 374 256 352 276 C331 296 314 320 291 348 C281 361 267 372 251 381 C209 406 141 398 97 354 C68 328 47 290 33 243 L71 236 C76 236 89 234 89 234 C89 234 95 247 97 253 C108 284 121 306 135 319 C183 357 234 329 259 290 C277 266 295 239 327 219 C341 210 357 205 375 205 L375 205 Z " />
<glyph glyph-name="cent" unicode="&#xa2;" horiz-adv-x="593" d="M485 189 C454 127 427 95 393 73 C363 53 328 42 288 39 L364 488 C399 486 429 476 453 458 C479 437 496 407 508 347 L573 367 C566 423 546 467 512 498 C479 530 434 547 375 549 C389 636 391 643 391 643 L328 643 L311 546 C245 535 188 505 143 456 C98 405 69 340 55 260 C43 185 50 122 79 72 C106 22 152 -8 217 -18 L201 -109 L264 -109 L279 -22 C339 -19 392 -1 438 33 C485 66 521 113 545 173 L485 189 L485 189 Z M145 100 C118 140 110 193 121 260 C133 330 159 386 199 427 C227 456 261 475 301 483 L227 45 C192 53 165 71 145 100 L145 100 Z " />
<glyph glyph-name="sterling" unicode="&#xa3;" horiz-adv-x="567" d="M79 -37 C138 36 173 110 185 184 C188 202 189 207 190 211 L441 211 L451 274 L184 274 C181 289 176 307 170 328 C158 361 146 396 152 432 C169 532 260 573 345 573 C407 573 453 556 493 506 L549 552 C512 618 434 642 357 642 C273 642 189 616 133 548 C104 511 87 470 81 430 C73 384 86 346 98 309 C103 293 107 281 109 274 L55 274 L45 211 L119 211 C119 199 117 189 116 181 C105 114 68 41 4 -37 L-6 -100 L470 -100 L481 -37 L79 -37 L79 -37 Z " />
<glyph glyph-name="yen" unicode="&#xa5;" horiz-adv-x="603" d="M269 287 L261 307 L285 307 L269 287 L269 287 Z M612 631 L528 631 L317 370 L246 370 L124 631 L38 631 L165 370 L103 370 L83 370 L80 349 L73 307 L197 307 L225 247 L218 204 L55 204 L52 183 L45 141 L45 141 L208 141 L167 -100 L237 -100 L278 141 L420 141 C420 141 420 141 421 141 L440 141 L443 161 L450 203 L450 204 L288 204 L296 249 L345 307 L448 307 L468 307 L471 327 L478 370 L396 370 L612 631 L612 631 Z " />
<glyph glyph-name="dieresis" unicode="&#xa8;" horiz-adv-x="210" d="M71 606 L8 606 L-2 539 L59 539 L71 606 L71 606 Z M213 606 L151 606 L139 539 L201 539 L213 606 L213 606 Z " />
<glyph glyph-name="acute" unicode="&#xb4;" horiz-adv-x="219" d="M132 629 L9 509 L75 509 L212 629 L132 629 L132 629 Z " />
<glyph glyph-name="cedilla" unicode="&#xb8;" horiz-adv-x="245" d="M203 -162 C191 -151 174 -145 150 -145 L99 -145 L112 -102 L79 -100 L62 -155 C59 -165 60 -173 64 -180 C69 -187 77 -190 89 -190 L146 -190 C153 -190 159 -192 163 -197 C166 -201 168 -206 167 -212 C164 -230 150 -239 125 -239 L75 -239 L53 -239 L30 -239 L22 -285 L67 -285 L111 -285 C138 -285 161 -279 181 -266 C200 -253 211 -235 214 -211 C218 -190 214 -174 203 -162 L203 -162 Z " />
<glyph glyph-name="Agrave" unicode="&#xc0;" horiz-adv-x="614" d="M475 -100 L431 122 L129 122 L8 -100 L-64 -100 L332 629 L406 629 L552 -100 L475 -100 L475 -100 Z M162 184 L419 184 L352 535 L162 184 L162 184 Z M357 829 L277 829 L371 709 L436 709 L357 829 L357 829 Z " />
<glyph glyph-name="Aacute" unicode="&#xc1;" horiz-adv-x="614" d="M475 -100 L552 -100 L406 629 L332 629 L-64 -100 L8 -100 L129 122 L431 122 L475 -100 Z M162 184 L352 535 L419 184 L162 184 Z M409 829 L286 709 L352 709 L489 829 L409 829 Z " />
<glyph glyph-name="Acircumflex" unicode="&#xc2;" horiz-adv-x="614" d="M475 -100 L431 122 L129 122 L8 -100 L-64 -100 L332 629 L406 629 L552 -100 L475 -100 L475 -100 Z M162 184 L419 184 L352 535 L162 184 L162 184 Z M437 830 C428 843 411 849 389 849 C369 849 350 843 334 830 L214 729 L286 729 L381 809 C429 750 430 750 447 729 L519 729 L437 830 Z " />
<glyph glyph-name="Atilde" unicode="&#xc3;" horiz-adv-x="614" d="M475 -100 L552 -100 L406 629 L332 629 L-64 -100 L8 -100 L129 122 L431 122 L475 -100 Z M162 184 L352 535 L419 184 L162 184 Z M464 662 C532 662 583 712 615 814 L568 825 C568 825 565 817 560 803 C550 773 539 752 525 739 C501 717 465 713 445 734 C428 754 413 778 393 807 C385 820 373 831 359 839 C322 865 263 857 222 813 C196 786 177 748 163 700 L197 694 C201 694 212 692 212 692 C212 692 217 704 219 710 C230 742 242 763 254 777 C299 816 342 787 363 748 C379 724 394 696 422 676 C434 667 448 662 464 662 L464 662 Z " />
<glyph glyph-name="Adieresis" unicode="&#xc4;" horiz-adv-x="614" d="M475 -100 L431 122 L129 122 L8 -100 L-64 -100 L332 629 L406 629 L552 -100 L475 -100 L475 -100 Z M162 184 L419 184 L352 535 L162 184 L162 184 Z M354 806 L291 806 L281 739 L342 739 L354 806 L354 806 Z M496 806 L434 806 L422 739 L484 739 L496 806 L496 806 Z " />
<glyph glyph-name="Aring" unicode="&#xc5;" horiz-adv-x="614" d="M475 -100 L552 -100 L406 629 L332 629 L-64 -100 L8 -100 L129 122 L431 122 L475 -100 Z M162 184 L352 535 L419 184 L162 184 Z M442 714 C458 728 468 745 471 766 C475 787 471 805 459 819 C448 833 431 840 410 840 C389 840 369 832 352 818 C336 804 326 787 322 766 C319 746 323 728 335 715 C347 701 364 694 385 694 C406 694 425 700 442 714 L442 714 Z M391 729 C381 729 373 733 367 739 C361 747 359 756 360 766 C362 777 368 786 376 793 C384 800 394 804 404 804 C414 804 422 800 427 793 C433 786 434 777 432 766 C431 756 426 747 418 739 C411 733 401 729 391 729 L391 729 Z " />
<glyph glyph-name="AE" unicode="&#xc6;" horiz-adv-x="768" d="M433 569 L808 569 L818 631 L336 631 L-57 -100 L15 -100 L136 124 L288 124 L250 -100 L695 -100 L706 -38 L331 -38 L378 244 L745 244 L756 307 L389 307 L433 569 L433 569 Z M298 185 L168 185 L357 536 L357 536 L298 185 L298 185 Z " />
<glyph glyph-name="Ccedilla" unicode="&#xc7;" horiz-adv-x="833" d="M367 -109 C452 -109 526 -87 591 -41 C655 4 704 67 736 148 L689 160 C683 162 669 166 669 166 C669 166 664 151 661 145 C636 85 598 38 549 4 C500 -31 443 -48 377 -48 C336 -48 300 -41 270 -27 C240 -14 217 3 202 24 C186 45 174 70 167 99 C159 128 155 156 155 183 C155 210 157 237 162 266 C177 362 213 439 268 495 C323 552 393 580 480 580 C542 580 592 564 629 533 C665 502 689 458 699 403 C700 398 703 385 703 385 C703 385 716 388 721 390 L773 403 C764 478 735 537 687 579 C638 621 573 642 491 642 C385 642 296 608 225 541 C155 473 109 381 91 266 C78 190 80 125 97 69 C114 13 144 -31 191 -62 C237 -94 296 -109 367 -109 L367 -109 Z M490 -162 C478 -151 461 -145 437 -145 L386 -145 L399 -102 L366 -100 L349 -155 C346 -165 347 -173 351 -180 C356 -187 364 -190 376 -190 L433 -190 C440 -190 446 -192 450 -197 C453 -201 455 -206 454 -212 C451 -230 437 -239 412 -239 L362 -239 L340 -239 L317 -239 L309 -285 L354 -285 L398 -285 C425 -285 448 -279 468 -266 C487 -253 498 -235 501 -211 C505 -190 501 -174 490 -162 L490 -162 Z " />
<glyph glyph-name="Egrave" unicode="&#xc8;" horiz-adv-x="539" d="M556 568 L180 568 L136 306 L504 306 L493 244 L125 244 L77 -39 L453 -39 L442 -100 L-2 -100 L122 630 L567 630 L556 568 L556 568 Z M356 831 L276 831 L370 711 L435 711 L356 831 L356 831 Z " />
<glyph glyph-name="Eacute" unicode="&#xc9;" horiz-adv-x="539" d="M556 568 L567 630 L122 630 L-2 -100 L442 -100 L453 -39 L77 -39 L125 244 L493 244 L504 306 L136 306 L180 568 L556 568 Z M402 829 L279 709 L345 709 L482 829 L402 829 Z " />
<glyph glyph-name="Ecircumflex" unicode="&#xca;" horiz-adv-x="539" d="M556 568 L180 568 L136 306 L504 306 L493 244 L125 244 L77 -39 L453 -39 L442 -100 L-2 -100 L122 630 L567 630 L556 568 L556 568 Z M447 820 C438 833 421 839 399 839 C379 839 360 833 344 820 L224 719 L296 719 L391 799 C439 740 440 740 457 719 L529 719 L447 820 Z " />
<glyph glyph-name="Edieresis" unicode="&#xcb;" horiz-adv-x="539" d="M556 568 L180 568 L136 306 L504 306 L493 244 L125 244 L77 -39 L453 -39 L442 -100 L-2 -100 L122 630 L567 630 L556 568 L556 568 Z M354 804 L291 804 L281 737 L342 737 L354 804 L354 804 Z M496 804 L434 804 L422 737 L484 737 L496 804 L496 804 Z " />
<glyph glyph-name="Igrave" unicode="&#xcc;" horiz-adv-x="223" d="M-15 -100 L109 629 L179 629 L54 -100 L-15 -100 L-15 -100 Z M138 829 L58 829 L152 709 L217 709 L138 829 L138 829 Z " />
<glyph glyph-name="Iacute" unicode="&#xcd;" horiz-adv-x="239" d="M-15 -100 L54 -100 L179 629 L109 629 L-15 -100 Z M178 829 L55 709 L121 709 L258 829 L178 829 Z " />
<glyph glyph-name="Icircumflex" unicode="&#xce;" horiz-adv-x="302" d="M15 -100 L139 629 L209 629 L84 -100 L15 -100 L15 -100 Z M257 826 C248 839 231 845 209 845 C189 845 170 839 154 826 L34 725 L106 725 L201 805 C249 746 250 746 267 725 L339 725 L257 826 Z " />
<glyph glyph-name="Idieresis" unicode="&#xcf;" horiz-adv-x="253" d="M-25 -100 L99 629 L169 629 L44 -100 L-25 -100 L-25 -100 Z M119 810 L56 810 L46 743 L107 743 L119 810 L119 810 Z M261 810 L199 810 L187 743 L249 743 L261 810 L261 810 Z " />
<glyph glyph-name="Eth" unicode="&#xd0;" horiz-adv-x="755" d="M666 532 C617 596 541 629 434 629 L175 629 L115 294 L33 294 L21 233 L103 233 L43 -100 L302 -100 C409 -100 498 -67 569 -3 C640 62 684 149 706 264 C726 378 713 467 666 532 L666 532 Z M528 43 C472 -11 402 -38 314 -38 L125 -38 L173 233 L356 233 L368 294 L185 294 L233 567 L422 567 C509 567 571 540 607 487 C644 434 652 359 636 264 C618 169 582 96 528 43 L528 43 Z " />
<glyph glyph-name="Ntilde" unicode="&#xd1;" horiz-adv-x="601" d="M580 629 L480 66 C477 47 470 6 470 6 L173 629 L96 629 L-32 -100 L37 -100 L137 462 C140 482 147 522 147 522 L443 -100 L521 -100 L650 629 L580 629 Z M473 660 C541 660 592 710 624 812 L577 823 C577 823 574 815 569 801 C559 771 548 750 534 737 C510 715 474 711 454 732 C437 752 422 776 402 805 C394 818 382 829 368 837 C331 863 272 855 231 811 C205 784 186 746 172 698 L206 692 C210 692 221 690 221 690 C221 690 226 702 228 708 C239 740 251 761 263 775 C308 814 351 785 372 746 C388 722 403 694 431 674 C443 665 457 660 473 660 L473 660 Z " />
<glyph glyph-name="Ograve" unicode="&#xd2;" horiz-adv-x="774" d="M322 -109 C215 -109 137 -75 89 -7 C42 61 27 152 47 267 C66 383 111 474 182 542 C253 610 342 643 449 643 C555 643 632 610 681 542 C728 475 742 383 723 267 C703 151 659 59 587 -8 C517 -75 428 -109 322 -109 L322 -109 Z M333 -48 C420 -48 490 -19 546 37 C601 94 636 170 653 267 C669 364 660 441 623 497 C587 553 525 581 438 581 C351 581 281 553 225 496 C170 440 134 363 118 267 C102 176 111 89 157 25 C195 -27 267 -48 333 -48 L333 -48 Z M469 829 L389 829 L483 709 L548 709 L469 829 L469 829 Z " />
<glyph glyph-name="Oacute" unicode="&#xd3;" horiz-adv-x="774" d="M322 -109 C428 -109 517 -75 587 -8 C659 59 703 151 723 267 C742 383 728 475 681 542 C632 610 555 643 449 643 C342 643 253 610 182 542 C111 474 66 383 47 267 C27 152 42 61 89 -7 C137 -75 215 -109 322 -109 L322 -109 Z M333 -48 C267 -48 195 -27 157 25 C111 89 102 176 118 267 C134 363 170 440 225 496 C281 553 351 581 438 581 C525 581 587 553 623 497 C660 441 669 364 653 267 C636 170 601 94 546 37 C490 -19 420 -48 333 -48 L333 -48 Z M515 829 L392 709 L458 709 L595 829 L515 829 Z " />
<glyph glyph-name="Ocircumflex" unicode="&#xd4;" horiz-adv-x="774" d="M322 -109 C215 -109 137 -75 89 -7 C42 61 27 152 47 267 C66 383 111 474 182 542 C253 610 342 643 449 643 C555 643 632 610 681 542 C728 475 742 383 723 267 C703 151 659 59 587 -8 C517 -75 428 -109 322 -109 L322 -109 Z M333 -48 C420 -48 490 -19 546 37 C601 94 636 170 653 267 C669 364 660 441 623 497 C587 553 525 581 438 581 C351 581 281 553 225 496 C170 440 134 363 118 267 C102 176 111 89 157 25 C195 -27 267 -48 333 -48 L333 -48 Z M557 826 C548 839 531 845 509 845 C489 845 470 839 454 826 L334 725 L406 725 L501 805 C549 746 550 746 567 725 L639 725 L557 826 Z " />
<glyph glyph-name="Otilde" unicode="&#xd5;" horiz-adv-x="774" d="M322 -109 C428 -109 517 -75 587 -8 C659 59 703 151 723 267 C742 383 728 475 681 542 C632 610 555 643 449 643 C342 643 253 610 182 542 C111 474 66 383 47 267 C27 152 42 61 89 -7 C137 -75 215 -109 322 -109 L322 -109 Z M333 -48 C267 -48 195 -27 157 25 C111 89 102 176 118 267 C134 363 170 440 225 496 C281 553 351 581 438 581 C525 581 587 553 623 497 C660 441 669 364 653 267 C636 170 601 94 546 37 C490 -19 420 -48 333 -48 L333 -48 Z M585 662 C653 662 704 712 736 814 L689 825 C689 825 686 817 681 803 C671 773 660 752 646 739 C622 717 586 713 566 734 C549 754 534 778 514 807 C506 820 494 831 480 839 C443 865 384 857 343 813 C317 786 298 748 284 700 L318 694 C322 694 333 692 333 692 C333 692 338 704 340 710 C351 742 363 763 375 777 C420 816 463 787 484 748 C500 724 515 696 543 676 C555 667 569 662 585 662 L585 662 Z " />
<glyph glyph-name="Odieresis" unicode="&#xd6;" horiz-adv-x="774" d="M322 -109 C215 -109 137 -75 89 -7 C42 61 27 152 47 267 C66 383 111 474 182 542 C253 610 342 643 449 643 C555 643 632 610 681 542 C728 475 742 383 723 267 C703 151 659 59 587 -8 C517 -75 428 -109 322 -109 L322 -109 Z M333 -48 C420 -48 490 -19 546 37 C601 94 636 170 653 267 C669 364 660 441 623 497 C587 553 525 581 438 581 C351 581 281 553 225 496 C170 440 134 363 118 267 C102 176 111 89 157 25 C195 -27 267 -48 333 -48 L333 -48 Z M476 806 L413 806 L403 739 L464 739 L476 806 L476 806 Z M618 806 L556 806 L544 739 L606 739 L618 806 L618 806 Z " />
<glyph glyph-name="multiply" unicode="&#xd7;" horiz-adv-x="233" d="M218 358 L138 358 L126 346 L118 358 L38 358 L81 303 L17 239 L82 239 L112 264 L131 239 L197 239 L154 303 L218 358 L218 358 Z " />
<glyph glyph-name="Oslash" unicode="&#xd8;" horiz-adv-x="774" d="M668 542 C651 566 631 585 606 600 L663 693 L600 693 L558 624 C522 637 481 643 435 643 C328 643 240 609 170 542 C99 474 54 382 36 267 C17 152 32 61 80 -7 C97 -31 118 -50 142 -66 L92 -147 L154 -147 L189 -90 C225 -103 267 -109 314 -109 C420 -109 508 -76 579 -9 C649 59 694 151 713 267 C731 383 717 474 668 542 L668 542 Z M148 25 C133 46 121 71 112 99 C105 128 101 156 100 183 C100 210 103 238 108 267 C123 363 158 440 213 496 C268 553 338 581 425 581 C462 581 495 576 523 566 L178 -5 C166 4 157 14 148 25 L148 25 Z M537 37 C482 -20 410 -48 323 -48 C285 -48 253 -42 224 -31 L570 541 C586 529 600 514 611 497 C648 441 658 364 643 267 C627 170 592 94 537 37 L537 37 Z " />
<glyph glyph-name="Ugrave" unicode="&#xd9;" horiz-adv-x="615" d="M236 -109 C204 -109 173 -106 148 -100 C123 -94 101 -83 80 -69 C60 -54 45 -35 33 -12 C22 11 16 39 13 74 C11 108 14 148 23 193 L105 630 L174 630 L93 193 C78 114 83 54 107 14 C131 -27 178 -48 247 -48 C317 -48 371 -27 411 13 C451 54 478 114 493 193 L575 630 L645 630 L563 193 C552 137 537 90 517 50 C496 10 471 -21 442 -44 C414 -67 383 -83 349 -94 C315 -104 278 -109 236 -109 L236 -109 Z M394 829 L314 829 L408 709 L473 709 L394 829 L394 829 Z " />
<glyph glyph-name="Uacute" unicode="&#xda;" horiz-adv-x="615" d="M236 -109 C278 -109 315 -104 349 -94 C383 -83 414 -67 442 -44 C471 -21 496 10 517 50 C537 90 552 137 563 193 L645 630 L575 630 L493 193 C478 114 451 54 411 13 C371 -27 317 -48 247 -48 C178 -48 131 -27 107 14 C83 54 78 114 93 193 L174 630 L105 630 L23 193 C14 148 11 108 13 74 C16 39 22 11 33 -12 C45 -35 60 -54 80 -69 C101 -83 123 -94 148 -100 C173 -106 204 -109 236 -109 L236 -109 Z M428 826 L305 706 L371 706 L508 826 L428 826 Z " />
<glyph glyph-name="Ucircumflex" unicode="&#xdb;" horiz-adv-x="615" d="M236 -109 C204 -109 173 -106 148 -100 C123 -94 101 -83 80 -69 C60 -54 45 -35 33 -12 C22 11 16 39 13 74 C11 108 14 148 23 193 L105 630 L174 630 L93 193 C78 114 83 54 107 14 C131 -27 178 -48 247 -48 C317 -48 371 -27 411 13 C451 54 478 114 493 193 L575 630 L645 630 L563 193 C552 137 537 90 517 50 C496 10 471 -21 442 -44 C414 -67 383 -83 349 -94 C315 -104 278 -109 236 -109 L236 -109 Z M452 822 C443 835 426 841 404 841 C384 841 365 835 349 822 L229 721 L301 721 L396 801 C444 742 445 742 462 721 L534 721 L452 822 Z " />
<glyph glyph-name="Udieresis" unicode="&#xdc;" horiz-adv-x="615" d="M236 -109 C204 -109 173 -106 148 -100 C123 -94 101 -83 80 -69 C60 -54 45 -35 33 -12 C22 11 16 39 13 74 C11 108 14 148 23 193 L105 630 L174 630 L93 193 C78 114 83 54 107 14 C131 -27 178 -48 247 -48 C317 -48 371 -27 411 13 C451 54 478 114 493 193 L575 630 L645 630 L563 193 C552 137 537 90 517 50 C496 10 471 -21 442 -44 C414 -67 383 -83 349 -94 C315 -104 278 -109 236 -109 L236 -109 Z M381 806 L318 806 L308 739 L369 739 L381 806 L381 806 Z M523 806 L461 806 L449 739 L511 739 L523 806 L523 806 Z " />
<glyph glyph-name="Yacute" unicode="&#xdd;" horiz-adv-x="579" d="M642 630 L559 630 L301 315 L155 630 L69 630 L254 249 L193 -100 L264 -100 L325 249 L642 630 Z M398 827 L275 707 L341 707 L478 827 L398 827 Z " />
<glyph glyph-name="agrave" unicode="&#xe0;" horiz-adv-x="582" d="M586 448 L521 448 L507 367 C490 396 467 419 437 435 C408 451 372 459 331 459 C252 459 186 433 132 383 C79 332 45 262 30 173 C15 86 25 17 63 -33 C100 -84 158 -109 238 -109 C279 -109 316 -100 352 -81 C388 -62 419 -38 447 -6 L430 -100 L492 -100 L586 448 Z M472 162 C461 94 436 42 396 5 C357 -32 308 -50 248 -50 C188 -50 145 -30 118 10 C91 51 84 106 96 175 C107 245 133 300 173 340 C213 380 262 400 321 400 C381 400 425 382 453 345 C480 308 489 257 477 190 L472 162 L472 162 Z M349 629 L269 629 L363 509 L428 509 L349 629 L349 629 Z " />
<glyph glyph-name="aacute" unicode="&#xe1;" horiz-adv-x="582" d="M586 448 L521 448 L507 367 C490 396 467 419 437 435 C408 451 372 459 331 459 C252 459 186 433 132 383 C79 332 45 262 30 173 C15 86 25 17 63 -33 C100 -84 158 -109 238 -109 C279 -109 316 -100 352 -81 C388 -62 419 -38 447 -6 L430 -100 L492 -100 L586 448 Z M472 162 C461 94 436 42 396 5 C357 -32 308 -50 248 -50 C188 -50 145 -30 118 10 C91 51 84 106 96 175 C107 245 133 300 173 340 C213 380 262 400 321 400 C381 400 425 382 453 345 C480 308 489 257 477 190 L472 162 L472 162 Z M375 629 L252 509 L318 509 L455 629 L375 629 Z " />
<glyph glyph-name="acircumflex" unicode="&#xe2;" horiz-adv-x="582" d="M586 448 L521 448 L507 367 C490 396 467 419 437 435 C408 451 372 459 331 459 C252 459 186 433 132 383 C79 332 45 262 30 173 C15 86 25 17 63 -33 C100 -84 158 -109 238 -109 C279 -109 316 -100 352 -81 C388 -62 419 -38 447 -6 L430 -100 L492 -100 L586 448 Z M472 162 C461 94 436 42 396 5 C357 -32 308 -50 248 -50 C188 -50 145 -30 118 10 C91 51 84 106 96 175 C107 245 133 300 173 340 C213 380 262 400 321 400 C381 400 425 382 453 345 C480 308 489 257 477 190 L472 162 L472 162 Z M431 626 C422 639 405 645 383 645 C363 645 344 639 328 626 L208 525 L280 525 L375 605 C423 546 424 546 441 525 L513 525 L431 626 Z " />
<glyph glyph-name="atilde" unicode="&#xe3;" horiz-adv-x="582" d="M586 448 L521 448 L507 367 C490 396 467 419 437 435 C408 451 372 459 331 459 C252 459 186 433 132 383 C79 332 45 262 30 173 C15 86 25 17 63 -33 C100 -84 158 -109 238 -109 C279 -109 316 -100 352 -81 C388 -62 419 -38 447 -6 L430 -100 L492 -100 L586 448 Z M472 162 C461 94 436 42 396 5 C357 -32 308 -50 248 -50 C188 -50 145 -30 118 10 C91 51 84 106 96 175 C107 245 133 300 173 340 C213 380 262 400 321 400 C381 400 425 382 453 345 C480 308 489 257 477 190 L472 162 L472 162 Z M445 460 C513 460 564 510 596 612 L549 623 C549 623 546 615 541 601 C531 571 520 550 506 537 C482 515 446 511 426 532 C409 552 394 576 374 605 C366 618 354 629 340 637 C303 663 244 655 203 611 C177 584 158 546 144 498 L178 492 C182 492 193 490 193 490 C193 490 198 502 200 508 C211 540 223 561 235 575 C280 614 323 585 344 546 C360 522 375 494 403 474 C415 465 429 460 445 460 L445 460 Z " />
<glyph glyph-name="adieresis" unicode="&#xe4;" horiz-adv-x="582" d="M586 448 L521 448 L507 367 C490 396 467 419 437 435 C408 451 372 459 331 459 C252 459 186 433 132 383 C79 332 45 262 30 173 C15 86 25 17 63 -33 C100 -84 158 -109 238 -109 C279 -109 316 -100 352 -81 C388 -62 419 -38 447 -6 L430 -100 L492 -100 L586 448 Z M472 162 C461 94 436 42 396 5 C357 -32 308 -50 248 -50 C188 -50 145 -30 118 10 C91 51 84 106 96 175 C107 245 133 300 173 340 C213 380 262 400 321 400 C381 400 425 382 453 345 C480 308 489 257 477 190 L472 162 L472 162 Z M328 608 L265 608 L255 541 L316 541 L328 608 L328 608 Z M470 608 L408 608 L396 541 L458 541 L470 608 L470 608 Z " />
<glyph glyph-name="aring" unicode="&#xe5;" horiz-adv-x="582" d="M586 448 L521 448 L507 367 C490 396 467 419 437 435 C408 451 372 459 331 459 C252 459 186 433 132 383 C79 332 45 262 30 173 C15 86 25 17 63 -33 C100 -84 158 -109 238 -109 C279 -109 316 -100 352 -81 C388 -62 419 -38 447 -6 L430 -100 L492 -100 L586 448 Z M472 162 C461 94 436 42 396 5 C357 -32 308 -50 248 -50 C188 -50 145 -30 118 10 C91 51 84 106 96 175 C107 245 133 300 173 340 C213 380 262 400 321 400 C381 400 425 382 453 345 C480 308 489 257 477 190 L472 162 L472 162 Z M410 516 C426 530 436 547 439 568 C443 589 439 607 427 621 C416 635 399 642 378 642 C357 642 337 634 320 620 C304 606 294 589 290 568 C287 548 291 530 303 517 C315 503 332 496 353 496 C374 496 393 502 410 516 L410 516 Z M359 531 C349 531 341 535 335 541 C329 549 327 558 328 568 C330 579 336 588 344 595 C352 602 362 606 372 606 C382 606 390 602 395 595 C401 588 402 579 400 568 C399 558 394 549 386 541 C379 535 369 531 359 531 L359 531 Z " />
<glyph glyph-name="ae" unicode="&#xe6;" horiz-adv-x="1041" d="M1004 189 C1011 238 1008 282 996 321 C983 363 958 396 922 421 C886 446 840 459 785 459 C705 459 638 434 583 383 L593 446 L529 446 L516 366 C499 395 474 417 445 434 C415 450 379 458 339 458 C259 458 193 432 140 381 C87 330 53 261 38 172 C24 85 35 16 72 -34 C109 -85 168 -110 248 -110 C288 -110 326 -101 361 -82 C397 -64 429 -39 456 -7 L440 -100 L501 -100 L512 -36 C551 -86 610 -111 690 -111 C751 -111 804 -96 853 -66 C901 -35 940 8 967 63 L906 79 C906 79 903 73 897 63 C875 26 847 -2 814 -22 C780 -41 743 -51 700 -51 C642 -51 598 -33 569 4 C549 30 538 62 535 99 C534 116 535 134 537 153 L998 153 C1001 173 1001 173 1004 189 L1004 189 Z M405 4 C366 -33 317 -51 258 -51 C198 -51 154 -31 127 9 C100 50 92 104 104 174 C115 244 142 299 180 339 C220 379 269 399 329 399 C388 399 432 381 460 344 C481 317 491 282 490 239 C483 218 478 196 474 172 C470 149 468 128 467 107 C454 65 433 31 405 4 L405 4 Z M548 213 C551 225 555 237 560 248 C577 289 601 322 634 349 C673 382 721 399 775 399 C830 399 871 382 901 348 C929 314 942 269 940 213 L548 213 L548 213 Z " />
<glyph glyph-name="ccedilla" unicode="&#xe7;" horiz-adv-x="593" d="M248 -109 C311 -109 367 -92 415 -59 C464 -25 501 23 527 86 L466 102 C466 102 460 87 457 81 C437 40 410 8 376 -15 C342 -38 303 -49 258 -49 C198 -49 154 -29 127 11 C100 52 92 103 103 170 C115 240 141 295 181 336 C222 377 272 398 333 398 C374 398 408 388 434 367 C461 347 477 316 487 276 C489 265 490 258 490 258 L556 276 C548 334 527 379 491 410 C455 442 406 458 343 458 C263 458 196 432 141 381 C88 329 53 259 38 170 C24 85 36 20 72 -31 C108 -83 167 -109 248 -109 L248 -109 Z M370 -162 C358 -151 341 -145 317 -145 L266 -145 L279 -102 L246 -100 L229 -155 C226 -165 227 -173 231 -180 C236 -187 244 -190 256 -190 L313 -190 C320 -190 326 -192 330 -197 C333 -201 335 -206 334 -212 C331 -230 317 -239 292 -239 L242 -239 L220 -239 L197 -239 L189 -285 L234 -285 L278 -285 C305 -285 328 -279 348 -266 C367 -253 378 -235 381 -211 C385 -190 381 -174 370 -162 L370 -162 Z " />
<glyph glyph-name="egrave" unicode="&#xe8;" horiz-adv-x="573" d="M557 191 C564 240 562 284 549 323 C536 365 512 398 476 423 C439 448 394 461 339 461 C258 461 190 435 133 383 C77 330 42 261 27 174 C13 88 25 20 64 -32 C103 -83 163 -109 244 -109 C305 -109 359 -94 406 -64 C455 -33 493 10 520 65 L460 81 C460 81 457 75 451 65 C429 28 401 0 368 -20 C334 -39 296 -49 254 -49 C196 -49 152 -31 123 6 C94 44 83 93 90 155 L551 155 C554 175 554 175 557 191 L557 191 Z M101 215 C119 272 147 317 188 351 C227 384 275 401 329 401 C383 401 425 384 455 350 C483 316 496 271 494 215 L101 215 L101 215 Z M338 629 L258 629 L352 509 L417 509 L338 629 L338 629 Z " />
<glyph glyph-name="eacute" unicode="&#xe9;" horiz-adv-x="573" d="M557 191 C564 240 562 284 549 323 C536 365 512 398 476 423 C439 448 394 461 339 461 C258 461 190 435 133 383 C77 330 42 261 27 174 C13 88 25 20 64 -32 C103 -83 163 -109 244 -109 C305 -109 359 -94 406 -64 C455 -33 493 10 520 65 L460 81 C460 81 457 75 451 65 C429 28 401 0 368 -20 C334 -39 296 -49 254 -49 C196 -49 152 -31 123 6 C94 44 83 93 90 155 L551 155 C554 175 554 175 557 191 L557 191 Z M101 215 C119 272 147 317 188 351 C227 384 275 401 329 401 C383 401 425 384 455 350 C483 316 496 271 494 215 L101 215 L101 215 Z M391 629 L268 509 L334 509 L471 629 L391 629 Z " />
<glyph glyph-name="ecircumflex" unicode="&#xea;" horiz-adv-x="573" d="M557 191 C564 240 562 284 549 323 C536 365 512 398 476 423 C439 448 394 461 339 461 C258 461 190 435 133 383 C77 330 42 261 27 174 C13 88 25 20 64 -32 C103 -83 163 -109 244 -109 C305 -109 359 -94 406 -64 C455 -33 493 10 520 65 L460 81 C460 81 457 75 451 65 C429 28 401 0 368 -20 C334 -39 296 -49 254 -49 C196 -49 152 -31 123 6 C94 44 83 93 90 155 L551 155 C554 175 554 175 557 191 L557 191 Z M101 215 C119 272 147 317 188 351 C227 384 275 401 329 401 C383 401 425 384 455 350 C483 316 496 271 494 215 L101 215 L101 215 Z M433 626 C424 639 407 645 385 645 C365 645 346 639 330 626 L210 525 L282 525 L377 605 C425 546 426 546 443 525 L515 525 L433 626 Z " />
<glyph glyph-name="edieresis" unicode="&#xeb;" horiz-adv-x="573" d="M557 191 C564 240 562 284 549 323 C536 365 512 398 476 423 C439 448 394 461 339 461 C258 461 190 435 133 383 C77 330 42 261 27 174 C13 88 25 20 64 -32 C103 -83 163 -109 244 -109 C305 -109 359 -94 406 -64 C455 -33 493 10 520 65 L460 81 C460 81 457 75 451 65 C429 28 401 0 368 -20 C334 -39 296 -49 254 -49 C196 -49 152 -31 123 6 C94 44 83 93 90 155 L551 155 C554 175 554 175 557 191 L557 191 Z M101 215 C119 272 147 317 188 351 C227 384 275 401 329 401 C383 401 425 384 455 350 C483 316 496 271 494 215 L101 215 L101 215 Z M336 608 L273 608 L263 541 L324 541 L336 608 L336 608 Z M478 608 L416 608 L404 541 L466 541 L478 608 L478 608 Z " />
<glyph glyph-name="igrave" unicode="&#xec;" horiz-adv-x="159" d="M-20 -100 L74 448 L140 448 L45 -100 L-20 -100 Z M106 629 L26 629 L120 509 L185 509 L106 629 L106 629 Z " />
<glyph glyph-name="iacute" unicode="&#xed;" horiz-adv-x="192" d="M46 -100 L139 448 L73 448 L-19 -100 L46 -100 Z M132 629 L9 509 L75 509 L212 629 L132 629 Z " />
<glyph glyph-name="icircumflex" unicode="&#xee;" horiz-adv-x="211" d="M-20 -100 L74 448 L140 448 L45 -100 L-20 -100 Z M183 624 C174 637 157 643 135 643 C115 643 96 637 80 624 L-40 523 L32 523 L127 603 C175 544 176 544 193 523 L265 523 L183 624 Z " />
<glyph glyph-name="idieresis" unicode="&#xef;" horiz-adv-x="186" d="M-20 -100 L74 448 L140 448 L45 -100 L-20 -100 Z M89 606 L26 606 L16 539 L77 539 L89 606 L89 606 Z M231 606 L169 606 L157 539 L219 539 L231 606 L231 606 Z " />
<glyph glyph-name="eth" unicode="&#xf0;" horiz-adv-x="592" d="M449 606 L369 606 L357 594 L349 606 L269 606 L312 551 L248 487 L313 487 L343 512 L362 487 L428 487 L385 551 L449 606 Z M240 -109 C161 -109 102 -83 65 -32 C28 19 17 85 31 173 C46 261 81 330 134 381 C189 432 256 458 335 458 C415 458 474 432 511 381 C548 330 559 260 544 173 C530 85 495 19 442 -32 C387 -83 320 -109 240 -109 L240 -109 Z M250 -49 C310 -49 360 -29 401 11 C441 52 467 103 478 173 C490 242 482 297 456 338 C429 378 385 398 325 398 C266 398 216 378 175 338 C134 297 108 242 96 173 C85 103 93 52 120 11 C147 -29 191 -49 250 -49 L250 -49 Z " />
<glyph glyph-name="ntilde" unicode="&#xf1;" horiz-adv-x="497" d="M474 398 C449 438 400 458 329 458 C253 458 191 426 144 363 L158 448 L95 448 L2 -100 L68 -100 L124 231 C134 286 155 328 188 357 C221 385 264 399 319 399 C371 399 405 385 421 355 C437 326 439 281 429 220 L374 -100 L439 -100 L494 220 C507 299 500 358 474 398 L474 398 Z M425 470 C493 470 544 520 576 622 L529 633 C529 633 526 625 521 611 C511 581 500 560 486 547 C462 525 426 521 406 542 C389 562 374 586 354 615 C346 628 334 639 320 647 C283 673 224 665 183 621 C157 594 138 556 124 508 L158 502 C162 502 173 500 173 500 C173 500 178 512 180 518 C191 550 203 571 215 585 C260 624 303 595 324 556 C340 532 355 504 383 484 C395 475 409 470 425 470 L425 470 Z " />
<glyph glyph-name="ograve" unicode="&#xf2;" horiz-adv-x="573" d="M240 -109 C161 -109 102 -83 65 -32 C28 19 17 85 31 173 C46 261 81 330 134 381 C189 432 256 458 335 458 C415 458 474 432 511 381 C548 330 559 260 544 173 C530 85 495 19 442 -32 C387 -83 320 -109 240 -109 L240 -109 Z M250 -49 C310 -49 360 -29 401 11 C441 52 467 103 478 173 C490 242 482 297 456 338 C429 378 385 398 325 398 C266 398 216 378 175 338 C134 297 108 242 96 173 C85 103 93 52 120 11 C147 -29 191 -49 250 -49 L250 -49 Z M293 629 L213 629 L307 509 L372 509 L293 629 L293 629 Z " />
<glyph glyph-name="oacute" unicode="&#xf3;" horiz-adv-x="573" d="M240 -109 C320 -109 387 -83 442 -32 C495 19 530 85 544 173 C559 260 548 330 511 381 C474 432 415 458 335 458 C256 458 189 432 134 381 C81 330 46 261 31 173 C17 85 28 19 65 -32 C102 -83 161 -109 240 -109 L240 -109 Z M250 -49 C191 -49 147 -29 120 11 C93 52 85 103 96 173 C108 242 134 297 175 338 C216 378 266 398 325 398 C385 398 429 378 456 338 C482 297 490 242 478 173 C467 103 441 52 401 11 C360 -29 310 -49 250 -49 L250 -49 Z M401 629 L278 509 L344 509 L481 629 L401 629 Z " />
<glyph glyph-name="ocircumflex" unicode="&#xf4;" horiz-adv-x="573" d="M240 -109 C161 -109 102 -83 65 -32 C28 19 17 85 31 173 C46 261 81 330 134 381 C189 432 256 458 335 458 C415 458 474 432 511 381 C548 330 559 260 544 173 C530 85 495 19 442 -32 C387 -83 320 -109 240 -109 L240 -109 Z M250 -49 C310 -49 360 -29 401 11 C441 52 467 103 478 173 C490 242 482 297 456 338 C429 378 385 398 325 398 C266 398 216 378 175 338 C134 297 108 242 96 173 C85 103 93 52 120 11 C147 -29 191 -49 250 -49 L250 -49 Z M431 622 C422 635 405 641 383 641 C363 641 344 635 328 622 L208 521 L280 521 L375 601 C423 542 424 542 441 521 L513 521 L431 622 Z " />
<glyph glyph-name="otilde" unicode="&#xf5;" horiz-adv-x="573" d="M240 -109 C320 -109 387 -83 442 -32 C495 19 530 85 544 173 C559 260 548 330 511 381 C474 432 415 458 335 458 C256 458 189 432 134 381 C81 330 46 261 31 173 C17 85 28 19 65 -32 C102 -83 161 -109 240 -109 L240 -109 Z M250 -49 C191 -49 147 -29 120 11 C93 52 85 103 96 173 C108 242 134 297 175 338 C216 378 266 398 325 398 C385 398 429 378 456 338 C482 297 490 242 478 173 C467 103 441 52 401 11 C360 -29 310 -49 250 -49 L250 -49 Z M448 458 C516 458 567 508 599 610 L552 621 C552 621 549 613 544 599 C534 569 523 548 509 535 C485 513 449 509 429 530 C412 550 397 574 377 603 C369 616 357 627 343 635 C306 661 247 653 206 609 C180 582 161 544 147 496 L181 490 C185 490 196 488 196 488 C196 488 201 500 203 506 C214 538 226 559 238 573 C283 612 326 583 347 544 C363 520 378 492 406 472 C418 463 432 458 448 458 L448 458 Z " />
<glyph glyph-name="odieresis" unicode="&#xf6;" horiz-adv-x="573" d="M240 -109 C161 -109 102 -83 65 -32 C28 19 17 85 31 173 C46 261 81 330 134 381 C189 432 256 458 335 458 C415 458 474 432 511 381 C548 330 559 260 544 173 C530 85 495 19 442 -32 C387 -83 320 -109 240 -109 L240 -109 Z M250 -49 C310 -49 360 -29 401 11 C441 52 467 103 478 173 C490 242 482 297 456 338 C429 378 385 398 325 398 C266 398 216 378 175 338 C134 297 108 242 96 173 C85 103 93 52 120 11 C147 -29 191 -49 250 -49 L250 -49 Z M355 608 L292 608 L282 541 L343 541 L355 608 L355 608 Z M497 608 L435 608 L423 541 L485 541 L497 608 L497 608 Z " />
<glyph glyph-name="oslash" unicode="&#xf8;" horiz-adv-x="573" d="M511 384 C499 400 486 413 471 424 L516 498 L453 498 L423 448 C397 456 368 461 336 461 C256 461 189 435 135 384 C80 333 45 264 30 176 C15 88 26 18 63 -33 C75 -48 88 -61 103 -72 L53 -154 L115 -154 L151 -96 C176 -105 205 -109 238 -109 C318 -109 385 -83 439 -33 C493 18 528 88 543 176 C558 263 547 333 511 384 L511 384 Z M118 11 C91 51 84 107 96 176 C108 245 133 300 174 340 C215 381 266 401 326 401 C349 401 370 398 388 392 L139 -13 C131 -6 124 2 118 11 L118 11 Z M399 11 C358 -29 309 -49 249 -49 C225 -49 203 -46 184 -40 L435 365 C442 358 449 350 455 340 C482 300 490 245 478 176 C466 107 440 51 399 11 L399 11 Z " />
<glyph glyph-name="ugrave" unicode="&#xf9;" horiz-adv-x="504" d="M462 449 L404 118 C395 63 374 21 341 -8 C308 -36 264 -50 209 -50 C157 -50 124 -36 108 -7 C92 23 90 68 100 129 L156 449 L91 449 L35 129 C22 50 28 -9 53 -49 C79 -89 128 -109 199 -109 C275 -109 338 -77 385 -13 L370 -100 L433 -100 L528 449 L462 449 L462 449 Z M322 629 L242 629 L336 509 L401 509 L322 629 L322 629 Z " />
<glyph glyph-name="uacute" unicode="&#xfa;" horiz-adv-x="504" d="M462 449 L404 118 C395 63 374 21 341 -8 C308 -36 264 -50 209 -50 C157 -50 124 -36 108 -7 C92 23 90 68 100 129 L156 449 L91 449 L35 129 C22 50 28 -9 53 -49 C79 -89 128 -109 199 -109 C275 -109 338 -77 385 -13 L370 -100 L433 -100 L528 449 L462 449 L462 449 Z M353 629 L230 509 L296 509 L433 629 L353 629 Z " />
<glyph glyph-name="ucircumflex" unicode="&#xfb;" horiz-adv-x="504" d="M462 449 L404 118 C395 63 374 21 341 -8 C308 -36 264 -50 209 -50 C157 -50 124 -36 108 -7 C92 23 90 68 100 129 L156 449 L91 449 L35 129 C22 50 28 -9 53 -49 C79 -89 128 -109 199 -109 C275 -109 338 -77 385 -13 L370 -100 L433 -100 L528 449 L462 449 L462 449 Z M394 622 C385 635 368 641 346 641 C326 641 307 635 291 622 L171 521 L243 521 L338 601 C386 542 387 542 404 521 L476 521 L394 622 Z " />
<glyph glyph-name="udieresis" unicode="&#xfc;" horiz-adv-x="504" d="M462 449 L404 118 C395 63 374 21 341 -8 C308 -36 264 -50 209 -50 C157 -50 124 -36 108 -7 C92 23 90 68 100 129 L156 449 L91 449 L35 129 C22 50 28 -9 53 -49 C79 -89 128 -109 199 -109 C275 -109 338 -77 385 -13 L370 -100 L433 -100 L528 449 L462 449 L462 449 Z M302 608 L239 608 L229 541 L290 541 L302 608 L302 608 Z M444 608 L382 608 L370 541 L432 541 L444 608 L444 608 Z " />
<glyph glyph-name="yacute" unicode="&#xfd;" horiz-adv-x="527" d="M469 448 L224 -8 L132 448 L61 448 L174 -99 L139 -165 C122 -192 99 -220 68 -220 L23 -220 L12 -282 L54 -282 C81 -282 106 -274 132 -257 C157 -241 177 -218 193 -190 L242 -100 L541 448 L469 448 L469 448 Z M342 629 L219 509 L285 509 L422 629 L342 629 Z " />
<glyph glyph-name="ydieresis" unicode="&#xff;" horiz-adv-x="511" d="M469 448 L224 -8 L132 448 L61 448 L174 -99 L139 -165 C122 -192 99 -220 68 -220 L23 -220 L12 -282 L54 -282 C81 -282 106 -274 132 -257 C157 -241 177 -218 193 -190 L242 -100 L541 448 L469 448 L469 448 Z M296 606 L233 606 L223 539 L284 539 L296 606 L296 606 Z M438 606 L376 606 L364 539 L426 539 L438 606 L438 606 Z " />
<glyph glyph-name="Lslash" unicode="&#x141;" horiz-adv-x="535" d="M147 -39 L194 238 L353 322 L332 375 L206 308 L260 630 L190 630 L129 269 L14 208 C14 208 34 158 35 155 L117 198 L67 -100 L512 -100 L522 -39 L147 -39 L147 -39 Z " />
<glyph glyph-name="lslash" unicode="&#x142;" horiz-adv-x="366" d="M211 -40 C190 -40 175 -33 165 -20 C157 -7 154 12 158 35 L192 245 L340 323 L318 376 L204 316 L256 630 L190 630 L132 278 L0 209 C0 209 21 159 22 156 L120 208 L92 35 C85 -7 91 -40 110 -64 C130 -88 160 -100 201 -100 L270 -100 L280 -40 L211 -40 Z " />
<glyph glyph-name="OE" unicode="&#x152;" horiz-adv-x="1108" d="M742 568 L1117 568 L1128 630 L683 630 L676 590 C630 624 569 641 493 641 C386 641 297 607 225 540 C155 472 109 380 89 265 C68 150 83 59 130 -9 C177 -77 255 -111 362 -111 C438 -111 505 -94 563 -60 L556 -100 L1001 -100 L1012 -39 L637 -39 L686 244 L1053 244 L1064 306 L697 306 L742 568 L742 568 Z M578 27 C524 -24 456 -50 373 -50 C332 -50 296 -43 266 -30 C236 -16 213 1 197 23 C182 44 170 69 162 97 C155 126 151 154 152 181 C152 208 154 236 160 265 C176 361 213 438 268 494 C323 551 395 579 482 579 C564 579 625 554 661 503 L578 27 L578 27 Z " />
<glyph glyph-name="oe" unicode="&#x153;" horiz-adv-x="1025" d="M968 191 C976 240 973 284 961 324 C948 365 924 399 888 424 C852 448 807 461 752 461 C670 461 604 432 542 379 C508 438 432 461 363 461 C283 461 217 436 162 384 C107 333 73 264 58 176 C42 88 52 19 89 -32 C126 -83 184 -109 264 -109 C325 -109 423 -76 470 -27 C501 -82 593 -109 653 -109 C713 -109 768 -94 816 -63 C864 -33 903 10 930 65 L870 82 C870 82 867 75 860 65 C839 28 811 0 777 -20 C743 -39 705 -49 663 -49 C597 -49 543 -21 517 31 C500 65 494 106 501 155 L962 155 C965 175 965 175 968 191 L968 191 Z M425 11 C384 -29 333 -49 274 -49 C214 -49 171 -29 144 11 C117 52 109 107 122 176 C134 246 160 300 201 341 C242 381 293 401 353 401 C412 401 455 381 482 341 C486 334 490 328 494 321 C466 279 448 230 438 174 C429 119 430 72 442 31 C437 24 431 17 425 11 L425 11 Z M512 215 C525 257 544 291 568 320 C577 331 587 342 599 351 C640 385 687 401 742 401 C796 401 838 384 867 351 C895 317 908 272 905 215 L512 215 L512 215 Z " />
<glyph glyph-name="Scaron" unicode="&#x160;" horiz-adv-x="584" d="M228 -109 C315 -109 386 -91 442 -55 C498 -19 531 34 543 105 C552 158 542 202 512 236 C481 270 430 295 358 312 L249 339 C208 348 179 363 160 384 C141 405 133 429 138 456 C145 497 166 528 200 549 C234 571 281 581 341 581 C403 581 463 556 520 507 C523 504 532 495 532 495 L586 543 C576 554 564 565 552 575 C539 586 523 596 505 607 C486 618 463 627 436 633 C410 640 382 643 352 643 C274 643 210 627 160 596 C109 564 79 518 69 456 C53 362 107 301 233 273 L338 249 C390 238 425 219 448 193 C469 167 478 138 473 104 C465 60 440 23 399 -5 C357 -33 304 -48 239 -48 C157 -48 90 -22 40 28 L28 40 L-26 -9 C2 -43 38 -68 78 -84 C119 -101 169 -109 228 -109 L228 -109 Z M552 829 L480 829 C456 808 456 808 385 749 L319 829 L247 829 L330 728 C342 716 358 709 378 709 C400 709 418 716 433 728 L552 829 Z " />
<glyph glyph-name="scaron" unicode="&#x161;" horiz-adv-x="473" d="M191 -109 C258 -109 314 -94 355 -66 C398 -37 424 2 433 53 C440 94 429 125 403 154 C376 182 336 203 283 214 L204 232 C151 244 129 272 137 316 C141 340 155 359 181 375 C206 391 237 399 276 399 C302 399 326 394 346 384 C367 374 383 362 393 347 C401 339 405 333 405 333 L460 374 C455 383 449 392 439 401 C431 409 419 418 406 428 C392 437 375 444 355 449 C335 455 312 458 289 458 C229 458 180 444 141 418 C102 391 79 356 71 313 C65 276 73 246 94 221 C115 197 149 180 191 171 C204 168 230 163 266 156 C302 148 329 135 347 117 C364 99 371 80 367 53 C361 21 344 -4 316 -22 C287 -39 250 -48 202 -48 C174 -48 148 -42 123 -30 C97 -19 79 -5 66 10 C59 19 55 24 55 24 L2 -21 C19 -46 44 -67 77 -84 C111 -100 148 -109 191 -109 L191 -109 Z M478 629 L406 629 C382 608 382 608 311 549 L245 629 L173 629 L256 528 C268 516 284 509 304 509 C326 509 344 516 359 528 L478 629 Z " />
<glyph glyph-name="Ydieresis" unicode="&#x178;" horiz-adv-x="579" d="M642 630 L325 249 L264 -100 L193 -100 L254 249 L69 630 L155 630 L301 315 L559 630 L642 630 L642 630 Z M360 804 L297 804 L287 737 L348 737 L360 804 L360 804 Z M502 804 L440 804 L428 737 L490 737 L502 804 L502 804 Z " />
<glyph glyph-name="Zcaron" unicode="&#x17d;" horiz-adv-x="558" d="M610 629 L83 629 L73 567 L515 567 L-24 -38 L-34 -100 L492 -100 L502 -38 L61 -38 L600 567 L610 629 Z M557 827 L485 827 C461 806 461 806 390 747 L324 827 L252 827 L335 726 C347 714 363 707 383 707 C405 707 423 714 438 726 L557 827 Z " />
<glyph glyph-name="zcaron" unicode="&#x17e;" horiz-adv-x="500" d="M522 448 L73 448 L63 387 L426 387 L-9 -39 L-19 -100 L429 -100 L439 -39 L75 -39 L512 387 L522 448 Z M504 629 L432 629 C408 608 408 608 337 549 L271 629 L199 629 L282 528 C294 516 310 509 330 509 C352 509 370 516 385 528 L504 629 Z " />
<glyph glyph-name="circumflex" unicode="&#x2c6;" horiz-adv-x="326" d="M227 626 C218 639 201 645 179 645 C159 645 140 639 124 626 L4 525 L76 525 L171 605 C219 546 220 546 237 525 L309 525 L227 626 Z " />
<glyph glyph-name="caron" unicode="&#x2c7;" horiz-adv-x="349" d="M333 629 L261 629 C237 608 237 608 166 549 L100 629 L28 629 L111 528 C123 516 139 509 159 509 C181 509 199 516 214 528 L333 629 Z " />
<glyph glyph-name="ring" unicode="&#x2da;" horiz-adv-x="224" d="M155 516 C171 530 181 547 184 568 C188 589 184 607 172 621 C161 635 144 642 123 642 C102 642 82 634 65 620 C49 606 39 589 35 568 C32 548 36 530 48 517 C60 503 77 496 98 496 C119 496 138 502 155 516 L155 516 Z M104 531 C94 531 86 535 80 541 C74 549 72 558 73 568 C75 579 81 588 89 595 C97 602 107 606 117 606 C127 606 135 602 140 595 C146 588 147 579 145 568 C144 558 139 549 131 541 C124 535 114 531 104 531 L104 531 Z " />
<glyph glyph-name="tilde" unicode="&#x2dc;" horiz-adv-x="595" d="M399 458 C467 458 518 508 550 610 L503 621 C503 621 500 613 495 599 C485 569 474 548 460 535 C436 513 400 509 380 530 C363 550 348 574 328 603 C320 616 308 627 294 635 C257 661 198 653 157 609 C131 582 112 544 98 496 L132 490 C136 490 147 488 147 488 C147 488 152 500 154 506 C165 538 177 559 189 573 C234 612 277 583 298 544 C314 520 329 492 357 472 C369 463 383 458 399 458 L399 458 Z " />
<glyph glyph-name="quoteleft" unicode="&#x2018;" horiz-adv-x="142" d="M27 477 C43 477 56 480 65 486 C75 491 84 502 91 516 C113 564 126 590 127 595 C129 609 127 620 119 628 C112 637 102 641 89 641 C76 641 64 637 53 628 C44 620 37 609 35 595 C32 581 35 570 44 561 C50 556 50 549 46 539 L21 486 C20 484 20 482 22 480 C23 478 24 477 27 477 L27 477 Z " />
<glyph glyph-name="quoteright" unicode="&#x2019;" horiz-adv-x="144" d="M27 477 C43 477 56 480 65 486 C75 491 84 502 91 516 C113 564 126 590 127 595 C129 609 127 620 119 628 C112 637 102 641 89 641 C76 641 64 637 53 628 C44 620 37 609 35 595 C32 581 35 570 44 561 C50 556 50 549 46 539 L21 486 C20 484 20 482 22 480 C23 478 24 477 27 477 L27 477 Z " />
<glyph glyph-name="quotedblleft" unicode="&#x201c;" horiz-adv-x="229" d="M4 483 C19 483 32 486 42 492 C51 498 60 508 68 522 C93 571 105 598 106 602 C111 627 96 648 69 648 C45 648 20 629 15 602 C12 588 15 577 23 568 C28 563 29 556 24 545 L-1 494 C-2 491 -3 489 -1 486 C-1 484 1 483 4 483 L4 483 Z M111 483 C127 483 140 486 150 492 C159 498 168 508 176 522 C199 568 212 595 214 602 C219 626 205 648 178 648 C153 648 128 629 123 602 C120 587 123 576 131 568 C137 563 138 556 132 545 L106 494 C105 491 104 489 106 486 C106 484 108 483 111 483 L111 483 Z " />
<glyph glyph-name="quotedblright" unicode="&#x201d;" horiz-adv-x="235" d="M4 483 C19 483 32 486 42 492 C51 498 60 508 68 522 C93 571 105 598 106 602 C111 627 96 648 69 648 C45 648 20 629 15 602 C12 588 15 577 23 568 C28 563 29 556 24 545 L-1 494 C-2 491 -3 489 -1 486 C-1 484 1 483 4 483 L4 483 Z M111 483 C127 483 140 486 150 492 C159 498 168 508 176 522 C199 568 212 595 214 602 C219 626 205 648 178 648 C153 648 128 629 123 602 C120 587 123 576 131 568 C137 563 138 556 132 545 L106 494 C105 491 104 489 106 486 C106 484 108 483 111 483 L111 483 Z " />
<glyph glyph-name="Euro" unicode="&#x20ac;" horiz-adv-x="624" d="M472 638 C384 638 309 616 246 572 C183 528 135 466 104 386 L34 386 L23 325 L84 325 C79 303 76 286 73 273 C70 255 68 243 67 235 L7 235 L-2 174 L64 174 C64 87 88 20 136 -28 C183 -76 252 -100 341 -100 L446 -100 L499 -100 L511 -32 L458 -32 L353 -32 C282 -32 228 -14 192 21 C156 56 137 107 137 174 L454 174 L464 235 L138 235 C140 243 141 256 144 274 C147 287 151 303 155 325 L516 325 L527 386 L526 386 L176 386 C230 508 324 569 460 569 L618 569 L630 638 L472 638 Z " />
<glyph glyph-name="fi" unicode="&#xfb01;" horiz-adv-x="415" d="M186 448 L193 488 C201 534 233 570 280 570 L366 570 L365 564 L428 564 L439 631 L290 631 C247 631 211 618 183 593 C153 567 135 532 128 488 L121 448 L38 448 L28 388 L111 388 L27 -100 L92 -100 L176 388 L333 388 L250 -100 L315 -100 L409 448 L186 448 Z " />
<glyph glyph-name="fl" unicode="&#xfb02;" horiz-adv-x="519" d="M286 629 C243 629 208 617 178 591 C150 565 131 530 123 486 L116 447 L33 447 L23 386 L106 386 L21 -100 L87 -100 L172 386 L330 386 L340 447 L182 447 L189 486 C194 512 204 532 219 547 C234 561 252 568 275 568 L400 568 L411 629 L286 629 Z M435 -39 L426 -39 L386 -39 C365 -39 350 -33 340 -19 C332 -6 329 12 333 36 L438 629 L372 629 L268 36 C261 -6 267 -39 285 -64 C304 -88 334 -100 375 -100 L415 -100 L444 -100 L451 -59 L455 -39 L435 -39 L435 -39 Z " />
</font>
</svg>
