<?xml version="1.0" encoding="UTF-8"?>
<svg xmlns="http://www.w3.org/2000/svg" xmlns:xlink="http://www.w3.org/1999/xlink" version="1.2" >
<font id="Noirden Thin">
<font-face  font-family="Noirden" units-per-em="1000" ascent="750" descent="-250" font-style="normal" font-weight="400" font-stretch="normal" cap-height="900" x-height="700" underline-position="-75" underline-thickness="50" />
<missing-glyph  horiz-adv-x="197" d="" />
<glyph glyph-name="NULL" d="" />
<glyph glyph-name="CR" unicode="&#xd;" horiz-adv-x="197" d="" />
<glyph glyph-name="space" unicode="&#x20;" horiz-adv-x="197" d="" />
<glyph glyph-name="exclam" unicode="&#x21;" horiz-adv-x="124" d="M74 0 L74 629 L50 629 L50 0 L74 0 L74 0 Z M46 -63 L78 -63 L78 -100 L46 -100 L46 -63 L46 -63 Z " />
<glyph glyph-name="quotedbl" unicode="&#x22;" horiz-adv-x="187" d="M47 520 C54 520 59 521 63 523 C66 525 69 529 71 536 C87 591 95 620 95 623 C95 630 93 637 88 641 C83 645 77 647 71 647 C64 647 58 645 53 641 C49 636 46 630 46 623 C46 614 50 607 56 602 C61 599 62 595 60 590 L42 527 C41 525 42 524 43 522 C44 520 45 520 47 520 L47 520 Z M108 520 C115 520 120 521 123 523 C127 525 130 529 131 536 C148 591 156 620 156 623 C156 630 153 637 148 641 C144 645 138 647 131 647 C125 647 119 645 114 641 C110 636 107 630 107 623 C107 614 111 607 117 602 C122 599 123 595 121 590 L103 527 C102 525 103 524 104 522 C105 520 106 520 108 520 L108 520 Z " />
<glyph glyph-name="numbersign" unicode="&#x23;" horiz-adv-x="624" d="M571 376 L576 396 L465 396 L514 629 L494 629 L445 396 L221 396 L271 629 L251 629 L201 396 L90 396 L85 376 L197 376 L148 153 L38 153 L33 133 L144 133 L95 -100 L115 -100 L164 133 L388 133 L338 -100 L358 -100 L408 133 L519 133 L524 153 L412 153 L461 376 L571 376 Z M392 153 L169 153 L218 376 L441 376 L392 153 Z " />
<glyph glyph-name="dollar" unicode="&#x24;" horiz-adv-x="577" d="M382 281 L303 301 L303 621 C334 619 366 612 398 599 C442 580 476 556 508 527 L522 541 C493 569 460 592 423 610 C386 628 347 639 303 642 L303 730 L283 730 L283 642 C204 642 144 627 103 597 C61 567 41 524 41 469 C41 428 55 392 83 364 C111 335 153 314 210 300 L283 282 L283 -89 C239 -89 198 -81 159 -67 C112 -50 73 -24 39 9 L25 -9 C95 -75 181 -109 283 -109 L283 -207 L303 -207 L303 -109 C388 -106 450 -88 491 -54 C533 -20 554 28 554 90 C554 188 497 251 382 281 L382 281 Z M283 306 L220 322 C117 349 66 398 66 469 C66 518 84 556 121 582 C168 616 230 622 283 622 L283 306 L283 306 Z M467 -43 C429 -72 374 -87 303 -89 L303 277 L374 259 C478 234 530 177 530 90 C530 32 509 -12 467 -43 L467 -43 Z " />
<glyph glyph-name="percent" unicode="&#x25;" horiz-adv-x="618" d="M234 434 C258 457 270 486 270 520 C270 554 258 583 234 606 C211 630 182 642 148 642 C114 642 85 630 62 606 C38 583 26 554 26 520 C26 486 38 457 62 434 C85 410 114 398 148 398 C182 398 211 410 234 434 L234 434 Z M76 448 C56 468 47 492 47 520 C47 548 56 572 76 591 C96 611 120 621 148 621 C176 621 200 611 219 591 C239 572 249 548 249 520 C249 492 239 468 219 448 C200 428 176 418 148 418 C120 418 96 428 76 448 L76 448 Z M517 -73 C540 -50 552 -21 552 13 C552 47 540 76 517 99 C493 123 465 135 430 135 C397 135 368 123 345 99 C321 76 309 47 309 13 C309 -21 321 -50 345 -73 C368 -97 397 -109 430 -109 C465 -109 493 -97 517 -73 L517 -73 Z M430 -88 C403 -88 379 -78 359 -58 C339 -39 330 -15 330 13 C330 41 339 65 359 85 C379 105 403 114 430 114 C458 114 482 105 502 85 C522 65 532 41 532 13 C532 -15 522 -39 502 -58 C482 -78 458 -88 430 -88 L430 -88 Z M522 629 L31 -100 L56 -100 L551 629 L522 629 Z " />
<glyph glyph-name="ampersand" unicode="&#x26;" horiz-adv-x="720" d="M677 -78 C656 -78 635 -73 614 -63 C594 -53 577 -40 564 -24 L538 9 C594 71 632 151 653 246 L631 253 C631 253 630 247 626 234 C606 152 573 83 525 26 L270 351 L342 399 C395 434 421 473 421 517 C421 557 409 587 383 609 C357 631 323 641 278 641 C238 641 205 630 181 609 C156 587 144 558 144 522 C144 508 147 492 153 476 C159 459 167 445 177 431 L237 357 L130 287 C98 266 74 241 57 212 C40 183 31 151 31 118 C31 50 55 -5 103 -46 C151 -88 215 -109 295 -109 C381 -109 457 -75 523 -8 L547 -39 C561 -57 580 -71 604 -82 C628 -93 653 -98 679 -98 L689 -98 C694 -98 707 -98 707 -98 C707 -98 707 -86 707 -81 L707 -78 L677 -78 Z M295 -88 C222 -88 164 -69 121 -32 C77 6 55 56 55 118 C55 147 63 175 77 201 C92 226 113 248 140 266 L250 339 L510 10 C447 -55 375 -88 295 -88 L295 -88 Z M198 443 C178 470 168 496 168 522 C168 552 178 576 198 594 C219 612 245 621 278 621 C315 621 344 612 365 594 C386 575 397 550 397 517 C397 497 392 479 382 464 C371 448 354 432 329 416 L255 369 L198 443 Z " />
<glyph glyph-name="quotesingle" unicode="&#x27;" horiz-adv-x="139" d="M49 514 C55 514 60 515 64 517 C67 519 70 523 72 530 C88 585 96 614 96 617 C96 624 94 631 89 635 C84 639 78 641 72 641 C65 641 60 639 55 635 C50 630 47 624 47 617 C47 608 51 601 57 596 C62 593 63 589 62 584 L43 521 C43 519 43 518 44 516 C45 514 46 514 49 514 L49 514 Z " />
<glyph glyph-name="parenleft" unicode="&#x28;" horiz-adv-x="235" d="M48 237 C48 89 88 -60 168 -212 L189 -202 C189 -202 182 -189 179 -184 C108 -40 73 100 73 237 C73 395 107 540 177 672 C180 677 186 691 186 691 L167 700 C88 562 48 408 48 237 L48 237 Z " />
<glyph glyph-name="parenright" unicode="&#x29;" horiz-adv-x="234" d="M67 -212 C146 -60 186 89 186 237 C186 408 147 562 68 700 L49 691 C49 691 55 677 58 672 C127 540 162 395 162 237 C162 100 127 -40 56 -184 C53 -189 46 -202 46 -202 L67 -212 L67 -212 Z " />
<glyph glyph-name="asterisk" unicode="&#x2a;" horiz-adv-x="448" d="M407 501 L400 524 L239 471 L242 641 L218 641 L221 471 L59 524 L52 501 L214 454 L114 318 L133 304 L230 444 L326 304 L346 318 L245 454 L407 501 L407 501 Z " />
<glyph glyph-name="plus" unicode="&#x2b;" horiz-adv-x="564" d="M525 264 L294 264 L294 506 L270 506 L270 264 L39 264 L39 243 L270 243 L270 0 L294 0 L294 243 L525 243 L525 264 L525 264 Z " />
<glyph glyph-name="comma" unicode="&#x2c;" horiz-adv-x="139" d="M58 -180 C64 -180 70 -179 73 -177 C77 -175 79 -170 81 -163 C98 -108 106 -79 106 -76 C106 -69 103 -62 98 -58 C93 -54 88 -52 81 -52 C75 -52 69 -54 64 -59 C59 -63 57 -69 57 -76 C57 -85 60 -92 67 -96 C71 -99 73 -104 71 -109 L53 -173 C52 -174 52 -176 53 -177 C54 -179 56 -180 58 -180 L58 -180 Z " />
<glyph glyph-name="hyphen" unicode="&#x2d;" horiz-adv-x="434" d="M66 269 L66 247 L380 247 L380 269 L66 269 Z " />
<glyph glyph-name="period" unicode="&#x2e;" horiz-adv-x="91" d="M65 -103 C69 -98 71 -92 71 -85 C71 -78 69 -72 65 -68 C60 -63 54 -61 47 -61 C40 -61 34 -63 29 -68 C25 -72 22 -78 22 -85 C22 -92 25 -98 29 -103 C34 -107 40 -109 47 -109 C54 -109 60 -107 65 -103 L65 -103 Z " />
<glyph glyph-name="slash" unicode="&#x2f;" horiz-adv-x="569" d="M59 -203 L84 -203 L508 750 L483 750 L59 -203 L59 -203 Z " />
<glyph glyph-name="zero" unicode="0" horiz-adv-x="633" d="M317 -109 C402 -109 468 -76 514 -10 C561 56 584 150 584 272 C584 391 561 483 514 548 C468 612 402 645 317 645 C232 645 166 612 119 548 C73 483 49 391 49 272 C49 150 73 56 119 -10 C166 -76 232 -109 317 -109 L317 -109 Z M138 6 C95 69 74 158 74 272 C74 384 95 470 138 531 C180 592 240 623 317 623 C395 623 454 592 496 531 C538 470 559 384 559 272 C559 157 538 69 496 6 C454 -56 395 -87 317 -87 C240 -87 180 -56 138 6 L138 6 Z " />
<glyph glyph-name="one" unicode="1" horiz-adv-x="194" d="M144 635 L127 635 L120 563 L9 563 L9 546 L120 546 L119 -100 L144 -100 L144 635 L144 635 Z " />
<glyph glyph-name="two" unicode="2" horiz-adv-x="558" d="M318 215 C376 249 421 283 453 318 C484 353 500 393 500 437 C500 498 479 547 438 584 C397 621 343 640 275 640 C215 640 164 624 124 591 C83 559 58 516 50 463 L73 456 C73 456 74 462 76 474 C86 518 108 552 144 578 C180 604 224 618 275 618 C336 618 384 601 421 568 C457 535 476 492 476 437 C476 396 461 361 432 330 C403 299 360 267 304 236 C301 233 294 230 286 225 C252 205 225 189 204 176 C183 164 163 150 142 135 C121 120 105 106 95 94 C84 81 74 66 65 48 C56 31 50 12 47 -8 C44 -28 42 -52 42 -80 L42 -100 L490 -100 L490 -80 L67 -80 C67 -30 73 7 84 34 C97 62 121 89 158 116 C182 134 235 167 318 215 L318 215 Z " />
<glyph glyph-name="three" unicode="3" horiz-adv-x="530" d="M355 282 C395 293 426 313 448 343 C471 373 482 410 482 454 C482 510 463 555 423 590 C384 624 332 641 266 641 C203 641 150 625 108 592 C65 560 40 517 32 464 L55 458 C55 458 57 463 59 475 C68 519 92 553 129 579 C168 605 214 619 268 619 C326 619 371 604 406 574 C441 544 458 504 458 454 C458 405 443 366 412 336 C382 307 341 292 291 292 L227 292 C215 292 209 292 209 292 L209 272 L291 272 C349 272 396 257 431 227 C466 197 483 157 483 107 C483 48 464 0 425 -36 C386 -71 334 -89 269 -89 C216 -89 169 -75 130 -48 C91 -20 66 16 55 62 C54 66 52 74 52 74 L28 69 C34 34 49 2 72 -25 C96 -52 124 -73 159 -88 C193 -102 230 -109 269 -109 C341 -109 399 -90 442 -50 C486 -11 508 42 508 107 C508 152 494 190 467 221 C439 252 402 272 355 282 L355 282 Z " />
<glyph glyph-name="four" unicode="4" horiz-adv-x="488" d="M473 93 L388 93 L388 630 L363 630 L17 93 L17 73 L363 73 L363 -100 L388 -100 L388 73 L473 73 L473 93 Z M42 93 L363 590 L363 93 L42 93 Z " />
<glyph glyph-name="five" unicode="5" horiz-adv-x="563" d="M284 381 C242 381 204 373 167 356 C131 338 101 315 78 285 L103 608 L489 608 L489 629 L81 629 L50 240 L75 240 C95 276 124 305 162 327 C200 348 241 359 284 359 C351 359 405 339 445 298 C486 257 506 203 506 136 C506 69 486 15 445 -26 C405 -67 351 -87 284 -87 C229 -87 182 -74 143 -49 C103 -23 78 10 66 53 C62 64 60 70 60 70 L38 63 C50 11 78 -31 123 -62 C167 -94 221 -109 284 -109 C358 -109 418 -87 463 -42 C508 2 530 62 530 136 C530 210 508 270 463 314 C418 359 358 381 284 381 L284 381 Z " />
<glyph glyph-name="six" unicode="6" horiz-adv-x="580" d="M300 -109 C376 -109 436 -89 479 -47 C522 -5 544 51 544 121 C544 194 524 252 484 296 C444 339 388 360 317 360 C255 360 202 348 158 322 C115 297 87 263 73 218 C73 352 93 453 131 520 C169 587 229 621 309 621 C353 621 392 608 425 582 C458 556 484 520 501 475 C504 466 505 460 505 460 L528 469 C510 522 482 563 444 594 C405 625 360 641 309 641 C135 641 48 505 48 234 C48 175 53 124 62 83 C72 42 88 7 112 -22 C136 -51 163 -73 193 -88 C222 -102 258 -109 300 -109 L300 -109 Z M300 -89 C236 -89 181 -64 136 -13 C119 6 106 28 97 54 C88 80 83 106 83 132 C83 198 104 249 145 285 C186 321 244 339 319 339 C382 339 432 320 467 280 C502 240 520 186 520 118 C520 54 500 4 461 -33 C422 -71 369 -89 300 -89 L300 -89 Z " />
<glyph glyph-name="seven" unicode="7" horiz-adv-x="466" d="M17 629 L17 608 L421 608 C421 564 416 524 407 486 C397 447 384 413 368 383 C352 353 335 323 316 295 C297 267 277 238 256 210 C235 182 216 153 198 123 C180 94 163 60 149 21 C134 -17 124 -58 118 -100 L149 -100 C154 -60 163 -21 177 16 C190 53 206 86 224 115 C241 145 260 174 280 202 C300 231 320 260 339 289 C358 318 376 348 391 378 C407 409 420 444 429 483 C438 522 443 562 443 605 L443 629 L17 629 L17 629 Z " />
<glyph glyph-name="eight" unicode="8" horiz-adv-x="519" d="M344 292 C387 304 421 324 446 353 C470 382 482 417 482 458 C482 513 462 557 422 591 C382 624 328 641 260 641 C191 641 136 624 95 591 C53 557 33 513 33 458 C33 417 46 382 71 353 C96 324 131 304 176 292 C123 280 83 258 53 224 C23 191 8 151 8 103 C8 38 31 -13 77 -51 C123 -90 184 -109 260 -109 C335 -109 394 -90 439 -51 C484 -13 507 38 507 103 C507 151 492 191 464 224 C435 257 395 280 344 292 L344 292 Z M261 -89 C192 -89 137 -72 95 -37 C54 -2 33 45 33 103 C33 157 54 200 95 232 C137 265 192 281 261 281 C328 281 382 265 422 232 C462 200 482 157 482 103 C482 45 462 -2 422 -37 C382 -72 328 -89 261 -89 L261 -89 Z M57 458 C57 507 76 546 113 576 C150 606 199 621 261 621 C321 621 369 606 405 576 C440 546 458 507 458 458 C458 411 440 373 405 345 C369 316 321 302 261 302 C199 302 150 316 113 345 C76 373 57 411 57 458 L57 458 Z " />
<glyph glyph-name="nine" unicode="9" horiz-adv-x="582" d="M258 -109 C347 -109 416 -74 462 -2 C509 69 532 172 532 307 C532 375 524 434 507 482 C490 532 463 570 426 598 C389 626 344 640 289 640 C212 640 151 619 107 578 C63 537 41 483 41 418 C41 341 60 281 98 237 C135 193 190 171 261 171 C326 171 380 182 422 205 C465 227 494 260 509 304 C509 181 487 85 444 15 C400 -54 338 -89 259 -89 C214 -89 174 -75 138 -48 C102 -21 77 15 62 60 C59 69 57 74 57 74 L35 66 C50 13 78 -29 118 -61 C159 -93 206 -109 258 -109 L258 -109 Z M259 192 C196 192 148 212 115 252 C82 292 66 349 66 421 C66 479 87 526 129 563 C171 601 226 620 292 620 C332 620 368 608 400 586 C433 564 458 536 475 502 C492 467 501 430 501 392 C501 326 480 277 439 243 C397 209 337 192 259 192 L259 192 Z " />
<glyph glyph-name="colon" unicode="&#x3a;" horiz-adv-x="175" d="M103 458 C107 463 110 468 110 475 C110 483 107 488 103 493 C98 497 93 500 85 500 C78 500 72 497 68 493 C63 488 61 483 61 475 C61 468 63 463 68 458 C72 453 78 451 85 451 C93 451 98 453 103 458 L103 458 Z M103 -52 C107 -47 110 -41 110 -34 C110 -27 107 -21 103 -17 C98 -12 93 -10 85 -10 C78 -10 72 -12 68 -17 C63 -21 61 -27 61 -34 C61 -41 63 -47 68 -52 C72 -56 78 -58 85 -58 C93 -58 98 -56 103 -52 L103 -52 Z " />
<glyph glyph-name="semicolon" unicode="&#x3b;" horiz-adv-x="172" d="M57 -138 C64 -138 69 -137 72 -135 C76 -133 79 -128 81 -121 C97 -66 105 -37 105 -34 C105 -27 102 -21 98 -16 C93 -12 87 -10 81 -10 C74 -10 68 -12 63 -17 C59 -21 56 -27 56 -34 C56 -43 59 -50 66 -54 C71 -57 72 -62 70 -67 L52 -131 C51 -132 51 -134 53 -135 C54 -137 55 -138 57 -138 L57 -138 Z M98 458 C103 463 105 468 105 475 C105 482 103 488 98 493 C94 497 88 500 81 500 C74 500 68 497 63 493 C58 488 56 482 56 475 C56 468 58 463 63 458 C68 453 74 451 81 451 C88 451 94 453 98 458 L98 458 Z " />
<glyph glyph-name="less" unicode="&#x3c;" horiz-adv-x="588" d="M546 98 L88 300 L546 505 L536 525 L50 310 L50 292 L536 76 L546 98 L546 98 Z " />
<glyph glyph-name="equal" unicode="&#x3d;" horiz-adv-x="635" d="M79 358 L565 358 L565 378 L79 378 L79 358 Z M79 196 L565 196 L565 216 L79 216 L79 196 Z " />
<glyph glyph-name="greater" unicode="&#x3e;" horiz-adv-x="590" d="M502 299 L43 97 L54 75 L540 291 L540 309 L54 524 L43 504 L502 299 L502 299 Z " />
<glyph glyph-name="question" unicode="&#x3f;" horiz-adv-x="473" d="M375 589 C338 624 289 641 228 641 C166 641 115 624 78 589 C46 558 28 520 22 473 C22 466 21 458 21 451 L44 451 L45 472 C49 516 67 551 100 579 C132 607 175 621 228 621 C282 621 325 606 357 574 C389 543 405 501 405 449 C405 431 402 414 395 398 C388 381 379 366 368 352 C357 339 345 325 331 311 C318 298 304 283 291 269 C278 255 265 239 254 224 C243 208 234 190 227 170 C220 150 217 129 217 106 L217 3 L242 3 L242 105 C242 128 245 149 253 168 C259 188 268 205 279 220 C291 235 303 249 316 262 C329 276 343 290 356 303 C369 316 381 330 393 344 C404 358 413 374 420 391 C426 409 430 428 430 449 C430 507 412 554 375 589 L375 589 Z M214 -63 L246 -63 L246 -100 L214 -100 L214 -63 L214 -63 Z " />
<glyph glyph-name="at" unicode="&#x40;" horiz-adv-x="997" d="M914 409 C877 477 825 529 758 565 C691 602 612 620 523 620 C456 620 395 609 339 588 C284 567 237 537 198 499 C160 460 130 413 109 358 C87 302 77 241 77 174 C77 107 87 46 109 -10 C130 -65 160 -112 198 -150 C237 -189 284 -219 339 -240 C395 -261 456 -272 523 -272 C577 -272 631 -263 685 -244 C739 -226 784 -202 820 -172 L815 -168 C807 -160 797 -159 787 -167 C754 -193 713 -214 665 -229 C617 -245 569 -253 523 -253 C460 -253 402 -242 349 -222 C296 -201 252 -173 215 -136 C179 -99 150 -54 130 -1 C110 52 99 111 99 174 C99 238 110 296 130 349 C150 402 179 447 215 484 C252 521 296 550 349 570 C402 591 460 601 523 601 C586 601 644 591 697 570 C749 550 794 521 831 484 C867 447 895 402 916 349 C936 296 946 238 946 174 C946 108 930 57 898 23 C880 4 856 -14 840 -18 C817 -20 774 -22 774 34 L774 453 L752 453 L752 322 C742 346 729 368 713 386 C713 386 712 387 712 387 C700 400 686 412 669 422 C631 446 584 458 527 458 C448 458 385 432 340 382 C294 331 271 262 271 174 C271 87 294 17 340 -33 C385 -84 448 -109 527 -109 C584 -109 632 -98 671 -74 C688 -63 703 -50 716 -35 C721 -30 725 -24 729 -18 C739 -5 747 11 753 28 C754 28 754 28 754 28 L754 11 C755 0 760 -14 774 -24 C787 -34 817 -44 840 -39 C864 -36 890 -19 912 6 C929 24 943 47 953 76 C964 104 969 137 969 174 C969 264 950 342 914 409 L914 409 Z M752 136 C752 78 738 31 711 -7 C707 -13 703 -18 698 -23 C697 -26 695 -28 693 -29 C653 -70 598 -90 527 -90 C455 -90 398 -67 357 -19 C355 -18 353 -16 352 -14 C352 -13 351 -13 351 -13 C317 29 298 85 295 153 C294 160 294 167 294 174 C294 256 315 320 357 368 C398 415 455 438 527 438 C597 438 652 419 690 378 C691 378 692 377 693 376 C699 370 704 363 709 357 C737 317 752 266 752 204 L752 136 L752 136 Z " />
<glyph glyph-name="A" unicode="A" horiz-adv-x="614" d="M568 -100 L597 -100 L319 629 L295 629 L19 -100 L44 -100 L136 143 L477 143 L568 -100 Z M143 163 L308 604 L470 163 L143 163 Z " />
<glyph glyph-name="B" unicode="B" horiz-adv-x="557" d="M363 276 C411 287 448 307 473 336 C499 365 512 402 512 447 C512 505 491 550 450 581 C409 613 350 629 275 629 L45 629 L45 -100 L285 -100 C364 -100 425 -84 468 -51 C511 -18 532 29 532 91 C532 141 518 182 489 214 C460 245 417 266 363 276 L363 276 Z M69 608 L270 608 C339 608 393 594 431 566 C468 538 487 498 487 447 C487 395 469 355 432 327 C395 298 343 285 275 285 L69 285 L69 608 Z M275 -80 L69 -80 L69 264 L285 264 C356 264 411 249 450 219 C488 189 508 146 508 91 C508 36 487 -6 447 -36 C407 -65 349 -80 275 -80 L275 -80 Z " />
<glyph glyph-name="C" unicode="C" horiz-adv-x="789" d="M383 -109 C470 -109 542 -86 599 -42 C657 3 696 75 714 148 L692 153 C692 153 663 31 580 -31 C527 -70 461 -88 383 -88 C284 -88 208 -58 154 4 C101 65 74 152 74 266 C74 380 101 468 154 529 C208 590 284 621 383 621 C456 621 519 603 571 567 C623 532 659 481 681 415 C683 410 686 398 686 398 L710 403 C688 479 648 538 592 579 C535 621 466 641 383 641 C277 641 195 609 137 544 C78 479 50 386 50 266 C50 146 78 54 137 -11 C195 -76 277 -109 383 -109 L383 -109 Z " />
<glyph glyph-name="D" unicode="D" horiz-adv-x="701" d="M305 629 L60 629 L60 -100 L305 -100 C413 -100 496 -69 555 -6 C613 58 642 148 642 264 C642 381 613 471 555 534 C496 598 413 629 305 629 L305 629 Z M305 -80 L84 -80 L84 608 L305 608 C405 608 482 579 537 519 C591 459 618 374 618 264 C618 154 591 69 537 9 C482 -51 405 -80 305 -80 L305 -80 Z " />
<glyph glyph-name="E" unicode="E" horiz-adv-x="539" d="M482 608 L482 629 L60 629 L60 -100 L482 -100 L482 -80 L84 -80 L84 264 L474 264 L474 285 L84 285 L84 608 L482 608 L482 608 Z " />
<glyph glyph-name="F" unicode="F" horiz-adv-x="544" d="M482 608 L482 629 L61 629 L61 -100 L85 -100 L85 264 L474 264 L474 285 L85 285 L85 608 L482 608 L482 608 Z " />
<glyph glyph-name="G" unicode="G" horiz-adv-x="770" d="M381 279 L381 258 L695 258 C695 210 688 167 677 128 C665 89 649 56 629 29 C609 3 586 -19 559 -37 C532 -55 504 -68 474 -76 C445 -85 415 -88 383 -88 C284 -88 207 -58 154 4 C101 65 74 152 74 266 C74 380 101 468 154 529 C207 590 284 621 383 621 C456 621 518 603 570 567 C622 532 659 481 680 415 C682 410 686 397 686 397 L709 403 C687 479 648 538 591 579 C535 621 465 641 383 641 C276 641 194 609 136 544 C78 479 49 386 49 266 C49 146 78 54 136 -11 C194 -76 276 -109 383 -109 C418 -109 452 -105 484 -96 C516 -87 547 -73 576 -53 C605 -33 630 -9 651 20 C672 50 689 86 702 131 C714 175 720 224 720 279 L381 279 L381 279 Z " />
<glyph glyph-name="H" unicode="H" horiz-adv-x="629" d="M545 629 L545 285 L84 285 L84 629 L60 629 L60 -100 L84 -100 L84 264 L545 264 L545 -100 L569 -100 L569 629 L545 629 L545 629 Z " />
<glyph glyph-name="I" unicode="I" horiz-adv-x="124" d="M50 -100 L74 -100 L74 629 L50 629 L50 -100 L50 -100 Z " />
<glyph glyph-name="J" unicode="J" horiz-adv-x="555" d="M279 -109 C351 -109 406 -88 446 -47 C485 -5 505 54 505 130 L505 629 L480 629 L480 130 C480 61 462 7 426 -31 C390 -69 341 -88 279 -88 C232 -88 191 -75 156 -47 C121 -19 96 21 82 71 C77 85 76 91 76 91 L52 84 C68 22 95 -25 134 -59 C173 -92 222 -109 279 -109 L279 -109 Z " />
<glyph glyph-name="K" unicode="K" horiz-adv-x="555" d="M193 328 L504 629 L472 629 L74 247 L74 629 L50 629 L50 -100 L74 -100 L74 213 L177 313 L500 -100 L532 -100 L193 328 L193 328 Z " />
<glyph glyph-name="L" unicode="L" horiz-adv-x="494" d="M74 -80 L74 629 L50 629 L50 -100 L471 -100 L471 -80 L74 -80 L74 -80 Z " />
<glyph glyph-name="M" unicode="M" horiz-adv-x="705" d="M655 629 L626 629 L353 -68 L79 629 L50 629 L50 -100 L74 -100 L74 573 L341 -100 L362 -100 L630 573 L630 -100 L655 -100 L655 629 L655 629 Z " />
<glyph glyph-name="N" unicode="N" horiz-adv-x="601" d="M527 629 L527 -7 C527 -27 527 -64 527 -64 L75 629 L50 629 L50 -100 L74 -100 L74 536 C74 555 74 592 74 592 L526 -100 L551 -100 L551 629 L527 629 L527 629 Z " />
<glyph glyph-name="O" unicode="O" horiz-adv-x="774" d="M637 -11 C696 54 725 146 725 266 C725 386 696 479 637 544 C579 609 495 641 388 641 C279 641 196 608 137 543 C78 478 49 386 49 266 C49 147 78 55 137 -11 C196 -76 279 -109 388 -109 C495 -109 579 -76 637 -11 L637 -11 Z M388 -88 C287 -88 209 -58 155 4 C101 65 73 153 73 266 C73 380 101 467 155 529 C209 590 287 621 388 621 C487 621 565 590 619 529 C673 467 700 380 700 266 C700 153 673 65 619 4 C565 -58 487 -88 388 -88 L388 -88 Z " />
<glyph glyph-name="P" unicode="P" horiz-adv-x="552" d="M280 629 L50 629 L50 -100 L74 -100 L74 244 L280 244 C356 244 414 261 455 294 C496 328 517 375 517 436 C517 498 496 545 455 579 C414 612 356 629 280 629 L280 629 Z M275 264 L74 264 L74 608 L275 608 C345 608 398 594 436 564 C474 534 493 492 493 436 C493 381 474 339 436 309 C398 279 345 264 275 264 L275 264 Z " />
<glyph glyph-name="Q" unicode="Q" horiz-adv-x="774" d="M598 -47 C683 16 725 121 725 266 C725 386 696 479 637 544 C578 609 495 641 387 641 C279 641 196 608 137 543 C78 478 49 386 49 266 C49 147 78 55 137 -11 C196 -76 279 -109 387 -109 C462 -109 525 -93 576 -62 L669 -199 L689 -199 L693 -199 L700 -199 L658 -136 L598 -47 L598 -47 Z M387 -88 C287 -88 209 -58 155 4 C100 65 73 153 73 266 C73 380 100 467 155 529 C209 590 287 621 387 621 C487 621 564 590 618 529 C673 467 700 380 700 266 C700 130 662 32 585 -27 L529 54 L512 54 L497 54 L563 -43 C515 -73 456 -88 387 -88 L387 -88 Z " />
<glyph glyph-name="R" unicode="R" horiz-adv-x="537" d="M280 264 C355 264 414 280 455 312 C496 343 517 388 517 447 C517 505 496 550 455 581 C414 613 355 629 280 629 L50 629 L50 -100 L74 -100 L74 264 L235 264 L484 -100 L514 -100 L262 264 L280 264 Z M280 285 L74 285 L74 608 L275 608 C344 608 398 594 436 566 C473 538 492 498 492 447 C492 395 474 355 437 327 C400 298 348 285 280 285 L280 285 Z " />
<glyph glyph-name="S" unicode="S" horiz-adv-x="584" d="M290 -109 C376 -109 443 -91 489 -57 C535 -23 558 27 558 91 C558 189 500 252 385 282 L223 323 C120 349 68 398 68 470 C68 519 87 557 124 583 C162 610 215 623 285 623 C324 623 363 615 401 599 C440 584 472 564 497 539 C507 531 511 527 511 527 L526 542 C494 573 457 597 415 616 C374 634 330 643 285 643 C208 643 148 628 106 598 C65 568 44 525 44 470 C44 428 58 393 86 364 C114 336 157 314 214 300 L378 260 C482 235 534 178 534 91 C534 33 513 -11 471 -42 C429 -73 369 -89 290 -89 C244 -89 202 -81 162 -66 C122 -51 87 -30 57 -3 C52 1 42 10 42 10 C42 10 33 0 30 -5 L28 -8 C99 -75 186 -109 290 -109 L290 -109 Z " />
<glyph glyph-name="T" unicode="T" horiz-adv-x="584" d="M552 629 L33 629 L33 608 L280 608 L280 -100 L304 -100 L304 608 L552 608 L552 629 L552 629 Z " />
<glyph glyph-name="U" unicode="U" horiz-adv-x="615" d="M501 -36 C544 13 565 86 565 185 L565 630 L540 630 L540 185 C540 3 463 -88 307 -88 C152 -88 74 3 74 185 L73 630 L50 630 L50 185 C50 86 71 13 114 -36 C157 -85 221 -109 307 -109 C394 -109 458 -85 501 -36 L501 -36 Z " />
<glyph glyph-name="V" unicode="V" horiz-adv-x="553" d="M509 629 L271 -63 L34 629 L7 629 L258 -100 L258 -100 L284 -100 L285 -100 L536 629 L509 629 L509 629 Z " />
<glyph glyph-name="W" unicode="W" horiz-adv-x="926" d="M876 629 L676 -62 L476 625 L475 629 L451 629 L450 625 L250 -62 L49 629 L23 629 L239 -100 L261 -100 L463 580 L665 -100 L687 -100 L903 629 L876 629 L876 629 Z " />
<glyph glyph-name="X" unicode="X" horiz-adv-x="649" d="M629 -100 L341 289 L593 629 L565 629 L327 308 L89 629 L57 629 L311 285 L25 -100 L53 -100 L326 267 L597 -100 L629 -100 L629 -100 Z " />
<glyph glyph-name="Y" unicode="Y" horiz-adv-x="579" d="M563 630 L533 630 L301 260 L69 630 L39 630 L289 240 L289 -100 L313 -100 L313 241 L563 630 L563 630 Z " />
<glyph glyph-name="Z" unicode="Z" horiz-adv-x="558" d="M26 630 L26 609 L509 609 L26 -79 L26 -100 L539 -100 L539 -79 L58 -79 L539 609 L539 630 L26 630 Z " />
<glyph glyph-name="bracketleft" unicode="&#x5b;" horiz-adv-x="274" d="M50 721 L50 -232 L232 -232 L232 -212 L74 -212 L74 700 L232 700 L232 721 L50 721 Z " />
<glyph glyph-name="backslash" unicode="&#x5c;" horiz-adv-x="585" d="M486 -230 L510 -230 L87 723 L61 723 L486 -230 L486 -230 Z " />
<glyph glyph-name="bracketright" unicode="&#x5d;" horiz-adv-x="274" d="M42 721 L42 700 L200 700 L200 -212 L42 -212 L42 -232 L224 -232 L224 721 L42 721 Z " />
<glyph glyph-name="asciicircum" unicode="&#x5e;" horiz-adv-x="413" d="M54 450 L77 450 L210 679 L344 450 L366 450 L222 699 L199 699 L54 450 L54 450 Z " />
<glyph glyph-name="underscore" unicode="&#x5f;" horiz-adv-x="540" d="M44 -100 L490 -100 L490 -79 L44 -79 L44 -100 L44 -100 Z " />
<glyph glyph-name="grave" unicode="&#x60;" horiz-adv-x="249" d="M58 629 L173 513 L202 513 L93 629 L58 629 L58 629 Z " />
<glyph glyph-name="a" unicode="a" horiz-adv-x="582" d="M510 453 L510 323 C494 366 466 399 428 423 C390 446 342 458 286 458 C206 458 144 433 98 382 C53 332 30 262 30 175 C30 87 53 18 98 -33 C144 -83 206 -109 286 -109 C343 -109 391 -97 429 -73 C468 -49 496 -15 512 29 L512 -65 L512 -100 L532 -100 L532 -65 L532 453 L510 453 L510 453 Z M510 136 C510 67 491 12 451 -29 C412 -70 357 -90 286 -90 C214 -90 157 -66 115 -19 C74 28 53 93 53 175 C53 256 74 321 115 368 C157 415 214 439 286 439 C358 439 413 418 452 376 C491 334 510 277 510 205 L510 136 L510 136 Z " />
<glyph glyph-name="b" unicode="b" horiz-adv-x="582" d="M484 382 C438 433 376 458 296 458 C240 458 192 446 154 423 C116 399 88 366 72 323 L72 629 L50 629 L50 -68 L50 -100 L70 -100 L70 -68 L70 29 C86 -15 114 -49 153 -73 C191 -97 239 -109 296 -109 C376 -109 438 -83 484 -33 C529 18 552 87 552 175 C552 262 529 332 484 382 L484 382 Z M467 -18 C425 -66 368 -90 296 -90 C225 -90 170 -70 131 -29 C91 12 72 67 72 136 L72 205 C72 277 91 334 130 376 C169 418 225 439 296 439 C368 439 425 415 467 368 C509 321 530 256 530 175 C530 93 509 29 467 -18 L467 -18 Z " />
<glyph glyph-name="c" unicode="c" horiz-adv-x="593" d="M297 -109 C362 -109 415 -92 458 -59 C501 -25 530 23 544 84 L521 90 C521 90 518 76 517 70 C501 19 475 -20 436 -48 C398 -76 352 -90 297 -90 C224 -90 167 -66 125 -19 C84 28 63 93 63 175 C63 256 84 321 125 368 C167 415 224 439 297 439 C349 439 393 426 431 400 C468 374 495 337 512 290 C514 285 517 273 517 273 C517 273 531 276 537 277 L540 278 C524 335 495 379 453 411 C411 442 359 458 297 458 C217 458 155 433 109 382 C63 332 40 262 40 175 C40 87 63 18 109 -33 C155 -83 217 -109 297 -109 L297 -109 Z " />
<glyph glyph-name="d" unicode="d" horiz-adv-x="584" d="M511 629 L511 323 C494 366 467 399 429 423 C390 446 343 458 287 458 C207 458 145 433 99 382 C53 332 31 262 31 175 C31 87 53 18 99 -33 C145 -83 207 -109 287 -109 C344 -109 392 -97 430 -73 C469 -49 496 -15 513 29 L513 -68 L513 -100 L534 -100 L534 -68 L534 629 L511 629 L511 629 Z M511 136 C511 67 491 12 452 -29 C413 -70 358 -90 287 -90 C215 -90 158 -66 116 -19 C74 28 53 93 53 175 C53 256 74 321 116 368 C158 415 215 439 287 439 C358 439 414 418 453 376 C492 334 511 277 511 205 L511 136 L511 136 Z " />
<glyph glyph-name="e" unicode="e" horiz-adv-x="573" d="M532 272 C525 297 515 320 501 343 C488 365 471 385 451 402 C432 419 408 433 379 443 C351 453 320 458 286 458 C208 458 145 432 99 380 C52 328 28 259 28 173 C28 87 52 19 99 -32 C145 -83 208 -109 286 -109 C346 -109 396 -94 437 -65 C478 -35 508 8 526 64 L505 69 C505 69 503 63 499 53 C480 7 453 -28 417 -53 C382 -77 338 -90 286 -90 C215 -90 158 -66 116 -19 C73 28 52 92 51 171 L505 171 L523 171 L541 171 L541 191 L541 198 C541 223 538 248 532 272 L532 272 Z M51 190 C55 265 78 326 120 371 C162 417 217 439 286 439 C357 439 413 416 455 369 C497 322 518 262 519 190 L51 190 L51 190 Z " />
<glyph glyph-name="f" unicode="f" horiz-adv-x="372" d="M306 629 L220 629 C178 629 146 615 124 588 C101 561 90 522 90 472 L90 446 L36 446 L14 446 L14 444 L14 427 L34 427 L36 427 L90 427 L90 -100 L112 -100 L112 427 L302 427 L302 446 L112 446 L112 472 C112 516 121 550 140 574 C158 597 185 609 220 609 L306 609 L319 609 L339 609 L339 625 L339 629 L306 629 L306 629 Z " />
<glyph glyph-name="g" unicode="g" horiz-adv-x="583" d="M533 448 L510 448 L510 323 C494 366 466 399 428 423 C390 447 343 459 286 459 C206 459 144 433 98 382 C53 332 30 263 30 175 C30 87 53 18 98 -33 C144 -84 206 -109 286 -109 C343 -109 391 -97 429 -73 C467 -50 494 -17 510 24 L510 -147 C510 -184 500 -213 480 -233 C460 -254 431 -264 393 -264 L159 -264 L156 -264 L136 -264 L136 -279 L136 -283 L159 -283 L393 -283 C438 -283 472 -271 496 -248 C521 -225 533 -191 533 -147 L533 448 L533 448 L533 448 Z M510 136 C510 67 491 12 451 -29 C412 -69 357 -90 286 -90 C214 -90 157 -66 115 -19 C74 28 53 93 53 175 C53 257 74 321 115 368 C157 416 214 439 286 439 C358 439 413 418 452 376 C491 335 510 277 510 205 L510 136 L510 136 Z " />
<glyph glyph-name="h" unicode="h" horiz-adv-x="497" d="M260 457 C164 457 101 419 72 342 L72 629 L50 629 L50 -100 L72 -100 L72 244 C72 373 135 438 260 438 C375 438 432 363 432 213 L432 -100 L454 -100 L454 213 C454 293 439 354 407 396 C376 437 327 457 260 457 L260 457 Z " />
<glyph glyph-name="i" unicode="i" horiz-adv-x="123" d="M50 -100 L73 -100 L73 447 L50 447 L50 -100 Z M44 605 L44 567 L76 567 L76 605 L44 605 Z " />
<glyph glyph-name="j" unicode="j" horiz-adv-x="122" d="M50 -148 C50 -185 40 -214 19 -234 C-1 -255 -30 -265 -68 -265 L-167 -265 L-167 -284 L-68 -284 C-23 -284 12 -272 36 -249 C60 -226 72 -192 72 -148 L72 447 L50 447 L50 -148 L50 -148 Z M45 605 L45 567 L77 567 L77 605 L45 605 Z " />
<glyph glyph-name="k" unicode="k" horiz-adv-x="446" d="M132 212 L384 447 L350 447 L73 183 L73 630 L50 630 L50 -100 L73 -100 L73 156 L116 197 L396 -100 L408 -100 L429 -100 L132 212 Z " />
<glyph glyph-name="l" unicode="l" horiz-adv-x="248" d="M209 -81 L204 -81 L180 -81 C146 -81 119 -69 101 -45 C82 -22 73 12 73 56 L73 629 L50 629 L50 56 C50 6 62 -32 84 -59 C106 -86 139 -100 180 -100 L204 -100 L229 -100 L229 -96 L229 -81 L209 -81 L209 -81 Z " />
<glyph glyph-name="m" unicode="m" horiz-adv-x="779" d="M570 457 C474 457 416 413 395 324 C375 413 324 457 240 457 C151 457 95 421 70 348 L70 448 L50 448 L50 -100 L72 -100 L72 244 C72 313 85 362 111 392 C137 423 180 438 240 438 C286 438 321 422 345 389 C369 356 380 304 380 234 L380 -100 L403 -100 L403 234 C403 303 416 355 443 388 C469 421 511 438 570 438 C617 438 652 422 676 389 C699 356 711 304 711 234 L711 -100 L733 -100 L733 234 C733 383 679 457 570 457 L570 457 Z " />
<glyph glyph-name="n" unicode="n" horiz-adv-x="497" d="M408 396 C376 437 328 457 261 457 C161 457 98 417 71 336 L71 448 L50 448 L50 -100 L73 -100 L73 244 C73 373 135 438 261 438 C375 438 432 363 432 213 L432 -100 L455 -100 L455 213 C455 293 439 354 408 396 L408 396 Z " />
<glyph glyph-name="o" unicode="o" horiz-adv-x="573" d="M286 -109 C366 -109 429 -83 474 -33 C520 18 543 87 543 175 C543 262 520 331 474 382 C429 433 366 458 286 458 C207 458 144 433 99 382 C53 332 30 262 30 175 C30 87 53 18 99 -33 C144 -83 207 -109 286 -109 L286 -109 Z M115 -19 C74 28 53 93 53 175 C53 256 74 321 115 368 C157 415 214 439 286 439 C359 439 416 415 458 368 C500 321 521 256 521 175 C521 93 500 29 458 -18 C416 -66 359 -90 286 -90 C214 -90 157 -66 115 -19 L115 -19 Z " />
<glyph glyph-name="p" unicode="p" horiz-adv-x="582" d="M484 382 C438 433 376 458 296 458 C239 458 191 446 153 422 C114 398 87 364 70 321 L70 448 L50 448 L50 -281 L72 -281 L72 27 C89 -16 116 -50 154 -74 C192 -97 240 -109 296 -109 C376 -109 438 -83 484 -33 C529 18 552 87 552 175 C552 262 529 331 484 382 L484 382 Z M467 -18 C425 -66 368 -90 296 -90 C225 -90 170 -69 130 -27 C91 15 72 72 72 144 L72 213 C72 283 91 338 131 378 C170 419 225 439 296 439 C368 439 425 415 467 368 C509 321 530 256 530 175 C530 93 509 29 467 -18 L467 -18 Z " />
<glyph glyph-name="q" unicode="q" horiz-adv-x="583" d="M513 448 L513 321 C496 364 468 398 430 422 C391 446 344 458 287 458 C207 458 144 433 99 382 C53 331 30 262 30 175 C30 87 53 18 99 -33 C144 -83 207 -109 287 -109 C343 -109 390 -97 428 -74 C466 -50 494 -16 511 27 L511 -281 L533 -281 L533 448 L513 448 Z M511 144 C511 72 491 15 452 -27 C413 -69 358 -90 287 -90 C214 -90 157 -66 115 -19 C74 28 53 93 53 175 C53 256 74 321 115 368 C157 415 214 439 287 439 C357 439 412 419 452 378 C491 338 511 283 511 213 L511 144 L511 144 Z " />
<glyph glyph-name="r" unicode="r" horiz-adv-x="297" d="M247 447 C203 445 167 436 138 420 C106 402 84 374 70 335 L70 448 L50 448 L50 -100 L72 -100 L72 244 C72 308 87 355 118 384 C149 412 191 427 244 428 L266 428 L266 447 L247 447 Z " />
<glyph glyph-name="s" unicode="s" horiz-adv-x="473" d="M234 -109 C303 -109 356 -96 393 -71 C431 -45 449 -8 449 42 C449 116 391 167 275 196 L200 214 C161 224 131 237 110 255 C90 273 79 299 79 334 C79 362 94 386 124 408 C153 428 193 439 243 439 C276 439 305 433 330 420 C368 399 399 363 399 363 L415 377 C410 386 402 394 392 402 C383 411 371 419 356 428 C342 437 325 444 305 450 C285 455 265 458 243 458 C186 458 142 446 108 422 C74 397 57 368 57 334 C57 295 69 264 93 243 C116 221 150 205 194 195 L271 177 C321 165 359 148 386 127 C413 105 427 77 427 42 C427 -2 410 -35 377 -57 C344 -79 296 -90 234 -90 C200 -90 167 -83 135 -69 C102 -56 79 -41 63 -24 C56 -15 51 -11 51 -11 L36 -27 C51 -48 77 -67 116 -84 C154 -101 193 -109 234 -109 L234 -109 Z " />
<glyph glyph-name="t" unicode="t" horiz-adv-x="362" d="M341 427 L341 446 L122 446 L122 629 L100 629 L100 446 L14 446 L14 427 L100 427 L100 56 C100 6 111 -32 133 -59 C156 -86 188 -100 229 -100 L339 -100 L339 -81 L229 -81 C195 -81 168 -69 150 -45 C131 -22 122 12 122 56 L122 427 L341 427 L341 427 Z " />
<glyph glyph-name="u" unicode="u" horiz-adv-x="504" d="M432 448 L432 105 C432 -25 369 -90 243 -90 C184 -90 141 -71 114 -32 C86 6 72 62 72 135 L72 448 L50 448 L50 135 C50 55 66 -6 97 -47 C128 -88 177 -109 243 -109 C343 -109 407 -68 434 13 L434 -100 L454 -100 L454 448 L432 448 L432 448 Z " />
<glyph glyph-name="v" unicode="v" horiz-adv-x="481" d="M431 448 L240 -68 L49 448 L25 448 L228 -100 L253 -100 L456 448 L431 448 L431 448 Z " />
<glyph glyph-name="w" unicode="w" horiz-adv-x="777" d="M726 448 L559 -64 L392 448 L380 448 L213 -64 L46 448 L21 448 L201 -100 L225 -100 L386 390 L547 -100 L571 -100 L751 448 L726 448 L726 448 Z " />
<glyph glyph-name="x" unicode="x" horiz-adv-x="506" d="M490 -100 L267 201 L449 447 L425 447 L255 217 L84 447 L57 447 L241 199 L19 -100 L44 -100 L252 183 L462 -100 L490 -100 L490 -100 Z " />
<glyph glyph-name="y" unicode="y" horiz-adv-x="482" d="M433 448 L241 -71 L50 448 L24 448 L231 -99 L198 -187 C189 -210 178 -228 163 -240 C149 -253 133 -259 116 -259 L76 -259 L76 -281 L106 -281 C130 -281 152 -274 172 -259 C192 -244 207 -223 217 -198 L457 448 L433 448 L433 448 Z " />
<glyph glyph-name="z" unicode="z" horiz-adv-x="500" d="M476 448 L27 448 L27 429 L446 429 L27 -81 L27 -100 L476 -100 L476 -81 L58 -81 L476 429 L476 448 L476 448 Z " />
<glyph glyph-name="braceleft" unicode="&#x7b;" horiz-adv-x="246" d="M190 721 C160 720 136 709 118 687 C100 665 91 635 91 597 L91 350 C91 336 88 323 84 310 C79 297 74 287 69 280 C63 273 57 266 49 260 C42 255 37 251 34 249 C31 247 29 246 27 245 L34 242 C38 240 43 236 49 231 C56 225 62 219 68 211 C74 203 80 193 84 181 C88 168 91 154 91 140 L91 -108 C91 -146 100 -176 118 -198 C136 -221 161 -232 192 -232 L210 -232 L210 -227 L210 -212 L192 -212 L187 -212 C165 -212 148 -202 135 -183 C122 -165 115 -139 115 -108 L115 144 C115 158 113 171 109 183 C105 195 100 205 95 212 C90 219 84 225 78 231 C71 237 66 241 63 242 C61 244 59 245 57 245 L63 249 C67 251 72 255 78 260 C83 266 89 272 95 279 C100 287 105 296 109 308 C113 320 115 332 115 346 L115 597 C115 628 122 654 135 672 C148 691 165 700 187 700 L190 700 L210 700 L210 715 L210 721 L190 721 Z " />
<glyph glyph-name="bar" unicode="&#x7c;" horiz-adv-x="124" d="M50 721 L50 -231 L74 -231 L74 721 L50 721 Z " />
<glyph glyph-name="braceright" unicode="&#x7d;" horiz-adv-x="245" d="M212 248 C207 250 202 254 196 259 C190 265 184 272 177 279 C171 287 166 297 161 309 C157 322 155 335 155 349 L155 596 C155 634 146 664 127 686 C109 708 86 719 56 720 L56 720 L53 720 L35 720 L35 700 L56 700 L58 700 C80 700 98 690 111 671 C124 653 131 627 131 596 L131 345 C131 331 133 319 137 307 C141 295 146 285 151 278 C156 271 162 265 168 259 C175 253 179 250 182 248 C184 246 186 245 188 244 L182 241 C178 239 174 235 168 230 C162 225 156 218 151 211 C145 204 140 194 136 182 C133 170 131 157 131 143 L131 -109 C131 -140 124 -166 111 -184 C98 -203 80 -213 58 -213 L53 -213 L35 -213 L35 -233 L53 -233 C84 -233 109 -222 127 -199 C146 -177 155 -147 155 -109 L155 139 C155 153 157 167 162 180 C166 193 171 203 177 210 C182 217 189 224 196 230 C204 236 209 240 212 241 C214 243 217 244 218 244 L212 248 L212 248 Z " />
<glyph glyph-name="asciitilde" unicode="&#x7e;" horiz-adv-x="572" d="M410 212 C449 212 477 224 496 248 C515 272 527 308 532 355 L531 355 C516 355 509 350 508 338 C504 303 495 276 480 259 C465 241 442 233 410 233 C398 233 383 238 368 249 C352 259 337 272 321 287 C306 302 291 318 274 333 C258 348 240 361 221 372 C201 382 182 388 163 388 C123 388 93 376 74 351 C55 327 44 291 41 243 L43 243 C58 240 66 245 67 258 C70 295 79 322 94 341 C108 359 132 367 163 367 C175 367 188 365 200 359 C213 353 225 346 236 337 C247 328 258 318 269 306 C280 295 291 284 302 273 C313 262 325 252 336 243 C347 234 359 227 372 221 C385 215 398 212 410 212 L410 212 Z " />
<glyph glyph-name="cent" unicode="&#xa2;" horiz-adv-x="593" d="M564 176 C558 177 545 180 545 180 C545 180 541 166 540 161 C525 110 498 71 460 43 C422 15 375 1 320 1 C315 1 312 2 307 2 L307 529 C311 530 315 530 320 530 C372 530 417 517 454 491 C491 465 518 428 535 381 C537 376 541 364 541 364 C541 364 555 366 560 368 L563 369 C547 426 518 470 476 502 C434 533 382 549 320 549 L307 549 L307 641 L286 641 L286 547 C217 540 162 512 123 462 C83 413 64 347 64 266 C64 184 83 119 123 69 C163 19 217 -9 287 -16 L287 -109 L308 -109 L308 -18 L320 -18 C385 -18 439 -1 482 32 C524 66 553 114 567 175 L564 176 L564 176 Z M149 72 C107 119 86 184 86 266 C86 347 107 412 149 459 C184 499 230 522 287 528 L287 3 C230 9 184 32 149 72 L149 72 Z " />
<glyph glyph-name="sterling" unicode="&#xa3;" horiz-adv-x="567" d="M86 -78 C132 -6 156 81 156 183 C156 199 154 215 150 231 L407 231 L430 231 L451 231 L451 251 L451 253 L407 253 L146 253 C140 270 132 290 120 313 C108 335 99 357 91 377 C84 397 80 417 80 439 C80 497 99 542 138 573 C178 605 230 620 296 620 C369 620 428 597 475 550 C483 542 487 538 487 538 L503 551 C454 611 385 640 296 640 C261 640 230 636 202 629 C174 621 151 610 133 597 C115 584 100 569 89 551 C77 533 68 515 63 496 C58 477 56 457 56 437 C56 413 59 392 67 372 C74 352 84 331 95 310 C107 288 115 269 120 253 L92 253 L76 253 L56 253 L56 233 L56 231 L92 231 L126 231 C130 214 131 197 131 180 C131 133 126 89 114 48 C102 7 83 -36 56 -78 L56 -100 L532 -100 L532 -78 L86 -78 L86 -78 Z " />
<glyph glyph-name="yen" unicode="&#xa5;" horiz-adv-x="579" d="M556 629 L525 629 L336 328 L250 328 L61 629 L31 629 L225 328 L217 328 L153 328 L114 328 L94 328 L94 308 L94 306 L153 306 L217 306 L239 306 L281 239 L281 162 L134 162 L114 162 L94 162 L94 142 L94 140 L134 140 L281 140 L281 -100 L305 -100 L305 140 L434 140 L469 140 L489 140 L489 160 L489 162 L434 162 L305 162 L305 240 L348 306 L469 306 L489 306 L489 326 L489 328 L362 328 L556 629 L556 629 Z M293 259 L264 306 L322 306 L293 259 L293 259 Z " />
<glyph glyph-name="dieresis" unicode="&#xa8;" horiz-adv-x="210" d="M43 592 L43 555 L75 555 L75 592 L43 592 Z M140 592 L140 555 L172 555 L172 592 L140 592 Z " />
<glyph glyph-name="acute" unicode="&#xb4;" horiz-adv-x="219" d="M35 513 L62 513 L179 629 L146 629 L35 513 L35 513 Z " />
<glyph glyph-name="cedilla" unicode="&#xb8;" horiz-adv-x="245" d="M204 -182 C194 -173 179 -168 160 -168 L74 -168 L86 -100 L67 -100 L57 -166 C56 -173 58 -178 61 -183 C65 -188 72 -190 81 -190 L168 -190 C177 -190 185 -193 191 -199 C197 -206 200 -214 200 -224 C200 -236 195 -246 185 -253 C176 -259 162 -263 145 -263 L74 -263 L59 -263 L39 -263 L39 -285 L74 -285 L140 -285 C165 -285 185 -280 199 -269 C213 -258 220 -243 220 -224 C220 -206 215 -192 204 -182 L204 -182 Z " />
<glyph glyph-name="Agrave" unicode="&#xc0;" horiz-adv-x="614" d="M568 -100 L477 143 L136 143 L44 -100 L19 -100 L295 629 L319 629 L597 -100 L568 -100 L568 -100 Z M143 163 L470 163 L308 604 L143 163 L143 163 Z M235 829 L350 713 L379 713 L270 829 L235 829 L235 829 Z " />
<glyph glyph-name="Aacute" unicode="&#xc1;" horiz-adv-x="614" d="M568 -100 L597 -100 L319 629 L295 629 L19 -100 L44 -100 L136 143 L477 143 L568 -100 Z M143 163 L308 604 L470 163 L143 163 Z M237 713 L264 713 L381 829 L348 829 L237 713 Z " />
<glyph glyph-name="Acircumflex" unicode="&#xc2;" horiz-adv-x="614" d="M568 -100 L477 143 L136 143 L44 -100 L19 -100 L295 629 L319 629 L597 -100 L568 -100 L568 -100 Z M143 163 L470 163 L308 604 L143 163 L143 163 Z M334 828 C325 837 316 841 306 841 C297 841 288 837 279 828 L176 725 L207 725 L306 824 L406 725 L437 725 L334 828 Z " />
<glyph glyph-name="Atilde" unicode="&#xc3;" horiz-adv-x="614" d="M568 -100 L597 -100 L319 629 L295 629 L19 -100 L44 -100 L136 143 L477 143 L568 -100 Z M143 163 L308 604 L470 163 L143 163 Z M421 694 C452 694 473 704 488 724 C503 744 512 774 516 813 L515 813 C504 813 498 809 497 799 C494 770 487 748 476 733 C464 718 446 712 421 712 C412 712 400 716 389 725 C376 733 365 744 352 757 C341 769 329 783 316 795 C303 808 289 818 275 828 C259 836 244 841 230 841 C199 841 175 831 161 810 C146 790 137 760 135 720 L137 720 C148 718 154 722 155 733 C158 763 164 786 176 802 C187 817 206 823 230 823 C239 823 249 822 258 817 C268 812 278 806 286 798 C295 791 303 783 312 773 C320 763 329 754 338 745 C346 736 355 728 364 720 C372 713 382 707 392 702 C402 697 412 694 421 694 L421 694 Z " />
<glyph glyph-name="Adieresis" unicode="&#xc4;" horiz-adv-x="614" d="M568 -100 L597 -100 L319 629 L295 629 L19 -100 L44 -100 L136 143 L477 143 L568 -100 Z M143 163 L308 604 L470 163 L143 163 Z M244 792 L244 755 L276 755 L276 792 L244 792 Z M341 792 L341 755 L373 755 L373 792 L341 792 Z " />
<glyph glyph-name="Aring" unicode="&#xc5;" horiz-adv-x="614" d="M568 -100 L597 -100 L319 629 L295 629 L19 -100 L44 -100 L136 143 L477 143 L568 -100 Z M143 163 L308 604 L470 163 L143 163 Z M357 714 C371 728 378 746 378 767 C378 788 371 806 357 820 C343 834 326 841 305 841 C283 841 266 834 252 820 C238 806 231 788 231 767 C231 746 238 728 252 714 C266 700 283 694 305 694 C326 694 343 700 357 714 L357 714 Z M267 730 C258 739 253 752 253 767 C253 782 258 795 267 805 C277 815 290 820 305 820 C319 820 332 815 341 805 C351 795 356 782 356 767 C356 752 351 739 341 730 C332 720 319 715 305 715 C290 715 277 720 267 730 L267 730 Z " />
<glyph glyph-name="AE" unicode="&#xc6;" horiz-adv-x="768" d="M328 608 L725 608 L725 629 L291 629 L14 -101 L40 -101 L131 143 L303 143 L303 -101 L725 -101 L725 -81 L328 -81 L328 264 L716 264 L716 284 L328 284 L328 608 L328 608 Z M303 163 L138 163 L303 604 L303 604 L303 163 L303 163 Z " />
<glyph glyph-name="Ccedilla" unicode="&#xc7;" horiz-adv-x="833" d="M427 -109 C514 -109 586 -86 643 -42 C701 3 740 75 758 148 L736 153 C736 153 707 31 624 -31 C571 -70 505 -88 427 -88 C328 -88 252 -58 198 4 C145 65 118 152 118 266 C118 380 145 468 198 529 C252 590 328 621 427 621 C500 621 563 603 615 567 C667 532 703 481 725 415 C727 410 730 398 730 398 L754 403 C732 479 692 538 636 579 C579 621 510 641 427 641 C321 641 239 609 181 544 C122 479 94 386 94 266 C94 146 122 54 181 -11 C239 -76 321 -109 427 -109 L427 -109 Z M491 -182 C481 -173 466 -168 447 -168 L361 -168 L373 -100 L354 -100 L344 -166 C343 -173 345 -178 348 -183 C352 -188 359 -190 368 -190 L455 -190 C464 -190 472 -193 478 -199 C484 -206 487 -214 487 -224 C487 -236 482 -246 472 -253 C463 -259 449 -263 432 -263 L361 -263 L346 -263 L326 -263 L326 -285 L361 -285 L427 -285 C452 -285 472 -280 486 -269 C500 -258 507 -243 507 -224 C507 -206 502 -192 491 -182 L491 -182 Z " />
<glyph glyph-name="Egrave" unicode="&#xc8;" horiz-adv-x="539" d="M482 608 L84 608 L84 285 L474 285 L474 264 L84 264 L84 -80 L482 -80 L482 -100 L60 -100 L60 629 L482 629 L482 608 L482 608 Z M197 829 L312 713 L341 713 L232 829 L197 829 L197 829 Z " />
<glyph glyph-name="Eacute" unicode="&#xc9;" horiz-adv-x="539" d="M482 608 L482 629 L60 629 L60 -100 L482 -100 L482 -80 L84 -80 L84 264 L474 264 L474 285 L84 285 L84 608 L482 608 Z M199 713 L226 713 L343 829 L310 829 L199 713 Z " />
<glyph glyph-name="Ecircumflex" unicode="&#xca;" horiz-adv-x="539" d="M482 608 L84 608 L84 285 L474 285 L474 264 L84 264 L84 -80 L482 -80 L482 -100 L60 -100 L60 629 L482 629 L482 608 L482 608 Z M297 828 C288 837 279 841 269 841 C260 841 251 837 242 828 L139 725 L170 725 L269 824 L369 725 L400 725 L297 828 Z " />
<glyph glyph-name="Edieresis" unicode="&#xcb;" horiz-adv-x="539" d="M482 608 L482 629 L60 629 L60 -100 L482 -100 L482 -80 L84 -80 L84 264 L474 264 L474 285 L84 285 L84 608 L482 608 Z M207 792 L207 755 L239 755 L239 792 L207 792 Z M304 792 L304 755 L336 755 L336 792 L304 792 Z " />
<glyph glyph-name="Igrave" unicode="&#xcc;" horiz-adv-x="160" d="M70 -100 L70 629 L94 629 L94 -100 L70 -100 L70 -100 Z M10 829 L125 713 L154 713 L45 829 L10 829 L10 829 Z " />
<glyph glyph-name="Iacute" unicode="&#xcd;" horiz-adv-x="150" d="M70 -100 L94 -100 L94 629 L70 629 L70 -100 Z M12 713 L39 713 L156 829 L123 829 L12 713 Z " />
<glyph glyph-name="Icircumflex" unicode="&#xce;" horiz-adv-x="220" d="M100 -100 L100 629 L124 629 L124 -100 L100 -100 L100 -100 Z M140 828 C131 837 122 841 112 841 C103 841 94 837 85 828 L-18 725 L13 725 L112 824 L212 725 L243 725 L140 828 Z " />
<glyph glyph-name="Idieresis" unicode="&#xcf;" horiz-adv-x="150" d="M60 -100 L84 -100 L84 629 L60 629 L60 -100 Z M10 792 L10 755 L42 755 L42 792 L10 792 Z M107 792 L107 755 L139 755 L139 792 L107 792 Z " />
<glyph glyph-name="Eth" unicode="&#xd0;" horiz-adv-x="752" d="M615 534 C557 597 473 629 365 629 L120 629 L120 275 L9 275 L9 253 L120 253 L120 -101 L365 -101 C473 -101 557 -70 615 -6 C673 57 703 147 703 264 C703 380 673 470 615 534 L615 534 Z M597 9 C543 -51 465 -81 365 -81 L145 -81 L145 253 L323 253 L323 275 L145 275 L145 608 L365 608 C465 608 543 578 597 518 C651 459 678 374 678 264 C678 154 651 69 597 9 L597 9 Z " />
<glyph glyph-name="Ntilde" unicode="&#xd1;" horiz-adv-x="601" d="M527 629 L527 -7 C527 -27 527 -64 527 -64 L75 629 L50 629 L50 -100 L74 -100 L74 536 C74 555 74 592 74 592 L526 -100 L551 -100 L551 629 L527 629 Z M415 694 C446 694 467 704 482 724 C497 744 506 774 510 813 L509 813 C498 813 492 809 491 799 C488 770 481 748 470 733 C458 718 440 712 415 712 C406 712 394 716 383 725 C370 733 359 744 346 757 C335 769 323 783 310 795 C297 808 283 818 269 828 C253 836 238 841 224 841 C193 841 169 831 155 810 C140 790 131 760 129 720 L131 720 C142 718 148 722 149 733 C152 763 158 786 170 802 C181 817 200 823 224 823 C233 823 243 822 252 817 C262 812 272 806 280 798 C289 791 297 783 306 773 C314 763 323 754 332 745 C340 736 349 728 358 720 C366 713 376 707 386 702 C396 697 406 694 415 694 L415 694 Z " />
<glyph glyph-name="Ograve" unicode="&#xd2;" horiz-adv-x="774" d="M637 -11 C579 -76 495 -109 388 -109 C279 -109 196 -76 137 -11 C78 55 49 147 49 266 C49 386 78 478 137 543 C196 608 279 641 388 641 C495 641 579 609 637 544 C696 479 725 386 725 266 C725 146 696 54 637 -11 L637 -11 Z M388 -88 C487 -88 565 -58 619 4 C673 65 700 153 700 266 C700 380 673 467 619 529 C565 590 487 621 388 621 C287 621 209 590 155 529 C101 467 73 380 73 266 C73 153 101 65 155 4 C209 -58 287 -88 388 -88 L388 -88 Z M315 829 L430 713 L459 713 L350 829 L315 829 L315 829 Z " />
<glyph glyph-name="Oacute" unicode="&#xd3;" horiz-adv-x="774" d="M637 -11 C696 54 725 146 725 266 C725 386 696 479 637 544 C579 609 495 641 388 641 C279 641 196 608 137 543 C78 478 49 386 49 266 C49 147 78 55 137 -11 C196 -76 279 -109 388 -109 C495 -109 579 -76 637 -11 L637 -11 Z M388 -88 C287 -88 209 -58 155 4 C101 65 73 153 73 266 C73 380 101 467 155 529 C209 590 287 621 388 621 C487 621 565 590 619 529 C673 467 700 380 700 266 C700 153 673 65 619 4 C565 -58 487 -88 388 -88 L388 -88 Z M317 713 L344 713 L461 829 L428 829 L317 713 Z " />
<glyph glyph-name="Ocircumflex" unicode="&#xd4;" horiz-adv-x="774" d="M637 -11 C579 -76 495 -109 388 -109 C279 -109 196 -76 137 -11 C78 55 49 147 49 266 C49 386 78 478 137 543 C196 608 279 641 388 641 C495 641 579 609 637 544 C696 479 725 386 725 266 C725 146 696 54 637 -11 L637 -11 Z M388 -88 C487 -88 565 -58 619 4 C673 65 700 153 700 266 C700 380 673 467 619 529 C565 590 487 621 388 621 C287 621 209 590 155 529 C101 467 73 380 73 266 C73 153 101 65 155 4 C209 -58 287 -88 388 -88 L388 -88 Z M414 828 C405 837 396 841 386 841 C377 841 368 837 359 828 L256 725 L287 725 L386 824 L486 725 L517 725 L414 828 Z " />
<glyph glyph-name="Otilde" unicode="&#xd5;" horiz-adv-x="774" d="M637 -11 C696 54 725 146 725 266 C725 386 696 479 637 544 C579 609 495 641 388 641 C279 641 196 608 137 543 C78 478 49 386 49 266 C49 147 78 55 137 -11 C196 -76 279 -109 388 -109 C495 -109 579 -76 637 -11 L637 -11 Z M388 -88 C287 -88 209 -58 155 4 C101 65 73 153 73 266 C73 380 101 467 155 529 C209 590 287 621 388 621 C487 621 565 590 619 529 C673 467 700 380 700 266 C700 153 673 65 619 4 C565 -58 487 -88 388 -88 L388 -88 Z M501 694 C532 694 553 704 568 724 C583 744 592 774 596 813 L595 813 C584 813 578 809 577 799 C574 770 567 748 556 733 C544 718 526 712 501 712 C492 712 480 716 469 725 C456 733 445 744 432 757 C421 769 409 783 396 795 C383 808 369 818 355 828 C339 836 324 841 310 841 C279 841 255 831 241 810 C226 790 217 760 215 720 L217 720 C228 718 234 722 235 733 C238 763 244 786 256 802 C267 817 286 823 310 823 C319 823 329 822 338 817 C348 812 358 806 366 798 C375 791 383 783 392 773 C400 763 409 754 418 745 C426 736 435 728 444 720 C452 713 462 707 472 702 C482 697 492 694 501 694 L501 694 Z " />
<glyph glyph-name="Odieresis" unicode="&#xd6;" horiz-adv-x="774" d="M637 -11 C696 54 725 146 725 266 C725 386 696 479 637 544 C579 609 495 641 388 641 C279 641 196 608 137 543 C78 478 49 386 49 266 C49 147 78 55 137 -11 C196 -76 279 -109 388 -109 C495 -109 579 -76 637 -11 L637 -11 Z M388 -88 C287 -88 209 -58 155 4 C101 65 73 153 73 266 C73 380 101 467 155 529 C209 590 287 621 388 621 C487 621 565 590 619 529 C673 467 700 380 700 266 C700 153 673 65 619 4 C565 -58 487 -88 388 -88 L388 -88 Z M324 792 L324 755 L356 755 L356 792 L324 792 Z M421 792 L421 755 L453 755 L453 792 L421 792 Z " />
<glyph glyph-name="multiply" unicode="&#xd7;" horiz-adv-x="233" d="M191 355 L158 355 L119 314 L80 355 L47 355 L104 298 L47 239 L75 239 L119 283 L163 239 L191 239 L134 298 L191 355 L191 355 Z " />
<glyph glyph-name="Oslash" unicode="&#xd8;" horiz-adv-x="774" d="M637 -11 C696 54 725 146 725 266 C725 386 696 479 637 544 C579 609 495 641 388 641 C279 641 196 608 137 543 C78 478 49 386 49 266 C49 147 78 55 137 -11 C196 -76 279 -109 388 -109 C495 -109 579 -76 637 -11 L637 -11 Z M388 -88 C287 -88 209 -58 155 4 C101 65 73 153 73 266 C73 380 101 467 155 529 C209 590 287 621 388 621 C487 621 565 590 619 529 C673 467 700 380 700 266 C700 153 673 65 619 4 C565 -58 487 -88 388 -88 L388 -88 Z M162 -203 L187 -203 L611 750 L586 750 L162 -203 Z " />
<glyph glyph-name="Ugrave" unicode="&#xd9;" horiz-adv-x="615" d="M501 -36 C458 -85 394 -109 307 -109 C221 -109 157 -85 114 -36 C71 13 50 86 50 185 L50 630 L73 630 L74 185 C74 3 152 -88 307 -88 C463 -88 540 3 540 185 L540 630 L565 630 L565 185 C565 86 544 13 501 -36 L501 -36 Z M235 829 L350 713 L379 713 L270 829 L235 829 L235 829 Z " />
<glyph glyph-name="Uacute" unicode="&#xda;" horiz-adv-x="615" d="M501 -36 C544 13 565 86 565 185 L565 630 L540 630 L540 185 C540 3 463 -88 307 -88 C152 -88 74 3 74 185 L73 630 L50 630 L50 185 C50 86 71 13 114 -36 C157 -85 221 -109 307 -109 C394 -109 458 -85 501 -36 L501 -36 Z M237 713 L264 713 L381 829 L348 829 L237 713 Z " />
<glyph glyph-name="Ucircumflex" unicode="&#xdb;" horiz-adv-x="615" d="M501 -36 C458 -85 394 -109 307 -109 C221 -109 157 -85 114 -36 C71 13 50 86 50 185 L50 630 L73 630 L74 185 C74 3 152 -88 307 -88 C463 -88 540 3 540 185 L540 630 L565 630 L565 185 C565 86 544 13 501 -36 L501 -36 Z M335 828 C326 837 317 841 307 841 C298 841 289 837 280 828 L177 725 L208 725 L307 824 L407 725 L438 725 L335 828 Z " />
<glyph glyph-name="Udieresis" unicode="&#xdc;" horiz-adv-x="615" d="M501 -36 C544 13 565 86 565 185 L565 630 L540 630 L540 185 C540 3 463 -88 307 -88 C152 -88 74 3 74 185 L73 630 L50 630 L50 185 C50 86 71 13 114 -36 C157 -85 221 -109 307 -109 C394 -109 458 -85 501 -36 L501 -36 Z M245 792 L245 755 L277 755 L277 792 L245 792 Z M342 792 L342 755 L374 755 L374 792 L342 792 Z " />
<glyph glyph-name="Yacute" unicode="&#xdd;" horiz-adv-x="579" d="M563 630 L533 630 L301 260 L69 630 L39 630 L289 240 L289 -100 L313 -100 L313 241 L563 630 Z M219 713 L246 713 L363 829 L330 829 L219 713 Z " />
<glyph glyph-name="agrave" unicode="&#xe0;" horiz-adv-x="582" d="M510 453 L510 323 C494 366 466 399 428 423 C390 446 342 458 286 458 C206 458 144 433 98 382 C53 332 30 262 30 175 C30 87 53 18 98 -33 C144 -83 206 -109 286 -109 C343 -109 391 -97 429 -73 C468 -49 496 -15 512 29 L512 -65 L512 -100 L532 -100 L532 -65 L532 453 L510 453 L510 453 Z M510 136 C510 67 491 12 451 -29 C412 -70 357 -90 286 -90 C214 -90 157 -66 115 -19 C74 28 53 93 53 175 C53 256 74 321 115 368 C157 415 214 439 286 439 C358 439 413 418 452 376 C491 334 510 277 510 205 L510 136 L510 136 Z M219 629 L334 513 L363 513 L254 629 L219 629 L219 629 Z " />
<glyph glyph-name="aacute" unicode="&#xe1;" horiz-adv-x="582" d="M510 453 L510 323 C494 366 466 399 428 423 C390 446 342 458 286 458 C206 458 144 433 98 382 C53 332 30 262 30 175 C30 87 53 18 98 -33 C144 -83 206 -109 286 -109 C343 -109 391 -97 429 -73 C468 -49 496 -15 512 29 L512 -65 L512 -100 L532 -100 L532 -65 L532 453 L510 453 L510 453 Z M510 136 C510 67 491 12 451 -29 C412 -70 357 -90 286 -90 C214 -90 157 -66 115 -19 C74 28 53 93 53 175 C53 256 74 321 115 368 C157 415 214 439 286 439 C358 439 413 418 452 376 C491 334 510 277 510 205 L510 136 L510 136 Z M221 513 L248 513 L365 629 L332 629 L221 513 Z " />
<glyph glyph-name="acircumflex" unicode="&#xe2;" horiz-adv-x="582" d="M510 453 L510 323 C494 366 466 399 428 423 C390 446 342 458 286 458 C206 458 144 433 98 382 C53 332 30 262 30 175 C30 87 53 18 98 -33 C144 -83 206 -109 286 -109 C343 -109 391 -97 429 -73 C468 -49 496 -15 512 29 L512 -65 L512 -100 L532 -100 L532 -65 L532 453 L510 453 L510 453 Z M510 136 C510 67 491 12 451 -29 C412 -70 357 -90 286 -90 C214 -90 157 -66 115 -19 C74 28 53 93 53 175 C53 256 74 321 115 368 C157 415 214 439 286 439 C358 439 413 418 452 376 C491 334 510 277 510 205 L510 136 L510 136 Z M318 628 C309 637 300 641 290 641 C281 641 272 637 263 628 L160 525 L191 525 L290 624 L390 525 L421 525 L318 628 Z " />
<glyph glyph-name="atilde" unicode="&#xe3;" horiz-adv-x="582" d="M510 453 L510 323 C494 366 466 399 428 423 C390 446 342 458 286 458 C206 458 144 433 98 382 C53 332 30 262 30 175 C30 87 53 18 98 -33 C144 -83 206 -109 286 -109 C343 -109 391 -97 429 -73 C468 -49 496 -15 512 29 L512 -65 L512 -100 L532 -100 L532 -65 L532 453 L510 453 L510 453 Z M510 136 C510 67 491 12 451 -29 C412 -70 357 -90 286 -90 C214 -90 157 -66 115 -19 C74 28 53 93 53 175 C53 256 74 321 115 368 C157 415 214 439 286 439 C358 439 413 418 452 376 C491 334 510 277 510 205 L510 136 L510 136 Z M406 494 C437 494 458 504 473 524 C488 544 497 574 501 613 L500 613 C489 613 483 609 482 599 C479 570 472 548 461 533 C449 518 431 512 406 512 C397 512 385 516 374 525 C361 533 350 544 337 557 C326 569 314 583 301 595 C288 608 274 618 260 628 C244 636 229 641 215 641 C184 641 160 631 146 610 C131 590 122 560 120 520 L122 520 C133 518 139 522 140 533 C143 563 149 586 161 602 C172 617 191 623 215 623 C224 623 234 622 243 617 C253 612 263 606 271 598 C280 591 288 583 297 573 C305 563 314 554 323 545 C331 536 340 528 349 520 C357 513 367 507 377 502 C387 497 397 494 406 494 L406 494 Z " />
<glyph glyph-name="adieresis" unicode="&#xe4;" horiz-adv-x="582" d="M510 453 L510 323 C494 366 466 399 428 423 C390 446 342 458 286 458 C206 458 144 433 98 382 C53 332 30 262 30 175 C30 87 53 18 98 -33 C144 -83 206 -109 286 -109 C343 -109 391 -97 429 -73 C468 -49 496 -15 512 29 L512 -65 L512 -100 L532 -100 L532 -65 L532 453 L510 453 L510 453 Z M510 136 C510 67 491 12 451 -29 C412 -70 357 -90 286 -90 C214 -90 157 -66 115 -19 C74 28 53 93 53 175 C53 256 74 321 115 368 C157 415 214 439 286 439 C358 439 413 418 452 376 C491 334 510 277 510 205 L510 136 L510 136 Z M228 592 L228 555 L260 555 L260 592 L228 592 Z M325 592 L325 555 L357 555 L357 592 L325 592 Z " />
<glyph glyph-name="aring" unicode="&#xe5;" horiz-adv-x="582" d="M510 453 L510 323 C494 366 466 399 428 423 C390 446 342 458 286 458 C206 458 144 433 98 382 C53 332 30 262 30 175 C30 87 53 18 98 -33 C144 -83 206 -109 286 -109 C343 -109 391 -97 429 -73 C468 -49 496 -15 512 29 L512 -65 L512 -100 L532 -100 L532 -65 L532 453 L510 453 L510 453 Z M510 136 C510 67 491 12 451 -29 C412 -70 357 -90 286 -90 C214 -90 157 -66 115 -19 C74 28 53 93 53 175 C53 256 74 321 115 368 C157 415 214 439 286 439 C358 439 413 418 452 376 C491 334 510 277 510 205 L510 136 L510 136 Z M341 514 C355 528 362 546 362 567 C362 588 355 606 341 620 C327 634 310 641 289 641 C267 641 250 634 236 620 C222 606 215 588 215 567 C215 546 222 528 236 514 C250 500 267 494 289 494 C310 494 327 500 341 514 L341 514 Z M251 530 C242 539 237 552 237 567 C237 582 242 595 251 605 C261 615 274 620 289 620 C303 620 316 615 325 605 C335 595 340 582 340 567 C340 552 335 539 325 530 C316 520 303 515 289 515 C274 515 261 520 251 530 L251 530 Z " />
<glyph glyph-name="ae" unicode="&#xe6;" horiz-adv-x="1064" d="M1013 270 C1007 295 997 318 983 341 C969 363 953 383 933 400 C913 417 889 431 861 441 C832 451 801 456 767 456 C689 456 627 430 580 378 C559 355 542 328 531 297 L531 454 L509 454 L509 322 C492 366 464 399 426 423 C388 446 341 458 285 458 C205 458 142 433 97 382 C51 332 28 263 28 175 C28 87 51 18 97 -33 C142 -83 205 -109 285 -109 C342 -109 389 -97 428 -73 C466 -49 494 -15 511 29 L511 -65 L511 -78 L511 -99 L529 -99 L531 -99 L531 -65 L531 46 C542 16 559 -11 580 -34 C627 -85 689 -111 767 -111 C827 -111 878 -96 919 -67 C960 -37 989 6 1007 62 L986 66 C986 66 984 61 980 51 C962 5 935 -30 899 -55 C863 -79 819 -92 767 -92 C696 -92 640 -68 597 -21 C555 26 533 90 533 169 L987 169 L1005 169 L1023 169 L1023 189 L1023 196 C1023 221 1020 246 1013 270 L1013 270 Z M509 136 C509 67 489 12 450 -29 C410 -70 355 -90 285 -90 C212 -90 155 -66 114 -19 C72 28 51 93 51 175 C51 256 72 321 114 368 C155 416 212 439 285 439 C356 439 411 418 450 376 C489 335 509 277 509 205 L509 136 L509 136 Z M533 188 C536 263 559 324 601 369 C643 414 699 437 767 437 C838 437 895 414 937 367 C979 320 1000 261 1001 188 L533 188 L533 188 Z " />
<glyph glyph-name="ccedilla" unicode="&#xe7;" horiz-adv-x="593" d="M297 -109 C362 -109 415 -92 458 -59 C501 -25 530 23 544 84 L521 90 C521 90 518 76 517 70 C501 19 475 -20 436 -48 C398 -76 352 -90 297 -90 C224 -90 167 -66 125 -19 C84 28 63 93 63 175 C63 256 84 321 125 368 C167 415 224 439 297 439 C349 439 393 426 431 400 C468 374 495 337 512 290 C514 285 517 273 517 273 C517 273 531 276 537 277 L540 278 C524 335 495 379 453 411 C411 442 359 458 297 458 C217 458 155 433 109 382 C63 332 40 262 40 175 C40 87 63 18 109 -33 C155 -83 217 -109 297 -109 L297 -109 Z M371 -182 C361 -173 346 -168 327 -168 L241 -168 L253 -100 L234 -100 L224 -166 C223 -173 225 -178 228 -183 C232 -188 239 -190 248 -190 L335 -190 C344 -190 352 -193 358 -199 C364 -206 367 -214 367 -224 C367 -236 362 -246 352 -253 C343 -259 329 -263 312 -263 L241 -263 L226 -263 L206 -263 L206 -285 L241 -285 L307 -285 C332 -285 352 -280 366 -269 C380 -258 387 -243 387 -224 C387 -206 382 -192 371 -182 L371 -182 Z " />
<glyph glyph-name="egrave" unicode="&#xe8;" horiz-adv-x="573" d="M532 272 C525 297 515 320 501 343 C488 365 471 385 451 402 C432 419 408 433 379 443 C351 453 320 458 286 458 C208 458 145 432 99 380 C52 328 28 259 28 173 C28 87 52 19 99 -32 C145 -83 208 -109 286 -109 C346 -109 396 -94 437 -65 C478 -35 508 8 526 64 L505 69 C505 69 503 63 499 53 C480 7 453 -28 417 -53 C382 -77 338 -90 286 -90 C215 -90 158 -66 116 -19 C73 28 52 92 51 171 L505 171 L523 171 L541 171 L541 191 L541 198 C541 223 538 248 532 272 L532 272 Z M51 190 C55 265 78 326 120 371 C162 417 217 439 286 439 C357 439 413 416 455 369 C497 322 518 262 519 190 L51 190 L51 190 Z M214 629 L329 513 L358 513 L249 629 L214 629 L214 629 Z " />
<glyph glyph-name="eacute" unicode="&#xe9;" horiz-adv-x="573" d="M532 272 C525 297 515 320 501 343 C488 365 471 385 451 402 C432 419 408 433 379 443 C351 453 320 458 286 458 C208 458 145 432 99 380 C52 328 28 259 28 173 C28 87 52 19 99 -32 C145 -83 208 -109 286 -109 C346 -109 396 -94 437 -65 C478 -35 508 8 526 64 L505 69 C505 69 503 63 499 53 C480 7 453 -28 417 -53 C382 -77 338 -90 286 -90 C215 -90 158 -66 116 -19 C73 28 52 92 51 171 L505 171 L523 171 L541 171 L541 191 L541 198 C541 223 538 248 532 272 L532 272 Z M51 190 C55 265 78 326 120 371 C162 417 217 439 286 439 C357 439 413 416 455 369 C497 322 518 262 519 190 L51 190 L51 190 Z M216 513 L243 513 L360 629 L327 629 L216 513 Z " />
<glyph glyph-name="ecircumflex" unicode="&#xea;" horiz-adv-x="573" d="M532 272 C525 297 515 320 501 343 C488 365 471 385 451 402 C432 419 408 433 379 443 C351 453 320 458 286 458 C208 458 145 432 99 380 C52 328 28 259 28 173 C28 87 52 19 99 -32 C145 -83 208 -109 286 -109 C346 -109 396 -94 437 -65 C478 -35 508 8 526 64 L505 69 C505 69 503 63 499 53 C480 7 453 -28 417 -53 C382 -77 338 -90 286 -90 C215 -90 158 -66 116 -19 C73 28 52 92 51 171 L505 171 L523 171 L541 171 L541 191 L541 198 C541 223 538 248 532 272 L532 272 Z M51 190 C55 265 78 326 120 371 C162 417 217 439 286 439 C357 439 413 416 455 369 C497 322 518 262 519 190 L51 190 L51 190 Z M314 628 C305 637 296 641 286 641 C277 641 268 637 259 628 L156 525 L187 525 L286 624 L386 525 L417 525 L314 628 Z " />
<glyph glyph-name="edieresis" unicode="&#xeb;" horiz-adv-x="573" d="M532 272 C525 297 515 320 501 343 C488 365 471 385 451 402 C432 419 408 433 379 443 C351 453 320 458 286 458 C208 458 145 432 99 380 C52 328 28 259 28 173 C28 87 52 19 99 -32 C145 -83 208 -109 286 -109 C346 -109 396 -94 437 -65 C478 -35 508 8 526 64 L505 69 C505 69 503 63 499 53 C480 7 453 -28 417 -53 C382 -77 338 -90 286 -90 C215 -90 158 -66 116 -19 C73 28 52 92 51 171 L505 171 L523 171 L541 171 L541 191 L541 198 C541 223 538 248 532 272 L532 272 Z M51 190 C55 265 78 326 120 371 C162 417 217 439 286 439 C357 439 413 416 455 369 C497 322 518 262 519 190 L51 190 L51 190 Z M224 592 L224 555 L256 555 L256 592 L224 592 Z M321 592 L321 555 L353 555 L353 592 L321 592 Z " />
<glyph glyph-name="igrave" unicode="&#xec;" horiz-adv-x="164" d="M75 -100 L75 447 L98 447 L98 -100 L75 -100 Z M6 629 L121 513 L150 513 L41 629 L6 629 Z " />
<glyph glyph-name="iacute" unicode="&#xed;" horiz-adv-x="123" d="M73 -100 L73 447 L50 447 L50 -100 L73 -100 Z M6 513 L123 629 L90 629 L-21 513 L6 513 Z " />
<glyph glyph-name="icircumflex" unicode="&#xee;" horiz-adv-x="123" d="M50 -100 L50 447 L73 447 L73 -100 L50 -100 Z M90 628 C81 637 72 641 62 641 C53 641 44 637 35 628 L-68 525 L-37 525 L62 624 L162 525 L193 525 L90 628 Z " />
<glyph glyph-name="idieresis" unicode="&#xef;" horiz-adv-x="123" d="M73 -100 L73 447 L50 447 L50 -100 L73 -100 Z M-4 592 L28 592 L28 629 L-4 629 L-4 592 Z M93 592 L125 592 L125 629 L93 629 L93 592 Z " />
<glyph glyph-name="eth" unicode="&#xf0;" horiz-adv-x="592" d="M355 617 L322 617 L283 576 L244 617 L211 617 L268 560 L211 501 L239 501 L283 545 L327 501 L355 501 L298 560 L355 617 Z M286 -109 C207 -109 144 -83 99 -33 C53 18 30 87 30 175 C30 262 53 332 99 382 C144 433 207 458 286 458 C366 458 429 433 474 382 C520 331 543 262 543 175 C543 87 520 18 474 -33 C429 -83 366 -109 286 -109 L286 -109 Z M115 -19 C157 -66 214 -90 286 -90 C359 -90 416 -66 458 -18 C500 29 521 93 521 175 C521 256 500 321 458 368 C416 415 359 439 286 439 C214 439 157 415 115 368 C74 321 53 256 53 175 C53 93 74 28 115 -19 L115 -19 Z " />
<glyph glyph-name="ntilde" unicode="&#xf1;" horiz-adv-x="497" d="M408 396 C376 437 328 457 261 457 C161 457 98 417 71 336 L71 448 L50 448 L50 -100 L73 -100 L73 244 C73 373 135 438 261 438 C375 438 432 363 432 213 L432 -100 L455 -100 L455 213 C455 293 439 354 408 396 L408 396 Z M338 494 C369 494 390 504 405 524 C420 544 429 574 433 613 L432 613 C421 613 415 609 414 599 C411 570 404 548 393 533 C381 518 363 512 338 512 C329 512 317 516 306 525 C293 533 282 544 269 557 C258 569 246 583 233 595 C220 608 206 618 192 628 C176 636 161 641 147 641 C116 641 92 631 78 610 C63 590 54 560 52 520 L54 520 C65 518 71 522 72 533 C75 563 81 586 93 602 C104 617 123 623 147 623 C156 623 166 622 175 617 C185 612 195 606 203 598 C212 591 220 583 229 573 C237 563 246 554 255 545 C263 536 272 528 281 520 C289 513 299 507 309 502 C319 497 329 494 338 494 L338 494 Z " />
<glyph glyph-name="ograve" unicode="&#xf2;" horiz-adv-x="573" d="M286 -109 C207 -109 144 -83 99 -33 C53 18 30 87 30 175 C30 262 53 332 99 382 C144 433 207 458 286 458 C366 458 429 433 474 382 C520 331 543 262 543 175 C543 87 520 18 474 -33 C429 -83 366 -109 286 -109 L286 -109 Z M115 -19 C157 -66 214 -90 286 -90 C359 -90 416 -66 458 -18 C500 29 521 93 521 175 C521 256 500 321 458 368 C416 415 359 439 286 439 C214 439 157 415 115 368 C74 321 53 256 53 175 C53 93 74 28 115 -19 L115 -19 Z M214 629 L329 513 L358 513 L249 629 L214 629 L214 629 Z " />
<glyph glyph-name="oacute" unicode="&#xf3;" horiz-adv-x="573" d="M286 -109 C366 -109 429 -83 474 -33 C520 18 543 87 543 175 C543 262 520 331 474 382 C429 433 366 458 286 458 C207 458 144 433 99 382 C53 332 30 262 30 175 C30 87 53 18 99 -33 C144 -83 207 -109 286 -109 L286 -109 Z M115 -19 C74 28 53 93 53 175 C53 256 74 321 115 368 C157 415 214 439 286 439 C359 439 416 415 458 368 C500 321 521 256 521 175 C521 93 500 29 458 -18 C416 -66 359 -90 286 -90 C214 -90 157 -66 115 -19 L115 -19 Z M216 513 L243 513 L360 629 L327 629 L216 513 Z " />
<glyph glyph-name="ocircumflex" unicode="&#xf4;" horiz-adv-x="573" d="M286 -109 C207 -109 144 -83 99 -33 C53 18 30 87 30 175 C30 262 53 332 99 382 C144 433 207 458 286 458 C366 458 429 433 474 382 C520 331 543 262 543 175 C543 87 520 18 474 -33 C429 -83 366 -109 286 -109 L286 -109 Z M115 -19 C157 -66 214 -90 286 -90 C359 -90 416 -66 458 -18 C500 29 521 93 521 175 C521 256 500 321 458 368 C416 415 359 439 286 439 C214 439 157 415 115 368 C74 321 53 256 53 175 C53 93 74 28 115 -19 L115 -19 Z M314 628 C305 637 296 641 286 641 C277 641 268 637 259 628 L156 525 L187 525 L286 624 L386 525 L417 525 L314 628 Z " />
<glyph glyph-name="otilde" unicode="&#xf5;" horiz-adv-x="573" d="M286 -109 C366 -109 429 -83 474 -33 C520 18 543 87 543 175 C543 262 520 331 474 382 C429 433 366 458 286 458 C207 458 144 433 99 382 C53 332 30 262 30 175 C30 87 53 18 99 -33 C144 -83 207 -109 286 -109 L286 -109 Z M115 -19 C74 28 53 93 53 175 C53 256 74 321 115 368 C157 415 214 439 286 439 C359 439 416 415 458 368 C500 321 521 256 521 175 C521 93 500 29 458 -18 C416 -66 359 -90 286 -90 C214 -90 157 -66 115 -19 L115 -19 Z M401 494 C432 494 453 504 468 524 C483 544 492 574 496 613 L495 613 C484 613 478 609 477 599 C474 570 467 548 456 533 C444 518 426 512 401 512 C392 512 380 516 369 525 C356 533 345 544 332 557 C321 569 309 583 296 595 C283 608 269 618 255 628 C239 636 224 641 210 641 C179 641 155 631 141 610 C126 590 117 560 115 520 L117 520 C128 518 134 522 135 533 C138 563 144 586 156 602 C167 617 186 623 210 623 C219 623 229 622 238 617 C248 612 258 606 266 598 C275 591 283 583 292 573 C300 563 309 554 318 545 C326 536 335 528 344 520 C352 513 362 507 372 502 C382 497 392 494 401 494 L401 494 Z " />
<glyph glyph-name="odieresis" unicode="&#xf6;" horiz-adv-x="573" d="M286 -109 C366 -109 429 -83 474 -33 C520 18 543 87 543 175 C543 262 520 331 474 382 C429 433 366 458 286 458 C207 458 144 433 99 382 C53 332 30 262 30 175 C30 87 53 18 99 -33 C144 -83 207 -109 286 -109 L286 -109 Z M115 -19 C74 28 53 93 53 175 C53 256 74 321 115 368 C157 415 214 439 286 439 C359 439 416 415 458 368 C500 321 521 256 521 175 C521 93 500 29 458 -18 C416 -66 359 -90 286 -90 C214 -90 157 -66 115 -19 L115 -19 Z M224 592 L224 555 L256 555 L256 592 L224 592 Z M321 592 L321 555 L353 555 L353 592 L321 592 Z " />
<glyph glyph-name="oslash" unicode="&#xf8;" horiz-adv-x="573" d="M125 -174 L149 -174 L455 515 L430 515 L125 -174 Z M286 -109 C366 -109 429 -83 474 -33 C520 18 543 87 543 175 C543 262 520 331 474 382 C429 433 366 458 286 458 C207 458 144 433 99 382 C53 332 30 262 30 175 C30 87 53 18 99 -33 C144 -83 207 -109 286 -109 L286 -109 Z M115 -19 C74 28 53 93 53 175 C53 256 74 321 115 368 C157 415 214 439 286 439 C359 439 416 415 458 368 C500 321 521 256 521 175 C521 93 500 29 458 -18 C416 -66 359 -90 286 -90 C214 -90 157 -66 115 -19 L115 -19 Z " />
<glyph glyph-name="ugrave" unicode="&#xf9;" horiz-adv-x="504" d="M432 448 L432 105 C432 -25 369 -90 243 -90 C184 -90 141 -71 114 -32 C86 6 72 62 72 135 L72 448 L50 448 L50 135 C50 55 66 -6 97 -47 C128 -88 177 -109 243 -109 C343 -109 407 -68 434 13 L434 -100 L454 -100 L454 448 L432 448 L432 448 Z M180 629 L295 513 L324 513 L215 629 L180 629 L180 629 Z " />
<glyph glyph-name="uacute" unicode="&#xfa;" horiz-adv-x="504" d="M432 448 L432 105 C432 -25 369 -90 243 -90 C184 -90 141 -71 114 -32 C86 6 72 62 72 135 L72 448 L50 448 L50 135 C50 55 66 -6 97 -47 C128 -88 177 -109 243 -109 C343 -109 407 -68 434 13 L434 -100 L454 -100 L454 448 L432 448 L432 448 Z M182 513 L209 513 L326 629 L293 629 L182 513 Z " />
<glyph glyph-name="ucircumflex" unicode="&#xfb;" horiz-adv-x="504" d="M432 448 L432 105 C432 -25 369 -90 243 -90 C184 -90 141 -71 114 -32 C86 6 72 62 72 135 L72 448 L50 448 L50 135 C50 55 66 -6 97 -47 C128 -88 177 -109 243 -109 C343 -109 407 -68 434 13 L434 -100 L454 -100 L454 448 L432 448 L432 448 Z M279 628 C270 637 261 641 251 641 C242 641 233 637 224 628 L121 525 L152 525 L251 624 L351 525 L382 525 L279 628 Z " />
<glyph glyph-name="udieresis" unicode="&#xfc;" horiz-adv-x="504" d="M432 448 L432 105 C432 -25 369 -90 243 -90 C184 -90 141 -71 114 -32 C86 6 72 62 72 135 L72 448 L50 448 L50 135 C50 55 66 -6 97 -47 C128 -88 177 -109 243 -109 C343 -109 407 -68 434 13 L434 -100 L454 -100 L454 448 L432 448 L432 448 Z M189 592 L189 555 L221 555 L221 592 L189 592 Z M286 592 L286 555 L318 555 L318 592 L286 592 Z " />
<glyph glyph-name="yacute" unicode="&#xfd;" horiz-adv-x="482" d="M433 448 L241 -71 L50 448 L24 448 L231 -99 L198 -187 C189 -210 178 -228 163 -240 C149 -253 133 -259 116 -259 L76 -259 L76 -281 L106 -281 C130 -281 152 -274 172 -259 C192 -244 207 -223 217 -198 L457 448 L433 448 L433 448 Z M171 513 L198 513 L315 629 L282 629 L171 513 Z " />
<glyph glyph-name="ydieresis" unicode="&#xff;" horiz-adv-x="482" d="M433 448 L241 -71 L50 448 L24 448 L231 -99 L198 -187 C189 -210 178 -228 163 -240 C149 -253 133 -259 116 -259 L76 -259 L76 -281 L106 -281 C130 -281 152 -274 172 -259 C192 -244 207 -223 217 -198 L457 448 L433 448 L433 448 Z M178 592 L178 555 L210 555 L210 592 L178 592 Z M275 592 L275 555 L307 555 L307 592 L275 592 Z " />
<glyph glyph-name="Lslash" unicode="&#x141;" horiz-adv-x="576" d="M164 -80 L164 220 L271 279 L283 285 L299 294 L288 313 L261 298 L164 244 L164 630 L140 630 L140 231 L39 176 L29 171 L12 161 L23 142 L50 157 L140 206 L140 -100 L561 -100 L561 -80 L164 -80 L164 -80 Z " />
<glyph glyph-name="lslash" unicode="&#x142;" horiz-adv-x="330" d="M293 -81 L288 -81 L265 -81 C230 -81 203 -69 185 -45 C166 -22 157 12 157 56 L157 257 L265 316 L276 322 L292 331 L282 350 L254 335 L157 282 L157 629 L135 629 L135 269 L33 214 L22 208 L6 199 L16 180 L43 195 L135 245 L135 56 C135 6 146 -32 169 -59 C191 -87 223 -100 265 -100 L288 -100 L313 -100 L313 -96 L313 -81 L293 -81 L293 -81 Z " />
<glyph glyph-name="OE" unicode="&#x152;" horiz-adv-x="1093" d="M663 608 L1061 608 L1061 629 L639 629 L639 540 C639 541 638 542 637 542 C578 608 495 641 387 641 C279 641 196 608 137 542 C78 477 49 385 49 265 C49 146 78 54 137 -12 C196 -77 279 -109 387 -109 C495 -109 578 -77 637 -12 C638 -11 639 -10 639 -10 L639 -100 L1061 -100 L1061 -80 L663 -80 L663 265 L1053 265 L1053 285 L663 285 L663 608 L663 608 Z M618 3 C564 -59 487 -89 387 -89 C287 -89 209 -59 155 3 C100 64 73 152 73 265 C73 378 100 466 155 528 C209 589 287 621 387 621 C487 621 564 589 618 528 C626 519 633 510 639 501 L639 29 C633 20 626 11 618 3 L618 3 Z " />
<glyph glyph-name="oe" unicode="&#x153;" horiz-adv-x="1025" d="M994 170 L994 198 C994 223 991 247 984 272 C978 296 968 320 954 342 C941 365 924 385 905 402 C885 419 861 433 832 443 C804 453 773 458 739 458 C661 458 598 432 551 380 C536 363 523 344 513 324 C503 345 490 365 475 382 C429 433 366 458 287 458 C207 458 145 433 99 382 C53 331 31 262 31 174 C31 87 53 17 99 -33 C145 -84 207 -109 287 -109 C366 -109 429 -84 475 -33 C490 -16 503 3 513 24 C523 3 536 -15 551 -32 C598 -84 661 -109 739 -109 C799 -109 849 -94 890 -65 C931 -35 961 8 979 64 L958 68 C958 68 956 63 952 53 C934 7 907 -28 871 -53 C835 -78 791 -90 739 -90 C668 -90 611 -66 569 -19 C550 2 535 26 525 53 C520 65 516 79 512 92 C507 116 504 142 504 170 L994 170 L994 170 Z M458 -19 C416 -66 359 -90 287 -90 C214 -90 157 -66 116 -19 C74 28 53 93 53 174 C53 256 74 321 116 368 C157 415 214 439 287 439 C359 439 416 415 458 368 C476 347 491 323 501 295 C488 259 481 218 481 172 C481 128 488 87 501 52 C490 25 476 2 458 -19 L458 -19 Z M504 190 C505 213 508 235 513 255 C516 269 520 282 525 294 C536 324 552 349 573 371 C615 416 670 439 739 439 C810 439 866 416 908 369 C950 322 971 262 972 190 L504 190 L504 190 Z " />
<glyph glyph-name="Scaron" unicode="&#x160;" horiz-adv-x="584" d="M290 -109 C376 -109 443 -91 489 -57 C535 -23 558 27 558 91 C558 189 500 252 385 282 L223 323 C120 349 68 398 68 470 C68 519 87 557 124 583 C162 610 215 623 285 623 C324 623 363 615 401 599 C440 584 472 564 497 539 C507 531 511 527 511 527 L526 542 C494 573 457 597 415 616 C374 634 330 643 285 643 C208 643 148 628 106 598 C65 568 44 525 44 470 C44 428 58 393 86 364 C114 336 157 314 214 300 L378 260 C482 235 534 178 534 91 C534 33 513 -11 471 -42 C429 -73 369 -89 290 -89 C244 -89 202 -81 162 -66 C122 -51 87 -30 57 -3 C52 1 42 10 42 10 C42 10 33 0 30 -5 L28 -8 C99 -75 186 -109 290 -109 L290 -109 Z M382 794 L418 829 L408 829 L403 829 L386 829 L375 818 C374 817 374 817 374 817 L287 730 L223 794 L199 817 L187 829 L170 829 L166 829 L156 829 L192 794 L259 726 C268 717 277 713 287 713 C296 713 305 717 314 726 L382 794 L382 794 Z " />
<glyph glyph-name="scaron" unicode="&#x161;" horiz-adv-x="473" d="M234 -109 C303 -109 356 -96 393 -71 C431 -45 449 -8 449 42 C449 116 391 167 275 196 L200 214 C161 224 131 237 110 255 C90 273 79 299 79 334 C79 362 94 386 124 408 C153 428 193 439 243 439 C276 439 305 433 330 420 C368 399 399 363 399 363 L415 377 C410 386 402 394 392 402 C383 411 371 419 356 428 C342 437 325 444 305 450 C285 455 265 458 243 458 C186 458 142 446 108 422 C74 397 57 368 57 334 C57 295 69 264 93 243 C116 221 150 205 194 195 L271 177 C321 165 359 148 386 127 C413 105 427 77 427 42 C427 -2 410 -35 377 -57 C344 -79 296 -90 234 -90 C200 -90 167 -83 135 -69 C102 -56 79 -41 63 -24 C56 -15 51 -11 51 -11 L36 -27 C51 -48 77 -67 116 -84 C154 -101 193 -109 234 -109 L234 -109 Z M326 594 L362 629 L352 629 L347 629 L330 629 L319 618 C318 617 318 617 318 617 L231 530 L167 594 L143 617 L131 629 L114 629 L110 629 L100 629 L136 594 L203 526 C212 517 221 513 231 513 C240 513 249 517 258 526 L326 594 L326 594 Z " />
<glyph glyph-name="Ydieresis" unicode="&#x178;" horiz-adv-x="579" d="M563 630 L533 630 L301 260 L69 630 L39 630 L289 240 L289 -100 L313 -100 L313 241 L563 630 Z M227 792 L227 755 L259 755 L259 792 L227 792 Z M324 792 L324 755 L356 755 L356 792 L324 792 Z " />
<glyph glyph-name="Zcaron" unicode="&#x17d;" horiz-adv-x="558" d="M26 630 L26 609 L509 609 L26 -79 L26 -100 L539 -100 L539 -79 L58 -79 L539 609 L539 630 L26 630 Z M369 794 L405 829 L395 829 L390 829 L373 829 L362 818 C361 817 361 817 361 817 L274 730 L210 794 L186 817 L174 829 L157 829 L153 829 L143 829 L179 794 L246 726 C255 717 264 713 274 713 C283 713 292 717 301 726 L369 794 L369 794 Z " />
<glyph glyph-name="zcaron" unicode="&#x17e;" horiz-adv-x="500" d="M476 448 L27 448 L27 429 L446 429 L27 -81 L27 -100 L476 -100 L476 -81 L58 -81 L476 429 L476 448 Z M340 594 L376 629 L366 629 L361 629 L344 629 L333 618 C332 617 332 617 332 617 L245 530 L181 594 L157 617 L145 629 L128 629 L124 629 L114 629 L150 594 L217 526 C226 517 235 513 245 513 C254 513 263 517 272 526 L340 594 L340 594 Z " />
<glyph glyph-name="circumflex" unicode="&#x2c6;" horiz-adv-x="326" d="M196 628 C187 637 178 641 168 641 C159 641 150 637 141 628 L38 525 L69 525 L168 624 L268 525 L299 525 L196 628 Z " />
<glyph glyph-name="caron" unicode="&#x2c7;" horiz-adv-x="349" d="M265 594 L301 629 L291 629 L286 629 L269 629 L258 618 C257 617 257 617 257 617 L170 530 L106 594 L82 617 L70 629 L53 629 L49 629 L39 629 L75 594 L142 526 C151 517 160 513 170 513 C179 513 188 517 197 526 L265 594 L265 594 L265 594 Z " />
<glyph glyph-name="ring" unicode="&#x2da;" horiz-adv-x="224" d="M164 514 C178 528 185 546 185 567 C185 588 178 606 164 620 C150 634 133 641 112 641 C90 641 73 634 59 620 C45 606 38 588 38 567 C38 546 45 528 59 514 C73 500 90 494 112 494 C133 494 150 500 164 514 L164 514 Z M74 530 C65 539 60 552 60 567 C60 582 65 595 74 605 C84 615 97 620 112 620 C126 620 139 615 148 605 C158 595 163 582 163 567 C163 552 158 539 148 530 C139 520 126 515 112 515 C97 515 84 520 74 530 L74 530 Z " />
<glyph glyph-name="tilde" unicode="&#x2dc;" horiz-adv-x="595" d="M413 494 C444 494 465 504 480 524 C495 544 504 574 508 613 L507 613 C496 613 490 609 489 599 C486 570 479 548 468 533 C456 518 438 512 413 512 C404 512 392 516 381 525 C368 533 357 544 344 557 C333 569 321 583 308 595 C295 608 281 618 267 628 C251 636 236 641 222 641 C191 641 167 631 153 610 C138 590 129 560 127 520 L129 520 C140 518 146 522 147 533 C150 563 156 586 168 602 C179 617 198 623 222 623 C231 623 241 622 250 617 C260 612 270 606 278 598 C287 591 295 583 304 573 C312 563 321 554 330 545 C338 536 347 528 356 520 C364 513 374 507 384 502 C394 497 404 494 413 494 L413 494 Z " />
<glyph glyph-name="quotedblleft" unicode="&#x201c;" horiz-adv-x="176" d="M47 520 C54 520 59 521 63 523 C66 525 69 529 71 536 C87 591 95 620 95 623 C95 630 93 637 88 641 C83 645 77 647 71 647 C64 647 58 645 53 641 C49 636 46 630 46 623 C46 614 50 607 56 602 C61 599 62 595 60 590 L42 527 C41 525 42 524 43 522 C44 520 45 520 47 520 L47 520 Z M108 520 C115 520 120 521 123 523 C127 525 130 529 131 536 C148 591 156 620 156 623 C156 630 153 637 148 641 C144 645 138 647 131 647 C125 647 119 645 114 641 C110 636 107 630 107 623 C107 614 111 607 117 602 C122 599 123 595 121 590 L103 527 C102 525 103 524 104 522 C105 520 106 520 108 520 L108 520 Z " />
<glyph glyph-name="quotedblright" unicode="&#x201d;" horiz-adv-x="177" d="M47 520 C54 520 59 521 63 523 C66 525 69 529 71 536 C87 591 95 620 95 623 C95 630 93 637 88 641 C83 645 77 647 71 647 C64 647 58 645 53 641 C49 636 46 630 46 623 C46 614 50 607 56 602 C61 599 62 595 60 590 L42 527 C41 525 42 524 43 522 C44 520 45 520 47 520 L47 520 Z M108 520 C115 520 120 521 123 523 C127 525 130 529 131 536 C148 591 156 620 156 623 C156 630 153 637 148 641 C144 645 138 647 131 647 C125 647 119 645 114 641 C110 636 107 630 107 623 C107 614 111 607 117 602 C122 599 123 595 121 590 L103 527 C102 525 103 524 104 522 C105 520 106 520 108 520 L108 520 Z " />
<glyph glyph-name="Euro" unicode="&#x20ac;" horiz-adv-x="624" d="M529 629 L416 629 C322 629 247 605 190 557 C133 508 98 438 85 347 L73 347 L67 347 L45 347 L45 327 L69 327 L82 327 C80 307 79 286 79 264 C79 253 80 237 81 217 L67 217 C67 217 66 217 66 217 L66 217 L45 217 L45 196 L66 196 L83 196 C94 101 128 28 185 -23 C243 -75 319 -100 416 -100 L532 -100 L565 -100 L565 -95 L565 -80 L550 -80 L532 -80 L416 -80 C327 -80 256 -56 203 -8 C150 39 118 108 107 196 L423 196 L441 196 L463 196 L463 217 L423 217 L105 217 C104 237 103 253 103 264 C103 286 104 307 106 327 L462 327 L472 327 L493 327 L493 347 L462 347 L109 347 C122 431 155 496 207 541 C260 586 330 609 416 609 L529 609 L551 609 L566 609 L566 624 L566 629 L529 629 L529 629 Z " />
<glyph glyph-name="fi" unicode="&#xfb01;" horiz-adv-x="395" d="M322 -100 L345 -100 L345 447 L322 447 L322 -100 L322 -100 Z M299 632 L213 632 C171 632 139 618 117 591 C94 564 83 525 83 475 L83 449 L7 449 L7 430 L83 430 L83 -100 L105 -100 L105 430 L294 430 L294 449 L105 449 L105 475 C105 519 115 553 133 576 C152 600 178 612 213 612 L316 612 L316 594 L349 594 L349 632 L299 632 Z " />
<glyph glyph-name="fl" unicode="&#xfb02;" horiz-adv-x="519" d="M306 629 L220 629 C178 629 146 615 124 588 C101 561 90 522 90 472 L90 446 L36 446 L14 446 L14 444 L14 427 L34 427 L36 427 L90 427 L90 -100 L112 -100 L112 427 L302 427 L302 446 L112 446 L112 472 C112 516 121 550 140 574 C158 597 185 609 220 609 L306 609 L319 609 L339 609 L339 625 L339 629 L306 629 L306 629 Z M475 -81 L470 -81 L446 -81 C412 -81 385 -69 367 -45 C348 -22 339 12 339 56 L339 629 L316 629 L316 56 C316 6 328 -32 350 -59 C372 -86 405 -100 446 -100 L470 -100 L495 -100 L495 -96 L495 -81 L475 -81 L475 -81 Z " />
</font>
</svg>
