<?xml version="1.0" encoding="UTF-8"?>
<svg xmlns="http://www.w3.org/2000/svg" xmlns:xlink="http://www.w3.org/1999/xlink" version="1.2" >
<font id="Noirden Light Oblique">
<font-face  font-family="Noirden" units-per-em="1000" ascent="750" descent="-250" font-style="normal" font-weight="400" font-stretch="normal" cap-height="900" x-height="700" underline-position="-75" underline-thickness="50" />
<missing-glyph  horiz-adv-x="197" d="" />
<glyph glyph-name="NULL" d="" />
<glyph glyph-name="nonmarkingreturn" unicode="&#xd;" horiz-adv-x="197" d="" />
<glyph glyph-name="space" unicode="&#x20;" horiz-adv-x="197" d="" />
<glyph glyph-name="F" unicode="F" horiz-adv-x="544" d="M550 587 L165 587 L114 294 L491 294 L484 254 L107 254 L45 -100 L-2 -100 L124 629 L557 629 L550 587 L550 587 Z " />
<glyph glyph-name="E" unicode="E" horiz-adv-x="539" d="M548 587 L163 587 L112 295 L489 295 L482 255 L105 255 L50 -59 L435 -59 L428 -100 L-3 -100 L123 629 L555 629 L548 587 L548 587 Z " />
<glyph glyph-name="G" unicode="G" horiz-adv-x="770" d="M722 280 Q713 230 699.5 187 Q686 144 666 106 Q628 31 572 -16 Q519 -61 453 -86 Q389 -109 317 -109 Q157 -109 88 -9 Q16 91 48 267 Q63 356 96.5 423.5 Q130 491 182 541 Q288 641 448 641 Q570 641 645 578 Q718 514 730 402 Q717 399 708 397 Q699 395 693 393 Q686 391 682 390 Q678 440 657.5 480.5 Q637 521 604 549 Q540 599 440 599 Q302 599 211 510 Q122 422 95 267 Q89 232 87 195.5 Q85 159 90 123.5 Q95 88 108 56 Q121 24 145 -2 Q176 -36 223 -52 Q270 -68 324 -68 Q378 -68 433 -48.5 Q488 -29 536 9 Q583 46 615 105 Q650 164 666 239 L375 239 L382 280 L722 280 Z " />
<glyph glyph-name="H" unicode="H" horiz-adv-x="622" d="M589 629 L635 629 L508 -100 L462 -100 L524 255 L95 255 L33 -100 L-13 -100 L113 629 L160 629 L102 295 L531 295 L589 629 L589 629 Z " />
<glyph glyph-name="I" unicode="I" horiz-adv-x="148" d="M-14 -100 L114 629 L162 629 L33 -100 L-14 -100 L-14 -100 Z " />
<glyph glyph-name="J" unicode="J" horiz-adv-x="527" d="M187 -109 Q102 -109 52 -59 Q2 -8 -5 84 L43 98 L45 77 Q52 9 93 -30 Q133 -68 194 -68 Q277 -68 335 -16 Q392 38 407 130 L493 629 L540 629 L454 130 Q434 16 365 -46 Q296 -109 187 -109 Z " />
<glyph glyph-name="K" unicode="K" horiz-adv-x="563" d="M495 -100 L434 -100 L203 298 L86 199 L35 -100 L-12 -100 L112 629 L160 629 L98 264 L533 629 L595 629 L240 329 L495 -100 Z " />
<glyph glyph-name="L" unicode="L" horiz-adv-x="494" d="M40 -59 L425 -59 L418 -100 L-13 -100 L113 629 L160 629 L40 -59 L40 -59 Z " />
<glyph glyph-name="M" unicode="M" horiz-adv-x="743" d="M757 629 L628 -100 L580 -100 L683 479 Q683 481 684.5 490 Q686 499 688 509 Q690 520 692 533 L329 -100 L282 -100 L144 531 Q143 522 141 512 Q139 504 137.5 495 Q136 486 135 479 L32 -100 L-14 -100 L114 629 L173 629 Q200 507 220.5 413.5 Q241 320 256 250.5 Q271 181 281.5 132.5 Q292 84 299 53 Q315 -21 318 -33 L701 629 L757 629 Z " />
<glyph glyph-name="N" unicode="N" horiz-adv-x="601" d="M587 629 L635 629 L508 -100 L456 -100 L141 556 Q137 537 124 460 Q118 427 110 379 Q102 331 90 263 Q78 195 62.5 105.5 Q47 16 27 -100 L-19 -100 L107 629 L159 629 L474 -27 Q477 -8 490 69 Q496 102 504 150 Q512 198 524 265.5 Q536 333 551.5 423 Q567 513 587 629 Z " />
<glyph glyph-name="O" unicode="O" horiz-adv-x="774" d="M323 -109 Q162 -109 89 -9 Q18 92 46 265 Q76 440 182 542 Q287 641 449 641 Q609 641 681 541 Q752 443 722 265 Q708 176 674.5 108.5 Q641 41 588 -9 Q482 -109 323 -109 Z M330 -67 Q470 -67 558 21 Q649 110 674 265 Q701 424 641 511 Q581 600 442 600 Q302 600 211 511 Q120 423 93 265 Q88 237 86.5 212.5 Q85 188 86 163 Q89 114 104 72 Q119 29 147 -2 Q175 -32 222 -50 Q270 -67 330 -67 Z " />
<glyph glyph-name="P" unicode="P" horiz-adv-x="561" d="M357 629 Q471 629 523 577 Q578 526 561 431 Q545 337 473 285 Q401 234 288 234 L92 234 L34 -100 L-13 -100 L113 629 L357 629 Z M291 275 Q386 275 441 315 Q499 355 513 431 Q525 507 482 547 Q439 587 346 587 L154 587 L99 275 L291 275 Z " />
<glyph glyph-name="Q" unicode="Q" horiz-adv-x="774" d="M622 -198 L567 -198 L504 -71 Q422 -109 329 -109 Q169 -109 96 -9 Q25 92 55 265 Q86 441 192 542 Q298 641 460 641 Q621 641 691 541 Q763 443 731 265 Q722 211 705.5 165.5 Q689 120 666 79 Q617 -2 547 -48 L622 -198 Z M441 55 L494 55 L527 -10 Q651 75 684 265 Q712 424 651 511 Q591 600 452 600 Q312 600 221 511 Q129 422 102 265 Q94 216 94.5 168 Q95 120 111 72 Q127 30 155.5 -1.5 Q184 -33 229 -50 Q275 -67 336 -67 Q419 -67 486 -35 L441 55 Z " />
<glyph glyph-name="S" unicode="S" horiz-adv-x="584" d="M225 -109 Q64 -109 -22 -8 L12 26 Q13 24 15 22 Q17 20 19 17.5 Q21 15 25 12 Q103 -67 233 -67 Q340 -67 407 -23 Q473 21 487 97 Q496 154 465 194 Q434 234 355 254 L226 286 Q50 328 73 462 Q88 550 160 596 Q231 642 350 642 Q427 642 483 614 Q540 585 578 542 L543 509 L530 522 Q495 556 446 579 Q420 590 395 595.5 Q370 601 343 601 Q246 601 189 565 Q132 529 120 462 Q103 364 239 330 L373 296 Q560 249 535 98 Q517 -4 436 -56 Q356 -109 225 -109 Z " />
<glyph glyph-name="R" unicode="R" horiz-adv-x="537" d="M300 254 L486 -100 L425 -100 L248 254 L92 254 L29 -100 L-18 -100 L110 629 L370 629 Q485 629 537 580 Q590 533 575 442 Q559 351 488 303 Q420 254 304 254 L300 254 Z M151 587 L99 294 L311 294 Q402 294 459 333 Q516 373 528 442 Q540 512 496 549 Q454 587 360 587 L151 587 Z " />
<glyph glyph-name="T" unicode="T" horiz-adv-x="584" d="M614 629 L607 587 L370 587 L250 -100 L204 -100 L324 587 L88 587 L95 629 L614 629 L614 629 Z " />
<glyph glyph-name="U" unicode="U" horiz-adv-x="615" d="M450 -37 Q369 -109 241 -109 Q111 -109 57 -37 Q3 32 30 189 L108 629 L154 629 L77 189 Q55 63 96 -3 Q136 -67 249 -67 Q358 -67 422 -3 Q486 61 509 189 L587 629 L635 629 L557 189 Q530 34 450 -37 Z " />
<glyph glyph-name="V" unicode="V" horiz-adv-x="582" d="M590 629 L638 629 L250 -101 L199 -101 L75 629 L126 629 L239 -32 L590 629 L590 629 Z " />
<glyph glyph-name="W" unicode="W" horiz-adv-x="926" d="M937 629 L982 629 L635 -100 L589 -100 L516 554 L208 -100 L161 -100 L74 629 L125 629 L199 -24 L508 629 L557 629 L629 -24 L937 629 L937 629 Z " />
<glyph glyph-name="X" unicode="X" horiz-adv-x="649" d="M582 -100 L522 -100 L322 248 L5 -100 L-50 -100 L301 286 L104 629 L165 629 L337 327 L612 629 L668 629 L360 289 L582 -100 L582 -100 Z " />
<glyph glyph-name="Y" unicode="Y" horiz-adv-x="579" d="M629 629 L312 244 L253 -100 L207 -100 L266 242 L80 629 L138 629 L296 286 L573 629 L629 629 L629 629 Z " />
<glyph glyph-name="Z" unicode="Z" horiz-adv-x="558" d="M603 629 L596 587 L29 -58 L489 -58 L482 -100 L-36 -100 L-29 -58 L538 587 L77 587 L84 629 L603 629 L603 629 Z " />
<glyph glyph-name="a" unicode="a" horiz-adv-x="582" d="M538 448 L583 448 L488 -100 L466 -100 L447 -100 L465 7 Q425 -46 366 -78 Q306 -109 236 -109 Q116 -109 61 -33 Q5 44 29 174 Q52 307 133 382 Q213 458 333 458 Q405 458 452 430 Q501 401 521 350 L538 448 Z M99 -4 Q144 -70 243 -70 Q341 -70 405 -12 Q468 45 486 150 L495 197 Q513 301 469 360 Q425 419 326 419 Q228 419 161 354 Q93 288 74 175 Q53 62 99 -4 Z " />
<glyph glyph-name="b" unicode="b" horiz-adv-x="586" d="M509 382 Q564 305 540 173 Q517 42 436 -33 Q356 -109 234 -109 Q162 -109 115 -78 Q67 -47 46 8 L27 -100 L-12 -100 L114 629 L157 629 L107 345 Q149 399 207 428 Q264 458 335 458 Q457 458 509 382 Z M408 -5 Q476 60 497 174 Q516 287 472 353 Q425 419 328 419 Q229 419 165 359 Q99 300 81 194 L73 149 Q55 45 100 -12 Q143 -70 241 -70 Q341 -70 408 -5 Z " />
<glyph glyph-name="c" unicode="c" horiz-adv-x="593" d="M246 -109 Q126 -109 72 -31 Q44 7 36 56.5 Q28 106 39 171 Q61 303 144 381 Q226 458 345 458 Q439 458 493 410 Q547 364 556 277 L511 264 L509 283 Q497 350 453 383 Q409 418 338 418 Q238 418 171 352 Q103 284 84 171 Q74 115 80.5 72.5 Q87 30 110 -3 Q155 -68 253 -68 Q328 -68 387 -31 Q444 7 478 77 Q478 81 482 89 L486 97 L527 86 Q489 -7 416 -58 Q344 -109 246 -109 Z " />
<glyph glyph-name="d" unicode="d" horiz-adv-x="587" d="M600 629 L475 -99 L434 -99 L452 6 Q412 -48 354 -78 Q295 -109 223 -109 Q105 -109 48 -33 Q-8 42 15 173 Q37 304 118 382 Q198 458 319 458 Q388 458 438 430 Q486 401 508 350 L556 629 L600 629 Z M482 196 Q500 301 455 360 Q410 419 313 419 Q213 419 146 353 Q80 288 60 174 Q41 61 86 -5 Q131 -70 230 -70 Q327 -70 392 -13 Q456 47 474 149 L482 196 Z " />
<glyph glyph-name="e" unicode="e" horiz-adv-x="573" d="M336 458 Q368 458 395 452.5 Q422 447 445 436 Q468 425 485.5 409.5 Q503 394 516 375 Q541 338 549 289 Q558 241 549 188 L548 181 L544 161 L526 161 L69 161 Q54 58 102 -5 Q150 -68 246 -68 Q316 -68 372 -35 Q426 -3 463 60 Q465 64 467 67 Q469 70 471 72 Q473 75 473 76 L513 66 Q469 -18 401 -63 Q329 -109 239 -109 Q120 -109 62 -31 Q4 46 26 171 Q48 300 133 380 Q217 458 336 458 Z M329 418 Q237 418 169 359 Q101 302 77 201 L507 201 Q519 297 471 357 Q422 418 329 418 Z " />
<glyph glyph-name="f" unicode="f" horiz-adv-x="372" d="M405 629 L398 589 L275 589 Q233 589 204 560 Q175 531 166 479 L160 446 L334 446 L327 407 L153 407 L63 -100 L20 -100 L110 407 L29 407 L36 446 L117 446 L123 479 Q135 552 177 589 Q199 609 224.5 619 Q250 629 282 629 L405 629 Z " />
<glyph glyph-name="g" unicode="g" horiz-adv-x="587" d="M598 448 L505 -99 L498 -138 Q486 -207 441 -246 Q392 -284 324 -284 L74 -284 L81 -245 L331 -245 Q379 -245 413 -217 Q445 -189 454 -138 L478 2 Q438 -49 383 -78 Q325 -109 253 -109 Q134 -109 78 -33 Q23 43 44 174 Q67 307 148 382 Q230 458 349 458 Q420 458 467 430 Q514 402 537 350 L554 448 L598 448 Z M511 197 Q529 303 484 360 Q440 419 342 419 Q244 419 176 354 Q143 321 121 276.5 Q99 232 90 175 Q70 59 116 -4 Q159 -70 260 -70 Q356 -70 422 -12 Q485 47 503 150 L511 197 Z " />
<glyph glyph-name="h" unicode="h" horiz-adv-x="515" d="M307 458 Q411 458 447 396 Q485 334 464 216 L409 -100 L366 -100 L421 216 Q439 317 411 367 Q382 418 300 418 Q120 418 88 236 L29 -100 L-13 -100 L113 629 L156 629 L109 357 Q178 458 307 458 Z " />
<glyph glyph-name="backslash" unicode="&#x5c;" horiz-adv-x="585" d="M393 -230 L133 724 L177 724 L436 -230 L393 -230 L393 -230 Z " />
<glyph glyph-name="bracketright" unicode="&#x5d;" horiz-adv-x="274" d="M118 681 L125 722 L307 722 L142 -231 L-39 -231 L-32 -191 L104 -191 L255 681 L118 681 L118 681 Z " />
<glyph glyph-name="asciicircum" unicode="&#x5e;" horiz-adv-x="413" d="M250 697 L357 448 L314 448 L224 660 L69 448 L25 448 L208 697 L250 697 L250 697 Z " />
<glyph glyph-name="underscore" unicode="&#x5f;" horiz-adv-x="540" d="M42 -100 L47 -71 L493 -71 L488 -100 L42 -100 L42 -100 Z " />
<glyph glyph-name="i" unicode="i" horiz-adv-x="123" d="M-25 -100 L73 447 L116 447 L17 -100 L-25 -100 L-25 -100 Z M99 612 L149 612 L139 561 L89 561 L99 612 L99 612 Z " />
<glyph glyph-name="j" unicode="j" horiz-adv-x="145" d="M-2 -138 Q-11 -190 -43 -216 Q-75 -244 -124 -244 L-217 -244 L-224 -284 L-131 -284 Q-61 -284 -16 -245 Q30 -208 42 -138 L144 447 L99 447 L-2 -138 Z M125 612 L174 612 L166 561 L117 561 L125 612 Z " />
<glyph glyph-name="k" unicode="k" horiz-adv-x="467" d="M166 219 L389 -100 L334 -100 Q329 -96 306 -63 Q296 -49 281.5 -28 Q267 -7 245.5 23.5 Q224 54 195.5 95 Q167 136 130 190 L65 136 L25 -100 L-17 -100 L105 629 L148 629 L75 193 L379 447 L440 447 L166 219 Z " />
<glyph glyph-name="l" unicode="l" horiz-adv-x="252" d="M182 -61 L175 -100 L117 -100 Q54 -100 28 -62 Q0 -24 12 46 L112 629 L156 629 L56 46 Q47 -5 65 -33 Q81 -61 124 -61 L182 -61 Z " />
<glyph glyph-name="n" unicode="n" horiz-adv-x="513" d="M460 397 Q497 336 476 217 L420 -100 L376 -100 L432 217 Q450 315 423 368 Q396 419 312 419 Q135 419 103 237 L43 -100 L0 -100 L91 415 L97 448 L119 448 L137 448 L134 428 L131 415 L120 351 Q190 458 319 458 Q423 458 460 397 Z " />
<glyph glyph-name="m" unicode="m" horiz-adv-x="803" d="M751 402 Q787 346 767 232 L709 -100 L666 -100 L724 232 Q741 330 714 374 Q688 419 623 419 Q539 419 495 373 Q451 328 435 232 L377 -100 L333 -100 L391 232 Q423 419 290 419 Q208 419 163 376 Q120 332 104 238 L45 -100 L1 -100 L96 448 L137 448 L123 363 Q183 458 297 458 Q419 458 439 344 Q470 399 518 429 Q566 459 630 459 Q716 459 751 402 Z " />
<glyph glyph-name="o" unicode="o" horiz-adv-x="571" d="M238 -109 Q119 -109 63 -32 Q7 43 28 173 Q50 303 132 382 Q214 458 333 458 Q452 458 508 381 Q563 305 541 173 Q530 107 504.5 56.5 Q479 6 439 -32 Q356 -109 238 -109 Z M245 -68 Q344 -68 412 -3 Q446 30 467.5 73 Q489 116 498 173 Q518 287 471 352 Q426 418 326 418 Q227 418 160 352 Q93 288 73 173 Q64 116 71 73 Q78 30 101 -3 Q146 -68 245 -68 Z " />
<glyph glyph-name="p" unicode="p" horiz-adv-x="582" d="M540 382 Q594 306 571 175 Q547 41 465 -33 Q385 -109 264 -109 Q192 -109 146 -81 Q100 -54 77 -1 L27 -281 L-15 -281 L106 410 L113 448 L153 448 L146 410 L134 340 Q177 396 235 427 Q293 458 366 458 Q486 458 540 382 Z M438 -5 Q506 60 527 174 Q547 289 502 353 Q458 419 359 419 Q261 419 197 361 Q133 307 113 202 L104 153 Q85 48 129 -11 Q171 -70 271 -70 Q370 -70 438 -5 Z " />
<glyph glyph-name="q" unicode="q" horiz-adv-x="583" d="M596 448 L587 393 L471 -281 L427 -281 L475 -2 Q437 -52 379 -81 Q323 -109 251 -109 Q131 -109 76 -33 Q20 41 43 175 Q66 307 147 382 Q226 458 347 458 Q420 458 467 427 Q516 397 537 342 L546 393 L555 448 L596 448 Z M510 201 Q518 252 511.5 292 Q505 332 482 361 Q438 419 340 419 Q241 419 174 353 Q108 290 88 174 Q68 60 114 -5 Q159 -70 257 -70 Q356 -70 421 -11 Q484 49 502 154 L510 201 Z " />
<glyph glyph-name="r" unicode="r" horiz-adv-x="305" d="M336 448 L329 409 L303 409 Q224 408 171 362 Q120 318 103 224 L47 -100 L2 -100 L97 448 L138 448 L121 347 Q190 448 329 448 L336 448 Z " />
<glyph glyph-name="s" unicode="s" horiz-adv-x="467" d="M183 -109 Q118 -109 68 -84 Q16 -59 -5 -24 L31 4 L41 -8 Q58 -31 102 -51 Q141 -70 190 -70 Q271 -70 321 -40 Q369 -11 380 47 Q395 136 263 166 Q253 169 235 173 Q217 177 189 183 Q53 214 72 324 Q83 383 140 420 Q198 459 285 459 Q348 459 390 432 Q413 419 427 405 Q441 391 450 376 L428 361 L412 350 Q410 352 408 355 Q406 357 404.5 359 Q403 361 402 363 Q385 384 352 403 Q320 420 276 420 Q212 420 167 392 Q144 378 131.5 361.5 Q119 345 115 325 Q101 248 201 224 Q208 222 217 220 Q226 218 238 215 Q250 212 259 209.5 Q268 207 275 205 Q353 187 394 146 Q433 108 424 47 Q411 -29 348 -69 Q286 -109 183 -109 Z " />
<glyph glyph-name="t" unicode="t" horiz-adv-x="362" d="M158 409 L97 59 Q87 3 108 -29 Q127 -61 174 -61 L282 -61 L279 -77 L275 -100 L167 -100 Q101 -100 70 -58 Q40 -15 53 59 L114 409 L28 409 L31 427 L35 448 L121 448 L152 629 L196 629 L165 448 L372 448 L365 409 L158 409 Z " />
<glyph glyph-name="u" unicode="u" horiz-adv-x="504" d="M512 448 L417 -100 L377 -100 L394 -3 Q325 -109 194 -109 Q91 -109 54 -48 Q16 13 37 132 L92 448 L137 448 L82 132 Q64 31 91 -19 Q118 -70 201 -70 Q378 -70 411 112 L469 448 L512 448 Z " />
<glyph glyph-name="v" unicode="v" horiz-adv-x="481" d="M471 448 L520 448 L212 -100 L164 -100 L62 448 L110 448 L200 -42 L471 448 L471 448 Z " />
<glyph glyph-name="w" unicode="w" horiz-adv-x="777" d="M765 448 L809 448 L536 -100 L491 -100 L425 386 L187 -100 L140 -100 L58 448 L105 448 Q123 310 138 203 Q144 157 150 113.5 Q156 70 161 35 Q166 -5 171 -41 L414 448 L457 448 L523 -41 L765 448 Z " />
<glyph glyph-name="x" unicode="x" horiz-adv-x="506" d="M456 -100 L402 -100 L254 163 L14 -100 L-36 -100 L232 196 L87 448 L141 448 L264 233 L460 448 L510 448 L284 199 L456 -100 L456 -100 Z " />
<glyph glyph-name="y" unicode="y" horiz-adv-x="482" d="M533 448 L178 -195 Q157 -234 121 -258 Q86 -281 47 -281 L11 -281 L18 -240 L61 -240 Q82 -240 105 -223 Q126 -207 144 -177 L186 -99 L76 448 L124 448 L219 -41 L485 448 L533 448 Z " />
<glyph glyph-name="z" unicode="z" horiz-adv-x="500" d="M522 448 L515 409 L44 -61 L436 -61 L429 -100 L-19 -100 L-12 -61 L459 409 L66 409 L73 448 L522 448 L522 448 Z " />
<glyph glyph-name="bar" unicode="&#x7c;" horiz-adv-x="124" d="M163 723 L0 -231 L-40 -231 L122 723 L163 723 Z " />
<glyph glyph-name="braceleft" unicode="&#x7b;" horiz-adv-x="246" d="M291 721 L287 697 L284 680 L253 680 Q224 680 202 656 Q182 634 174 594 L132 345 Q130 335 127 326 Q124 317 119 308 Q109 288 99 279 Q89 267 79 260 Q74 255 69 252.5 Q64 250 56 245 Q65 239 74 230 Q92 212 98 182 Q101 163 97 144 L55 -106 Q48 -143 61 -169 Q75 -192 105 -192 L135 -192 L132 -209 L128 -232 L96 -232 Q47 -232 23 -198 Q-1 -165 8 -109 L51 140 Q54 161 51 179 Q48 196 41 209 Q35 218 28 226.5 Q21 235 11 242 L6 245 Q9 248 12 249 Q23 255 33 262.5 Q43 270 53 281 Q58 287 63 294 Q68 301 73 311 Q78 320 81.5 329.5 Q85 339 87 350 L129 597 Q138 655 173 687 Q208 721 259 721 L291 721 Z " />
<glyph glyph-name="braceright" unicode="&#x7d;" horiz-adv-x="245" d="M149 720 Q198 720 222 685 Q246 654 237 596 L194 349 Q188 308 204 280 Q207 275 211 270 Q215 265 219 260 Q224 255 227.5 252.5 Q231 250 232 248 Q236 246 239 244 L232 241 Q223 235 214 228 Q203 220 191 208 Q176 193 168 174.5 Q160 156 157 139 L114 -110 Q105 -164 69 -199 Q34 -233 -15 -233 L-47 -233 L-40 -193 L-10 -193 Q18 -193 41 -170 Q62 -144 69 -107 L112 143 Q116 164 125 181 Q133 197 143 208.5 Q153 220 165 229 Q170 233 176.5 237.5 Q183 242 189 244 Q182 249 178 251.5 Q174 254 170 259 Q159 270 154 282 Q149 294 147 307 Q144 325 147 344 L190 593 Q198 632 184 655 Q170 679 141 679 L110 679 L117 720 L149 720 Z " />
<glyph glyph-name="asciitilde" unicode="&#x7e;" horiz-adv-x="572" d="M389 209 Q363 209 339 224 Q317 238 298 260 Q289 271 280 281 Q271 291 263 302 Q254 313 245 321.5 Q236 330 225 337 Q202 352 181 352 Q140 352 118 329 Q95 306 80 255 L76 236 L34 242 Q68 390 186 390 Q209 390 226 383 Q248 373 260 362 Q268 356 275 349 Q282 342 289 334 Q304 319 316 304 Q323 296 329 289 Q335 282 341 276 Q347 269 353.5 264.5 Q360 260 367 255 Q383 247 394 247 Q433 247 458 270 Q483 292 496 341 L503 362 L541 355 Q503 209 389 209 Z " />
<glyph glyph-name="Euro" unicode="&#x20ac;" horiz-adv-x="624" d="M625 634 L620 606 L618 589 L464 589 Q348 589 267 532 Q185 475 148 367 L516 367 L509 326 L481 326 L135 326 Q131 312 128 298 Q125 284 123 269 Q121 261 120.5 250 Q120 239 118 225 L459 225 L452 185 L115 185 Q115 68 176 6 Q238 -55 359 -55 L512 -55 L505 -100 L352 -100 Q212 -100 139 -25 Q65 49 68 185 L16 185 L23 225 L70 225 Q71 230 71.5 238.5 Q72 247 76 269 Q78 284 81 298 Q84 312 88 326 L39 326 L46 367 L74 367 L100 367 Q142 494 239 564 Q333 634 471 634 L625 634 Z " />
<glyph glyph-name="circumflex" unicode="&#x2c6;" horiz-adv-x="326" d="M299 525 L246 525 L173 615 Q140 587 122 571.5 Q104 556 94 547.5 Q84 539 79 535 Q74 531 67 525 L15 525 L136 627 Q158 644 179 644 Q201 644 215 627 L299 525 Z " />
<glyph glyph-name="D" unicode="D" horiz-adv-x="689" d="M365 630 Q525 630 597 534 Q669 438 640 265 Q625 177 591 110.5 Q557 44 506 -4 Q401 -100 240 -100 L-12 -100 L112 630 L365 630 Z M247 -59 Q386 -59 477 27 Q565 112 592 265 Q618 420 558 503 Q498 588 358 588 L153 588 L42 -59 L247 -59 Z " />
<glyph glyph-name="exclam" unicode="&#x21;" horiz-adv-x="124" d="M14 24 L-9 24 Q0 90 7.5 142 Q15 194 22 233 L88 629 L137 629 L71 234 Q71 232 68.5 221 Q66 210 61.5 185.5 Q57 161 49.5 121.5 Q42 82 31 24 L14 24 Z M-25 -59 L24 -59 L15 -109 L-34 -109 L-25 -59 Z " />
<glyph glyph-name="quotedbl" unicode="&#x22;" horiz-adv-x="187" d="M9 503 Q2 503 4 511 L32 569 Q35 581 28 586 Q18 595 21 613 Q23 629 35 638.5 Q47 648 61 648 Q77 648 84.5 637.5 Q92 627 90 613 Q89 604 55 531 Q47 514 37 509 Q26 503 9 503 Z M95 503 Q90 503 90 506 Q87 507 89 511 L116 569 Q119 581 113 586 Q103 596 106 613 Q108 629 119.5 638.5 Q131 648 145 648 Q160 648 169 637.5 Q178 627 176 613 Q175 611 166 590 Q157 569 139 531 Q131 514 121 509 Q110 503 95 503 Z " />
<glyph glyph-name="numbersign" unicode="&#x23;" horiz-adv-x="624" d="M587 367 L486 367 L408 164 L510 164 L494 123 L392 123 L307 -100 L266 -100 L352 123 L149 123 L63 -100 L23 -100 L108 123 L7 123 L23 164 L124 164 L202 367 L101 367 L117 407 L219 407 L304 630 L344 630 L259 407 L461 407 L547 630 L587 630 L502 407 L604 407 L587 367 L587 367 Z M368 164 L445 367 L243 367 L165 164 L368 164 L368 164 Z " />
<glyph glyph-name="percent" unicode="&#x25;" horiz-adv-x="618" d="M165 390 Q139 390 117.5 399.5 Q96 409 81.5 426.5 Q67 444 60.5 467.5 Q54 491 59 518 Q63 544 76.5 567 Q90 590 110 607.5 Q130 625 155.5 635.5 Q181 646 208 646 Q234 646 255.5 636.5 Q277 627 292 609.5 Q307 592 313.5 568.5 Q320 545 316 518 Q311 491 297.5 468 Q284 445 263.5 428 Q243 411 218 401 Q193 391 165 390 Z M202 613 Q183 613 164.5 605.5 Q146 598 131 585.5 Q116 573 105.5 555.5 Q95 538 92 518 Q89 499 93.5 482 Q98 465 108.5 451.5 Q119 438 135 430 Q151 422 171 422 Q190 422 208.5 429.5 Q227 437 242.5 450 Q258 463 269 480.5 Q280 498 283 518 Q286 537 281 554 Q276 571 265 584 Q254 597 238 605 Q222 613 202 613 Z M416 149 Q441 149 462.5 139 Q484 129 499 112 Q514 95 520.5 71.5 Q527 48 523 21 Q518 -5 504.5 -28.5 Q491 -52 471 -69.5 Q451 -87 425.5 -97.5 Q400 -108 373 -108 Q347 -108 325.5 -98 Q304 -88 289 -71 Q274 -54 267.5 -30 Q261 -6 266 21 Q270 46 284 69.5 Q298 93 318 110.5 Q338 128 363.5 138.5 Q389 149 416 149 Z M379 -74 Q398 -74 416.5 -66.5 Q435 -59 450 -46.5 Q465 -34 476 -16.5 Q487 1 490 21 Q493 40 488.5 57 Q484 74 473 87 Q462 100 446 108 Q430 116 410 116 Q391 116 372.5 108.5 Q354 101 339 88.5 Q324 76 313.5 58.5 Q303 41 300 21 Q293 -19 316 -45.5 Q339 -72 379 -74 Z M8 -96 L-38 -96 L576 634 L621 634 L8 -96 Z " />
<glyph glyph-name="quotesingle" unicode="&#x27;" horiz-adv-x="139" d="M33 495 Q29 495 28 498 Q27 500 27.5 501 Q28 502 28 504 L55 562 Q61 573 53 579 Q43 589 46 606 Q49 620 61 631 Q72 641 87 641 Q102 641 111 631 Q119 622 116 606 Q115 599 78 522 Q75 514 70.5 509 Q66 504 61 501 Q50 495 33 495 Z " />
<glyph glyph-name="ampersand" unicode="&#x26;" horiz-adv-x="720" d="M636 -56 L662 -56 L659 -78 Q658 -80 658 -83.5 Q658 -87 657 -90 Q656 -94 656 -98 L636 -98 L626 -98 Q589 -98 555 -81 Q522 -67 503 -38 L486 -10 Q367 -109 232 -109 Q114 -109 53 -46 Q-7 14 8 118 Q12 145 23.5 170 Q35 195 53 218 Q91 265 147 296 L246 354 L210 407 Q174 461 183 514 Q192 572 237 607 Q279 642 344 642 Q415 642 449 607 Q483 571 473 508 Q461 437 364 380 L306 345 L497 55 Q570 134 614 240 L622 259 L662 247 Q610 111 520 21 L539 -7 Q553 -29 579 -43 Q605 -56 636 -56 Z M238 -68 Q360 -68 463 23 L267 322 L161 258 Q69 203 54 117 Q40 33 92 -17 Q141 -68 238 -68 Z M251 431 L286 378 L347 413 Q420 455 429 508 Q435 552 411 578 Q387 603 338 603 Q295 603 264 579 Q233 554 227 514 Q221 479 251 431 Z " />
<glyph glyph-name="parenleft" unicode="&#x28;" horiz-adv-x="235" d="M88 -212 Q11 21 49 237 Q94 490 249 700 L277 681 Q275 678 272 674 Q266 666 265 664 Q137 488 93 237 Q57 29 118 -177 L124 -195 L88 -212 Z " />
<glyph glyph-name="parenright" unicode="&#x29;" horiz-adv-x="234" d="M-42 -195 Q-41 -194 -39 -191 Q-37 -189 -35 -185.5 Q-33 -182 -30 -177 Q103 32 139 237 Q182 486 116 664 Q115 666 114 668.5 Q113 671 112 674 Q111 678 110 681 L144 700 Q227 491 182 237 Q145 21 -12 -212 L-42 -195 Z " />
<glyph glyph-name="asterisk" unicode="&#x2a;" horiz-adv-x="448" d="M414 496 L248 452 L328 324 L291 300 L223 437 L108 300 L79 324 L205 452 L54 496 L74 535 L218 477 L240 642 L281 642 L244 477 L409 535 L414 496 L414 496 Z " />
<glyph glyph-name="plus" unicode="&#x2b;" horiz-adv-x="564" d="M527 274 L520 233 L300 233 L259 0 L214 0 L255 233 L34 233 L41 274 L262 274 L303 506 L348 506 L307 274 L527 274 L527 274 Z " />
<glyph glyph-name="comma" unicode="&#x2c;" horiz-adv-x="139" d="M37 -198 Q33 -198 33 -195 Q31 -193 33 -189 L62 -131 Q67 -120 61 -114 Q50 -106 53 -87 Q56 -72 69 -62 Q79 -52 95 -52 Q109 -52 118 -62 Q126 -71 123 -87 Q122 -92 112 -112.5 Q102 -133 85 -170 Q74 -187 65 -192 Q54 -198 37 -198 Z " />
<glyph glyph-name="hyphen" unicode="&#x2d;" horiz-adv-x="434" d="M388 279 L381 237 L56 237 L63 279 L388 279 Z " />
<glyph glyph-name="period" unicode="&#x2e;" horiz-adv-x="88" d="M64 -99 Q54 -109 37 -109 Q23 -109 14 -99 Q6 -88 9 -74 Q10 -66 14 -60 Q18 -54 23 -49 Q34 -39 50 -39 Q66 -39 73 -49 Q82 -58 80 -74 Q77 -87 64 -99 Z " />
<glyph glyph-name="slash" unicode="&#x2f;" horiz-adv-x="569" d="M-30 -203 L558 751 L601 751 L11 -203 L-30 -203 L-30 -203 Z " />
<glyph glyph-name="zero" unicode="0" horiz-adv-x="633" d="M253 -109 Q124 -109 72 -10 Q19 88 49 272 Q79 450 165 547 Q251 645 380 645 Q507 645 560 547 Q614 453 584 272 Q554 89 467 -10 Q381 -109 253 -109 Z M260 -67 Q365 -67 437 22 Q509 111 536 272 Q563 428 520 516 Q478 602 373 602 Q267 602 195 516 Q123 431 96 272 Q69 110 112 22 Q154 -67 260 -67 Z " />
<glyph glyph-name="one" unicode="1" horiz-adv-x="225" d="M240 635 L110 -100 L63 -100 L172 519 L48 519 L54 551 L178 551 L203 635 L240 635 L240 635 Z " />
<glyph glyph-name="two" unicode="2" horiz-adv-x="558" d="M301 208 Q238 175 197.5 152.5 Q157 130 138 118 Q81 81 57 38 Q47 21 39.5 -4 Q32 -29 27 -59 L435 -59 L428 -100 L-27 -100 L-20 -59 Q-16 -39 -11.5 -21 Q-7 -3 -1 13 Q8 41 27 69 Q44 94 66 113 Q87 134 118 154 Q148 173 184 193 Q202 203 222 214 Q242 225 265 237 Q273 241 279 244.5 Q285 248 290 250 Q308 259 322.5 267 Q337 275 348 281 Q359 287 371.5 295 Q384 303 397 312 Q422 330 440 348 Q448 356 455 366 Q462 376 469 388 Q482 412 486 437 Q500 511 456 555 Q412 599 329 599 Q258 599 203 564 Q150 530 124 471 L115 451 L75 467 Q85 498 110 531 Q121 547 135 560.5 Q149 574 166 587 Q200 613 244 628 Q287 643 336 643 Q445 643 498 585 Q550 525 534 437 Q532 425 528 413 Q524 401 520 390 Q515 379 509.5 369 Q504 359 498 351 Q492 342 484 333 Q476 324 467 315 Q457 306 448.5 298.5 Q440 291 432 285 Q423 278 413 271.5 Q403 265 390 257 Q378 249 367.5 243 Q357 237 348 232 Q338 227 326.5 221 Q315 215 301 208 Z " />
<glyph glyph-name="three" unicode="3" horiz-adv-x="530" d="M471 221 Q498 174 486 111 Q470 12 392 -49 Q314 -109 204 -109 Q111 -109 55 -60 Q25 -35 11 -3 Q-3 29 -4 68 L40 81 L41 68 Q50 4 96 -31 Q140 -68 211 -68 Q299 -68 363 -19 Q427 31 440 111 Q453 181 411 225 Q369 268 288 268 L205 268 L211 306 L293 306 Q364 306 413 346 Q462 386 474 454 Q486 518 444 560 Q402 600 325 600 Q253 600 198 566 Q142 533 114 472 L107 453 L67 467 Q97 548 167 595 Q237 643 331 643 Q429 643 484 591 Q537 538 522 454 Q511 395 476 352 Q440 309 387 288 Q444 268 471 221 Z " />
<glyph glyph-name="four" unicode="4" horiz-adv-x="488" d="M453 108 L446 66 L360 66 L332 -100 L286 -100 L314 66 L-22 66 L-15 108 L409 630 L455 630 L367 108 L453 108 Z M33 108 L321 108 Q347 264 362 353.5 Q377 443 385 487 Q394 539 396 553 L33 108 Z " />
<glyph glyph-name="five" unicode="5" horiz-adv-x="563" d="M304 375 Q413 375 470 308 Q526 241 507 134 Q487 25 408 -42 Q328 -109 218 -109 Q124 -109 65 -62 Q6 -15 3 64 L49 79 Q49 76 50 72 Q50 66 52 60 Q58 1 105 -32 Q151 -67 226 -67 Q313 -67 380 -11 Q445 45 460 134 Q476 222 431 278 Q384 332 296 332 Q240 332 183 306 Q128 279 92 234 L45 234 L145 630 L554 630 L547 588 L182 588 L111 306 Q195 375 304 375 Z " />
<glyph glyph-name="six" unicode="6" horiz-adv-x="580" d="M236 -109 Q174 -109 131 -88 Q91 -68 63 -23 Q34 23 31 88 Q28 154 43 249 Q76 441 161 542 Q245 643 374 643 Q452 643 503 597 Q554 551 567 470 L535 461 Q533 460 530 459.5 Q527 459 525 458 Q521 457 519 456 Q519 459 518 462 Q516 468 516 471 Q504 530 465 565 Q425 599 365 599 Q259 599 190 508 Q120 419 90 242 Q122 298 188 330 Q253 361 334 361 Q440 361 491 295 Q542 229 524 122 Q508 20 429 -45 Q353 -109 236 -109 Z M245 -67 Q339 -67 401 -16 Q463 34 478 120 Q493 208 453 265 Q412 319 327 319 Q228 319 161 272 Q97 224 82 134 Q79 116 78.5 98 Q78 80 81 63 Q87 28 105 3 Q154 -67 245 -67 Z " />
<glyph glyph-name="seven" unicode="7" horiz-adv-x="466" d="M516 629 L508 585 Q503 555 495.5 526.5 Q488 498 475 469 Q452 415 421.5 370 Q391 325 353 279 Q296 213 242.5 148.5 Q189 84 146 8 Q132 -18 121.5 -45 Q111 -72 103 -100 L44 -100 Q62 -41 91 14 Q136 92 192.5 157.5 Q249 223 308 291 Q347 335 378.5 379.5 Q410 424 433 476 Q445 503 453.5 530.5 Q462 558 467 587 L67 587 L74 629 L516 629 Z " />
<glyph glyph-name="nine" unicode="9" horiz-adv-x="582" d="M192 -109 Q110 -109 57 -62 Q31 -39 15 -7 Q-1 25 -5 66 L24 75 Q26 76 29 76.5 Q32 77 34 78 L40 80 Q40 77 41 74 Q42 72 42 69.5 Q42 67 43 65 Q48 34 61.5 10 Q75 -14 96 -33 Q139 -69 201 -69 Q308 -69 382 22 Q457 114 487 284 Q454 229 390 200 Q326 171 242 171 Q136 171 88 236 Q40 302 59 412 Q77 515 157 577 Q234 641 350 641 Q413 641 458 616 Q502 590 523 544 Q533 521 539 494 Q545 467 547 436 Q550 372 537 296 Q501 94 414 -8 Q327 -109 192 -109 Z M250 213 Q353 213 418 258 Q482 303 499 393 Q514 478 470 538 Q425 599 342 599 Q252 599 188 548 Q120 497 107 416 Q90 321 128 267 Q164 213 250 213 Z " />
<glyph glyph-name="eight" unicode="8" horiz-adv-x="519" d="M373 294 Q436 271 463 224 Q492 177 480 109 Q463 10 386 -50 Q309 -109 197 -109 Q84 -109 23 -50 Q-34 10 -18 109 Q-6 176 39 224 Q85 271 156 294 Q104 315 80 356 Q56 398 65 454 Q80 540 151 591 Q222 643 326 643 Q427 643 478 591 Q530 540 515 454 Q506 397 469 356 Q450 336 426.5 320.5 Q403 305 373 294 Z M204 -68 Q295 -68 357 -20 Q388 5 407 36.5 Q426 68 433 109 Q446 184 400 230 Q353 275 263 275 Q168 275 105 230 Q42 185 28 109 Q15 30 62 -20 Q110 -68 204 -68 Z M112 454 Q101 389 144 351 Q184 312 269 312 Q349 312 403 351 Q458 390 468 454 Q480 522 439 561 Q399 601 319 601 Q233 601 180 561 Q124 523 112 454 Z " />
<glyph glyph-name="colon" unicode="&#x3a;" horiz-adv-x="175" d="M123 431 Q108 431 100 440.5 Q92 450 94 465 Q97 480 108.5 489.5 Q120 499 135 499 Q151 499 159 489.5 Q167 480 164 465 Q162 449 149.5 440 Q137 431 123 431 Z M36 -63 Q20 -63 12.5 -52.5 Q5 -42 7 -28 Q10 -12 22 -2.5 Q34 7 48 7 Q64 7 71.5 -3.5 Q79 -14 77 -28 Q74 -44 62 -53.5 Q50 -63 36 -63 Z " />
<glyph glyph-name="semicolon" unicode="&#x3b;" horiz-adv-x="172" d="M-2 -137 Q-6 -137 -7 -134 L-7 -128 L20 -70 Q25 -59 18 -53 Q7 -44 10 -26 Q12 -11 24.5 -1 Q37 9 51 9 Q67 9 74 -1.5 Q81 -12 79 -26 Q77 -36 43 -109 Q36 -125 25 -131 Q14 -137 -2 -137 Z M123 432 Q108 432 100 442.5 Q92 453 94 467 Q97 483 109 492 Q121 501 135 501 Q151 501 158 491 Q165 481 163 467 Q160 450 148.5 441 Q137 432 123 432 Z " />
<glyph glyph-name="less" unicode="&#x3c;" horiz-adv-x="588" d="M568 486 L549 478 L118 300 L485 124 L501 116 L493 69 L45 286 L50 316 L576 532 L568 486 L568 486 Z " />
<glyph glyph-name="equal" unicode="&#x3d;" horiz-adv-x="635" d="M89 348 L96 389 L582 389 L575 348 L89 348 L89 348 Z M63 186 L70 227 L556 227 L549 186 L63 186 L63 186 Z " />
<glyph glyph-name="greater" unicode="&#x3e;" horiz-adv-x="590" d="M104 531 L554 315 L549 285 L25 68 L33 115 L52 123 L482 299 L113 477 L96 485 L104 531 L104 531 Z " />
<glyph glyph-name="question" unicode="&#x3f;" horiz-adv-x="473" d="M436 588 Q484 535 468 448 Q466 433 461 418.5 Q456 404 448 390 Q435 364 414 343 Q397 324 372 303 Q361 294 349.5 284.5 Q338 275 327 265 Q315 255 304.5 245.5 Q294 236 283 225 Q263 205 246 177 Q230 148 224 118 L205 27 L185 27 L164 27 L170 61 L180 119 Q183 136 188.5 151 Q194 166 201 180 Q215 209 237 232 Q247 243 258 254 Q269 265 281 276 Q292 287 303.5 296.5 Q315 306 327 317 Q349 336 369 356 Q380 366 387.5 377 Q395 388 403 399 Q418 423 421 448 Q433 518 397 559 Q359 601 285 601 Q214 601 162 561 Q111 521 95 463 Q93 458 92.5 454 Q92 450 91 448 Q90 444 90 443 L48 449 Q56 486 76 518 Q95 551 125 580 Q141 594 159 605 Q177 616 199 624 Q240 641 292 641 Q389 641 436 588 Z M147 -49 L197 -49 L188 -100 L138 -100 L147 -49 Z " />
<glyph glyph-name="caron" unicode="&#x2c7;" horiz-adv-x="349" d="M202 528 Q181 510 159 510 Q136 510 123 528 L38 629 L90 629 L164 539 L269 629 L322 629 L202 528 Z " />
<glyph glyph-name="at" unicode="&#x40;" horiz-adv-x="970" d="M917 409 Q956 306 934 176 Q924 122 904.5 81 Q885 40 853 11 Q819 -23 772 -38 Q754 -43 734.5 -42.5 Q715 -42 701 -36 Q687 -30 680 -20.5 Q673 -11 671 -3 Q668 1 668 4 L668 7 Q664 3 663 1 Q656 -7 649 -15 Q642 -23 634 -30 Q606 -58 569 -77 Q511 -108 439 -108 Q319 -108 264 -32 Q210 45 232 175 Q255 309 335 383 Q415 459 535 459 Q607 459 653 431 Q683 415 702 388 Q706 382 711 373 Q718 364 724 351 L740 447 L784 447 L717 57 Q712 30 717 16.5 Q722 3 731 -1.5 Q740 -6 750 -5 Q760 -4 767 -3 Q789 4 801 14.5 Q813 25 826 37 Q874 85 891 176 Q911 296 875 388 Q841 482 757 533 Q674 585 555 585 Q436 585 336 533 Q234 482 167 388 Q100 295 80 176 Q59 58 94 -37 Q130 -130 213 -182 Q295 -234 415 -234 Q485 -234 554 -212 Q623 -190 682 -152 L700 -138 L722 -171 Q659 -219 575 -246 Q489 -273 408 -273 Q311 -273 233 -240 Q193 -223 162 -200 Q131 -177 105 -148 Q56 -88 38 -6 Q18 79 36 176 Q59 308 133 409 Q206 511 319 568 Q428 624 561 624 Q694 624 785 568 Q876 511 917 409 Z M697 198 Q709 267 694 316 Q687 340 671 361 Q669 363 668 365 Q667 367 665 369 Q620 420 528 420 Q430 420 362 355 Q333 325 310 283 Q288 237 277 176 Q267 119 273 74 Q279 29 302 -3 Q320 -30 347 -45 Q386 -69 446 -69 Q496 -69 536 -54.5 Q576 -40 608 -11 L610 -9 Q628 7 639 24 Q677 76 689 150 L697 198 Z " />
<glyph glyph-name="bracketleft" unicode="&#x5b;" horiz-adv-x="274" d="M307 679 L170 679 L21 -193 L127 -193 L144 -193 L158 -193 L156 -206 L151 -233 L120 -233 L-31 -233 L131 720 L314 720 L307 679 L307 679 Z " />
<glyph glyph-name="grave" unicode="&#x60;" horiz-adv-x="249" d="M112 629 L199 510 L153 510 L56 629 L112 629 L112 629 Z " />
<glyph glyph-name="dollar" unicode="&#x24;" horiz-adv-x="577" d="M368 295 Q556 250 532 97 Q517 1 444 -51 Q373 -103 254 -109 L237 -210 L194 -210 L210 -110 Q59 -105 -24 -9 L10 24 L13 21 Q15 19 17 16.5 Q19 14 23 11 Q96 -63 217 -68 L273 274 L222 286 Q46 328 67 462 Q80 547 151 595 Q219 640 332 642 L347 733 L390 733 L375 641 Q440 635 489 608 Q538 581 572 542 L537 510 L525 522 Q490 557 439 578 Q422 586 404.5 591 Q387 596 368 598 L321 308 L368 295 Z M280 318 L325 600 Q235 599 182 565 Q125 529 114 462 Q107 414 137 381 Q168 348 236 330 L280 318 Z M406 -24 Q472 21 484 96 Q493 154 462 194 Q429 235 353 254 L314 264 L260 -68 Q348 -62 406 -24 Z " />
<glyph glyph-name="tilde" unicode="&#x2dc;" horiz-adv-x="595" d="M401 465 Q378 465 360 480 Q340 495 326.5 515.5 Q313 536 300 555 Q289 572 273 588 Q257 604 234 604 Q201 604 180 582 Q160 559 145 510 L140 491 L107 497 Q143 641 241 641 Q270 641 292 624.5 Q314 608 328 588 Q335 579 344.5 564 Q354 549 364.5 535.5 Q375 522 386.5 512 Q398 502 408 502 Q439 502 463 524 Q483 546 498 593 L504 614 L536 607 Q495 465 401 465 Z " />
<glyph glyph-name="cedilla" unicode="&#xb8;" horiz-adv-x="245" d="M204 -172 Q219 -188 214 -217 Q208 -250 182 -268 Q154 -285 115 -285 L62 -285 L21 -285 L27 -251 L49 -251 L68 -251 L127 -251 Q174 -251 180 -218 Q182 -204 174 -198 Q168 -190 156 -190 L84 -190 Q69 -190 63 -182 Q58 -174 61 -161 L82 -100 L106 -101 L88 -156 L157 -156 Q188 -156 204 -172 Z " />
<glyph glyph-name="dieresis" unicode="&#xa8;" horiz-adv-x="210" d="M27 601 L77 601 L69 550 L19 550 L27 601 L27 601 Z M147 601 L196 601 L188 550 L139 550 L147 601 L147 601 Z " />
<glyph glyph-name="Ydieresis" unicode="&#x178;" horiz-adv-x="579" d="M629 629 L312 244 L253 -100 L207 -100 L266 242 L80 629 L138 629 L296 286 L573 629 L629 629 L629 629 Z M298 799 L348 799 L340 748 L290 748 L298 799 L298 799 Z M418 799 L467 799 L459 748 L410 748 L418 799 L418 799 Z " />
<glyph glyph-name="Edieresis" unicode="&#xcb;" horiz-adv-x="539" d="M548 587 L163 587 L112 295 L489 295 L482 255 L105 255 L50 -59 L435 -59 L428 -100 L-3 -100 L123 629 L555 629 L548 587 L548 587 Z M270 801 L320 801 L312 750 L262 750 L270 801 L270 801 Z M390 801 L439 801 L431 750 L382 750 L390 801 L390 801 Z " />
<glyph glyph-name="Adieresis" unicode="&#xc4;" horiz-adv-x="614" d="M494 -100 L447 133 L123 133 L-1 -100 L-50 -100 L344 629 L393 629 L546 -100 L494 -100 Z M145 175 L437 175 Q423 244 411.5 297.5 Q400 351 392 391.5 Q384 432 378 461 Q372 490 368 510 Q358 557 357 569 L145 175 Z M304 801 L354 801 L346 750 L296 750 L304 801 L304 801 Z M424 801 L473 801 L465 750 L416 750 L424 801 L424 801 Z " />
<glyph glyph-name="Odieresis" unicode="&#xd6;" horiz-adv-x="774" d="M323 -109 Q162 -109 89 -9 Q18 92 46 265 Q76 440 182 542 Q287 641 449 641 Q609 641 681 541 Q752 443 722 265 Q708 176 674.5 108.5 Q641 41 588 -9 Q482 -109 323 -109 Z M330 -67 Q470 -67 558 21 Q649 110 674 265 Q701 424 641 511 Q581 600 442 600 Q302 600 211 511 Q120 423 93 265 Q88 237 86.5 212.5 Q85 188 86 163 Q89 114 104 72 Q119 29 147 -2 Q175 -32 222 -50 Q270 -67 330 -67 Z M414 799 L464 799 L456 748 L406 748 L414 799 L414 799 Z M534 799 L583 799 L575 748 L526 748 L534 799 L534 799 Z " />
<glyph glyph-name="Udieresis" unicode="&#xdc;" horiz-adv-x="615" d="M450 -37 Q369 -109 241 -109 Q111 -109 57 -37 Q3 32 30 189 L108 629 L154 629 L77 189 Q55 63 96 -3 Q136 -67 249 -67 Q358 -67 422 -3 Q486 61 509 189 L587 629 L635 629 L557 189 Q530 34 450 -37 Z M320 803 L370 803 L362 752 L312 752 L320 803 L320 803 Z M440 803 L489 803 L481 752 L432 752 L440 803 L440 803 Z " />
<glyph glyph-name="adieresis" unicode="&#xe4;" horiz-adv-x="582" d="M538 448 L583 448 L488 -100 L466 -100 L447 -100 L465 7 Q425 -46 366 -78 Q306 -109 236 -109 Q116 -109 61 -33 Q5 44 29 174 Q52 307 133 382 Q213 458 333 458 Q405 458 452 430 Q501 401 521 350 L538 448 Z M99 -4 Q144 -70 243 -70 Q341 -70 405 -12 Q468 45 486 150 L495 197 Q513 301 469 360 Q425 419 326 419 Q228 419 161 354 Q93 288 74 175 Q53 62 99 -4 Z M299 596 L349 596 L341 545 L291 545 L299 596 L299 596 Z M419 596 L468 596 L460 545 L411 545 L419 596 L419 596 Z " />
<glyph glyph-name="edieresis" unicode="&#xeb;" horiz-adv-x="573" d="M336 458 Q368 458 395 452.5 Q422 447 445 436 Q468 425 485.5 409.5 Q503 394 516 375 Q541 338 549 289 Q558 241 549 188 L548 181 L544 161 L526 161 L69 161 Q54 58 102 -5 Q150 -68 246 -68 Q316 -68 372 -35 Q426 -3 463 60 Q465 64 467 67 Q469 70 471 72 Q473 75 473 76 L513 66 Q469 -18 401 -63 Q329 -109 239 -109 Q120 -109 62 -31 Q4 46 26 171 Q48 300 133 380 Q217 458 336 458 Z M329 418 Q237 418 169 359 Q101 302 77 201 L507 201 Q519 297 471 357 Q422 418 329 418 Z M316 599 L366 599 L358 548 L308 548 L316 599 L316 599 Z M436 599 L485 599 L477 548 L428 548 L436 599 L436 599 Z " />
<glyph glyph-name="odieresis" unicode="&#xf6;" horiz-adv-x="573" d="M239 -109 Q120 -109 64 -32 Q8 43 29 173 Q51 303 133 382 Q215 458 334 458 Q453 458 509 381 Q564 305 542 173 Q531 107 505.5 56.5 Q480 6 440 -32 Q357 -109 239 -109 Z M246 -68 Q345 -68 413 -3 Q447 30 468.5 73 Q490 116 499 173 Q519 287 472 352 Q427 418 327 418 Q228 418 161 352 Q94 288 74 173 Q65 116 72 73 Q79 30 102 -3 Q147 -68 246 -68 Z M306 599 L356 599 L348 548 L298 548 L306 599 L306 599 Z M426 599 L475 599 L467 548 L418 548 L426 599 L426 599 Z " />
<glyph glyph-name="acute" unicode="&#xb4;" horiz-adv-x="219" d="M147 629 L202 629 L62 510 L15 510 L147 629 L147 629 Z " />
<glyph glyph-name="Aacute" unicode="&#xc1;" horiz-adv-x="614" d="M494 -100 L447 133 L123 133 L-1 -100 L-50 -100 L344 629 L393 629 L546 -100 L494 -100 Z M145 175 L437 175 Q423 244 411.5 297.5 Q400 351 392 391.5 Q384 432 378 461 Q372 490 368 510 Q358 557 357 569 L145 175 Z M419 829 L474 829 L334 710 L287 710 L419 829 L419 829 Z " />
<glyph glyph-name="Eacute" unicode="&#xc9;" horiz-adv-x="539" d="M548 587 L163 587 L112 295 L489 295 L482 255 L105 255 L50 -59 L435 -59 L428 -100 L-3 -100 L123 629 L555 629 L548 587 L548 587 Z M393 827 L448 827 L308 708 L261 708 L393 827 L393 827 Z " />
<glyph glyph-name="Iacute" unicode="&#xcd;" horiz-adv-x="150" d="M-6 -100 L122 629 L170 629 L41 -100 L-6 -100 L-6 -100 Z M199 827 L254 827 L114 708 L67 708 L199 827 L199 827 Z " />
<glyph glyph-name="Oacute" unicode="&#xd3;" horiz-adv-x="774" d="M323 -109 Q162 -109 89 -9 Q18 92 46 265 Q76 440 182 542 Q287 641 449 641 Q609 641 681 541 Q752 443 722 265 Q708 176 674.5 108.5 Q641 41 588 -9 Q482 -109 323 -109 Z M330 -67 Q470 -67 558 21 Q649 110 674 265 Q701 424 641 511 Q581 600 442 600 Q302 600 211 511 Q120 423 93 265 Q88 237 86.5 212.5 Q85 188 86 163 Q89 114 104 72 Q119 29 147 -2 Q175 -32 222 -50 Q270 -67 330 -67 Z M531 829 L586 829 L446 710 L399 710 L531 829 L531 829 Z " />
<glyph glyph-name="Uacute" unicode="&#xda;" horiz-adv-x="615" d="M450 -37 Q369 -109 241 -109 Q111 -109 57 -37 Q3 32 30 189 L108 629 L154 629 L77 189 Q55 63 96 -3 Q136 -67 249 -67 Q358 -67 422 -3 Q486 61 509 189 L587 629 L635 629 L557 189 Q530 34 450 -37 Z M428 829 L483 829 L343 710 L296 710 L428 829 L428 829 Z " />
<glyph glyph-name="Yacute" unicode="&#xdd;" horiz-adv-x="579" d="M629 629 L312 244 L253 -100 L207 -100 L266 242 L80 629 L138 629 L296 286 L573 629 L629 629 L629 629 Z M416 831 L471 831 L331 712 L284 712 L416 831 L416 831 Z " />
<glyph glyph-name="yacute" unicode="&#xfd;" horiz-adv-x="482" d="M533 448 L178 -195 Q157 -234 121 -258 Q86 -281 47 -281 L11 -281 L18 -240 L61 -240 Q82 -240 105 -223 Q126 -207 144 -177 L186 -99 L76 448 L124 448 L219 -41 L485 448 L533 448 Z M387 629 L442 629 L302 510 L255 510 L387 629 L387 629 Z " />
<glyph glyph-name="oacute" unicode="&#xf3;" horiz-adv-x="573" d="M239 -109 Q120 -109 64 -32 Q8 43 29 173 Q51 303 133 382 Q215 458 334 458 Q453 458 509 381 Q564 305 542 173 Q531 107 505.5 56.5 Q480 6 440 -32 Q357 -109 239 -109 Z M246 -68 Q345 -68 413 -3 Q447 30 468.5 73 Q490 116 499 173 Q519 287 472 352 Q427 418 327 418 Q228 418 161 352 Q94 288 74 173 Q65 116 72 73 Q79 30 102 -3 Q147 -68 246 -68 Z M416 629 L471 629 L331 510 L284 510 L416 629 L416 629 Z " />
<glyph glyph-name="aacute" unicode="&#xe1;" horiz-adv-x="582" d="M538 448 L583 448 L488 -100 L466 -100 L447 -100 L465 7 Q425 -46 366 -78 Q306 -109 236 -109 Q116 -109 61 -33 Q5 44 29 174 Q52 307 133 382 Q213 458 333 458 Q405 458 452 430 Q501 401 521 350 L538 448 Z M99 -4 Q144 -70 243 -70 Q341 -70 405 -12 Q468 45 486 150 L495 197 Q513 301 469 360 Q425 419 326 419 Q228 419 161 354 Q93 288 74 175 Q53 62 99 -4 Z M397 629 L452 629 L312 510 L265 510 L397 629 L397 629 Z " />
<glyph glyph-name="ring" unicode="&#x2da;" horiz-adv-x="224" d="M155 515 Q131 494 99 494 Q68 494 50 515 Q32 536 37 567 Q42 599 66.5 620.5 Q91 642 122 642 Q154 642 171.5 620.5 Q189 599 184 567 Q180 537 155 515 Z M71 533 Q83 519 103 519 Q123 519 139 533 Q155 547 158 567 Q162 588 151 602.5 Q140 617 118 617 Q97 617 82 602.5 Q67 588 63 567 Q60 545 71 533 Z " />
<glyph glyph-name="Aring" unicode="&#xc5;" horiz-adv-x="614" d="M494 -100 L447 133 L123 133 L-1 -100 L-50 -100 L344 629 L393 629 L546 -100 L494 -100 Z M145 175 L437 175 Q423 244 411.5 297.5 Q400 351 392 391.5 Q384 432 378 461 Q372 490 368 510 Q358 557 357 569 L145 175 Z M437 715 Q413 694 381 694 Q350 694 332 715 Q314 736 319 767 Q324 799 348.5 820.5 Q373 842 404 842 Q436 842 453.5 820.5 Q471 799 466 767 Q462 737 437 715 Z M353 733 Q365 719 385 719 Q405 719 421 733 Q437 747 440 767 Q444 788 433 802.5 Q422 817 400 817 Q379 817 364 802.5 Q349 788 345 767 Q342 745 353 733 Z " />
<glyph glyph-name="aring" unicode="&#xe5;" horiz-adv-x="582" d="M538 448 L583 448 L488 -100 L466 -100 L447 -100 L465 7 Q425 -46 366 -78 Q306 -109 236 -109 Q116 -109 61 -33 Q5 44 29 174 Q52 307 133 382 Q213 458 333 458 Q405 458 452 430 Q501 401 521 350 L538 448 Z M99 -4 Q144 -70 243 -70 Q341 -70 405 -12 Q468 45 486 150 L495 197 Q513 301 469 360 Q425 419 326 419 Q228 419 161 354 Q93 288 74 175 Q53 62 99 -4 Z M424 515 Q400 494 368 494 Q337 494 319 515 Q301 536 306 567 Q311 599 335.5 620.5 Q360 642 391 642 Q423 642 440.5 620.5 Q458 599 453 567 Q449 537 424 515 Z M340 533 Q352 519 372 519 Q392 519 408 533 Q424 547 427 567 Q431 588 420 602.5 Q409 617 387 617 Q366 617 351 602.5 Q336 588 332 567 Q329 545 340 533 Z " />
<glyph glyph-name="Ecircumflex" unicode="&#xca;" horiz-adv-x="539" d="M548 587 L163 587 L112 295 L489 295 L482 255 L105 255 L50 -59 L435 -59 L428 -100 L-3 -100 L123 629 L555 629 L548 587 L548 587 Z M468 720 L415 720 L342 810 Q309 782 291 766.5 Q273 751 263 742.5 Q253 734 248 730 Q243 726 236 720 L184 720 L305 822 Q327 839 348 839 Q370 839 384 822 L468 720 Z " />
<glyph glyph-name="ocircumflex" unicode="&#xf4;" horiz-adv-x="573" d="M239 -109 Q120 -109 64 -32 Q8 43 29 173 Q51 303 133 382 Q215 458 334 458 Q453 458 509 381 Q564 305 542 173 Q531 107 505.5 56.5 Q480 6 440 -32 Q357 -109 239 -109 Z M246 -68 Q345 -68 413 -3 Q447 30 468.5 73 Q490 116 499 173 Q519 287 472 352 Q427 418 327 418 Q228 418 161 352 Q94 288 74 173 Q65 116 72 73 Q79 30 102 -3 Q147 -68 246 -68 Z M506 523 L453 523 L380 613 Q347 585 329 569.5 Q311 554 301 545.5 Q291 537 286 533 Q281 529 274 523 L222 523 L343 625 Q365 642 386 642 Q408 642 422 625 L506 523 Z " />
<glyph glyph-name="acircumflex" unicode="&#xe2;" horiz-adv-x="582" d="M538 448 L583 448 L488 -100 L466 -100 L447 -100 L465 7 Q425 -46 366 -78 Q306 -109 236 -109 Q116 -109 61 -33 Q5 44 29 174 Q52 307 133 382 Q213 458 333 458 Q405 458 452 430 Q501 401 521 350 L538 448 Z M99 -4 Q144 -70 243 -70 Q341 -70 405 -12 Q468 45 486 150 L495 197 Q513 301 469 360 Q425 419 326 419 Q228 419 161 354 Q93 288 74 175 Q53 62 99 -4 Z M494 523 L441 523 L368 613 Q335 585 317 569.5 Q299 554 289 545.5 Q279 537 274 533 Q269 529 262 523 L210 523 L331 625 Q353 642 374 642 Q396 642 410 625 L494 523 Z " />
<glyph glyph-name="Acircumflex" unicode="&#xc2;" horiz-adv-x="614" d="M494 -100 L447 133 L123 133 L-1 -100 L-50 -100 L344 629 L393 629 L546 -100 L494 -100 Z M145 175 L437 175 Q423 244 411.5 297.5 Q400 351 392 391.5 Q384 432 378 461 Q372 490 368 510 Q358 557 357 569 L145 175 Z M508 720 L455 720 L382 810 Q349 782 331 766.5 Q313 751 303 742.5 Q293 734 288 730 Q283 726 276 720 L224 720 L345 822 Q367 839 388 839 Q410 839 424 822 L508 720 Z " />
<glyph glyph-name="ecircumflex" unicode="&#xea;" horiz-adv-x="573" d="M336 458 Q368 458 395 452.5 Q422 447 445 436 Q468 425 485.5 409.5 Q503 394 516 375 Q541 338 549 289 Q558 241 549 188 L548 181 L544 161 L526 161 L69 161 Q54 58 102 -5 Q150 -68 246 -68 Q316 -68 372 -35 Q426 -3 463 60 Q465 64 467 67 Q469 70 471 72 Q473 75 473 76 L513 66 Q469 -18 401 -63 Q329 -109 239 -109 Q120 -109 62 -31 Q4 46 26 171 Q48 300 133 380 Q217 458 336 458 Z M329 418 Q237 418 169 359 Q101 302 77 201 L507 201 Q519 297 471 357 Q422 418 329 418 Z M513 523 L460 523 L387 613 Q354 585 336 569.5 Q318 554 308 545.5 Q298 537 293 533 Q288 529 281 523 L229 523 L350 625 Q372 642 393 642 Q415 642 429 625 L513 523 Z " />
<glyph glyph-name="Otilde" unicode="&#xd5;" horiz-adv-x="774" d="M323 -109 Q162 -109 89 -9 Q18 92 46 265 Q76 440 182 542 Q287 641 449 641 Q609 641 681 541 Q752 443 722 265 Q708 176 674.5 108.5 Q641 41 588 -9 Q482 -109 323 -109 Z M330 -67 Q470 -67 558 21 Q649 110 674 265 Q701 424 641 511 Q581 600 442 600 Q302 600 211 511 Q120 423 93 265 Q88 237 86.5 212.5 Q85 188 86 163 Q89 114 104 72 Q119 29 147 -2 Q175 -32 222 -50 Q270 -67 330 -67 Z M580 665 Q557 665 539 680 Q519 695 505.5 715.5 Q492 736 479 755 Q468 772 452 788 Q436 804 413 804 Q380 804 359 782 Q339 759 324 710 L319 691 L286 697 Q322 841 420 841 Q449 841 471 824.5 Q493 808 507 788 Q514 779 523.5 764 Q533 749 543.5 735.5 Q554 722 565.5 712 Q577 702 587 702 Q618 702 642 724 Q662 746 677 793 L683 814 L715 807 Q674 665 580 665 Z " />
<glyph glyph-name="Atilde" unicode="&#xc3;" horiz-adv-x="614" d="M494 -100 L447 133 L123 133 L-1 -100 L-50 -100 L344 629 L393 629 L546 -100 L494 -100 Z M145 175 L437 175 Q423 244 411.5 297.5 Q400 351 392 391.5 Q384 432 378 461 Q372 490 368 510 Q358 557 357 569 L145 175 Z M470 667 Q447 667 429 682 Q409 697 395.5 717.5 Q382 738 369 757 Q358 774 342 790 Q326 806 303 806 Q270 806 249 784 Q229 761 214 712 L209 693 L176 699 Q212 843 310 843 Q339 843 361 826.5 Q383 810 397 790 Q404 781 413.5 766 Q423 751 433.5 737.5 Q444 724 455.5 714 Q467 704 477 704 Q508 704 532 726 Q552 748 567 795 L573 816 L605 809 Q564 667 470 667 Z " />
<glyph glyph-name="atilde" unicode="&#xe3;" horiz-adv-x="582" d="M538 448 L583 448 L488 -100 L466 -100 L447 -100 L465 7 Q425 -46 366 -78 Q306 -109 236 -109 Q116 -109 61 -33 Q5 44 29 174 Q52 307 133 382 Q213 458 333 458 Q405 458 452 430 Q501 401 521 350 L538 448 Z M99 -4 Q144 -70 243 -70 Q341 -70 405 -12 Q468 45 486 150 L495 197 Q513 301 469 360 Q425 419 326 419 Q228 419 161 354 Q93 288 74 175 Q53 62 99 -4 Z M467 463 Q444 463 426 478 Q406 493 392.5 513.5 Q379 534 366 553 Q355 570 339 586 Q323 602 300 602 Q267 602 246 580 Q226 557 211 508 L206 489 L173 495 Q209 639 307 639 Q336 639 358 622.5 Q380 606 394 586 Q401 577 410.5 562 Q420 547 430.5 533.5 Q441 520 452.5 510 Q464 500 474 500 Q505 500 529 522 Q549 544 564 591 L570 612 L602 605 Q561 463 467 463 Z " />
<glyph glyph-name="ntilde" unicode="&#xf1;" horiz-adv-x="497" d="M460 397 Q497 336 476 217 L420 -100 L376 -100 L432 217 Q450 315 423 368 Q396 419 312 419 Q135 419 103 237 L43 -100 L0 -100 L91 415 L97 448 L119 448 L137 448 L134 428 L131 415 L120 351 Q190 458 319 458 Q423 458 460 397 Z M421 465 Q398 465 380 480 Q360 495 346.5 515.5 Q333 536 320 555 Q309 572 293 588 Q277 604 254 604 Q221 604 200 582 Q180 559 165 510 L160 491 L127 497 Q163 641 261 641 Q290 641 312 624.5 Q334 608 348 588 Q355 579 364.5 564 Q374 549 384.5 535.5 Q395 522 406.5 512 Q418 502 428 502 Q459 502 483 524 Q503 546 518 593 L524 614 L556 607 Q515 465 421 465 Z " />
<glyph glyph-name="otilde" unicode="&#xf5;" horiz-adv-x="573" d="M239 -109 Q120 -109 64 -32 Q8 43 29 173 Q51 303 133 382 Q215 458 334 458 Q453 458 509 381 Q564 305 542 173 Q531 107 505.5 56.5 Q480 6 440 -32 Q357 -109 239 -109 Z M246 -68 Q345 -68 413 -3 Q447 30 468.5 73 Q490 116 499 173 Q519 287 472 352 Q427 418 327 418 Q228 418 161 352 Q94 288 74 173 Q65 116 72 73 Q79 30 102 -3 Q147 -68 246 -68 Z M470 463 Q447 463 429 478 Q409 493 395.5 513.5 Q382 534 369 553 Q358 570 342 586 Q326 602 303 602 Q270 602 249 580 Q229 557 214 508 L209 489 L176 495 Q212 639 310 639 Q339 639 361 622.5 Q383 606 397 586 Q404 577 413.5 562 Q423 547 433.5 533.5 Q444 520 455.5 510 Q467 500 477 500 Q508 500 532 522 Q552 544 567 591 L573 612 L605 605 Q564 463 470 463 Z " />
<glyph glyph-name="Ntilde" unicode="&#xd1;" horiz-adv-x="601" d="M587 629 L635 629 L508 -100 L456 -100 L141 556 Q137 537 124 460 Q118 427 110 379 Q102 331 90 263 Q78 195 62.5 105.5 Q47 16 27 -100 L-19 -100 L107 629 L159 629 L474 -27 Q477 -8 490 69 Q496 102 504 150 Q512 198 524 265.5 Q536 333 551.5 423 Q567 513 587 629 Z M486 665 Q463 665 445 680 Q425 695 411.5 715.5 Q398 736 385 755 Q374 772 358 788 Q342 804 319 804 Q286 804 265 782 Q245 759 230 710 L225 691 L192 697 Q228 841 326 841 Q355 841 377 824.5 Q399 808 413 788 Q420 779 429.5 764 Q439 749 449.5 735.5 Q460 722 471.5 712 Q483 702 493 702 Q524 702 548 724 Q568 746 583 793 L589 814 L621 807 Q580 665 486 665 Z " />
<glyph glyph-name="Agrave" unicode="&#xc0;" horiz-adv-x="614" d="M494 -100 L447 133 L123 133 L-1 -100 L-50 -100 L344 629 L393 629 L546 -100 L494 -100 Z M145 175 L437 175 Q423 244 411.5 297.5 Q400 351 392 391.5 Q384 432 378 461 Q372 490 368 510 Q358 557 357 569 L145 175 Z M336 829 L423 710 L377 710 L280 829 L336 829 L336 829 Z " />
<glyph glyph-name="Ograve" unicode="&#xd2;" horiz-adv-x="774" d="M323 -109 Q162 -109 89 -9 Q18 92 46 265 Q76 440 182 542 Q287 641 449 641 Q609 641 681 541 Q752 443 722 265 Q708 176 674.5 108.5 Q641 41 588 -9 Q482 -109 323 -109 Z M330 -67 Q470 -67 558 21 Q649 110 674 265 Q701 424 641 511 Q581 600 442 600 Q302 600 211 511 Q120 423 93 265 Q88 237 86.5 212.5 Q85 188 86 163 Q89 114 104 72 Q119 29 147 -2 Q175 -32 222 -50 Q270 -67 330 -67 Z M457 829 L544 710 L498 710 L401 829 L457 829 L457 829 Z " />
<glyph glyph-name="Ugrave" unicode="&#xd9;" horiz-adv-x="615" d="M450 -37 Q369 -109 241 -109 Q111 -109 57 -37 Q3 32 30 189 L108 629 L154 629 L77 189 Q55 63 96 -3 Q136 -67 249 -67 Q358 -67 422 -3 Q486 61 509 189 L587 629 L635 629 L557 189 Q530 34 450 -37 Z M385 827 L472 708 L426 708 L329 827 L385 827 L385 827 Z " />
<glyph glyph-name="egrave" unicode="&#xe8;" horiz-adv-x="573" d="M336 458 Q368 458 395 452.5 Q422 447 445 436 Q468 425 485.5 409.5 Q503 394 516 375 Q541 338 549 289 Q558 241 549 188 L548 181 L544 161 L526 161 L69 161 Q54 58 102 -5 Q150 -68 246 -68 Q316 -68 372 -35 Q426 -3 463 60 Q465 64 467 67 Q469 70 471 72 Q473 75 473 76 L513 66 Q469 -18 401 -63 Q329 -109 239 -109 Q120 -109 62 -31 Q4 46 26 171 Q48 300 133 380 Q217 458 336 458 Z M329 418 Q237 418 169 359 Q101 302 77 201 L507 201 Q519 297 471 357 Q422 418 329 418 Z M353 629 L440 510 L394 510 L297 629 L353 629 L353 629 Z " />
<glyph glyph-name="eacute" unicode="&#xe9;" horiz-adv-x="573" d="M336 458 Q368 458 395 452.5 Q422 447 445 436 Q468 425 485.5 409.5 Q503 394 516 375 Q541 338 549 289 Q558 241 549 188 L548 181 L544 161 L526 161 L69 161 Q54 58 102 -5 Q150 -68 246 -68 Q316 -68 372 -35 Q426 -3 463 60 Q465 64 467 67 Q469 70 471 72 Q473 75 473 76 L513 66 Q469 -18 401 -63 Q329 -109 239 -109 Q120 -109 62 -31 Q4 46 26 171 Q48 300 133 380 Q217 458 336 458 Z M329 418 Q237 418 169 359 Q101 302 77 201 L507 201 Q519 297 471 357 Q422 418 329 418 Z M421 629 L476 629 L336 510 L289 510 L421 629 L421 629 Z " />
<glyph glyph-name="ograve" unicode="&#xf2;" horiz-adv-x="573" d="M239 -109 Q120 -109 64 -32 Q8 43 29 173 Q51 303 133 382 Q215 458 334 458 Q453 458 509 381 Q564 305 542 173 Q531 107 505.5 56.5 Q480 6 440 -32 Q357 -109 239 -109 Z M246 -68 Q345 -68 413 -3 Q447 30 468.5 73 Q490 116 499 173 Q519 287 472 352 Q427 418 327 418 Q228 418 161 352 Q94 288 74 173 Q65 116 72 73 Q79 30 102 -3 Q147 -68 246 -68 Z M354 629 L441 510 L395 510 L298 629 L354 629 L354 629 Z " />
<glyph glyph-name="agrave" unicode="&#xe0;" horiz-adv-x="582" d="M538 448 L583 448 L488 -100 L466 -100 L447 -100 L465 7 Q425 -46 366 -78 Q306 -109 236 -109 Q116 -109 61 -33 Q5 44 29 174 Q52 307 133 382 Q213 458 333 458 Q405 458 452 430 Q501 401 521 350 L538 448 Z M99 -4 Q144 -70 243 -70 Q341 -70 405 -12 Q468 45 486 150 L495 197 Q513 301 469 360 Q425 419 326 419 Q228 419 161 354 Q93 288 74 175 Q53 62 99 -4 Z M352 629 L439 510 L393 510 L296 629 L352 629 L352 629 Z " />
<glyph glyph-name="Egrave" unicode="&#xc8;" horiz-adv-x="539" d="M548 587 L163 587 L112 295 L489 295 L482 255 L105 255 L50 -59 L435 -59 L428 -100 L-3 -100 L123 629 L555 629 L548 587 L548 587 Z M323 829 L410 710 L364 710 L267 829 L323 829 L323 829 Z " />
<glyph glyph-name="Igrave" unicode="&#xcc;" horiz-adv-x="160" d="M-6 -100 L122 629 L170 629 L41 -100 L-6 -100 L-6 -100 Z M124 831 L211 712 L165 712 L68 831 L124 831 L124 831 Z " />
<glyph glyph-name="Idieresis" unicode="&#xcf;" horiz-adv-x="150" d="M-16 -100 L112 629 L160 629 L31 -100 L-16 -100 L-16 -100 Z M81 799 L131 799 L123 748 L73 748 L81 799 L81 799 Z M201 799 L250 799 L242 748 L193 748 L201 799 L201 799 Z " />
<glyph glyph-name="Icircumflex" unicode="&#xce;" horiz-adv-x="220" d="M24 -100 L152 629 L200 629 L71 -100 L24 -100 L24 -100 Z M314 720 L261 720 L188 810 Q155 782 137 766.5 Q119 751 109 742.5 Q99 734 94 730 Q89 726 82 720 L30 720 L151 822 Q173 839 194 839 Q216 839 230 822 L314 720 Z " />
<glyph glyph-name="Ucircumflex" unicode="&#xdb;" horiz-adv-x="615" d="M450 -37 Q369 -109 241 -109 Q111 -109 57 -37 Q3 32 30 189 L108 629 L154 629 L77 189 Q55 63 96 -3 Q136 -67 249 -67 Q358 -67 422 -3 Q486 61 509 189 L587 629 L635 629 L557 189 Q530 34 450 -37 Z M525 725 L472 725 L399 815 Q366 787 348 771.5 Q330 756 320 747.5 Q310 739 305 735 Q300 731 293 725 L241 725 L362 827 Q384 844 405 844 Q427 844 441 827 L525 725 Z " />
<glyph glyph-name="Ocircumflex" unicode="&#xd4;" horiz-adv-x="774" d="M323 -109 Q162 -109 89 -9 Q18 92 46 265 Q76 440 182 542 Q287 641 449 641 Q609 641 681 541 Q752 443 722 265 Q708 176 674.5 108.5 Q641 41 588 -9 Q482 -109 323 -109 Z M330 -67 Q470 -67 558 21 Q649 110 674 265 Q701 424 641 511 Q581 600 442 600 Q302 600 211 511 Q120 423 93 265 Q88 237 86.5 212.5 Q85 188 86 163 Q89 114 104 72 Q119 29 147 -2 Q175 -32 222 -50 Q270 -67 330 -67 Z M615 725 L562 725 L489 815 Q456 787 438 771.5 Q420 756 410 747.5 Q400 739 395 735 Q390 731 383 725 L331 725 L452 827 Q474 844 495 844 Q517 844 531 827 L615 725 Z " />
<glyph glyph-name="Ccedilla" unicode="&#xc7;" horiz-adv-x="833" d="M360 -109 Q201 -109 132 -9 Q61 90 91 265 Q122 442 226 541 Q332 641 491 641 Q614 641 689 578 Q762 514 774 402 L745 395 L733 392 Q729 391 727 391 Q727 394 726 398 Q724 406 724 408 Q709 498 648 550 Q587 599 483 599 Q346 599 255 510 Q167 425 138 265 Q129 211 130.5 163 Q132 115 147 71 Q160 35 182.5 8.5 Q205 -18 234 -35 Q263 -52 297 -60 Q331 -68 367 -68 Q477 -68 558 -13 Q599 15 630 52.5 Q661 90 681 139 L690 160 L709 154 L734 148 Q686 27 588 -41 Q490 -109 360 -109 Z M491 -172 Q506 -188 501 -217 Q495 -250 469 -268 Q441 -285 402 -285 L349 -285 L308 -285 L314 -251 L336 -251 L355 -251 L414 -251 Q461 -251 467 -218 Q469 -204 461 -198 Q455 -190 443 -190 L371 -190 Q356 -190 350 -182 Q345 -174 348 -161 L369 -100 L393 -101 L375 -156 L444 -156 Q475 -156 491 -172 Z " />
<glyph glyph-name="ccedilla" unicode="&#xe7;" horiz-adv-x="593" d="M246 -109 Q126 -109 72 -31 Q44 7 36 56.5 Q28 106 39 171 Q61 303 144 381 Q226 458 345 458 Q439 458 493 410 Q547 364 556 277 L511 264 L509 283 Q497 350 453 383 Q409 418 338 418 Q238 418 171 352 Q103 284 84 171 Q74 115 80.5 72.5 Q87 30 110 -3 Q155 -68 253 -68 Q328 -68 387 -31 Q444 7 478 77 Q478 81 482 89 L486 97 L527 86 Q489 -7 416 -58 Q344 -109 246 -109 Z M371 -172 Q386 -188 381 -217 Q375 -250 349 -268 Q321 -285 282 -285 L229 -285 L188 -285 L194 -251 L216 -251 L235 -251 L294 -251 Q341 -251 347 -218 Q349 -204 341 -198 Q335 -190 323 -190 L251 -190 Q236 -190 230 -182 Q225 -174 228 -161 L249 -100 L273 -101 L255 -156 L324 -156 Q355 -156 371 -172 Z " />
<glyph glyph-name="ydieresis" unicode="&#xff;" horiz-adv-x="482" d="M533 448 L178 -195 Q157 -234 121 -258 Q86 -281 47 -281 L11 -281 L18 -240 L61 -240 Q82 -240 105 -223 Q126 -207 144 -177 L186 -99 L76 448 L124 448 L219 -41 L485 448 L533 448 Z M243 599 L293 599 L285 548 L235 548 L243 599 L243 599 Z M363 599 L412 599 L404 548 L355 548 L363 599 L363 599 Z " />
<glyph glyph-name="Zcaron" unicode="&#x17d;" horiz-adv-x="558" d="M603 629 L596 587 L29 -58 L489 -58 L482 -100 L-36 -100 L-29 -58 L538 587 L77 587 L84 629 L603 629 L603 629 Z M419 728 Q398 710 376 710 Q353 710 340 728 L255 829 L307 829 L381 739 L486 829 L539 829 L419 728 Z " />
<glyph glyph-name="zcaron" unicode="&#x17e;" horiz-adv-x="500" d="M522 448 L515 409 L44 -61 L436 -61 L429 -100 L-19 -100 L-12 -61 L459 409 L66 409 L73 448 L522 448 L522 448 Z M385 528 Q364 510 342 510 Q319 510 306 528 L221 629 L273 629 L347 539 L452 629 L505 629 L385 528 Z " />
<glyph glyph-name="Scaron" unicode="&#x160;" horiz-adv-x="584" d="M225 -109 Q64 -109 -22 -8 L12 26 Q13 24 15 22 Q17 20 19 17.5 Q21 15 25 12 Q103 -67 233 -67 Q340 -67 407 -23 Q473 21 487 97 Q496 154 465 194 Q434 234 355 254 L226 286 Q50 328 73 462 Q88 550 160 596 Q231 642 350 642 Q427 642 483 614 Q540 585 578 542 L543 509 L530 522 Q495 556 446 579 Q420 590 395 595.5 Q370 601 343 601 Q246 601 189 565 Q132 529 120 462 Q103 364 239 330 L373 296 Q560 249 535 98 Q517 -4 436 -56 Q356 -109 225 -109 Z M398 728 Q377 710 355 710 Q332 710 319 728 L234 829 L286 829 L360 739 L465 829 L518 829 L398 728 Z " />
<glyph glyph-name="scaron" unicode="&#x161;" horiz-adv-x="473" d="M189 -109 Q124 -109 74 -84 Q22 -59 1 -24 L37 4 L47 -8 Q64 -31 108 -51 Q147 -70 196 -70 Q277 -70 327 -40 Q375 -11 386 47 Q401 136 269 166 Q259 169 241 173 Q223 177 195 183 Q59 214 78 324 Q89 383 146 420 Q204 459 291 459 Q354 459 396 432 Q419 419 433 405 Q447 391 456 376 L434 361 L418 350 Q416 352 414 355 Q412 357 410.5 359 Q409 361 408 363 Q391 384 358 403 Q326 420 282 420 Q218 420 173 392 Q150 378 137.5 361.5 Q125 345 121 325 Q107 248 207 224 Q214 222 223 220 Q232 218 244 215 Q256 212 265 209.5 Q274 207 281 205 Q359 187 400 146 Q439 108 430 47 Q417 -29 354 -69 Q292 -109 189 -109 Z M342 528 Q321 510 299 510 Q276 510 263 528 L178 629 L230 629 L304 539 L409 629 L462 629 L342 528 Z " />
<glyph glyph-name="sterling" unicode="&#xa3;" horiz-adv-x="567" d="M476 -57 L468 -100 L-7 -100 L0 -57 Q96 61 115 181 Q119 205 118 221 L47 221 L54 264 L113 264 Q108 292 97.5 317.5 Q87 343 82 374 Q78 402 83 433.5 Q88 465 101 494 Q113 523 135.5 550 Q158 577 188 597 Q226 621 270 631 Q314 641 359 641 Q401 641 440 631 Q479 621 512 596 Q523 587 533 576.5 Q543 566 551 552 L514 521 L503 536 Q452 597 351 597 Q263 597 203 555 Q145 514 131 436 Q126 407 132.5 377.5 Q139 348 148 321 Q160 288 163 264 L449 264 L442 221 L166 221 Q166 203 163 184 Q141 51 52 -57 L476 -57 Z " />
<glyph glyph-name="yen" unicode="&#xa5;" horiz-adv-x="579" d="M633 630 L400 349 L506 349 L502 327 L499 307 L479 307 L366 307 L315 245 L304 183 L477 183 L473 161 L469 140 L449 140 L296 140 L254 -100 L206 -100 L248 140 L74 140 L78 163 L82 183 L102 183 L256 183 L267 245 L237 307 L104 307 L108 329 L111 349 L131 349 L217 349 L84 630 L142 630 L270 349 L348 349 L577 630 L633 630 Z M298 287 L314 307 L290 307 L298 287 Z " />
<glyph glyph-name="cent" unicode="&#xa2;" horiz-adv-x="593" d="M545 175 Q507 82 434 31 Q363 -19 269 -20 L253 -109 L210 -109 L226 -18 Q125 -4 82 70 Q60 108 53 155.5 Q46 203 57 263 Q78 385 148 459 Q216 533 322 547 L323 547 L339 642 L382 642 L366 549 Q456 548 511 502 Q566 453 575 369 L550 362 Q548 361 544.5 360.5 Q541 360 538 359 Q534 358 531 357 Q530 360 529 364 Q527 372 526 375 Q514 439 470 474 Q426 508 359 510 L275 20 Q349 20 405 58 Q463 96 496 166 L502 178 L506 186 L512 184 Q514 183 517 182 Q520 181 523 181 L545 175 Z M128 86 Q164 33 233 23 L316 507 Q241 495 189 443 Q121 378 101 263 Q81 152 128 86 Z " />
<glyph glyph-name="lslash" unicode="&#x142;" horiz-adv-x="330" d="M257 -61 L254 -77 L250 -100 L215 -100 L192 -100 Q131 -100 102 -62 Q75 -23 87 46 L119 231 L-3 181 L-14 219 L9 229 L126 277 L187 632 L231 632 L174 296 L305 351 L315 312 L292 302 L166 251 L131 46 Q122 -4 139 -33 Q158 -61 199 -61 L222 -61 L237 -61 L257 -61 Z " />
<glyph glyph-name="Lslash" unicode="&#x141;" horiz-adv-x="576" d="M121 -59 L506 -59 L499 -100 L67 -100 L123 226 L11 180 L0 218 L24 228 L131 272 L192 630 L239 630 L181 293 L320 350 L330 311 L307 301 L173 247 L121 -59 L121 -59 Z " />
<glyph glyph-name="Eth" unicode="&#xd0;" horiz-adv-x="752" d="M668 534 Q739 438 710 265 Q679 92 574 -5 Q470 -100 308 -100 L55 -100 L115 244 L0 244 L7 286 L123 286 L183 630 L436 630 Q594 630 668 534 Z M544 26 Q633 111 662 265 Q688 420 627 503 Q567 588 428 588 L223 588 L171 286 L331 286 L323 244 L163 244 L111 -59 L316 -59 Q454 -59 544 26 Z " />
<glyph glyph-name="Oslash" unicode="&#xd8;" horiz-adv-x="774" d="M682 543 Q753 446 724 267 Q694 91 588 -9 Q484 -109 323 -109 Q248 -109 190 -86 L139 -170 L96 -170 L157 -70 Q118 -48 89 -9 Q18 92 48 267 Q76 444 183 543 Q287 643 449 643 Q527 643 581 621 L631 703 L675 703 L614 605 Q654 581 682 543 Z M147 -2 Q155 -10 163.5 -17 Q172 -24 182 -30 L556 581 Q533 592 504 596.5 Q475 601 442 601 Q302 601 211 513 Q120 424 95 267 Q90 239 88 213.5 Q86 188 87 163 Q88 116 104 72 Q112 50 122.5 32 Q133 14 147 -2 Z M559 21 Q649 109 676 267 Q702 426 642 513 Q622 542 590 565 L215 -47 Q217 -48 218.5 -48.5 Q220 -49 222 -50 Q245 -59 272.5 -63 Q300 -67 330 -67 Q470 -67 559 21 Z " />
<glyph glyph-name="multiply" unicode="&#xd7;" horiz-adv-x="233" d="M209 358 L144 301 L190 239 L144 239 L114 275 L72 239 L27 239 L93 301 L46 358 L101 358 L122 329 L154 358 L209 358 L209 358 Z " />
<glyph glyph-name="eth" unicode="&#xf0;" horiz-adv-x="592" d="M410 548 L455 486 L409 486 L379 522 L337 486 L292 486 L359 548 L313 605 L368 605 L389 576 L421 605 L476 605 L410 548 Z M239 -109 Q120 -109 64 -32 Q8 43 29 173 Q51 303 133 382 Q215 458 334 458 Q453 458 509 381 Q564 305 542 173 Q531 107 505.5 56.5 Q480 6 440 -32 Q357 -109 239 -109 Z M246 -68 Q345 -68 413 -3 Q447 30 468.5 73 Q490 116 499 173 Q519 287 472 352 Q427 418 327 418 Q228 418 161 352 Q94 288 74 173 Q65 116 72 73 Q79 30 102 -3 Q147 -68 246 -68 Z " />
<glyph glyph-name="fi" unicode="&#xfb01;" horiz-adv-x="395" d="M357 447 L401 447 L307 -100 L263 -100 L357 447 Z M435 631 L426 580 L376 580 L378 591 L259 591 Q216 591 187 563 Q157 532 150 482 L144 449 L318 449 L311 409 L137 409 L50 -100 L7 -100 L94 409 L13 409 L20 449 L101 449 L107 482 Q118 552 160 591 Q203 631 266 631 L351 631 L435 631 Z " />
<glyph glyph-name="fl" unicode="&#xfb02;" horiz-adv-x="519" d="M405 629 L398 589 L275 589 Q233 589 204 560 Q175 531 166 479 L160 446 L334 446 L327 407 L153 407 L63 -100 L20 -100 L110 407 L29 407 L36 446 L117 446 L123 479 Q135 552 177 589 Q199 609 224.5 619 Q250 629 282 629 L405 629 Z M436 -61 L429 -100 L371 -100 Q308 -100 282 -62 Q254 -24 266 46 L366 629 L410 629 L310 46 Q301 -5 319 -33 Q335 -61 378 -61 L436 -61 Z " />
<glyph glyph-name="AE" unicode="&#xc6;" horiz-adv-x="768" d="M353 295 L731 295 L725 255 L347 255 L295 -59 L681 -59 L674 -100 L241 -100 L280 133 L117 133 L-7 -100 L-56 -100 L338 630 L795 630 L788 588 L402 588 L353 295 Z M351 567 L351 569 L351 570 L138 174 L286 174 L351 567 Z " />
<glyph glyph-name="ae" unicode="&#xe6;" horiz-adv-x="1041" d="M998 291 Q1007 243 998 190 L997 183 Q996 181 996 177 Q996 173 995 170 Q994 166 993 162 L975 162 L518 162 Q515 136 515 112 Q515 88 520 67 Q524 46 532 28 Q540 10 551 -6 Q597 -69 696 -69 Q767 -69 821 -36 Q876 -3 912 58 Q914 62 915.5 65.5 Q917 69 919 71 Q921 74 922 75 L962 64 Q920 -19 850 -65 Q779 -110 689 -110 Q570 -110 511 -33 Q509 -30 508 -27.5 Q507 -25 505 -22 L492 -99 L469 -99 L450 -99 Q450 -95 451 -91 Q452 -88 452 -84.5 Q452 -81 453 -79 L467 7 Q428 -47 369 -78 Q311 -109 239 -109 Q120 -109 65 -33 Q8 43 31 174 Q52 307 134 383 Q215 459 333 459 Q404 459 453 430 Q476 416 493.5 396 Q511 376 522 350 L538 447 L583 447 L571 371 L581 381 Q665 459 784 459 Q848 459 893 437 Q939 414 965 377 Q977 357 985.5 336 Q994 315 998 291 Z M407 -12 Q449 25 470 81 Q467 121 475 173 Q480 198 486 221 Q492 244 501 266 Q498 323 470 360 Q426 419 327 419 Q229 419 162 354 Q94 288 76 175 Q57 62 102 -4 Q146 -69 246 -69 Q345 -69 407 -12 Z M956 202 Q968 299 920 359 Q870 419 778 419 Q683 419 618 360 Q598 343 583 323.5 Q568 304 555 281 Q545 263 538 243.5 Q531 224 526 202 L956 202 Z " />
<glyph glyph-name="OE" unicode="&#x152;" horiz-adv-x="1108" d="M673 295 L1050 295 L1043 255 L666 255 L613 -59 L998 -59 L991 -100 L558 -100 L574 -8 L570 -12 Q465 -111 304 -111 Q143 -111 71 -11 Q0 88 30 265 Q59 442 164 541 Q272 641 431 641 Q591 641 664 541 Q665 540 665 538 L681 630 L1114 630 L1107 588 L722 588 L673 295 Z M651 454 Q642 485 624 511 Q564 599 424 599 Q285 599 193 510 Q103 421 77 265 Q66 207 69 160 Q69 114 86 69 Q101 27 129 -4 Q144 -19 162.5 -31.5 Q181 -44 204 -52 Q250 -70 311 -70 Q452 -70 541 19 Q555 32 566 46 Q577 60 588 76 L651 454 Z " />
<glyph glyph-name="oe" unicode="&#x153;" horiz-adv-x="1025" d="M1004 292 Q1013 244 1004 191 L1003 184 Q1002 182 1002 178.5 Q1002 175 1001 172 Q1000 168 1000 164 Q997 163 993 163 L982 163 L525 163 Q523 146 521.5 130 Q520 114 522 99 Q525 37 558 -5 Q606 -68 702 -68 Q772 -68 828 -35 Q884 -2 918 59 Q920 63 922 66.5 Q924 70 926 72 Q928 75 928 76 L968 65 Q927 -19 857 -64 Q786 -109 696 -109 Q577 -109 518 -32 Q500 -6 487 28 Q465 -7 438 -32 Q358 -109 238 -109 Q119 -109 62 -32 Q6 44 28 176 Q49 306 131 384 Q211 460 332 460 Q452 460 507 384 Q526 358 537 323 Q558 356 587 382 Q669 460 790 460 Q852 460 899 438 Q922 427 940 412 Q958 397 970 378 Q995 340 1004 292 Z M411 -3 Q432 17 448 41.5 Q464 66 475 95 Q474 113 476 133 Q478 153 481 174 Q485 196 490.5 216 Q496 236 503 255 Q501 284 493 309.5 Q485 335 470 355 Q423 420 325 420 Q227 420 159 355 Q126 322 104 277.5 Q82 233 73 176 Q54 63 100 -3 Q146 -68 244 -68 Q345 -68 411 -3 Z M963 203 Q973 298 925 360 Q877 420 783 420 Q689 420 623 361 Q572 316 547 251 Q538 228 532 203 L963 203 Z " />
<glyph glyph-name="igrave" unicode="&#xec;" horiz-adv-x="186" d="M-10 -100 L88 447 L131 447 L32 -100 L-10 -100 Z M94 629 L181 510 L135 510 L38 629 L94 629 Z " />
<glyph glyph-name="iacute" unicode="&#xed;" horiz-adv-x="182" d="M-7 -100 L85 447 L128 447 L35 -100 L-7 -100 Z M160 629 L215 629 L75 510 L28 510 L160 629 L160 629 Z " />
<glyph glyph-name="icircumflex" unicode="&#xee;" horiz-adv-x="182" d="M-26 -100 L72 447 L115 447 L16 -100 L-26 -100 Z M252 523 L199 523 L126 613 Q93 585 75 569.5 Q57 554 47 545.5 Q37 537 32 533 Q27 529 20 523 L-32 523 L89 625 Q111 642 132 642 Q154 642 168 625 L252 523 Z " />
<glyph glyph-name="idieresis" unicode="&#xef;" horiz-adv-x="180" d="M-47 -100 L47 447 L90 447 L-5 -100 L-47 -100 Z M11 597 L61 597 L53 546 L3 546 L11 597 L11 597 Z M131 597 L180 597 L172 546 L123 546 L131 597 L131 597 Z " />
<glyph glyph-name="ugrave" unicode="&#xf9;" horiz-adv-x="504" d="M512 448 L417 -100 L377 -100 L394 -3 Q325 -109 194 -109 Q91 -109 54 -48 Q16 13 37 132 L92 448 L137 448 L82 132 Q64 31 91 -19 Q118 -70 201 -70 Q378 -70 411 112 L469 448 L512 448 Z M285 629 L372 510 L326 510 L229 629 L285 629 L285 629 Z " />
<glyph glyph-name="uacute" unicode="&#xfa;" horiz-adv-x="504" d="M512 448 L417 -100 L377 -100 L394 -3 Q325 -109 194 -109 Q91 -109 54 -48 Q16 13 37 132 L92 448 L137 448 L82 132 Q64 31 91 -19 Q118 -70 201 -70 Q378 -70 411 112 L469 448 L512 448 Z M358 629 L413 629 L273 510 L226 510 L358 629 L358 629 Z " />
<glyph glyph-name="ucircumflex" unicode="&#xfb;" horiz-adv-x="504" d="M512 448 L417 -100 L377 -100 L394 -3 Q325 -109 194 -109 Q91 -109 54 -48 Q16 13 37 132 L92 448 L137 448 L82 132 Q64 31 91 -19 Q118 -70 201 -70 Q378 -70 411 112 L469 448 L512 448 Z M463 525 L410 525 L337 615 Q304 587 286 571.5 Q268 556 258 547.5 Q248 539 243 535 Q238 531 231 525 L179 525 L300 627 Q322 644 343 644 Q365 644 379 627 L463 525 Z " />
<glyph glyph-name="udieresis" unicode="&#xfc;" horiz-adv-x="504" d="M512 448 L417 -100 L377 -100 L394 -3 Q325 -109 194 -109 Q91 -109 54 -48 Q16 13 37 132 L92 448 L137 448 L82 132 Q64 31 91 -19 Q118 -70 201 -70 Q378 -70 411 112 L469 448 L512 448 Z M249 601 L299 601 L291 550 L241 550 L249 601 L249 601 Z M369 601 L418 601 L410 550 L361 550 L369 601 L369 601 Z " />
<glyph glyph-name="oslash" unicode="&#xf8;" horiz-adv-x="571" d="M60 -151 L461 502 L504 502 L101 -151 L60 -151 Z M238 -109 Q119 -109 63 -32 Q7 43 28 173 Q50 303 132 382 Q214 458 333 458 Q452 458 508 381 Q563 305 541 173 Q530 107 504.5 56.5 Q479 6 439 -32 Q356 -109 238 -109 Z M245 -68 Q344 -68 412 -3 Q446 30 467.5 73 Q489 116 498 173 Q518 287 471 352 Q426 418 326 418 Q227 418 160 352 Q93 288 73 173 Q64 116 71 73 Q78 30 101 -3 Q146 -68 245 -68 Z " />
<glyph glyph-name="B" unicode="B" horiz-adv-x="589" d="M422 277 Q489 257 514 211 Q543 165 531 95 Q515 2 442 -49 Q370 -100 252 -100 L-13 -100 L113 629 L369 629 Q481 629 533 580 Q586 533 571 443 Q561 382 522 339 Q484 297 422 277 Z M153 587 L102 294 L311 294 Q399 294 455 333 Q509 372 521 441 Q533 513 491 549 Q448 587 359 587 L153 587 Z M252 -59 Q350 -59 409 -18 Q470 23 482 97 Q495 173 452 214 Q406 255 314 255 L95 255 L40 -59 L252 -59 Z " />
<glyph glyph-name="C" unicode="C" horiz-adv-x="763" d="M317 -109 Q158 -109 89 -9 Q18 90 48 265 Q79 442 183 541 Q289 641 448 641 Q571 641 646 578 Q719 514 731 402 L702 395 L690 392 Q686 391 684 391 Q684 394 683 398 Q681 406 681 408 Q666 498 605 550 Q544 599 440 599 Q303 599 212 510 Q124 425 95 265 Q86 211 87.5 163 Q89 115 104 71 Q117 35 139.5 8.5 Q162 -18 191 -35 Q220 -52 254 -60 Q288 -68 324 -68 Q434 -68 515 -13 Q556 15 587 52.5 Q618 90 638 139 L647 160 L666 154 L691 148 Q643 27 545 -41 Q447 -109 317 -109 Z " />
<glyph glyph-name="A" unicode="A" horiz-adv-x="614" d="M494 -100 L447 133 L123 133 L-1 -100 L-50 -100 L344 629 L393 629 L546 -100 L494 -100 Z M145 175 L437 175 Q423 244 411.5 297.5 Q400 351 392 391.5 Q384 432 378 461 Q372 490 368 510 Q358 557 357 569 L145 175 Z " />
<glyph glyph-name="quotedblright" unicode="&#x201d;" horiz-adv-x="189" d="M9 503 Q2 503 4 511 L32 569 Q35 581 28 586 Q18 595 21 613 Q23 629 35 638.5 Q47 648 61 648 Q77 648 84.5 637.5 Q92 627 90 613 Q89 604 55 531 Q47 514 37 509 Q26 503 9 503 Z M95 503 Q90 503 90 506 Q87 507 89 511 L116 569 Q119 581 113 586 Q103 596 106 613 Q108 629 119.5 638.5 Q131 648 145 648 Q160 648 169 637.5 Q178 627 176 613 Q175 611 166 590 Q157 569 139 531 Q131 514 121 509 Q110 503 95 503 Z " />
<glyph glyph-name="quotedblleft" unicode="&#x201c;" horiz-adv-x="191" d="M9 503 Q2 503 4 511 L32 569 Q35 581 28 586 Q18 595 21 613 Q23 629 35 638.5 Q47 648 61 648 Q77 648 84.5 637.5 Q92 627 90 613 Q89 604 55 531 Q47 514 37 509 Q26 503 9 503 Z M95 503 Q90 503 90 506 Q87 507 89 511 L116 569 Q119 581 113 586 Q103 596 106 613 Q108 629 119.5 638.5 Q131 648 145 648 Q160 648 169 637.5 Q178 627 176 613 Q175 611 166 590 Q157 569 139 531 Q131 514 121 509 Q110 503 95 503 Z " />
<glyph glyph-name="quoteleft" unicode="&#x2018;" horiz-adv-x="135" d="M33 495 Q29 495 28 498 Q27 500 27.5 501 Q28 502 28 504 L55 562 Q61 573 53 579 Q43 589 46 606 Q49 620 61 631 Q72 641 87 641 Q102 641 111 631 Q119 622 116 606 Q115 599 78 522 Q75 514 70.5 509 Q66 504 61 501 Q50 495 33 495 Z " />
<glyph glyph-name="quoteright" unicode="&#x2019;" horiz-adv-x="132" d="M33 495 Q29 495 28 498 Q27 500 27.5 501 Q28 502 28 504 L55 562 Q61 573 53 579 Q43 589 46 606 Q49 620 61 631 Q72 641 87 641 Q102 641 111 631 Q119 622 116 606 Q115 599 78 522 Q75 514 70.5 509 Q66 504 61 501 Q50 495 33 495 Z " />
</font>
</svg>
