<?xml version="1.0" encoding="UTF-8"?>
<svg xmlns="http://www.w3.org/2000/svg" xmlns:xlink="http://www.w3.org/1999/xlink" version="1.2" >
<font id="Noirden Regular">
<font-face  font-family="Noirden" units-per-em="1000" ascent="750" descent="-250" font-style="normal" font-weight="400" font-stretch="normal" cap-height="900" x-height="700" underline-position="-75" underline-thickness="50" />
<missing-glyph  horiz-adv-x="197" d="" />
<glyph glyph-name="NULL" d="" />
<glyph glyph-name="CR" unicode="&#xd;" horiz-adv-x="197" d="" />
<glyph glyph-name="space" unicode="&#x20;" horiz-adv-x="197" d="" />
<glyph glyph-name="exclam" unicode="&#x21;" horiz-adv-x="124" d="M94 47 L97 199 L97 199 C97 225 98 252 98 278 L98 629 L27 629 L27 277 C27 213 28 136 31 47 L94 47 L94 47 Z M93 -35 L30 -35 L30 -102 L93 -102 L93 -35 L93 -35 Z " />
<glyph glyph-name="quotedbl" unicode="&#x22;" horiz-adv-x="215" d="M21 483 C36 483 48 486 57 492 C65 498 72 508 77 522 C92 571 99 598 99 602 C99 627 80 648 53 648 C29 648 8 629 8 602 C8 588 13 577 23 568 C29 563 31 556 28 545 L13 494 C12 491 12 489 14 486 C15 484 18 483 21 483 L21 483 Z M128 483 C144 483 156 486 165 492 C173 498 180 508 185 522 C199 568 207 595 207 602 C207 626 189 648 162 648 C137 648 116 629 116 602 C116 587 121 576 131 568 C138 563 140 556 136 545 L121 494 C120 491 120 489 122 486 C123 484 125 483 128 483 L128 483 Z " />
<glyph glyph-name="numbersign" unicode="&#x23;" horiz-adv-x="624" d="M566 356 L580 416 L489 416 L534 630 L474 630 L428 416 L245 416 L291 630 L230 630 L185 416 L93 416 L80 356 L171 356 L133 173 L41 173 L28 112 L119 112 L74 -100 L135 -100 L180 112 L363 112 L318 -100 L378 -100 L424 112 L515 112 L528 173 L437 173 L476 356 L566 356 Z M376 173 L194 173 L232 356 L414 356 L376 173 Z " />
<glyph glyph-name="dollar" unicode="&#x24;" horiz-adv-x="577" d="M511 235 C475 269 419 295 344 312 L322 317 L322 577 C371 568 421 545 472 506 C481 499 490 492 490 492 L532 542 C472 600 402 632 322 640 L322 733 L260 733 L260 643 C188 639 132 622 91 591 C51 559 31 514 31 456 C31 361 95 300 225 273 L260 265 L260 -47 C189 -42 127 -18 74 27 C64 35 59 39 59 39 L14 -9 C47 -40 84 -65 123 -81 C162 -97 208 -107 260 -109 L260 -214 L322 -214 L322 -109 C399 -104 458 -84 501 -48 C543 -12 565 38 565 104 C565 158 547 201 511 235 L511 235 Z M229 338 C187 348 155 363 133 383 C111 404 100 428 100 456 C100 496 115 527 145 549 C172 567 210 578 260 580 L260 331 L229 338 L229 338 Z M439 -5 C409 -28 370 -42 322 -46 L322 251 L334 248 C387 237 428 219 454 193 C481 167 494 137 494 103 C494 60 476 23 439 -5 L439 -5 Z " />
<glyph glyph-name="percent" unicode="&#x25;" horiz-adv-x="646" d="M172 375 C249 378 307 436 307 511 C307 587 244 646 172 646 C96 646 37 583 37 511 C37 434 99 375 172 375 L172 375 Z M109 574 C127 591 148 600 172 600 C196 600 217 591 235 574 C253 556 261 535 261 511 C261 486 253 465 235 448 C217 430 196 421 172 421 C148 421 127 430 109 448 C92 465 83 486 83 511 C83 535 92 556 109 574 L109 574 Z M468 162 C391 159 333 101 333 26 C333 -51 395 -109 468 -109 C545 -109 604 -47 604 26 C604 103 541 162 468 162 L468 162 Z M531 -37 C514 -55 492 -63 468 -63 C444 -63 423 -55 405 -37 C388 -19 379 2 379 26 C379 51 388 72 405 89 C423 107 444 116 468 116 C492 116 514 107 531 89 C549 72 557 51 557 26 C557 2 549 -19 531 -37 L531 -37 Z M535 634 L42 -97 L106 -97 L598 634 L535 634 Z " />
<glyph glyph-name="ampersand" unicode="&#x26;" horiz-adv-x="744" d="M692 -38 C654 -38 622 -23 596 8 L575 32 C620 89 652 160 671 245 C624 259 611 262 611 262 C594 197 568 134 531 83 L313 336 L345 357 C407 399 439 446 439 499 C439 543 425 577 397 603 C369 628 331 641 283 641 C238 641 202 628 175 603 C148 577 135 544 135 502 C135 466 154 425 192 380 L219 348 L149 305 C67 253 26 190 26 115 C26 48 50 -7 98 -49 C146 -90 208 -111 286 -111 C380 -111 462 -79 531 -15 L552 -40 C567 -59 587 -73 611 -84 C635 -94 659 -100 683 -100 L692 -100 L694 -100 L718 -100 L718 -38 L692 -38 L692 -38 Z M200 502 C200 527 208 547 222 562 C237 577 258 585 283 585 C311 585 333 577 349 561 C366 546 374 524 374 497 C374 463 353 433 310 406 L273 383 L244 417 C215 451 200 480 200 502 L200 502 Z M286 -50 C229 -50 183 -35 147 -5 C111 25 94 65 94 113 C94 142 100 166 115 188 C129 209 149 229 177 247 L260 301 L489 33 C431 -22 364 -50 286 -50 L286 -50 Z " />
<glyph glyph-name="quotesingle" unicode="&#x27;" horiz-adv-x="139" d="M42 477 C58 477 70 480 78 486 C87 491 94 502 99 516 C113 564 121 590 121 595 C121 609 117 620 108 628 C99 637 88 641 75 641 C62 641 51 637 42 628 C34 620 29 609 29 595 C29 581 34 570 44 561 C51 556 52 549 50 539 L34 486 C33 484 34 482 36 480 C37 478 39 477 42 477 L42 477 Z " />
<glyph glyph-name="parenleft" unicode="&#x28;" horiz-adv-x="235" d="M164 -213 L210 -190 C210 -190 207 -183 202 -171 C176 -114 155 -50 138 21 C121 92 113 164 113 236 C113 411 143 550 203 656 L213 673 L170 699 C91 562 51 408 51 236 C51 95 89 -54 164 -213 L164 -213 Z " />
<glyph glyph-name="parenright" unicode="&#x29;" horiz-adv-x="234" d="M25 -189 L71 -212 C146 -53 184 96 184 237 C184 409 144 563 65 700 L22 674 L32 657 C92 551 122 412 122 237 C122 102 93 -39 33 -170 C27 -182 25 -189 25 -189 L25 -189 Z " />
<glyph glyph-name="asterisk" unicode="&#x2a;" horiz-adv-x="448" d="M411 492 L392 546 L247 483 L258 641 L202 641 L213 484 L68 546 L50 492 L202 451 L101 328 L147 296 L230 431 L313 296 L359 328 L258 451 L411 492 L411 492 Z " />
<glyph glyph-name="plus" unicode="&#x2b;" horiz-adv-x="564" d="M524 284 L313 284 L313 506 L249 506 L249 284 L37 284 L37 223 L249 223 L249 0 L313 0 L313 223 L524 223 L524 284 L524 284 Z " />
<glyph glyph-name="comma" unicode="&#x2c;" horiz-adv-x="168" d="M58 -184 C74 -184 86 -182 94 -176 C103 -170 109 -160 114 -145 C129 -98 137 -72 137 -67 C137 -42 118 -21 91 -21 C67 -21 45 -40 45 -67 C45 -81 50 -92 61 -101 C67 -106 69 -113 66 -123 L50 -175 C49 -178 50 -180 51 -182 C53 -184 55 -184 58 -184 L58 -184 Z " />
<glyph glyph-name="hyphen" unicode="&#x2d;" horiz-adv-x="434" d="M54 289 C54 289 55 231 54 228 L389 228 L389 289 L54 289 Z " />
<glyph glyph-name="period" unicode="&#x2e;" horiz-adv-x="153" d="M75 -109 C99 -109 119 -91 119 -65 C119 -42 102 -19 75 -19 C51 -19 28 -38 28 -65 C28 -90 48 -109 75 -109 L75 -109 Z " />
<glyph glyph-name="slash" unicode="&#x2f;" horiz-adv-x="569" d="M41 -203 L103 -203 L528 751 L465 751 L41 -203 L41 -203 Z " />
<glyph glyph-name="zero" unicode="0" horiz-adv-x="633" d="M317 -110 C402 -110 468 -76 515 -10 C561 56 584 150 584 273 C584 391 561 483 515 547 C468 612 402 645 317 645 C231 645 166 612 119 548 C73 483 49 391 49 273 C49 150 73 56 119 -10 C166 -76 231 -110 317 -110 L317 -110 Z M172 37 C138 93 121 172 121 273 C121 370 138 446 172 500 C206 555 255 582 317 582 C379 582 428 555 462 500 C497 446 514 370 514 273 C514 172 497 93 462 37 C428 -19 379 -47 317 -47 C255 -47 206 -19 172 37 L172 37 Z " />
<glyph glyph-name="one" unicode="1" horiz-adv-x="269" d="M219 636 L162 636 L162 632 C158 592 150 537 150 537 L11 537 L11 493 L150 493 L149 -100 L219 -100 L219 636 L219 636 Z " />
<glyph glyph-name="two" unicode="2" horiz-adv-x="558" d="M312 197 C335 209 358 222 383 236 C416 256 451 280 475 313 C501 346 514 390 514 435 C514 487 494 541 455 578 C412 623 340 642 273 642 C245 642 219 638 194 630 C169 622 148 612 130 600 C99 578 70 549 51 512 C44 497 38 483 36 469 L99 446 C99 446 105 459 107 464 C118 499 137 527 165 547 C193 567 229 578 273 578 C357 578 444 532 444 435 C444 419 442 402 437 386 C419 331 363 306 313 274 C276 253 240 232 199 207 C164 186 126 164 98 131 C74 104 54 71 44 31 C40 10 38 -13 38 -38 L38 -100 L505 -100 L505 -38 L110 -38 C110 -6 113 20 120 40 C129 68 149 94 179 117 C200 132 244 159 312 197 L312 197 Z " />
<glyph glyph-name="three" unicode="3" horiz-adv-x="530" d="M491 223 C471 254 442 278 405 294 C434 310 457 332 473 360 C489 387 497 418 497 453 C497 509 475 555 432 591 C388 626 333 644 267 644 C206 644 155 628 113 597 C72 566 45 524 34 471 L96 451 C121 537 185 580 267 580 C313 580 351 569 381 545 C412 521 427 491 427 453 C427 413 414 381 389 357 C364 333 329 321 285 321 L203 321 L203 263 L286 263 C337 263 377 250 407 223 C437 197 451 161 451 115 C451 67 435 28 402 -2 C368 -32 325 -47 272 -47 C231 -47 195 -37 165 -15 C130 9 106 46 94 87 L30 66 C60 -48 162 -109 272 -109 C346 -109 406 -88 452 -47 C499 -6 522 48 522 115 C522 156 512 192 491 223 L491 223 Z " />
<glyph glyph-name="four" unicode="4" horiz-adv-x="523" d="M509 121 L423 121 L423 629 L352 629 L25 121 L25 58 L352 58 L352 -100 L423 -100 L423 58 L509 58 L509 121 Z M98 121 L352 512 C352 512 352 487 352 483 L352 121 L98 121 Z " />
<glyph glyph-name="five" unicode="5" horiz-adv-x="563" d="M283 366 C224 366 172 350 127 318 L145 566 L488 566 L488 629 L80 629 L49 224 L120 224 C156 274 220 303 283 303 C380 303 460 229 460 127 C460 30 386 -50 283 -50 C187 -50 138 -6 103 83 C103 83 89 78 37 60 C63 -51 169 -113 283 -113 C416 -113 530 -16 530 127 C530 269 426 361 283 366 L283 366 Z " />
<glyph glyph-name="six" unicode="6" horiz-adv-x="580" d="M300 -109 C379 -109 440 -87 486 -44 C532 0 555 55 555 122 C555 192 533 249 490 294 C446 339 390 362 320 362 C274 362 233 354 196 337 C159 320 133 296 118 265 C118 365 135 442 168 496 C201 550 249 578 310 578 C346 578 377 568 403 549 C430 530 450 502 464 466 C466 461 471 450 471 450 C471 450 482 453 486 455 L539 471 C521 526 492 569 453 599 C414 629 367 644 312 644 C227 644 161 610 115 544 C68 477 45 384 45 263 C45 129 67 33 112 -26 C156 -81 219 -109 300 -109 L300 -109 Z M303 -45 C244 -45 197 -24 163 19 C138 51 125 89 125 135 C125 189 142 231 177 258 C212 286 259 300 319 300 C370 300 410 283 440 250 C469 217 484 173 484 120 C484 71 468 31 436 1 C404 -30 360 -45 303 -45 L303 -45 Z " />
<glyph glyph-name="seven" unicode="7" horiz-adv-x="486" d="M477 630 L17 630 L17 567 L412 567 C412 501 389 435 355 377 C320 317 278 263 235 199 C193 141 153 80 125 8 C111 -29 103 -64 98 -100 L184 -100 C190 -31 217 36 253 97 C288 155 327 209 370 271 C408 329 441 389 463 458 C472 494 477 530 477 566 L477 630 L477 630 Z " />
<glyph glyph-name="eight" unicode="8" horiz-adv-x="519" d="M387 296 C417 311 441 332 458 359 C475 385 484 416 484 451 C484 509 464 556 423 591 C383 626 329 644 262 644 C193 644 138 626 96 591 C55 556 34 509 34 451 C34 416 43 385 60 359 C78 332 102 311 134 296 C95 280 64 256 42 224 C20 193 9 156 9 114 C9 46 32 -8 78 -48 C124 -89 185 -109 262 -109 C336 -109 396 -89 441 -48 C486 -8 508 46 508 114 C508 156 498 193 476 224 C455 256 425 280 387 296 L387 296 Z M263 -47 C207 -47 162 -32 130 -3 C97 27 81 65 81 114 C81 161 97 199 129 226 C162 254 207 268 263 268 C317 268 360 254 391 226 C423 198 439 161 439 114 C439 65 423 27 391 -3 C359 -32 316 -47 263 -47 L263 -47 Z M263 582 C310 582 347 570 374 546 C401 522 414 491 414 451 C414 411 401 380 374 357 C347 334 310 322 263 322 C213 322 175 334 147 357 C119 380 105 411 105 451 C105 491 119 522 147 546 C175 570 214 582 263 582 L263 582 Z " />
<glyph glyph-name="nine" unicode="9" horiz-adv-x="582" d="M261 -109 C441 -109 531 23 531 286 C531 524 448 644 282 644 C207 644 146 622 99 578 C51 535 27 478 27 408 C27 338 48 281 90 238 C133 196 189 174 259 174 C305 174 346 182 382 197 C417 212 443 235 460 266 C458 160 441 82 407 31 C373 -21 324 -46 262 -46 C225 -46 192 -36 161 -14 C130 7 108 36 95 72 C93 76 89 89 89 89 L23 68 C40 13 70 -31 112 -62 C154 -93 204 -109 261 -109 L261 -109 Z M262 237 C211 237 171 253 142 285 C113 316 98 359 98 414 C98 463 116 504 150 535 C184 566 227 581 278 581 C330 581 373 564 406 529 C439 494 455 450 455 397 C455 343 438 303 404 277 C369 250 322 237 262 237 L262 237 Z " />
<glyph glyph-name="colon" unicode="&#x3a;" horiz-adv-x="175" d="M87 412 C111 412 132 432 132 458 C132 482 113 503 87 503 C63 503 41 485 41 458 C41 433 60 413 87 412 L87 412 Z M87 -63 C111 -63 132 -46 132 -19 C132 5 114 27 87 27 C63 27 41 8 41 -19 C41 -43 60 -63 87 -63 L87 -63 Z " />
<glyph glyph-name="semicolon" unicode="&#x3b;" horiz-adv-x="172" d="M82 411 C106 411 127 429 127 456 C127 480 109 501 82 501 C58 501 36 483 36 456 C36 432 55 411 82 411 L82 411 Z M49 -137 C65 -137 77 -135 85 -129 C93 -123 100 -113 105 -98 C120 -51 127 -25 127 -20 C127 4 109 26 82 26 C57 26 36 8 36 -20 C36 -34 41 -45 51 -54 C57 -59 59 -66 56 -76 L41 -128 C40 -131 40 -133 42 -135 C44 -137 46 -137 49 -137 L49 -137 Z " />
<glyph glyph-name="less" unicode="&#x3c;" horiz-adv-x="588" d="M535 471 L535 539 L48 324 L48 279 L535 62 L535 130 L151 300 L535 471 L535 471 Z " />
<glyph glyph-name="equal" unicode="&#x3d;" horiz-adv-x="635" d="M80 336 L567 336 L567 397 L80 397 L80 336 Z M80 174 L567 174 L567 235 L80 235 L80 174 Z " />
<glyph glyph-name="greater" unicode="&#x3e;" horiz-adv-x="590" d="M65 538 L65 470 L449 299 L65 129 L65 61 L552 278 L552 323 L65 538 L65 538 Z " />
<glyph glyph-name="question" unicode="&#x3f;" horiz-adv-x="473" d="M387 589 C348 624 295 641 229 641 C194 641 162 635 134 622 C68 589 15 520 15 449 L77 436 L80 457 C82 472 86 486 94 500 C117 555 175 581 229 581 C311 581 378 530 378 448 C378 432 374 417 368 402 C353 370 330 347 307 322 C277 292 252 269 233 241 C207 207 196 167 196 128 L196 50 L250 50 L256 107 L259 132 C265 170 280 203 304 231 C328 257 354 281 379 304 C407 332 426 358 438 389 C444 407 447 427 447 448 C447 506 427 553 387 589 L387 589 Z M257 -31 L194 -31 L194 -98 L257 -98 L257 -31 L257 -31 Z " />
<glyph glyph-name="at" unicode="&#x40;" horiz-adv-x="970" d="M809 494 C724 577 606 623 485 623 C365 623 245 576 161 494 C78 409 32 291 32 170 C32 50 77 -70 161 -154 C245 -238 365 -284 485 -284 C590 -284 703 -244 782 -177 L742 -129 L726 -143 C661 -193 568 -223 485 -223 C381 -223 278 -183 207 -110 C136 -37 98 66 98 170 C98 275 137 376 207 450 C278 523 381 562 485 562 C588 562 694 524 763 450 C836 375 873 271 873 170 C873 116 861 75 839 44 C819 15 741 -18 740 36 L740 441 L675 441 L675 361 C653 390 625 413 593 429 C560 445 524 453 483 453 C403 453 342 428 297 377 C253 326 230 256 230 167 C230 80 253 12 299 -38 C345 -89 407 -114 487 -114 C527 -114 564 -105 596 -87 C621 -73 642 -55 661 -34 C667 -27 672 -20 678 -12 C678 -12 694 -43 740 -51 C795 -59 854 -35 889 5 C922 44 938 100 938 170 C938 292 891 410 809 494 L809 494 Z M675 156 C675 118 670 85 659 56 C632 -19 562 -56 487 -56 C431 -56 380 -35 346 5 C313 45 296 100 296 170 C296 293 357 395 483 395 C538 395 582 379 615 348 C618 346 621 343 624 340 C646 316 660 287 668 251 C673 231 675 209 675 185 L675 156 L675 156 Z " />
<glyph glyph-name="A" unicode="A" horiz-adv-x="639" d="M551 -100 L628 -100 L357 629 L283 629 L11 -100 L84 -100 L167 122 L469 122 L551 -100 Z M189 184 L319 535 L446 184 L189 184 Z " />
<glyph glyph-name="B" unicode="B" horiz-adv-x="603" d="M463 276 C530 306 563 360 563 439 C563 499 543 546 503 579 C463 613 406 629 332 629 L50 629 L50 -100 L343 -100 C419 -100 478 -83 520 -48 C562 -14 583 35 583 99 C583 143 573 179 552 209 C532 240 502 262 463 276 L463 276 Z M119 567 L330 567 C382 567 421 556 449 533 C477 510 491 478 491 436 C491 393 478 361 450 338 C422 315 383 303 332 303 L119 303 L119 567 Z M340 -39 L119 -39 L119 245 L343 245 C396 245 438 232 468 207 C497 182 512 147 512 102 C512 57 497 22 467 -2 C437 -26 394 -39 340 -39 L340 -39 Z " />
<glyph glyph-name="C" unicode="C" horiz-adv-x="763" d="M386 -109 C471 -109 542 -87 599 -41 C656 4 694 67 713 148 L664 160 C658 162 643 166 643 166 C643 166 640 151 638 145 C623 85 593 38 550 4 C507 -31 452 -48 386 -48 C345 -48 308 -41 276 -27 C244 -14 218 3 199 24 C180 45 164 70 152 99 C139 128 131 156 126 183 C122 210 119 237 119 266 C119 362 142 439 188 495 C233 552 299 580 386 580 C448 580 500 564 542 533 C584 502 615 458 634 403 C636 398 641 385 641 385 C641 385 653 388 658 390 L708 403 C687 478 648 537 593 579 C537 621 468 642 386 642 C280 642 197 608 137 541 C78 473 48 381 48 266 C48 190 61 125 87 69 C113 13 151 -31 203 -62 C254 -94 315 -109 386 -109 L386 -109 Z " />
<glyph glyph-name="D" unicode="D" horiz-adv-x="689" d="M309 630 L50 630 L50 -100 L309 -100 C415 -100 498 -68 557 -4 C616 61 646 150 646 265 C646 379 616 469 557 533 C499 598 415 630 309 630 L309 630 Z M309 -39 L119 -39 L119 568 L309 568 C396 568 462 541 507 488 C553 435 576 360 576 265 C576 170 553 96 508 42 C463 -12 396 -39 309 -39 L309 -39 Z " />
<glyph glyph-name="E" unicode="E" horiz-adv-x="539" d="M505 568 L505 630 L60 630 L60 -100 L505 -100 L505 -39 L129 -39 L129 244 L497 244 L497 306 L129 306 L129 568 L505 568 L505 568 Z " />
<glyph glyph-name="F" unicode="F" horiz-adv-x="544" d="M505 568 L505 630 L60 630 L60 -100 L130 -100 L130 244 L497 244 L497 306 L130 306 L130 568 L505 568 L505 568 Z " />
<glyph glyph-name="G" unicode="G" horiz-adv-x="770" d="M384 280 L384 217 L650 217 C642 134 614 69 568 22 C522 -24 461 -48 386 -48 C345 -48 308 -41 276 -27 C215 -2 175 43 152 99 C128 153 119 210 119 267 C119 363 142 440 188 496 C234 553 299 581 386 581 C448 581 500 565 542 534 C584 503 615 459 634 404 C636 399 641 385 641 385 C641 385 654 389 659 391 L708 404 C687 479 648 538 593 580 C537 622 469 643 386 643 C280 643 197 609 137 542 C78 474 48 382 48 267 C48 191 61 125 87 69 C113 13 152 -31 203 -62 C254 -94 315 -109 386 -109 C490 -109 572 -76 633 -9 C694 58 724 154 724 280 L384 280 Z " />
<glyph glyph-name="H" unicode="H" horiz-adv-x="622" d="M509 630 L509 306 L114 306 L114 630 L44 630 L44 -100 L114 -100 L114 244 L509 244 L509 -100 L580 -100 L580 630 L509 630 L509 630 Z " />
<glyph glyph-name="I" unicode="I" horiz-adv-x="148" d="M39 -100 L109 -100 L109 629 L39 629 L39 -100 L39 -100 Z " />
<glyph glyph-name="J" unicode="J" horiz-adv-x="527" d="M252 -109 C324 -109 380 -88 419 -47 C459 -5 478 54 478 130 L478 629 L407 629 L407 130 C407 74 394 30 366 -1 C339 -32 301 -48 252 -48 C215 -48 183 -36 157 -14 C130 9 111 41 99 83 L94 103 L26 85 C41 22 68 -26 107 -59 C146 -93 195 -109 252 -109 L252 -109 Z " />
<glyph glyph-name="K" unicode="K" horiz-adv-x="595" d="M265 329 L560 629 L471 629 L120 277 L120 629 L50 629 L50 -100 L120 -100 L120 182 L219 283 L485 -85 L496 -100 L584 -100 L265 329 L265 329 Z " />
<glyph glyph-name="L" unicode="L" horiz-adv-x="494" d="M120 -39 L120 629 L50 629 L50 -100 L495 -100 L495 -39 L120 -39 L120 -39 Z " />
<glyph glyph-name="M" unicode="M" horiz-adv-x="782" d="M732 629 L645 629 L391 -11 L142 629 L50 629 L50 -100 L120 -100 L120 438 C120 458 120 490 120 490 L354 -100 L427 -100 L662 492 C662 492 662 459 662 439 L662 -100 L732 -100 L732 629 L732 629 Z " />
<glyph glyph-name="N" unicode="N" horiz-adv-x="654" d="M534 629 L534 66 C534 47 534 6 534 6 L127 629 L50 629 L50 -100 L120 -100 L120 462 C120 482 120 522 120 522 L526 -100 L604 -100 L604 629 L534 629 L534 629 Z " />
<glyph glyph-name="O" unicode="O" horiz-adv-x="774" d="M386 -109 C492 -109 575 -75 634 -8 C694 59 723 151 723 267 C723 383 694 475 635 542 C575 610 492 643 386 643 C279 643 196 610 136 542 C77 474 47 383 47 267 C47 152 77 61 136 -7 C195 -75 279 -109 386 -109 L386 -109 Z M386 -48 C320 -48 245 -27 198 25 C141 89 118 176 118 267 C118 363 141 440 187 496 C233 553 299 581 386 581 C473 581 539 553 585 497 C631 441 653 364 653 267 C653 170 631 94 585 37 C539 -19 473 -48 386 -48 L386 -48 Z " />
<glyph glyph-name="P" unicode="P" horiz-adv-x="561" d="M306 629 L50 629 L50 -100 L120 -100 L120 223 L306 223 C383 223 441 240 483 276 C525 311 545 361 545 426 C545 491 525 541 483 576 C441 612 383 629 306 629 L306 629 Z M305 285 L120 285 L120 567 L305 567 C359 567 401 555 431 530 C460 506 475 471 475 426 C475 381 460 346 431 322 C401 297 359 285 305 285 L305 285 Z " />
<glyph glyph-name="Q" unicode="Q" horiz-adv-x="774" d="M690 79 C713 133 725 196 725 267 C725 383 696 475 636 542 C577 610 494 643 387 643 C280 643 197 610 138 542 C78 474 48 383 48 267 C48 152 78 61 137 -7 C197 -75 280 -109 387 -109 C442 -109 491 -100 533 -82 L612 -198 L693 -198 L590 -49 C634 -18 668 25 690 79 L690 79 Z M387 -48 C317 -47 246 -26 200 25 C138 93 120 183 120 267 C120 363 143 440 188 496 C234 553 300 581 387 581 C474 581 540 553 586 497 C632 441 655 364 655 267 C655 208 646 157 629 112 C612 66 587 31 554 5 L519 55 L441 55 L497 -28 C462 -41 426 -48 387 -48 L387 -48 Z " />
<glyph glyph-name="R" unicode="R" horiz-adv-x="612" d="M347 244 C420 245 476 263 516 297 C555 330 575 377 575 437 C575 499 554 546 513 580 C471 613 412 630 336 630 L46 630 L46 -100 L116 -100 L116 244 L267 244 L517 -100 L591 -100 L347 244 Z M116 568 L334 568 C388 568 430 557 459 534 C489 511 504 479 504 437 C504 395 490 363 460 340 C431 318 389 306 336 306 L116 306 L116 568 Z " />
<glyph glyph-name="S" unicode="S" horiz-adv-x="584" d="M293 -109 C380 -109 448 -91 498 -55 C547 -19 571 34 571 105 C571 158 554 202 518 236 C481 270 426 295 351 312 L237 339 C195 348 163 363 140 384 C118 405 106 429 106 456 C106 497 122 528 152 549 C183 571 228 581 288 581 C350 581 414 556 479 507 C483 504 494 495 494 495 L539 543 C527 554 514 565 500 575 C485 586 467 596 447 607 C426 618 402 627 374 633 C347 640 318 643 288 643 C210 643 149 627 104 596 C59 564 37 518 37 456 C37 362 102 301 232 273 L342 249 C395 238 434 219 461 193 C487 167 501 138 501 104 C501 60 482 23 446 -5 C409 -33 358 -48 293 -48 C211 -48 140 -22 81 28 L67 40 L21 -9 C56 -43 96 -68 139 -84 C182 -101 234 -109 293 -109 L293 -109 Z " />
<glyph glyph-name="T" unicode="T" horiz-adv-x="584" d="M549 629 L30 629 L30 567 L255 567 L255 -100 L325 -100 L325 567 L549 567 L549 629 L549 629 Z " />
<glyph glyph-name="U" unicode="U" horiz-adv-x="615" d="M306 -109 C348 -109 384 -104 416 -94 C448 -83 476 -67 500 -44 C525 -21 544 10 557 50 C570 90 576 137 576 193 L576 630 L506 630 L506 193 C506 114 490 54 458 13 C426 -27 376 -48 306 -48 C237 -48 186 -27 154 14 C122 54 106 114 106 193 L105 630 L36 630 L36 193 C36 148 40 108 49 74 C58 39 70 11 85 -12 C101 -35 120 -54 143 -69 C166 -83 190 -94 217 -100 C243 -106 274 -109 306 -109 L306 -109 Z " />
<glyph glyph-name="V" unicode="V" horiz-adv-x="604" d="M522 629 L300 2 L82 629 L5 629 L261 -100 L336 -100 L596 629 L522 629 L522 629 Z " />
<glyph glyph-name="W" unicode="W" horiz-adv-x="975" d="M886 630 L705 12 L527 630 L454 630 L272 12 L94 630 L18 630 L234 -100 L306 -100 L489 519 L665 -100 L736 -100 L954 630 L886 630 L886 630 Z " />
<glyph glyph-name="X" unicode="X" horiz-adv-x="698" d="M680 -100 L393 289 L645 630 L561 630 L351 346 L140 630 L53 630 L307 286 L20 -100 L105 -100 L348 231 L593 -100 L680 -100 L680 -100 Z " />
<glyph glyph-name="Y" unicode="Y" horiz-adv-x="599" d="M586 630 L503 630 L300 315 L99 630 L13 630 L264 249 L264 -100 L335 -100 L335 249 L586 630 L586 630 Z " />
<glyph glyph-name="Z" unicode="Z" horiz-adv-x="572" d="M551 629 L24 629 L24 567 L466 567 L24 -38 L24 -100 L551 -100 L551 -38 L110 -38 L551 567 L551 629 L551 629 Z " />
<glyph glyph-name="bracketleft" unicode="&#x5b;" horiz-adv-x="274" d="M50 721 L50 -233 L232 -233 L232 -172 L116 -172 L116 659 L232 659 L232 721 L50 721 Z " />
<glyph glyph-name="backslash" unicode="&#x5c;" horiz-adv-x="585" d="M467 -230 L529 -230 L105 724 L42 724 L467 -230 L467 -230 Z " />
<glyph glyph-name="bracketright" unicode="&#x5d;" horiz-adv-x="274" d="M42 722 L42 660 L159 660 L159 -171 L42 -171 L42 -232 L225 -232 L225 722 L42 722 Z " />
<glyph glyph-name="asciicircum" unicode="&#x5e;" horiz-adv-x="413" d="M241 697 L179 697 L33 448 L96 448 L209 642 L322 448 L384 448 L241 697 L241 697 Z " />
<glyph glyph-name="underscore" unicode="&#x5f;" horiz-adv-x="540" d="M45 -100 L491 -100 L491 -46 L45 -46 L45 -100 L45 -100 Z " />
<glyph glyph-name="grave" unicode="&#x60;" horiz-adv-x="249" d="M127 629 L47 629 L162 509 L227 509 L127 629 L127 629 Z " />
<glyph glyph-name="a" unicode="a" horiz-adv-x="582" d="M540 448 L475 448 L475 367 C453 396 426 419 393 435 C361 451 324 459 283 459 C204 459 142 433 97 383 C53 332 31 262 31 173 C31 86 53 17 99 -33 C145 -84 207 -109 287 -109 C328 -109 364 -100 396 -81 C429 -62 456 -38 478 -6 L478 -100 L540 -100 L540 448 Z M475 162 C475 94 459 42 426 5 C393 -32 347 -50 287 -50 C227 -50 181 -30 147 10 C113 51 96 106 96 175 C96 245 112 300 145 340 C178 380 224 400 283 400 C343 400 390 382 424 345 C458 308 475 257 475 190 L475 162 L475 162 Z " />
<glyph glyph-name="b" unicode="b" horiz-adv-x="586" d="M493 381 C448 432 386 458 306 458 C266 458 230 449 197 432 C165 415 138 392 115 362 L115 629 L50 629 L50 -100 L112 -100 L112 -7 C134 -39 161 -63 194 -82 C227 -100 263 -109 303 -109 C383 -109 445 -84 491 -33 C537 17 560 85 560 172 C560 261 537 330 493 381 L493 381 Z M443 10 C410 -30 363 -50 303 -50 C244 -50 197 -32 165 5 C132 42 115 94 115 162 L115 185 C115 253 132 306 166 343 C199 381 246 399 306 399 C366 399 412 379 445 339 C477 299 494 244 494 174 C494 104 477 51 443 10 L443 10 Z " />
<glyph glyph-name="c" unicode="c" horiz-adv-x="593" d="M296 -109 C359 -109 412 -92 455 -59 C498 -25 527 23 542 86 L479 102 C479 102 475 87 473 81 C460 40 438 8 408 -15 C378 -38 341 -49 296 -49 C236 -49 189 -29 155 11 C121 52 104 103 104 170 C104 240 121 295 154 336 C188 377 235 398 296 398 C337 398 373 388 402 367 C432 347 454 316 470 276 C474 265 476 258 476 258 L539 276 C522 334 493 379 452 410 C410 442 359 458 296 458 C216 458 153 432 107 381 C62 329 39 259 39 170 C39 85 62 20 107 -31 C152 -83 215 -109 296 -109 L296 -109 Z " />
<glyph glyph-name="d" unicode="d" horiz-adv-x="587" d="M475 629 L475 366 C454 395 426 417 393 434 C361 450 324 458 284 458 C204 458 142 432 98 381 C53 330 31 261 31 172 C31 85 54 17 100 -33 C145 -84 208 -109 287 -109 C328 -109 364 -100 397 -81 C429 -63 457 -38 478 -7 L478 -72 L478 -79 L478 -99 L498 -99 L540 -99 L540 -72 L540 629 L475 629 L475 629 Z M475 162 C475 94 459 42 426 5 C393 -32 347 -50 287 -50 C228 -50 181 -30 147 10 C113 51 96 104 96 174 C96 244 113 299 145 339 C178 379 224 399 284 399 C343 399 390 381 424 344 C458 307 475 256 475 189 L475 162 L475 162 Z " />
<glyph glyph-name="e" unicode="e" horiz-adv-x="586" d="M556 191 C555 240 545 284 526 323 C506 365 476 398 436 423 C395 448 348 461 293 461 C212 461 148 435 100 383 C53 330 29 261 29 174 C29 88 53 20 100 -32 C148 -83 212 -109 293 -109 C354 -109 406 -94 448 -64 C492 -33 522 10 540 65 L477 81 C477 81 475 75 471 65 C455 28 432 0 402 -20 C372 -39 335 -49 293 -49 C235 -49 188 -31 153 6 C118 44 98 93 95 155 L556 155 C556 175 556 175 556 191 L556 191 Z M96 215 C104 272 125 317 160 351 C194 384 239 401 293 401 C347 401 392 384 427 350 C461 316 482 271 489 215 L96 215 L96 215 Z " />
<glyph glyph-name="f" unicode="f" horiz-adv-x="377" d="M228 629 C185 629 152 617 127 591 C103 565 90 530 90 486 L90 447 L7 447 L7 386 L90 386 L90 -100 L156 -100 L156 386 L314 386 L314 447 L156 447 L156 486 C156 512 163 532 175 547 C188 561 205 568 228 568 L353 568 L353 629 L228 629 Z " />
<glyph glyph-name="g" unicode="g" horiz-adv-x="587" d="M473 448 L473 366 C451 395 424 418 392 434 C359 450 322 458 282 458 C202 458 140 433 96 382 C51 331 29 261 29 172 C29 85 52 17 98 -34 C143 -84 206 -109 286 -109 C326 -109 362 -100 395 -82 C426 -64 452 -40 473 -10 L473 -129 C473 -158 465 -181 448 -198 C431 -215 409 -224 380 -224 L151 -224 L151 -285 L380 -285 C429 -285 467 -271 496 -242 C524 -214 538 -176 538 -129 L538 448 L538 448 L473 448 Z M473 161 C473 94 457 41 424 4 C391 -32 345 -51 286 -51 C226 -51 179 -31 145 10 C111 50 94 105 94 175 C94 244 111 299 144 340 C176 380 222 400 282 400 C342 400 388 381 423 345 C456 308 473 256 473 190 L473 161 L473 161 Z " />
<glyph glyph-name="h" unicode="h" horiz-adv-x="515" d="M279 458 C241 458 207 449 177 433 C148 417 124 394 106 365 L106 629 L40 629 L40 -100 L106 -100 L106 230 C106 285 121 327 151 355 C181 384 224 398 279 398 C331 398 367 384 388 354 C408 325 418 280 418 219 L418 -100 L484 -100 L484 219 C484 298 468 357 435 397 C402 438 350 458 279 458 L279 458 Z " />
<glyph glyph-name="i" unicode="i" horiz-adv-x="123" d="M27 -100 L27 448 L93 448 L93 -100 L27 -100 L27 -100 Z M91 619 L28 619 L28 552 L91 552 L91 619 L91 619 Z " />
<glyph glyph-name="j" unicode="j" horiz-adv-x="163" d="M50 -127 C50 -156 41 -180 25 -197 C8 -214 -15 -223 -44 -223 L-98 -223 L-108 -223 L-129 -223 L-129 -241 L-129 -283 L-98 -283 L-44 -283 C5 -283 43 -269 72 -241 C100 -213 114 -175 114 -127 L114 448 L50 448 L50 -127 L50 -127 Z M113 619 L50 619 L50 552 L113 552 L113 619 L113 619 Z " />
<glyph glyph-name="k" unicode="k" horiz-adv-x="467" d="M223 228 L443 448 L354 448 L111 203 L111 629 L44 629 L44 -100 L111 -100 L111 117 L177 183 L398 -100 L481 -100 L223 228 L223 228 Z " />
<glyph glyph-name="l" unicode="l" horiz-adv-x="252" d="M218 -39 L209 -39 L169 -39 C148 -39 132 -33 120 -19 C109 -6 103 12 103 36 L103 629 L37 629 L37 36 C37 -6 49 -39 73 -64 C96 -88 128 -100 169 -100 L209 -100 L238 -100 L238 -59 L238 -39 L218 -39 L218 -39 Z " />
<glyph glyph-name="m" unicode="m" horiz-adv-x="829" d="M735 400 C702 439 655 459 594 459 C555 459 522 450 494 432 C466 414 444 389 428 357 C398 425 342 459 259 459 C194 459 145 430 112 372 L112 448 L50 448 L50 -100 L115 -100 L115 231 C115 289 126 331 148 358 C169 386 206 399 259 399 C298 399 329 385 351 357 C374 329 385 287 385 231 L385 -100 L451 -100 L451 231 C451 289 462 332 483 359 C504 386 541 399 594 399 C635 399 667 386 688 359 C709 332 719 289 719 231 L719 -100 L785 -100 L785 231 C785 305 769 361 735 400 L735 400 Z " />
<glyph glyph-name="n" unicode="n" horiz-adv-x="530" d="M437 398 C405 438 353 458 282 458 C206 458 149 426 113 363 L113 448 L50 448 L50 -100 L116 -100 L116 231 C116 286 130 328 158 357 C186 385 227 399 282 399 C334 399 370 385 391 355 C412 326 422 281 422 220 L422 -100 L487 -100 L487 220 C487 299 470 358 437 398 L437 398 Z " />
<glyph glyph-name="o" unicode="o" horiz-adv-x="571" d="M287 -109 C367 -109 430 -83 476 -32 C521 19 544 85 544 173 C544 260 521 330 476 381 C430 432 367 458 287 458 C208 458 145 432 99 381 C54 330 31 261 31 173 C31 85 54 19 99 -32 C145 -83 208 -109 287 -109 L287 -109 Z M287 -49 C228 -49 181 -29 147 11 C113 52 96 103 96 173 C96 242 113 297 147 338 C181 378 228 398 287 398 C347 398 394 378 428 338 C461 297 478 242 478 173 C478 103 461 52 428 11 C394 -29 347 -49 287 -49 L287 -49 Z " />
<glyph glyph-name="p" unicode="p" horiz-adv-x="582" d="M492 383 C447 433 385 458 305 458 C264 458 227 449 194 431 C161 413 134 388 111 357 L111 448 L91 448 L49 448 L49 -281 L114 -281 L114 -22 C158 -80 221 -109 302 -109 C382 -109 445 -83 490 -32 C536 19 559 88 559 176 C559 263 536 332 492 383 L492 383 Z M442 10 C408 -30 362 -50 302 -50 C242 -50 196 -32 163 4 C131 41 114 93 114 162 L114 192 C115 258 133 309 166 345 C200 381 246 399 305 399 C365 399 411 379 444 339 C476 299 492 244 492 174 C492 105 476 51 442 10 L442 10 Z " />
<glyph glyph-name="q" unicode="q" horiz-adv-x="583" d="M476 448 L476 357 C455 388 428 413 394 431 C361 449 324 458 282 458 C202 458 140 433 96 383 C51 332 29 263 29 176 C29 88 52 19 98 -32 C143 -83 206 -109 285 -109 C366 -109 429 -79 473 -18 L473 -281 L538 -281 L538 448 L476 448 Z M473 165 C473 96 457 43 425 6 C392 -31 345 -50 285 -50 C226 -50 179 -30 145 10 C111 51 94 105 94 174 C94 244 111 299 143 339 C176 379 222 399 282 399 C342 399 389 381 422 344 C456 308 473 256 473 188 L473 165 L473 165 Z " />
<glyph glyph-name="r" unicode="r" horiz-adv-x="322" d="M302 448 C215 448 152 417 112 356 L112 358 L112 427 L112 448 L93 448 L50 448 L50 358 L50 -100 L115 -100 L115 203 C115 262 129 308 158 340 C187 371 227 387 279 387 L291 387 C296 387 310 387 310 387 C310 387 310 401 310 406 L310 448 L302 448 L302 448 Z " />
<glyph glyph-name="s" unicode="s" horiz-adv-x="467" d="M234 -109 C301 -109 354 -94 391 -66 C429 -37 448 2 448 53 C448 94 432 125 401 154 C369 182 326 203 271 214 L189 232 C134 244 107 272 107 316 C107 340 118 359 141 375 C163 391 193 399 232 399 C258 399 283 394 305 384 C327 374 345 362 358 347 C367 339 372 333 372 333 L420 374 C414 383 406 392 395 401 C385 409 372 418 357 428 C342 437 323 444 302 449 C281 455 258 458 235 458 C175 458 128 444 94 418 C59 391 42 356 42 313 C42 276 55 246 80 221 C106 197 142 180 186 171 C200 168 226 163 264 156 C301 148 330 135 351 117 C371 99 382 80 382 53 C382 21 369 -4 344 -22 C318 -39 282 -48 234 -48 C206 -48 179 -42 152 -30 C125 -19 104 -5 89 10 C80 19 75 24 75 24 L29 -21 C51 -46 80 -67 116 -84 C152 -100 191 -109 234 -109 L234 -109 Z " />
<glyph glyph-name="t" unicode="t" horiz-adv-x="362" d="M340 385 L340 446 L145 446 L145 629 L79 629 L79 446 L-7 446 L-7 385 L79 385 L79 63 C79 13 93 -26 121 -56 C148 -85 186 -100 234 -100 L300 -100 L339 -100 L339 -58 L339 -39 L300 -39 L234 -39 C207 -39 185 -30 169 -12 C153 6 145 32 145 63 L145 385 L340 385 L340 385 Z " />
<glyph glyph-name="u" unicode="u" horiz-adv-x="537" d="M421 449 L421 118 C421 63 407 21 379 -8 C351 -36 310 -50 255 -50 C203 -50 167 -36 146 -7 C125 23 115 68 115 129 L115 449 L50 449 L50 129 C50 50 67 -9 99 -49 C132 -89 184 -109 255 -109 C331 -109 388 -77 424 -13 L424 -100 L487 -100 L487 449 L421 449 L421 449 Z " />
<glyph glyph-name="v" unicode="v" horiz-adv-x="495" d="M413 448 L246 -6 L79 448 L8 448 L212 -100 L281 -100 L485 448 L413 448 L413 448 Z " />
<glyph glyph-name="w" unicode="w" horiz-adv-x="794" d="M784 448 L715 448 L573 5 L429 448 L362 448 L219 5 L76 448 L7 448 L185 -100 L253 -100 L396 342 L538 -100 L606 -100 L784 448 L784 448 Z " />
<glyph glyph-name="x" unicode="x" horiz-adv-x="537" d="M528 -100 L308 197 L494 448 L418 448 L271 248 L123 448 L40 448 L229 193 L12 -100 L88 -100 L267 143 L446 -100 L528 -100 L528 -100 Z " />
<glyph glyph-name="y" unicode="y" horiz-adv-x="509" d="M422 448 L255 -8 L85 448 L14 448 L221 -99 L197 -165 C185 -192 166 -220 135 -220 L90 -220 L90 -282 L132 -282 C159 -282 183 -274 206 -257 C228 -241 244 -218 255 -190 L289 -100 L494 448 L422 448 L422 448 Z " />
<glyph glyph-name="z" unicode="z" horiz-adv-x="500" d="M476 448 L27 448 L27 387 L390 387 L27 -39 L27 -100 L476 -100 L476 -39 L112 -39 L476 387 L476 448 L476 448 Z " />
<glyph glyph-name="braceleft" unicode="&#x7b;" horiz-adv-x="246" d="M172 721 L165 721 C130 721 102 709 80 686 C59 663 48 634 48 597 L48 349 C48 336 46 324 41 311 C34 289 21 275 7 261 C0 256 -8 250 -15 245 C-4 238 1 234 7 228 C24 211 34 197 42 178 C46 165 48 153 48 139 L48 -109 C48 -146 59 -176 80 -199 C102 -221 130 -233 165 -233 L177 -233 L210 -233 L210 -190 L210 -172 L191 -172 L177 -172 L173 -172 C155 -172 140 -165 130 -154 C119 -141 114 -124 114 -103 L114 143 C114 157 112 170 108 181 C102 201 90 216 76 230 C69 236 62 242 55 245 C65 251 70 255 76 260 C92 273 102 289 108 308 C112 320 114 332 114 346 L114 591 C114 612 119 629 130 641 C140 653 155 659 173 659 L191 659 L210 659 L210 678 L210 721 L172 721 L172 721 Z " />
<glyph glyph-name="bar" unicode="&#x7c;" horiz-adv-x="139" d="M40 723 L40 -231 L99 -231 L99 723 L40 723 Z " />
<glyph glyph-name="braceright" unicode="&#x7d;" horiz-adv-x="245" d="M35 720 L35 658 L72 658 C91 658 105 652 115 640 C126 628 131 611 131 590 L131 345 C131 331 133 319 137 307 C142 291 152 273 169 259 C175 254 180 250 190 244 C183 241 176 235 169 229 C155 215 143 200 137 180 C133 169 131 156 131 142 L131 -104 C131 -125 126 -142 115 -155 C105 -166 91 -173 72 -173 L35 -173 L35 -234 L80 -234 C115 -234 143 -222 165 -200 C186 -177 197 -147 197 -110 L197 138 C197 160 203 188 220 207 C230 219 241 230 254 240 L261 244 C259 245 257 246 254 248 C241 256 229 268 219 281 C206 300 198 322 197 348 L197 596 C197 633 186 662 165 685 C143 708 115 720 80 720 L35 720 Z " />
<glyph glyph-name="asciitilde" unicode="&#x7e;" horiz-adv-x="572" d="M393 205 C470 205 517 255 534 355 L478 366 C478 366 476 358 474 345 C468 315 459 294 446 281 C423 260 383 256 357 276 C333 296 312 320 284 348 C272 361 256 372 239 381 C192 406 126 398 89 354 C65 328 50 290 44 243 L83 236 C88 236 102 234 102 234 C102 234 105 247 106 253 C112 284 121 306 133 319 C175 357 230 329 262 290 C284 266 307 239 342 219 C358 210 375 205 393 205 L393 205 Z " />
<glyph glyph-name="cent" unicode="&#xa2;" horiz-adv-x="593" d="M499 189 C478 127 456 95 426 73 C399 53 366 42 327 39 L327 488 C363 486 394 476 421 458 C451 437 473 407 495 347 L557 367 C540 423 513 467 474 498 C435 530 387 547 328 549 C328 636 328 643 328 643 L265 643 L265 546 C200 535 149 505 112 456 C75 405 57 340 57 260 C57 185 75 122 112 72 C148 22 199 -8 265 -18 L265 -109 L328 -109 L328 -22 C388 -19 438 -1 478 33 C519 66 547 113 561 173 L499 189 L499 189 Z M174 100 C140 140 123 193 123 260 C123 330 140 386 173 427 C196 456 227 475 265 483 L265 45 C228 53 198 71 174 100 L174 100 Z " />
<glyph glyph-name="sterling" unicode="&#xa3;" horiz-adv-x="567" d="M130 -37 C177 36 200 110 200 184 C200 202 200 207 200 211 L451 211 L451 274 L184 274 C179 289 171 307 161 328 C144 361 126 396 126 432 C126 532 211 573 296 573 C358 573 406 556 455 506 L503 552 C455 618 373 642 296 642 C212 642 133 616 88 548 C65 511 55 470 55 430 C55 384 74 346 92 309 C100 293 106 281 109 274 L55 274 L55 211 L129 211 C131 199 131 189 131 181 C131 114 106 41 55 -37 L55 -100 L532 -100 L532 -37 L130 -37 L130 -37 Z " />
<glyph glyph-name="yen" unicode="&#xa5;" horiz-adv-x="579" d="M295 287 L283 307 L307 307 L295 287 L295 287 Z M580 631 L496 631 L329 370 L258 370 L92 631 L6 631 L177 370 L115 370 L95 370 L95 349 L95 307 L219 307 L258 247 L258 204 L95 204 L95 183 L95 141 L95 141 L258 141 L258 -100 L328 -100 L328 141 L470 141 C470 141 470 141 471 141 L490 141 L490 161 L490 203 L490 204 L328 204 L328 249 L367 307 L470 307 L490 307 L490 327 L490 370 L408 370 L580 631 L580 631 Z " />
<glyph glyph-name="dieresis" unicode="&#xa8;" horiz-adv-x="210" d="M66 606 L3 606 L3 539 L66 539 L66 606 L66 606 Z M208 606 L146 606 L146 539 L208 539 L208 606 L208 606 Z " />
<glyph glyph-name="acute" unicode="&#xb4;" horiz-adv-x="219" d="M121 629 L21 509 L87 509 L201 629 L121 629 L121 629 Z " />
<glyph glyph-name="cedilla" unicode="&#xb8;" horiz-adv-x="245" d="M199 -162 C185 -151 167 -145 143 -145 L92 -145 L98 -102 L65 -100 L57 -155 C55 -165 57 -173 63 -180 C69 -187 77 -190 89 -190 L146 -190 C153 -190 159 -192 164 -197 C168 -201 171 -206 171 -212 C171 -230 158 -239 133 -239 L83 -239 L61 -239 L38 -239 L38 -285 L83 -285 L127 -285 C154 -285 176 -279 193 -266 C210 -253 218 -235 218 -211 C218 -190 212 -174 199 -162 L199 -162 Z " />
<glyph glyph-name="Agrave" unicode="&#xc0;" horiz-adv-x="614" d="M538 -100 L456 122 L154 122 L71 -100 L-2 -100 L270 629 L344 629 L615 -100 L538 -100 L538 -100 Z M176 184 L433 184 L306 535 L176 184 L176 184 Z M304 829 L224 829 L339 709 L404 709 L304 829 L304 829 Z " />
<glyph glyph-name="Aacute" unicode="&#xc1;" horiz-adv-x="641" d="M550 -100 L627 -100 L356 629 L282 629 L10 -100 L83 -100 L166 122 L468 122 L550 -100 Z M188 184 L318 535 L445 184 L188 184 Z M335 829 L235 709 L301 709 L415 829 L335 829 Z " />
<glyph glyph-name="Acircumflex" unicode="&#xc2;" horiz-adv-x="629" d="M546 -100 L464 122 L162 122 L79 -100 L6 -100 L278 629 L352 629 L623 -100 L546 -100 L546 -100 Z M184 184 L441 184 L314 535 L184 184 L184 184 Z M366 826 C354 839 336 845 314 845 C294 845 276 839 263 826 L162 725 L234 725 L314 805 C373 746 374 746 395 725 L467 725 L366 826 Z " />
<glyph glyph-name="Atilde" unicode="&#xc3;" horiz-adv-x="614" d="M538 -100 L615 -100 L344 629 L270 629 L-2 -100 L71 -100 L154 122 L456 122 L538 -100 Z M176 184 L306 535 L433 184 L176 184 Z M425 658 C493 658 535 708 550 810 L501 821 C501 821 499 813 497 799 C492 769 484 748 473 735 C452 713 417 709 393 730 C373 750 354 774 329 803 C319 816 305 827 290 835 C248 861 190 853 157 809 C136 782 123 744 117 696 L152 690 C156 690 168 688 168 688 C168 688 171 700 172 706 C177 738 185 759 195 773 C233 812 281 783 309 744 C329 720 349 692 380 672 C394 663 409 658 425 658 L425 658 Z " />
<glyph glyph-name="Adieresis" unicode="&#xc4;" horiz-adv-x="614" d="M538 -100 L456 122 L154 122 L71 -100 L-2 -100 L270 629 L344 629 L615 -100 L538 -100 L538 -100 Z M176 184 L433 184 L306 535 L176 184 L176 184 Z M267 806 L204 806 L204 739 L267 739 L267 806 L267 806 Z M409 806 L347 806 L347 739 L409 739 L409 806 L409 806 Z " />
<glyph glyph-name="Aring" unicode="&#xc5;" horiz-adv-x="614" d="M538 -100 L615 -100 L344 629 L270 629 L-2 -100 L71 -100 L154 122 L456 122 L538 -100 Z M176 184 L306 535 L433 184 L176 184 Z M357 716 C371 730 378 747 378 768 C378 789 371 807 357 821 C343 835 325 842 304 842 C283 842 265 834 250 820 C236 806 229 789 229 768 C229 748 236 730 250 717 C265 703 283 696 304 696 C325 696 343 702 357 716 L357 716 Z M304 731 C294 731 285 735 278 741 C271 749 267 758 267 768 C267 779 271 788 278 795 C285 802 294 806 304 806 C314 806 323 802 329 795 C336 788 339 779 339 768 C339 758 336 749 329 741 C323 735 314 731 304 731 L304 731 Z " />
<glyph glyph-name="AE" unicode="&#xc6;" horiz-adv-x="768" d="M382 569 L757 569 L757 631 L275 631 L4 -100 L77 -100 L160 124 L312 124 L312 -100 L757 -100 L757 -38 L382 -38 L382 244 L749 244 L749 307 L382 307 L382 569 L382 569 Z M312 185 L182 185 L312 536 L312 536 L312 185 L312 185 Z " />
<glyph glyph-name="Ccedilla" unicode="&#xc7;" horiz-adv-x="833" d="M429 -109 C514 -109 585 -87 642 -41 C699 4 737 67 756 148 L707 160 C701 162 686 166 686 166 C686 166 683 151 681 145 C666 85 636 38 593 4 C550 -31 495 -48 429 -48 C388 -48 351 -41 319 -27 C287 -14 261 3 242 24 C223 45 207 70 195 99 C182 128 174 156 169 183 C165 210 162 237 162 266 C162 362 185 439 231 495 C276 552 342 580 429 580 C491 580 543 564 585 533 C627 502 658 458 677 403 C679 398 684 385 684 385 C684 385 696 388 701 390 L751 403 C730 478 691 537 636 579 C580 621 511 642 429 642 C323 642 240 608 180 541 C121 473 91 381 91 266 C91 190 104 125 130 69 C156 13 194 -31 246 -62 C297 -94 358 -109 429 -109 L429 -109 Z M486 -162 C472 -151 454 -145 430 -145 L379 -145 L385 -102 L352 -100 L344 -155 C342 -165 344 -173 350 -180 C356 -187 364 -190 376 -190 L433 -190 C440 -190 446 -192 451 -197 C455 -201 458 -206 458 -212 C458 -230 445 -239 420 -239 L370 -239 L348 -239 L325 -239 L325 -285 L370 -285 L414 -285 C441 -285 463 -279 480 -266 C497 -253 505 -235 505 -211 C505 -190 499 -174 486 -162 L486 -162 Z " />
<glyph glyph-name="Egrave" unicode="&#xc8;" horiz-adv-x="539" d="M505 568 L129 568 L129 306 L497 306 L497 244 L129 244 L129 -39 L505 -39 L505 -100 L60 -100 L60 630 L505 630 L505 568 L505 568 Z M266 829 L186 829 L301 709 L366 709 L266 829 L266 829 Z " />
<glyph glyph-name="Eacute" unicode="&#xc9;" horiz-adv-x="539" d="M505 568 L505 630 L60 630 L60 -100 L505 -100 L505 -39 L129 -39 L129 244 L497 244 L497 306 L129 306 L129 568 L505 568 Z M285 829 L185 709 L251 709 L365 829 L285 829 Z " />
<glyph glyph-name="Ecircumflex" unicode="&#xca;" horiz-adv-x="539" d="M505 568 L129 568 L129 306 L497 306 L497 244 L129 244 L129 -39 L505 -39 L505 -100 L60 -100 L60 630 L505 630 L505 568 L505 568 Z M321 826 C309 839 291 845 269 845 C249 845 231 839 218 826 L117 725 L189 725 L269 805 C328 746 329 746 350 725 L422 725 L321 826 Z " />
<glyph glyph-name="Edieresis" unicode="&#xcb;" horiz-adv-x="539" d="M505 568 L129 568 L129 306 L497 306 L497 244 L129 244 L129 -39 L505 -39 L505 -100 L60 -100 L60 630 L505 630 L505 568 L505 568 Z M230 806 L167 806 L167 739 L230 739 L230 806 L230 806 Z M372 806 L310 806 L310 739 L372 739 L372 806 L372 806 Z " />
<glyph glyph-name="Igrave" unicode="&#xcc;" horiz-adv-x="160" d="M47 -100 L47 629 L117 629 L117 -100 L47 -100 L47 -100 Z M79 829 L-1 829 L114 709 L179 709 L79 829 L79 829 Z " />
<glyph glyph-name="Iacute" unicode="&#xcd;" horiz-adv-x="150" d="M47 -100 L117 -100 L117 629 L47 629 L47 -100 Z M98 829 L-2 709 L64 709 L178 829 L98 829 Z " />
<glyph glyph-name="Icircumflex" unicode="&#xce;" horiz-adv-x="220" d="M77 -100 L77 629 L147 629 L147 -100 L77 -100 L77 -100 Z M164 826 C152 839 134 845 112 845 C92 845 74 839 61 826 L-40 725 L32 725 L112 805 C171 746 172 746 193 725 L265 725 L164 826 Z " />
<glyph glyph-name="Idieresis" unicode="&#xcf;" horiz-adv-x="150" d="M37 -100 L37 629 L107 629 L107 -100 L37 -100 L37 -100 Z M33 806 L-30 806 L-30 739 L33 739 L33 806 L33 806 Z M175 806 L113 806 L113 739 L175 739 L175 806 L175 806 Z " />
<glyph glyph-name="Eth" unicode="&#xd0;" horiz-adv-x="755" d="M618 532 C559 596 476 629 369 629 L110 629 L110 294 L28 294 L28 233 L110 233 L110 -100 L369 -100 C476 -100 558 -67 618 -3 C677 62 706 149 706 264 C706 378 677 467 618 532 L618 532 Z M569 43 C523 -11 457 -38 369 -38 L180 -38 L180 233 L363 233 L363 294 L180 294 L180 567 L369 567 C456 567 522 540 568 487 C614 434 636 359 636 264 C636 169 614 96 569 43 L569 43 Z " />
<glyph glyph-name="Ntilde" unicode="&#xd1;" horiz-adv-x="601" d="M516 629 L516 66 C516 47 516 6 516 6 L109 629 L32 629 L32 -100 L102 -100 L102 462 C102 482 102 522 102 522 L508 -100 L586 -100 L586 629 L516 629 Z M419 658 C487 658 529 708 544 810 L495 821 C495 821 493 813 491 799 C486 769 478 748 467 735 C446 713 411 709 387 730 C367 750 348 774 323 803 C313 816 299 827 284 835 C242 861 184 853 151 809 C130 782 117 744 111 696 L146 690 C150 690 162 688 162 688 C162 688 165 700 166 706 C171 738 179 759 189 773 C227 812 275 783 303 744 C323 720 343 692 374 672 C388 663 403 658 419 658 L419 658 Z " />
<glyph glyph-name="Ograve" unicode="&#xd2;" horiz-adv-x="774" d="M386 -109 C279 -109 195 -75 136 -7 C77 61 47 152 47 267 C47 383 77 474 136 542 C196 610 279 643 386 643 C492 643 575 610 635 542 C694 475 723 383 723 267 C723 151 694 59 634 -8 C575 -75 492 -109 386 -109 L386 -109 Z M386 -48 C473 -48 539 -19 585 37 C631 94 653 170 653 267 C653 364 631 441 585 497 C539 553 473 581 386 581 C299 581 233 553 187 496 C141 440 118 363 118 267 C118 176 141 89 198 25 C245 -27 320 -48 386 -48 L386 -48 Z M384 829 L304 829 L419 709 L484 709 L384 829 L384 829 Z " />
<glyph glyph-name="Oacute" unicode="&#xd3;" horiz-adv-x="774" d="M386 -109 C492 -109 575 -75 634 -8 C694 59 723 151 723 267 C723 383 694 475 635 542 C575 610 492 643 386 643 C279 643 196 610 136 542 C77 474 47 383 47 267 C47 152 77 61 136 -7 C195 -75 279 -109 386 -109 L386 -109 Z M386 -48 C320 -48 245 -27 198 25 C141 89 118 176 118 267 C118 363 141 440 187 496 C233 553 299 581 386 581 C473 581 539 553 585 497 C631 441 653 364 653 267 C653 170 631 94 585 37 C539 -19 473 -48 386 -48 L386 -48 Z M403 829 L303 709 L369 709 L483 829 L403 829 Z " />
<glyph glyph-name="Ocircumflex" unicode="&#xd4;" horiz-adv-x="774" d="M386 -109 C279 -109 195 -75 136 -7 C77 61 47 152 47 267 C47 383 77 474 136 542 C196 610 279 643 386 643 C492 643 575 610 635 542 C694 475 723 383 723 267 C723 151 694 59 634 -8 C575 -75 492 -109 386 -109 L386 -109 Z M386 -48 C473 -48 539 -19 585 37 C631 94 653 170 653 267 C653 364 631 441 585 497 C539 553 473 581 386 581 C299 581 233 553 187 496 C141 440 118 363 118 267 C118 176 141 89 198 25 C245 -27 320 -48 386 -48 L386 -48 Z M438 826 C426 839 408 845 386 845 C366 845 348 839 335 826 L234 725 L306 725 L386 805 C445 746 446 746 467 725 L539 725 L438 826 Z " />
<glyph glyph-name="Otilde" unicode="&#xd5;" horiz-adv-x="774" d="M386 -109 C492 -109 575 -75 634 -8 C694 59 723 151 723 267 C723 383 694 475 635 542 C575 610 492 643 386 643 C279 643 196 610 136 542 C77 474 47 383 47 267 C47 152 77 61 136 -7 C195 -75 279 -109 386 -109 L386 -109 Z M386 -48 C320 -48 245 -27 198 25 C141 89 118 176 118 267 C118 363 141 440 187 496 C233 553 299 581 386 581 C473 581 539 553 585 497 C631 441 653 364 653 267 C653 170 631 94 585 37 C539 -19 473 -48 386 -48 L386 -48 Z M505 658 C573 658 615 708 630 810 L581 821 C581 821 579 813 577 799 C572 769 564 748 553 735 C532 713 497 709 473 730 C453 750 434 774 409 803 C399 816 385 827 370 835 C328 861 270 853 237 809 C216 782 203 744 197 696 L232 690 C236 690 248 688 248 688 C248 688 251 700 252 706 C257 738 265 759 275 773 C313 812 361 783 389 744 C409 720 429 692 460 672 C474 663 489 658 505 658 L505 658 Z " />
<glyph glyph-name="Odieresis" unicode="&#xd6;" horiz-adv-x="774" d="M386 -109 C279 -109 195 -75 136 -7 C77 61 47 152 47 267 C47 383 77 474 136 542 C196 610 279 643 386 643 C492 643 575 610 635 542 C694 475 723 383 723 267 C723 151 694 59 634 -8 C575 -75 492 -109 386 -109 L386 -109 Z M386 -48 C473 -48 539 -19 585 37 C631 94 653 170 653 267 C653 364 631 441 585 497 C539 553 473 581 386 581 C299 581 233 553 187 496 C141 440 118 363 118 267 C118 176 141 89 198 25 C245 -27 320 -48 386 -48 L386 -48 Z M347 806 L284 806 L284 739 L347 739 L347 806 L347 806 Z M489 806 L427 806 L427 739 L489 739 L489 806 L489 806 Z " />
<glyph glyph-name="multiply" unicode="&#xd7;" horiz-adv-x="233" d="M208 358 L128 358 L118 346 L108 358 L28 358 L81 303 L28 239 L93 239 L118 264 L142 239 L208 239 L154 303 L208 358 L208 358 Z " />
<glyph glyph-name="Oslash" unicode="&#xd8;" horiz-adv-x="774" d="M625 542 C604 566 581 585 554 600 L595 693 L532 693 L502 624 C464 637 422 643 376 643 C269 643 186 609 127 542 C67 474 37 382 37 267 C37 152 67 61 126 -7 C147 -31 171 -50 197 -66 L161 -147 L223 -147 L248 -90 C286 -103 329 -109 376 -109 C482 -109 565 -76 625 -9 C684 59 714 151 714 267 C714 383 685 474 625 542 L625 542 Z M189 25 C170 46 154 71 141 99 C129 128 120 156 115 183 C111 210 109 238 109 267 C109 363 131 440 177 496 C223 553 289 581 376 581 C413 581 446 576 476 566 L224 -5 C210 4 199 14 189 25 L189 25 Z M576 37 C530 -20 463 -48 376 -48 C338 -48 305 -42 274 -31 L527 541 C545 529 561 514 575 497 C621 441 644 364 644 267 C644 170 621 94 576 37 L576 37 Z " />
<glyph glyph-name="Ugrave" unicode="&#xd9;" horiz-adv-x="615" d="M306 -109 C274 -109 243 -106 217 -100 C190 -94 166 -83 143 -69 C120 -54 101 -35 85 -12 C70 11 58 39 49 74 C40 108 36 148 36 193 L36 630 L105 630 L106 193 C106 114 122 54 154 14 C186 -27 237 -48 306 -48 C376 -48 426 -27 458 13 C490 54 506 114 506 193 L506 630 L576 630 L576 193 C576 137 570 90 557 50 C544 10 525 -21 500 -44 C476 -67 448 -83 416 -94 C384 -104 348 -109 306 -109 L306 -109 Z M304 829 L224 829 L339 709 L404 709 L304 829 L304 829 Z " />
<glyph glyph-name="Uacute" unicode="&#xda;" horiz-adv-x="615" d="M306 -109 C348 -109 384 -104 416 -94 C448 -83 476 -67 500 -44 C525 -21 544 10 557 50 C570 90 576 137 576 193 L576 630 L506 630 L506 193 C506 114 490 54 458 13 C426 -27 376 -48 306 -48 C237 -48 186 -27 154 14 C122 54 106 114 106 193 L105 630 L36 630 L36 193 C36 148 40 108 49 74 C58 39 70 11 85 -12 C101 -35 120 -54 143 -69 C166 -83 190 -94 217 -100 C243 -106 274 -109 306 -109 L306 -109 Z M323 829 L223 709 L289 709 L403 829 L323 829 Z " />
<glyph glyph-name="Ucircumflex" unicode="&#xdb;" horiz-adv-x="615" d="M306 -109 C274 -109 243 -106 217 -100 C190 -94 166 -83 143 -69 C120 -54 101 -35 85 -12 C70 11 58 39 49 74 C40 108 36 148 36 193 L36 630 L105 630 L106 193 C106 114 122 54 154 14 C186 -27 237 -48 306 -48 C376 -48 426 -27 458 13 C490 54 506 114 506 193 L506 630 L576 630 L576 193 C576 137 570 90 557 50 C544 10 525 -21 500 -44 C476 -67 448 -83 416 -94 C384 -104 348 -109 306 -109 L306 -109 Z M359 826 C347 839 329 845 307 845 C287 845 269 839 256 826 L155 725 L227 725 L307 805 C366 746 367 746 388 725 L460 725 L359 826 Z " />
<glyph glyph-name="Udieresis" unicode="&#xdc;" horiz-adv-x="615" d="M306 -109 C274 -109 243 -106 217 -100 C190 -94 166 -83 143 -69 C120 -54 101 -35 85 -12 C70 11 58 39 49 74 C40 108 36 148 36 193 L36 630 L105 630 L106 193 C106 114 122 54 154 14 C186 -27 237 -48 306 -48 C376 -48 426 -27 458 13 C490 54 506 114 506 193 L506 630 L576 630 L576 193 C576 137 570 90 557 50 C544 10 525 -21 500 -44 C476 -67 448 -83 416 -94 C384 -104 348 -109 306 -109 L306 -109 Z M268 806 L205 806 L205 739 L268 739 L268 806 L268 806 Z M410 806 L348 806 L348 739 L410 739 L410 806 L410 806 Z " />
<glyph glyph-name="Yacute" unicode="&#xdd;" horiz-adv-x="579" d="M579 630 L496 630 L293 315 L92 630 L6 630 L257 249 L257 -100 L328 -100 L328 249 L579 630 Z M305 829 L205 709 L271 709 L385 829 L305 829 Z " />
<glyph glyph-name="agrave" unicode="&#xe0;" horiz-adv-x="582" d="M540 448 L475 448 L475 367 C453 396 426 419 393 435 C361 451 324 459 283 459 C204 459 142 433 97 383 C53 332 31 262 31 173 C31 86 53 17 99 -33 C145 -84 207 -109 287 -109 C328 -109 364 -100 396 -81 C429 -62 456 -38 478 -6 L478 -100 L540 -100 L540 448 Z M475 162 C475 94 459 42 426 5 C393 -32 347 -50 287 -50 C227 -50 181 -30 147 10 C113 51 96 106 96 175 C96 245 112 300 145 340 C178 380 224 400 283 400 C343 400 390 382 424 345 C458 308 475 257 475 190 L475 162 L475 162 Z M288 629 L208 629 L323 509 L388 509 L288 629 L288 629 Z " />
<glyph glyph-name="aacute" unicode="&#xe1;" horiz-adv-x="582" d="M540 448 L475 448 L475 367 C453 396 426 419 393 435 C361 451 324 459 283 459 C204 459 142 433 97 383 C53 332 31 262 31 173 C31 86 53 17 99 -33 C145 -84 207 -109 287 -109 C328 -109 364 -100 396 -81 C429 -62 456 -38 478 -6 L478 -100 L540 -100 L540 448 Z M475 162 C475 94 459 42 426 5 C393 -32 347 -50 287 -50 C227 -50 181 -30 147 10 C113 51 96 106 96 175 C96 245 112 300 145 340 C178 380 224 400 283 400 C343 400 390 382 424 345 C458 308 475 257 475 190 L475 162 L475 162 Z M307 629 L207 509 L273 509 L387 629 L307 629 Z " />
<glyph glyph-name="acircumflex" unicode="&#xe2;" horiz-adv-x="582" d="M540 448 L475 448 L475 367 C453 396 426 419 393 435 C361 451 324 459 283 459 C204 459 142 433 97 383 C53 332 31 262 31 173 C31 86 53 17 99 -33 C145 -84 207 -109 287 -109 C328 -109 364 -100 396 -81 C429 -62 456 -38 478 -6 L478 -100 L540 -100 L540 448 Z M475 162 C475 94 459 42 426 5 C393 -32 347 -50 287 -50 C227 -50 181 -30 147 10 C113 51 96 106 96 175 C96 245 112 300 145 340 C178 380 224 400 283 400 C343 400 390 382 424 345 C458 308 475 257 475 190 L475 162 L475 162 Z M342 626 C330 639 312 645 290 645 C270 645 252 639 239 626 L138 525 L210 525 L290 605 C349 546 350 546 371 525 L443 525 L342 626 Z " />
<glyph glyph-name="atilde" unicode="&#xe3;" horiz-adv-x="582" d="M540 448 L475 448 L475 367 C453 396 426 419 393 435 C361 451 324 459 283 459 C204 459 142 433 97 383 C53 332 31 262 31 173 C31 86 53 17 99 -33 C145 -84 207 -109 287 -109 C328 -109 364 -100 396 -81 C429 -62 456 -38 478 -6 L478 -100 L540 -100 L540 448 Z M475 162 C475 94 459 42 426 5 C393 -32 347 -50 287 -50 C227 -50 181 -30 147 10 C113 51 96 106 96 175 C96 245 112 300 145 340 C178 380 224 400 283 400 C343 400 390 382 424 345 C458 308 475 257 475 190 L475 162 L475 162 Z M410 458 C478 458 520 508 535 610 L486 621 C486 621 484 613 482 599 C477 569 469 548 458 535 C437 513 402 509 378 530 C358 550 339 574 314 603 C304 616 290 627 275 635 C233 661 175 653 142 609 C121 582 108 544 102 496 L137 490 C141 490 153 488 153 488 C153 488 156 500 157 506 C162 538 170 559 180 573 C218 612 266 583 294 544 C314 520 334 492 365 472 C379 463 394 458 410 458 L410 458 Z " />
<glyph glyph-name="adieresis" unicode="&#xe4;" horiz-adv-x="582" d="M540 448 L475 448 L475 367 C453 396 426 419 393 435 C361 451 324 459 283 459 C204 459 142 433 97 383 C53 332 31 262 31 173 C31 86 53 17 99 -33 C145 -84 207 -109 287 -109 C328 -109 364 -100 396 -81 C429 -62 456 -38 478 -6 L478 -100 L540 -100 L540 448 Z M475 162 C475 94 459 42 426 5 C393 -32 347 -50 287 -50 C227 -50 181 -30 147 10 C113 51 96 106 96 175 C96 245 112 300 145 340 C178 380 224 400 283 400 C343 400 390 382 424 345 C458 308 475 257 475 190 L475 162 L475 162 Z M251 606 L188 606 L188 539 L251 539 L251 606 L251 606 Z M393 606 L331 606 L331 539 L393 539 L393 606 L393 606 Z " />
<glyph glyph-name="aring" unicode="&#xe5;" horiz-adv-x="582" d="M540 448 L475 448 L475 367 C453 396 426 419 393 435 C361 451 324 459 283 459 C204 459 142 433 97 383 C53 332 31 262 31 173 C31 86 53 17 99 -33 C145 -84 207 -109 287 -109 C328 -109 364 -100 396 -81 C429 -62 456 -38 478 -6 L478 -100 L540 -100 L540 448 Z M475 162 C475 94 459 42 426 5 C393 -32 347 -50 287 -50 C227 -50 181 -30 147 10 C113 51 96 106 96 175 C96 245 112 300 145 340 C178 380 224 400 283 400 C343 400 390 382 424 345 C458 308 475 257 475 190 L475 162 L475 162 Z M341 516 C355 530 362 547 362 568 C362 589 355 607 341 621 C327 635 309 642 288 642 C267 642 249 634 234 620 C220 606 213 589 213 568 C213 548 220 530 234 517 C249 503 267 496 288 496 C309 496 327 502 341 516 L341 516 Z M288 531 C278 531 269 535 262 541 C255 549 251 558 251 568 C251 579 255 588 262 595 C269 602 278 606 288 606 C298 606 307 602 313 595 C320 588 323 579 323 568 C323 558 320 549 313 541 C307 535 298 531 288 531 L288 531 Z " />
<glyph glyph-name="ae" unicode="&#xe6;" horiz-adv-x="1041" d="M1002 189 C1001 238 990 282 972 321 C952 363 921 396 881 421 C841 446 793 459 738 459 C658 459 595 434 548 383 L548 446 L484 446 L484 366 C462 395 434 417 402 434 C369 450 332 458 292 458 C212 458 150 432 106 381 C61 330 39 261 39 172 C39 85 62 16 107 -34 C153 -85 216 -110 296 -110 C336 -110 373 -101 405 -82 C437 -64 465 -39 487 -7 L487 -100 L548 -100 L548 -36 C595 -86 658 -111 738 -111 C799 -111 850 -96 894 -66 C937 -35 968 8 986 63 L922 79 C922 79 920 73 916 63 C900 26 877 -2 847 -22 C817 -41 781 -51 738 -51 C680 -51 633 -33 598 4 C574 30 557 62 548 99 C544 116 542 134 541 153 L1002 153 C1002 173 1002 173 1002 189 L1002 189 Z M434 4 C401 -33 355 -51 296 -51 C236 -51 189 -31 155 9 C121 50 104 104 104 174 C104 244 121 299 153 339 C186 379 232 399 292 399 C351 399 398 381 432 344 C457 317 473 282 480 239 C476 218 475 196 475 172 C475 149 476 128 479 107 C473 65 458 31 434 4 L434 4 Z M542 213 C543 225 545 237 548 248 C558 289 577 322 605 349 C639 382 684 399 738 399 C793 399 837 382 872 348 C906 314 927 269 934 213 L542 213 L542 213 Z " />
<glyph glyph-name="ccedilla" unicode="&#xe7;" horiz-adv-x="593" d="M296 -109 C359 -109 412 -92 455 -59 C498 -25 527 23 542 86 L479 102 C479 102 475 87 473 81 C460 40 438 8 408 -15 C378 -38 341 -49 296 -49 C236 -49 189 -29 155 11 C121 52 104 103 104 170 C104 240 121 295 154 336 C188 377 235 398 296 398 C337 398 373 388 402 367 C432 347 454 316 470 276 C474 265 476 258 476 258 L539 276 C522 334 493 379 452 410 C410 442 359 458 296 458 C216 458 153 432 107 381 C62 329 39 259 39 170 C39 85 62 20 107 -31 C152 -83 215 -109 296 -109 L296 -109 Z M366 -162 C352 -151 334 -145 310 -145 L259 -145 L265 -102 L232 -100 L224 -155 C222 -165 224 -173 230 -180 C236 -187 244 -190 256 -190 L313 -190 C320 -190 326 -192 331 -197 C335 -201 338 -206 338 -212 C338 -230 325 -239 300 -239 L250 -239 L228 -239 L205 -239 L205 -285 L250 -285 L294 -285 C321 -285 343 -279 360 -266 C377 -253 385 -235 385 -211 C385 -190 379 -174 366 -162 L366 -162 Z " />
<glyph glyph-name="egrave" unicode="&#xe8;" horiz-adv-x="573" d="M555 191 C554 240 544 284 525 323 C505 365 475 398 435 423 C394 448 347 461 292 461 C211 461 147 435 99 383 C52 330 28 261 28 174 C28 88 52 20 99 -32 C147 -83 211 -109 292 -109 C353 -109 405 -94 447 -64 C491 -33 521 10 539 65 L476 81 C476 81 474 75 470 65 C454 28 431 0 401 -20 C371 -39 334 -49 292 -49 C234 -49 187 -31 152 6 C117 44 97 93 94 155 L555 155 C555 175 555 175 555 191 L555 191 Z M95 215 C103 272 124 317 159 351 C193 384 238 401 292 401 C346 401 391 384 426 350 C460 316 481 271 488 215 L95 215 L95 215 Z M283 629 L203 629 L318 509 L383 509 L283 629 L283 629 Z " />
<glyph glyph-name="eacute" unicode="&#xe9;" horiz-adv-x="573" d="M555 191 C554 240 544 284 525 323 C505 365 475 398 435 423 C394 448 347 461 292 461 C211 461 147 435 99 383 C52 330 28 261 28 174 C28 88 52 20 99 -32 C147 -83 211 -109 292 -109 C353 -109 405 -94 447 -64 C491 -33 521 10 539 65 L476 81 C476 81 474 75 470 65 C454 28 431 0 401 -20 C371 -39 334 -49 292 -49 C234 -49 187 -31 152 6 C117 44 97 93 94 155 L555 155 C555 175 555 175 555 191 L555 191 Z M95 215 C103 272 124 317 159 351 C193 384 238 401 292 401 C346 401 391 384 426 350 C460 316 481 271 488 215 L95 215 L95 215 Z M302 629 L202 509 L268 509 L382 629 L302 629 Z " />
<glyph glyph-name="ecircumflex" unicode="&#xea;" horiz-adv-x="573" d="M555 191 C554 240 544 284 525 323 C505 365 475 398 435 423 C394 448 347 461 292 461 C211 461 147 435 99 383 C52 330 28 261 28 174 C28 88 52 20 99 -32 C147 -83 211 -109 292 -109 C353 -109 405 -94 447 -64 C491 -33 521 10 539 65 L476 81 C476 81 474 75 470 65 C454 28 431 0 401 -20 C371 -39 334 -49 292 -49 C234 -49 187 -31 152 6 C117 44 97 93 94 155 L555 155 C555 175 555 175 555 191 L555 191 Z M95 215 C103 272 124 317 159 351 C193 384 238 401 292 401 C346 401 391 384 426 350 C460 316 481 271 488 215 L95 215 L95 215 Z M338 626 C326 639 308 645 286 645 C266 645 248 639 235 626 L134 525 L206 525 L286 605 C345 546 346 546 367 525 L439 525 L338 626 Z " />
<glyph glyph-name="edieresis" unicode="&#xeb;" horiz-adv-x="573" d="M555 191 C554 240 544 284 525 323 C505 365 475 398 435 423 C394 448 347 461 292 461 C211 461 147 435 99 383 C52 330 28 261 28 174 C28 88 52 20 99 -32 C147 -83 211 -109 292 -109 C353 -109 405 -94 447 -64 C491 -33 521 10 539 65 L476 81 C476 81 474 75 470 65 C454 28 431 0 401 -20 C371 -39 334 -49 292 -49 C234 -49 187 -31 152 6 C117 44 97 93 94 155 L555 155 C555 175 555 175 555 191 L555 191 Z M95 215 C103 272 124 317 159 351 C193 384 238 401 292 401 C346 401 391 384 426 350 C460 316 481 271 488 215 L95 215 L95 215 Z M247 606 L184 606 L184 539 L247 539 L247 606 L247 606 Z M389 606 L327 606 L327 539 L389 539 L389 606 L389 606 Z " />
<glyph glyph-name="igrave" unicode="&#xec;" horiz-adv-x="123" d="M27 -100 L27 448 L93 448 L93 -100 L27 -100 Z M61 629 L-19 629 L96 509 L161 509 L61 629 L61 629 Z " />
<glyph glyph-name="iacute" unicode="&#xed;" horiz-adv-x="123" d="M93 -100 L93 448 L27 448 L27 -100 L93 -100 Z M93 -100 L93 448 L27 448 L27 -100 L93 -100 Z M74 629 L-26 509 L40 509 L154 629 L74 629 Z " />
<glyph glyph-name="icircumflex" unicode="&#xee;" horiz-adv-x="123" d="M27 -100 L27 448 L93 448 L93 -100 L27 -100 Z M114 626 C102 639 84 645 62 645 C42 645 24 639 11 626 L-90 525 L-18 525 L62 605 C121 546 122 546 143 525 L215 525 L114 626 Z " />
<glyph glyph-name="idieresis" unicode="&#xef;" horiz-adv-x="123" d="M27 -100 L27 448 L93 448 L93 -100 L27 -100 Z M20 606 L-43 606 L-43 539 L20 539 L20 606 L20 606 Z M162 606 L100 606 L100 539 L162 539 L162 606 L162 606 Z " />
<glyph glyph-name="eth" unicode="&#xf0;" horiz-adv-x="592" d="M365 607 L310 607 L283 578 L257 607 L202 607 L258 550 L202 488 L247 488 L283 524 L319 488 L365 488 L309 550 L365 607 Z M288 -109 C209 -109 146 -83 100 -32 C55 19 32 85 32 173 C32 261 55 330 100 381 C146 432 209 458 288 458 C368 458 431 432 477 381 C522 330 545 260 545 173 C545 85 522 19 477 -32 C431 -83 368 -109 288 -109 L288 -109 Z M288 -49 C348 -49 395 -29 429 11 C462 52 479 103 479 173 C479 242 462 297 429 338 C395 378 348 398 288 398 C229 398 182 378 148 338 C114 297 97 242 97 173 C97 103 114 52 148 11 C182 -29 229 -49 288 -49 L288 -49 Z " />
<glyph glyph-name="ntilde" unicode="&#xf1;" horiz-adv-x="497" d="M437 398 C405 438 353 458 282 458 C206 458 149 426 113 363 L113 448 L50 448 L50 -100 L116 -100 L116 231 C116 286 130 328 158 357 C186 385 227 399 282 399 C334 399 370 385 391 355 C412 326 422 281 422 220 L422 -100 L487 -100 L487 220 C487 299 470 358 437 398 L437 398 Z M367 458 C435 458 477 508 492 610 L443 621 C443 621 441 613 439 599 C434 569 426 548 415 535 C394 513 359 509 335 530 C315 550 296 574 271 603 C261 616 247 627 232 635 C190 661 132 653 99 609 C78 582 65 544 59 496 L94 490 C98 490 110 488 110 488 C110 488 113 500 114 506 C119 538 127 559 137 573 C175 612 223 583 251 544 C271 520 291 492 322 472 C336 463 351 458 367 458 L367 458 Z " />
<glyph glyph-name="ograve" unicode="&#xf2;" horiz-adv-x="573" d="M288 -109 C209 -109 146 -83 100 -32 C55 19 32 85 32 173 C32 261 55 330 100 381 C146 432 209 458 288 458 C368 458 431 432 477 381 C522 330 545 260 545 173 C545 85 522 19 477 -32 C431 -83 368 -109 288 -109 L288 -109 Z M288 -49 C348 -49 395 -29 429 11 C462 52 479 103 479 173 C479 242 462 297 429 338 C395 378 348 398 288 398 C229 398 182 378 148 338 C114 297 97 242 97 173 C97 103 114 52 148 11 C182 -29 229 -49 288 -49 L288 -49 Z M283 629 L203 629 L318 509 L383 509 L283 629 L283 629 Z " />
<glyph glyph-name="oacute" unicode="&#xf3;" horiz-adv-x="573" d="M288 -109 C368 -109 431 -83 477 -32 C522 19 545 85 545 173 C545 260 522 330 477 381 C431 432 368 458 288 458 C209 458 146 432 100 381 C55 330 32 261 32 173 C32 85 55 19 100 -32 C146 -83 209 -109 288 -109 L288 -109 Z M288 -49 C229 -49 182 -29 148 11 C114 52 97 103 97 173 C97 242 114 297 148 338 C182 378 229 398 288 398 C348 398 395 378 429 338 C462 297 479 242 479 173 C479 103 462 52 429 11 C395 -29 348 -49 288 -49 L288 -49 Z M302 629 L202 509 L268 509 L382 629 L302 629 Z " />
<glyph glyph-name="ocircumflex" unicode="&#xf4;" horiz-adv-x="573" d="M288 -109 C209 -109 146 -83 100 -32 C55 19 32 85 32 173 C32 261 55 330 100 381 C146 432 209 458 288 458 C368 458 431 432 477 381 C522 330 545 260 545 173 C545 85 522 19 477 -32 C431 -83 368 -109 288 -109 L288 -109 Z M288 -49 C348 -49 395 -29 429 11 C462 52 479 103 479 173 C479 242 462 297 429 338 C395 378 348 398 288 398 C229 398 182 378 148 338 C114 297 97 242 97 173 C97 103 114 52 148 11 C182 -29 229 -49 288 -49 L288 -49 Z M338 626 C326 639 308 645 286 645 C266 645 248 639 235 626 L134 525 L206 525 L286 605 C345 546 346 546 367 525 L439 525 L338 626 Z " />
<glyph glyph-name="otilde" unicode="&#xf5;" horiz-adv-x="573" d="M288 -109 C368 -109 431 -83 477 -32 C522 19 545 85 545 173 C545 260 522 330 477 381 C431 432 368 458 288 458 C209 458 146 432 100 381 C55 330 32 261 32 173 C32 85 55 19 100 -32 C146 -83 209 -109 288 -109 L288 -109 Z M288 -49 C229 -49 182 -29 148 11 C114 52 97 103 97 173 C97 242 114 297 148 338 C182 378 229 398 288 398 C348 398 395 378 429 338 C462 297 479 242 479 173 C479 103 462 52 429 11 C395 -29 348 -49 288 -49 L288 -49 Z M405 458 C473 458 515 508 530 610 L481 621 C481 621 479 613 477 599 C472 569 464 548 453 535 C432 513 397 509 373 530 C353 550 334 574 309 603 C299 616 285 627 270 635 C228 661 170 653 137 609 C116 582 103 544 97 496 L132 490 C136 490 148 488 148 488 C148 488 151 500 152 506 C157 538 165 559 175 573 C213 612 261 583 289 544 C309 520 329 492 360 472 C374 463 389 458 405 458 L405 458 Z " />
<glyph glyph-name="odieresis" unicode="&#xf6;" horiz-adv-x="573" d="M288 -109 C209 -109 146 -83 100 -32 C55 19 32 85 32 173 C32 261 55 330 100 381 C146 432 209 458 288 458 C368 458 431 432 477 381 C522 330 545 260 545 173 C545 85 522 19 477 -32 C431 -83 368 -109 288 -109 L288 -109 Z M288 -49 C348 -49 395 -29 429 11 C462 52 479 103 479 173 C479 242 462 297 429 338 C395 378 348 398 288 398 C229 398 182 378 148 338 C114 297 97 242 97 173 C97 103 114 52 148 11 C182 -29 229 -49 288 -49 L288 -49 Z M247 606 L184 606 L184 539 L247 539 L247 606 L247 606 Z M389 606 L327 606 L327 539 L389 539 L389 606 L389 606 Z " />
<glyph glyph-name="oslash" unicode="&#xf8;" horiz-adv-x="573" d="M475 384 C461 400 445 413 428 424 L461 498 L398 498 L376 448 C349 456 319 461 287 461 C207 461 145 435 99 384 C53 333 30 264 30 176 C30 88 53 18 99 -33 C113 -48 128 -61 145 -72 L109 -154 L171 -154 L197 -96 C224 -105 254 -109 287 -109 C367 -109 429 -83 475 -33 C520 18 543 88 543 176 C543 263 520 333 475 384 L475 384 Z M146 11 C112 51 96 107 96 176 C96 245 112 300 146 340 C180 381 227 401 287 401 C310 401 332 398 351 392 L171 -13 C162 -6 154 2 146 11 L146 11 Z M427 11 C393 -29 347 -49 287 -49 C263 -49 241 -46 221 -40 L402 365 C411 358 419 350 427 340 C461 300 478 245 478 176 C478 107 461 51 427 11 L427 11 Z " />
<glyph glyph-name="ugrave" unicode="&#xf9;" horiz-adv-x="504" d="M414 449 L414 118 C414 63 400 21 372 -8 C344 -36 303 -50 248 -50 C196 -50 160 -36 139 -7 C118 23 108 68 108 129 L108 449 L43 449 L43 129 C43 50 60 -9 92 -49 C125 -89 177 -109 248 -109 C324 -109 381 -77 417 -13 L417 -100 L480 -100 L480 449 L414 449 L414 449 Z M249 629 L169 629 L284 509 L349 509 L249 629 L249 629 Z " />
<glyph glyph-name="uacute" unicode="&#xfa;" horiz-adv-x="504" d="M414 449 L414 118 C414 63 400 21 372 -8 C344 -36 303 -50 248 -50 C196 -50 160 -36 139 -7 C118 23 108 68 108 129 L108 449 L43 449 L43 129 C43 50 60 -9 92 -49 C125 -89 177 -109 248 -109 C324 -109 381 -77 417 -13 L417 -100 L480 -100 L480 449 L414 449 L414 449 Z M268 629 L168 509 L234 509 L348 629 L268 629 Z " />
<glyph glyph-name="ucircumflex" unicode="&#xfb;" horiz-adv-x="504" d="M414 449 L414 118 C414 63 400 21 372 -8 C344 -36 303 -50 248 -50 C196 -50 160 -36 139 -7 C118 23 108 68 108 129 L108 449 L43 449 L43 129 C43 50 60 -9 92 -49 C125 -89 177 -109 248 -109 C324 -109 381 -77 417 -13 L417 -100 L480 -100 L480 449 L414 449 L414 449 Z M303 626 C291 639 273 645 251 645 C231 645 213 639 200 626 L99 525 L171 525 L251 605 C310 546 311 546 332 525 L404 525 L303 626 Z " />
<glyph glyph-name="udieresis" unicode="&#xfc;" horiz-adv-x="504" d="M414 449 L414 118 C414 63 400 21 372 -8 C344 -36 303 -50 248 -50 C196 -50 160 -36 139 -7 C118 23 108 68 108 129 L108 449 L43 449 L43 129 C43 50 60 -9 92 -49 C125 -89 177 -109 248 -109 C324 -109 381 -77 417 -13 L417 -100 L480 -100 L480 449 L414 449 L414 449 Z M212 606 L149 606 L149 539 L212 539 L212 606 L212 606 Z M354 606 L292 606 L292 539 L354 539 L354 606 L354 606 Z " />
<glyph glyph-name="yacute" unicode="&#xfd;" horiz-adv-x="482" d="M407 448 L240 -8 L70 448 L-1 448 L206 -99 L182 -165 C170 -192 151 -220 120 -220 L75 -220 L75 -282 L117 -282 C144 -282 168 -274 191 -257 C213 -241 229 -218 240 -190 L274 -100 L479 448 L407 448 L407 448 Z M257 629 L157 509 L223 509 L337 629 L257 629 Z " />
<glyph glyph-name="ydieresis" unicode="&#xff;" horiz-adv-x="482" d="M407 448 L240 -8 L70 448 L-1 448 L206 -99 L182 -165 C170 -192 151 -220 120 -220 L75 -220 L75 -282 L117 -282 C144 -282 168 -274 191 -257 C213 -241 229 -218 240 -190 L274 -100 L479 448 L407 448 L407 448 Z M201 606 L138 606 L138 539 L201 539 L201 606 L201 606 Z M343 606 L281 606 L281 539 L343 539 L343 606 L343 606 Z " />
<glyph glyph-name="Lslash" unicode="&#x141;" horiz-adv-x="616" d="M199 -39 L199 238 L344 322 L314 375 L199 308 L199 630 L129 630 L129 269 L24 208 C24 208 53 158 54 155 L129 198 L129 -100 L574 -100 L574 -39 L199 -39 L199 -39 Z " />
<glyph glyph-name="lslash" unicode="&#x142;" horiz-adv-x="366" d="M262 -40 C241 -40 225 -33 213 -20 C202 -7 196 12 196 35 L196 245 L331 323 L300 376 L196 316 L196 630 L130 630 L130 278 L10 209 C10 209 39 159 40 156 L130 208 L130 35 C130 -7 142 -40 165 -64 C189 -88 221 -100 262 -100 L331 -100 L331 -40 L262 -40 Z " />
<glyph glyph-name="OE" unicode="&#x152;" horiz-adv-x="1108" d="M690 568 L1065 568 L1065 630 L620 630 L620 590 C568 624 504 641 428 641 C321 641 238 607 178 540 C119 472 89 380 89 265 C89 150 119 59 178 -9 C237 -77 321 -111 428 -111 C504 -111 568 -94 620 -60 L620 -100 L1065 -100 L1065 -39 L690 -39 L690 244 L1057 244 L1057 306 L690 306 L690 568 L690 568 Z M620 27 C575 -24 511 -50 428 -50 C387 -50 350 -43 318 -30 C285 -16 259 1 240 23 C221 44 205 69 192 97 C180 126 171 154 167 181 C162 208 160 236 160 265 C160 361 183 438 229 494 C274 551 341 579 428 579 C510 579 575 554 620 503 L620 27 L620 27 Z " />
<glyph glyph-name="oe" unicode="&#x153;" horiz-adv-x="1025" d="M966 191 C965 240 955 284 936 324 C916 365 886 399 845 424 C805 448 758 461 703 461 C621 461 560 432 507 379 C463 438 383 461 314 461 C234 461 172 436 126 384 C80 333 58 264 58 176 C58 88 80 19 126 -32 C172 -83 234 -109 314 -109 C375 -109 467 -76 506 -27 C546 -82 643 -109 703 -109 C763 -109 815 -94 858 -63 C901 -33 932 10 950 65 L887 82 C887 82 885 75 880 65 C865 28 842 0 812 -20 C781 -39 745 -49 703 -49 C637 -49 578 -21 543 31 C520 65 507 106 505 155 L966 155 C966 175 966 175 966 191 L966 191 Z M454 11 C420 -29 373 -49 314 -49 C254 -49 207 -29 173 11 C139 52 122 107 122 176 C122 246 139 300 173 341 C207 381 254 401 314 401 C373 401 420 381 454 341 C459 334 464 328 469 321 C449 279 439 230 439 174 C439 119 449 72 468 31 C464 24 459 17 454 11 L454 11 Z M506 215 C511 257 524 291 543 320 C551 331 559 342 569 351 C604 385 648 401 703 401 C757 401 802 384 837 351 C871 317 892 272 899 215 L506 215 L506 215 Z " />
<glyph glyph-name="Scaron" unicode="&#x160;" horiz-adv-x="584" d="M293 -109 C380 -109 448 -91 498 -55 C547 -19 571 34 571 105 C571 158 554 202 518 236 C481 270 426 295 351 312 L237 339 C195 348 163 363 140 384 C118 405 106 429 106 456 C106 497 122 528 152 549 C183 571 228 581 288 581 C350 581 414 556 479 507 C483 504 494 495 494 495 L539 543 C527 554 514 565 500 575 C485 586 467 596 447 607 C426 618 402 627 374 633 C347 640 318 643 288 643 C210 643 149 627 104 596 C59 564 37 518 37 456 C37 362 102 301 232 273 L342 249 C395 238 434 219 461 193 C487 167 501 138 501 104 C501 60 482 23 446 -5 C409 -33 358 -48 293 -48 C211 -48 140 -22 81 28 L67 40 L21 -9 C56 -43 96 -68 139 -84 C182 -101 234 -109 293 -109 L293 -109 Z M440 829 L368 829 C347 808 347 808 287 749 L207 829 L135 829 L236 728 C250 716 267 709 287 709 C309 709 326 716 339 728 L440 829 Z " />
<glyph glyph-name="scaron" unicode="&#x161;" horiz-adv-x="473" d="M240 -109 C307 -109 360 -94 397 -66 C435 -37 454 2 454 53 C454 94 438 125 407 154 C375 182 332 203 277 214 L195 232 C140 244 113 272 113 316 C113 340 124 359 147 375 C169 391 199 399 238 399 C264 399 289 394 311 384 C333 374 351 362 364 347 C373 339 378 333 378 333 L426 374 C420 383 412 392 401 401 C391 409 378 418 363 428 C348 437 329 444 308 449 C287 455 264 458 241 458 C181 458 134 444 100 418 C65 391 48 356 48 313 C48 276 61 246 86 221 C112 197 148 180 192 171 C206 168 232 163 270 156 C307 148 336 135 357 117 C377 99 388 80 388 53 C388 21 375 -4 350 -22 C324 -39 288 -48 240 -48 C212 -48 185 -42 158 -30 C131 -19 110 -5 95 10 C86 19 81 24 81 24 L35 -21 C57 -46 86 -67 122 -84 C158 -100 197 -109 240 -109 L240 -109 Z M384 629 L312 629 C291 608 291 608 231 549 L151 629 L79 629 L180 528 C194 516 211 509 231 509 C253 509 270 516 283 528 L384 629 Z " />
<glyph glyph-name="Ydieresis" unicode="&#x178;" horiz-adv-x="579" d="M579 630 L328 249 L328 -100 L257 -100 L257 249 L6 630 L92 630 L293 315 L496 630 L579 630 L579 630 Z M250 806 L187 806 L187 739 L250 739 L250 806 L250 806 Z M392 806 L330 806 L330 739 L392 739 L392 806 L392 806 Z " />
<glyph glyph-name="Zcaron" unicode="&#x17d;" horiz-adv-x="558" d="M551 629 L24 629 L24 567 L466 567 L24 -38 L24 -100 L551 -100 L551 -38 L110 -38 L551 567 L551 629 Z M427 829 L355 829 C334 808 334 808 274 749 L194 829 L122 829 L223 728 C237 716 254 709 274 709 C296 709 313 716 326 728 L427 829 Z " />
<glyph glyph-name="zcaron" unicode="&#x17e;" horiz-adv-x="500" d="M476 448 L27 448 L27 387 L390 387 L27 -39 L27 -100 L476 -100 L476 -39 L112 -39 L476 387 L476 448 Z M398 629 L326 629 C305 608 305 608 245 549 L165 629 L93 629 L194 528 C208 516 225 509 245 509 C267 509 284 516 297 528 L398 629 Z " />
<glyph glyph-name="circumflex" unicode="&#x2c6;" horiz-adv-x="326" d="M220 626 C208 639 190 645 168 645 C148 645 130 639 117 626 L16 525 L88 525 L168 605 C227 546 228 546 249 525 L321 525 L220 626 Z " />
<glyph glyph-name="caron" unicode="&#x2c7;" horiz-adv-x="349" d="M323 629 L251 629 C230 608 230 608 170 549 L90 629 L18 629 L119 528 C133 516 150 509 170 509 C192 509 209 516 222 528 L323 629 Z " />
<glyph glyph-name="ring" unicode="&#x2da;" horiz-adv-x="224" d="M164 516 C178 530 185 547 185 568 C185 589 178 607 164 621 C150 635 132 642 111 642 C90 642 72 634 57 620 C43 606 36 589 36 568 C36 548 43 530 57 517 C72 503 90 496 111 496 C132 496 150 502 164 516 L164 516 Z M111 531 C101 531 92 535 85 541 C78 549 74 558 74 568 C74 579 78 588 85 595 C92 602 101 606 111 606 C121 606 130 602 136 595 C143 588 146 579 146 568 C146 558 143 549 136 541 C130 535 121 531 111 531 L111 531 Z " />
<glyph glyph-name="tilde" unicode="&#x2dc;" horiz-adv-x="595" d="M417 458 C485 458 527 508 542 610 L493 621 C493 621 491 613 489 599 C484 569 476 548 465 535 C444 513 409 509 385 530 C365 550 346 574 321 603 C311 616 297 627 282 635 C240 661 182 653 149 609 C128 582 115 544 109 496 L144 490 C148 490 160 488 160 488 C160 488 163 500 164 506 C169 538 177 559 187 573 C225 612 273 583 301 544 C321 520 341 492 372 472 C386 463 401 458 417 458 L417 458 Z " />
<glyph glyph-name="quoteleft" unicode="&#x2018;" horiz-adv-x="134" d="M42 477 C58 477 70 480 78 486 C87 491 94 502 99 516 C113 564 121 590 121 595 C121 609 117 620 108 628 C99 637 88 641 75 641 C62 641 51 637 42 628 C34 620 29 609 29 595 C29 581 34 570 44 561 C51 556 52 549 50 539 L34 486 C33 484 34 482 36 480 C37 478 39 477 42 477 L42 477 Z " />
<glyph glyph-name="quoteright" unicode="&#x2019;" horiz-adv-x="140" d="M42 477 C58 477 70 480 78 486 C87 491 94 502 99 516 C113 564 121 590 121 595 C121 609 117 620 108 628 C99 637 88 641 75 641 C62 641 51 637 42 628 C34 620 29 609 29 595 C29 581 34 570 44 561 C51 556 52 549 50 539 L34 486 C33 484 34 482 36 480 C37 478 39 477 42 477 L42 477 Z " />
<glyph glyph-name="quotedblleft" unicode="&#x201c;" horiz-adv-x="217" d="M21 483 C36 483 48 486 57 492 C65 498 72 508 77 522 C92 571 99 598 99 602 C99 627 80 648 53 648 C29 648 8 629 8 602 C8 588 13 577 23 568 C29 563 31 556 28 545 L13 494 C12 491 12 489 14 486 C15 484 18 483 21 483 L21 483 Z M128 483 C144 483 156 486 165 492 C173 498 180 508 185 522 C199 568 207 595 207 602 C207 626 189 648 162 648 C137 648 116 629 116 602 C116 587 121 576 131 568 C138 563 140 556 136 545 L121 494 C120 491 120 489 122 486 C123 484 125 483 128 483 L128 483 Z " />
<glyph glyph-name="quotedblright" unicode="&#x201d;" horiz-adv-x="219" d="M21 483 C36 483 48 486 57 492 C65 498 72 508 77 522 C92 571 99 598 99 602 C99 627 80 648 53 648 C29 648 8 629 8 602 C8 588 13 577 23 568 C29 563 31 556 28 545 L13 494 C12 491 12 489 14 486 C15 484 18 483 21 483 L21 483 Z M128 483 C144 483 156 486 165 492 C173 498 180 508 185 522 C199 568 207 595 207 602 C207 626 189 648 162 648 C137 648 116 629 116 602 C116 587 121 576 131 568 C138 563 140 556 136 545 L121 494 C120 491 120 489 122 486 C123 484 125 483 128 483 L128 483 Z " />
<glyph glyph-name="Euro" unicode="&#x20ac;" horiz-adv-x="624" d="M407 638 C319 638 248 616 193 572 C138 528 101 466 84 386 L14 386 L14 325 L75 325 C73 303 73 286 73 273 C73 255 73 243 74 235 L14 235 L14 174 L81 174 C97 87 133 20 189 -28 C245 -76 318 -100 407 -100 L512 -100 L565 -100 L565 -32 L512 -32 L407 -32 C336 -32 279 -14 236 21 C194 56 166 107 154 174 L471 174 L471 235 L145 235 C145 243 144 256 144 274 C144 287 145 303 146 325 L507 325 L507 386 L506 386 L156 386 C188 508 271 569 407 569 L565 569 L565 638 L407 638 Z " />
<glyph glyph-name="fi" unicode="&#xfb01;" horiz-adv-x="415" d="M155 448 L155 488 C156 534 181 570 228 570 L314 570 L314 564 L377 564 L377 631 L228 631 C185 631 151 618 127 593 C102 567 90 532 90 488 L90 448 L7 448 L7 388 L90 388 L90 -100 L155 -100 L155 388 L312 388 L313 -100 L378 -100 L378 448 L155 448 Z " />
<glyph glyph-name="fl" unicode="&#xfb02;" horiz-adv-x="519" d="M223 629 C180 629 147 617 122 591 C98 565 85 530 85 486 L85 447 L2 447 L2 386 L85 386 L85 -100 L151 -100 L151 386 L309 386 L309 447 L151 447 L151 486 C151 512 158 532 170 547 C183 561 200 568 223 568 L348 568 L348 629 L223 629 Z M489 -39 L480 -39 L440 -39 C419 -39 403 -33 391 -19 C380 -6 374 12 374 36 L374 629 L308 629 L308 36 C308 -6 320 -39 344 -64 C367 -88 399 -100 440 -100 L480 -100 L509 -100 L509 -59 L509 -39 L489 -39 L489 -39 Z " />
</font>
</svg>
